<svg width="125" height="125" viewBox="0 0 125 125" fill="none" xmlns="http://www.w3.org/2000/svg">
<g clip-path="url(#clip0_17_2)">
<path d="M125 0H0V125H125V0Z" fill="#D8D0CA"/>
<path d="M85.6189 60.3258C81.2897 55.5482 81.2897 51.6104 81.9806 43.9554C82.4027 41.9354 82.9373 40.1462 83.5814 38.5892C84.8273 35.5804 86.4836 33.4304 88.543 32.1188C90.2651 31.0219 92.5363 31.3301 93.8859 32.8623C95.2471 34.4076 96.2316 36.0683 96.8786 37.7844C100.212 46.6137 94.6322 56.8861 85.6189 60.3258Z" fill="#9CE5FF"/>
<path d="M85.6195 60.8367C85.4779 60.8367 85.3393 60.7778 85.2406 60.6688C80.6604 55.6148 80.8112 51.2283 81.472 43.91C81.4738 43.8904 81.4767 43.8708 81.4808 43.8515C82.7343 37.8502 85.0183 33.7575 88.269 31.687C90.2223 30.4427 92.7457 30.795 94.2691 32.5248C97.9094 36.6589 99.1844 41.8904 97.8592 47.2554C96.3541 53.3483 91.7338 58.5396 85.8015 60.803C85.7422 60.8257 85.6805 60.8367 85.6195 60.8367ZM82.4876 44.0315C81.7978 51.6839 81.9041 55.3264 85.7637 59.7195C91.2302 57.5102 95.4684 52.6704 96.8666 47.0103C98.109 41.9801 96.9141 37.0757 93.5019 33.2005C92.3137 31.8513 90.3442 31.5778 88.8183 32.5493C85.8139 34.4629 83.6839 38.3263 82.4876 44.0315Z" fill="#69060A"/>
<path d="M92.3009 31.4125C90.18 31.5811 88.7225 33.28 87.8106 35.0563C86.8252 36.9759 86.2816 39.0943 86.102 41.2394C86.0531 41.8235 86.0478 42.4084 86.0187 42.9934C86.0041 43.2878 85.9825 43.5828 85.9286 43.8729C85.9035 44.0083 85.8727 44.1427 85.8344 44.2749C85.8153 44.3411 85.7944 44.4068 85.7715 44.4717C85.7561 44.5152 85.7399 44.5583 85.7228 44.6011C85.7707 44.5598 85.77 44.5528 85.7206 44.5798C85.7759 44.5648 85.8312 44.5499 85.8865 44.5349C85.8754 44.536 85.8643 44.5371 85.8531 44.5382C85.9084 44.5531 85.9637 44.5681 86.019 44.583C86.0105 44.5789 86.002 44.5748 85.9935 44.5708C86.0328 44.6101 86.0721 44.6493 86.1114 44.6887C86.107 44.6784 86.1025 44.6682 86.098 44.658C86.027 44.4953 85.7888 44.458 85.6484 44.5401C85.4806 44.6383 85.4592 44.8264 85.5305 44.9897C85.6502 45.2637 86.0045 45.2277 86.1921 45.0543C86.3771 44.8835 86.4448 44.5523 86.504 44.3168C86.6354 43.7942 86.6688 43.2502 86.6875 42.7136C86.7251 41.635 86.7933 40.5688 86.9942 39.5063C87.1952 38.4436 87.4965 37.3981 87.9093 36.3979C88.3095 35.4284 88.8126 34.4522 89.5012 33.6542C90.2156 32.8263 91.1843 32.1585 92.3009 32.0698C92.7197 32.0365 92.7233 31.3789 92.3009 31.4125Z" fill="#69060A"/>
<path d="M85.9991 45.3268C86.9491 44.8962 87.7903 44.2749 88.5945 43.6177C89.4456 42.9222 90.2772 42.2019 91.1165 41.4921C91.9185 40.8139 92.7398 40.1527 93.5123 39.4407C94.1757 38.8292 94.8113 38.1492 95.2386 37.3475C95.7144 36.4548 96.0245 35.2278 95.4615 34.3042C95.2416 33.9436 94.6729 34.2734 94.8939 34.6359C95.3284 35.3485 95.0346 36.3338 94.6711 37.0157C94.2733 37.7622 93.6868 38.3844 93.0703 38.9549C92.3485 39.6228 91.5803 40.242 90.8297 40.8769C90.0103 41.5699 89.195 42.2683 88.3701 42.9547C87.5345 43.6499 86.6624 44.3083 85.6674 44.7593C85.5057 44.8326 85.4665 45.067 85.5495 45.2089C85.6466 45.3752 85.8368 45.4004 85.9991 45.3268Z" fill="#69060A"/>
<g opacity="0.2">
<path d="M85.6189 60.3258C81.2897 55.5482 81.2897 51.6104 81.9806 43.9554C82.4027 41.9354 82.9373 40.1462 83.5814 38.5892C83.8311 40.6618 85.1471 42.6044 87.0226 43.5421C87.4695 43.7641 87.9558 43.9365 88.4539 43.9277C88.8746 43.9189 89.2806 43.7831 89.6779 43.6487C90.8069 43.269 91.9447 42.8834 92.9715 42.2787C94.7169 41.2519 96.03 39.635 96.8786 37.7844C100.212 46.6137 94.6322 56.8861 85.6189 60.3258Z" fill="#69060A"/>
</g>
<path d="M91.1983 72.3815C91.1677 74.8558 90.7441 77.2993 89.932 79.6012V79.6027C88.8614 82.6466 87.1145 85.4407 84.7016 87.7323C83.0716 89.2835 81.1378 90.6039 78.903 91.6146C77.9566 92.044 76.9575 92.4164 75.903 92.729C75.8519 92.7436 75.8008 92.7597 75.7497 92.7772C74.8748 93.0445 74.032 93.4009 73.2375 93.8376C72.9074 94.0173 72.5845 94.213 72.2705 94.4219C71.5052 94.9287 70.7953 95.5158 70.1541 96.1761C69.8766 96.4609 69.6123 96.7588 69.3625 97.0699C69.3493 97.0875 69.3362 97.105 69.3216 97.1211C68.4453 95.3128 67.8099 93.2972 67.3732 91.1137C67.2461 90.4798 67.1366 89.8313 67.0416 89.1696C66.3303 84.189 66.5041 78.4547 67.1 72.3611V72.3597C67.382 69.4823 67.7573 66.5246 68.178 63.5289C68.4467 63.4617 68.714 63.3872 68.9798 63.304C70.9516 62.7008 72.8665 61.7075 74.7345 60.3945C77.3096 58.5848 79.7984 56.169 82.2245 53.331C82.3837 53.461 82.54 53.5925 82.6933 53.7239C83.8896 54.7537 84.9587 55.8666 85.9022 57.0439C86.0293 57.2031 86.1549 57.3638 86.2776 57.5259C87.674 59.3648 88.7723 61.3526 89.5727 63.4164V63.4179C90.7003 66.32 91.2392 69.3741 91.1983 72.3815Z" fill="#FBCE09"/>
<path d="M69.3216 97.6321C69.2972 97.6321 69.2724 97.6304 69.2479 97.6268C69.0802 97.6024 68.9355 97.4965 68.8615 97.3439C67.9988 95.5638 67.3294 93.5013 66.8719 91.2138C66.7473 90.592 66.6341 89.9287 66.5356 89.2422C65.8879 84.7079 65.9054 79.3306 66.5903 72.321C66.5906 72.3172 66.5909 72.3135 66.5913 72.3097C66.8472 69.6971 67.1905 66.8843 67.6716 63.4578C67.7006 63.2516 67.8517 63.0836 68.0536 63.033C72.5104 61.9156 77.0186 58.6333 81.8359 52.9988C82.0164 52.7875 82.333 52.7594 82.5482 52.9354C85.9114 55.6885 88.5052 59.2488 90.0494 63.2316C90.0522 63.2387 90.0546 63.2457 90.057 63.2528C91.1961 66.1922 91.752 69.2656 91.7096 72.3884C91.678 74.9341 91.2443 77.4113 90.4207 79.7523C90.4187 79.7591 90.4165 79.7658 90.4141 79.7723C89.2789 83.0002 87.4754 85.8029 85.0537 88.103C83.3383 89.7353 81.3397 91.0736 79.1138 92.0804C78.1443 92.5203 77.1127 92.9036 76.0483 93.2191C75.1569 93.4822 74.2941 93.8409 73.4833 94.2857C72.0332 95.078 70.7828 96.1201 69.7661 97.3837C69.7447 97.4121 69.7226 97.4399 69.6989 97.466C69.6013 97.5726 69.4639 97.6321 69.3216 97.6321ZM67.6098 72.3997C67.6095 72.4034 67.6092 72.407 67.6088 72.4107C66.9311 79.3419 66.9116 84.6442 67.5477 89.0973C67.6434 89.7648 67.7534 90.4095 67.8744 91.013C68.2542 92.912 68.7834 94.6452 69.4506 96.1778C70.4571 95.0609 71.6454 94.1248 72.9923 93.389C73.8664 92.9094 74.7973 92.5223 75.7583 92.2387C76.7772 91.9366 77.7644 91.57 78.6917 91.149C80.8135 90.1893 82.7168 88.9154 84.3493 87.362C86.6481 85.1787 88.3618 82.5174 89.4432 79.4516C89.4451 79.4447 89.4474 79.4378 89.4499 79.4311C90.2406 77.1899 90.657 74.8159 90.6872 72.375C90.6872 72.3748 90.6872 72.3747 90.6872 72.3744C90.728 69.3765 90.1927 66.4254 89.0962 63.6029C89.0934 63.5958 89.0909 63.5888 89.0884 63.5817C87.6661 59.9231 85.3187 56.6363 82.283 54.0461C77.5633 59.478 73.0922 62.719 68.6371 63.937C68.1831 67.193 67.8556 69.8904 67.6098 72.3997Z" fill="#69060A"/>
<path d="M91.1984 72.3815C85.2114 77.2555 76.8452 78.8651 67.8158 77.72L67.1001 72.3611V72.3596C75.0705 74.3592 87.8215 71.5855 89.5728 63.4178C90.7003 66.32 91.2393 69.3741 91.1984 72.3815Z" fill="#69060A"/>
<path d="M89.932 79.6027C88.8614 82.6465 87.1146 85.4406 84.7016 87.7323C79.2171 88.1895 74.1416 87.1714 69.5656 84.3657L70.4419 80.2672C77.4323 82.7926 83.3725 82.794 89.932 79.6027Z" fill="#69060A"/>
<path d="M78.9031 91.6146C77.9566 92.044 76.9576 92.4164 75.903 92.729C74.9727 93.0036 74.0788 93.3761 73.2375 93.8376C71.0758 93.0372 69.1186 92.1287 67.3732 91.1136C66.8693 90.8215 66.3814 90.5191 65.9126 90.208L67.0416 89.1696L69.5655 86.8487C71.5607 89.0512 74.7682 90.5878 78.9031 91.6146Z" fill="#69060A"/>
<g opacity="0.3">
<path d="M85.41 72.8182C83.7551 74.3825 82.3866 76.3309 82.0287 78.5321C81.6738 80.7317 82.5049 83.1913 84.4548 84.408C81.3583 84.0253 78.2648 86.1914 77.3037 89.0323C76.9766 90.0021 76.8758 91.0202 76.9692 92.0294C76.0549 92.2967 75.1742 92.6531 74.3446 93.0898C73.6113 93.4725 72.9176 93.9179 72.2705 94.4218C71.5476 94.9842 70.8844 95.6195 70.2943 96.3221C70.2812 96.3396 70.2666 96.3571 70.252 96.3732C70.2184 96.3075 70.1862 96.2418 70.1541 96.176C69.288 94.4189 68.6556 92.4705 68.2145 90.3658C68.083 89.7319 67.9676 89.0833 67.8683 88.4217C67.1249 83.4411 67.3074 77.7068 67.9296 71.6133V71.6118C68.2071 68.9024 68.5708 66.1214 68.9798 63.3039C69.0046 63.1301 69.0295 62.9563 69.0557 62.781C70.9983 62.3151 72.8883 61.5001 74.7345 60.3944C77.4746 58.7513 80.1183 56.4654 82.6933 53.7239C83.8895 54.7536 84.9586 55.8666 85.9022 57.0438C86.0292 57.203 86.1549 57.3637 86.2776 57.5258C84.9689 58.9426 83.9903 60.6384 83.4747 62.4641C82.4874 65.9607 83.2162 69.8649 85.41 72.8182Z" fill="#69060A"/>
</g>
<g opacity="0.3">
<path d="M88.1793 55.3072C88.1837 55.3568 88.1763 55.4065 88.1544 55.4532C88.0741 55.6227 87.725 55.5467 87.7995 55.3743L88.1793 55.3072Z" fill="#69060A"/>
</g>
<path d="M81.2899 56.8335C81.2907 56.8499 81.2915 56.8664 81.2924 56.8828C81.4042 58.9395 82.8957 60.6733 84.9096 61.1057C88.4431 61.8645 92.038 61.8771 95.6857 61.1072C96.7413 60.8843 97.7627 60.5127 98.7078 59.9923C106.783 55.5455 109.676 45.0538 107.1 40.4471C106.421 39.233 105.112 38.5018 103.721 38.5087C94.4781 38.5548 88.9907 49.9986 81.2899 56.8335Z" fill="#9CE5FF"/>
<g opacity="0.8">
<path d="M81.6449 58.1307C81.644 58.1143 81.6432 58.0978 81.6424 58.0814C89.3432 51.2465 94.8306 39.8027 104.073 39.7567C105.464 39.7497 106.774 40.4809 107.453 41.695C107.593 41.946 107.716 42.2154 107.824 42.4993C107.673 41.7346 107.432 41.0416 107.1 40.4471C106.421 39.233 105.112 38.5019 103.721 38.5088C94.4781 38.5548 88.9907 49.9986 81.2899 56.8335C81.2907 56.85 81.2915 56.8664 81.2924 56.8828C81.3229 57.4443 81.4594 57.98 81.6781 58.4735C81.6633 58.3602 81.6512 58.2461 81.6449 58.1307Z" fill="white"/>
</g>
<g opacity="0.2">
<path d="M99.2297 54.0207C98.3566 54.5323 97.4128 54.8975 96.4376 55.1166C93.0675 55.8734 89.7462 55.861 86.4816 55.1152C85.4628 54.8824 84.5906 54.2645 83.9912 53.4226C83.2284 54.2423 82.4481 55.029 81.6428 55.7624C81.6436 55.7788 81.6444 55.7953 81.6453 55.8117C81.7541 57.8684 83.2078 59.6022 85.1705 60.0346C88.6142 60.7934 92.1177 60.806 95.6727 60.0361C96.7014 59.8133 97.697 59.4416 98.618 58.9212C105.357 55.1133 108.393 46.8729 107.549 41.6909C106.699 46.2105 103.905 51.282 99.2297 54.0207Z" fill="#69060A"/>
</g>
<path d="M90.2797 62.1886C88.4424 62.1886 86.6125 61.9942 84.8024 61.6055C82.5592 61.1238 80.9059 59.1933 80.782 56.9104L80.7793 56.8571C80.7722 56.7028 80.8351 56.5536 80.9506 56.4511C83.3359 54.334 85.5389 51.7313 87.6694 49.2143C92.5375 43.4628 97.1356 38.0303 103.718 37.9975C103.726 37.9974 103.733 37.9974 103.741 37.9974C105.33 37.9974 106.787 38.8388 107.546 40.1975C108.72 42.2963 108.839 45.5796 107.866 48.9805C106.451 53.9238 103.203 58.1006 98.9543 60.44C97.9784 60.9776 96.9141 61.3703 95.7913 61.6073C93.9557 61.9948 92.1139 62.1886 90.2797 62.1886ZM81.8177 57.0473C81.9942 58.7841 83.2858 60.2342 85.0169 60.6059C88.4932 61.3524 92.0471 61.3529 95.5801 60.607C96.6041 60.3908 97.5735 60.0333 98.4611 59.5445C102.414 57.3679 105.562 53.3136 106.883 48.6992C107.783 45.5545 107.697 42.5628 106.654 40.6965C106.072 39.6563 104.951 39.0143 103.723 39.0199C97.6118 39.0503 93.1614 44.3083 88.4497 49.8749C86.3517 52.3536 84.1839 54.9146 81.8177 57.0473Z" fill="#69060A"/>
<path d="M107.024 39.6824C106.343 38.8927 105.166 38.874 104.261 39.2328C103.725 39.4451 103.242 39.7543 102.76 40.0668C102.293 40.3699 101.83 40.6795 101.372 40.9963C99.5022 42.2895 97.7082 43.7025 96.0697 45.2807C94.4918 46.8007 93.1123 48.4926 91.7839 50.2307C90.4896 51.924 89.2332 53.6503 87.8165 55.2454C87.0239 56.1378 86.1814 56.988 85.2669 57.756C84.4044 58.4803 83.2659 59.3415 82.0685 59.0327C81.6587 58.927 81.4839 59.5607 81.8938 59.6664C83.0073 59.9536 84.0986 59.4532 84.9868 58.8092C85.856 58.1791 86.65 57.4334 87.3966 56.6643C88.8735 55.1432 90.1604 53.4525 91.4385 51.765C92.7203 50.0726 94.0001 48.3731 95.4607 46.8285C97.0001 45.2007 98.7098 43.7387 100.514 42.4122C101.519 41.6732 102.548 40.9557 103.612 40.303C104.453 39.7867 105.767 39.2295 106.559 40.1472C106.835 40.4681 107.299 40.0015 107.024 39.6824Z" fill="#69060A"/>
<path d="M92.8429 49.7586C95.2365 50.2333 97.6718 49.9047 100.036 49.4198C101.164 49.1884 102.299 48.9539 103.41 48.6486C104.456 48.3611 105.498 47.976 106.398 47.359C107.315 46.7304 108.064 45.8974 108.474 44.8562C108.539 44.691 108.403 44.4953 108.245 44.4519C108.058 44.4007 107.906 44.5157 107.841 44.6814C107.123 46.5018 105.211 47.4468 103.443 47.9565C102.388 48.2606 101.306 48.4814 100.233 48.7086C99.1009 48.9481 97.961 49.1624 96.8081 49.2678C95.5445 49.3833 94.2654 49.3723 93.0177 49.1248C92.6045 49.0428 92.4277 49.6762 92.8429 49.7586Z" fill="#69060A"/>
<path d="M88.6791 55.396C88.8662 55.4006 89.0252 55.4948 89.185 55.5833C89.3709 55.6863 89.5581 55.786 89.7495 55.8784C90.1502 56.0719 90.5627 56.2417 90.979 56.3984C91.799 56.7073 92.6343 56.9824 93.4689 57.249C94.3358 57.5259 95.2153 57.7724 96.1152 57.9156C97.0227 58.0601 97.9408 58.1104 98.859 58.1007C99.9039 58.0897 100.946 58.0068 101.987 57.9236C102.406 57.8902 102.41 57.2326 101.987 57.2664C100.161 57.4124 98.3025 57.5698 96.4784 57.3103C95.5751 57.1818 94.6915 56.9443 93.8221 56.6717C92.9834 56.4087 92.1465 56.1301 91.3213 55.827C90.8783 55.6643 90.4408 55.4878 90.017 55.2797C89.5875 55.0687 89.1745 54.7509 88.6791 54.7388C88.256 54.7283 88.2562 55.3856 88.6791 55.396Z" fill="#69060A"/>
<path d="M93.2706 57.2445C94.3042 57.8526 95.3795 58.4219 96.357 59.119C96.8023 59.4365 97.215 59.8007 97.5615 60.2251C97.7382 60.4415 97.9613 60.7841 98.2902 60.6084C98.53 60.4804 98.5886 60.0642 98.3029 59.9423C98.1398 59.8728 97.9507 59.8936 97.8533 60.0602C97.7725 60.1984 97.807 60.4398 97.9712 60.5098C97.9787 60.5131 97.9862 60.5163 97.9938 60.5195C97.9434 60.454 97.8931 60.3885 97.8427 60.3231C97.8456 60.3308 97.8486 60.3385 97.8515 60.3462C97.8515 60.2879 97.8515 60.2297 97.8515 60.1715C97.8562 60.1629 97.861 60.1544 97.8657 60.1459C97.905 60.1066 97.9443 60.0673 97.9836 60.028C97.9753 60.0323 97.9669 60.0366 97.9586 60.0409C98.043 60.0298 98.1274 60.0188 98.2118 60.0078C98.2572 60.0149 98.1645 59.9329 98.1416 59.9042C98.1108 59.8658 98.0806 59.8271 98.0497 59.7888C97.9716 59.6924 97.891 59.5984 97.8066 59.5075C97.6493 59.3381 97.4809 59.1792 97.305 59.0292C96.955 58.7309 96.5785 58.4642 96.1914 58.2165C95.3463 57.6757 94.467 57.1855 93.6024 56.6769C93.2369 56.462 92.9058 57.0299 93.2706 57.2445Z" fill="#69060A"/>
<path d="M83.5534 54.9581C83.4253 55.1348 83.2929 55.3101 83.1577 55.4854C83.0901 55.573 83.0211 55.6607 82.952 55.7468C82.8829 55.8344 82.8125 55.9221 82.7405 56.0083C82.6686 56.0944 82.5967 56.1821 82.5233 56.2683C82.306 56.5253 82.0816 56.7824 81.8471 57.0351C78.0821 61.1276 72.2655 64.7046 64.6981 66.6341H64.6966C64.6305 66.6501 64.5657 66.6691 64.4995 66.6852C63.3802 66.9247 62.3185 67.0562 61.3086 67.0883C54.964 67.2884 50.6465 63.5551 46.8988 57.78C33.8759 34.9334 61.9042 16.1531 78.6058 34.6018C79.5438 35.6374 80.6271 36.5211 81.8011 37.266C82.5104 37.7158 83.142 38.2066 83.6973 38.7368C84.4929 39.4919 85.1316 40.3244 85.6194 41.2139C87.7888 45.1692 86.963 50.2652 83.5534 54.9581Z" fill="#FBCE09"/>
<path d="M85.6193 41.2139C85.4006 41.5718 85.0928 41.9136 84.7087 42.2042C83.5448 43.0835 82.1277 43.1492 81.5421 42.3518C80.9566 41.5528 81.4256 40.193 82.5895 39.3137C82.9448 39.045 83.3246 38.8522 83.6973 38.7368C84.4928 39.4919 85.1316 40.3244 85.6193 41.2139Z" fill="#EF2E2D"/>
<g opacity="0.6">
<path d="M77.9584 35.7487C78.8964 36.7842 79.9797 37.6679 81.1537 38.4128C81.8629 38.8627 82.4945 39.3534 83.0498 39.8836C83.8454 40.6387 84.4842 41.4713 84.9719 42.3608C86.76 45.6207 86.5116 49.6553 84.4607 53.6007C87.0932 49.3 87.5812 44.7906 85.6193 41.2139C85.1316 40.3244 84.4928 39.4919 83.6972 38.7368C83.1419 38.2066 82.5103 37.7158 81.8011 37.2659C80.6271 36.521 79.5438 35.6374 78.6058 34.6018C67.473 22.3045 51.3087 26.5491 45.6232 37.5127C51.8077 27.4143 67.2226 23.8899 77.9584 35.7487Z" fill="white"/>
</g>
<path d="M60.8154 67.6086C58.3534 67.6086 56.109 67.0219 54.0219 65.8406C51.3241 64.3137 48.9244 61.8407 46.4699 58.0582C46.4645 58.0501 46.4593 58.0417 46.4545 58.0331C43.3916 52.6598 42.3624 47.1032 43.4781 41.9642C44.4759 37.3688 47.173 33.2822 51.0728 30.4572C55.0259 27.5937 59.8562 26.2608 64.6715 26.7042C70.0055 27.195 74.955 29.8073 78.9848 34.2587C79.8535 35.2179 80.8931 36.0844 82.0749 36.8343C82.8064 37.2982 83.4709 37.8139 84.0503 38.3671C84.8674 39.1427 85.5465 40.0182 86.0675 40.9681C87.7412 44.0194 87.7467 47.7966 86.0832 51.6036C84.6284 54.9331 81.9963 58.1027 78.4715 60.7696C74.6655 63.6494 69.877 65.8664 64.6235 67.1811C64.6179 67.1824 64.6121 67.1838 64.6063 67.185C63.2857 67.4672 62.0242 67.6086 60.8154 67.6086ZM47.3355 57.5141C52.256 65.0905 57.3547 67.6848 64.3842 66.1871C74.2273 63.7214 82.1826 57.9771 85.1465 51.1942C86.6802 47.6841 86.689 44.227 85.1712 41.4597C84.7011 40.6027 84.0868 39.8113 83.3454 39.1076C82.8135 38.5997 82.2022 38.1257 81.5273 37.6976C80.2678 36.8984 79.1574 35.9723 78.227 34.945C69.6263 25.4448 58.4331 26.3882 51.6727 31.2852C44.8802 36.2056 40.9064 46.2228 47.3355 57.5141Z" fill="#69060A"/>
<path d="M62.184 53.0917C61.7576 52.4891 61.6028 51.7084 61.6651 50.9565C61.8703 48.4737 64.4019 46.7681 66.6856 47.9805C66.9052 48.0935 66.806 48.4374 66.5626 48.4185C64.5937 48.2977 63.2852 49.2751 62.7704 51.1414C62.6127 51.702 62.552 52.2946 62.581 52.9468C62.6034 53.1646 62.3055 53.2716 62.184 53.0917Z" fill="#69060A"/>
<path d="M72.5346 42.6344C72.2086 41.9729 72.1781 41.1784 72.3578 40.4458C72.9525 38.0226 75.726 36.7513 77.7838 38.3185C77.9823 38.4655 77.829 38.7889 77.5917 38.7308C76.9506 38.6067 76.3467 38.5626 75.802 38.6814C74.0467 39.0768 73.1411 40.8531 72.9493 42.554C72.9372 42.7725 72.6264 42.8312 72.5346 42.6344Z" fill="#69060A"/>
<path d="M73.2712 53.0636C72.725 53.0636 72.1684 52.9894 71.6134 52.838C71.38 52.7742 71.2423 52.5333 71.3061 52.2998C71.3697 52.0663 71.6115 51.9292 71.8442 51.9925C73.6419 52.4831 75.4552 52.0294 76.696 50.7788C78.0823 49.3817 78.5417 47.2395 77.9251 45.0483C77.8595 44.8154 77.9951 44.5734 78.2281 44.5078C78.4607 44.4423 78.7031 44.5779 78.7686 44.8109C79.472 47.3101 78.9297 49.7719 77.3181 51.3961C76.2383 52.4844 74.7969 53.0636 73.2712 53.0636Z" fill="#69060A"/>
<path d="M71.5743 54.1927C71.0145 53.3767 70.8408 52.2926 71.1123 51.3387C71.1858 51.105 71.5057 50.1532 71.834 50.4082C71.898 50.4565 71.9259 50.5346 71.9133 50.6086C71.8198 51.1946 71.7275 51.7415 71.7241 52.3252C71.7146 52.9117 71.8014 53.4778 71.8834 54.0701C71.9117 54.2445 71.6719 54.3381 71.5743 54.1927Z" fill="#69060A"/>
<path d="M76.5177 44.8222C77.2488 44.2553 78.2776 44.069 79.1638 44.3461C79.3982 44.4274 80.2636 44.7474 80.0048 45.0725C79.9546 45.1322 79.8784 45.1564 79.8067 45.1431C79.2703 45.051 78.7774 44.9592 78.2442 44.9574C77.7085 44.9499 77.1945 45.0407 76.6526 45.1263C76.4811 45.1579 76.38 44.9265 76.5177 44.8222Z" fill="#69060A"/>
<path d="M66.646 58.1306C67.8533 57.3146 68.3825 55.9879 67.8279 55.1674C67.2733 54.3469 65.845 54.3434 64.6377 55.1594C63.4304 55.9755 62.9012 57.3021 63.4558 58.1226C64.0104 58.9431 65.4387 58.9467 66.646 58.1306Z" fill="#EF2E2D"/>
<g opacity="0.3">
<path d="M83.5533 54.9581C83.4253 55.1348 83.2929 55.3101 83.1577 55.4854C83.0901 55.573 83.0211 55.6607 82.952 55.7468C82.8829 55.8344 82.8124 55.9221 82.7405 56.0083C82.6686 56.0944 82.5966 56.1821 82.5233 56.2683C82.3031 56.5268 82.0758 56.7853 81.8399 57.0409C81.8428 57.0394 81.8442 57.038 81.8471 57.0351C78.0821 61.1276 72.2655 64.7046 64.698 66.6341H64.6966C64.6304 66.6501 64.5656 66.6691 64.4995 66.6852C63.3802 66.9247 62.3185 67.0562 61.3085 67.0883C55.479 66.9057 51.4061 63.3142 47.8497 57.9027C39.7988 43.9672 47.4368 31.5638 58.388 28.425C50.3674 32.8097 45.7895 43.1375 52.2981 54.5638C54.8776 58.5439 57.7521 61.4723 61.4725 62.6335C60.6481 61.4183 59.8885 60.1608 59.2886 58.817C58.3319 56.6758 57.7966 54.2848 58.1204 51.961C58.4786 52.3159 58.8383 52.6694 59.198 53.0228C59.8353 53.6494 60.4741 54.2775 61.1704 54.8354C63.9528 57.0658 67.4963 58.0575 70.9836 58.7104C72.6942 59.0303 74.4379 59.2829 76.1715 59.1354C77.0764 59.058 77.9712 58.8667 78.8316 58.5745C80.6271 57.4703 82.2053 56.2493 83.5533 54.9581Z" fill="#69060A"/>
</g>
<g opacity="0.3">
<path d="M57.4061 51.2597C57.644 51.4937 57.8819 51.7276 58.1198 51.9616C58.1317 51.8756 58.1422 51.7894 58.1566 51.7036L57.4061 51.2597Z" fill="#69060A"/>
</g>
<path d="M61.3141 29.5191C59.9935 25.2036 61.558 19.8666 64.2722 17.5224C65.4616 18.1449 66.3964 17.3827 66.4909 16.249C66.5745 15.245 65.9475 14.3392 65.0786 14.1108C63.943 13.8123 63.0869 14.938 63.2963 16.3848C60.0434 18.8669 58.3356 23.3714 58.173 29.8984C59.4444 30.3422 60.4235 30.0433 61.3141 29.5191Z" fill="#FBCE09"/>
<g opacity="0.3">
<path d="M65.0786 14.1108C65.0133 14.0936 64.949 14.0817 64.8857 14.0737C65.396 14.4773 65.7118 15.1539 65.651 15.8838C65.5699 16.8576 64.8688 17.5573 63.9189 17.3409C63.573 17.2621 63.2076 17.3487 62.9622 17.6049C60.8283 19.8326 59.5567 23.9569 60.1388 27.6848C60.3132 28.8019 59.4131 29.8242 58.2858 29.7378C58.2609 29.7359 58.236 29.7337 58.2109 29.7312C58.1886 29.8312 58.1959 29.7986 58.1736 29.8986C59.4447 30.3421 60.4237 30.0432 61.3141 29.5191C59.9935 25.2036 61.558 19.8666 64.2722 17.5224C65.4616 18.1449 66.3964 17.3828 66.4908 16.249C66.5744 15.245 65.9475 14.3392 65.0786 14.1108Z" fill="#69060A"/>
</g>
<path d="M57.8834 29.8911C57.9529 24.9171 58.8504 19.2644 62.9861 15.9785C62.9864 15.9781 62.7903 16.4582 62.7904 16.4581C62.5864 15.2916 63.137 13.7471 64.4867 13.5667C65.2647 13.4681 66.0262 13.8845 66.4753 14.4793C67.8624 16.2881 66.3769 19.178 64.0352 17.9754L64.6063 17.9093C62.2715 19.9628 61.2349 23.2666 61.1759 26.3218C61.1675 27.373 61.2921 28.4278 61.5798 29.4388C61.6218 29.5863 61.5363 29.7399 61.3888 29.7819C61.2447 29.8228 61.0946 29.7417 61.0486 29.6004C60.7062 28.5436 60.5351 27.4364 60.5039 26.329C60.4542 23.0074 61.4553 19.4762 63.938 17.1355C64.0996 16.9887 64.328 16.9731 64.5093 17.0696C64.7825 17.2119 65.0597 17.2694 65.2832 17.213C66.1195 16.975 66.1575 15.6981 65.662 15.0988C65.0836 14.3515 64.1291 14.3847 63.8565 15.373C63.7701 15.662 63.7564 15.9889 63.8023 16.3116C63.8287 16.4981 63.7515 16.6753 63.6144 16.785C61.6703 18.2105 60.3923 20.3721 59.6438 22.6521C59.2587 23.8077 58.9925 25.0086 58.8057 26.2235C58.6171 27.4393 58.5144 28.6715 58.4624 29.9069C58.4435 30.2733 57.8873 30.2747 57.8834 29.8911Z" fill="#69060A"/>
<path d="M49.458 36.8477C42.6663 33.5857 36.4101 36.5069 35.8745 44.0533C35.0593 44.4578 34.4469 44.9814 34.8034 46.0616C35.4158 47.5584 37.9295 47.7558 38.8315 45.9749C38.9693 45.7028 39.0174 45.391 38.9471 45.0943C38.7634 44.3198 38.1428 43.8427 37.3135 43.7977C39.0493 37.1799 42.9108 37.0262 47.6566 39.562C48.8831 39.1298 49.458 38.0101 49.458 36.8477Z" fill="#FBCE09"/>
<g opacity="0.6">
<path d="M35.3512 46.4695C34.9946 45.3893 35.607 44.8656 36.4223 44.4612C36.9433 37.12 42.8782 34.1568 49.4532 37.0041C49.4555 36.952 49.458 36.9 49.458 36.8477C42.6663 33.5857 36.4101 36.5069 35.8745 44.0533C35.0593 44.4578 34.4469 44.9814 34.8034 46.0616C34.976 46.4834 35.2995 46.8019 35.6954 47.0021C35.5521 46.8491 35.4338 46.6716 35.3512 46.4695Z" fill="white"/>
</g>
<g opacity="0.3">
<path d="M38.753 44.61C38.7369 44.7793 38.6892 44.9458 38.6123 45.0997C37.76 46.8061 35.4693 46.7204 34.703 45.4253C34.6957 45.6139 34.7248 45.8236 34.8034 46.0616C35.4157 47.5584 37.9295 47.7558 38.8314 45.9749C38.9692 45.7028 39.0174 45.3909 38.947 45.0942C38.9048 44.9163 38.8386 44.7549 38.753 44.61Z" fill="#69060A"/>
<path d="M49.1332 36.6963C49.1311 36.7048 49.1288 36.7132 49.1266 36.7216C48.8021 37.9432 47.4329 38.5443 46.283 38.0195C42.0697 36.0964 38.6872 36.735 37.0944 42.8921C37.0468 43.196 36.9993 43.4999 36.9517 43.8038C37.1522 43.5252 37.3527 43.2467 37.5532 42.9681C37.5979 42.6954 38.0058 39.4003 40.8915 38.4217C43.0017 37.7061 45.6459 38.3332 47.6567 39.562C48.8831 39.1298 49.4581 38.0101 49.4581 36.8478C49.3496 36.7957 49.2413 36.7453 49.1332 36.6963Z" fill="#69060A"/>
</g>
<path d="M49.3586 37.0549C42.9926 34.069 36.7792 36.6735 36.3845 44.0896C36.3733 44.278 36.2596 44.4337 36.1012 44.5116C35.554 44.797 35.1445 45.0478 35.2219 45.6216C35.2745 46.0717 35.6212 46.4105 36.0189 46.5885C36.7775 46.9201 37.7548 46.6681 38.2304 45.9846L38.2975 45.8707C38.4734 45.6302 38.5195 45.3202 38.3974 45.0464C38.223 44.5803 37.802 44.3385 37.2858 44.3082C36.9634 44.2999 36.7251 43.9779 36.819 43.668C37.8747 39.7977 40.1337 36.7162 44.5572 37.9365C45.7089 38.246 46.7752 38.7469 47.7932 39.3065C47.9334 39.3835 47.9846 39.5597 47.9075 39.6999C47.832 39.8373 47.6613 39.8892 47.5226 39.8187C46.0307 39.0688 44.4438 38.411 42.772 38.4161C39.7642 38.4118 38.4157 41.3823 37.808 43.9274C37.8106 43.9275 37.333 43.2825 37.3439 43.2875C38.5359 43.3185 39.6022 44.3265 39.4781 45.5772C39.4469 45.8728 39.3319 46.1558 39.1716 46.4011C39.115 46.5008 39.0172 46.6475 38.9384 46.7322C38.1642 47.7037 36.7464 48.0163 35.6144 47.5275C34.8494 47.2123 34.1989 46.42 34.1904 45.5421C34.1212 44.6307 34.8994 43.9289 35.6475 43.5954L35.3647 44.0171C35.5094 42.4086 35.9116 40.7908 36.7236 39.3579C39.3935 34.5865 45.1151 34.3418 49.5576 36.6406C49.8194 36.7804 49.6362 37.1754 49.3586 37.0549Z" fill="#69060A"/>
<path d="M34.9982 94.5898C46.975 108.514 73.6552 96.9267 72.584 81.3471C73.3394 77.0699 72.6517 73.2319 70.4419 69.8571C71.0261 64.8668 67.801 59.9648 63.358 56.8335C62.2139 53.1577 58.3274 50.7286 54.6675 50.9181C47.5836 45.2948 26.6241 56.6144 27.9386 64.0634C25.8208 65.9622 24.4718 71.1507 26.1859 75.1157C25.301 78.7583 26.1859 84.5117 29.8374 86.9947C29.1801 89.4047 31.371 93.1292 34.9982 94.5898Z" fill="#D6AB47"/>
<g opacity="0.6">
<path d="M36.4224 94.5895C32.7953 93.1289 30.6044 89.4044 31.2616 86.9945C27.6102 84.5115 26.7253 78.758 27.6102 75.1155C25.8961 71.1504 27.245 65.9619 29.3629 64.0632C28.3235 58.1735 41.2078 49.8663 50.1494 49.425C41.2297 48.9534 26.8426 57.8526 27.9387 64.0634C25.8208 65.9622 24.4719 71.1507 26.1859 75.1157C25.3011 78.7583 26.1859 84.5117 29.8374 86.9947C29.1802 89.4047 31.371 93.1292 34.9982 94.5898C38.9374 99.1695 44.4672 100.989 50.077 100.815C44.9652 100.66 40.0276 98.7809 36.4224 94.5895Z" fill="white"/>
</g>
<path d="M49.3164 101.335C48.2859 101.335 47.2715 101.268 46.2835 101.132C41.6308 100.495 37.6251 98.381 34.6914 95.0164C30.9717 93.4603 28.8536 89.7494 29.2674 87.2157C25.5104 84.405 24.8808 78.5942 25.6503 75.1611C24.0254 71.1972 25.2025 66.0753 27.3953 63.8746C26.9659 60.0437 31.5102 55.8707 35.9886 53.2028C42.0732 49.5782 50.5148 47.1871 54.832 50.3998C58.7663 50.2836 62.5705 52.8738 63.7923 56.5149C68.698 60.0299 71.43 65.0647 70.9695 69.7317C73.1348 73.1221 73.8509 77.0379 73.0983 81.3745C73.3362 85.0845 72.0628 88.7791 69.4131 92.0629C66.9819 95.0758 63.4302 97.6434 59.4121 99.2927C56.1395 100.636 52.6463 101.335 49.3164 101.335ZM49.4784 49.9227C45.5282 49.9227 40.567 51.6655 36.5118 54.0812C31.1163 57.2954 27.9487 61.1788 28.442 63.9746C28.4727 64.1485 28.4115 64.326 28.2799 64.4439C26.2301 66.2817 25.074 71.255 26.6551 74.9128C26.6992 75.0148 26.7088 75.1283 26.6827 75.2363C25.7808 78.949 26.8404 84.3385 30.1249 86.5721C30.3054 86.6948 30.3882 86.9186 30.3306 87.1293C29.759 89.2251 31.7567 92.7334 35.189 94.1156C35.265 94.1461 35.3323 94.1945 35.3857 94.2564C41.8576 101.781 52.1645 101.162 59.0237 98.3469C65.9059 95.522 72.6103 89.1808 72.0741 81.3822C72.0712 81.3407 72.0734 81.299 72.0807 81.2581C72.8157 77.0957 72.1205 73.3539 70.0142 70.1372C69.9485 70.0369 69.9202 69.9168 69.9341 69.7977C70.4481 65.4079 67.8154 60.6005 63.0635 57.2514C62.9715 57.1864 62.9033 57.093 62.8699 56.9854C61.8428 53.6853 58.2503 51.2451 54.6939 51.4286C54.5686 51.4355 54.4472 51.396 54.3497 51.3185C53.1237 50.3454 51.4236 49.9227 49.4784 49.9227Z" fill="#69060A"/>
<path d="M43.6786 96.559C40.527 96.559 37.5357 96.0644 34.8222 95.0699C34.5572 94.9727 34.4211 94.6789 34.5181 94.4139C34.6155 94.1487 34.9097 94.0132 35.1741 94.1098C48.2886 98.9172 65.8214 91.0492 72.1524 81.0732C72.3036 80.8347 72.6195 80.7642 72.858 80.9154C73.0963 81.0668 73.167 81.3826 73.0158 81.6209C69.751 86.7651 63.5219 91.4397 56.353 94.1252C52.0317 95.744 47.7234 96.559 43.6786 96.559Z" fill="#69060A"/>
<path d="M37.9075 88.4512C35.0265 88.4512 32.25 88.1348 29.7117 87.4902C29.438 87.4208 29.2724 87.1426 29.342 86.869C29.4114 86.5953 29.6899 86.4299 29.9632 86.4993C36.8313 88.2429 45.5125 87.5105 53.1866 84.5401C61.5164 81.3162 67.4752 76.0355 69.9658 69.6709C70.0686 69.408 70.3651 69.2781 70.6282 69.3811C70.8911 69.484 71.0207 69.7806 70.9179 70.0435C68.3218 76.678 62.1557 82.1651 53.5557 85.4936C48.5163 87.444 43.0461 88.4512 37.9075 88.4512Z" fill="#69060A"/>
<path d="M34.0054 77.0428C30.9503 77.0428 28.1971 76.5506 25.9815 75.5842C25.7228 75.4713 25.6044 75.1701 25.7173 74.9113C25.8302 74.6525 26.1315 74.5344 26.3902 74.647C32.9589 77.512 44.3287 75.7284 52.8378 70.4982C59.0038 66.708 62.5588 61.8448 62.8475 56.8042C62.8637 56.5223 63.1036 56.3082 63.3873 56.323C63.6691 56.3392 63.8845 56.5808 63.8684 56.8627C63.5599 62.2469 59.8326 67.3988 53.3732 71.3693C49.1946 73.9376 44.1658 75.7968 39.2134 76.6043C37.4134 76.8976 35.6648 77.0428 34.0054 77.0428Z" fill="#69060A"/>
<path d="M35.0454 66.6742C31.8977 66.6742 29.3014 65.9073 27.6056 64.4513C27.3915 64.2672 27.3669 63.9445 27.5508 63.7304C27.7347 63.5162 28.0571 63.4913 28.2718 63.6755C32.3778 67.2013 41.6268 65.6648 47.6889 62.017C52.7023 59.0003 55.0642 54.9959 54.1688 51.0307C54.1067 50.7553 54.2794 50.4816 54.5549 50.4194C54.83 50.3568 55.104 50.5301 55.1662 50.8055C56.1649 55.2286 53.6317 59.6343 48.2159 62.8931C44.9425 64.863 40.8925 66.2036 37.1046 66.5713C36.3961 66.6402 35.7083 66.6742 35.0454 66.6742Z" fill="#69060A"/>
<path d="M41.1054 56.6346C44.1421 55.1633 46.2947 53.3325 45.9134 52.5454C45.532 51.7582 42.7611 52.3129 39.7243 53.7841C36.6876 55.2554 34.535 57.0863 34.9164 57.8734C35.2977 58.6606 38.0687 58.1059 41.1054 56.6346Z" fill="#D6AB47"/>
<g opacity="0.3">
<path d="M32.1772 92.2804C31.9132 92.185 31.6581 92.077 31.4104 91.9604C32.2811 93.0097 33.4543 93.9335 34.8466 94.525C33.8946 93.8847 32.9997 93.1391 32.1772 92.2804Z" fill="#69060A"/>
</g>
<g opacity="0.3">
<path d="M70.4419 69.8571C71.0261 64.8668 67.801 59.9648 63.358 56.8335C62.2139 53.1577 58.3274 50.7286 54.6675 50.9181C53.9963 50.3854 53.1994 50.0065 52.3099 49.7602L52.4426 49.7517C52.2099 49.6994 51.975 49.6573 51.7392 49.6211C44.9058 48.2161 33.3307 53.9036 29.3079 59.6056C31.4454 57.9254 34.2405 56.3813 37.1636 55.2444C35.5825 56.31 34.6581 57.3362 34.9189 57.8744C35.038 58.1203 35.3905 58.2353 35.9113 58.2322C35.4245 58.7613 34.9378 59.2903 34.4511 59.8194C34.1074 60.193 33.7599 60.5718 33.5206 61.0194C33.0544 61.8915 33.0447 62.9305 33.1066 63.9175C33.1747 65.0032 33.3713 66.1963 34.3071 66.8282C34.4049 66.8942 34.5014 66.9642 34.5809 67.0513C35.3012 67.8399 34.4512 68.4893 33.9489 69.1008C33.1507 70.0725 33.144 71.4496 33.1762 72.7066C33.211 74.0639 33.248 75.437 33.6098 76.7456C33.7275 77.1715 33.8803 77.5954 33.8893 78.0372C33.9026 78.6922 33.5979 79.3285 33.6492 79.9816C33.7076 80.7245 34.2078 81.3452 34.5766 81.9916C35.0349 82.7949 34.8725 83.9907 34.1991 84.6246C33.9618 84.8481 33.7647 85.084 33.7928 85.4203C33.8132 85.6633 33.9633 85.8767 34.1681 86.009C34.581 86.2757 35.0652 86.2379 35.528 86.1959C36.7377 86.086 38.1319 85.8495 38.7291 84.7918C38.979 84.3493 39.0421 83.8246 39.0338 83.3165C39.0096 81.8339 38.425 80.4031 38.4011 78.9204C38.3872 78.0619 38.5622 77.2008 38.4589 76.3483C38.3338 75.3156 37.8129 74.3809 37.4218 73.4169C37.0307 72.4529 36.7681 71.3482 37.1666 70.3872C37.4687 69.6588 38.1026 69.1293 38.5663 68.4914C39.0299 67.8536 39.3093 66.935 38.8408 66.3008C38.6213 66.0036 38.2769 65.8273 38.0117 65.5702C37.4307 65.0067 37.2944 64.0951 37.4962 63.3113C37.698 62.5275 38.1878 61.8501 38.719 61.2394C38.8441 61.0955 38.9916 60.944 39.1817 60.9293C39.353 60.916 39.5111 61.019 39.6393 61.1333C40.3969 61.8087 40.689 63.0412 41.7013 63.2896C42.0693 63.3799 42.461 63.3056 42.785 63.109C43.6196 62.6024 43.8151 61.5196 43.5387 60.6616C43.4582 60.4117 43.4363 60.1421 43.5211 59.8936C43.8109 59.0442 44.797 59.3997 45.5226 59.2156C46.7768 58.8976 46.9679 57.0797 48.0714 56.4043C48.5833 56.0909 49.22 56.0727 49.8185 56.1173C50.2876 56.1523 50.774 56.2277 51.1596 56.4972C52.1311 57.1765 51.9853 58.6538 51.585 59.7696C51.1847 60.8855 50.6361 62.1218 51.1348 63.1973C51.5445 64.081 52.5987 64.6469 52.7047 65.6152C52.7796 66.2995 52.3435 67.0477 52.9884 67.6062C53.0994 67.7023 53.2301 67.7737 53.3664 67.8281C54.6202 68.3292 56.1762 67.626 56.6806 66.3923C57.1406 65.2671 56.7604 63.9798 56.2485 62.8773C56.2068 62.7874 56.1641 62.6976 56.1209 62.6079C55.5698 61.4645 56.4265 60.1122 57.6949 60.1603C57.7047 60.1607 57.7146 60.1611 57.7245 60.1616C58.0896 60.18 58.4591 60.2665 58.7636 60.4689C59.2975 60.8235 59.5536 61.4758 59.6641 62.1072C59.8739 63.3068 59.6589 64.5763 59.0657 65.6399C59.9466 64.9415 60.8351 64.2356 61.5446 63.3636L61.5544 63.3516C62.0765 62.7083 63.0533 62.7092 63.5837 63.3456C65.0894 65.1521 66.0775 67.2 66.2439 69.3125C66.3335 70.4489 66.6705 71.5467 67.2004 72.556C68.5163 75.0624 68.8554 77.8357 68.2598 80.8645C69.2087 93.2585 47.4702 102.721 35.0731 94.6749C47.0857 108.465 73.653 96.8946 72.584 81.3472C73.3394 77.0699 72.6517 73.2319 70.4419 69.8571ZM39.8427 57.3699C39.6489 57.4351 39.4939 57.434 39.3609 57.3946C39.7122 57.2598 40.0738 57.1097 40.442 56.9452C40.285 57.1385 40.0805 57.2899 39.8427 57.3699ZM44.8505 55.9257C44.6175 56.09 44.3531 56.2552 44.0699 56.2235C43.8403 56.1979 43.6476 56.0477 43.4464 55.9343C43.2521 55.8248 43.0402 55.7531 42.822 55.7137C44.2381 54.8688 45.297 54.0017 45.7362 53.335C46.3962 53.3213 47.0331 53.3471 47.6358 53.4216C47.636 53.4221 47.636 53.4219 47.6361 53.4223C46.81 54.3622 45.8729 55.2043 44.8505 55.9257Z" fill="#69060A"/>
</g>
<path d="M35.9022 58.7419C35.1506 58.7419 34.6669 58.5266 34.4589 58.0973C34.1546 57.4694 34.5755 56.6617 35.71 55.6969C36.6501 54.8973 37.9976 54.0549 39.5042 53.3249C41.7173 52.2526 45.6553 50.8351 46.3765 52.3232C46.3765 52.3232 46.3765 52.3232 46.3765 52.3233C47.0974 53.8114 43.5443 56.0233 41.3311 57.0956C39.8245 57.8256 38.3282 58.361 37.1181 58.6033C36.6559 58.6958 36.2503 58.7419 35.9022 58.7419ZM35.3868 57.6478C35.7649 57.8957 37.9049 57.6197 40.8853 56.1755C43.8656 54.7315 45.4089 53.2232 45.4484 52.7728C45.0706 52.5248 42.9303 52.801 39.9501 54.245C36.9696 55.6891 35.4265 57.1973 35.3868 57.6478Z" fill="#69060A"/>
<g opacity="0.75">
<path d="M50.2842 49.6227C49.1393 49.3652 47.9505 49.3034 46.785 49.4409C46.236 49.5057 45.6679 49.6253 45.2379 49.9728C44.808 50.3203 44.5663 50.955 44.82 51.4462C45.0884 51.9658 45.8454 52.3015 45.7239 52.8736C45.6867 53.0492 45.566 53.1936 45.4471 53.3281C44.6286 54.254 43.7019 55.0842 42.6921 55.7966C42.4591 55.9609 42.1947 56.1262 41.9115 56.0945C41.6819 56.0689 41.4892 55.9186 41.288 55.8052C40.4726 55.3457 39.3528 55.5184 38.7138 56.2022C38.2658 56.6817 37.8317 57.4528 37.2023 57.2671C36.8406 57.1603 36.6475 56.7609 36.3173 56.5789C35.678 56.2266 34.9415 56.8113 34.4473 57.3485C33.7291 58.1291 33.0109 58.9098 32.2927 59.6904C31.949 60.064 31.6016 60.4428 31.3622 60.8904C30.896 61.7625 30.8863 62.8015 30.9482 63.7885C31.0104 64.7793 31.1795 65.8595 31.9197 66.521C32.1886 66.7614 32.5365 66.9535 32.6566 67.2936C32.8776 67.9195 32.2118 68.459 31.7905 68.9719C30.9923 69.9435 30.9856 71.3207 31.0178 72.5777C31.0526 73.9349 31.0896 75.3081 31.4513 76.6167C31.5691 77.0425 31.7219 77.4665 31.7309 77.9082C31.7442 78.5632 31.4395 79.1996 31.4908 79.8527C31.5485 80.587 32.038 81.202 32.4055 81.8404C32.773 82.4789 33.0189 83.3154 32.6031 83.9235C32.2955 84.3733 31.6593 84.6478 31.6326 85.1921C31.6144 85.5616 31.9215 85.8842 32.2703 86.0076C32.6191 86.131 33.0011 86.1002 33.3696 86.0668C34.5793 85.9569 35.9734 85.7204 36.5707 84.6627C36.8206 84.2202 36.8837 83.6955 36.8754 83.1874C36.8512 81.7048 36.2665 80.274 36.2427 78.7913C36.2288 77.9328 36.4038 77.0717 36.3005 76.2192C36.1754 75.1865 35.6545 74.2518 35.2634 73.2878C34.8723 72.3238 34.6097 71.2191 35.0082 70.2581C35.3102 69.5297 35.9442 69.0001 36.4079 68.3623C36.8715 67.7244 37.1509 66.8059 36.6824 66.1716C36.4629 65.8745 36.1185 65.6982 35.8533 65.441C35.2723 64.8775 35.136 63.9659 35.3378 63.1821C35.5396 62.3983 36.0294 61.7209 36.5605 61.1103C36.6857 60.9663 36.8332 60.8149 37.0233 60.8001C37.1945 60.7868 37.3527 60.8899 37.4809 61.0042C38.2133 61.6572 38.5107 62.8309 39.4445 63.1326C40.0187 63.3181 40.6816 63.0681 41.0627 62.6002C41.4437 62.1323 41.5622 61.4858 41.466 60.8901C41.3919 60.4312 41.2115 59.9179 41.4755 59.5353C41.8561 58.9836 42.7145 59.2513 43.3642 59.0865C44.6184 58.7684 44.8094 56.9506 45.913 56.2751C46.4249 55.9618 47.0616 55.9435 47.6601 55.9882C48.1292 56.0231 48.6156 56.0985 49.0012 56.3681C49.9728 57.0473 49.8269 58.5246 49.4267 59.6405C49.0264 60.7564 48.4778 61.9926 48.9764 63.0681C49.3862 63.9519 50.4403 64.5177 50.5463 65.4861C50.6074 66.0434 50.3293 66.6432 50.5726 67.1483C50.7362 67.4881 51.1009 67.6874 51.4654 67.7841C52.6669 68.1028 54.0518 67.4137 54.5222 66.2631C54.9822 65.1379 54.6021 63.8507 54.0902 62.7481C53.5783 61.6456 52.9247 60.5633 52.8243 59.3518C52.7841 58.8659 52.8356 58.3757 52.7944 57.8898C52.7037 56.8193 52.1405 55.7975 51.2839 55.1491C50.885 54.8472 50.4282 54.6237 50.0521 54.2938C49.676 53.9638 49.3787 53.4812 49.452 52.9863C49.5817 52.1097 50.7665 51.6302 50.7715 50.7442C50.7765 49.842 49.6159 49.4697 48.7139 49.4526C47.3386 49.4265 45.9595 49.6052 44.6362 49.981" fill="#FF8B01"/>
</g>
<g opacity="0.7">
<g opacity="0.75">
<path d="M51.2839 55.1492C51.1496 55.0476 51.0086 54.955 50.8665 54.8641C51.0232 54.9898 51.1904 55.1018 51.3603 55.2104C51.3348 55.19 51.3099 55.1689 51.2839 55.1492Z" fill="white"/>
</g>
<g opacity="0.75">
<path d="M37.9129 57.7518C38.5423 57.9376 38.9764 57.1663 39.4245 56.6869C40.0635 56.0031 41.1833 55.8304 41.9986 56.2899C42.1999 56.4033 42.3926 56.5536 42.6221 56.5792C42.9054 56.6109 43.1698 56.4457 43.4027 56.2813C44.4126 55.5689 45.3392 54.7387 46.1578 53.8128C46.2766 53.6783 46.3974 53.5339 46.4346 53.3583C46.556 52.7862 45.7991 52.4505 45.5306 51.9309C45.2769 51.4397 45.5187 50.805 45.9486 50.4575C45.9633 50.4456 45.9794 50.436 45.9945 50.4247L45.3468 50.4658C45.6654 50.3753 45.9873 50.2969 46.3115 50.2294C46.6745 50.0519 47.0902 49.9735 47.4957 49.9257C48.4677 49.811 49.4554 49.8369 50.4209 49.9974C50.2573 49.8515 50.0489 49.7373 49.8184 49.6523L50.2843 49.6228C49.1393 49.3652 47.9505 49.3034 46.7851 49.441C46.3795 49.4888 45.9639 49.5673 45.6009 49.7447C45.2767 49.8122 44.9547 49.8906 44.6362 49.9811L45.2839 49.94C45.2688 49.9513 45.2527 49.9609 45.238 49.9728C44.8081 50.3203 44.5663 50.955 44.8201 51.4462C45.0885 51.9658 45.8454 52.3015 45.724 52.8736C45.6867 53.0492 45.566 53.1936 45.4472 53.3281C44.6286 54.254 43.702 55.0842 42.6921 55.7966C42.4592 55.9609 42.1948 56.1262 41.9115 56.0945C41.682 56.0688 41.4893 55.9186 41.2881 55.8052C40.4728 55.3457 39.3529 55.5184 38.7139 56.2022C38.2928 56.6529 37.8839 57.3609 37.3135 57.29C37.4992 57.4727 37.6675 57.6793 37.9129 57.7518Z" fill="white"/>
</g>
<g opacity="0.75">
<path d="M51.2832 67.6331C51.0399 67.128 51.318 66.5282 51.257 65.9708C51.1509 65.0025 50.0968 64.4367 49.687 63.5529C49.1884 62.4774 49.737 61.2412 50.1372 60.1253C50.5375 59.0094 50.6834 57.5322 49.7118 56.8528C49.5856 56.7646 49.4479 56.6988 49.3042 56.6468C49.9331 57.3985 49.7787 58.659 49.4266 59.6406C49.0263 60.7564 48.4777 61.9927 48.9764 63.0682C49.3861 63.952 50.4402 64.5178 50.5463 65.4862C50.6073 66.0435 50.3292 66.6433 50.5725 67.1484C50.719 67.4526 51.0267 67.6436 51.3511 67.7498C51.3259 67.7128 51.303 67.6741 51.2832 67.6331Z" fill="white"/>
</g>
<g opacity="0.75">
<path d="M50.5539 50.1354L50.5291 50.137C50.5422 50.1418 50.5552 50.1469 50.5683 50.1519C50.5638 50.1462 50.5585 50.1411 50.5539 50.1354Z" fill="white"/>
</g>
<g opacity="0.75">
<path d="M32.3433 85.6768C32.37 85.1325 33.0062 84.8581 33.3138 84.4082C33.7295 83.8001 33.4836 82.9636 33.1161 82.3252C32.7487 81.6867 32.2591 81.0718 32.2014 80.3374C32.1502 79.6843 32.4548 79.0479 32.4415 78.3929C32.4325 77.9512 32.2797 77.5273 32.162 77.1014C31.8003 75.7928 31.7632 74.4196 31.7284 73.0624C31.6962 71.8054 31.7029 70.4282 32.5011 69.4566C32.9224 68.9437 33.5882 68.4042 33.3672 67.7783C33.2471 67.4382 32.8992 67.2461 32.6303 67.0057C31.8901 66.3442 31.721 65.264 31.6588 64.2733C31.5969 63.2863 31.6066 62.2473 32.0729 61.3752C32.3122 60.9276 32.6596 60.5488 33.0033 60.1752C33.7215 59.3945 34.4397 58.6139 35.1579 57.8333C35.5865 57.3674 36.1974 56.8668 36.769 56.9716C36.6268 56.8299 36.4909 56.6746 36.3173 56.579C35.678 56.2267 34.9415 56.8114 34.4473 57.3486C33.7291 58.1292 33.0109 58.9099 32.2927 59.6905C31.949 60.0641 31.6016 60.4429 31.3623 60.8905C30.896 61.7626 30.8864 62.8016 30.9482 63.7886C31.0104 64.7793 31.1795 65.8596 31.9197 66.5211C32.1886 66.7615 32.5366 66.9536 32.6566 67.2937C32.8776 67.9196 32.2118 68.4591 31.7905 68.9719C30.9924 69.9436 30.9856 71.3207 31.0178 72.5778C31.0526 73.935 31.0896 75.3082 31.4514 76.6168C31.5691 77.0426 31.7219 77.4666 31.7309 77.9083C31.7442 78.5633 31.4395 79.1997 31.4908 79.8528C31.5485 80.5872 32.038 81.2021 32.4055 81.8406C32.773 82.479 33.0189 83.3155 32.6031 83.9236C32.2955 84.3735 31.6594 84.6479 31.6326 85.1922C31.6144 85.5618 31.9215 85.8843 32.2703 86.0078C32.326 86.0275 32.3829 86.0421 32.4401 86.0545C32.3741 85.9396 32.3366 85.8115 32.3433 85.6768Z" fill="white"/>
</g>
<g opacity="0.75">
<path d="M38.1915 61.489C38.067 61.378 37.9142 61.2785 37.7485 61.285C38.3018 61.9501 38.633 62.8702 39.4441 63.1325C38.998 62.6434 38.699 61.9414 38.1915 61.489Z" fill="white"/>
</g>
</g>
<g opacity="0.4">
<g opacity="0.75">
<path d="M50.2843 49.6227C50.2823 49.6223 50.2803 49.6219 50.2784 49.6215C50.2783 49.622 50.2782 49.6226 50.2782 49.6231L50.2843 49.6227Z" fill="#69060A"/>
</g>
<g opacity="0.75">
<path d="M31.9187 80.6459C31.7875 80.4179 31.6409 80.1929 31.5038 79.9644C31.5903 80.5868 31.9753 81.1262 32.3066 81.6735C32.248 81.3168 32.0982 80.9578 31.9187 80.6459Z" fill="#69060A"/>
</g>
<g opacity="0.75">
<path d="M31.9197 66.521C31.9882 66.5823 32.0618 66.6404 32.1356 66.6986C32.2172 66.5068 32.2435 66.3078 32.1698 66.099C32.0497 65.7589 31.7018 65.5668 31.4328 65.3264C31.3028 65.2102 31.1913 65.0805 31.094 64.9412C31.2251 65.5474 31.4639 66.1137 31.9197 66.521Z" fill="#69060A"/>
</g>
<g opacity="0.75">
<path d="M48.9651 51.7918C48.8995 52.2354 49.1318 52.6688 49.4515 52.9916C49.4517 52.9898 49.4518 52.9881 49.452 52.9863C49.5818 52.1098 50.7666 51.6303 50.7715 50.7443C50.7737 50.3523 50.5555 50.0606 50.2344 49.8543C50.008 50.5572 49.0792 51.0212 48.9651 51.7918Z" fill="#69060A"/>
</g>
<g opacity="0.75">
<path d="M52.3075 56.6953C52.3487 57.1812 52.2972 57.6713 52.3375 58.1573C52.4023 58.9397 52.6981 59.668 53.0372 60.3828C52.9309 60.0476 52.8536 59.7054 52.8244 59.3519C52.7841 58.8659 52.8356 58.3758 52.7944 57.8898C52.7436 57.2904 52.5445 56.7064 52.2289 56.1945C52.2659 56.3595 52.2933 56.5266 52.3075 56.6953Z" fill="#69060A"/>
</g>
<g opacity="0.75">
<path d="M49.2343 56.5725C49.1869 56.0082 48.9798 55.499 48.5143 55.1736C48.1287 54.904 47.6423 54.8286 47.1732 54.7937C46.5747 54.749 45.938 54.7673 45.4261 55.0806C44.3226 55.7561 44.1315 57.5739 42.8774 57.892C42.2277 58.0568 41.3692 57.7891 40.9886 58.3408C40.7247 58.7234 40.9051 59.2367 40.9792 59.6956C41.0753 60.2913 40.9569 60.9378 40.5758 61.4057C40.1947 61.8736 39.5318 62.1236 38.9576 61.9381C38.0239 61.6364 37.7265 60.4627 36.994 59.8097C36.8658 59.6954 36.7077 59.5923 36.5365 59.6056C36.3463 59.6204 36.1989 59.7718 36.0737 59.9158C35.5426 60.5265 35.0528 61.2038 34.851 61.9876C34.6616 62.7231 34.77 63.5711 35.2642 64.1384C35.2323 63.8192 35.2584 63.4908 35.3378 63.1822C35.5396 62.3984 36.0295 61.721 36.5606 61.1103C36.6857 60.9664 36.8332 60.815 37.0233 60.8002C37.1946 60.7869 37.3527 60.89 37.4809 61.0043C38.2134 61.6573 38.5107 62.831 39.4445 63.1327C40.0187 63.3182 40.6817 63.0682 41.0627 62.6003C41.4438 62.1323 41.5622 61.4859 41.4661 60.8902C41.392 60.4313 41.2115 59.918 41.4755 59.5354C41.8561 58.9837 42.7145 59.2514 43.3643 59.0866C44.6184 58.7685 44.8095 56.9507 45.913 56.2752C46.4249 55.9619 47.0616 55.9436 47.6601 55.9883C48.1292 56.0232 48.6157 56.0986 49.0012 56.3682C49.0887 56.4294 49.1643 56.4991 49.2343 56.5725Z" fill="#69060A"/>
</g>
<g opacity="0.75">
<path d="M54.0902 62.7482C54.0597 62.6825 54.0286 62.6169 53.9973 62.5514C54.2641 63.3895 54.3619 64.2698 54.0353 65.0686C53.5649 66.2192 52.18 66.9083 50.9785 66.5896C50.8074 66.5443 50.6371 66.4752 50.4867 66.3807C50.4594 66.6481 50.4572 66.9089 50.5726 67.1484C50.7362 67.4882 51.1009 67.6875 51.4654 67.7842C52.6669 68.1029 54.0518 67.4138 54.5222 66.2632C54.9822 65.138 54.6021 63.8508 54.0902 62.7482Z" fill="#69060A"/>
</g>
<g opacity="0.75">
<path d="M44.82 51.4462C44.9004 51.6017 45.0246 51.7406 45.1559 51.8744C45.1918 51.813 45.2222 51.749 45.2371 51.679C45.3151 51.3113 45.0302 51.0411 44.7455 50.757C44.693 50.9902 44.7093 51.2318 44.82 51.4462Z" fill="#69060A"/>
</g>
<g opacity="0.75">
<path d="M50.0595 64.2916C49.9741 63.5118 49.2742 62.9928 48.7908 62.3588C48.8133 62.6007 48.8698 62.8383 48.9764 63.0682C49.2229 63.5998 49.7017 64.0167 50.0679 64.475C50.0682 64.4135 50.0661 64.3523 50.0595 64.2916Z" fill="#69060A"/>
</g>
<g opacity="0.75">
<path d="M36.3005 76.2193C36.206 75.4387 35.8853 74.7141 35.5654 73.9906C35.6805 74.3272 35.7707 74.6701 35.8137 75.0247C35.9169 75.8772 35.7419 76.7383 35.7558 77.5969C35.7797 79.0795 36.3644 80.5103 36.3885 81.9929C36.3969 82.501 36.3337 83.0257 36.0839 83.4682C35.4866 84.5259 34.0924 84.7625 32.8827 84.8723C32.5142 84.9058 32.1322 84.9365 31.7834 84.8131C31.7779 84.8112 31.7726 84.8082 31.7671 84.8061C31.691 84.9213 31.6397 85.047 31.6326 85.1922C31.6144 85.5617 31.9215 85.8843 32.2703 86.0077C32.6191 86.1311 33.0011 86.1003 33.3696 86.0669C34.5793 85.957 35.9734 85.7205 36.5707 84.6628C36.8206 84.2203 36.8837 83.6956 36.8754 83.1875C36.8512 81.7049 36.2665 80.2741 36.2427 78.7914C36.2289 77.9328 36.4038 77.0717 36.3005 76.2193Z" fill="#69060A"/>
</g>
<g opacity="0.75">
<path d="M36.4292 65.9088C36.3889 66.3499 36.1852 66.8044 35.921 67.1678C35.4574 67.8056 34.8234 68.3352 34.5214 69.0636C34.1229 70.0246 34.3854 71.1293 34.7766 72.0933C34.8763 72.3392 34.9845 72.5831 35.0924 72.8273C34.8071 71.9824 34.6719 71.0693 35.0082 70.2582C35.3103 69.5298 35.9443 69.0003 36.4079 68.3624C36.8716 67.7246 37.151 66.806 36.6824 66.1718C36.6095 66.073 36.5222 65.9883 36.4292 65.9088Z" fill="#69060A"/>
</g>
</g>
<path d="M50.4008 49.2002C49.01 48.8926 47.4647 48.7893 46.0668 49.1199C45.4471 49.2665 44.8443 49.5874 44.5178 50.1546C44.2124 50.6853 44.1885 51.3455 44.559 51.8494C44.7166 52.0636 44.9091 52.2403 45.0914 52.4322C45.1353 52.4783 45.1812 52.5253 45.2198 52.5762C45.1903 52.5373 45.2495 52.6235 45.2569 52.6361C45.271 52.6598 45.2875 52.687 45.298 52.7132C45.2869 52.6855 45.2869 52.6638 45.2971 52.7286C45.2976 52.732 45.313 52.8001 45.3023 52.7544C45.2936 52.7172 45.2783 52.8185 45.3015 52.7571C45.206 53.0105 44.9669 53.2112 44.7834 53.4054C44.5512 53.6512 44.3112 53.8897 44.0639 54.1202C43.5794 54.5717 43.0678 54.9939 42.528 55.3778C42.333 55.5165 42.0925 55.7338 41.8428 55.6228C41.5705 55.5016 41.3428 55.3232 41.0536 55.2289C40.5094 55.0514 39.8746 55.0718 39.342 55.2807C39.0542 55.3936 38.7987 55.5401 38.5628 55.7409C38.3649 55.9096 38.207 56.12 38.041 56.3187C37.8931 56.4956 37.7178 56.7036 37.5532 56.8018C37.5272 56.8173 37.4995 56.8338 37.4718 56.8455C37.4811 56.8416 37.5184 56.826 37.4716 56.8422C37.4615 56.8457 37.3726 56.8642 37.4211 56.8575C37.4646 56.8516 37.392 56.8572 37.39 56.8572C37.3318 56.8561 37.3708 56.8679 37.3216 56.8476C37.2911 56.835 37.221 56.7933 37.1925 56.7707C36.9872 56.6076 36.8188 56.3752 36.5848 56.2279C36.2937 56.0447 35.9472 56.0029 35.6138 56.0647C35.0007 56.1785 34.4922 56.654 34.085 57.0957C33.5764 57.6473 33.069 58.2001 32.561 58.7522C32.0802 59.2747 31.5603 59.7828 31.1625 60.3739C30.7691 60.9585 30.5861 61.6357 30.5156 62.3299C30.4517 62.9586 30.4812 63.6022 30.546 64.2298C30.6086 64.8366 30.7223 65.4316 30.9866 65.9857C31.1127 66.2499 31.2831 66.4976 31.4851 66.7098C31.6845 66.9193 31.9402 67.0662 32.1366 67.2779C32.2833 67.436 32.2891 67.5638 32.2223 67.7239C32.1352 67.9325 31.9441 68.1384 31.7854 68.3154C31.3682 68.7806 31.0327 69.2478 30.8355 69.8477C30.6457 70.425 30.5883 71.0469 30.5737 71.6516C30.5577 72.3178 30.5849 72.9873 30.6135 73.6529C30.6449 74.3824 30.7041 75.1118 30.8288 75.8318C30.8897 76.184 30.9702 76.5316 31.0691 76.875C31.1627 77.2001 31.2784 77.5307 31.2913 77.8715C31.3173 78.5635 30.9849 79.2192 31.0588 79.9171C31.1301 80.5907 31.4752 81.1608 31.8242 81.725C32.1119 82.19 32.4486 82.7411 32.3761 83.3143C32.3142 83.8038 31.8529 84.0153 31.5486 84.3741C31.1165 84.8836 31.07 85.5667 31.5604 86.0637C32.0624 86.5723 32.7893 86.5604 33.4499 86.4975C33.9991 86.4452 34.554 86.375 35.0844 86.2181C35.615 86.0611 36.1328 85.8148 36.5323 85.4244C37.0002 84.9671 37.2232 84.3598 37.2914 83.7195C37.4396 82.3286 36.932 80.9633 36.7438 79.6017C36.645 78.8867 36.6986 78.1814 36.7458 77.4652C36.7935 76.7403 36.7653 76.0288 36.5582 75.3281C36.1849 74.0649 35.3555 72.9091 35.2577 71.5697C35.2122 70.9466 35.3593 70.3992 35.7201 69.8893C36.0678 69.3977 36.5186 68.9875 36.8543 68.4858C37.1872 67.9881 37.4181 67.3526 37.3491 66.7477C37.3092 66.3973 37.1809 66.085 36.9545 65.8134C36.7623 65.5828 36.5048 65.4261 36.2777 65.2341C35.3748 64.4708 35.6525 63.1883 36.2041 62.3026C36.3647 62.0447 36.5467 61.8025 36.7421 61.5701C36.8349 61.4596 36.9312 61.3555 37.0325 61.2531C37.0984 61.1864 37.0949 61.2706 37.0325 61.2329C37.0766 61.2595 37.1278 61.2785 37.171 61.3141C37.5415 61.6189 37.7601 62.0642 38.0381 62.4639C38.3515 62.9143 38.7113 63.3169 39.2336 63.5209C39.7916 63.7389 40.4639 63.6225 40.9509 63.2853C41.5076 62.8998 41.8246 62.2997 41.9105 61.6357C41.9534 61.304 41.9282 60.9809 41.8671 60.6528C41.8229 60.4155 41.7272 60.1235 41.7904 59.8902C41.8032 59.8429 41.821 59.7978 41.8538 59.7565C41.8197 59.7994 41.932 59.6901 41.9054 59.7098C41.9477 59.6785 42.0225 59.6503 42.1377 59.626C42.2301 59.6065 42.2982 59.6039 42.4228 59.5985C42.5557 59.5928 42.6888 59.5923 42.8218 59.5877C43.3739 59.5686 43.8569 59.4379 44.2824 59.0749C44.6317 58.777 44.8794 58.3662 45.1096 57.9746C45.2265 57.7758 45.3406 57.5752 45.4654 57.3811C45.5982 57.1747 45.6741 57.0652 45.8359 56.8989C45.9986 56.7315 46.1101 56.6388 46.3443 56.5457C46.6185 56.4367 46.9142 56.4091 47.2065 56.4083C47.7361 56.4069 48.4346 56.4392 48.8324 56.7891C49.1579 57.0756 49.2791 57.4888 49.2936 57.9195C49.3108 58.4304 49.2112 58.9071 49.0471 59.3995C48.6246 60.6668 47.9706 62.0233 48.621 63.3372C48.8622 63.8244 49.2677 64.2096 49.6187 64.6164C49.9569 65.0084 50.1507 65.3587 50.1067 65.877C50.0792 66.2013 50.0084 66.5209 50.0457 66.8474C50.0849 67.1897 50.2235 67.509 50.4793 67.746C50.9126 68.1475 51.5402 68.3108 52.1203 68.2996C53.2245 68.2783 54.3413 67.6324 54.8351 66.6296C55.4585 65.3638 55.0916 63.9355 54.5524 62.7124C54.0217 61.5083 53.2679 60.3639 53.2469 59.006C53.2362 58.315 53.2672 57.6393 53.0584 56.9702C52.8722 56.3735 52.5605 55.8255 52.1484 55.3562C51.7071 54.8538 51.1367 54.5429 50.5961 54.1654C50.1908 53.8823 49.7653 53.428 49.9166 52.9238C49.9345 52.8642 49.9137 52.9111 49.9515 52.8392C49.9765 52.7915 50.0027 52.7446 50.0316 52.6991C50.1004 52.591 50.1186 52.57 50.2072 52.4671C50.3601 52.2896 50.526 52.1238 50.6767 51.9445C51.0292 51.5251 51.2762 51.0526 51.1852 50.4896C51.0094 49.4018 49.6703 49.0421 48.7377 49.0151C47.3205 48.974 45.8826 49.1754 44.5196 49.5585C43.9774 49.7108 44.2078 50.5566 44.7525 50.4035C46.0714 50.0329 47.4851 49.815 48.8582 49.8965C49.2661 49.9207 49.7128 50.0233 50.0617 50.2648C50.1664 50.3373 50.2792 50.4726 50.3134 50.5932C50.3525 50.7314 50.3305 50.8827 50.2744 50.9964C50.0915 51.3673 49.7447 51.6421 49.4659 51.9956C49.1026 52.4561 48.8945 53.0009 49.0688 53.5884C49.2643 54.2473 49.7973 54.6944 50.3521 55.0549C50.8418 55.3731 51.3127 55.6738 51.6697 56.1474C52.0085 56.5968 52.2306 57.1219 52.3284 57.675C52.4485 58.3549 52.329 59.0555 52.4336 59.7405C52.6338 61.0511 53.403 62.1557 53.8841 63.3657C54.2888 64.3836 54.579 65.7278 53.7947 66.624C53.2056 67.2973 52.1399 67.6802 51.3123 67.265C51.1089 67.1629 50.9515 67.0226 50.9158 66.7889C50.8704 66.4911 50.958 66.1734 50.9831 65.8771C51.0315 65.3068 50.8505 64.7865 50.5094 64.3336C50.195 63.9161 49.7869 63.5557 49.5097 63.1258C49.2022 62.6489 49.1642 62.1008 49.273 61.5532C49.403 60.8987 49.6708 60.2868 49.8837 59.6577C50.052 59.1606 50.1598 58.6312 50.1711 58.1056C50.1824 57.5815 50.0853 57.0202 49.7942 56.5748C49.4634 56.0687 48.9402 55.7588 48.3528 55.6394C47.72 55.5109 47.018 55.4747 46.3852 55.6193C45.852 55.7411 45.3917 56.0466 45.0491 56.4686C44.75 56.837 44.5233 57.2491 44.2803 57.6548C44.2281 57.7419 44.175 57.8285 44.1196 57.9135C44.0903 57.9585 44.0604 58.0031 44.0296 58.0471C44.0135 58.0701 43.9332 58.1776 43.9633 58.1395C43.8998 58.2197 43.8313 58.2967 43.7581 58.3681C43.6575 58.4661 43.6571 58.4667 43.5627 58.5265C43.5204 58.5533 43.4768 58.5774 43.4323 58.6006C43.3656 58.6352 43.4486 58.5999 43.3766 58.6248C43.2839 58.657 43.1391 58.6891 43.086 58.6949C42.8314 58.7228 42.5741 58.7104 42.3188 58.7277C41.7259 58.7678 41.1626 58.9918 40.9618 59.6021C40.7671 60.194 41.0829 60.7921 41.0573 61.3899C41.0355 61.899 40.798 62.3888 40.3385 62.6316C40.1465 62.7331 39.9266 62.7789 39.7215 62.7507C39.5291 62.7242 39.3423 62.6211 39.2102 62.5042C38.8589 62.1933 38.6486 61.7881 38.3736 61.3916C38.0451 60.918 37.5643 60.2648 36.9068 60.3777C36.5877 60.4324 36.3655 60.6644 36.1649 60.9001C35.9486 61.1542 35.7409 61.4178 35.5546 61.6947C34.8688 62.7143 34.5296 64.0363 35.121 65.1817C35.2526 65.4365 35.4393 65.6688 35.6581 65.8538C35.8783 66.04 36.1623 66.1961 36.3348 66.433C36.614 66.8167 36.4704 67.3636 36.267 67.7564C36.002 68.2679 35.5749 68.6653 35.2189 69.111C34.8059 69.628 34.4956 70.1792 34.4061 70.844C34.222 72.2121 34.8722 73.4529 35.388 74.6716C35.6369 75.2596 35.8547 75.8778 35.8879 76.5204C35.9252 77.2411 35.8051 77.9576 35.8037 78.6777C35.8011 80.055 36.2928 81.361 36.4122 82.7227C36.4637 83.3092 36.4795 83.9654 36.1654 84.4876C35.9447 84.8546 35.5571 85.1182 35.1587 85.2697C34.6879 85.4488 34.1727 85.5425 33.6933 85.596C33.2371 85.647 32.4721 85.8236 32.142 85.4031C32.0978 85.3469 32.0731 85.279 32.0705 85.2195C32.0684 85.1694 32.0694 85.1959 32.0664 85.2124C32.0718 85.1822 32.0798 85.1504 32.09 85.1217C32.0869 85.1303 32.0689 85.1669 32.0907 85.1197C32.1068 85.0848 32.1283 85.0506 32.1497 85.019C32.1812 84.9726 32.2521 84.9 32.3224 84.8322C32.415 84.7427 32.5128 84.659 32.6069 84.5712C33.0574 84.1511 33.3134 83.6103 33.2477 82.9843C33.1793 82.3335 32.8858 81.7744 32.5461 81.2266C32.2377 80.7292 31.9005 80.2167 31.9253 79.6083C31.9386 79.2841 32.0307 78.9692 32.09 78.6516C32.1545 78.3057 32.1887 77.966 32.1436 77.616C32.096 77.2455 31.9841 76.894 31.8838 76.5355C31.7908 76.2034 31.7179 75.8661 31.6614 75.526C31.5485 74.8461 31.5083 74.1553 31.4823 73.4674C31.4584 72.8323 31.4319 72.1938 31.4527 71.5583C31.4709 71.0001 31.5348 70.4363 31.7402 69.9124C31.9392 69.4049 32.3214 69.0605 32.6543 68.645C33.0423 68.1605 33.3089 67.5689 32.9898 66.9697C32.7299 66.4815 32.1682 66.2647 31.8791 65.7941C31.6085 65.3535 31.4898 64.8275 31.4318 64.3185C31.362 63.7069 31.3318 63.0788 31.3798 62.4646C31.4278 61.8494 31.6032 61.2677 31.9582 60.7593C32.3451 60.2053 32.8555 59.7251 33.3119 59.229C33.807 58.6909 34.296 58.1465 34.7977 57.6146C34.9921 57.4084 35.1997 57.2129 35.4441 57.0673C35.6315 56.9555 35.8396 56.872 36.017 56.9261C36.2275 56.9903 36.3689 57.2037 36.5355 57.3556C36.7655 57.5653 37.028 57.7123 37.3441 57.7316C37.9033 57.7657 38.331 57.3326 38.6606 56.9382C38.9822 56.5534 39.2714 56.2065 39.7565 56.0633C40.2026 55.9316 40.684 55.9635 41.0941 56.1993C41.3914 56.3702 41.682 56.5565 42.0408 56.5339C42.3914 56.5119 42.6911 56.3329 42.9702 56.1344C43.5324 55.7346 44.072 55.3007 44.5807 54.8347C45.0583 54.3973 45.5556 53.9329 45.9417 53.4105C46.3367 52.8761 46.1608 52.2988 45.7447 51.8481C45.6711 51.7684 45.5929 51.693 45.5164 51.6161C45.4529 51.5521 45.3281 51.4231 45.3008 51.3875C45.172 51.2197 45.1297 51.0553 45.1668 50.8782C45.2773 50.3502 45.7787 50.0927 46.2685 49.9723C46.8708 49.8242 47.5129 49.8009 48.1305 49.8085C48.8175 49.8168 49.4971 49.8968 50.1677 50.0451C50.3986 50.0962 50.6418 49.9754 50.7067 49.7391C50.7672 49.5196 50.6328 49.2515 50.4008 49.2002Z" fill="#69060A"/>
<path d="M65.6706 95.7826C65.9525 95.7826 65.953 95.3444 65.6706 95.3444C65.3886 95.3444 65.3881 95.7826 65.6706 95.7826Z" fill="#69060A"/>
<path d="M65.3785 95.7826C65.6604 95.7826 65.6609 95.3444 65.3785 95.3444C65.0965 95.3444 65.096 95.7826 65.3785 95.7826Z" fill="#69060A"/>
<g opacity="0.75">
<path d="M49.0004 101.012C48.717 100.989 48.4322 100.955 48.1474 100.911C48.4468 100.857 48.7302 100.9 48.996 101.009C48.9989 101.009 49.0004 101.011 49.0004 101.012Z" fill="#FF8B01"/>
</g>
<g opacity="0.75">
<path d="M65.0742 98.3172C64.7938 98.5144 64.4622 98.6415 64.2197 98.8839C63.6866 99.4156 63.7173 100.346 63.1798 100.872C62.5897 101.449 61.6418 101.275 60.837 101.127C60.0322 100.98 59.0113 100.999 58.6315 101.734C58.3263 102.322 58.6125 103.09 58.3131 103.682C57.9538 104.389 56.7415 104.348 56.4289 103.619C56.3997 103.551 56.3764 103.477 56.3589 103.403C56.2274 102.876 56.3048 102.232 55.8505 101.98C55.722 101.909 55.5774 101.894 55.4357 101.921C55.2327 101.957 55.0355 102.077 54.8997 102.237C54.6689 102.512 54.574 102.874 54.4849 103.223C54.3052 103.93 54.1256 104.681 54.3315 105.381C54.463 105.828 54.7419 106.215 54.9114 106.648C55.2838 107.608 55.0779 108.718 54.6178 109.638C54.3388 110.198 53.9561 110.724 53.4215 111.038C52.8884 111.35 52.1829 111.414 51.663 111.078C51.219 110.794 50.9984 110.3 50.9356 109.762C50.8889 109.371 50.9269 108.955 51.0218 108.579C51.2467 107.687 51.7083 106.849 51.7682 105.928C51.8441 104.754 51.2555 103.648 50.6362 102.652C50.2287 101.995 49.6722 101.292 49.0047 101.014C52.7336 101.326 56.4508 99.9882 59.9913 98.6678C60.9246 98.3216 61.8608 97.9725 62.743 97.5052C63.5712 97.0684 64.3468 96.528 65.0479 95.9014C65.226 95.7437 65.3998 95.5772 65.5693 95.4078C66.1725 96.2987 65.9622 97.6935 65.0742 98.3172Z" fill="#FF8B01"/>
</g>
<g opacity="0.75">
<path d="M65.7606 95.2091C65.6978 95.2763 65.6335 95.342 65.5693 95.4077C65.5196 95.3347 65.4656 95.2646 65.4042 95.1988L65.7606 95.2091Z" fill="#FF8B01"/>
</g>
<g opacity="0.3">
<path d="M64.2957 98.0528C64.0153 98.2325 63.6837 98.3493 63.4413 98.5714C62.9081 99.0578 62.9374 99.9108 62.3999 100.391C61.8112 100.919 60.8633 100.761 60.0585 100.625C59.2537 100.491 58.2328 100.508 57.853 101.181C57.5478 101.719 57.834 102.423 57.5346 102.963C57.3214 103.348 56.8058 103.491 56.3589 103.403C56.0521 103.345 55.7775 103.178 55.6504 102.906C55.5117 102.61 55.5146 102.233 55.4358 101.921C55.3803 101.701 55.2853 101.513 55.0706 101.406C54.7595 101.249 54.3505 101.392 54.1198 101.642C53.8904 101.893 53.794 102.224 53.7064 102.544C53.5253 103.191 53.3456 103.878 53.5516 104.519C53.6845 104.928 53.9634 105.281 54.1314 105.679C54.5054 106.558 54.2994 107.573 53.8393 108.417C53.5603 108.928 53.1777 109.41 52.6431 109.697C52.126 109.974 51.4513 110.037 50.9357 109.762C50.8889 109.371 50.9269 108.955 51.0219 108.579C51.2468 107.687 51.7083 106.849 51.7682 105.928C51.8442 104.754 51.2556 103.648 50.6363 102.652C50.2288 101.995 49.6723 101.292 49.0048 101.014C52.7337 101.326 56.4509 99.9882 59.9913 98.6678C60.9247 98.3216 61.8609 97.9725 62.7431 97.5052C63.5713 97.0684 64.3468 96.528 65.0479 95.9014C65.2889 96.6682 65.0144 97.5913 64.2957 98.0528Z" fill="#69060A"/>
</g>
<path d="M65.0944 95.5089C65.2603 95.6942 65.3688 95.9199 65.4302 96.1806C65.4819 96.4002 65.4862 96.7185 65.4422 96.9349C65.3832 97.2249 65.2995 97.4449 65.1144 97.6841C65.0822 97.7258 64.9604 97.8533 64.8821 97.9168C64.7897 97.9916 64.581 98.1063 64.4397 98.1885C64.0967 98.3879 63.8017 98.6321 63.6035 98.981C63.4365 99.2751 63.3378 99.6028 63.2243 99.9197C63.1295 100.184 63.0169 100.466 62.7848 100.638C62.5648 100.801 62.2767 100.835 62.0027 100.834C61.3394 100.832 60.7008 100.606 60.0358 100.617C59.3686 100.627 58.6787 100.837 58.3028 101.427C58.0847 101.769 58.0424 102.184 58.0341 102.58C58.0277 102.891 58.0667 103.259 57.8921 103.534C57.8846 103.546 57.8411 103.597 57.8853 103.546C57.8672 103.567 57.8478 103.586 57.8281 103.605C57.7705 103.662 57.8049 103.628 57.8218 103.615C57.7943 103.636 57.7639 103.651 57.7352 103.67C57.7261 103.676 57.6496 103.714 57.6951 103.693C57.7493 103.669 57.6256 103.717 57.6312 103.715C57.6047 103.723 57.5777 103.73 57.5506 103.737C57.5313 103.741 57.4138 103.754 57.5012 103.747C57.4449 103.751 57.389 103.751 57.3326 103.75C57.2477 103.747 57.3018 103.75 57.3232 103.753C57.2956 103.749 57.2677 103.743 57.2404 103.737C57.1042 103.706 57.057 103.687 56.9768 103.628C56.9113 103.58 56.8733 103.536 56.8255 103.437C56.8512 103.49 56.8194 103.418 56.8169 103.411C56.806 103.38 56.7969 103.348 56.7882 103.316C56.7661 103.234 56.7504 103.151 56.7368 103.067C56.6959 102.815 56.6757 102.473 56.5634 102.194C56.422 101.842 56.144 101.559 55.7595 101.49C55.3455 101.417 54.9157 101.585 54.6275 101.886C54.3479 102.177 54.205 102.569 54.1024 102.952C53.9863 103.385 53.8829 103.822 53.8295 104.268C53.7781 104.697 53.7931 105.146 53.9285 105.56C54.0582 105.957 54.2833 106.308 54.4543 106.686C54.7643 107.371 54.7005 108.15 54.4726 108.849C54.2649 109.486 53.8986 110.189 53.3313 110.576C52.8146 110.929 52.0818 111.003 51.6645 110.501C51.3365 110.106 51.3007 109.424 51.3981 108.906C51.5458 108.12 51.928 107.401 52.1039 106.622C52.2933 105.784 52.2058 104.939 51.8978 104.14C51.6063 103.383 51.1972 102.651 50.7232 101.993C50.2951 101.399 49.7786 100.842 49.0807 100.574C48.7408 100.444 48.3873 100.431 48.0313 100.488C47.6147 100.555 47.6111 101.27 48.0313 101.334C50.6055 101.723 53.1894 101.324 55.6717 100.609C56.9111 100.252 58.1281 99.8218 59.3381 99.3763C60.5283 98.9381 61.7384 98.5183 62.8673 97.9348C64.06 97.3184 65.1467 96.4918 66.0707 95.5189C66.459 95.11 65.8404 94.4892 65.451 94.8992C64.6777 95.7135 63.797 96.4102 62.8197 96.9643C61.777 97.5557 60.646 97.9601 59.5257 98.3757C57.1825 99.2451 54.8019 100.094 52.319 100.459C50.9825 100.656 49.6022 100.691 48.2643 100.488C48.2643 100.77 48.2643 101.052 48.2643 101.334C48.5222 101.292 48.792 101.375 49.0334 101.518C49.3242 101.69 49.5637 101.936 49.7793 102.194C50.2622 102.771 50.6544 103.473 50.9628 104.157C51.2919 104.887 51.4327 105.67 51.2432 106.456C51.0534 107.243 50.6612 107.976 50.5346 108.78C50.4258 109.471 50.4588 110.24 50.8421 110.849C51.2884 111.558 52.0911 111.842 52.8999 111.696C53.6988 111.552 54.3268 110.959 54.7504 110.297C55.1998 109.594 55.4865 108.763 55.5359 107.929C55.5599 107.525 55.5172 107.105 55.3979 106.717C55.2753 106.319 55.0596 105.964 54.8808 105.59C54.51 104.816 54.7365 103.972 54.9473 103.185C55.0255 102.893 55.1251 102.5 55.4341 102.372C55.5265 102.333 55.5784 102.335 55.6493 102.37C55.7118 102.402 55.7348 102.455 55.7656 102.556C55.9416 103.133 55.8389 103.817 56.3847 104.27C56.8752 104.677 57.5999 104.738 58.1596 104.437C58.8936 104.041 58.8876 103.212 58.913 102.485C58.9185 102.328 58.9278 102.169 58.9828 102.02C59.0359 101.877 59.0863 101.814 59.1927 101.723C59.3338 101.603 59.6338 101.518 59.8536 101.501C60.5342 101.449 61.133 101.666 61.8279 101.705C62.6079 101.747 63.3671 101.499 63.7843 100.8C63.9618 100.503 64.0628 100.165 64.1784 99.8403C64.276 99.5667 64.3884 99.2889 64.6244 99.1074C64.9158 98.8834 65.2605 98.7508 65.539 98.5043C65.7799 98.2911 65.9719 98.0146 66.1023 97.7216C66.3737 97.112 66.436 96.396 66.2211 95.7579C66.1115 95.4324 65.9429 95.1448 65.714 94.8891C65.337 94.4682 64.719 95.0896 65.0944 95.5089Z" fill="#69060A"/>
<g opacity="0.6">
<path d="M50.7816 61.6658C50.444 61.8356 50.2338 62.2292 50.2806 62.6042C50.2961 62.7288 50.3424 62.8573 50.4422 62.9335C50.5963 63.051 50.8312 63.0006 50.9727 62.8683C51.1142 62.7359 51.1816 62.5437 51.2301 62.3561C51.2817 62.1563 51.3141 61.9309 51.2072 61.7544C51.1003 61.5779 50.7992 61.5228 50.6969 61.7021" fill="white"/>
</g>
<g opacity="0.6">
<path d="M33.3509 75.9463C32.9893 76.1282 32.7643 76.5497 32.8144 76.9513C32.831 77.0848 32.8806 77.2224 32.9875 77.3039C33.1525 77.4298 33.404 77.3758 33.5556 77.2341C33.7072 77.0924 33.7793 76.8865 33.8312 76.6856C33.8865 76.4716 33.9213 76.2302 33.8068 76.0412C33.6923 75.8522 33.3697 75.7932 33.2603 75.9852" fill="white"/>
</g>
<g opacity="0.6">
<path d="M33.1984 78.1051C32.9189 78.1518 32.9106 79.2241 32.9067 79.7293C32.9067 79.7293 32.8314 80.7573 33.3433 81.2662C33.361 81.2838 33.3796 81.3011 33.4021 81.3117C33.4684 81.3428 33.5475 81.3069 33.6023 81.2583C33.7694 81.11 33.8064 80.8608 33.7792 80.6389C33.7413 80.3296 33.693 80.2448 33.6492 79.9817C33.5556 79.4197 33.8163 79.2817 33.7183 78.8241C33.6406 78.4607 33.3753 78.0756 33.1984 78.1051Z" fill="white"/>
</g>
<path d="M72.7539 64.9928C72.9773 67.8291 70.7296 69.2984 63.6517 70.0984C63.3618 70.1312 63.0747 70.1929 62.7975 70.2839C58.6645 71.6409 55.0914 70.5743 54.9911 68.1379C54.9613 67.4142 55.3639 66.7561 55.9913 66.3941C56.5939 66.0465 57.2975 65.9134 58.1729 66.1448C57.9747 65.1915 58.0118 64.4367 58.2986 63.8925C58.4654 63.5762 58.8506 63.4454 59.18 63.5847C60.1004 63.974 60.9229 64.6593 61.6296 65.6944C64.8883 65.6392 68.2271 63.9799 71.5642 63.9283C72.1782 63.9189 72.7057 64.3807 72.7539 64.9928Z" fill="#FBCE09"/>
<g opacity="0.75">
<path d="M58.2346 64.8383C58.4013 64.5219 58.7866 64.3912 59.1159 64.5304C60.0363 64.9198 60.8589 65.605 61.5656 66.6401C64.8243 66.5849 68.1631 64.9257 71.5002 64.8741C72.1142 64.8646 72.6416 65.3264 72.6898 65.9385C72.6938 65.9888 72.6952 66.0376 72.6976 66.087C72.7666 65.7467 72.7846 65.3831 72.7539 64.9928C72.7057 64.3807 72.1782 63.9189 71.5642 63.9284C68.2271 63.98 64.8883 65.6392 61.6296 65.6944C60.9229 64.6593 60.1004 63.9741 59.1799 63.5848C58.8506 63.4455 58.4654 63.5762 58.2986 63.8926C58.1007 64.2681 58.0244 64.7463 58.0596 65.3185C58.1009 65.144 58.1582 64.9831 58.2346 64.8383Z" fill="white"/>
<path d="M55.0219 68.4248C55.1742 67.9737 55.498 67.5874 55.9272 67.3398C56.5298 66.9922 57.2335 66.8591 58.1089 67.0905C58.0344 66.7323 57.9932 66.4023 57.9859 66.1008C57.1965 65.9343 56.5503 66.0716 55.9912 66.3941C55.3638 66.7561 54.9612 67.4142 54.9911 68.1379C54.9951 68.2361 55.0068 68.3311 55.0219 68.4248Z" fill="white"/>
</g>
<g opacity="0.3">
<path d="M72.7539 64.9928C72.7057 64.3807 72.1782 63.9189 71.5642 63.9284C70.881 63.9389 70.1978 64.0176 69.5152 64.1353C69.5032 66.6944 67.5616 68.0536 62.0065 68.8095C61.7677 68.842 61.5312 68.9032 61.3029 68.9934C58.317 70.1735 55.6863 69.5048 55.0286 67.693C54.9987 67.8371 54.9848 67.9859 54.991 68.1379C55.0913 70.5743 58.6645 71.6409 62.7975 70.2839C63.0746 70.1929 63.3618 70.1312 63.6516 70.0984C70.7296 69.2984 72.9773 67.8291 72.7539 64.9928Z" fill="#69060A"/>
</g>
<path d="M59.3083 71.3898C57.9149 71.3898 56.6894 71.0812 55.8101 70.4716C54.9788 69.8953 54.5189 69.0956 54.4804 68.159C54.4435 67.2653 54.9245 66.4193 55.7358 65.9513C56.3075 65.6216 56.9097 65.4798 57.56 65.5244C57.4873 64.7714 57.5823 64.1551 57.8464 63.6541C58.1337 63.1091 58.8066 62.872 59.3791 63.1138C60.3377 63.5194 61.1806 64.2121 61.8881 65.1751C63.3571 65.1106 64.8389 64.7282 66.4024 64.3246C68.0798 63.8917 69.8143 63.4442 71.5563 63.4172C72.4516 63.3998 73.1948 64.0782 73.2636 64.9527C73.3954 66.627 72.7194 67.8697 71.1971 68.7515C69.7214 69.6063 67.3421 70.1958 63.709 70.6063C63.4513 70.6355 63.1983 70.6904 62.957 70.7696C61.6937 71.1844 60.4451 71.3898 59.3083 71.3898ZM57.3327 66.5396C56.9466 66.5396 56.5916 66.638 56.2466 66.837C55.7661 67.1143 55.4808 67.6047 55.5018 68.1169C55.5272 68.7295 55.8268 69.2392 56.3927 69.6315C57.7109 70.5455 60.1627 70.6111 62.6381 69.7983C62.9454 69.6974 63.2671 69.6275 63.5941 69.5905C71.0295 68.75 72.4165 67.2234 72.2443 65.033C72.2179 64.6982 71.9284 64.4394 71.5828 64.4394C71.5792 64.4394 71.5757 64.4394 71.5721 64.4396C69.9519 64.4646 68.2774 64.8967 66.658 65.3147C65.015 65.7387 63.3159 66.1771 61.6383 66.2056C61.4694 66.2084 61.3045 66.1248 61.2074 65.9827C60.571 65.0505 59.8427 64.4202 58.9809 64.0555C58.8936 64.019 58.7924 64.0517 58.7509 64.131C58.5251 64.5593 58.499 65.2018 58.6734 66.0407C58.7094 66.2142 58.6531 66.3939 58.5246 66.5157C58.396 66.6377 58.2133 66.6844 58.0423 66.6389C57.7923 66.5728 57.5572 66.5396 57.3327 66.5396Z" fill="#69060A"/>
<path d="M74.79 81.0355C74.2642 81.4488 73.5193 81.405 72.9979 80.9859C71.0378 79.4069 68.7855 80.4279 66.3887 82.759L65.8585 80.574L65.5737 79.3997C67.2095 77.923 68.7811 77.0291 70.3455 76.7195C71.9638 76.3982 73.5733 76.7019 75.2326 77.6309C75.6123 77.8427 75.8592 78.2297 75.8855 78.665C75.941 79.5822 75.5437 80.4425 74.79 81.0355Z" fill="#FBCE09"/>
<path d="M66.3886 83.2701C66.3413 83.2701 66.2937 83.2635 66.247 83.2501C66.0708 83.1993 65.9352 83.0578 65.8918 82.8795L65.0764 79.5203C65.0321 79.3379 65.0914 79.1459 65.2307 79.0202C68.7644 75.8301 72.0219 75.2467 75.4817 77.1844C76.0174 77.4844 76.3592 78.0264 76.3958 78.6343C76.461 79.7197 75.9907 80.7413 75.1054 81.4371C74.4018 81.9903 73.4031 81.9687 72.6771 81.3838C71.7047 80.6007 70.0317 79.9287 66.7451 83.1254C66.6483 83.2194 66.5198 83.2701 66.3886 83.2701ZM66.1425 79.5778L66.6799 81.792C69.2931 79.4918 71.4706 79.0989 73.3184 80.5876C73.6658 80.8671 74.1514 80.8867 74.4735 80.6334C75.0913 80.1475 75.42 79.4413 75.3753 78.6958C75.3596 78.4372 75.2126 78.2056 74.9821 78.0765C71.9901 76.4007 69.2541 76.8611 66.1425 79.5778Z" fill="#69060A"/>
<path d="M63.8189 85.7539C64.8318 85.169 64.6045 82.879 63.3112 80.639C62.0179 78.399 60.1484 77.0573 59.1354 77.6421C58.1225 78.2269 58.3498 80.5169 59.6431 82.7569C60.9364 84.9969 62.806 86.3387 63.8189 85.7539Z" fill="white"/>
<path d="M63.821 85.7561C62.8073 86.3404 60.9378 84.9995 59.6452 82.759C59.5824 82.6495 59.521 82.5399 59.464 82.4304C58.3321 80.2994 58.1743 78.199 59.1369 77.644C60.1505 77.0598 62.0201 78.4006 63.3127 80.6411C63.6471 81.221 63.9115 81.8052 64.1 82.3617C64.6404 83.9538 64.5703 85.3238 63.821 85.7561Z" fill="white"/>
<g opacity="0.3">
<path d="M63.821 85.7561C62.8073 86.3404 60.9378 84.9995 59.6452 82.759C59.5823 82.6495 59.521 82.5399 59.464 82.4304C58.9265 80.8413 58.9981 79.4771 59.7474 79.0433C60.7596 78.459 62.6291 79.7999 63.9232 82.0404C63.9845 82.147 64.0444 82.2551 64.0999 82.3617C64.6404 83.9538 64.5703 85.3238 63.821 85.7561Z" fill="#69060A"/>
</g>
<path d="M63.282 86.4048C62.7563 86.4048 62.1606 86.1779 61.5395 85.7322C60.6931 85.1247 59.8629 84.1595 59.2019 83.0145C57.7212 80.4498 57.5834 77.9507 58.8815 77.2013C59.5553 76.8118 60.4563 76.9777 61.4179 77.6678C62.2643 78.2754 63.0945 79.2405 63.7556 80.3856C65.2363 82.9502 65.3741 85.4493 64.076 86.1987C63.8374 86.3367 63.5702 86.4048 63.282 86.4048ZM59.6803 78.018C59.5695 78.018 59.4725 78.0406 59.3926 78.0867C58.8117 78.4222 58.7948 80.2647 60.0872 82.5033C60.6773 83.5252 61.4048 84.3769 62.1357 84.9015C62.7337 85.3306 63.2681 85.4844 63.5649 85.3134C64.1458 84.9778 64.1624 83.1352 62.8703 80.8967C62.2802 79.8748 61.5527 79.0231 60.8218 78.4985C60.3846 78.1848 59.9815 78.018 59.6803 78.018Z" fill="#69060A"/>
<path d="M66.2645 82.7152C66.1214 83.7259 65.5576 84.687 64.4154 85.4216C64.2328 85.5385 64.0342 85.6509 63.8209 85.7561C64.0956 85.4158 64.2577 85.001 64.3234 84.538C64.6038 82.5399 63.0936 79.6815 61.3657 78.3407C60.6208 77.7638 59.8365 77.4687 59.1368 77.644C62.3399 75.2501 66.7494 79.2726 66.2645 82.7152Z" fill="white"/>
<g opacity="0.3">
<path d="M66.2645 82.7152C66.1214 83.7259 65.5576 84.687 64.4154 85.4216C64.4125 85.1368 64.3818 84.8403 64.3234 84.538C64.6039 82.5399 63.0936 79.6815 61.3657 78.3407C63.5975 78.367 65.7869 80.4629 66.2645 82.7152Z" fill="#69060A"/>
</g>
<path d="M63.8206 86.2672C63.6691 86.2674 63.5208 86.1999 63.4211 86.0751C63.2711 85.8876 63.2721 85.6209 63.4233 85.4343C64.3234 84.3229 63.6596 82.1345 62.662 80.5713C61.5982 78.9043 60.2 77.9045 59.2616 78.1398C59.026 78.1999 58.7802 78.0836 58.6755 77.8636C58.5708 77.6437 58.6358 77.3805 58.831 77.2346C60.1456 76.2518 61.8056 76.1442 63.3842 76.9391C65.3782 77.9429 66.8196 80.1556 66.8115 82.2003C66.8046 83.9125 65.8227 85.3381 64.0468 86.2144C63.9744 86.2501 63.8972 86.2672 63.8206 86.2672ZM60.9244 77.4513C61.9528 77.9878 62.8894 79.0271 63.5239 80.0214C64.3245 81.2756 64.9896 82.9617 64.8587 84.414C65.4681 83.8 65.7857 83.0502 65.7891 82.1962C65.7958 80.5452 64.5642 78.6778 62.9245 77.8523C62.4711 77.624 61.7421 77.3588 60.9244 77.4513Z" fill="#69060A"/>
<g opacity="0.3">
<path d="M74.79 81.0355C74.2642 81.4488 73.5193 81.405 72.9979 80.9859C71.0378 79.4069 68.7855 80.4279 66.3887 82.759L65.8585 80.574C67.2417 79.6947 68.7257 79.2536 68.7257 79.2536C69.6619 78.9746 70.0606 78.9147 70.3426 78.5014C70.6259 78.0851 70.6785 77.4819 70.4916 76.9999C70.4506 76.8933 70.401 76.8012 70.3455 76.7194C71.9638 76.3981 73.5734 76.7019 75.2326 77.6308C75.6124 77.8426 75.8592 78.2297 75.8855 78.6649C75.941 79.5822 75.5437 80.4425 74.79 81.0355Z" fill="#69060A"/>
</g>
<path d="M38.8643 30.2971C39.5064 29.2465 39.823 27.9854 39.6876 26.6661C39.3588 23.4638 36.4962 21.1343 33.294 21.4632C30.0917 21.7919 27.7622 24.6545 28.091 27.8568C28.4198 31.0591 31.2823 33.3885 34.4846 33.0597C35.3753 32.9682 36.1982 32.6803 36.9154 32.2439L39.6128 32.8489L38.8643 30.2971Z" fill="white"/>
<g opacity="0.5">
<path d="M33.4084 22.5783C36.3998 22.2712 39.094 24.2839 39.7041 27.1607C39.7048 26.9552 39.6959 26.7478 39.6745 26.5388C39.3457 23.3365 36.4832 21.0071 33.2809 21.3359C30.0786 21.6647 27.7491 24.5272 28.0779 27.7295C28.0995 27.9394 28.1325 28.1453 28.1752 28.3473C28.1865 25.4053 30.4161 22.8856 33.4084 22.5783Z" fill="white"/>
</g>
<path d="M33.8845 33.6018C30.6771 33.6018 27.917 31.1675 27.5824 27.9089C27.2254 24.4313 29.7642 21.3116 33.2417 20.9546C36.7175 20.597 39.8391 23.1362 40.1962 26.6139C40.3311 27.9289 40.0619 29.2208 39.4169 30.3652L40.1034 32.705C40.1544 32.8787 40.1097 33.0664 39.9858 33.1984C39.862 33.3306 39.6769 33.3871 39.501 33.3477L37.0001 32.7868C36.2406 33.2156 35.4132 33.4782 34.5369 33.5682C34.3179 33.5907 34.1002 33.6017 33.8845 33.6018ZM33.8933 21.9436C33.7123 21.9436 33.5299 21.9528 33.3461 21.9716C30.4294 22.2711 28.3001 24.8877 28.5995 27.8045C28.899 30.7213 31.5161 32.8509 34.4325 32.5512C35.2264 32.4696 35.9724 32.2193 36.6497 31.8072C36.7626 31.7383 36.8984 31.7162 37.0272 31.7451L38.8781 32.1602L38.3737 30.4409C38.3331 30.3025 38.3529 30.1535 38.428 30.0305C39.0391 29.0307 39.2988 27.8853 39.179 26.7183C38.8984 23.9854 36.5832 21.9436 33.8933 21.9436Z" fill="#69060A"/>
<g opacity="0.3">
<path d="M38.897 30.2411C37.3005 31.5915 35.1011 32.1829 32.9169 31.6393C30.4947 31.0364 28.71 29.1919 28.0681 26.9534C28.0528 27.2502 28.0597 27.5519 28.091 27.8568C28.4198 31.0591 31.2823 33.3885 34.4846 33.0597C35.3753 32.9683 36.1981 32.6803 36.9154 32.244L39.6128 32.8489L38.8643 30.2971C38.8756 30.2787 38.886 30.2597 38.897 30.2411Z" fill="#69060A"/>
</g>
<path d="M35.7531 25.6247C35.2487 25.1202 34.4308 25.2106 33.9264 25.715L33.8479 25.7935L33.7694 25.715C33.265 25.2106 32.4471 25.1202 31.9427 25.6247C31.4383 26.1291 31.4383 26.9469 31.9427 27.4513L32.0212 27.5298L33.6071 29.1158C33.7401 29.2487 33.9557 29.2487 34.0887 29.1158L35.6746 27.5298L35.7531 27.4513C36.2575 26.9469 36.2575 26.1291 35.7531 25.6247Z" fill="#FF0068"/>
</g>
<rect x="0.5" y="0.5" width="124" height="124" stroke="black"/>
<defs>
<clipPath id="clip0_17_2">
<rect width="125" height="125" fill="white"/>
</clipPath>
</defs>
</svg>
