<svg width="125" height="125" viewBox="0 0 125 125" fill="none" xmlns="http://www.w3.org/2000/svg">
<g clip-path="url(#clip0_17_271)">
<path d="M125 0H0V125H125V0Z" fill="#E6EBED"/>
<g opacity="0.2">
<path d="M63.9063 114.085C78.9778 114.085 91.1957 111.902 91.1957 109.209C91.1957 106.516 78.9778 104.333 63.9063 104.333C48.8349 104.333 36.617 106.516 36.617 109.209C36.617 111.902 48.8349 114.085 63.9063 114.085Z" fill="#650000"/>
</g>
<path d="M91.6235 31.7517C90.8248 30.4449 90.431 28.8763 90.5995 27.2353C91.0085 23.2522 94.5689 20.3548 98.552 20.7637C102.535 21.1727 105.433 24.7332 105.024 28.7163C104.615 32.6994 101.054 35.5968 97.0711 35.1878C95.9632 35.0741 94.9397 34.7158 94.0476 34.1732L90.6925 34.9256L91.6235 31.7517Z" fill="white"/>
<g opacity="0.5">
<path d="M98.4096 22.1508C94.6888 21.7688 91.3377 24.2723 90.5789 27.8505C90.578 27.5949 90.589 27.3371 90.6157 27.0771C91.0247 23.094 94.5851 20.1966 98.5682 20.6055C102.551 21.0145 105.449 24.575 105.04 28.5581C105.013 28.8192 104.972 29.0753 104.919 29.3264C104.905 25.6672 102.132 22.533 98.4096 22.1508Z" fill="white"/>
</g>
<path d="M97.8262 35.7457C97.5579 35.7457 97.2885 35.732 97.0181 35.7042C95.9295 35.5924 94.902 35.2631 93.9607 34.7247L90.8061 35.4321C90.6274 35.4723 90.4397 35.4148 90.3138 35.2806C90.1881 35.1465 90.1428 34.9559 90.1945 34.7795L91.062 31.8218C90.2542 30.409 89.9161 28.81 90.0831 27.1823C90.5208 22.9208 94.3445 19.8106 98.605 20.2474C102.866 20.6849 105.977 24.5078 105.54 28.7693C105.328 30.8337 104.325 32.6918 102.715 34.0017C101.316 35.14 99.6052 35.7457 97.8262 35.7457ZM94.0475 33.6541C94.1419 33.6541 94.2353 33.6799 94.3173 33.7297C95.175 34.2515 96.1193 34.5683 97.124 34.6715C98.9121 34.8544 100.665 34.3313 102.06 33.1965C103.455 32.0617 104.324 30.4517 104.507 28.6632C104.886 24.9713 102.191 21.6592 98.4991 21.2801C94.8042 20.9012 91.4948 23.5963 91.1158 27.2883C90.9641 28.7656 91.2928 30.2154 92.0664 31.481C92.1427 31.6059 92.1627 31.7573 92.1215 31.8978L91.4386 34.2263L93.934 33.6667C93.9715 33.6583 94.0095 33.6541 94.0475 33.6541Z" fill="#650000"/>
<g opacity="0.3">
<path d="M91.5827 31.682C93.5685 33.3617 96.3042 34.0972 99.0209 33.4211C102.034 32.6712 104.254 30.377 105.052 27.5926C105.071 27.9618 105.062 28.3371 105.024 28.7163C104.615 32.6994 101.054 35.5968 97.071 35.1878C95.9631 35.0741 94.9397 34.7158 94.0475 34.1732L90.6924 34.9256L91.6234 31.7516C91.6094 31.7287 91.5965 31.7051 91.5827 31.682Z" fill="#650000"/>
</g>
<path d="M95.4932 25.94C96.1207 25.3125 97.1379 25.425 97.7653 26.0524L97.863 26.15L97.9606 26.0524C98.5881 25.4249 99.6053 25.3125 100.233 25.9399C100.86 26.5674 100.86 27.5846 100.233 28.212L100.135 28.3097L98.1625 30.2823C97.9971 30.4477 97.7289 30.4477 97.5635 30.2823L95.5909 28.3097L95.4932 28.212C94.8658 27.5846 94.8658 26.5674 95.4932 25.94Z" fill="#FF0068"/>
<path d="M33.0871 90.3197C31.8739 91.7628 30.0023 92.5859 28.1188 92.6615C26.2368 92.7371 24.3578 92.0979 22.8154 91.0153C23.3611 91.0732 23.9558 91.0791 24.4749 90.9248C24.8131 90.8255 25.1186 90.6579 25.3573 90.391C26.0247 89.6465 25.8601 88.5119 25.8927 87.5108C25.9357 86.1924 26.4044 84.8903 27.2141 83.8492C27.4054 83.603 27.6175 83.3687 27.8518 83.164C27.8652 83.1521 27.88 83.1402 27.8934 83.1284C27.9467 83.0839 28.0002 83.0409 28.055 82.9994C28.1425 82.9327 28.2345 82.8704 28.3294 82.8125C28.9315 82.4447 29.6404 82.2905 30.3434 82.2327C31.3267 82.1511 32.3663 82.2638 33.1938 82.8022C34.0214 83.339 34.5731 84.3757 34.3254 85.3308C34.321 85.3471 34.315 85.3619 34.3076 85.3782C34.7214 87.0822 34.2201 88.9731 33.0871 90.3197Z" fill="#7A5545"/>
<g opacity="0.3">
<path d="M33.2354 90.3197C32.0222 91.7628 30.1506 92.5859 28.2671 92.6615C26.3851 92.7371 24.5061 92.0979 22.9637 91.0153C23.5094 91.0732 24.1042 91.0791 24.6232 90.9248C25.0074 91.1043 25.4107 91.2318 25.8394 91.2912C26.5201 91.3861 27.2127 91.2926 27.8904 91.174C28.4718 91.0731 29.0606 90.9501 29.5841 90.6757C30.8402 90.0142 31.5328 88.5045 31.3919 87.0911C31.2496 85.6792 30.3597 84.4023 29.1807 83.6104C28.8782 83.4072 28.5459 83.2292 28.1945 83.1536C28.1945 83.1017 28.1974 83.0498 28.2034 82.9993C28.2909 82.9326 28.3828 82.8703 28.4777 82.8125C29.0799 82.4447 29.7888 82.2904 30.4917 82.2326C31.475 82.151 32.5147 82.2637 33.3422 82.8021C34.1697 83.339 34.7214 84.3757 34.4738 85.3307C34.4693 85.3471 34.4634 85.3619 34.456 85.3782C34.8697 87.0822 34.3684 88.9731 33.2354 90.3197Z" fill="#650000"/>
</g>
<path d="M33.7794 85.1411C34.3924 87.0799 33.7033 89.2262 32.2202 90.5795C30.6971 91.9693 28.505 92.4749 26.5004 92.105C25.2498 91.8743 24.0815 91.3563 23.0398 90.6316C22.965 90.908 22.8901 91.1843 22.8153 91.4607C23.9817 91.5778 25.3777 91.4197 25.9846 90.2632C26.5631 89.1611 26.2045 87.8578 26.4261 86.68C26.6571 85.4517 27.272 84.1875 28.2644 83.3955C28.7655 82.9956 29.3926 82.8002 30.0197 82.7114C30.6257 82.6256 31.2695 82.6168 31.8699 82.7453C32.508 82.882 33.1245 83.1751 33.5248 83.7073C33.7003 83.9407 33.8291 84.2052 33.8969 84.4888C33.9292 84.6237 33.9415 84.7343 33.94 84.8781C33.9393 84.9446 33.935 85.0202 33.9268 85.072C33.9224 85.1003 33.9132 85.1284 33.91 85.1568C33.8947 85.2897 33.9087 85.148 33.9513 85.1285C34.0262 85.1083 34.1011 85.088 34.1759 85.0678C34.1631 85.0679 34.1502 85.0679 34.1373 85.068C34.2122 85.0883 34.2871 85.1085 34.3619 85.1288C34.3497 85.1218 34.3376 85.1148 34.3254 85.1077C33.8285 84.821 33.3799 85.5896 33.8763 85.8761C34.3053 86.1236 34.6997 85.7534 34.7799 85.3368C34.8461 84.9927 34.8407 84.6508 34.7676 84.3079C34.6298 83.6617 34.2314 83.0542 33.7201 82.641C32.5527 81.6979 30.8969 81.6177 29.4795 81.9064C28.734 82.0582 28.0499 82.3856 27.4839 82.8961C26.9526 83.3753 26.5184 83.9892 26.1955 84.6254C25.8696 85.2674 25.6368 85.9585 25.5294 86.671C25.4249 87.3643 25.4648 88.0513 25.437 88.7483C25.4127 89.3575 25.2849 90.0077 24.7269 90.3374C24.1724 90.665 23.4535 90.6349 22.8152 90.5708C22.6239 90.5516 22.4342 90.7227 22.3862 90.8974C22.3312 91.0975 22.4275 91.2863 22.5907 91.3998C24.587 92.7887 27.1156 93.4579 29.5175 92.9235C31.7724 92.4218 33.7232 90.8792 34.5253 88.6882C34.9659 87.4849 35.0248 86.1296 34.6374 84.9044C34.4654 84.3605 33.6061 84.5929 33.7794 85.1411Z" fill="#650000"/>
<path d="M48.8254 93.2681C48.7215 93.3052 48.6192 93.3392 48.5169 93.3734C43.2564 95.1115 39.8647 92.878 37.8166 87.7911C37.5526 87.1312 37.1522 86.5276 36.6094 86.0678C35.3354 84.9867 33.6595 84.8547 31.6767 85.4479C31.3059 85.5576 30.9263 85.6926 30.5347 85.8528C31.3371 83.6282 33.1642 82.7547 35.1456 82.9801C36.9653 83.1877 38.5388 84.3445 39.3782 85.9714C40.9695 89.0517 42.6706 90.4191 44.4696 90.2663C45.613 90.1699 46.795 89.4595 48.0126 88.1871L48.6651 92.2714L48.8254 93.2681Z" fill="#EA984E"/>
<path d="M45.2242 94.476C41.7191 94.476 39.0748 92.305 37.3357 87.9847C37.0876 87.3689 36.7205 86.8429 36.2737 86.4639C34.9929 85.3767 33.1793 85.3335 30.7302 86.333C30.5398 86.4102 30.3226 86.3687 30.1746 86.2268C30.0268 86.0848 29.9763 85.869 30.0459 85.6761C30.8709 83.3914 32.7967 82.1899 35.2044 82.4646C37.1648 82.6875 38.8978 83.9096 39.8397 85.7335C41.1077 88.1883 42.4505 89.5338 43.831 89.7329C44.9876 89.8996 46.2693 89.259 47.6382 87.8282C47.7746 87.6857 47.9801 87.633 48.1678 87.6916C48.356 87.7502 48.4946 87.9104 48.5258 88.1051L49.3378 93.1855C49.3774 93.4327 49.2348 93.6729 48.9989 93.7567C47.6472 94.2364 46.3881 94.476 45.2242 94.476ZM33.8288 84.5837C35.0485 84.5837 36.0905 84.9467 36.9455 85.6723C37.5201 86.1598 37.9881 86.8254 38.2988 87.597C40.3387 92.6642 43.5946 94.4075 48.2435 92.9163L47.6571 89.2477C46.2962 90.4365 44.9629 90.9456 43.6827 90.7605C41.927 90.5073 40.3683 89.0187 38.9175 86.2098C38.1347 84.6943 36.7027 83.6798 35.0871 83.4961C33.5982 83.3264 32.3733 83.8418 31.5901 84.9324C32.3921 84.6998 33.1387 84.5837 33.8288 84.5837Z" fill="#650000"/>
<g opacity="0.3">
<path d="M45.7139 87.5538H45.7836C45.7613 87.5597 45.7391 87.5597 45.7139 87.5538Z" fill="#6D184E"/>
</g>
<g opacity="0.3">
<path d="M48.6652 92.2714C48.6429 92.4924 48.6163 92.7119 48.5866 92.9314C48.5673 93.0782 48.545 93.2265 48.5169 93.3733C43.2564 95.1115 39.8647 92.878 37.8166 87.7911C37.5526 87.1311 37.1522 86.5275 36.6094 86.0678C35.3354 84.9866 33.6595 84.8546 31.6767 85.4478C31.8502 85.3055 32.0312 85.1735 32.2165 85.0474C32.5665 84.8102 32.9388 84.5981 33.3451 84.4794C34.3551 84.1813 35.4407 84.4898 36.4195 84.8784C36.9163 85.0741 37.4161 85.301 37.7943 85.6792C38.1147 86.001 38.3253 86.4133 38.5403 86.8123C39.0253 87.7169 39.5592 88.6083 40.2755 89.3438C40.9933 90.0779 41.9113 90.6504 42.9272 90.7973C43.2861 90.8492 43.6673 90.8433 43.9876 90.6742C44.1745 90.5748 44.3287 90.428 44.4696 90.2663C45.6131 90.1699 46.795 89.4595 48.0126 88.1871L48.6652 92.2714Z" fill="#650000"/>
</g>
<g opacity="0.5">
<path d="M27.8934 83.1284C27.9453 83.1343 27.9957 83.1432 28.0461 83.1536C28.0447 83.1803 28.0447 83.2055 28.0461 83.2322L27.8519 83.1639L27.7169 83.1165C27.7762 83.1165 27.8355 83.121 27.8934 83.1284Z" fill="#6D184E"/>
</g>
<path d="M80.3938 81.7788C80.3582 81.8025 80.3241 81.8262 80.2885 81.8485C78.5118 76.4976 76.8952 71.3603 75.7592 66.8577C75.7577 66.8562 75.7577 66.8547 75.7577 66.8532C74.9672 63.7195 74.4067 60.8943 74.1887 58.5184C74.1293 57.8807 74.0937 57.2742 74.0863 56.7047C74.6602 56.9672 75.2268 57.2356 75.78 57.5129C77.2764 58.2604 78.6898 59.0687 79.9741 59.9748C82.1927 61.5394 84.0258 63.3962 85.2197 65.735C85.2998 65.8907 85.3769 66.0509 85.451 66.2111C85.4555 66.22 85.4585 66.2274 85.4629 66.2363C85.6646 66.6782 85.8455 67.135 86.0012 67.611C86.8836 73.5923 84.7095 78.9239 80.3938 81.7788Z" fill="#EA984E"/>
<path d="M80.288 82.3677C80.2301 82.3677 80.1719 82.3579 80.1159 82.3383C79.9644 82.285 79.846 82.1646 79.7955 82.0122C76.6105 72.4206 73.6516 62.7171 73.5679 56.7119C73.5653 56.534 73.6541 56.3673 73.8032 56.27C73.9524 56.1727 74.1409 56.1587 74.3026 56.2326C79.2506 58.4929 84.5684 61.5931 86.4939 67.4484C86.503 67.4766 86.5099 67.5055 86.5142 67.5349C87.4198 73.6736 85.1421 79.3253 80.57 82.2844C80.485 82.3395 80.3869 82.3677 80.288 82.3677ZM74.6351 57.5317C74.9508 63.3046 77.6336 72.1712 80.5631 81.0287C84.4049 78.211 86.2846 73.1871 85.4937 67.7305C83.7783 62.5746 79.1383 59.6614 74.6351 57.5317Z" fill="#650000"/>
<path d="M79.7922 82.0018C78.4332 78.4752 76.7932 72.7312 78.5092 69.1453C79.0843 68.0061 80.1406 67.1557 81.4115 66.9659C81.5747 66.9604 81.8151 66.9089 81.978 66.9238C82.1887 66.9244 82.4904 66.8895 82.4901 67.1839C82.4853 67.2859 82.4189 67.3697 82.3286 67.4026C81.6945 67.6615 81.1278 67.9631 80.7098 68.3846C77.9688 71.0667 80.0914 78.273 80.784 81.6953C80.918 82.3147 80.0345 82.5953 79.7922 82.0018Z" fill="#650000"/>
<g opacity="0.3">
<path d="M82.0696 67.2062C80.422 67.7935 78.9389 68.8361 77.8295 70.1887C77.0124 69.1549 76.3376 68.0338 75.7592 66.8577C75.7577 66.8562 75.7577 66.8547 75.7577 66.8532C74.5861 64.4729 73.8134 61.8657 73.063 59.3074C73.4323 59.036 73.8075 58.772 74.1886 58.5184C74.7092 58.1669 75.2401 57.8318 75.78 57.5129C77.2764 58.2604 78.6897 59.0687 79.974 59.9748C79.2295 61.1167 78.9537 62.5776 79.3719 63.8797C79.8154 65.2634 80.8921 66.3549 82.0696 67.2062Z" fill="#650000"/>
</g>
<g opacity="0.3">
<path d="M85.5074 67.1514C85.5059 67.2137 85.5029 67.2774 85.5 67.3412L85.2197 65.735L85.0654 64.8511C85.2641 65.2723 85.3887 65.7128 85.454 66.1636C85.4525 66.1621 85.4495 66.1607 85.448 66.1592C85.4495 66.177 85.4495 66.1933 85.451 66.2111C85.4703 66.524 85.4881 66.8384 85.5074 67.1514Z" fill="#6D184E"/>
</g>
<g opacity="0.3">
<path d="M80.3938 81.7788C80.3567 81.7907 80.3196 81.8025 80.2825 81.8144C80.5198 79.4178 80.4382 76.99 80.0408 74.6141C81.1872 74.6883 82.3054 74.1128 83.1003 73.2838C83.8938 72.4548 84.404 71.3944 84.8088 70.3207C85.1648 69.373 85.4436 68.3497 85.4999 67.3412L85.5296 67.5117L85.5074 67.1514C85.5162 66.8429 85.5029 66.5374 85.4629 66.2363C85.6646 66.6783 85.8455 67.1351 86.0012 67.6111C86.8837 73.5923 84.7095 78.9239 80.3938 81.7788Z" fill="#650000"/>
</g>
<path d="M80.8105 109.878C80.2025 110.027 79.6152 110.144 79.0487 110.228C74.4883 110.924 71.2611 109.589 69.8967 105.42C69.8759 105.358 69.8552 105.294 69.8359 105.23L68.2905 101.177C68.028 100.486 67.6795 99.8336 67.2672 99.2211C66.0185 97.3673 65.3333 95.4556 65.1716 93.4935C65.1716 93.492 65.1716 93.492 65.1716 93.4905C65.1553 93.2844 65.1449 93.0783 65.139 92.8721C65.1227 92.8884 65.1064 92.9047 65.0915 92.921C64.0356 93.9918 63.0346 95.0952 62.1581 96.2698C61.1392 97.6313 60.3665 99.1618 59.8534 100.783C59.3388 102.408 58.8775 103.881 58.3644 105.152C56.6974 109.281 54.4744 111.29 48.0097 109.557C47.894 109.576 47.7798 109.594 47.6671 109.61C47.6552 109.611 47.6449 109.613 47.633 109.614C47.5722 109.623 47.5129 109.631 47.4535 109.64C47.3201 109.656 47.1895 109.671 47.0605 109.683C47.0131 109.687 46.9656 109.692 46.9182 109.696C46.8574 109.702 46.7966 109.706 46.7357 109.709C46.6631 109.715 46.5934 109.718 46.5237 109.721C46.4896 109.723 46.4569 109.724 46.4243 109.724C46.3428 109.727 46.2641 109.729 46.1855 109.729C45.1474 109.729 44.348 109.511 43.8468 109.021C43.8053 108.981 43.7652 108.938 43.7266 108.894C43.6139 108.76 43.519 108.61 43.4449 108.441C43.2179 107.928 43.2506 107.339 43.4745 106.826C44.0144 105.591 44.4785 104.364 44.8864 103.138C45.4218 101.533 45.8623 99.93 46.2553 98.3105C46.5267 96.9149 46.7373 95.4007 46.8989 93.7886C46.9983 92.8084 47.0799 91.7924 47.1466 90.7424C47.2949 88.3977 47.3705 85.8943 47.4076 83.2767C47.4135 82.9786 47.4165 82.6776 47.4195 82.375C47.4299 81.3947 47.4373 80.3996 47.4402 79.3911C47.4432 78.2313 47.4432 77.0538 47.4417 75.8658C47.243 75.9786 47.0354 76.0809 46.8188 76.1728C46.8174 76.1758 46.8159 76.1773 46.8144 76.1758C43.7845 77.5031 39.3057 77.1086 38.493 74.4332C39.3131 71.9669 40.5678 69.7052 41.9559 67.6304C43.5665 65.2189 45.3551 63.0596 46.8441 61.1227C48.0899 59.4988 49.125 58.032 49.6663 56.7047H73.6504L74.1443 57.6702L74.34 58.0543L76.6329 62.5435C81.1295 70.202 82.5666 79.6966 81.0004 90.9931C80.9471 91.3861 80.867 91.7776 80.7632 92.1617C80.3657 93.6433 80.0884 95.1264 80.0113 96.6064C79.9475 97.8582 80.1744 99.1084 80.6727 100.259C81.0108 101.042 81.4231 101.839 81.8443 102.625C83.9887 106.61 86.4061 110.264 80.8105 109.878Z" fill="#EA984E"/>
<g opacity="0.3">
<path d="M79.0487 110.228C74.4883 110.924 71.2611 109.589 69.8967 105.42C69.8759 105.358 69.8552 105.294 69.8359 105.23L68.2905 101.177C68.028 100.486 67.6795 99.8336 67.2672 99.2211C66.0184 97.3673 65.3333 95.4556 65.1716 93.4935C65.1716 93.492 65.1716 93.492 65.1716 93.4905C65.1924 93.2132 65.2265 92.9359 65.2769 92.6556C65.7515 93.1539 66.5479 93.1109 67.2286 93.0012C71.1528 92.3679 74.9049 90.6891 77.9942 88.1871L78.0253 88.2998C75.7874 90.2872 73.3834 92.6082 73.238 95.5965C73.1505 97.4029 73.9246 99.1262 74.6825 100.768C76.1374 103.921 77.5923 107.075 79.0487 110.228Z" fill="#650000"/>
</g>
<path d="M80.8105 109.878C75.3188 111.212 71.4301 110.107 69.8967 105.42C70.7598 104.726 71.7119 104.14 72.7056 103.648C73.2514 103.377 73.812 103.132 74.3919 102.944C75.2431 102.666 76.13 102.511 77.0198 102.416C78.6245 102.241 80.2781 102.263 81.8442 102.625C83.9887 106.61 86.4061 110.264 80.8105 109.878Z" fill="#7A5545"/>
<path d="M58.3644 105.152C56.6974 109.281 54.4743 111.29 48.0096 109.557C45.6412 109.957 43.9994 109.694 43.4448 108.441C43.2179 107.928 43.2505 107.339 43.4744 106.826C44.0143 105.591 44.4785 104.364 44.8863 103.138C47.019 101.839 49.6158 101.305 52.0836 101.695C54.4921 102.076 56.7449 103.332 58.3644 105.152Z" fill="#7A5545"/>
<g opacity="0.6">
<path d="M46.6876 109.244C46.5719 109.263 46.4577 109.281 46.345 109.297C46.3331 109.298 46.3228 109.3 46.3109 109.301C46.2501 109.31 46.1908 109.318 46.1315 109.327C45.998 109.343 45.8674 109.358 45.7384 109.37C45.691 109.374 45.6435 109.379 45.596 109.383C45.5352 109.389 45.4744 109.393 45.4136 109.396C45.3409 109.402 45.2712 109.405 45.2015 109.408C45.1674 109.41 45.1348 109.411 45.1022 109.411C45.0206 109.414 44.942 109.416 44.8634 109.416C44.7035 109.416 44.5514 109.409 44.4031 109.398C44.8722 109.622 45.4706 109.729 46.1855 109.729C46.2641 109.729 46.3427 109.727 46.4243 109.724C46.4569 109.724 46.4895 109.723 46.5236 109.721C46.5933 109.718 46.663 109.715 46.7357 109.709C46.7965 109.706 46.8573 109.702 46.9181 109.696C46.9655 109.692 47.013 109.687 47.0605 109.683C47.1895 109.671 47.32 109.656 47.4535 109.64C47.5128 109.631 47.5721 109.623 47.6329 109.614C47.6448 109.613 47.6552 109.611 47.667 109.61C47.7795 109.594 47.8936 109.576 48.009 109.557C47.5886 109.47 47.1502 109.368 46.6876 109.244Z" fill="white"/>
<path d="M81.8442 102.625C81.423 101.839 81.0107 101.042 80.6726 100.259C80.1743 99.1084 79.9474 97.8582 80.0112 96.6064C80.0883 95.1263 80.3656 93.6433 80.7631 92.1617C80.8669 91.7776 80.947 91.3861 81.0003 90.9931C82.5665 79.6966 81.1294 70.202 76.6328 62.5435L74.3399 58.0543L74.1442 57.6702L73.6503 56.7047H72.4883L72.8221 57.3572L74.0863 57.5292L74.5284 59.2268C74.9831 60.9725 75.6179 62.6659 76.4202 64.2817C80.0357 71.5633 81.1075 80.3714 79.6783 90.6801C79.6249 91.0731 79.5448 91.4646 79.441 91.8488C79.0435 93.3303 78.7662 94.8134 78.6891 96.2935C78.6253 97.5452 78.8522 98.7954 79.3505 99.9463C79.6887 100.729 80.101 101.526 80.5222 102.312C82.6667 106.297 85.0841 109.951 79.4884 109.565C78.8804 109.714 78.2931 109.831 77.7266 109.915C76.398 110.118 75.1835 110.147 74.0944 109.985C75.4907 110.454 77.1542 110.517 79.0486 110.228C79.6152 110.144 80.2024 110.027 80.8105 109.878C86.4061 110.264 83.9887 106.61 81.8442 102.625Z" fill="white"/>
</g>
<path d="M69.0306 106.009C69.0721 106.033 69.1196 106.046 69.167 106.051C69.1017 106.113 69.038 106.174 68.9742 106.236L69.0306 106.009Z" fill="#7A5545"/>
<g opacity="0.3">
<path d="M74.5277 107.592C73.5397 106.325 73.9093 104.464 75.3136 103.683C75.5535 103.55 75.7968 103.422 76.0425 103.301C76.5883 103.029 77.1489 102.784 77.7288 102.596C78.0821 102.481 78.4418 102.388 78.805 102.31C78.2079 102.314 77.6105 102.351 77.0199 102.416C76.13 102.511 75.2432 102.666 74.3919 102.944C73.812 103.132 73.2514 103.377 72.7056 103.648C71.712 104.14 70.7599 104.726 69.8967 105.42C71.356 109.88 74.9491 111.095 80.0258 110.053C77.6815 110.01 75.8146 109.242 74.5277 107.592Z" fill="#650000"/>
</g>
<path d="M50.1469 56.9006C49.6925 57.9358 49.0938 58.9226 48.4357 59.8386C44.9894 64.5555 40.8589 68.9652 38.9855 74.5968C38.9854 74.5968 38.9895 74.2824 38.9895 74.2824C39.7451 76.4827 43.0141 76.6144 44.97 76.211C45.7488 76.0513 46.5095 75.7922 47.1875 75.4132C47.4378 75.2727 47.7547 75.3619 47.8947 75.6125C47.9392 75.6919 47.9603 75.7803 47.9608 75.8652C47.9639 79.0484 47.961 82.2346 47.8855 85.4245C47.7799 89.4098 47.5963 93.4322 46.9483 97.3868C46.5276 99.7674 45.8038 102.082 45.0104 104.366C44.7381 105.124 44.4446 105.874 44.1302 106.615L44.0113 106.893C43.6039 107.673 43.8194 108.6 44.6856 108.96C45.6914 109.359 46.8362 109.206 47.9232 109.045C47.9981 109.032 48.0751 109.037 48.1442 109.055C51.2459 109.874 54.7845 110.333 56.7297 107.237C57.9067 105.404 58.5193 103.207 59.2008 101.125C59.5331 100.025 59.9553 98.9173 60.5023 97.9089C61.5908 95.8735 63.1715 94.1417 64.7698 92.5073C65.0781 92.1794 65.6576 92.4143 65.658 92.8583C65.7059 94.995 66.4484 97.0617 67.6353 98.8348C67.9534 99.31 68.2623 99.8257 68.5017 100.346C68.7273 100.814 68.9424 101.449 69.133 101.93L70.321 105.046C70.6405 106.07 71.104 107.056 71.7866 107.844C73.1591 109.49 75.3765 109.992 77.4621 109.87C78.5919 109.836 79.7167 109.573 80.8374 109.36C81.7267 109.385 83.5292 109.486 83.6764 108.433C83.7403 107.748 83.4451 107.07 83.1633 106.404C82.7356 105.458 82.2017 104.524 81.6783 103.577C80.6171 101.633 79.4095 99.5768 79.3863 97.2757C79.3629 95.4546 79.7188 93.653 80.1773 91.9011C80.4288 90.8674 80.5515 89.4438 80.674 88.3847C81.2461 82.9403 81.079 77.3983 79.8399 72.0582C79.0691 68.8085 77.932 65.662 76.3882 62.687C76.3162 62.5476 76.3707 62.3763 76.5101 62.3043C76.6397 62.2373 76.798 62.2814 76.8774 62.3998C78.5367 64.9077 79.7786 67.7053 80.6242 70.5948C80.7002 70.8833 80.8911 71.5093 80.9614 71.7834C81.1674 72.7036 81.413 73.6736 81.5581 74.6017C82.4008 79.4629 82.3797 84.4352 81.8415 89.3248C81.7361 90.1411 81.6263 91.4344 81.4028 92.2177C80.9652 93.8537 80.6152 95.5428 80.6232 97.2394C80.6499 98.2415 80.8758 99.226 81.2914 100.152C82.1579 102.124 83.3367 103.936 84.2192 105.941C85.7156 109.276 84.274 110.709 80.7748 110.396L80.933 110.383L80.9274 110.384C78.6752 110.912 76.2789 111.222 74.0045 110.502C71.6199 109.786 70.0082 107.693 69.3391 105.381C69.4323 105.629 68.1277 102.208 68.1628 102.299C67.8808 101.561 67.601 100.759 67.1963 100.087C67.0874 99.8923 66.8945 99.5984 66.7693 99.4075C65.4837 97.4908 64.6697 95.2098 64.6202 92.8859L65.5083 93.2369C64.3413 94.4221 63.2177 95.6533 62.267 97.0081C61.33 98.3471 60.653 99.8728 60.1904 101.438C59.1318 104.544 58.1849 108.76 54.8507 110.186C52.6179 111.098 50.1134 110.634 47.8753 110.058L48.0962 110.068C46.8585 110.255 45.498 110.422 44.2686 109.911C42.9867 109.386 42.4147 107.881 42.9999 106.616C43.031 106.55 43.1409 106.285 43.1745 106.21C44.3078 103.495 45.2084 100.665 45.8221 97.7859C47.0525 90.5624 46.8785 83.1802 46.9226 75.8664C46.9226 75.8664 47.6957 76.3184 47.6957 76.3184C44.9777 77.8935 39.2069 78.1816 37.9962 74.584C37.9634 74.4776 37.9667 74.3677 38.0003 74.2695C38.5771 72.5659 39.3523 70.9438 40.2443 69.4022C42.2242 65.9444 44.8476 62.9391 47.2097 59.7685C47.9512 58.7563 48.6869 57.6583 49.1856 56.5087C49.4573 55.855 50.4275 56.2068 50.1469 56.9006Z" fill="#650000"/>
<path d="M55.5702 88.346C60.9712 92.0817 66.9998 93.3803 73.1079 90.5365C74.9967 89.6796 76.7607 88.5324 78.4145 87.2347C78.5285 87.144 78.6949 87.1637 78.7848 87.2783C78.8699 87.3866 78.8555 87.5417 78.7563 87.6338C77.1852 89.0846 75.4311 90.37 73.4869 91.3349C68.4275 93.9166 62.6823 93.6319 57.8581 90.6697C56.9431 90.1249 56.0529 89.4732 55.2302 88.7965C54.9581 88.5688 55.2689 88.141 55.5702 88.346Z" fill="#650000"/>
<path d="M45.1288 76.2097C46.4521 75.7575 47.7531 75.2456 48.8827 74.4077C50.0252 73.5704 50.9785 72.4883 51.7287 71.2772C51.8499 71.0822 52.1534 71.2434 52.0539 71.4549C51.4102 72.7857 50.5143 74.0238 49.3651 75.0102C48.2211 76.002 46.8412 76.7236 45.3911 77.1525C45.1321 77.2286 44.8607 77.0803 44.7846 76.8213C44.7058 76.5558 44.8663 76.2821 45.1288 76.2097Z" fill="#650000"/>
<path d="M68.1248 61.2463C64.5403 61.0246 61.005 62.949 58.6069 65.6733C56.1249 68.4928 54.6932 72.2502 54.6577 76.038C54.6426 77.6406 54.8725 79.2564 55.4473 80.7482C56.0278 82.2549 56.9478 83.6066 58.0009 84.8183C58.6939 85.6157 59.4609 86.3686 60.3837 86.8689C61.2099 87.3168 62.131 87.5464 63.0465 87.7438C66.1731 88.4179 69.4586 88.7587 72.5404 87.8963C75.6221 87.0339 78.4744 84.7744 79.365 81.6464C79.8742 79.8583 79.7198 77.9489 79.4734 76.104C79.0198 72.7072 78.2355 69.2697 76.3945 66.4007C74.5535 63.5316 71.488 61.3014 68.1248 61.2463C67.7096 61.2395 67.7096 61.2395 66.9419 61.2497Z" fill="#EFC879"/>
<path d="M58.169 105.716C58.0278 105.716 57.8887 105.649 57.8024 105.524C55.1451 101.675 49.6515 100.841 45.0236 103.587C44.8121 103.712 44.5393 103.642 44.4139 103.431C44.2886 103.22 44.3582 102.947 44.5695 102.821C47.0121 101.373 49.787 100.808 52.3817 101.232C54.9543 101.653 57.1395 102.997 58.5348 105.018C58.6743 105.221 58.6236 105.498 58.4214 105.638C58.3442 105.691 58.2562 105.716 58.169 105.716Z" fill="#650000"/>
<path d="M47.4258 109.541C47.1123 107.86 47.7428 106.14 48.9004 104.943C49.0076 104.827 49.1884 104.82 49.3043 104.928C49.4109 105.026 49.4254 105.187 49.3435 105.303C48.5004 106.466 48.1427 107.914 48.5935 109.275C48.8102 110.102 47.5896 110.382 47.4258 109.541Z" fill="#650000"/>
<path d="M69.8356 105.676C69.6978 105.676 69.562 105.612 69.4751 105.492C69.3309 105.293 69.3753 105.015 69.5743 104.871C72.5317 102.728 77.1026 100.555 82.0857 102.371C82.3166 102.455 82.4354 102.711 82.3512 102.942C82.2671 103.173 82.0119 103.291 81.7808 103.207C77.1655 101.525 72.8791 103.575 70.0964 105.591C70.0175 105.648 69.9261 105.676 69.8356 105.676Z" fill="#650000"/>
<path d="M80.2169 109.648C80.5453 108.103 79.8792 106.535 78.9357 105.287C78.699 104.968 79.1474 104.591 79.4215 104.879C80.6553 106.165 81.594 107.962 81.403 109.812C81.308 110.649 80.0813 110.481 80.2169 109.648Z" fill="#650000"/>
<g opacity="0.3">
<path d="M53.028 68.8148C52.3428 70.7413 51.269 72.5521 49.8616 74.0293C49.3159 74.6017 48.7211 75.1252 48.079 75.582V75.5835C47.7156 75.8445 47.336 76.0848 46.943 76.3028C46.8673 76.3443 46.7917 76.3858 46.7145 76.4229C46.7131 76.4258 46.7116 76.4273 46.7101 76.4258C43.6802 77.7532 39.2014 77.3587 38.3887 74.6833C39.2088 72.2169 40.4635 69.9553 41.8516 67.8805C42.6302 68.5523 43.5275 69.0788 44.5107 69.3813C46.4269 69.9701 48.6707 69.6171 50.1434 68.2601C50.572 67.8641 50.9413 67.3881 51.4544 67.1123C51.9661 66.8349 52.7002 66.8364 53.0398 67.3095C53.3438 67.7337 53.2044 68.3224 53.028 68.8148Z" fill="#650000"/>
</g>
<g opacity="0.3">
<path d="M74.1442 57.6701C67.0225 59.3816 59.4188 59.0316 52.4752 56.7047H49.6662C49.1249 58.032 48.0897 59.4988 46.844 61.1227C51.0529 63.2687 56.1887 62.8327 60.9479 62.318C62.907 62.1074 64.8721 61.8939 66.7837 61.4163C69.471 60.7445 72.0115 59.5581 74.3399 58.0543L74.1442 57.6701Z" fill="#650000"/>
</g>
<g opacity="0.3">
<path d="M45.9556 91.92L45.8577 91.8859C45.8607 91.8221 45.9423 91.8695 45.9556 91.92Z" fill="#6D184E"/>
</g>
<g opacity="0.3">
<path d="M64.7581 93.1806C63.7021 94.2513 62.7011 95.3547 61.8246 96.5293C60.8057 97.8908 60.0331 99.4213 59.5199 101.042C59.0053 102.668 58.5441 104.14 58.0309 105.411C56.364 109.54 54.1409 111.55 47.6762 109.816C47.5605 109.835 47.4463 109.853 47.3336 109.869C47.3217 109.871 47.3114 109.872 47.2995 109.874C47.2387 109.883 47.1794 109.89 47.1201 109.899C46.9866 109.915 46.8561 109.93 46.7271 109.942C46.6796 109.947 46.6321 109.951 46.5847 109.956C46.5239 109.961 46.4631 109.966 46.4022 109.969C46.3296 109.975 46.2599 109.978 46.1902 109.981C46.1561 109.982 46.1235 109.984 46.0908 109.984C46.0093 109.987 45.9306 109.988 45.8521 109.988C44.8139 109.988 44.0146 109.77 43.5133 109.281C43.4718 109.241 43.4317 109.198 43.3932 109.153C43.2804 109.02 43.1855 108.87 43.1114 108.701C43.0936 108.659 43.0802 108.618 43.0654 108.576C43.6275 108.581 44.2592 108.532 44.9577 108.435C46.5609 108.79 47.9031 108.956 49.0406 108.95C50.2849 107.965 50.933 106.415 51.5262 104.935C51.8021 104.246 52.0794 103.556 52.3553 102.866C52.3464 102.863 52.339 102.859 52.3316 102.855C51.3023 102.401 50.1841 102.083 49.0317 101.932C48.968 101.925 48.9057 101.919 48.8419 101.911C49.8074 101.793 50.7891 101.803 51.7502 101.954C52.0512 102.002 52.3508 102.064 52.646 102.138C53.1591 100.857 53.6722 99.577 54.1854 98.2971C54.5087 97.1834 54.66 96.0414 54.2551 94.9795C53.8828 94.0066 53.0597 93.2369 52.1017 92.8261C51.1421 92.4168 50.0595 92.3471 49.0302 92.5206C48.5156 92.6081 48.004 92.7564 47.565 93.0382C47.1616 93.2963 46.8412 93.6522 46.5654 94.0482C46.6647 93.0679 46.7463 92.052 46.813 91.002C46.9613 88.6573 47.037 86.1538 47.0741 83.5363C47.0785 83.2367 47.083 82.9371 47.0859 82.6345C47.0963 81.6542 47.1037 80.6591 47.1067 79.6506C47.2061 79.7278 47.3039 79.8064 47.4018 79.8849C47.4152 79.6773 47.43 79.4712 47.4463 79.268C47.5219 78.3307 47.5976 77.3949 47.6717 76.4576C47.6999 76.1194 47.7311 75.7679 47.9105 75.4803C48.0826 75.2044 48.3673 75.0249 48.6342 74.8396C49.9082 73.9557 50.9567 72.7514 51.6567 71.3677L51.6019 71.8037C51.4699 73.2927 51.3364 74.7817 51.2044 76.2722C51.1288 77.1235 51.0531 77.9792 51.108 78.832C51.2356 80.7926 52.0186 82.5634 53.0286 84.26C54.0385 85.9566 55.2754 87.582 56.3061 89.2564C56.3743 89.3157 56.4411 89.375 56.5093 89.4314C58.9015 91.1562 61.703 92.31 64.6187 92.7564C64.6824 92.9507 64.6943 92.9863 64.7581 93.1806Z" fill="#650000"/>
</g>
<path d="M52.6817 15.2996C52.2801 15.9243 51.7601 16.4483 51.0785 16.8369C50.6619 17.0763 50.3722 17.5067 50.3353 18.0184C50.1802 20.1904 52.0911 22.4806 54.5591 24.8034C52.2703 26.8958 49.894 28.5197 47.2983 28.9429C46.2354 27.3526 45.5294 25.7269 45.1612 24.1678C44.0046 19.273 46.1748 15.0419 51.0207 14.6537C51.4368 14.6183 51.8744 14.6141 52.3304 14.6391C52.6472 14.6563 52.8519 15.0343 52.6817 15.2996Z" fill="#EFC879"/>
<g opacity="0.6">
<path d="M46.1242 24.7544C44.9675 19.8596 47.1377 15.6285 51.9836 15.2403C52.2225 15.2199 52.4692 15.2111 52.7217 15.2109C52.8049 14.9573 52.6134 14.6545 52.3304 14.6391C51.8744 14.6142 51.4369 14.6183 51.0207 14.6537C46.1748 15.0419 44.0047 19.273 45.1613 24.1678C45.5294 25.7269 46.2354 27.3526 47.2983 28.943C47.475 28.9142 47.6506 28.8787 47.8254 28.8389C47.0037 27.4712 46.4392 26.0884 46.1242 24.7544Z" fill="white"/>
</g>
<g opacity="0.3">
<path d="M52.6818 15.2996C52.2802 15.9243 51.7601 16.4483 51.0785 16.8369C50.6619 17.0763 50.3722 17.5067 50.3353 18.0184C50.1803 20.1904 52.0911 22.4806 54.5591 24.8034C52.2703 26.8958 49.894 28.5197 47.2983 28.9429C46.2354 27.3526 45.5294 25.7269 45.1613 24.1678C45.3164 24.2099 45.4723 24.2378 45.6291 24.2513C46.3848 24.3171 47.1172 24.0836 47.7653 23.7338C48.5344 23.3191 49.2536 22.6657 49.3952 21.7519C49.6119 20.362 48.4454 18.9395 48.5856 17.5319C48.7049 16.3301 49.7184 15.5505 50.6523 14.9052C50.7743 14.8198 50.8971 14.736 51.0207 14.6536C51.4368 14.6182 51.8744 14.6141 52.3304 14.6391C52.6473 14.6563 52.8519 15.0343 52.6818 15.2996Z" fill="#650000"/>
</g>
<path d="M47.0521 29.5082L46.8666 29.2308C44.1406 25.154 43.5623 20.6669 45.3573 17.5205C46.7082 15.1523 49.1982 13.9446 52.3593 14.1204C52.693 14.1389 52.9978 14.3413 53.1549 14.6484C53.3108 14.9534 53.2974 15.3014 53.1193 15.5793C52.6547 16.3033 52.0547 16.8782 51.3363 17.2881C51.0571 17.4475 50.8766 17.7345 50.8535 18.0559C50.7013 20.1706 52.9438 22.5703 54.9145 24.4247L55.3221 24.8082L54.909 25.1859C52.1458 27.7117 49.754 29.068 47.3815 29.4545L47.0521 29.5082ZM51.7706 15.142C49.2747 15.142 47.33 16.1575 46.259 18.035C44.7248 20.7241 45.2337 24.7505 47.5438 28.3693C49.4889 27.9693 51.4939 26.822 53.7944 24.7918C51.6655 22.7406 49.6464 20.3653 49.8181 17.9814C49.866 17.3141 50.2412 16.7178 50.8218 16.3865C51.3576 16.0808 51.7961 15.6753 52.1582 15.15C52.0275 15.1446 51.8983 15.142 51.7706 15.142Z" fill="#650000"/>
<path d="M63.2427 14.4984C63.732 15.0571 64.3236 15.4987 65.0551 15.7826C65.5024 15.958 65.8524 16.341 65.9642 16.8417C66.4378 18.9671 64.8854 21.5139 62.7867 24.1752C65.3589 25.9073 67.9486 27.1632 70.5784 27.1992C71.3953 25.4695 71.8539 23.7576 71.9882 22.1613C72.4107 17.1494 69.6406 13.2845 64.7904 13.6147C64.3736 13.641 63.9402 13.7015 63.4929 13.7934C63.182 13.8571 63.0353 14.2611 63.2427 14.4984Z" fill="#EFC879"/>
<g opacity="0.6">
<path d="M71.1223 22.8833C71.5448 17.8715 68.7747 14.0065 63.9245 14.3368C63.6852 14.3519 63.4399 14.3795 63.1902 14.4166C63.0705 14.178 63.2152 13.8503 63.4929 13.7933C63.9402 13.7014 64.3736 13.641 64.7904 13.6147C69.6406 13.2844 72.4107 17.1494 71.9882 22.1612C71.8539 23.7575 71.3953 25.4695 70.5784 27.1992C70.3993 27.1968 70.2205 27.1875 70.0417 27.174C70.6529 25.7001 71.0074 24.2493 71.1223 22.8833Z" fill="white"/>
</g>
<g opacity="0.3">
<path d="M63.2427 14.4984C63.732 15.0571 64.3236 15.4987 65.0551 15.7826C65.5024 15.958 65.8524 16.341 65.9642 16.8417C66.4378 18.9671 64.8854 21.5139 62.7867 24.1752C65.3589 25.9073 67.9486 27.1632 70.5784 27.1992C71.3953 25.4695 71.8539 23.7576 71.9882 22.1613C71.841 22.2258 71.6909 22.2763 71.5379 22.3128C70.8001 22.4893 70.0413 22.3663 69.3487 22.1159C68.5269 21.8191 67.7192 21.2788 67.4444 20.3959C67.0252 19.0531 67.9693 17.4742 67.6232 16.1026C67.3281 14.9315 66.2107 14.3098 65.1918 13.8092C65.0587 13.7428 64.9249 13.6779 64.7905 13.6147C64.3736 13.641 63.9402 13.7015 63.4929 13.7934C63.182 13.8571 63.0353 14.2611 63.2427 14.4984Z" fill="#650000"/>
</g>
<path d="M70.9052 27.722L70.5715 27.7175C68.168 27.6849 65.6022 26.6959 62.497 24.605L62.0328 24.2924L62.3794 23.853C64.0552 21.7284 65.9196 19.0244 65.4572 16.9552C65.387 16.6407 65.1661 16.3834 64.8666 16.267C64.0952 15.9671 63.4173 15.4869 62.8513 14.8397C62.6341 14.5911 62.5695 14.2489 62.6786 13.9242C62.7888 13.5972 63.0604 13.352 63.3878 13.2846C66.4916 12.6442 69.1292 13.4721 70.8146 15.6153C73.0536 18.4628 73.1431 22.9861 71.0479 27.4202L70.9052 27.722ZM63.5415 24.051C66.1158 25.7198 68.2681 26.5591 70.2511 26.668C72.0025 22.7482 71.9123 18.6908 69.9986 16.2572C68.594 14.471 66.3752 13.7693 63.7385 14.2733C64.174 14.7394 64.6675 15.0758 65.2426 15.2994C65.8656 15.5415 66.3246 16.0758 66.4705 16.7289C66.9917 19.0615 65.3448 21.7084 63.5415 24.051Z" fill="#650000"/>
<path d="M30.6539 36.4612C40.2732 38.1085 47.07 33.6813 48.6208 26.9582C47.2229 26.1872 45.4205 25.8657 43.4811 25.9601C43.4811 25.9601 43.4796 25.9599 43.4781 25.9597C43.457 25.961 43.4343 25.9621 43.4131 25.9634C39.1584 26.1891 34.2583 28.4072 31.5205 32.2631L31.5203 32.2645C30.8641 33.1847 30.3331 34.2001 29.9632 35.3025C29.7898 35.8209 30.1144 36.3687 30.6539 36.4612Z" fill="#EA984E"/>
<g opacity="0.6">
<path d="M29.9632 35.3025C30.3332 34.2001 30.8641 33.1847 31.5203 32.2645L31.5205 32.263C34.2583 28.4071 39.1584 26.189 43.4131 25.9634C43.4343 25.9621 43.457 25.961 43.4782 25.9596C43.4796 25.9598 43.4811 25.9601 43.4811 25.9601C45.4205 25.8657 47.2229 26.1872 48.6208 26.9582C48.5712 27.1732 48.5159 27.3857 48.4556 27.596C47.1842 27.077 45.6634 26.8655 44.0464 26.9442C44.0464 26.9442 44.045 26.9439 44.0435 26.9437C44.0223 26.945 43.9997 26.9462 43.9785 26.9475C39.7237 27.1731 34.8237 29.3912 32.0858 33.2471L32.0856 33.2486C31.4294 34.1688 30.8985 35.1842 30.5285 36.2866C30.5139 36.3303 30.5041 36.3742 30.4964 36.4181C30.054 36.2561 29.8075 35.768 29.9632 35.3025Z" fill="white"/>
</g>
<path d="M34.5777 37.3266C33.2853 37.3266 31.9447 37.2094 30.5664 36.9733C30.1606 36.9038 29.8072 36.6621 29.5967 36.3101C29.3856 35.957 29.3399 35.5298 29.4712 35.1379C30.7287 31.3843 33.9244 28.2667 38.2389 26.5842C42.1339 25.0657 46.2077 25.0345 48.8711 26.503L49.2142 26.6923L49.1262 27.0742C48.3176 30.5818 46.1127 33.5035 42.9174 35.3011C40.5305 36.644 37.6959 37.3266 34.5777 37.3266ZM44.1261 26.4554C42.3916 26.4554 40.4876 26.8217 38.6161 27.5515C34.5894 29.1217 31.615 32.007 30.4556 35.4677C30.4077 35.6103 30.4551 35.7228 30.4878 35.7772C30.5198 35.8311 30.5956 35.9251 30.7415 35.9501C39.3647 37.4263 46.2469 33.9313 48.0178 27.2323C46.9201 26.7138 45.583 26.4554 44.1261 26.4554Z" fill="#650000"/>
<path d="M44.9409 29.5073C41.1755 29.4119 37.4107 31.2062 33.6464 34.5192C38.2714 34.6758 42.4189 32.8489 44.9409 29.5073Z" fill="#FF9AA5"/>
<g opacity="0.3">
<path d="M35.2904 34.4898C34.7505 34.5274 34.202 34.538 33.6464 34.5192C37.4107 31.2062 41.1755 29.4119 44.9409 29.5073C44.6619 29.877 44.3619 30.227 44.0446 30.559C41.1262 30.8172 38.2082 32.1849 35.2904 34.4898Z" fill="#6D184E"/>
</g>
<g opacity="0.3">
<path d="M30.6539 36.4612C40.2732 38.1085 47.07 33.6813 48.6208 26.9582C47.2229 26.1872 45.4205 25.8657 43.4811 25.9601C43.9524 28.4281 42.8027 31.0471 40.8702 32.6525C38.9359 34.2591 36.3264 34.9148 33.816 34.7859C33.1136 34.7501 32.3484 34.6223 31.8861 34.093C31.4571 33.6016 31.4204 32.9334 31.5203 32.2645C30.8641 33.1847 30.3331 34.2001 29.9632 35.3025C29.7898 35.8209 30.1144 36.3687 30.6539 36.4612Z" fill="#650000"/>
</g>
<path d="M34.2013 34.9735C34.0121 34.9735 33.8224 34.9703 33.6313 34.9638C33.4491 34.9576 33.289 34.8409 33.2275 34.6692C33.166 34.4975 33.2154 34.3057 33.3525 34.1852C37.322 30.6917 41.2304 28.9701 44.9522 29.0626C45.1188 29.0668 45.2691 29.1639 45.3416 29.314C45.4141 29.4642 45.3965 29.6423 45.296 29.7754C42.7887 33.0976 38.7684 34.9735 34.2013 34.9735ZM43.9857 29.9701C41.0585 30.1541 37.9997 31.5294 34.8672 34.0694C38.5305 33.9124 41.7651 32.4595 43.9857 29.9701Z" fill="#650000"/>
<path d="M86.1289 32.6073C76.6878 35.079 69.5342 31.2553 67.4086 24.6912C68.7347 23.8024 70.5026 23.3264 72.4429 23.253C72.4429 23.253 72.4444 23.2527 72.4458 23.2523C72.467 23.2518 72.4897 23.251 72.5109 23.2505C76.7693 23.1078 81.8425 24.8946 84.9031 28.4997L84.9034 28.5011C85.6366 29.3612 86.2532 30.3269 86.717 31.3933C86.9345 31.8948 86.6584 32.4686 86.1289 32.6073Z" fill="#EA984E"/>
<g opacity="0.6">
<path d="M86.7171 31.3933C86.2533 30.327 85.6367 29.3612 84.9035 28.5011L84.9031 28.4997C81.8426 24.8946 76.7693 23.1078 72.511 23.2505C72.4898 23.251 72.4671 23.2518 72.4459 23.2523C72.4444 23.2527 72.443 23.253 72.443 23.253C70.5026 23.3264 68.7348 23.8024 67.4086 24.6912C67.4766 24.9012 67.5501 25.1081 67.6283 25.3123C68.8502 24.6856 70.347 24.3435 71.9647 24.2822C71.9647 24.2822 71.9661 24.2819 71.9676 24.2815C71.9888 24.281 72.0115 24.2802 72.0327 24.2797C76.291 24.1371 81.3643 25.9238 84.4249 29.5289L84.4252 29.5303C85.1584 30.3904 85.775 31.3562 86.2388 32.4225C86.2571 32.4648 86.2707 32.5077 86.2822 32.5508C86.7089 32.3512 86.9123 31.8436 86.7171 31.3933Z" fill="white"/>
</g>
<path d="M80.5374 33.8855C78.099 33.8855 75.8282 33.4258 73.811 32.5105C70.4725 30.9955 68.0235 28.2752 66.9151 24.8504L66.7946 24.4776L67.12 24.2594C69.6464 22.5664 73.7076 22.2453 77.7191 23.4222C82.1629 24.7257 85.6161 27.5558 87.1931 31.187C87.3578 31.566 87.3491 31.9956 87.1692 32.3655C86.9899 32.7343 86.6586 33.0057 86.2605 33.11C84.2834 33.6275 82.3634 33.8855 80.5374 33.8855ZM68.0331 24.9123C70.3756 31.4332 77.5347 34.3217 85.9974 32.1057C86.1407 32.0682 86.2081 31.968 86.2356 31.9116C86.2632 31.8546 86.3007 31.7384 86.2409 31.6005C84.7869 28.2527 81.5743 25.6349 77.4268 24.4183C73.8802 23.3779 70.3302 23.5729 68.0331 24.9123Z" fill="#650000"/>
<path d="M71.2948 26.9131C75.038 26.4929 78.9436 27.9553 82.9799 30.931C78.3857 31.4863 74.096 30.0244 71.2948 26.9131Z" fill="#FF9AA5"/>
<g opacity="0.3">
<path d="M81.3395 31.0437C81.8806 31.0345 82.428 30.9977 82.9799 30.931C78.9436 27.9553 75.038 26.4929 71.2948 26.9131C71.6047 27.2573 71.9338 27.5801 72.2785 27.8834C75.2084 27.8887 78.2336 28.9994 81.3395 31.0437Z" fill="#6D184E"/>
</g>
<g opacity="0.3">
<path d="M86.1289 32.6073C76.6878 35.079 69.5342 31.2553 67.4086 24.6912C68.7347 23.8024 70.5026 23.3264 72.4429 23.253C72.1865 25.7525 73.558 28.2624 75.6219 29.6949C77.6877 31.1286 80.3441 31.5564 82.834 31.2113C83.5307 31.115 84.282 30.9217 84.6969 30.3544C85.0818 29.8278 85.0607 29.1588 84.9034 28.5011C85.6366 29.3612 86.2533 30.3269 86.717 31.3933C86.9345 31.8948 86.6584 32.4686 86.1289 32.6073Z" fill="#650000"/>
</g>
<path d="M81.0618 31.4928C77.0652 31.4928 73.46 29.983 70.9641 27.2108C70.8526 27.0869 70.8196 26.911 70.8789 26.7551C70.9381 26.5992 71.0795 26.4896 71.2452 26.471C74.9503 26.0551 78.9877 27.435 83.244 30.5728C83.3908 30.681 83.4567 30.8679 83.4103 31.0443C83.3638 31.2207 83.2144 31.3508 83.0334 31.3727C82.3681 31.4531 81.7095 31.4928 81.0618 31.4928ZM72.2863 27.2916C74.7135 29.5796 78.0605 30.7473 81.7248 30.5884C78.3848 28.3282 75.2151 27.2261 72.2863 27.2916Z" fill="#650000"/>
<path d="M40.2981 42.3946C42.1234 26.8786 54.7951 21.1085 64.304 22.1492C68.9262 22.655 72.9416 25.617 74.9768 29.873C76.3608 32.7673 77.9065 35.563 79.6562 38.2342C80.906 40.1422 81.8738 42.2325 82.4761 44.4424C85.5083 55.5674 77.1971 60.2208 65.7786 60.5577C47.8238 61.2814 36.899 55.1558 39.7064 45.3213C39.98 44.3628 40.1815 43.3856 40.2981 42.3946Z" fill="#EA984E"/>
<g opacity="0.6">
<path d="M82.4761 44.4424C81.8738 42.2325 80.906 40.1422 79.6562 38.2342C77.9065 35.563 76.3609 32.7673 74.9768 29.873C72.9416 25.617 68.9263 22.655 64.3041 22.1491C58.8196 21.5489 52.2832 23.2149 47.3824 27.7093C52.1803 23.7363 58.317 22.2728 63.5104 22.8412C68.1326 23.3471 72.148 26.3091 74.1831 30.5651C75.5672 33.4593 77.1128 36.2551 78.8626 38.9263C80.1124 40.8342 81.0801 42.9246 81.6824 45.1345C83.0984 50.3295 82.0402 54.1129 79.3477 56.705C82.6151 54.112 84.0237 50.1206 82.4761 44.4424Z" fill="white"/>
</g>
<g opacity="0.3">
<path d="M67.3257 58.4206C50.4767 59.119 40.2246 53.2074 42.8591 43.7166C43.1158 42.7916 43.3049 41.8485 43.4143 40.8921C44.5022 31.3821 49.696 25.6671 55.6273 23.019C48.3904 25.2468 41.5972 31.3517 40.2981 42.3946C40.1815 43.3856 39.98 44.3628 39.7064 45.3213C36.899 55.1558 47.8238 61.2814 65.7786 60.5577C74.7172 60.294 81.751 57.3846 82.9303 50.7967C80.9811 55.8926 74.8779 58.1915 67.3257 58.4206Z" fill="#650000"/>
</g>
<path d="M62.2223 39.8664C65.5625 40.4119 68.9027 40.2577 72.2429 39.4036C73.6985 39.0314 75.2453 39.1314 76.6273 39.7153C86.0653 43.7033 79.3382 58.397 68.5006 58.89C53.0726 59.3512 48.6434 51.7385 51.0469 45.6216C52.7586 41.2652 57.5248 38.8122 62.1519 39.8504C62.1754 39.8557 62.1989 39.861 62.2223 39.8664Z" fill="#7A5545"/>
<g opacity="0.6">
<path d="M61.707 40.5919C61.7304 40.5972 61.7539 40.6025 61.7774 40.6079C65.1176 41.1535 68.4578 40.9992 71.798 40.1451C73.2536 39.7729 74.8004 39.8729 76.1823 40.4568C81.3287 42.6314 81.668 47.989 79.156 52.4917C82.1356 47.8522 82.0595 42.0107 76.6272 39.7153C75.2453 39.1314 73.6985 39.0314 72.2429 39.4036C68.9027 40.2577 65.5625 40.412 62.2223 39.8664C62.1988 39.861 62.1754 39.8557 62.1519 39.8504C57.892 38.8945 53.5162 40.8993 51.5125 44.6227C53.6713 41.38 57.7393 39.7017 61.707 40.5919Z" fill="white"/>
</g>
<g opacity="0.3">
<path d="M68.8557 57.5133C53.8617 57.9746 49.557 50.3619 51.8929 44.245C51.9859 44.0014 52.0896 43.7647 52.2006 43.5333C51.7356 44.1669 51.3443 44.8647 51.0469 45.6216C48.6434 51.7385 53.0727 59.3512 68.5006 58.89C76.0163 58.5481 81.553 51.3773 81.0947 45.6832C80.6771 51.0937 75.5813 57.1986 68.8557 57.5133Z" fill="#650000"/>
</g>
<path d="M72.1146 39.7941C73.6398 39.7941 74.8761 38.0792 74.8761 35.9638C74.8761 33.8484 73.6398 32.1335 72.1146 32.1335C70.5895 32.1335 69.3532 33.8484 69.3532 35.9638C69.3532 38.0792 70.5895 39.7941 72.1146 39.7941Z" fill="#650000"/>
<path d="M71.4101 36.9734C71.9573 36.9734 72.4009 36.2945 72.4009 35.4571C72.4009 34.6197 71.9573 33.9408 71.4101 33.9408C70.8628 33.9408 70.4192 34.6197 70.4192 35.4571C70.4192 36.2945 70.8628 36.9734 71.4101 36.9734Z" fill="white"/>
<g opacity="0.35">
<path d="M73.9413 37.6016C74.0767 37.1066 73.9243 36.6336 73.6008 36.545C73.2773 36.4565 72.9053 36.7861 72.7699 37.2811C72.6345 37.7761 72.7869 38.2491 73.1104 38.3376C73.4338 38.4261 73.8058 38.0966 73.9413 37.6016Z" fill="white"/>
</g>
<path d="M52.778 37.1007C54.3942 35.6395 56.5396 34.7788 58.4877 36.2208C59.0704 36.6374 59.5463 37.1587 59.9626 37.7062C60.1405 37.9307 60.0995 38.259 59.871 38.4323C59.7119 38.5533 59.5042 38.5665 59.3359 38.4846C58.9463 38.294 58.5361 38.1531 58.1125 38.0796C56.7691 37.836 55.462 38.3506 54.3597 39.1664C54.2793 39.2266 54.1649 39.2097 54.1056 39.1287C54.0508 39.054 54.0619 38.9512 54.128 38.8896C54.483 38.5586 54.8678 38.2518 55.2907 37.9911C56.586 37.1518 58.2806 36.9802 59.731 37.5198L59.1043 38.2982C58.4749 37.3173 57.6055 36.354 56.4088 36.2049C55.1969 36.0532 54.0087 36.7052 53.0403 37.4207C52.8308 37.5791 52.5806 37.2769 52.778 37.1007Z" fill="#650000"/>
<path d="M67.2137 59.2801C59.7196 59.2803 54.2046 57.2706 51.5983 53.5665C49.938 51.2068 49.6113 48.2616 50.7017 45.4861C52.469 40.9884 57.4264 38.4104 62.2331 39.4887L62.2932 39.5023C65.5636 40.0348 68.88 39.8807 72.151 39.0444C73.6944 38.6498 75.3351 38.7668 76.7716 39.3738C80.336 40.8799 82.0425 44.1327 81.3366 48.075C80.8578 50.7494 79.3089 53.4708 77.0872 55.5416C74.6658 57.7985 71.6224 59.1192 68.5174 59.2604C68.0769 59.2735 67.6415 59.2801 67.2137 59.2801ZM60.0247 39.9854C56.2797 39.9854 52.7761 42.2344 51.392 45.7572C50.3795 48.334 50.6681 50.9558 52.2049 53.1398C54.8117 56.8448 60.5949 58.7556 68.4895 58.5193C74.8541 58.2299 79.7364 52.8046 80.6066 47.9443C81.2567 44.3137 79.7537 41.4389 76.483 40.0568C75.1946 39.5124 73.7213 39.4083 72.3347 39.7628C68.9604 40.6258 65.5383 40.7837 62.1626 40.2323C62.1548 40.231 62.1469 40.2295 62.1391 40.2276L62.0709 40.2122C61.3883 40.0591 60.7025 39.9854 60.0247 39.9854Z" fill="#650000"/>
<path d="M72.3133 44.7714C72.62 44.7714 72.8686 44.1545 72.8686 43.3934C72.8686 42.6324 72.62 42.0154 72.3133 42.0154C72.0066 42.0154 71.758 42.6324 71.758 43.3934C71.758 44.1545 72.0066 44.7714 72.3133 44.7714Z" fill="#650000"/>
<path d="M63.7486 45.0186C64.0742 45.0186 64.3382 44.3906 64.3382 43.6159C64.3382 42.8412 64.0742 42.2132 63.7486 42.2132C63.423 42.2132 63.1591 42.8412 63.1591 43.6159C63.1591 44.3906 63.423 45.0186 63.7486 45.0186Z" fill="#650000"/>
<path d="M73.6497 47.6705C72.7769 51.2872 66.2071 52.269 62.2448 49.1685C63.6543 53.2846 66.5487 55.8925 69.7824 55.2592C70.6474 55.0898 71.2218 54.3527 71.1688 53.5172C70.9949 50.7708 73.2692 49.5912 73.6497 47.6705Z" fill="#650000"/>
<path d="M71.1609 53.1615C69.6361 51.7009 65.9147 51.2787 63.961 52.5255C65.6952 55.3417 71.2946 56.8605 71.1609 53.1615Z" fill="#FC4F8B"/>
<g opacity="0.3">
<path d="M70.8562 52.9046C69.8686 52.678 68.7901 52.6146 67.8327 52.7517C66.9401 52.8795 66.6893 53.9483 67.4129 54.498C67.8457 54.8267 68.3292 55.1145 68.8285 55.3475C67.1182 55.2741 64.9327 54.1036 63.961 52.5255C65.7948 51.3551 69.1859 51.6554 70.8562 52.9046Z" fill="#650000"/>
</g>
<path d="M68.8211 55.7985C65.885 55.7985 63.2119 53.3661 61.8238 49.3127C61.7601 49.1263 61.8264 48.9202 61.987 48.806C62.1475 48.6919 62.3638 48.6967 62.519 48.8181C64.6601 50.4935 67.9331 51.0449 70.4792 50.1584C71.9663 49.6408 72.9388 48.7201 73.2172 47.5661C73.274 47.3306 73.5096 47.1846 73.7451 47.2359C73.9817 47.2879 74.1332 47.5194 74.0861 47.7569C73.9136 48.6274 73.4025 49.3497 72.9081 50.0483C72.2253 51.0132 71.5193 52.011 71.6128 53.489C71.6804 54.5564 70.9466 55.4845 69.868 55.6958C69.5165 55.7647 69.1668 55.7985 68.8211 55.7985ZM63.1785 50.3127C64.6768 53.5782 67.1414 55.3223 69.6969 54.8226C70.3316 54.6983 70.7638 54.1611 70.7248 53.5453C70.6527 52.4083 70.9625 51.5179 71.3866 50.7533C71.1906 50.8425 70.9856 50.9244 70.7718 50.9988C68.7241 51.7119 65.74 51.7106 63.1785 50.3127Z" fill="#650000"/>
<path d="M68.997 55.7961C67.0855 55.7961 64.654 54.4996 63.5821 52.7588C63.4547 52.5518 63.5168 52.2811 63.7216 52.1504C65.771 50.8426 69.7531 51.1973 71.4688 52.8401C71.5524 52.9202 71.6015 53.0297 71.6056 53.1453C71.6523 54.4363 71.0754 55.3297 69.981 55.661C69.6781 55.7528 69.3461 55.7961 68.997 55.7961ZM64.6119 52.6783C65.8067 54.1804 68.2742 55.248 69.7232 54.8094C70.3736 54.6124 70.7004 54.1378 70.7177 53.3611C69.3192 52.1822 66.3749 51.8752 64.6119 52.6783Z" fill="#650000"/>
<path d="M62.956 61.1347C52.349 61.1347 44.3469 58.6081 40.7728 54.0643C38.8038 51.561 38.2624 48.4885 39.2072 45.1787C39.4788 44.227 39.6725 43.2698 39.7825 42.3339C40.8509 33.2519 45.4497 28.2427 49.1193 25.6397C53.5239 22.5156 59.0787 21.0548 64.3606 21.6332C69.0804 22.1497 73.3277 25.2212 75.445 29.6491C76.8664 32.6213 78.4293 35.4141 80.0905 37.9498C81.4017 39.9518 82.373 42.0902 82.9769 44.3059C84.1651 48.6658 83.7189 52.2921 81.6505 55.0842C78.913 58.7791 73.4299 60.8512 65.7938 61.0766C64.829 61.1154 63.8824 61.1347 62.956 61.1347ZM40.2981 42.3945L40.8137 42.4552C40.697 43.4463 40.4925 44.4585 40.2055 45.4637C39.3438 48.4823 39.8092 51.1601 41.5888 53.4224C44.9635 57.7127 52.66 60.0967 62.9298 60.097C63.8526 60.0971 64.7944 60.0779 65.7577 60.039C73.0698 59.8233 78.2751 57.8963 80.8163 54.4661C82.6858 51.9427 83.0756 48.6161 81.9753 44.5788C81.3999 42.4684 80.4737 40.4294 79.222 38.5186C77.5356 35.9443 75.9498 33.1108 74.5085 30.0969C72.545 25.9905 68.6132 23.1429 64.2477 22.6651C54.1479 21.5611 42.4999 28.1198 40.8137 42.4552L40.2981 42.3945Z" fill="#650000"/>
<path d="M40.9308 75.5971C47.7826 74.8896 50.662 66.7061 45.9737 60.2498C45.4624 59.5457 45.1382 58.7195 45.037 57.8553C45.002 57.5561 44.9864 57.2532 44.9885 56.9468C44.996 55.8726 44.4244 54.8543 43.4479 54.4067C40.8508 53.2163 38.4666 57.0301 39.0001 60.2076C34.1504 61.6537 32.4405 68.5569 35.1105 72.8347C36.3424 74.8085 38.6164 75.8361 40.9308 75.5971Z" fill="#7A5545"/>
<path d="M40.2553 75.7062C38.1148 75.7062 36.1618 74.6591 35.0476 72.874C33.6149 70.5788 33.3713 67.4437 34.4116 64.6925C35.2806 62.3944 36.8788 60.7857 38.9166 60.1555C38.6023 58.1312 39.4353 55.7943 40.8702 54.6951C41.699 54.06 42.6016 53.9371 43.4787 54.3393C44.4489 54.784 45.0706 55.8077 45.0627 56.9473C45.0606 57.2542 45.0767 57.5568 45.1108 57.8466C45.2101 58.6957 45.5293 59.5117 46.0336 60.2063C48.4323 63.5093 49.0095 67.6059 47.5401 70.897C46.3231 73.6231 43.9164 75.3631 40.9384 75.6707C40.7092 75.6946 40.4811 75.7062 40.2553 75.7062ZM42.4641 54.2567C41.8461 54.2567 41.3293 54.5302 40.9604 54.8128C39.5506 55.8927 38.7393 58.2067 39.0731 60.1954L39.084 60.26L39.0213 60.2787C36.9992 60.8816 35.4114 62.4678 34.5503 64.7448C33.526 67.4538 33.7648 70.5386 35.1733 72.7955C36.3749 74.7204 38.5773 75.7648 40.9231 75.5233C43.8473 75.2214 46.2099 73.5132 47.4048 70.8366C48.8525 67.5937 48.2812 63.5537 45.9137 60.2934C45.3943 59.5783 45.0657 58.7381 44.9634 57.8639C44.9287 57.568 44.9122 57.2593 44.9144 56.9462C44.9219 55.8649 44.3341 54.8945 43.417 54.4742C43.0795 54.3195 42.7601 54.2567 42.4641 54.2567Z" fill="#7F3218"/>
<g opacity="0.5">
<path d="M43.8999 54.9679C43.9928 55.7905 44.2904 56.5768 44.7598 57.247C44.8493 57.3748 44.9347 57.5035 45.0182 57.6326C44.9989 57.4058 44.9869 57.1776 44.9885 56.9468C44.9948 56.0407 44.5878 55.1758 43.8746 54.6583C43.8816 54.7618 43.8883 54.8653 43.8999 54.9679Z" fill="#6D184E"/>
<g opacity="0.3">
<path d="M46.5474 61.1104C47.8435 66.2552 45.1464 71.3173 40.13 71.8543C38.0051 72.0818 35.9175 71.1037 34.7864 69.2251C34.3939 68.5732 34.1057 67.8568 33.9147 67.1084C33.6965 69.0969 34.0686 71.1655 35.1104 72.8347C36.3424 74.8085 38.6163 75.8361 40.9308 75.5971C47.4814 74.9207 50.4004 67.4111 46.5474 61.1104Z" fill="#650000"/>
</g>
</g>
<g opacity="0.6">
<path d="M46.5669 61.3374C46.7727 61.6209 46.9631 61.9078 47.1401 62.1972C46.8219 61.5372 46.435 60.8851 45.9737 60.2498C45.9664 60.2399 45.9601 60.2293 45.953 60.2193C46.1097 60.6148 46.3153 60.991 46.5669 61.3374Z" fill="white"/>
<path d="M38.6119 61.681C39.1572 61.4112 39.5067 60.8569 39.5191 60.2486C39.5782 57.351 41.725 54.4328 44.0411 55.4943C44.3662 55.6433 44.6452 55.8566 44.8741 56.1131C44.6627 55.3726 44.1651 54.7355 43.4478 54.4068C40.8507 53.2164 38.4665 57.0302 39 60.2077C34.1504 61.6537 32.4405 68.557 35.1104 72.8347C35.1393 72.8811 35.1716 72.9242 35.2016 72.9695C33.4411 69.0133 34.8376 63.5492 38.6119 61.681Z" fill="white"/>
</g>
<path d="M40.2543 76.1511C37.9611 76.1511 35.8665 75.0264 34.6701 73.1096C33.1655 70.699 32.9071 67.4135 33.9955 64.535C34.8503 62.2743 36.4524 60.5903 38.4315 59.8512C38.2447 57.769 39.1331 55.4652 40.5996 54.3418C41.5538 53.611 42.6422 53.4663 43.6641 53.9348C44.7931 54.4523 45.5168 55.636 45.5076 56.9503C45.5057 57.239 45.5208 57.5231 45.5527 57.7948C45.6432 58.5684 45.934 59.3118 46.3937 59.9448C48.8855 63.3763 49.4804 67.6423 47.9465 71.0784C46.6628 73.9537 44.1248 75.7888 40.9842 76.1134C40.7393 76.1388 40.4956 76.1511 40.2543 76.1511ZM42.4612 54.7018C42.0463 54.7018 41.6348 54.8567 41.2309 55.166C39.9635 56.1369 39.2085 58.3138 39.512 60.1218C39.5553 60.3801 39.3993 60.6303 39.1483 60.7051C37.2624 61.2675 35.7772 62.758 34.9664 64.9023C33.9901 67.4841 34.2141 70.4184 35.5508 72.56C36.6616 74.3394 38.7037 75.3055 40.8773 75.0807H40.8775C43.639 74.7955 45.8702 73.1825 46.9984 70.6552C48.3816 67.5571 47.828 63.6868 45.5535 60.5549C44.9896 59.7782 44.6327 58.8655 44.5214 57.9157C44.4847 57.6017 44.4671 57.2745 44.4694 56.9432C44.4758 56.0366 43.9898 55.2262 43.2316 54.8786C42.9742 54.7607 42.7171 54.7018 42.4612 54.7018Z" fill="#650000"/>
<path d="M40.0254 76.1452C39.7387 76.1452 39.5063 75.9128 39.5063 75.6261C39.5063 75.3394 39.7387 75.107 40.0254 75.107C43.4962 75.107 45.2125 73.4419 45.3738 71.7917C45.5032 70.4689 44.5871 68.9276 42.2488 68.4659C42.0086 68.4186 41.8342 68.2097 41.8304 67.9649C41.8264 67.72 41.9941 67.5059 42.2328 67.4509C44.0931 67.0221 45.1301 65.9693 45.0067 64.6344C44.842 62.8558 42.6733 60.8817 38.9782 60.7263C38.6918 60.7143 38.4694 60.4723 38.4814 60.1858C38.4935 59.8994 38.736 59.6777 39.0219 59.689C43.3058 59.8692 45.8352 62.3222 46.0403 64.5387C46.1487 65.7083 45.6192 67.09 43.9606 67.9344C45.8194 68.8156 46.5486 70.4455 46.407 71.8927C46.2001 74.0094 44.1465 76.1452 40.0254 76.1452Z" fill="#650000"/>
<path d="M42.3493 68.4757L39.3337 68.2718C38.9446 68.2388 38.9458 67.6737 39.3337 67.6415L42.3493 67.4376C43.0821 67.4173 43.0833 68.4956 42.3493 68.4757Z" fill="#650000"/>
</g>
<rect x="0.5" y="0.5" width="124" height="124" stroke="black"/>
<defs>
<clipPath id="clip0_17_271">
<rect width="125" height="125" fill="white"/>
</clipPath>
</defs>
</svg>
