<svg width="125" height="125" viewBox="0 0 125 125" fill="none" xmlns="http://www.w3.org/2000/svg">
<g clip-path="url(#clip0_4_4943)">
<path d="M125 0H0V125H125V0Z" fill="#CCEEFF"/>
<g opacity="0.2">
<path d="M60.5484 105.781C78.2802 105.781 92.6547 104.696 92.6547 103.357C92.6547 102.017 78.2802 100.932 60.5484 100.932C42.8166 100.932 28.4421 102.017 28.4421 103.357C28.4421 104.696 42.8166 105.781 60.5484 105.781Z" fill="#000072"/>
</g>
<path d="M74.5554 32.7461L71.5288 32.295L69.2849 31.0359L66.7988 29.6413C68.796 28.5386 70.4413 27.114 71.5047 25.163C71.9622 24.3266 73.1532 24.3232 73.6392 25.141C73.6941 25.2342 73.7487 25.3292 73.7997 25.4237C73.7997 25.4237 73.7997 25.4237 73.8012 25.4257C74.9645 27.5495 75.2177 29.9899 74.5554 32.7461Z" fill="#FFD400"/>
<g opacity="0.55">
<path d="M74.2355 26.3354C74.221 26.3115 74.2082 26.2879 74.1937 26.264C73.7077 25.4462 72.515 25.4493 72.0591 26.2859C71.125 28.0012 69.7395 29.3089 68.0609 30.3505L66.7988 29.6413C68.796 28.5387 70.4413 27.114 71.5047 25.163C71.9622 24.3266 73.1532 24.3232 73.6392 25.141C73.8692 25.5281 74.0684 25.9269 74.2355 26.3354Z" fill="white"/>
</g>
<path d="M74.556 33.282C74.5144 33.282 74.4723 33.2772 74.4302 33.2671C74.1419 33.1978 73.9643 32.9079 74.0336 32.6196C74.6881 29.8951 74.4004 27.4711 73.1785 25.4152C73.0466 25.1933 72.8107 25.0631 72.5582 25.0683C72.4399 25.0705 72.1465 25.1091 71.977 25.4201C70.9396 27.322 69.3306 28.8566 67.0578 30.1115C66.7983 30.2547 66.4717 30.1606 66.3283 29.901C66.185 29.6414 66.2793 29.3148 66.5388 29.1715C68.6273 28.0184 70.0978 26.6231 71.0343 24.906C71.339 24.3472 71.9013 24.0066 72.5384 23.9948C73.1847 23.9827 73.7701 24.3087 74.1015 24.8666C75.4712 27.1715 75.7997 29.8643 75.0776 32.8705C75.0184 33.1166 74.7985 33.282 74.556 33.282Z" fill="#000070"/>
<g opacity="0.3">
<path d="M74.5555 32.7461L71.529 32.295L69.285 31.0359C69.5133 30.9487 69.7805 30.88 70.0928 30.8361C75.0044 30.1354 73.8348 25.5537 73.8014 25.4257C74.9647 27.5495 75.2179 29.9899 74.5555 32.7461Z" fill="#000072"/>
</g>
<path d="M45.4443 32.7458L48.4708 32.2946L50.7147 31.0356L53.2008 29.6409C51.2037 28.5383 49.5584 27.1137 48.495 25.1626C48.0374 24.3262 46.8464 24.3228 46.3604 25.1407C46.3055 25.2339 46.2509 25.3289 46.1999 25.4233C46.1999 25.4233 46.1999 25.4233 46.1984 25.4254C45.035 27.5492 44.7819 29.9896 45.4443 32.7458Z" fill="#FFD400"/>
<g opacity="0.55">
<path d="M45.7642 26.335C45.7787 26.3112 45.7915 26.2875 45.806 26.2637C46.292 25.4458 47.4848 25.4489 47.9406 26.2856C48.8747 28.0008 50.2602 29.3086 51.9388 30.3502L53.2009 29.6409C51.2038 28.5383 49.5584 27.1137 48.495 25.1626C48.0375 24.3262 46.8465 24.3228 46.3605 25.1407C46.1305 25.5278 45.9313 25.9266 45.7642 26.335Z" fill="white"/>
</g>
<path d="M45.4439 33.282C45.2014 33.282 44.9815 33.1166 44.9223 32.8705C44.2002 29.8643 44.5286 27.1714 45.8984 24.8665C46.2299 24.3087 46.8141 23.979 47.4615 23.9947C48.0986 24.0065 48.6609 24.3471 48.9656 24.9059C49.9021 26.6231 51.3726 28.0184 53.4611 29.1715C53.7207 29.3148 53.8149 29.6414 53.6716 29.901C53.5283 30.1606 53.2015 30.2547 52.9422 30.1115C50.6694 28.8566 49.0603 27.322 48.023 25.42C47.8534 25.1091 47.56 25.0704 47.4417 25.0683C47.1835 25.0641 46.9533 25.1931 46.8214 25.4151C45.5995 27.4711 45.3118 29.895 45.9663 32.6196C46.0356 32.9079 45.858 33.1978 45.5697 33.267C45.5276 33.2772 45.4854 33.282 45.4439 33.282Z" fill="#000070"/>
<g opacity="0.3">
<path d="M45.4443 32.7458L48.4708 32.2946L50.7147 31.0356C50.4864 30.9484 50.2193 30.8797 49.907 30.8358C44.9954 30.135 46.165 25.5534 46.1984 25.4254C45.035 27.5491 44.7819 29.9896 45.4443 32.7458Z" fill="#000072"/>
</g>
<path d="M86.3437 89.1232C86.3437 89.1232 85.9128 83.0083 89.8407 83.7455C93.7686 84.4827 95.1342 82.8941 95.1342 82.8941C95.1342 82.8941 94.8016 90.1542 91.1334 91.0827C88.5177 91.7449 87.0847 89.6866 87.0847 89.6866" fill="#5F5E73"/>
<g opacity="0.35">
<path d="M95.0805 83.5644C94.424 84.3253 92.85 85.6148 90.0172 85.0827C87.2131 84.5555 86.6299 87.5232 86.526 89.2629L86.344 89.124C86.344 89.124 85.9119 83.0089 89.84 83.7462C93.7683 84.4819 95.1341 82.8949 95.1341 82.8949C95.1341 82.8949 95.1233 83.1476 95.0805 83.5644Z" fill="white"/>
</g>
<g opacity="0.3">
<path d="M91.1342 91.0826C88.5172 91.7447 87.0847 89.6869 87.0847 89.6869L86.344 89.124C86.344 89.124 86.2575 87.8933 86.5156 86.6028C86.9729 87.3124 87.8398 88.176 89.3778 88.3349C91.8687 88.5914 93.9415 85.7414 95.0561 83.7853C94.8316 85.7518 94.005 90.3553 91.1342 91.0826Z" fill="#000072"/>
</g>
<path d="M90.0995 91.7839C87.8833 91.784 86.6773 90.0941 86.6192 90.0107C86.5455 89.9048 86.5129 89.7827 86.5179 89.6631C86.4753 89.6768 86.4302 89.6857 86.3835 89.689C86.0716 89.7092 85.7999 89.4755 85.7778 89.163C85.767 89.0097 85.5333 85.3892 87.2856 83.8281C87.9862 83.2036 88.881 82.9881 89.9452 83.1881C93.4429 83.8449 94.6979 82.531 94.7102 82.5175C94.8679 82.334 95.1213 82.2743 95.3464 82.3635C95.5713 82.4528 95.7117 82.6783 95.7007 82.92C95.6863 83.2336 95.3023 90.6123 91.2724 91.6325C90.8547 91.7383 90.4634 91.7839 90.0995 91.7839ZM87.0841 89.1194C87.2635 89.1194 87.4399 89.2043 87.5501 89.3625C87.5988 89.431 88.8063 91.0858 90.9942 90.533C93.2392 89.9646 94.1718 86.2897 94.4649 83.999C93.5611 84.4009 92.0482 84.7368 89.736 84.303C89.0256 84.1696 88.4708 84.2914 88.0401 84.675C86.9274 85.6664 86.8466 88.1934 86.9093 89.0834C86.9108 89.1048 86.9111 89.1258 86.9103 89.1467C86.9671 89.1284 87.0258 89.1194 87.0841 89.1194Z" fill="#000070"/>
<path d="M74.0836 92.9444C74.0836 92.9444 79.5386 94.0689 83.0553 90.5129C86.9043 86.6209 89.3026 86.986 89.4092 88.1506C89.5159 89.3152 87.4868 89.8008 85.5075 93.0918C83.6439 96.1905 81.2613 98.8379 76.268 97.8185" fill="white"/>
<g opacity="0.25">
<path d="M85.5079 93.0921C83.643 96.1911 81.2606 98.8385 76.2681 97.8181L74.0833 92.9442C74.0833 92.9442 74.4629 93.022 75.0845 93.0725L75.2788 93.9703C79.9547 95.9992 82.8324 93.9016 85.2976 91.2564C87.0468 89.3756 88.5598 88.7284 89.4103 88.157C89.5074 89.3168 87.4828 89.8078 85.5079 93.0921Z" fill="#6B184E"/>
</g>
<path d="M78.3047 98.6046C77.6408 98.6046 76.9263 98.5318 76.1546 98.3743C75.8478 98.3116 75.6497 98.0121 75.7124 97.7052C75.775 97.3982 76.0743 97.2005 76.3815 97.2629C80.7838 98.1618 83.0194 96.1287 85.0216 92.7996C86.0937 91.017 87.1646 90.0388 87.9465 89.3244C88.5534 88.77 88.8689 88.4683 88.8446 88.2024C88.8404 88.1568 88.8306 88.0498 88.6306 87.9781C88.008 87.7555 86.2181 88.1215 83.4587 90.9117C79.768 94.6434 74.2044 93.5483 73.9692 93.4999C73.6624 93.4368 73.4651 93.1368 73.5283 92.8301C73.5915 92.5234 73.8909 92.3259 74.1976 92.3889C74.2492 92.3993 79.4004 93.4023 82.6522 90.114C85.1595 87.5789 87.5371 86.3809 89.0135 86.9104C89.5649 87.1081 89.9241 87.5525 89.9742 88.0989C90.051 88.9381 89.4598 89.4781 88.7116 90.1617C87.9811 90.8291 86.9806 91.7431 85.9936 93.3842C84.4064 96.0232 82.2581 98.6044 78.3047 98.6046Z" fill="#000070"/>
<g opacity="0.35">
<path d="M44.8643 87.8588C43.5963 87.2096 41.6883 86.3754 40.2564 86.5316C36.5115 86.9396 36.3629 89.6865 36.3629 89.6865C36.3629 89.6865 35.7273 88.7491 35.2981 88.059L35.3299 88.0089C38.2618 83.1659 42.6696 85.9628 44.8643 87.8588Z" fill="white"/>
</g>
<g opacity="0.3">
<path d="M51.7806 102.154C52.5072 102.163 53.2534 102.174 54.0149 102.185C53.5174 102.353 52.9076 102.395 52.1659 102.248C52.0355 102.223 51.9065 102.191 51.7806 102.154Z" fill="#6B184E"/>
</g>
<g opacity="0.3">
<path d="M68.5548 102.226C68.5214 102.235 68.488 102.242 68.4547 102.248C67.8207 102.374 67.2837 102.362 66.8302 102.248C67.4339 102.241 68.0088 102.233 68.5548 102.226Z" fill="#6B184E"/>
</g>
<path d="M88.6699 94.2636C88.6642 95.1441 88.5408 95.9395 88.3296 96.6597C87.9524 97.9528 87.2946 99.0006 86.5417 99.8386C84.8374 101.739 82.3703 102.785 79.8168 102.785H41.0297C38.4747 102.785 36.0104 101.739 34.3033 99.8386C33.5504 99.0006 32.8939 97.9542 32.5168 96.6626C32.3055 95.9423 32.1822 95.1441 32.1779 94.2636C32.1481 88.8416 35.9693 88.5708 38.1514 90.1858L38.2762 89.9901L38.3003 89.9532L38.3286 89.9079C38.737 89.233 39.1779 88.7254 39.6387 88.3539C40.2484 87.8605 40.8935 87.6066 41.5443 87.5301C43.5492 87.2876 45.6008 88.6941 46.8499 89.7745C46.8513 89.776 46.8513 89.776 46.8528 89.776C47.5915 90.414 48.048 90.9372 48.048 90.9372H72.7969C72.7969 90.9372 75.9303 87.3542 79.034 87.5059C79.7217 87.54 80.4079 87.7583 81.0587 88.239C81.5734 88.6175 82.0654 89.162 82.5177 89.9078L82.6921 90.1871C84.8729 88.5708 88.6968 88.8374 88.6699 94.2636Z" fill="white"/>
<g opacity="0.35">
<path d="M74.072 89.7739C75.2054 89.1937 76.9108 88.4481 78.1906 88.5877C81.5377 88.9524 81.6706 91.4075 81.6706 91.4075C81.6706 91.4075 82.2387 90.5697 82.6223 89.9529L82.5938 89.9081C79.9733 85.5794 76.0337 88.0793 74.072 89.7739Z" fill="white"/>
</g>
<path d="M43.7283 102.784H41.0292C38.475 102.784 36.0104 101.739 34.3036 99.8385C33.1309 98.533 32.1901 96.7204 32.1779 94.2639C32.1481 88.8412 35.9698 88.5714 38.1511 90.186L38.2758 89.9908C39.2505 91.219 40.5452 93.4302 41.2963 97.0729C41.8602 99.8127 42.8336 101.624 43.7283 102.784Z" fill="#5F5E73"/>
<g opacity="0.3">
<path d="M42.9481 94.5953C42.8332 94.265 42.7935 94.0495 42.7878 94.0183C42.7978 94.0495 42.8701 94.2664 42.9481 94.5953Z" fill="#6B184E"/>
</g>
<g opacity="0.3">
<path d="M78.0558 94.0182C78.0501 94.0494 78.0104 94.2635 77.897 94.5924C77.9735 94.2649 78.0458 94.0494 78.0558 94.0182Z" fill="#6B184E"/>
</g>
<path d="M77.1184 102.784H79.8176C82.3717 102.784 84.8363 101.739 86.5431 99.8385C87.7158 98.533 88.6566 96.7204 88.6688 94.2639C88.6986 88.8412 84.877 88.5714 82.6957 90.186L82.5709 89.9908C81.5962 91.219 80.3015 93.4302 79.5505 97.0729C78.9865 99.8127 78.0131 101.624 77.1184 102.784Z" fill="#666566"/>
<path d="M88.6693 94.2634C88.657 96.7208 87.7159 98.5334 86.5435 99.8385C84.8359 101.739 82.3723 102.785 79.8176 102.785H77.118C77.2152 102.66 77.3124 102.527 77.4096 102.385C78.0313 101.491 78.6653 100.277 79.1528 98.6506C79.3009 98.1632 79.4351 97.6371 79.5508 97.0725C80.302 93.4304 81.5963 91.2198 82.5713 89.9903L82.6962 90.1862C84.6646 88.7284 87.9689 88.8055 88.5721 92.8195C88.5829 92.8858 88.5922 92.9521 88.5999 93.02C88.6477 93.3995 88.6724 93.8145 88.6693 94.2634Z" fill="#5F5E73"/>
<g opacity="0.3">
<path d="M88.3296 96.6597C87.9524 97.9528 87.2945 99.0006 86.5416 99.8386C84.8373 101.739 82.3703 102.785 79.8167 102.785H41.0296C38.4746 102.785 36.0104 101.739 34.3033 99.8386C33.5503 99.0006 32.8939 97.9542 32.5167 96.6626C34.7796 98.6121 37.9315 100.223 41.5386 98.9453C43.5449 98.2364 43.2159 95.741 42.9479 94.5953C43.6186 96.542 45.526 100.947 60.4217 100.947C75.3174 100.947 77.2276 96.535 77.8969 94.5925C77.6275 95.7339 77.2957 98.235 79.3048 98.9454C82.9133 100.223 86.0666 98.6107 88.3296 96.6597Z" fill="#000072"/>
</g>
<g opacity="0.35">
<path d="M32.476 93.5816C32.476 93.5816 33.4371 91.2367 35.2429 90.9383C37.0487 90.6399 38.9565 92.1836 40.1506 93.8583C40.1506 93.8583 38.6069 89.5743 36.5681 89.3207C34.5293 89.0671 32.0245 91.237 32.476 93.5816Z" fill="white"/>
</g>
<g opacity="0.35">
<path d="M88.4196 93.5816C88.4196 93.5816 87.4584 91.2367 85.6526 90.9383C83.8468 90.6399 81.9391 92.1836 80.7449 93.8583C80.7449 93.8583 82.2886 89.5743 84.3274 89.3207C86.3662 89.0671 88.871 91.237 88.4196 93.5816Z" fill="white"/>
</g>
<path d="M79.7645 94.643C80.0697 93.7961 80.3884 92.9603 80.7426 92.1264C80.8309 91.9179 80.9231 91.71 81.0193 91.5019C81.0662 91.3978 81.1187 91.2937 81.1682 91.1895C81.2232 91.0789 81.2866 90.9652 81.353 90.858C81.6216 90.4267 81.9648 90.0491 82.3558 89.7308L82.3612 89.7265C82.6046 89.5284 82.9624 89.565 83.1605 89.8084C83.3586 90.0517 83.3219 90.4096 83.0786 90.6077C83.0627 90.6206 83.0458 90.6328 83.029 90.6438C82.7033 90.8549 82.4085 91.1171 82.1708 91.4202C82.1113 91.4969 82.0572 91.5728 82.0035 91.6567C81.9473 91.7487 81.8892 91.8382 81.8342 91.9324C81.7227 92.1186 81.6132 92.3083 81.5065 92.5006C81.0789 93.2691 80.6747 94.064 80.2883 94.8603L80.2869 94.8632C80.2185 95.0042 80.0487 95.063 79.9076 94.9946C79.7761 94.9307 79.7166 94.7776 79.7645 94.643Z" fill="#000070"/>
<path d="M38.4867 89.7289C38.8783 90.0465 39.2227 90.4239 39.4919 90.8557C39.5585 90.9632 39.6219 91.0769 39.6769 91.1878C39.7265 91.292 39.7789 91.3959 39.8258 91.5001C39.9222 91.7083 40.0145 91.9164 40.1028 92.125C40.4573 92.9594 40.7762 93.7956 41.0816 94.643C41.1348 94.7904 41.0583 94.9531 40.9108 95.0063C40.7733 95.0559 40.6225 94.9927 40.5597 94.8644L40.5578 94.8603C40.1711 94.0635 39.7667 93.2682 39.3388 92.4992C39.2321 92.3068 39.1225 92.117 39.0109 91.9306C38.9559 91.8366 38.8977 91.7467 38.8414 91.6546C38.7878 91.5708 38.7337 91.4948 38.6742 91.4183C38.4366 91.1155 38.1412 90.8538 37.8149 90.6429C37.5513 90.4725 37.4758 90.1208 37.6461 89.8573C37.8164 89.5938 38.1681 89.5182 38.4317 89.6885C38.4488 89.6996 38.4652 89.7115 38.4808 89.7241L38.4867 89.7289Z" fill="#000070"/>
<path d="M79.817 103.351H41.0292C38.2743 103.351 35.6692 102.209 33.8818 100.217C32.3866 98.5516 31.6223 96.5495 31.6103 94.2668C31.5931 91.0202 32.8689 89.6898 33.9422 89.1452C35.1373 88.5391 36.668 88.6467 37.979 89.3972C38.9428 87.9035 40.168 87.0773 41.6172 86.9509C44.6157 86.6893 47.5515 89.5761 48.2985 90.3704H72.5476C73.2947 89.5762 76.2299 86.6877 79.229 86.9509C80.6748 87.077 81.8977 87.8996 82.8668 89.3969C84.1779 88.6466 85.7082 88.5384 86.9034 89.1447C87.977 89.689 89.2531 91.0194 89.2359 94.2668C89.224 96.5495 88.4597 98.5516 86.9643 100.217C85.177 102.209 82.5719 103.351 79.817 103.351ZM35.6346 89.8915C35.2117 89.8915 34.8073 89.9783 34.4553 90.1569C33.325 90.7303 32.7334 92.1494 32.7446 94.2607C32.755 96.2576 33.4216 98.0066 34.7259 99.4593C36.2985 101.212 38.596 102.217 41.0292 102.217H79.817C82.2502 102.217 84.5477 101.212 86.1202 99.4595C87.4245 98.0066 88.0911 96.2576 88.1016 94.2607C88.1128 92.1489 87.5211 90.7297 86.3905 90.1564C85.4303 89.6696 84.0799 89.8651 83.03 90.643L82.5371 91.0081L82.0366 90.2084C81.2408 88.894 80.2652 88.1807 79.1325 88.0812C76.3097 87.8314 73.2547 91.2764 73.2242 91.3112L73.0548 91.5045L72.7975 91.5048H47.7911L47.6216 91.3109C47.5913 91.2764 44.5389 87.8317 41.7136 88.0812C40.581 88.1807 39.6054 88.894 38.8139 90.2013L38.3016 91.0029L37.8135 90.6418C37.1492 90.15 36.3645 89.8915 35.6346 89.8915Z" fill="#000070"/>
<path d="M76.2565 97.1787C76.2565 97.1787 70.8303 100.146 60.3622 100.146C49.8956 100.146 44.5913 97.1787 44.5913 97.1787C42.9934 95.6658 42.3171 93.264 42.4036 90.3091C42.4603 88.2773 42.8772 85.9846 43.6031 83.5388C44.4354 80.7187 45.6774 77.6958 47.2456 74.6332C49.0846 71.0403 51.373 67.3964 53.9804 63.9666H66.866C68.3902 65.9715 69.8066 68.0515 71.087 70.1499C71.949 71.5621 72.7501 72.9842 73.4803 74.3978C74.7408 76.8337 75.7957 79.2498 76.6053 81.5595C79.0072 88.4163 79.2453 94.35 76.2565 97.1787Z" fill="white"/>
<g opacity="0.3">
<path d="M67.6103 89.0713C66.4732 90.3133 67.0602 90.9372 66.8305 92.6996C66.4151 95.8643 56.5676 99.3837 51.373 99.0715C45.0031 98.6887 45.362 92.3902 44.8642 92.0023C44.0327 91.3545 43.6658 91.2768 42.4036 90.3091C42.4603 88.2773 42.8772 85.9846 43.6031 83.5388L58.3276 84.2959C58.3276 84.2959 69.696 81.5977 69.9867 83.6324C70.2774 85.6684 68.5632 88.0306 67.6103 89.0713Z" fill="#000072"/>
</g>
<path d="M76.6053 81.5595C72.8763 81.1044 69.9867 77.9255 69.9867 74.0732C69.9867 72.6354 70.3894 71.2927 71.0869 70.1499C73.4335 73.9952 75.3263 77.9085 76.6053 81.5595Z" fill="#5F5E73"/>
<path d="M76.061 96.9734C77.0011 95.8547 77.4919 94.4817 77.7129 93.0535C77.9371 91.6228 77.9102 90.1341 77.7254 88.6629C77.5387 87.1903 77.2371 85.7221 76.8327 84.2778C76.4339 82.8318 75.9522 81.4039 75.4055 79.9994C74.8553 78.596 74.2418 77.2153 73.581 75.8569C72.9135 74.5015 72.2011 73.1672 71.4423 71.859C69.9268 69.2415 68.2447 66.7187 66.4145 64.3099L66.4142 64.3095L66.8656 64.5334H53.981L54.4324 64.3095L54.4321 64.3099C52.6019 66.7187 50.9198 69.2416 49.4043 71.859C47.896 74.4797 46.5501 77.1961 45.4547 80.0048C44.9104 81.4097 44.4198 82.8338 44.0174 84.2788C43.8167 85.0012 43.6384 85.7288 43.4885 86.4603C43.3347 87.1909 43.2066 87.9255 43.1164 88.6624C42.9339 90.134 42.9082 91.6232 43.1356 93.0532C43.3594 94.4809 43.8496 95.851 44.7856 96.9734L44.7879 96.9762C44.8888 97.0972 44.8725 97.277 44.7516 97.3779C44.6473 97.4648 44.4991 97.4645 44.3956 97.3853C43.7558 96.8954 43.2303 96.245 42.8478 95.5288C42.6553 95.1705 42.4909 94.7978 42.3637 94.4145C42.2307 94.0327 42.126 93.6432 42.0497 93.2498C41.9686 92.8569 41.9152 92.4617 41.8765 92.0656C41.8455 91.6699 41.8207 91.2737 41.8197 90.8792C41.8098 90.0895 41.8556 89.3043 41.9415 88.527C42.027 87.7495 42.1491 86.9788 42.3024 86.2162C42.4599 85.4545 42.646 84.7008 42.8546 83.9547C43.2718 82.4625 43.7778 81.0008 44.3508 79.5689C45.5008 76.7068 46.8776 73.9479 48.4225 71.291C49.9626 68.631 51.6701 66.0702 53.5291 63.6234L53.5295 63.623L53.6979 63.399H53.9809H66.8656H67.1486L67.3171 63.623L67.3174 63.6234C69.1764 66.0702 70.8839 68.631 72.424 71.291C73.9608 73.9524 75.3368 76.7111 76.4821 79.5743C77.6184 82.4363 78.5548 85.4129 78.9097 88.5264C78.9946 89.3041 79.0395 90.0894 79.0285 90.8792C79.027 91.2738 79.0017 91.6699 78.9702 92.0656C78.9307 92.4616 78.8765 92.8567 78.7949 93.2495C78.7179 93.6426 78.6124 94.0317 78.4794 94.4134C78.3519 94.7965 78.1873 95.1689 77.9952 95.5271C77.613 96.2431 77.0886 96.8933 76.4509 97.3852C76.3262 97.4813 76.1472 97.4582 76.0511 97.3336C75.9677 97.2255 75.974 97.0766 76.0584 96.9763L76.061 96.9734Z" fill="#000070"/>
<path d="M45.1461 34.3616L44.1961 41.1815C44.1961 41.1815 42.9243 44.4214 37.4188 44.427C32.8504 44.4327 29.5567 39.0462 29.6956 38.1515C29.7425 37.8495 30.0785 37.6057 30.6272 37.3987C32.5257 36.6826 36.9721 36.4062 40.8188 35.6505C42.4479 35.33 43.9707 34.9245 45.1461 34.3616Z" fill="#5F5E73"/>
<g opacity="0.5">
<path d="M32.861 37.744C32.9579 37.5814 34.578 37.325 36.1637 37.184C37.9764 37.0229 39.1827 36.6176 39.3207 36.6434C39.9618 36.7633 38.3927 37.7032 36.468 37.927C34.6325 38.1405 32.7147 37.9896 32.861 37.744Z" fill="white"/>
</g>
<g opacity="0.3">
<path d="M45.1461 34.3616L44.1961 41.1815C44.1961 41.1815 42.9243 44.4214 37.4188 44.427C32.8504 44.4327 29.5567 39.0462 29.6956 38.1515C29.7425 37.8495 30.0785 37.6057 30.6272 37.3987C30.6754 38.0339 30.949 38.7556 31.7218 39.395C33.6558 40.9958 37.1891 41.9231 38.5686 40.3209C39.5895 39.1341 39.8986 37.1817 40.8188 35.6505C42.4479 35.33 43.9707 34.9245 45.1461 34.3616Z" fill="#000072"/>
</g>
<path d="M37.4121 44.9644C34.3818 44.9647 32.0931 42.8236 30.9978 41.5466C29.9998 40.383 29.0499 38.8148 29.1657 38.0689C29.3602 36.8155 31.4734 36.4745 35.8516 35.8805C39.042 35.4478 42.6581 34.9573 44.9139 33.8775C45.1815 33.7495 45.5019 33.8627 45.6299 34.13C45.758 34.3974 45.6449 34.718 45.3775 34.846C42.9696 35.9986 39.2646 36.5011 35.9959 36.9445C34.4496 37.1543 32.9889 37.3524 31.9048 37.5936C30.5199 37.9019 30.2685 38.1771 30.23 38.2339C30.2974 39.0188 33.223 43.8908 37.4121 43.8908C37.4141 43.8908 37.4161 43.8908 37.4181 43.8908C42.4507 43.8851 43.6499 41.0999 43.6985 40.9814C43.8103 40.7083 44.1223 40.5748 44.3959 40.6848C44.6696 40.7947 44.8043 41.1029 44.6964 41.3774C44.6391 41.5236 43.2236 44.9579 37.4194 44.9644C37.4171 44.9644 37.4143 44.9644 37.4121 44.9644Z" fill="#000070"/>
<path d="M74.963 34.3616L75.913 41.1815C75.913 41.1815 77.1848 44.4214 82.6904 44.427C87.2587 44.4327 90.5525 39.0462 90.4135 38.1515C90.3667 37.8495 90.0306 37.6057 89.482 37.3987C87.5834 36.6826 83.137 36.4062 79.2903 35.6505C77.6612 35.33 76.1384 34.9245 74.963 34.3616Z" fill="white"/>
<g opacity="0.5">
<path d="M87.2483 37.744C87.1514 37.5814 85.5314 37.325 83.9456 37.184C82.1329 37.0229 80.9267 36.6176 80.7887 36.6434C80.1476 36.7633 81.7167 37.7032 83.6414 37.927C85.4768 38.1405 87.3947 37.9896 87.2483 37.744Z" fill="white"/>
</g>
<g opacity="0.3">
<path d="M74.963 34.3616L75.913 41.1815C75.913 41.1815 77.1848 44.4214 82.6904 44.427C87.2587 44.4327 90.5525 39.0462 90.4135 38.1515C90.3667 37.8495 90.0306 37.6057 89.482 37.3987C89.4337 38.0339 89.1601 38.7556 88.3874 39.395C86.4534 40.9958 82.9201 41.9231 81.5405 40.3209C80.5196 39.1341 80.2105 37.1817 79.2903 35.6505C77.6612 35.33 76.1384 34.9245 74.963 34.3616Z" fill="#000072"/>
</g>
<path d="M82.697 44.9644C82.6946 44.9644 82.6923 44.9644 82.6899 44.9644C76.8856 44.9579 75.4702 41.5236 75.4127 41.3774C75.3044 41.1014 75.4402 40.7899 75.7162 40.6814C75.9922 40.5731 76.3038 40.7089 76.4122 40.9849C76.4593 41.0999 77.6585 43.8851 82.6911 43.8908C82.6929 43.8908 82.6953 43.8908 82.6971 43.8908C86.8949 43.8908 89.8234 38.9995 89.8796 38.2293C89.8533 38.1917 89.6261 37.9101 88.2044 37.5936C87.1203 37.3523 85.6596 37.1542 84.1133 36.9445C80.8445 36.5011 77.1396 35.9985 74.7317 34.846C74.4643 34.7179 74.3512 34.3974 74.4792 34.1299C74.6073 33.8625 74.9278 33.7497 75.1953 33.8775C77.4511 34.9573 81.0671 35.4478 84.2576 35.8805C88.6358 36.4744 90.749 36.8155 90.9434 38.0689C91.0592 38.8148 90.1094 40.383 89.1113 41.5466C88.0161 42.8235 85.7271 44.9643 82.697 44.9644Z" fill="#000070"/>
<path d="M79.0922 59.4149C79.0362 59.6286 60.435 61.0022 60.435 61.0022H59.6659C59.6659 61.0022 41.0629 59.6287 41.0069 59.4149C39.854 54.9858 38.992 48.1477 40.1764 42.0892C40.716 39.3228 41.6831 36.7175 43.2459 34.58C45.4307 31.5911 51.3788 29.3275 59.5905 29.2451C59.7429 29.2434 59.8953 29.2434 60.0495 29.2434C68.4978 29.2434 74.6298 31.535 76.8549 34.58C81.8359 41.3989 80.7707 52.964 79.0922 59.4149Z" fill="white"/>
<path d="M59.5906 29.2451C59.4295 31.7733 58.8828 35.2405 57.2201 37.8335C54.5694 41.97 45.3537 42.2697 40.1765 42.0892C40.7161 39.3228 41.6833 36.7175 43.246 34.58C45.4309 31.5911 51.3789 29.3275 59.5906 29.2451Z" fill="#5F5E73"/>
<g opacity="0.5">
<path d="M59.5909 29.2446C59.5626 29.6954 59.5215 30.1761 59.4633 30.6766C51.4864 30.8354 45.7157 33.0714 43.5719 36.0049C42.276 37.7758 41.3898 39.8686 40.8184 42.1074C40.5972 42.1018 40.3831 42.0961 40.1761 42.089C40.7164 39.3228 41.6833 36.7181 43.2458 34.58C45.4307 31.5911 51.3787 29.3282 59.5909 29.2446Z" fill="white"/>
</g>
<path d="M60.4336 61.5389C60.2847 61.5389 60.1481 61.4774 60.05 61.377C59.9432 61.4863 59.7911 61.5498 59.6264 61.5373C59.5799 61.5339 54.921 61.1898 50.3151 60.824C47.6089 60.609 45.4499 60.4286 43.898 60.288C42.9738 60.2041 42.2562 60.1335 41.7651 60.0781C40.8631 59.9761 40.591 59.9454 40.488 59.55C39.4723 55.6459 38.9636 51.1146 39.0922 47.1181C39.2658 41.7293 40.5172 37.4046 42.8117 34.2642C45.3161 30.8367 51.9214 28.7075 60.0501 28.7075C68.1787 28.7075 74.784 30.8367 77.2884 34.2642C79.583 37.4046 80.8344 41.7292 81.0079 47.1181C81.1366 51.1145 80.6279 55.6458 79.6122 59.55C79.5093 59.9454 79.2371 59.9761 78.3351 60.0781C77.844 60.1335 77.1264 60.2041 76.2022 60.288C74.6503 60.4286 72.4912 60.609 69.785 60.824C65.1791 61.1898 60.5202 61.5339 60.4736 61.5373C60.4602 61.5383 60.4468 61.5389 60.4336 61.5389ZM41.4456 58.9595C43.2625 59.2101 53.1063 59.9796 59.7055 60.4666C59.8414 60.4766 59.9618 60.5364 60.05 60.6269C60.1383 60.5364 60.2587 60.4766 60.3946 60.4666C66.9939 59.9796 76.8377 59.2101 78.6546 58.9595C80.1438 52.99 81.278 41.5442 76.4215 34.8975C74.1505 31.7894 67.7243 29.781 60.0501 29.781C52.3759 29.781 45.9497 31.7894 43.6786 34.8975C38.8221 41.5444 39.9564 52.9902 41.4456 58.9595Z" fill="#000070"/>
<path d="M82.2383 36.8188C82.2188 36.7286 82.1949 36.6406 82.1666 36.5547L82.1916 36.5504L82.2383 36.8188Z" fill="#4DA2FF"/>
<g opacity="0.3">
<path d="M73.4802 74.3978C68.3178 76.3077 62.5981 76.5941 60.0502 76.5941C57.6115 76.5941 52.2463 76.3318 47.2455 74.6332C49.0845 71.0403 51.3729 67.3964 53.9803 63.9666H66.8659C68.3901 65.9715 69.8065 68.0515 71.0869 70.1499C71.949 71.5621 72.75 72.9842 73.4802 74.3978Z" fill="#000072"/>
</g>
<path d="M83.5854 61.7009C83.5854 73.7924 65.2411 74.843 60.0503 74.843C54.8595 74.843 36.4315 73.7924 36.4315 61.7009C36.4315 54.4315 41.9555 54.6243 48.2324 55.8947C50.9859 56.4519 53.8826 57.2161 56.5241 57.6486C57.7392 57.8485 58.9004 57.9775 59.9666 57.9846H60.0503C68.7234 57.9322 83.5854 49.7766 83.5854 61.7009Z" fill="#F6AFB3"/>
<g opacity="0.5">
<path d="M83.5854 61.7008C83.5854 61.8923 83.5812 62.0823 83.5727 62.268C83.0736 51.2228 68.5745 59.1005 60.0503 59.1515H59.9667C58.804 59.1444 57.5293 58.9927 56.1951 58.7616C55.4692 59.5471 53.7295 59.9016 51.8083 59.567C49.6673 59.1941 48.0268 58.091 47.8552 56.9865C47.834 56.8546 47.834 56.7228 47.8567 56.5923C47.902 56.3328 48.0325 56.1003 48.231 55.8961C48.2508 55.899 48.2707 55.9032 48.2905 55.9075C48.4862 55.9458 48.6819 55.9869 48.8776 56.028C49.1427 56.0847 49.4078 56.1414 49.6744 56.201C50.2486 56.3258 50.8243 56.4562 51.4013 56.588C51.5658 56.6263 51.7317 56.6632 51.8961 56.7C52.4364 56.822 52.978 56.9439 53.514 57.0616C54.5391 57.2856 55.55 57.4898 56.5241 57.65C57.7392 57.8499 58.9004 57.9789 59.9667 57.9846H60.0503C68.7233 57.9322 83.5854 49.7766 83.5854 61.7008Z" fill="white"/>
</g>
<g opacity="0.5">
<path d="M47.8567 56.5923C47.834 56.7227 47.834 56.8546 47.8553 56.9864C41.9116 55.8224 36.7392 55.7472 36.4443 62.268C36.4358 62.0822 36.4315 61.8922 36.4315 61.7008C36.4315 54.4328 41.9541 54.6243 48.231 55.8961C48.0325 56.1003 47.902 56.3328 47.8567 56.5923Z" fill="white"/>
</g>
<g opacity="0.5">
<path d="M48.2325 55.8947C48.2523 55.8989 48.2707 55.9032 48.2906 55.9074C48.2707 55.9032 48.2509 55.8989 48.2311 55.8961L48.2325 55.8947Z" fill="white"/>
</g>
<g opacity="0.5">
<path d="M56.524 57.6486V57.65C55.5499 57.4898 54.539 57.2856 53.5139 57.0616C54.539 57.2842 55.5499 57.4884 56.524 57.6486Z" fill="white"/>
</g>
<g opacity="0.3">
<path d="M83.5854 61.7008C83.5854 73.7924 65.2411 74.843 60.0503 74.843C54.8595 74.843 36.4315 73.7924 36.4315 61.7008C36.4315 61.3393 36.4457 60.9948 36.4726 60.6701C37.434 71.8471 55.0027 72.8424 60.0503 72.8424C65.0979 72.8424 82.5873 71.8471 83.5443 60.6701C83.5713 60.9948 83.5854 61.3393 83.5854 61.7008Z" fill="#000072"/>
</g>
<path d="M60.0501 75.3804C56.0164 75.3804 35.8942 74.7209 35.8942 61.7007C35.8942 59.03 36.5984 57.1694 38.047 56.0128C40.9795 53.6713 46.3843 54.8984 51.611 56.0852C54.5441 56.7511 57.5765 57.4396 60.0081 57.4475C62.4398 57.4396 65.4722 56.7511 68.4053 56.0852C73.6321 54.8985 79.0367 53.6714 81.9693 56.0128C83.4179 57.1694 84.1221 59.03 84.1221 61.7007C84.1221 74.7209 64.0699 75.3804 60.0501 75.3804ZM42.7808 55.7526C41.1307 55.7526 39.7185 56.0522 38.717 56.8519C37.54 57.7916 36.9678 59.3777 36.9678 61.7007C36.9678 73.699 56.1957 74.3068 60.0501 74.3068C63.8906 74.3068 83.0485 73.699 83.0485 61.7007C83.0485 59.3777 82.4763 57.7916 81.2993 56.8519C78.7704 54.8328 73.6219 56.0017 68.643 57.1322C65.6762 57.8058 62.6096 58.502 60.0707 58.5208C60.0501 58.5217 60.0292 58.5211 60.0081 58.5212C59.9871 58.5213 59.9662 58.5217 59.9455 58.5208C57.4067 58.502 54.3401 57.8058 51.3733 57.1322C48.3663 56.4495 45.297 55.7526 42.7808 55.7526Z" fill="#000070"/>
<path d="M73.626 60.7096C74.7105 60.3379 75.4341 59.5827 75.2422 59.0228C75.0503 58.4629 74.0156 58.3103 72.9311 58.682C71.8466 59.0536 71.123 59.8088 71.3148 60.3687C71.5067 60.9287 72.5415 61.0813 73.626 60.7096Z" fill="#FF67A0"/>
<path d="M48.6177 60.3634C48.8095 59.8035 48.0859 59.0483 47.0014 58.6767C45.9169 58.305 44.8822 58.4576 44.6903 59.0175C44.4984 59.5774 45.2221 60.3326 46.3066 60.7043C47.3911 61.076 48.4258 60.9234 48.6177 60.3634Z" fill="#DB5252"/>
<path d="M71.6584 67.636C71.6584 67.636 70.7836 68.681 68.5589 69.5884C66.6831 70.3527 64.881 70.4973 64.881 70.4973C65.3872 69.3772 65.4297 68.2698 65.3148 67.1965C65.1319 65.4852 64.5506 63.8617 64.8186 62.4098C65.2071 60.3 68.9616 58.3859 71.0927 62.1475C71.6343 63.1031 71.8314 64.1764 71.8739 65.1179C71.9391 66.523 71.6584 67.636 71.6584 67.636Z" fill="#FF67A0"/>
<g opacity="0.3">
<path d="M71.6584 67.636C71.6584 67.636 70.7836 68.681 68.5589 69.5885C66.6831 70.3527 64.881 70.4973 64.881 70.4973C65.3872 69.3772 65.4297 68.2698 65.3149 67.1965C66.4265 68.0628 68.1875 68.7519 68.515 64.8173C68.515 64.8173 70.7438 68.5137 71.8739 65.1179C71.9391 66.523 71.6584 67.636 71.6584 67.636Z" fill="#000072"/>
</g>
<g opacity="0.5">
<path d="M71.8058 64.3636C71.6896 63.9978 71.5364 63.6362 71.3408 63.2903C69.1544 59.4294 65.3007 61.3946 64.9022 63.5583C64.8583 63.7979 64.837 64.0432 64.8328 64.2927C64.7421 63.6391 64.708 63.0095 64.8186 62.4098C65.2071 60.3 68.9616 58.3859 71.0927 62.1475C71.4939 62.855 71.7066 63.6278 71.8058 64.3636Z" fill="white"/>
</g>
<path d="M64.162 71.0036L64.4739 70.3129C65.1929 68.7211 64.8926 67.1263 64.6023 65.5839C64.3882 64.4469 64.1859 63.3728 64.3784 62.3281C64.6187 61.0237 65.9076 59.8539 67.3764 59.607C68.9961 59.3346 70.4926 60.1803 71.4818 61.9271C72.9021 64.4349 72.1261 67.6112 72.0924 67.7452L72.0675 67.8445L72.0016 67.9231C71.9631 67.9692 71.0291 69.0642 68.7282 70.0021C66.8095 70.7843 64.9936 70.9369 64.9173 70.9431L64.162 71.0036ZM67.9691 60.4516C67.8229 60.4516 67.6747 60.4641 67.5247 60.4893C66.4266 60.6739 65.4311 61.5528 65.2584 62.4901C65.0961 63.3711 65.2834 64.3655 65.4816 65.4185C65.7433 66.8087 66.0354 68.3603 65.56 69.9557C66.2356 69.8443 67.305 69.616 68.3905 69.1735C70.1358 68.462 71.0105 67.6612 71.2486 67.4199C71.3633 66.8707 71.8101 64.3225 70.7033 62.3679C69.9956 61.1183 69.037 60.4516 67.9691 60.4516Z" fill="#000070"/>
<path d="M68.4451 64.7277C68.4451 64.7277 69.0212 68.0939 68.2033 69.6884C68.1871 69.72 68.1491 69.7336 68.1199 69.7526L69.6157 69.1035C69.6157 69.1035 70.1273 66.82 68.4451 64.7277Z" fill="#000070"/>
<path d="M61.2304 70.3866C62.3371 70.3218 63.4497 70.2346 64.5406 70.0885C65.6331 69.9442 66.7104 69.7098 67.739 69.361C68.2505 69.18 68.7556 68.9847 69.2375 68.7454C69.7162 68.5015 70.177 68.2284 70.6119 67.9196C71.0426 67.6045 71.4288 67.2395 71.7975 66.856C72.1653 66.4695 72.497 66.0538 72.8649 65.6284L72.8725 65.6197C72.9547 65.5246 73.0985 65.5142 73.1936 65.5964C73.2629 65.6564 73.2871 65.7494 73.2632 65.8321C73.0979 66.4012 72.8152 66.9374 72.4524 67.4127C72.0808 67.8811 71.6439 68.2942 71.1795 68.6674C70.2394 69.4021 69.1627 69.934 68.0506 70.2951C66.9379 70.6633 65.7873 70.8635 64.6387 70.9743C64.0633 71.0241 63.4864 71.0436 62.9107 71.0219C62.3337 71.0008 61.7645 70.952 61.1888 70.832C61.0671 70.8067 60.9891 70.6875 61.0144 70.5658C61.0356 70.4641 61.1224 70.3928 61.2214 70.3871L61.2304 70.3866Z" fill="#000070"/>
<path d="M63.4736 93.6412C60.1402 95.7722 56.0568 97.3971 52.1846 98.1429C49.6196 98.4718 47.317 96.4868 46.9328 94.0708C45.5943 87.6904 44.6911 83.6509 41.2727 78.1C39.8888 76.0838 40.042 73.119 42.1305 71.5934C45.4526 69.4695 48.6187 68.2047 52.5036 67.4575C54.9125 67.0492 56.7983 68.9165 57.4548 71.015C57.5143 71.205 57.564 71.3964 57.6023 71.5892C58.9407 77.9695 61.0647 81.5227 64.4832 87.0737C64.6108 87.2764 64.7242 87.4891 64.8234 87.7117C65.7068 89.6825 65.4629 92.307 63.4736 93.6412Z" fill="#2DCFFF"/>
<g opacity="0.3">
<path d="M63.4736 93.6412C60.1402 95.7722 56.0568 97.3971 52.1846 98.1429C49.6196 98.4718 47.317 96.4868 46.9328 94.0708C45.5943 87.6904 44.6911 83.6509 41.2727 78.1C39.8888 76.0838 40.042 73.119 42.1305 71.5934C45.4526 69.4695 48.6187 68.2047 52.5036 67.4575C54.9125 67.0492 56.7983 68.9165 57.4548 71.015C56.6622 72.0883 55.1761 73.8595 52.41 75.1452C47.7877 77.2937 47.3369 80.9769 48.5492 84.6761C49.1986 86.6568 49.7898 88.924 50.14 91.3301C50.8178 96.0076 62.7703 93.0854 64.8234 87.7117C65.7068 89.6825 65.4629 92.307 63.4736 93.6412Z" fill="#000072"/>
</g>
<path d="M63.1871 90.0143C63.1856 90.7275 62.939 91.4293 62.3052 91.8646C59.2355 93.8213 55.4328 95.3412 51.857 96.0388C51.7804 96.0473 51.7024 96.0516 51.6245 96.0516C50.398 96.0516 49.2368 95.0137 49.034 93.7376L49.0255 93.6851L49.0142 93.6341C47.9791 88.6971 47.1724 84.8532 45.0031 80.4437C45.6311 81.0647 48.3052 81.5312 51.511 81.5312C53.4067 81.5312 55.1166 81.3682 56.3275 81.1058C57.4618 80.8606 58.1579 80.5288 58.1579 80.1644C59.3333 82.7123 60.8037 85.1552 62.6724 88.1895L62.681 88.2037C62.9829 88.6843 63.1885 89.355 63.1871 90.0143Z" fill="white"/>
<g opacity="0.2">
<path d="M63.1871 90.0143C63.1856 90.7275 62.939 91.4293 62.3052 91.8646C59.2355 93.8213 55.4328 95.3412 51.857 96.0388C51.7804 96.0473 51.7024 96.0515 51.6245 96.0515C50.398 96.0515 49.2368 95.0137 49.034 93.7376L49.0255 93.6851L49.0142 93.6341C47.9791 88.6971 47.1724 84.8532 45.0031 80.4437C45.6311 81.0647 48.3052 81.5312 51.511 81.5312C53.4067 81.5312 55.1166 81.3681 56.3275 81.1058C55.8851 81.4291 55.2116 81.7921 54.195 82.0998C51.226 82.9973 49.8308 86.41 51.3068 89.1366C52.0895 90.5814 53.1812 91.7809 54.6941 92.0688C58.4954 92.7947 61.4842 91.5172 63.1871 90.0143Z" fill="#000072"/>
</g>
<path d="M51.6245 96.4093C50.2303 96.4093 48.9097 95.2361 48.6805 93.7938L48.6648 93.7117C47.6409 88.828 46.8328 84.9738 44.6819 80.6017C44.6048 80.445 44.6521 80.2555 44.7939 80.1534C44.9358 80.0512 45.1305 80.0666 45.2547 80.1892C45.7439 80.6729 48.2178 81.1734 51.511 81.1734C55.3883 81.1734 57.6217 80.5212 57.8003 80.1509C57.8064 79.9886 57.9215 79.8498 58.0812 79.8147C58.2456 79.7787 58.4126 79.8619 58.483 80.0143C59.6584 82.5624 61.1497 85.0346 62.9772 88.0019L62.9876 88.0191C63.6865 89.133 63.9117 91.1966 62.5077 92.1597C62.5044 92.162 62.501 92.1643 62.4975 92.1665C59.3924 94.1457 55.5391 95.6851 51.9254 96.3901C51.9159 96.3919 51.9063 96.3934 51.8967 96.3945C51.8083 96.4044 51.7167 96.4093 51.6245 96.4093ZM45.7735 81.2326C47.6326 85.3005 48.4049 88.9841 49.3644 93.5606L49.3749 93.6075C49.3764 93.6144 49.3777 93.6212 49.3788 93.6281L49.3873 93.6806C49.5638 94.791 50.5673 95.6937 51.6244 95.6937C51.6853 95.6937 51.7454 95.6906 51.8033 95.6847C55.3259 94.9953 59.0804 93.4946 62.1075 91.5662C63.1364 90.8551 62.9263 89.2681 62.3778 88.394L62.3658 88.3742C60.6528 85.5928 59.2315 83.2402 58.0811 80.8415C56.5887 81.8752 51.7527 81.8891 51.511 81.8891C49.439 81.889 47.1439 81.6823 45.7735 81.2326Z" fill="#000070"/>
<path d="M51.6461 98.624C49.1859 98.624 46.9024 96.6959 46.4933 94.1519C45.0887 87.4567 44.2001 83.7087 40.8978 78.3437C39.2875 75.9874 39.7207 72.7991 41.866 71.2317L41.889 71.216C45.2519 69.0665 48.4994 67.7716 52.4185 67.0178C55.28 66.5334 57.5206 68.9176 58.0404 71.5013C59.3351 77.6727 61.2705 81.005 64.8636 86.8393C66.223 89.0065 66.1746 92.3674 63.7224 94.0131L63.7141 94.0184C60.3551 96.1655 56.1836 97.8287 52.2693 98.5816L52.2418 98.586C52.0427 98.6116 51.8438 98.624 51.6461 98.624ZM42.3829 71.9621C40.4207 73.4059 40.4693 76.1385 41.6418 77.8467L41.6539 77.8653C45.0338 83.3536 45.9835 87.3637 47.3712 93.9789L47.3751 94.0007C47.7375 96.285 49.9057 97.9758 52.1143 97.7002C55.916 96.967 59.9654 95.3519 63.2279 93.2674C65.231 91.9194 65.2426 89.1272 64.1037 87.3116C60.5572 81.5531 58.4874 77.9895 57.164 71.6814C56.7276 69.512 54.893 67.5062 52.5777 67.8982C48.7894 68.627 45.6416 69.881 42.3829 71.9621Z" fill="#000070"/>
<path d="M42.0409 75.3948C40.5939 75.3948 39.5255 75.0327 39.1845 74.1777C38.925 73.5268 39.0316 72.4144 41.0131 70.8106C42.3929 69.6939 44.3692 68.5939 46.578 67.7132C48.7869 66.8326 50.9779 66.2711 52.7474 66.1321C55.2888 65.9342 56.1316 66.6666 56.391 67.3175V67.3174C56.6505 67.9683 56.5439 69.0807 54.5624 70.6844C53.1826 71.801 51.2063 72.901 48.9975 73.7817C46.5575 74.7545 43.9647 75.3948 42.0409 75.3948ZM53.5491 67.2334C53.3314 67.2334 53.0939 67.2427 52.8362 67.2629C51.1772 67.3932 49.1039 67.9273 46.9981 68.7669C44.8924 69.6065 43.0203 70.6454 41.7268 71.6923C40.5193 72.6695 40.109 73.4337 40.2381 73.7575C40.5138 74.449 43.6208 74.7044 48.5774 72.728C50.6832 71.8884 52.5552 70.8496 53.8488 69.8027C55.0562 68.8254 55.4664 68.0614 55.3373 67.7376V67.7374C55.2297 67.4675 54.6395 67.2334 53.5491 67.2334Z" fill="#6B184E"/>
<path d="M48.9759 73.7259C44.0786 75.6783 39.6165 76.0313 39.0111 74.5099C38.9799 74.4333 38.9601 74.3525 38.9501 74.2703C38.9501 74.2703 38.9487 74.2674 38.9487 74.2618C38.9062 74.0931 38.2341 71.375 38.1136 70.357C37.9662 69.1121 39.886 67.1767 43.1244 65.5221C43.7979 65.1775 44.5295 64.8458 45.3107 64.5338C49.8465 62.7246 53.6336 62.5942 54.5396 63.8079C55.1535 64.6303 56.5345 67.0647 56.6196 67.2164C56.6224 67.2207 56.6239 67.2235 56.6239 67.2235C56.6734 67.2902 56.7146 67.3625 56.7458 67.439C56.7543 67.4617 56.7628 67.4829 56.7685 67.5057C57.2505 69.0412 53.8023 71.8018 48.9759 73.7259Z" fill="#FFC366"/>
<g opacity="0.3">
<path d="M48.9759 73.7259C44.0786 75.6783 39.6165 76.0313 39.0111 74.5099C38.9799 74.4333 38.9601 74.3525 38.9501 74.2703C38.9501 74.2703 38.9487 74.2674 38.9487 74.2618C38.9062 74.0931 38.2341 71.375 38.1136 70.357C37.9662 69.1121 39.886 67.1767 43.1244 65.5221C42.9315 67.4986 42.7614 69.234 42.7614 69.234C42.7614 69.234 40.3241 72.9857 43.5965 73.3359C47.4191 73.7471 55.0415 70.598 56.7685 67.5057C57.2505 69.0412 53.8023 71.8018 48.9759 73.7259Z" fill="#000072"/>
</g>
<path d="M41.5472 75.8949C40.0451 75.8949 38.9373 75.5333 38.5952 74.6755C38.5587 74.5837 38.532 74.4872 38.5155 74.387L38.5083 74.3691L38.5057 74.3327C38.4199 73.986 37.7891 71.4162 37.6693 70.4102C37.4515 68.5779 40.5955 65.9317 45.1451 64.1178C49.6939 62.304 53.7955 62.0617 54.898 63.541C55.5076 64.3566 56.806 66.6382 56.9883 66.96L57.0169 67.0043C57.0754 67.0899 57.1237 67.18 57.1609 67.2731L57.1609 67.2733C57.9812 69.3308 53.6414 72.3478 49.1418 74.1417C46.5179 75.1878 43.6473 75.8949 41.5472 75.8949ZM39.3944 74.2135L39.3947 74.2166C39.4003 74.2625 39.411 74.3054 39.4264 74.3443C39.8153 75.3197 43.5734 75.3983 48.8103 73.3107C54.046 71.2231 56.7184 68.5806 56.3299 67.6048C56.3145 67.5662 56.2927 67.5276 56.2649 67.4904L56.2214 67.4213C55.9118 66.8713 54.7142 64.7896 54.1809 64.0761C53.4629 63.1128 49.9311 63.1726 45.4765 64.9487C41.021 66.7253 38.4161 69.112 38.5579 70.3044C38.663 71.187 39.2333 73.5562 39.3787 74.1358L39.3944 74.2135Z" fill="#000070"/>
<path d="M46.7854 67.8956C42.9642 69.4184 39.6351 70.0777 39.3515 69.3645C39.3019 69.2397 39.1984 68.9392 39.0977 68.5138C38.6794 66.7485 38.3037 62.8409 41.9703 60.5085C41.949 60.4618 41.9292 60.4121 41.9108 60.3653C41.2273 58.6497 39.1842 57.3325 42.1093 56.167C43.0947 55.7743 43.6831 55.7814 44.0546 56.0295C44.789 56.5173 44.6884 57.9394 45.1421 59.0765C45.1605 59.1247 45.1804 59.1729 45.1974 59.2211C50.4874 58.1918 52.9333 63.1997 53.1913 63.8476C53.4763 64.5594 50.6065 66.3714 46.7854 67.8956Z" fill="#FFEBCA"/>
<g opacity="0.2">
<path d="M46.7852 67.8956C42.9641 69.4184 39.6349 70.0777 39.3513 69.3645C39.3017 69.2397 39.1982 68.9392 39.0975 68.5138C41.213 68.2713 47.402 67.2803 49.3884 63.8448C51.3578 60.4419 45.0185 60.242 43.8843 60.242C42.7953 60.242 45.0058 59.3019 44.0544 56.0295C44.7888 56.5172 44.6882 57.9393 45.1419 59.0765C45.1603 59.1247 45.1802 59.1729 45.1972 59.2211C50.4873 58.1917 52.9331 63.1997 53.1911 63.8476C53.4761 64.5594 50.6063 66.3714 46.7852 67.8956Z" fill="#000072"/>
</g>
<path d="M40.2879 70.0931C39.6024 70.0931 39.0977 69.9361 38.936 69.5306C38.9123 69.4711 36.6682 63.6653 41.4132 60.3418C41.262 60.0184 41.0623 59.7024 40.8681 59.3951C40.418 58.683 39.9526 57.9466 40.1992 57.1868C40.3875 56.6067 40.9418 56.1504 41.9436 55.751C42.9455 55.3516 43.6617 55.3013 44.1975 55.5927C44.8992 55.9743 45.0681 56.829 45.2314 57.6554C45.302 58.0125 45.3746 58.3797 45.4871 58.7175C51.2165 57.8646 53.5832 63.6218 53.607 63.6813C53.8495 64.2897 53.282 64.9878 51.767 65.9451C50.5347 66.7236 48.8244 67.5637 46.9512 68.3105C46.0323 68.6769 42.3458 70.0931 40.2879 70.0931ZM39.7492 69.151C40.1782 69.3559 42.6087 69.0785 46.6197 67.4795C50.6308 65.8803 52.5856 64.4092 52.7557 63.9653C52.5243 63.4349 50.2972 58.6848 45.2831 59.6602L44.9072 59.7333L44.7769 59.3731C44.7613 59.3297 44.7436 59.2856 44.7266 59.2428C44.5412 58.7778 44.4416 58.2737 44.3537 57.8289C44.2246 57.1763 44.1028 56.5597 43.7699 56.3787C43.4976 56.2305 42.9806 56.3008 42.275 56.5822C41.5695 56.8635 41.146 57.168 41.0502 57.4631C40.9332 57.8235 41.269 58.3547 41.6244 58.9171C41.8667 59.3003 42.1412 59.7347 42.3265 60.1996C42.3441 60.2437 42.3613 60.2871 42.3795 60.3286L42.5333 60.6797L42.2099 60.8854C37.8998 63.6276 39.552 68.6069 39.7492 69.151Z" fill="#000070"/>
<path d="M58.158 80.1644C58.158 80.8336 55.8171 81.3909 52.7276 81.5071C52.3335 81.5227 51.9265 81.5312 51.5111 81.5312C48.3053 81.5312 45.6312 81.0647 45.0031 80.4437C44.9577 80.3501 44.9124 80.258 44.8641 80.1644V80.163C44.867 79.6341 46.3288 79.1747 48.4641 78.9479C49.3772 78.8515 50.4137 78.7961 51.5111 78.7961C54.7552 78.7961 57.4576 79.274 58.0404 79.9078C58.0801 79.9942 58.1184 80.0793 58.158 80.1644Z" fill="white"/>
<path d="M52.7277 81.5071C52.3336 81.5227 51.9266 81.5312 51.5112 81.5312C48.3054 81.5312 45.6313 81.0647 45.0032 80.4437C44.9578 80.3501 44.9125 80.258 44.8643 80.1644V80.163C44.8671 79.6341 46.3289 79.1748 48.4642 78.9479C47.8814 79.61 47.6447 80.8294 52.7277 81.5071Z" fill="#FFEBCA"/>
<path d="M51.5111 81.889C48.746 81.889 45.5834 81.5208 44.7515 80.6982C44.7227 80.6697 44.6989 80.6364 44.6812 80.6C44.637 80.509 44.5929 80.4193 44.5459 80.328C44.5198 80.2774 44.5062 80.2212 44.5062 80.1643C44.5159 78.4578 51.2254 78.4383 51.5111 78.4383C54.3304 78.4383 57.5242 78.8176 58.3038 79.6654C58.3291 79.693 58.3499 79.7243 58.3656 79.7583L58.4088 79.8531C58.4333 79.9066 58.4576 79.9599 58.4824 80.013C58.5045 80.0605 58.5159 80.112 58.5159 80.1644C58.516 81.8695 51.7971 81.889 51.5111 81.889ZM45.2948 80.2252C45.8671 80.6975 48.2995 81.1734 51.5111 81.1734C55.2582 81.1734 57.4699 80.5643 57.7754 80.1892C57.7695 80.1761 57.7635 80.1631 57.7576 80.15L57.7417 80.1154C57.2099 79.6368 54.781 79.1539 51.5111 79.1539C47.7756 79.1539 45.5677 79.759 45.2503 80.1349C45.2652 80.165 45.28 80.195 45.2948 80.2252Z" fill="#000070"/>
<path d="M42.0161 61.731C42.0161 61.731 39.4017 63.4505 40.0477 67.7027C40.3063 67.7027 40.615 65.6089 41.7904 64.1163C42.6582 63.0143 43.3422 62.8027 43.534 62.3315C43.8193 61.6307 43.0837 60.8803 42.0161 61.731Z" fill="white"/>
<path d="M43.7343 70.4801C43.7343 70.4801 51.8578 68.5451 53.9763 64.9254C53.9763 64.9254 53.3924 69.0288 43.7343 70.4801Z" fill="white"/>
<g opacity="0.5">
<path d="M55.7003 74.6166C53.2744 75.7887 56.5951 86.1641 61.0322 87.0482C63.028 87.4458 60.5318 84.1777 58.9638 80.4437C57.606 77.2103 57.2986 73.8444 55.7003 74.6166Z" fill="white"/>
</g>
<path d="M46.3219 80.8752C46.2039 80.8752 46.0937 80.8011 46.0535 80.6831C46.0029 80.535 46.0821 80.3737 46.2303 80.3232L49.5123 79.2036C49.6608 79.1531 49.8218 79.2322 49.8723 79.3805C49.9229 79.5286 49.8437 79.6899 49.6954 79.7405L46.4134 80.86C46.3831 80.8704 46.3523 80.8752 46.3219 80.8752Z" fill="#000070"/>
<path d="M47.0619 83.0447C46.9438 83.0447 46.8337 82.9706 46.7935 82.8526C46.7429 82.7045 46.8221 82.5432 46.9703 82.4927L48.9914 81.8033C49.1399 81.7526 49.3008 81.8319 49.3514 81.9801C49.402 82.1283 49.3228 82.2895 49.1745 82.3401L47.1534 83.0295C47.1231 83.0399 47.0922 83.0447 47.0619 83.0447Z" fill="#000070"/>
<path d="M47.802 85.2142C47.684 85.2142 47.5738 85.1401 47.5336 85.0221C47.483 84.874 47.5622 84.7127 47.7104 84.6622L50.9924 83.5426C51.141 83.4923 51.3019 83.5713 51.3524 83.7195C51.403 83.8676 51.3238 84.0289 51.1756 84.0795L47.8936 85.199C47.8632 85.2093 47.8324 85.2142 47.802 85.2142Z" fill="#6B184E"/>
<path d="M48.5419 87.3837C48.4238 87.3837 48.3137 87.3096 48.2735 87.1916C48.2229 87.0435 48.3021 86.8824 48.4503 86.8317L50.4715 86.1422C50.6196 86.0918 50.7809 86.1707 50.8314 86.319C50.882 86.4671 50.8028 86.6283 50.6546 86.679L48.6334 87.3685C48.6031 87.3788 48.5722 87.3837 48.5419 87.3837Z" fill="#6B184E"/>
<path d="M49.282 89.5531C49.1639 89.5531 49.0538 89.4789 49.0136 89.361C48.963 89.2128 49.0422 89.0515 49.1904 89.001L52.4724 87.8815C52.6208 87.8311 52.7819 87.9102 52.8324 88.0583C52.883 88.2065 52.8038 88.3678 52.6555 88.4183L49.3735 89.5378C49.3432 89.5482 49.3123 89.5531 49.282 89.5531Z" fill="#000070"/>
<path d="M50.0222 91.7225C49.9042 91.7225 49.794 91.6484 49.7538 91.5304C49.7032 91.3823 49.7824 91.221 49.9306 91.1705L51.9517 90.4811C52.1001 90.4306 52.2613 90.5096 52.3117 90.6579C52.3623 90.8061 52.2831 90.9674 52.1349 91.0179L50.1138 91.7073C50.0834 91.7177 50.0526 91.7225 50.0222 91.7225Z" fill="#6B184E"/>
<path d="M47.802 85.2142C47.684 85.2142 47.5738 85.1401 47.5336 85.0221C47.483 84.874 47.5622 84.7127 47.7104 84.6622L50.9924 83.5426C51.141 83.4923 51.3019 83.5713 51.3524 83.7195C51.403 83.8676 51.3238 84.0289 51.1756 84.0795L47.8936 85.199C47.8632 85.2093 47.8324 85.2142 47.802 85.2142Z" fill="#000070"/>
<path d="M50.0222 91.7225C49.9042 91.7225 49.794 91.6484 49.7538 91.5304C49.7032 91.3823 49.7824 91.221 49.9306 91.1705L51.9517 90.4811C52.1001 90.4306 52.2613 90.5096 52.3117 90.6579C52.3623 90.8061 52.2831 90.9674 52.1349 91.0179L50.1138 91.7073C50.0834 91.7177 50.0526 91.7225 50.0222 91.7225Z" fill="#000070"/>
<path d="M50.762 93.892C50.6439 93.892 50.5338 93.8179 50.4935 93.6999C50.443 93.5518 50.5222 93.3905 50.6704 93.34L53.9524 92.2204C54.101 92.1698 54.2618 92.249 54.3124 92.3973C54.363 92.5454 54.2837 92.7067 54.1355 92.7573L50.8535 93.8768C50.8231 93.8872 50.7923 93.892 50.762 93.892Z" fill="#6B184E"/>
<path d="M48.5419 87.3837C48.4238 87.3837 48.3137 87.3096 48.2735 87.1916C48.2229 87.0435 48.3021 86.8824 48.4503 86.8317L50.4715 86.1422C50.6196 86.0918 50.7809 86.1707 50.8314 86.319C50.882 86.4671 50.8028 86.6283 50.6546 86.679L48.6334 87.3685C48.6031 87.3788 48.5722 87.3837 48.5419 87.3837Z" fill="#000070"/>
<path d="M50.762 93.892C50.6439 93.892 50.5338 93.8179 50.4935 93.6999C50.443 93.5518 50.5222 93.3905 50.6704 93.34L53.9524 92.2204C54.101 92.1698 54.2618 92.249 54.3124 92.3973C54.363 92.5454 54.2837 92.7067 54.1355 92.7573L50.8535 93.8768C50.8231 93.8872 50.7923 93.892 50.762 93.892Z" fill="#000070"/>
<path d="M49.9197 88.4886C48.991 90.6721 45.2209 91.113 43.1948 89.4896C42.3341 88.8005 41.3558 87.0409 40.8425 85.1013C40.2768 82.9688 40.2739 80.6209 41.6096 79.2384C41.6096 79.2384 46.4289 78.1878 47.8907 79.6935C48.3841 80.2011 48.5841 80.7527 48.6252 81.2986C48.7443 82.8738 47.5604 84.4207 48.3345 84.8517C49.3781 85.4317 50.9122 86.1505 49.9197 88.4886Z" fill="#5F5E73"/>
<g opacity="0.5">
<path d="M48.6337 81.5467C48.5331 81.378 48.4055 81.2121 48.2495 81.0519C47.4956 80.2753 45.8486 80.1787 44.4303 80.2672C42.362 80.3963 40.7676 82.1465 40.8482 84.2172C40.8682 84.7307 40.936 85.2554 41.041 85.7748C40.9687 85.5536 40.9021 85.3281 40.8425 85.1013C40.2768 82.9688 40.2739 80.6208 41.6096 79.2384C41.6096 79.2384 46.4289 78.1878 47.8907 79.6935C48.3841 80.2011 48.5841 80.7527 48.6252 81.2985C48.6309 81.3808 48.6337 81.4645 48.6337 81.5467Z" fill="white"/>
</g>
<g opacity="0.3">
<path d="M49.9197 88.4886C48.991 90.6721 45.2209 91.1131 43.1948 89.4896C42.3341 88.8005 41.3558 87.041 40.8425 85.1013C41.7244 86.0626 42.9169 86.8835 44.3659 86.756C46.8685 86.5348 47.0499 84.2846 47.4597 83.3205C47.6752 82.8115 48.2466 82.1068 48.6252 81.2986C48.7443 82.8738 47.5604 84.4207 48.3345 84.8517C49.3781 85.4317 50.9122 86.1505 49.9197 88.4886Z" fill="#000072"/>
</g>
<path d="M46.224 91.0347C44.9674 91.0347 43.7322 90.6465 42.8405 89.9318C41.5826 88.9238 40.1149 85.9407 39.9349 83.1067C39.8198 81.2952 40.2581 79.8212 41.2024 78.8442L41.3217 78.7207L41.4894 78.6843C42.0141 78.57 46.6631 77.6146 48.2973 79.2983C49.6549 80.697 49.1644 82.357 48.8397 83.4553C48.7502 83.7582 48.6177 84.2067 48.637 84.3712L48.7407 84.4284C49.7376 84.9771 51.5933 85.9984 50.4411 88.7106C49.9966 89.7571 49.0119 90.5197 47.6682 90.8582C47.1961 90.977 46.7083 91.0347 46.224 91.0347ZM41.9058 79.7555C41.1035 80.6911 41.004 82.044 41.0669 83.0348C41.2209 85.4602 42.5049 88.2092 43.5499 89.0468C44.5181 89.8229 46.0257 90.1024 47.3911 89.7582C48.3824 89.5085 49.0948 88.979 49.3971 88.2672C50.1486 86.4981 49.2427 85.9995 48.1938 85.4222L48.0593 85.3479C47.2333 84.8889 47.5089 83.9566 47.7519 83.1338C48.046 82.139 48.3792 81.0113 47.4834 80.0883C46.608 79.1862 43.6749 79.3967 41.9058 79.7555Z" fill="#000070"/>
<path d="M69.9882 83.3105C69.9243 83.519 69.8563 83.7217 69.7812 83.9202C68.5774 87.1402 65.9628 89.0969 63.1257 89.8299C61.1024 90.3517 58.9685 90.2538 57.1508 89.5477C53.6444 88.1838 55.9726 85.8216 55.8251 84.8829C55.6961 84.0734 53.5352 82.9688 53.548 81.3879C53.5494 81.1384 53.6076 80.8761 53.7352 80.601C54.6086 78.7294 57.6045 79.5532 60.9989 78.4317C62.1516 78.0503 63.3511 77.4448 64.5294 76.4311C64.9888 76.0355 65.1518 77.8829 65.6013 77.3527L69.9882 83.3105Z" fill="white"/>
<path d="M63.751 85.9917C63.751 87.3444 63.5298 88.6389 63.1256 89.8299C61.1024 90.3517 58.9685 90.2538 57.1508 89.5477C53.6444 88.1838 55.9725 85.8216 55.8251 84.883C55.7159 84.191 54.1166 83.2808 53.6656 82.043C53.5069 81.6049 53.4912 81.1256 53.7351 80.601C54.6086 78.7294 57.6045 79.5532 60.9988 78.4317C61.3023 78.7762 61.5844 79.1449 61.8439 79.5348C63.0406 81.327 63.751 83.5643 63.751 85.9917Z" fill="#5F5E73"/>
<g opacity="0.5">
<path d="M61.8439 79.5348C60.7522 79.9261 59.0309 80.3812 56.8133 80.4436C54.9276 80.4975 54.0726 81.2929 53.6656 82.043C53.5069 81.6048 53.4912 81.1256 53.7351 80.601C54.6086 78.7294 57.6045 79.5532 60.9988 78.4316C61.3023 78.7762 61.5845 79.1449 61.8439 79.5348Z" fill="white"/>
</g>
<g opacity="0.3">
<path d="M69.7812 83.9202C68.5774 87.1402 65.9628 89.0969 63.1257 89.8299C61.1024 90.3517 58.9685 90.2538 57.1508 89.5477C53.6444 88.1838 55.9726 85.8216 55.8251 84.883C55.6961 84.0734 53.5352 82.9688 53.548 81.3879C54.3094 82.1692 55.4863 83.1574 57.0516 83.8323C59.3882 84.8419 57.3635 87.1076 61.9559 87.2111C65.6523 87.2947 68.6015 85.1183 69.7812 83.9202Z" fill="#000072"/>
</g>
<path d="M64.6535 76.6969C64.1304 77.3559 63.4566 77.8902 62.7183 78.3067C61.9776 78.7232 61.1708 79.0091 60.3603 79.2341C59.5456 79.4465 58.7198 79.5838 57.9092 79.6735C57.1035 79.7697 56.2975 79.8273 55.5922 79.9911C55.2421 80.0726 54.9266 80.1877 54.6906 80.349C54.4626 80.5138 54.3041 80.7301 54.2023 81.0119C54.1079 81.2822 54.1087 81.5415 54.2013 81.8201C54.2938 82.0984 54.4856 82.3851 54.7166 82.6626C54.9498 82.9417 55.2256 83.211 55.5144 83.5016C55.6592 83.6483 55.8082 83.7992 55.9591 83.98C56.0343 84.0706 56.1105 84.1689 56.1853 84.2885C56.2578 84.4127 56.3365 84.5462 56.3775 84.7537C56.4151 84.9553 56.3958 85.1342 56.3703 85.267C56.3438 85.4042 56.3094 85.5218 56.2739 85.6302C56.2025 85.8467 56.1271 86.0356 56.0594 86.219C55.9238 86.5823 55.813 86.9239 55.7873 87.2335C55.7616 87.5436 55.8107 87.8034 55.9571 88.0349C56.103 88.2669 56.343 88.481 56.6388 88.6557C56.9361 88.83 57.2684 88.976 57.6281 89.093C57.8028 89.1601 57.9866 89.2026 58.1653 89.2588C58.3486 89.3004 58.5293 89.3522 58.715 89.384C59.4538 89.5284 60.2128 89.5816 60.9687 89.5436C61.7244 89.5082 62.478 89.3888 63.2048 89.177C64.6609 88.7624 66.016 88.0096 67.1125 86.975C67.6612 86.4572 68.1277 85.8602 68.5424 85.2275C68.9634 84.5964 69.3319 83.928 69.716 83.2279L69.7176 83.225C69.7944 83.085 69.9701 83.0338 70.1101 83.1106C70.2147 83.168 70.2696 83.2809 70.2587 83.3926C70.1752 84.2312 69.893 85.0468 69.4842 85.7931C69.0701 86.5382 68.5298 87.2114 67.927 87.8161C66.7074 89.0156 65.1761 89.8876 63.5371 90.3443C62.7191 90.5803 61.8733 90.7129 61.023 90.7509C60.1725 90.7938 59.3164 90.7193 58.4787 90.5482C58.2685 90.5094 58.0621 90.4494 57.8542 90.3988C57.6498 90.3335 57.4417 90.2813 57.2411 90.203C56.8382 90.0662 56.4294 89.8875 56.0358 89.6503C55.6452 89.4124 55.2529 89.092 54.9721 88.6399C54.8306 88.4166 54.7318 88.1568 54.6789 87.8963C54.6256 87.6348 54.6195 87.3726 54.6427 87.127C54.6902 86.633 54.8443 86.2054 54.9891 85.8175C55.0621 85.6243 55.1358 85.4397 55.191 85.2746C55.2188 85.1922 55.2398 85.1162 55.2518 85.0561C55.2654 84.992 55.2596 84.9669 55.2618 84.9708C55.268 84.9788 55.2481 84.9321 55.2192 84.8842C55.1882 84.833 55.1417 84.7713 55.0877 84.708C54.9802 84.5807 54.8465 84.445 54.7077 84.3068C54.4283 84.029 54.1243 83.7391 53.8388 83.4032C53.5564 83.0658 53.2772 82.6823 53.1071 82.1969C52.9334 81.7168 52.9197 81.1296 53.092 80.6388C53.1756 80.3977 53.2848 80.1619 53.4427 79.946C53.5912 79.7242 53.7931 79.5424 53.9987 79.3831C54.4246 79.0828 54.8817 78.927 55.3106 78.8203C55.7427 78.7166 56.1595 78.6596 56.5674 78.6086L57.7686 78.4707C58.5547 78.3751 59.3226 78.2697 60.067 78.0848C60.4391 77.9944 60.8055 77.8876 61.1645 77.7613C61.5221 77.632 61.8731 77.4864 62.218 77.3262C62.9116 77.0111 63.5825 76.6446 64.2866 76.2643L64.2897 76.2627C64.4302 76.1868 64.6056 76.2392 64.6815 76.3797C64.7381 76.4846 64.7231 76.609 64.6535 76.6969Z" fill="#000070"/>
<path d="M50.7098 43.5177C48.7574 43.1859 46.9366 45.3712 46.6428 48.3986C46.3491 51.426 47.6937 54.1493 49.6462 54.4811C51.5986 54.8129 53.4195 52.6277 53.7132 49.6002C54.007 46.5728 52.6623 43.8496 50.7098 43.5177Z" fill="#000072"/>
<path d="M50.5632 44.7845C49.9385 45.0256 49.6629 46.0454 49.9476 47.0623C50.2323 48.0792 50.9694 48.708 51.5941 48.4668C52.2188 48.2257 52.4944 47.2058 52.2097 46.189C51.925 45.1721 51.1879 44.5433 50.5632 44.7845Z" fill="white"/>
<path d="M51.3182 48.6155C51.1692 48.6155 51.0166 48.5775 50.866 48.502C50.4173 48.277 50.039 47.7486 49.8542 47.0885C49.5568 46.0264 49.8592 44.9522 50.5284 44.6938C50.7696 44.6006 51.0335 44.6199 51.2916 44.7493C51.7403 44.9742 52.1186 45.5027 52.3034 46.1629C52.6008 47.225 52.2984 48.2992 51.6292 48.5574C51.5288 48.5962 51.4245 48.6155 51.3182 48.6155ZM50.839 44.8304C50.7563 44.8304 50.6756 44.8453 50.5984 44.8751C50.02 45.0984 49.7701 46.0678 50.0413 47.0361C50.2116 47.6444 50.5525 48.1275 50.9531 48.3284C51.161 48.4326 51.3706 48.4492 51.5594 48.3761C52.1376 48.153 52.3875 47.1836 52.1163 46.2152C51.946 45.6068 51.6052 45.1237 51.2046 44.9229C51.0818 44.8614 50.9584 44.8304 50.839 44.8304Z" fill="#000072"/>
<path d="M48.42 51.2016C48.1235 51.4177 48.0835 51.9868 48.3306 52.4725C48.5777 52.9582 49.0184 53.1768 49.3148 52.9606C49.6113 52.7444 49.6513 52.1754 49.4042 51.6897C49.1572 51.2039 48.7164 50.9854 48.42 51.2016Z" fill="#B199C5"/>
<path d="M49.0593 53.1412C49.0129 53.1412 48.9653 53.1355 48.9169 53.1239C48.6575 53.0618 48.406 52.8348 48.2441 52.5165C47.9721 51.9819 48.0243 51.3699 48.3628 51.1231C48.4937 51.0276 48.6512 50.998 48.8182 51.0382C49.0776 51.1004 49.329 51.3274 49.4908 51.6457C49.7627 52.1802 49.7106 52.7922 49.3721 53.039C49.2792 53.1068 49.1729 53.1412 49.0593 53.1412ZM48.6758 51.2152C48.6031 51.2152 48.5366 51.2368 48.4773 51.2801C48.2225 51.4658 48.1951 51.9917 48.4172 52.4285C48.5536 52.6966 48.7574 52.886 48.9621 52.9351C49.0736 52.9618 49.1729 52.9438 49.2576 52.882C49.5124 52.6963 49.5399 52.1704 49.3176 51.7337C49.1813 51.4656 48.9777 51.2762 48.7729 51.2271C48.7394 51.2191 48.7071 51.2152 48.6758 51.2152Z" fill="#000072"/>
<path d="M68.9095 43.5177C70.8619 43.1859 72.6828 45.3712 72.9765 48.3986C73.2703 51.426 71.9256 54.1493 69.9732 54.4811C68.0207 54.8129 66.1998 52.6277 65.9061 49.6002C65.6124 46.5728 66.9571 43.8496 68.9095 43.5177Z" fill="#000072"/>
<path d="M69.0562 44.7845C69.6809 45.0256 69.9565 46.0454 69.6718 47.0623C69.3871 48.0792 68.65 48.708 68.0253 48.4668C67.4006 48.2257 67.125 47.2058 67.4097 46.189C67.6944 45.1721 68.4315 44.5433 69.0562 44.7845Z" fill="white"/>
<path d="M68.3012 48.6155C68.195 48.6155 68.0906 48.5962 67.9902 48.5574C67.321 48.2992 67.0187 47.225 67.3161 46.1629C67.5009 45.5027 67.8792 44.9742 68.3278 44.7493C68.5859 44.6199 68.8497 44.6006 69.0911 44.6938C69.7602 44.9522 70.0626 46.0264 69.7653 47.0885C69.5804 47.7486 69.2022 48.2771 68.7534 48.502C68.6028 48.5775 68.4501 48.6155 68.3012 48.6155ZM68.7805 44.8304C68.6611 44.8304 68.5377 44.8614 68.4149 44.9229C68.0143 45.1237 67.6734 45.6068 67.5032 46.2152C67.232 47.1836 67.4819 48.153 68.0601 48.3761C68.2491 48.4491 68.4586 48.4325 68.6663 48.3284C69.0669 48.1275 69.4078 47.6444 69.5782 47.0361C69.8493 46.0677 69.5994 45.0984 69.0211 44.8751C68.9439 44.8453 68.8632 44.8304 68.7805 44.8304Z" fill="#000072"/>
<path d="M71.1993 51.2016C71.4958 51.4177 71.5358 51.9868 71.2887 52.4725C71.0416 52.9582 70.601 53.1768 70.3045 52.9606C70.0081 52.7444 69.968 52.1754 70.2151 51.6897C70.4622 51.2039 70.9029 50.9854 71.1993 51.2016Z" fill="#B199C5"/>
<path d="M70.5601 53.1413C70.4465 53.1413 70.3402 53.1068 70.2472 53.039C69.9087 52.7922 69.8566 52.1802 70.1285 51.6457C70.2903 51.3275 70.5418 51.1003 70.8012 51.0383C70.9679 50.9984 71.1255 51.0277 71.2564 51.1231C71.595 51.3699 71.6472 51.9819 71.3752 52.5165C71.2133 52.8347 70.9618 53.0619 70.7025 53.124C70.6541 53.1355 70.6064 53.1413 70.5601 53.1413ZM70.9435 51.2152C70.9122 51.2152 70.8799 51.2191 70.8464 51.2271C70.6417 51.2762 70.438 51.4655 70.3016 51.7337C70.0794 52.1704 70.1069 52.6963 70.3617 52.882C70.4463 52.9438 70.5457 52.9618 70.6572 52.9351C70.8619 52.886 71.0656 52.6967 71.202 52.4285C71.4242 51.9917 71.3967 51.4658 71.1419 51.2801C71.0827 51.2368 71.0162 51.2152 70.9435 51.2152Z" fill="#000072"/>
<path d="M89.304 52.6133C88.7147 51.5163 88.4659 50.225 88.6769 48.9003C89.189 45.6851 92.2106 43.4938 95.4258 44.0059C98.6411 44.518 100.832 47.5396 100.32 50.7549C99.8082 53.9701 96.7866 56.1614 93.5713 55.6493C92.677 55.5069 91.8623 55.1698 91.1625 54.6889L88.4047 55.1481L89.304 52.6133Z" fill="#FF0068"/>
<g opacity="0.5">
<path d="M95.2473 45.1255C92.2438 44.6472 89.41 46.5281 88.6322 49.3988C88.643 49.1913 88.6636 48.9824 88.697 48.7726C89.2091 45.5573 92.2307 43.366 95.446 43.8781C98.6612 44.3902 100.853 47.4119 100.34 50.6271C100.307 50.8379 100.262 51.0439 100.207 51.2454C100.361 48.274 98.2518 45.6041 95.2473 45.1255Z" fill="white"/>
</g>
<path d="M94.5021 56.2132C94.1694 56.2132 93.8328 56.1871 93.4941 56.1332C92.6148 55.9931 91.7944 55.6808 91.0522 55.2039L88.485 55.6313C88.3143 55.6597 88.1405 55.5958 88.029 55.4626C87.9175 55.3297 87.8847 55.1477 87.9428 54.9842L88.7711 52.6493C88.1829 51.4598 87.9828 50.1418 88.1928 48.8233C88.7466 45.3464 92.0254 42.9683 95.5027 43.522C98.9796 44.0758 101.358 47.355 100.804 50.8319C100.304 53.9701 97.5839 56.2132 94.5021 56.2132ZM91.1624 54.1989C91.2609 54.1989 91.3577 54.2286 91.4399 54.285C92.1043 54.7416 92.8473 55.0379 93.6482 55.1655C96.5923 55.6347 99.3674 53.6211 99.8363 50.6778C100.305 47.7345 98.2919 44.9586 95.3486 44.4897C92.4053 44.0211 89.6294 46.034 89.1605 48.9774C88.973 50.1551 89.1718 51.3322 89.7354 52.3814C89.8009 52.5031 89.8118 52.6468 89.7655 52.7771L89.1444 54.5281L91.0819 54.2055C91.1087 54.2011 91.1356 54.1989 91.1624 54.1989Z" fill="#000070"/>
<g opacity="0.3">
<path d="M89.2741 52.5549C90.8104 54.0083 92.9981 54.7292 95.2342 54.3031C97.7141 53.8305 99.62 52.0683 100.394 49.8438C100.393 50.1444 100.369 50.4487 100.32 50.7548C99.8082 53.9701 96.7866 56.1613 93.5713 55.6492C92.677 55.5068 91.8623 55.1697 91.1625 54.6888L88.4047 55.148L89.304 52.6132C89.2937 52.594 89.2842 52.5743 89.2741 52.5549Z" fill="#371A45"/>
</g>
<path d="M92.6084 48.1715C93.1185 47.6613 93.9457 47.7528 94.4559 48.2629L94.5353 48.3423L94.6147 48.2629C95.1248 47.7528 95.952 47.6613 96.4621 48.1715C96.9723 48.6817 96.9723 49.5088 96.4621 50.019L96.3827 50.0984L94.7788 51.7024C94.6443 51.8369 94.4262 51.8369 94.2917 51.7024L92.6877 50.0984L92.6083 50.019C92.0982 49.5088 92.0982 48.6817 92.6084 48.1715Z" fill="white"/>
</g>
<rect x="0.5" y="0.5" width="124" height="124" stroke="black"/>
<defs>
<clipPath id="clip0_4_4943">
<rect width="125" height="125" fill="white"/>
</clipPath>
</defs>
</svg>
