<svg width="125" height="125" viewBox="0 0 125 125" fill="none" xmlns="http://www.w3.org/2000/svg">
<g clip-path="url(#clip0_4_2793)">
<path d="M250 0H0V250H250V0Z" fill="#81B1FF"/>
<g opacity="0.3">
<path d="M66.0434 110.195C81.8905 110.195 94.7371 108.67 94.7371 106.789C94.7371 104.908 81.8905 103.383 66.0434 103.383C50.1962 103.383 37.3496 104.908 37.3496 106.789C37.3496 108.67 50.1962 110.195 66.0434 110.195Z" fill="#000072"/>
</g>
<path d="M96.2777 98.7062C96.2777 99.6666 96.0174 100.567 95.5639 101.339C94.6587 102.882 92.9845 103.917 91.0673 103.917C88.1913 103.917 85.8585 101.584 85.8585 98.7062C85.8585 95.8286 88.1913 93.4975 91.0673 93.4975C91.35 93.4975 91.6277 93.5199 91.8983 93.5647C94.3812 93.9613 96.2777 96.1113 96.2777 98.7062Z" fill="#C9BADD"/>
<g opacity="0.3">
<path d="M95.5639 101.339C94.6587 102.882 92.9846 103.917 91.0673 103.917C88.1913 103.917 85.8585 101.584 85.8585 98.7062C85.8585 95.8286 88.1913 93.4975 91.0673 93.4975C91.35 93.4975 91.6277 93.5199 91.8983 93.5647C91.8383 94.5237 91.6871 96.0662 91.3113 97.6536C90.7446 100.047 92.9749 102.194 95.312 101.427C95.3953 101.4 95.4793 101.371 95.5639 101.339Z" fill="#000072"/>
</g>
<path d="M91.068 104.519C87.8628 104.519 85.255 101.912 85.255 98.7065C85.255 95.5012 87.8627 92.8935 91.068 92.8935C94.2733 92.8935 96.881 95.5012 96.881 98.7065C96.881 101.912 94.2733 104.519 91.068 104.519ZM91.068 94.1005C88.5282 94.1005 86.462 96.1666 86.462 98.7065C86.462 101.246 88.5282 103.312 91.068 103.312C93.6079 103.312 95.674 101.246 95.674 98.7065C95.674 96.1666 93.6078 94.1005 91.068 94.1005Z" fill="#000072"/>
<path d="M90.1016 93.2389C89.8792 107.796 77.9462 107.491 77.9462 107.491C69.5218 111.231 66.0338 106.317 66.0338 106.317C64.3562 106.834 62.3165 106.52 62.3165 106.52C60.8388 107.722 59.325 106.715 59.325 106.715C56.9974 109.208 53.9214 107.246 53.9214 107.246C51.7041 107.196 51.3248 106.262 51.3248 106.262C49.1093 108.275 46.273 106.575 46.273 106.575C46.273 106.575 44.0333 108.051 43.0798 105.631C43.0729 105.613 43.066 105.596 43.0591 105.579C42.116 103.084 44.916 101.699 44.916 101.699C38.3211 88.7854 40.8832 77.2334 41.9728 73.6109C42.2091 72.8281 42.6625 72.1281 43.2763 71.5901C48.0127 67.4452 54.0024 66.04 58.8905 65.6883C64.2578 65.3021 69.577 66.8711 73.9219 70.047C80.5376 74.8798 90.2482 83.6266 90.1016 93.2389Z" fill="#C9BADD"/>
<path d="M53.3395 95.9654C53.3395 95.9654 41.6663 91.5534 44.4916 74.292C44.4916 74.292 53.7698 67.7772 58.4868 74.7626C58.4868 74.7626 60.3648 77.924 58.4868 82.7455C56.6089 87.5671 55.2795 86.6848 53.3395 95.9654Z" fill="#EAE4F2"/>
<path d="M64.6049 96.3512C64.6049 96.3512 66.1967 98.3001 69.0046 97.3395C69.0046 97.3395 69.0046 99.6856 70.0761 102.124C70.0761 102.124 65.1227 101.681 66.0338 106.317C66.0338 106.317 64.3678 106.798 62.3173 106.521C62.3173 106.521 62.8992 103.999 61.5137 101.727C61.5137 101.727 63.6228 98.8451 64.6049 96.3512Z" fill="#EAE4F2"/>
<g opacity="0.3">
<path d="M90.1016 93.2389C89.8792 107.796 77.9461 107.491 77.9461 107.491C69.5218 111.231 66.0338 106.317 66.0338 106.317C65.8338 105.689 65.9235 105.136 65.9235 105.136C68.4428 108.734 74.203 106.177 76.1361 105.176C76.5418 104.966 76.9772 104.821 77.4292 104.754C82.3649 104.027 87.1454 98.5027 85.8584 91.313C84.9055 85.9895 81.9497 83.391 80.3125 82.3304C79.7354 81.9566 79.0765 81.7348 78.3951 81.6426C74.4538 81.1089 73.653 78.5764 73.4939 77.4248C73.4485 77.0963 73.2814 76.7946 73.0159 76.5959C72.5869 76.2749 72.3084 75.8269 72.1276 75.3871C71.8062 74.6053 70.947 74.1982 70.1476 74.473C52.0096 80.7084 41.9729 73.6109 41.9729 73.6109C42.2091 72.8281 42.6626 72.1281 43.2764 71.5901C48.0127 67.4452 54.0025 66.04 58.8906 65.6883C64.2579 65.3021 69.577 66.8711 73.922 70.047C80.5376 74.8798 90.2482 83.6266 90.1016 93.2389Z" fill="#000072"/>
</g>
<g opacity="0.3">
<path d="M70.0753 102.124C64.7562 102.217 66.0339 106.317 66.0339 106.317C64.3562 106.834 62.3165 106.52 62.3165 106.52C60.8389 107.722 59.3251 106.715 59.3251 106.715C56.9974 109.208 53.9215 107.246 53.9215 107.246C51.7042 107.196 51.3249 106.262 51.3249 106.262C49.1093 108.275 46.273 106.575 46.273 106.575C46.273 106.575 44.0333 108.051 43.0798 105.631C44.0131 105.832 44.8761 105.347 45.3814 104.966C45.6621 104.755 46.0351 104.724 46.3499 104.88C46.8903 105.148 47.3455 105.143 47.71 105.021C48.3118 104.819 48.721 104.258 48.7866 103.627C48.9376 102.174 49.8411 101.015 50.3155 100.497C50.4982 100.297 50.6019 100.04 50.6123 99.7695C50.6376 99.1097 50.7287 98.4045 50.8174 97.8454C50.9159 97.2242 50.6445 96.6008 50.1203 96.2532C44.9756 92.841 45.1834 86.6611 45.1834 86.6611C46.4706 89.2942 48.8332 90.9428 50.4034 91.8018C51.1721 92.2223 52.1306 91.9099 52.5233 91.1266C53.9001 88.381 56.682 86.1818 56.682 86.1818C54.5561 89.6922 53.3388 95.9648 53.3388 95.9648C52.8888 97.9873 52.8215 100.998 52.8215 100.998C50.7163 102.217 50.6421 104.674 50.6421 104.674C51.418 106.41 53.8008 105.356 53.8008 105.356C55.8491 107.093 59.251 105.468 59.251 105.468C60.1385 104.855 60.0031 103.332 59.7458 102.194C59.5523 101.338 59.7901 100.439 60.3741 99.7835C64.2174 95.4701 67.7477 86.1818 67.7477 86.1818C68.3933 87.4352 68.5023 89.079 68.4559 90.3808C68.4343 90.9869 69.158 91.3194 69.604 90.9084C72.8039 87.9595 76.7824 89.118 76.7824 89.118C64.8304 90.1353 70.0753 102.124 70.0753 102.124Z" fill="#000072"/>
</g>
<g opacity="0.7">
<path d="M44.7859 106.1C44.7851 106.099 44.7842 106.097 44.7835 106.096C43.7014 104.663 44.6255 103.537 45.5139 102.875C46.1191 102.424 46.3294 101.611 46.0096 100.927C40.215 88.5395 42.644 77.6295 43.6973 74.1281C43.9335 73.3453 44.3869 72.6453 45.0008 72.1073C49.7371 67.9624 55.7269 66.5572 60.6149 66.2055C63.0584 66.0297 65.4916 66.2603 67.8277 66.8621C64.9777 65.8818 61.9421 65.4687 58.8908 65.6882C54.0027 66.0399 48.0129 67.4452 43.2766 71.5901C42.6628 72.128 42.2093 72.828 41.9731 73.6108C40.8834 77.2333 38.3213 88.7853 44.9163 101.699C44.9163 101.699 42.1162 103.084 43.0594 105.579C43.0663 105.596 43.0731 105.613 43.0801 105.631C43.6186 106.998 44.5674 107.122 45.2913 106.971C45.101 106.758 44.928 106.476 44.7859 106.1Z" fill="white"/>
</g>
<g opacity="0.7">
<path d="M51.3257 106.262C51.3257 106.262 50.9611 103.378 53.544 102.148C53.8289 102.012 54.0234 101.739 54.054 101.425C54.2499 99.4137 55.0406 92.0976 56.682 86.1818C56.682 86.1818 52.6363 93.4241 52.8215 100.998C52.8215 100.998 49.2382 103.288 51.3257 106.262Z" fill="white"/>
</g>
<g opacity="0.7">
<path d="M72.0157 103.916C72.0157 103.916 69.1616 98.1061 71.0459 93.8849C72.8579 89.8256 76.7824 89.1181 76.7824 89.1181C76.7824 89.1181 69.9085 89.0175 69.0501 95.0627C68.1917 101.108 72.0157 103.916 72.0157 103.916Z" fill="white"/>
</g>
<path d="M72.0683 109.493C70.6275 109.493 69.4763 109.211 68.609 108.868C67.1489 108.291 66.2413 107.459 65.8199 107.001C64.4788 107.319 63.0565 107.214 62.4837 107.15C61.3643 107.927 60.1762 107.76 59.435 107.451C57.4492 109.226 54.9561 108.549 53.7433 107.844C52.4161 107.788 51.6657 107.43 51.2485 107.091C49.4888 108.298 47.4098 107.821 46.2746 107.263C45.8195 107.483 44.9605 107.791 44.1055 107.514C43.3789 107.278 42.8369 106.699 42.4942 105.792C41.7244 103.754 43.0211 102.219 44.1237 101.467C41.4175 95.989 40.0169 90.1745 39.9596 84.1761C39.9115 79.1467 40.8386 75.2885 41.3956 73.4362C41.6629 72.5471 42.1761 71.7515 42.8798 71.1357C46.9275 67.5932 52.2999 65.558 58.8477 65.0865C64.3133 64.6947 69.7931 66.2816 74.2778 69.559C78.6783 72.7746 82.2911 76.1094 85.0159 79.471C88.8576 84.2102 90.7716 88.8453 90.7045 93.2475C90.629 98.21 89.218 102.044 86.5108 104.643C83.138 107.881 78.9093 108.087 78.0717 108.094C75.695 109.133 73.6969 109.493 72.0683 109.493ZM66.0338 105.714C66.2257 105.714 66.4107 105.806 66.5259 105.968C66.6571 106.149 69.8688 110.417 77.7008 106.939C77.7827 106.903 77.8728 106.888 77.9611 106.887C78.004 106.891 82.377 106.949 85.687 103.761C88.1453 101.393 89.4273 97.8499 89.4978 93.2292C89.6426 83.7176 79.5781 74.9269 73.5658 70.5334C69.3114 67.4243 64.1146 65.9159 58.9343 66.2904C52.6544 66.7425 47.5203 68.6782 43.6748 72.0439C43.1418 72.5103 42.7533 73.112 42.5513 73.7838C41.5766 77.026 38.9047 88.6012 45.4529 101.425C45.5263 101.568 45.5391 101.735 45.4885 101.889C45.4378 102.042 45.3278 102.168 45.1833 102.24C45.0908 102.286 42.8885 103.42 43.6234 105.365C43.8291 105.91 44.1152 106.246 44.4736 106.364C45.0246 106.546 45.7216 106.214 45.9436 106.071C46.1367 105.946 46.3863 105.941 46.5834 106.059C46.6826 106.117 49.0689 107.496 50.92 105.815C51.0758 105.674 51.2821 105.589 51.4841 105.648C51.6797 105.705 51.8215 105.824 51.8796 106.017C51.9463 106.108 52.3803 106.608 53.935 106.643C54.0453 106.646 54.1527 106.678 54.2458 106.738C54.3533 106.805 56.9344 108.391 58.8835 106.303C59.0848 106.087 59.4126 106.049 59.6587 106.212C59.7026 106.241 60.8338 106.949 61.9368 106.052C62.0692 105.945 62.2403 105.898 62.4092 105.924C62.4278 105.927 64.3358 106.209 65.856 105.741C65.9147 105.723 65.9746 105.714 66.0338 105.714Z" fill="#000072"/>
<path d="M50.8873 106.677C50.8425 106.628 50.8231 106.604 50.7951 106.57C50.7695 106.538 50.745 106.507 50.722 106.476C50.6751 106.413 50.6316 106.35 50.5901 106.287C50.5076 106.159 50.4329 106.027 50.3661 105.891C50.2338 105.618 50.1332 105.328 50.0715 105.026C49.9439 104.422 50.0005 103.774 50.203 103.205C50.3992 102.629 50.7307 102.139 51.0945 101.708C51.4637 101.28 51.8793 100.917 52.3104 100.59L52.3112 100.589L52.0713 101.041C52.0784 100.698 52.0929 100.374 52.1175 100.044C52.1405 99.7154 52.1669 99.3876 52.2034 99.0612C52.2345 98.7338 52.2786 98.4087 52.3181 98.0827C52.3616 97.7571 52.4153 97.4333 52.4636 97.1086C52.6743 95.8125 52.9575 94.5277 53.3077 93.2605L53.5811 92.313L53.8919 91.376C53.9927 91.0633 54.1127 90.7562 54.2314 90.449L54.4097 89.9888C54.4697 89.8357 54.529 89.6824 54.6013 89.5337C54.7393 89.2339 54.8807 88.9362 55.0267 88.6413C55.0976 88.4931 55.1794 88.3492 55.2636 88.2068C55.3463 88.0637 55.4298 87.9214 55.5156 87.7804L55.7745 87.3596C55.8621 87.2205 55.9653 87.0889 56.0641 86.9562C56.2622 86.691 56.465 86.4304 56.682 86.1815C56.3117 87.4576 55.8881 88.6542 55.5152 89.8775C55.1354 91.095 54.783 92.3188 54.5047 93.564C54.2246 94.808 53.9831 96.0609 53.7802 97.3208C53.6808 97.951 53.5875 98.5823 53.503 99.2142C53.4179 99.8434 53.342 100.486 53.2769 101.101L53.2718 101.149C53.254 101.317 53.1636 101.461 53.0371 101.553L53.0362 101.554C52.6577 101.841 52.3042 102.153 52.0089 102.496C51.7187 102.84 51.4739 103.211 51.3432 103.601C51.2064 103.99 51.1726 104.393 51.2545 104.786C51.2948 104.983 51.3611 105.176 51.4508 105.361C51.4961 105.454 51.5471 105.543 51.6023 105.629C51.63 105.672 51.6589 105.714 51.6882 105.753C51.703 105.773 51.7176 105.791 51.7321 105.809L51.7638 105.847L50.8873 106.677Z" fill="#000072"/>
<path d="M61.8644 106.122C61.8578 106.129 61.849 106.14 61.8457 106.144L61.8458 106.143C61.8463 106.142 61.8457 106.145 61.8481 106.14C61.8524 106.131 61.8573 106.122 61.8628 106.114C61.8725 106.086 61.887 106.068 61.8963 106.034C61.9196 105.976 61.9361 105.904 61.953 105.833C61.9636 105.756 61.9805 105.682 61.9824 105.598L61.9909 105.475L61.9885 105.346C61.9797 105.002 61.9181 104.638 61.8201 104.274C61.7696 104.093 61.7107 103.91 61.6495 103.729C61.5777 103.549 61.5172 103.366 61.4371 103.188C61.3553 103.009 61.2822 102.828 61.194 102.652L60.9261 102.123L60.9211 102.113C60.8134 101.9 60.8432 101.653 60.9763 101.474V101.474C61.7306 100.314 62.4785 99.105 63.174 97.8897C63.528 97.2831 63.8652 96.6674 64.1909 96.0466C64.5177 95.4265 64.8361 94.8021 65.1316 94.1681C65.7317 92.9033 66.2494 91.6063 66.6984 90.2848C66.918 89.6228 67.1295 88.955 67.3022 88.273C67.4754 87.5908 67.6232 86.8983 67.7483 86.1815C67.8963 86.8928 67.9435 87.6273 67.9265 88.3597C67.9089 89.0931 67.8117 89.8215 67.6775 90.5419C67.3981 91.9817 66.9189 93.3698 66.3616 94.7139C65.8034 96.0598 65.1359 97.3531 64.4075 98.6071C64.0347 99.2291 63.655 99.8468 63.2436 100.444C63.0403 100.744 62.8321 101.041 62.6153 101.332C62.3987 101.627 62.1819 101.91 61.9401 102.201L61.9401 102.201L61.9902 101.553L62.2808 102.127C62.3765 102.319 62.4592 102.52 62.5486 102.717C62.6367 102.914 62.7076 103.123 62.7874 103.326C62.8581 103.535 62.9262 103.746 62.9857 103.961C63.1014 104.393 63.1834 104.846 63.1953 105.326L63.1974 105.506L63.1856 105.692C63.1809 105.814 63.1571 105.943 63.1364 106.07C63.1076 106.199 63.0764 106.328 63.0246 106.462C63.0037 106.528 62.9663 106.599 62.936 106.666L62.8744 106.775C62.8645 106.792 62.8477 106.816 62.8342 106.836L62.8124 106.867C62.8016 106.881 62.7845 106.903 62.7699 106.92L61.8644 106.122Z" fill="#000072"/>
<path d="M53.0921 96.5159C52.946 96.4538 52.8266 96.3992 52.698 96.3382C52.5712 96.2793 52.4476 96.2166 52.3254 96.1518C52.0798 96.0239 51.8388 95.8897 51.603 95.7469C51.1293 95.4651 50.6729 95.1562 50.2306 94.8278C49.3484 94.1684 48.5254 93.4242 47.7979 92.5901C47.4286 92.1786 47.0936 91.7358 46.7819 91.2784C46.6217 91.053 46.4799 90.8141 46.3325 90.5805C46.1985 90.3376 46.0582 90.0995 45.9448 89.846C45.4652 88.8502 45.1776 87.755 45.174 86.6619C45.6639 87.6398 46.1476 88.5525 46.7258 89.4062C47.2864 90.2662 47.9308 91.067 48.6577 91.7903C49.3774 92.5195 50.1694 93.1786 50.9991 93.7847C51.414 94.0881 51.8418 94.3745 52.2754 94.6502C52.4936 94.7856 52.7118 94.9212 52.933 95.0495C53.1512 95.1744 53.3829 95.3106 53.5869 95.415L53.0921 96.5159Z" fill="#000072"/>
<path d="M65.4671 106.525C65.4285 106.415 65.4101 106.346 65.3871 106.258C65.3655 106.175 65.3468 106.093 65.3309 106.01C65.2978 105.845 65.2744 105.678 65.261 105.509C65.2325 105.171 65.2417 104.824 65.3066 104.476C65.37 104.129 65.4896 103.781 65.6717 103.463C65.8527 103.145 66.0953 102.863 66.3691 102.633C66.5046 102.515 66.6519 102.419 66.7985 102.323C66.9491 102.239 67.0995 102.151 67.2553 102.087C67.5643 101.944 67.8805 101.852 68.1954 101.772C68.8261 101.627 69.4527 101.576 70.0695 101.567L70.07 101.567L69.5205 102.406C69.3585 102.025 69.2267 101.674 69.1062 101.302C68.9883 100.933 68.875 100.564 68.784 100.187C68.5964 99.4364 68.4546 98.6711 68.3824 97.8929C68.3064 97.1155 68.2989 96.3247 68.385 95.5344C68.4681 94.7448 68.6499 93.9534 68.9658 93.2057C69.2809 92.4609 69.7174 91.7505 70.2937 91.173C70.8667 90.5931 71.5427 90.1392 72.2527 89.7882L72.7969 89.5539C72.9768 89.4725 73.1693 89.4307 73.3553 89.3707C73.7267 89.2452 74.112 89.1879 74.4926 89.125C74.8734 89.0641 75.2602 89.0605 75.6401 89.0401C76.0233 89.0499 76.4046 89.0726 76.7819 89.1188C76.416 89.2418 76.0523 89.3281 75.6938 89.4253L75.1629 89.5897C74.9867 89.6416 74.8082 89.6826 74.639 89.7532C74.2972 89.881 73.9507 89.9835 73.6267 90.1361L73.38 90.24C73.2972 90.2726 73.2145 90.3054 73.1378 90.3497C72.9815 90.4327 72.8242 90.5122 72.6672 90.5913C72.0585 90.9398 71.5048 91.3643 71.0541 91.877C70.6057 92.3911 70.2628 92.9867 70.0262 93.6275C69.7911 94.2693 69.6565 94.953 69.598 95.6496C69.5426 96.3472 69.5649 97.0576 69.6376 97.7665C69.7151 98.4753 69.8423 99.1838 70.012 99.8838C70.0962 100.234 70.1902 100.582 70.2943 100.927C70.3976 101.268 70.5118 101.624 70.6316 101.934L70.6379 101.951C70.7581 102.263 70.6027 102.613 70.2907 102.733C70.2229 102.759 70.1508 102.772 70.082 102.774H70.0817C69.529 102.782 68.9828 102.829 68.472 102.947C68.2205 103.012 67.9718 103.083 67.7498 103.188C67.6338 103.234 67.5329 103.297 67.4269 103.353C67.3302 103.419 67.2302 103.481 67.146 103.557C66.7963 103.848 66.5767 104.235 66.4939 104.693C66.4508 104.921 66.4429 105.164 66.4638 105.409C66.4733 105.531 66.4906 105.655 66.515 105.776C66.5265 105.837 66.5404 105.898 66.5556 105.956C66.569 106.01 66.5908 106.082 66.6004 106.11L65.4671 106.525Z" fill="#000072"/>
<path d="M70.5781 101.835C70.6037 101.909 70.6544 102.009 70.6977 102.098C70.742 102.191 70.7907 102.283 70.8402 102.375C70.9379 102.561 71.0484 102.74 71.164 102.92C71.2797 103.101 71.411 103.27 71.5498 103.439C71.69 103.607 71.8453 103.764 72.0158 103.916C71.795 103.868 71.5688 103.805 71.3537 103.714C71.1371 103.626 70.9245 103.52 70.7206 103.399C70.5147 103.28 70.3184 103.145 70.1264 103C70.0319 102.927 69.9389 102.851 69.8473 102.771C69.7539 102.688 69.6729 102.613 69.5739 102.505L70.5781 101.835Z" fill="#000072"/>
<path d="M45.7417 106.862C45.7178 106.762 45.7137 106.692 45.7046 106.611C45.6971 106.532 45.6923 106.454 45.6889 106.377C45.6825 106.223 45.6843 106.07 45.6929 105.919C45.7092 105.618 45.7589 105.323 45.8436 105.052C45.9601 105.312 46.1063 105.542 46.2725 105.751C46.3551 105.855 46.4417 105.955 46.5321 106.048C46.5775 106.094 46.6232 106.139 46.6698 106.182C46.7145 106.222 46.7669 106.272 46.8044 106.29L45.7417 106.862Z" fill="#000072"/>
<path d="M53.4386 107.609C53.4116 107.566 53.4108 107.557 53.3992 107.534C53.3897 107.513 53.385 107.498 53.3779 107.479C53.3638 107.443 53.3558 107.412 53.3459 107.379C53.3286 107.314 53.3139 107.251 53.3055 107.19C53.2846 107.067 53.2799 106.948 53.2806 106.833C53.2839 106.602 53.3234 106.386 53.3808 106.185C53.4375 105.982 53.5212 105.797 53.611 105.622C53.6566 105.535 53.7097 105.452 53.7579 105.37L53.9212 105.135L53.9017 105.416C53.9026 105.509 53.8996 105.6 53.9048 105.691C53.9167 105.871 53.9381 106.046 53.9838 106.209C54.0284 106.371 54.0887 106.521 54.1667 106.648C54.206 106.71 54.2472 106.769 54.293 106.815C54.3144 106.84 54.3386 106.86 54.3603 106.877C54.3714 106.885 54.3825 106.895 54.3921 106.898C54.3966 106.899 54.4025 106.904 54.4054 106.902C54.4063 106.898 54.4172 106.908 54.4037 106.884L53.4386 107.609Z" fill="#000072"/>
<path d="M58.7239 106.656C58.7523 106.617 58.7809 106.535 58.8065 106.469C58.8321 106.399 58.8559 106.326 58.8781 106.252C58.9224 106.104 58.9588 105.951 58.9872 105.795C59.0462 105.483 59.0681 105.158 59.0474 104.821C59.2558 105.085 59.4392 105.386 59.5848 105.711C59.6588 105.873 59.7251 106.041 59.7825 106.214C59.8112 106.3 59.838 106.389 59.8625 106.479C59.8861 106.573 59.9098 106.652 59.9251 106.773L58.7239 106.656Z" fill="#000072"/>
<path d="M49.5578 40.7902C50.2383 48.2927 45.649 55.1881 38.7861 57.6465C37.7998 58.0011 36.7657 58.2627 35.6956 58.4206C32.395 58.9087 29.198 58.3814 26.4068 57.0833L26.4192 57.5037C26.4373 58.219 25.7264 58.7152 25.0562 58.4696C23.6461 57.9461 21.5556 56.5825 20.7097 53.0319C20.7095 53.0303 20.7095 53.0303 20.7095 53.0303C20.7006 52.9902 20.6431 52.9994 20.6441 53.0387C20.6455 53.0528 20.6454 53.067 20.6455 53.0828C20.6463 53.5424 20.3301 53.8109 19.9648 53.8365C19.9193 53.8397 19.8735 53.8398 19.8288 53.835C19.6056 53.8157 19.3776 53.7054 19.2025 53.4963C17.4967 51.4479 16.5216 48.7149 16.4751 44.684C16.3743 35.6597 22.6106 26.952 31.5833 26.0116C36.0955 25.5387 40.3724 26.9511 43.6272 29.6127C44.237 30.1111 44.812 30.6542 45.3455 31.238C47.6732 33.7803 49.2211 37.0804 49.5578 40.7902Z" fill="#C9BADD"/>
<path d="M40.4507 49.829C44.6093 45.6704 44.6093 38.928 40.4507 34.7694C36.2921 30.6108 29.5496 30.6108 25.391 34.7694C21.2324 38.928 21.2324 45.6704 25.391 49.829C29.5496 53.9876 36.2921 53.9876 40.4507 49.829Z" fill="#EAE4F2"/>
<g opacity="0.5">
<path d="M48.6728 36.7565C46.1977 29.8213 39.2306 25.2105 31.5836 26.012C22.6101 26.9525 16.3739 35.6604 16.4753 44.6838C16.5081 47.5635 17.0173 49.7782 17.9264 51.5565C17.4341 50.0825 17.1606 48.3489 17.1369 46.2667C17.0583 39.2803 20.7797 32.484 26.6286 29.3346C27.315 29.6665 28.7287 29.6712 30.2819 29.2912C31.9493 28.8833 33.2687 28.1564 33.6294 27.5093C40.1308 27.3752 45.9566 31.1141 48.6728 36.7565Z" fill="white"/>
</g>
<g opacity="0.3">
<path d="M45.3455 31.2379C43.4644 32.2579 41.824 33.4344 40.3907 34.709C38.2013 32.5569 35.1031 31.3634 31.8113 31.7084C29.73 31.9265 27.8538 32.7326 26.3253 33.9411C27.2047 33.594 28.1438 33.3564 29.1301 33.253C29.1659 33.2493 29.2016 33.2457 29.2374 33.2423C33.8507 32.8051 36.9979 37.7604 34.733 41.8031C32.0545 46.584 31.0901 51.3866 30.7432 54.1568C30.5825 55.4395 29.2915 56.2525 28.0603 55.8584C26.7155 55.4279 25.534 54.9671 24.9267 54.7211C24.7064 54.6319 24.4686 54.7956 24.4684 55.0333C24.468 55.3726 24.5037 55.6567 24.551 55.8842C24.6046 56.1418 24.3268 56.3368 24.0998 56.2038C22.1099 55.0381 20.7097 53.0318 20.7097 53.0318C21.5557 56.5824 23.6462 57.946 25.0563 58.4695C25.7265 58.7152 26.4374 58.2189 26.4193 57.5037L26.4068 57.0832C29.1981 58.3813 32.395 58.9086 35.6956 58.4206C36.7658 58.2626 37.7998 58.001 38.7862 57.6465C45.6491 55.1881 50.2383 48.2926 49.5578 40.7901C49.2211 37.0804 47.6732 33.7803 45.3455 31.2379Z" fill="#000072"/>
</g>
<path d="M33.2709 59.203C31.106 59.203 28.9679 58.7902 26.9585 57.9794C26.8591 58.3201 26.6484 58.6226 26.3521 58.8345C25.9152 59.1468 25.3527 59.2215 24.847 59.0344C23.6277 58.5826 21.5572 57.3877 20.4639 54.328C20.4378 54.3394 20.4112 54.3501 20.3841 54.3599C19.812 54.5691 19.1513 54.3768 18.7395 53.8827C16.8289 51.5895 15.918 48.6686 15.8727 44.6906C15.8202 40.0781 17.3392 35.552 20.1502 31.9462C23.0748 28.1945 27.1129 25.874 31.5208 25.4119C36.0649 24.9359 40.5132 26.2715 44.044 29.1733C47.5742 32.0746 49.7458 36.1806 50.1592 40.735C50.5499 45.0403 49.2824 49.2979 46.5898 52.7235C43.8965 56.1502 40.0587 58.3854 35.7837 59.0176C34.9461 59.1415 34.1063 59.203 33.2709 59.203ZM26.4078 56.4793C26.4944 56.4793 26.5813 56.4979 26.6623 56.5356C29.4482 57.8318 32.5411 58.2768 35.6072 57.8238C43.8467 56.6052 49.7107 49.1469 48.9571 40.8441C48.5733 36.6139 46.5562 32.8003 43.2777 30.1058C39.9985 27.4107 35.8681 26.17 31.6466 26.6124C23.3727 27.4796 16.974 35.4144 17.0796 44.6769C17.1216 48.3621 17.9437 51.0419 19.6669 53.1104C19.7812 53.2474 19.9115 53.2478 19.9702 53.2262C19.9971 53.2164 20.042 53.2001 20.0413 53.0858L20.0409 53.0501C20.0409 53.0498 20.0409 53.0496 20.0409 53.0493C20.0346 52.7237 20.2734 52.4471 20.5961 52.4059C20.9198 52.3647 21.2199 52.5727 21.2957 52.8897C22.0619 56.1011 23.8778 57.3883 25.2662 57.9025C25.4529 57.972 25.5967 57.8909 25.65 57.8528C25.7138 57.8072 25.82 57.7032 25.8152 57.5195L25.8044 57.0984C25.7991 56.8895 25.9021 56.6928 26.0768 56.5782C26.1767 56.5126 26.292 56.4793 26.4078 56.4793ZM21.2476 53.0264L21.2477 53.0336C21.2477 53.0311 21.2476 53.0287 21.2476 53.0264Z" fill="#000072"/>
<path d="M26.4768 33.8199C27.5141 32.4702 29.1151 31.5886 30.8033 31.2262C32.4983 30.8795 34.2821 30.9247 35.965 31.3802C37.6501 31.8246 39.2286 32.6764 40.5341 33.8389C41.1851 34.422 41.7712 35.0783 42.2772 35.7927C42.7836 36.5071 43.1996 37.2852 43.5277 38.0979C44.1809 39.7281 44.4292 41.5062 44.2876 43.2523C44.2766 43.4713 44.2392 43.6878 44.2153 43.9056C44.1847 44.1225 44.1434 44.338 44.1048 44.5536C44.0098 44.9814 43.9029 45.407 43.761 45.8215C43.4828 46.6515 43.1167 47.4528 42.6556 48.1957C42.1972 48.9401 41.6511 49.6288 41.0354 50.2466C40.417 50.8619 39.7285 51.4047 38.9894 51.8642C37.5078 52.7802 35.8084 53.3226 34.0912 53.4622L33.9714 52.3182C34.7399 52.2161 35.4922 52.0244 36.2129 51.7566C36.9343 51.4907 37.6254 51.1456 38.2617 50.7188C38.9012 50.2979 39.4938 49.807 40.0218 49.255C40.5461 48.6992 41.0083 48.0874 41.4022 47.4353C42.1837 46.1265 42.6546 44.6406 42.7764 43.1272C42.8982 41.614 42.6773 40.0666 42.1147 38.6569C41.838 37.9504 41.4856 37.2715 41.0522 36.6463C40.6192 36.021 40.1154 35.4442 39.5536 34.9293C38.4217 33.9113 37.0677 33.1266 35.5959 32.7034C34.8617 32.4905 34.1026 32.3537 33.3357 32.3177C32.5695 32.2798 31.7967 32.3284 31.0372 32.4561C30.2758 32.5768 29.5243 32.7619 28.77 32.9904C28.0141 33.2195 27.2677 33.5103 26.4768 33.8199Z" fill="#000072"/>
<path d="M59.5539 39.7425C60.4437 47.2231 66.363 53.0172 73.5864 53.9992C74.6249 54.1415 75.6907 54.183 76.7703 54.1157C80.1004 53.9088 83.1186 52.73 85.58 50.8815L85.655 51.2953C85.7856 51.9988 86.5839 52.3368 87.1886 51.9575C88.4595 51.153 90.2219 49.3856 90.3133 45.7368C90.3131 45.7352 90.3131 45.7352 90.3131 45.7352C90.3136 45.6941 90.3717 45.6912 90.3789 45.7299C90.3804 45.744 90.3834 45.7579 90.3866 45.7733C90.4812 46.2231 90.8461 46.4202 91.2089 46.3695C91.2541 46.3632 91.2989 46.3538 91.3416 46.3398C91.5559 46.2747 91.7561 46.1195 91.884 45.8786C93.128 43.5211 93.5153 40.6452 92.725 36.6924C90.9525 27.8432 83.0463 20.6178 74.0736 21.5582C69.5615 22.0311 65.6703 24.2997 63.0381 27.5782C62.5449 28.1922 62.095 28.8428 61.6941 29.5245C59.9441 32.4942 59.1141 36.0435 59.5539 39.7425Z" fill="#C9BADD"/>
<path d="M76.1418 48.4183C82.023 48.4183 86.7907 43.6506 86.7907 37.7694C86.7907 31.8882 82.023 27.1205 76.1418 27.1205C70.2606 27.1205 65.4929 31.8882 65.4929 37.7694C65.4929 43.6506 70.2606 48.4183 76.1418 48.4183Z" fill="#EAE4F2"/>
<g opacity="0.5">
<path d="M59.5834 35.613C60.5667 28.3154 66.4265 22.3602 74.0735 21.5587C83.047 20.6182 90.9532 27.8439 92.7248 36.6922C93.2899 39.5161 93.2509 41.7882 92.7303 43.7164C92.9063 42.1723 92.8144 40.4197 92.4058 38.3778C91.0342 31.5269 85.9845 25.65 79.6097 23.7817C79.007 24.2487 77.6251 24.5464 76.0269 24.4967C74.3111 24.4434 72.8696 24.0059 72.3827 23.4476C65.9947 24.6645 61.0707 29.53 59.5834 35.613Z" fill="white"/>
</g>
<g opacity="0.3">
<path d="M61.6942 29.5245C63.7458 30.1322 65.5945 30.943 67.2609 31.8928C68.9565 29.3335 71.74 27.5235 75.0317 27.1785C77.113 26.9604 79.1156 27.3599 80.8614 28.2253C79.9292 28.0681 78.9612 28.0303 77.975 28.1337C77.9392 28.1374 77.9035 28.1414 77.8678 28.1455C73.2641 28.6742 71.2127 34.1744 74.2666 37.6597C77.8782 41.7813 79.8174 46.2796 80.7312 48.9177C81.1543 50.1392 82.5858 50.6669 83.7085 50.0261C84.9348 49.3261 85.9952 48.6303 86.5383 48.2638C86.7352 48.1308 87.0018 48.2417 87.0513 48.4741C87.122 48.806 87.1461 49.0913 87.1469 49.3237C87.1479 49.5868 87.4601 49.72 87.6546 49.5428C89.3595 47.9899 90.3133 45.7368 90.3133 45.7368C90.2218 49.3857 88.4595 51.1531 87.1886 51.9576C86.5839 52.3368 85.7856 51.9988 85.655 51.2954L85.58 50.8815C83.1186 52.7301 80.1004 53.9088 76.7703 54.1157C75.6907 54.183 74.6248 54.1415 73.5864 53.9992C66.3629 53.0172 60.4437 47.2231 59.5538 39.7425C59.1141 36.0435 59.9441 32.4942 61.6942 29.5245Z" fill="#000072"/>
</g>
<path d="M75.7585 54.7505C71.8146 54.7506 68.0051 53.3679 64.9315 50.8011C61.5874 48.0082 59.4646 44.106 58.9542 39.8132C58.4142 35.2721 59.6874 30.8049 62.5392 27.2348C65.3915 23.6639 69.4655 21.4351 74.0103 20.9587C78.4178 20.4966 82.8496 21.9295 86.4887 24.9933C89.9861 27.9381 92.4106 32.0507 93.3156 36.5739C94.0961 40.4748 93.8106 43.5211 92.4169 46.1608C92.1166 46.7295 91.5082 47.0541 90.9071 46.9685C90.8786 46.9645 90.8504 46.9595 90.8224 46.9538C90.3876 50.1735 88.6096 51.7718 87.5104 52.4666C87.0546 52.7547 86.4887 52.7981 85.9967 52.5833C85.6628 52.4374 85.3938 52.1852 85.2261 51.8726C82.7345 53.5493 79.8422 54.5294 76.8079 54.7179C76.4575 54.7397 76.1072 54.7505 75.7585 54.7505ZM75.6335 22.0808C75.1366 22.0808 74.637 22.1065 74.136 22.1591C69.915 22.6014 66.1314 24.6716 63.4822 27.988C60.8336 31.3038 59.651 35.4528 60.1526 39.6707C61.1369 47.9495 68.4199 54.0269 76.7331 53.5133C79.8263 53.3212 82.7598 52.2442 85.2165 50.3987C85.3836 50.2731 85.6036 50.2432 85.798 50.3189C85.9927 50.3947 86.1342 50.5659 86.1723 50.7713L86.2491 51.1857C86.2825 51.3662 86.4081 51.4459 86.4799 51.4773C86.5399 51.5034 86.6972 51.5527 86.8655 51.4464C88.1172 50.6553 89.6268 49.0198 89.7102 45.7197C89.7191 45.3927 89.9705 45.127 90.2953 45.1008C90.6224 45.0731 90.9084 45.2947 90.9706 45.6131L90.9789 45.6547C91.0011 45.7629 91.0486 45.7696 91.0768 45.7736C91.1394 45.7823 91.2663 45.755 91.3496 45.5973C92.6065 43.2166 92.8552 40.4245 92.1321 36.8108C90.425 28.2776 83.3449 22.0808 75.6335 22.0808ZM89.7856 45.8419C89.7861 45.8441 89.7864 45.8462 89.7869 45.8484L89.7862 45.845C89.7861 45.844 89.7858 45.8429 89.7856 45.8419Z" fill="#000072"/>
<path d="M80.6881 28.1381C79.8501 27.9993 79.0597 27.8695 78.2727 27.8021C77.4874 27.7349 76.7139 27.7096 75.944 27.7493C75.1745 27.782 74.4084 27.8947 73.6667 28.0906C72.924 28.2848 72.2098 28.576 71.5357 28.9365C70.1837 29.6557 69.0217 30.7041 68.1255 31.9346C67.6826 32.5548 67.3094 33.2236 67.0155 33.9251C66.7211 34.6265 66.5171 35.3638 66.393 36.1123C66.1348 37.608 66.2396 39.1676 66.6725 40.6226C67.1054 42.0778 67.8742 43.4339 68.91 44.5522C69.4306 45.1084 70.0097 45.6111 70.6377 46.0461C71.2688 46.4766 71.9503 46.834 72.6631 47.1132C73.3741 47.3988 74.1217 47.5931 74.8826 47.7037C75.6432 47.8162 76.4188 47.8477 77.1918 47.7883L77.3117 48.9322C75.603 49.1518 73.828 48.9734 72.1887 48.3846C71.3704 48.0884 70.5843 47.7001 69.8518 47.2264C69.1214 46.7497 68.4443 46.1892 67.8416 45.5559C67.2365 44.9249 66.7122 44.2169 66.2679 43.4626C66.0432 43.0865 65.8503 42.6924 65.6687 42.2935C65.5861 42.0906 65.5011 41.8884 65.4262 41.6825C65.3577 41.4744 65.2762 41.2704 65.22 41.0584C64.7195 39.3796 64.5938 37.5886 64.8947 35.8585C65.0472 34.9954 65.2929 34.148 65.6402 33.3442C65.9869 32.5403 66.4242 31.7767 66.9402 31.0713C67.9763 29.6635 69.3439 28.5029 70.9002 27.7187C72.4521 26.9242 74.1877 26.5101 75.9179 26.4978C77.6445 26.5023 79.3935 27.0328 80.6881 28.1381Z" fill="#000072"/>
<path d="M83.4876 58.3535C82.6462 58.9587 81.0979 57.6466 81.0203 57.5794C82.9445 60.2743 82.7134 65.6572 81.2996 65.3537C79.8892 65.0502 79.9806 63.7312 79.9806 63.7312C78.8599 67.0503 73.6925 72.5556 60.656 74.4815C59.8594 74.6004 59.0318 74.7056 58.1749 74.7953C43.3039 76.3539 36.4416 71.6918 34.5485 68.4917C34.5485 68.4917 34.9123 69.7641 33.5933 70.3538C32.2743 70.9435 30.9312 65.7209 32.2588 62.6864C32.2588 62.6864 30.976 64.3881 30.0036 63.9588C29.8105 63.8761 29.6967 63.664 29.6553 63.3657C29.476 62.1467 30.4829 59.4553 32.2588 57.8811C32.2588 57.8811 33.1829 39.0117 46.2591 32.4356C46.7022 32.2115 47.1626 32.0029 47.635 31.808C47.6367 31.8063 47.6367 31.8063 47.6385 31.8063L47.6298 31.715C47.554 30.9925 47.6281 30.4615 47.6281 30.4615C47.9661 30.4305 48.3143 30.4373 48.6609 30.4701C50.154 30.6029 51.5799 31.1891 51.5799 31.1891C49.6851 28.5459 50.8075 26.8614 50.8075 26.8614C54.7231 26.7183 57.6456 30.3666 57.6456 30.3666C64.6509 30.927 69.6959 34.9012 73.1994 39.3582C78.1374 45.6377 80.0185 52.8758 80.0185 52.8758C82.5893 54.3328 84.3531 57.7329 83.4876 58.3535Z" fill="#C9BADD"/>
<path d="M57.8917 72.4293C62.0851 71.99 65.1992 68.9111 64.8473 65.5524C64.4955 62.1937 60.8108 59.827 56.6174 60.2664C52.4241 60.7057 49.3099 63.7846 49.6618 67.1433C50.0137 70.502 53.6983 72.8686 57.8917 72.4293Z" fill="#EAE4F2"/>
<path d="M65.3705 49.2732C65.4973 48.4527 65.81 47.4496 66.5544 46.7281C67.754 45.5652 69.8277 46.2397 70.0293 47.8982C70.1103 48.5648 69.8474 49.2225 68.7702 49.5899C67.1081 50.1567 66.6143 50.0254 66.2317 50.0851C65.7361 50.1625 65.2939 49.769 65.3705 49.2732Z" fill="#EAE4F2"/>
<path d="M45.876 51.4727C45.5818 50.6963 45.0679 49.7797 44.1902 49.2282C42.7755 48.3394 40.8868 49.4292 41.0334 51.0934C41.0924 51.7624 41.4859 52.3513 42.6159 52.4873C44.3593 52.6972 44.8153 52.4664 45.2019 52.4454C45.7028 52.4184 46.0538 51.9418 45.876 51.4727Z" fill="#EAE4F2"/>
<g opacity="0.7">
<path d="M79.8696 52.3506C77.6581 46.7453 69.9382 32.9592 57.4139 31.8795C57.0939 31.8519 56.8012 31.6926 56.6045 31.4389C55.8038 30.4043 53.4987 27.6902 50.8081 26.8619C54.7235 26.7175 57.6453 30.3666 57.6453 30.3666C72.9372 31.5908 78.8876 49.0815 79.8696 52.3506Z" fill="white"/>
</g>
<g opacity="0.7">
<path d="M47.8588 33.9053L47.8615 33.9315C36.4968 38.5872 33.1683 52.1815 32.2708 57.6947C32.4134 55.6509 34.0579 37.3707 47.6388 31.807C47.6388 31.807 47.7713 33.1495 47.8588 33.9053Z" fill="white"/>
</g>
<g opacity="0.3">
<path d="M53.2617 35.581C53.2617 35.581 47.5124 38.4057 46.2589 32.4356C46.7031 32.2123 47.1618 32.0023 47.6356 31.8089C47.632 32.1844 47.7229 36.2045 53.2617 35.581Z" fill="#000072"/>
</g>
<g opacity="0.3">
<path d="M53.2616 35.581C53.2616 35.581 48.187 36.5986 47.6386 31.807L47.629 31.7155C47.5533 30.9931 47.6281 30.4616 47.6281 30.4616C47.9652 30.4312 48.5338 30.4592 48.8809 30.4922C48.9222 32.1945 49.3186 35.3202 53.2616 35.581Z" fill="#000072"/>
</g>
<g opacity="0.3">
<path d="M83.6253 58.1932C83.6367 58.1721 83.6467 58.1497 83.6557 58.1263C83.6588 58.1183 83.6624 58.1109 83.6652 58.1027C83.6756 58.0719 83.6844 58.0397 83.6911 58.0055C83.6939 57.9911 83.6953 57.9755 83.6975 57.9605C83.7002 57.9412 83.7031 57.922 83.7048 57.9018C83.707 57.8763 83.7078 57.8498 83.7084 57.8229C83.7085 57.8157 83.7087 57.8086 83.7087 57.8014C83.714 56.6082 82.1426 54.0796 80.0187 52.8759C80.0187 52.8759 78.1376 45.6377 73.1996 39.3583C73.4114 39.8818 73.6113 40.3974 73.7984 40.8967C74.8052 43.584 73.9904 46.6076 71.7818 48.4397C70.3102 49.6604 68.8316 51.4912 68.2132 54.1466C67.4318 57.4988 68.3753 60.1819 69.3826 61.9178C70.341 63.5695 70.0043 65.6672 68.5402 66.8932C67.3614 67.8801 66.055 68.6867 64.7718 69.3391C61.8879 70.8055 56.8588 71.9786 53.6239 72.0303C40.1617 72.2455 35.8471 65.9272 35.0443 64.1972C34.9564 64.0079 34.6952 63.9858 34.5813 64.1606C34.4738 64.3256 34.3627 64.5106 34.2622 64.6841C34.1357 64.9027 33.8048 64.8358 33.7693 64.5857C33.5681 63.1645 33.6168 61.8041 33.7176 60.7913C33.7712 60.2531 33.1168 59.9496 32.7402 60.3378C31.1737 61.9519 30.2343 63.0059 29.655 63.3665C29.6962 63.6645 29.8108 63.8755 30.003 63.9595C30.9764 64.3878 32.2587 62.6872 32.2587 62.6872C30.9311 65.7209 32.2747 70.943 33.5942 70.3537C34.912 69.7645 34.549 68.4924 34.549 68.4924C36.4424 71.6925 43.3035 76.3545 58.1748 74.7958C63.1908 74.2701 67.1672 73.2407 70.2821 71.9724C70.2844 71.9715 70.2867 71.9706 70.2889 71.9696C70.4201 71.9162 70.5498 71.8623 70.6779 71.808C70.6849 71.805 70.6919 71.8021 70.6989 71.7991C70.8234 71.7462 70.9465 71.693 71.0681 71.6394C71.0781 71.6351 71.088 71.6307 71.098 71.6262C71.2175 71.5734 71.3357 71.5203 71.4525 71.4668C71.4632 71.4619 71.4738 71.4569 71.4845 71.452C71.6007 71.3986 71.7157 71.3449 71.8291 71.2909C71.8391 71.2862 71.849 71.2814 71.859 71.2766C71.9733 71.2219 72.0865 71.1671 72.1981 71.1118C72.2049 71.1084 72.2115 71.1051 72.2183 71.1017C72.333 71.0448 72.4465 70.9876 72.5584 70.9301C72.5592 70.9297 72.56 70.9292 72.5609 70.9288C73.4802 70.4558 74.3028 69.9629 75.0361 69.4605C75.0499 69.4511 75.0641 69.4416 75.0778 69.4321C75.152 69.381 75.2248 69.3298 75.2972 69.2785C75.318 69.2638 75.3391 69.2491 75.3597 69.2343C75.4266 69.1865 75.4923 69.1387 75.5576 69.0907C75.5828 69.0722 75.6082 69.0538 75.6332 69.0352C75.6947 68.9897 75.7553 68.944 75.8154 68.8982C75.8426 68.8775 75.8699 68.8568 75.8969 68.8361C75.9545 68.7918 76.0112 68.7475 76.0675 68.7032C76.0957 68.6809 76.1239 68.6587 76.1518 68.6364C76.2058 68.5933 76.2591 68.5502 76.3119 68.5071C76.3409 68.4834 76.3698 68.4597 76.3984 68.436C76.449 68.3941 76.4992 68.3522 76.5486 68.3103C76.5784 68.2851 76.6077 68.2599 76.6371 68.2347C76.6843 68.1941 76.7313 68.1534 76.7775 68.1128C76.8078 68.0862 76.8377 68.0595 76.8675 68.0329C76.9116 67.9936 76.9554 67.9543 76.9985 67.915C77.0292 67.887 77.0593 67.859 77.0896 67.831C77.1308 67.7927 77.1721 67.7545 77.2124 67.7163C77.2429 67.6874 77.2726 67.6586 77.3025 67.6298C77.3412 67.5925 77.3801 67.5552 77.418 67.5179C77.449 67.4875 77.479 67.4571 77.5094 67.4267C77.545 67.391 77.5808 67.3554 77.6156 67.3198C77.6478 67.287 77.6789 67.2542 77.7104 67.2213C77.7421 67.1883 77.7743 67.1552 77.8054 67.1222C77.844 67.0812 77.8813 67.0403 77.9188 66.9994C77.9414 66.9748 77.9646 66.9502 77.9868 66.9256C78.0464 66.8597 78.1048 66.7939 78.1618 66.7283C78.1693 66.7196 78.1765 66.7109 78.1841 66.7022C78.2337 66.6447 78.2826 66.5874 78.3302 66.5302C78.3436 66.5141 78.3564 66.4981 78.3697 66.4819C78.4107 66.4322 78.4514 66.3825 78.4909 66.3331C78.5055 66.3148 78.5194 66.2967 78.5338 66.2784C78.5708 66.2314 78.6077 66.1845 78.6434 66.1377C78.6582 66.1184 78.6723 66.0992 78.6868 66.08C78.7215 66.034 78.7559 65.9881 78.7893 65.9424C78.8027 65.924 78.8157 65.9057 78.8289 65.8873C78.8624 65.8409 78.8955 65.7946 78.9277 65.7484C78.9399 65.7308 78.9518 65.7134 78.9638 65.6959C78.9959 65.6492 79.0275 65.6027 79.0583 65.5563C79.0695 65.5396 79.0804 65.5228 79.0913 65.5061C79.1223 65.4588 79.1527 65.4117 79.1823 65.3648C79.1919 65.3497 79.2014 65.3345 79.2108 65.3194C79.2411 65.2709 79.2707 65.2226 79.2995 65.1744C79.3074 65.1612 79.3152 65.148 79.3231 65.1348C79.353 65.0843 79.3821 65.0341 79.4104 64.9841C79.4163 64.9737 79.4222 64.9633 79.428 64.9529C79.4576 64.9001 79.4863 64.8476 79.5142 64.7954C79.5182 64.7878 79.5223 64.7802 79.5263 64.7726C79.5561 64.7164 79.5848 64.6606 79.6125 64.6053C79.6142 64.602 79.6159 64.5986 79.6175 64.5953C79.7671 64.2952 79.8877 64.0066 79.9802 63.733C79.9791 63.75 79.9358 64.4875 80.5098 64.9808C80.6986 65.1432 80.9534 65.2793 81.2997 65.3539C82.7135 65.6573 82.9446 60.275 81.0207 57.58C81.0275 57.5858 81.0471 57.6024 81.0778 57.6275C81.0785 57.6281 81.0792 57.6287 81.08 57.6293C81.0874 57.6353 81.0955 57.6419 81.104 57.6487C81.1089 57.6527 81.1137 57.6565 81.119 57.6607C81.1253 57.6657 81.132 57.6711 81.1388 57.6764C81.1473 57.6832 81.1559 57.6899 81.1652 57.6972C81.1706 57.7013 81.1763 57.7057 81.1819 57.7101C81.1932 57.7188 81.2047 57.7277 81.217 57.7371C81.2225 57.7412 81.2281 57.7455 81.2338 57.7497C81.2469 57.7597 81.2604 57.7697 81.2745 57.7802C81.2807 57.7848 81.287 57.7894 81.2934 57.7941C81.3076 57.8046 81.3221 57.8152 81.3373 57.8261C81.3443 57.8312 81.3515 57.8363 81.3587 57.8415C81.3741 57.8524 81.3897 57.8635 81.4058 57.8748C81.4137 57.8803 81.4216 57.8858 81.4296 57.8913C81.4457 57.9025 81.462 57.9137 81.4788 57.9251C81.4879 57.9312 81.497 57.9373 81.5062 57.9435C81.5225 57.9545 81.5391 57.9654 81.556 57.9765C81.5664 57.9833 81.5768 57.9901 81.5874 57.9969C81.6038 58.0074 81.6202 58.0179 81.6371 58.0285C81.6488 58.0358 81.6606 58.0432 81.6726 58.0506C81.689 58.0608 81.7057 58.0709 81.7226 58.081C81.7353 58.0887 81.748 58.0962 81.7609 58.1039C81.7775 58.1137 81.7943 58.1234 81.8112 58.1331C81.8249 58.1409 81.8387 58.1487 81.8526 58.1565C81.869 58.1657 81.8855 58.1747 81.9021 58.1837C81.9171 58.1919 81.9322 58.2 81.9475 58.208C81.9635 58.2165 81.9796 58.2247 81.9958 58.233C82.0119 58.2412 82.0279 58.2493 82.0442 58.2573C82.06 58.2651 82.0758 58.2726 82.0918 58.2801C82.1087 58.2882 82.1255 58.2961 82.1426 58.3038C82.1582 58.311 82.174 58.3178 82.1897 58.3247C82.2073 58.3323 82.2249 58.34 82.2426 58.3473C82.258 58.3537 82.2734 58.3597 82.2889 58.3658C82.3071 58.373 82.3252 58.3802 82.3436 58.387C82.3586 58.3925 82.3736 58.3977 82.3887 58.403C82.4076 58.4097 82.4265 58.4162 82.4455 58.4224C82.46 58.4271 82.4746 58.4313 82.4891 58.4357C82.5084 58.4415 82.5277 58.4474 82.547 58.4526C82.5615 58.4565 82.5759 58.4599 82.5903 58.4635C82.6098 58.4683 82.6293 58.4732 82.6487 58.4774C82.6627 58.4804 82.6765 58.4828 82.6905 58.4854C82.7103 58.4892 82.7302 58.493 82.7499 58.496C82.7633 58.4981 82.7766 58.4994 82.7899 58.5011C82.8099 58.5036 82.83 58.5063 82.8498 58.5079C82.863 58.509 82.8761 58.5093 82.8892 58.5101C82.909 58.5111 82.9288 58.5124 82.9484 58.5125C82.9612 58.5126 82.9737 58.5118 82.9863 58.5115C83.0061 58.511 83.0259 58.5107 83.0454 58.5092C83.0572 58.5082 83.0688 58.5064 83.0806 58.5051C83.1005 58.5028 83.1205 58.5008 83.1401 58.4974C83.1512 58.4954 83.1619 58.4925 83.1729 58.4902C83.1927 58.4859 83.2127 58.482 83.2321 58.4765C83.2422 58.4736 83.2519 58.4696 83.2618 58.4664C83.2817 58.46 83.3018 58.4538 83.3212 58.4458C83.329 58.4427 83.3365 58.4384 83.3442 58.4349C83.3937 58.4129 83.4419 58.3868 83.4877 58.3539C83.5128 58.336 83.535 58.315 83.5557 58.2925C83.561 58.2867 83.5657 58.2803 83.5707 58.2743C83.5854 58.2566 83.599 58.2377 83.6113 58.2176C83.6161 58.2096 83.6209 58.2015 83.6253 58.1932Z" fill="#000072"/>
</g>
<path d="M68.3573 60.4464C70.1288 59.99 71.079 57.7341 70.4796 55.4076C69.8803 53.0811 67.9582 51.5652 66.1867 52.0216C64.4151 52.478 63.4649 54.734 64.0643 57.0605C64.6637 59.3869 66.5857 60.9029 68.3573 60.4464Z" fill="#000072"/>
<path d="M66.6041 56.8908C67.1216 56.7575 67.3991 56.0986 67.2241 55.4191C67.049 54.7395 66.4876 54.2968 65.9701 54.4301C65.4527 54.5634 65.1751 55.2223 65.3502 55.9018C65.5253 56.5814 66.0867 57.0242 66.6041 56.8908Z" fill="white"/>
<path d="M52.5781 75.7052C43.2612 75.7056 37.51 72.9761 34.904 69.9969C34.6962 70.3465 34.3603 70.6723 33.8398 70.905C33.3818 71.1099 32.8842 70.9938 32.4743 70.5873C31.475 69.5957 30.8801 66.819 31.1904 64.4087C30.7443 64.631 30.2473 64.7266 29.7593 64.5119C29.4958 64.3957 29.1603 64.1219 29.0594 63.4761C28.8358 62.0465 29.9011 59.2898 31.6724 57.6015C31.7503 56.4989 32.1647 51.9939 33.9835 46.8537C36.6573 39.2973 41.1524 33.9716 47.0008 31.4209C46.9702 30.8181 47.0269 30.3995 47.0298 30.3782C47.0686 30.1002 47.2938 29.8856 47.5735 29.8604C48.4974 29.7771 49.4956 29.9452 50.2909 30.1452C49.3676 27.982 50.2604 26.5961 50.3065 26.5269C50.414 26.3658 50.5924 26.2662 50.7861 26.259C54.4462 26.1251 57.2343 28.9818 57.9437 29.7867C64.9352 30.4314 71.0595 34.5815 75.6692 41.8028C78.7847 46.6836 80.2213 51.365 80.5372 52.4807C82.6196 53.7654 84.2327 56.2407 84.3105 57.6852C84.3458 58.3378 84.0743 58.6754 83.8404 58.8437C83.4078 59.1546 82.9009 59.1646 82.4191 59.0396C83.2224 61.3332 83.2162 64.1727 82.4443 65.35C82.1278 65.8328 81.6648 66.0489 81.1742 65.9441C80.6167 65.8243 80.2207 65.5752 79.9448 65.2763C77.6486 69.3829 70.9292 74.0666 58.2377 75.3967C56.2229 75.6079 54.3362 75.7052 52.5781 75.7052ZM34.5488 67.8891C34.7566 67.8891 34.9568 67.9966 35.0685 68.1852C35.5861 69.0603 37.2683 71.2674 41.6993 72.8613C46.0638 74.4311 51.5855 74.8805 58.112 74.1965C64.6382 73.5124 69.947 71.9281 73.8911 69.4875C77.8955 67.0094 79.0835 64.5015 79.4086 63.5382C79.5055 63.2506 79.8009 63.0797 80.0987 63.1393C80.3962 63.1988 80.6033 63.4702 80.5823 63.773C80.5748 63.9522 80.6101 64.5665 81.3853 64.7543C81.4536 64.6814 81.5985 64.4401 81.7003 63.91C82.0167 62.2632 81.6579 59.508 80.5264 57.9286C80.3482 57.6797 80.3845 57.3368 80.611 57.1309C80.8374 56.9247 81.1822 56.9211 81.4131 57.1219C81.9168 57.5575 82.7802 58.0392 83.1032 57.8831C83.2603 57.3202 81.9778 54.6797 79.7222 53.4006C79.5803 53.3202 79.4769 53.1854 79.4359 53.0276C79.4222 52.9754 78.0352 47.742 74.6346 42.425C70.1199 35.3662 64.3875 31.5116 57.5966 30.9682C57.4306 30.9549 57.2775 30.8737 57.1736 30.7437C57.1475 30.7114 54.5734 27.5613 51.1938 27.4636C51.0269 27.966 50.8617 29.1526 52.0708 30.837C52.2278 31.0557 52.2209 31.3519 52.054 31.5631C51.8868 31.7742 51.6005 31.8491 51.3513 31.7471C51.3335 31.7398 49.7007 31.0798 48.1986 31.0465C48.1979 31.233 48.2063 31.4607 48.235 31.7116L48.2378 31.7332C48.2708 32.0031 48.1191 32.2617 47.8674 32.3647C40.6502 35.3219 36.9583 42.0789 35.132 47.2266C33.1327 52.8621 32.8648 57.8612 32.8624 57.9111C32.8543 58.0732 32.7814 58.2254 32.6598 58.3332C30.7183 60.0522 30.0112 62.9013 30.2817 63.4194C30.6284 63.5045 31.3747 62.8549 31.7775 62.3237C31.9624 62.0798 32.3009 62.0124 32.5641 62.1676C32.8279 62.3223 32.9344 62.6496 32.8118 62.9296C32.0325 64.7092 32.2527 67.4788 32.9035 69.0244C33.1131 69.5218 33.3048 69.7278 33.3867 69.7851C34.1591 69.4149 33.991 68.7359 33.9688 68.6583C33.8855 68.3666 34.0319 68.0582 34.3107 67.9383C34.3881 67.9049 34.4689 67.8891 34.5488 67.8891Z" fill="#000072"/>
<path d="M51.9016 30.6778C52.0547 30.8035 52.2122 30.9373 52.3651 31.0725L52.8231 31.486L53.2794 31.9066C53.4311 32.0511 53.574 32.2049 53.7285 32.371C53.5001 32.3923 53.2763 32.3626 53.0651 32.3188C52.8537 32.2727 52.6489 32.2118 52.445 32.1502C52.242 32.0866 52.041 32.0187 51.8435 31.9445C51.6455 31.8696 51.4534 31.7909 51.2596 31.6999L51.9016 30.6778Z" fill="#000072"/>
<path d="M48.2386 31.7998C48.2406 31.8082 48.2436 31.8498 48.2462 31.8786L48.2568 31.9775C48.2653 32.0444 48.2743 32.1129 48.2858 32.181C48.3097 32.3171 48.3373 32.4537 48.3732 32.5874C48.4444 32.8552 48.5411 33.1133 48.6656 33.3535C48.911 33.836 49.2728 34.2451 49.7376 34.5529C49.9677 34.7098 50.2264 34.8379 50.4994 34.9437L50.7069 35.02C50.7783 35.0404 50.8501 35.061 50.9216 35.0838C51.0635 35.1322 51.2136 35.1609 51.3612 35.2027C51.9594 35.3525 52.5933 35.4428 53.2621 35.5796C52.6394 35.8572 51.9648 35.9971 51.27 35.9947C51.0966 35.986 50.9214 35.9892 50.7468 35.9609C50.6592 35.9503 50.5717 35.9385 50.4842 35.9247L50.2225 35.8681C49.8751 35.7837 49.5226 35.6751 49.1928 35.4997C48.8632 35.3272 48.5478 35.1108 48.2714 34.8476C47.998 34.582 47.7591 34.2776 47.5737 33.9465C47.3896 33.6147 47.2455 33.2634 47.1576 32.9007C47.1091 32.7204 47.0785 32.5364 47.0557 32.351C47.0443 32.2582 47.0356 32.165 47.0322 32.0697C47.0298 32.0226 47.0289 31.9741 47.0283 31.9253C47.0278 31.8729 47.0289 31.8332 47.0323 31.7603L48.2386 31.7998Z" fill="#000072"/>
<g opacity="0.3">
<path d="M62.8493 63.5901C62.3114 66.7269 59.3659 66.0531 58.6283 65.8321C58.5274 65.8019 58.4543 65.7149 58.4433 65.6101C58.4306 65.4894 58.5041 65.3784 58.6183 65.3375C61.129 64.438 62.7175 61.7902 62.1943 59.0643C61.4736 55.3103 59.1852 53.5178 57.5502 52.6976C56.4598 52.1506 55.1574 52.2871 54.2041 53.0483C52.7746 54.1896 50.9076 56.4177 50.981 60.2396C51.0338 62.9912 53.102 65.2371 55.713 65.6252C55.8318 65.6428 55.925 65.7357 55.9375 65.8551L55.9393 65.8725C55.9503 65.9773 55.8968 66.0775 55.8043 66.128C55.1286 66.4972 52.3868 67.7671 51.2102 64.8099C51.2102 64.8099 49.1399 70.7399 57.622 69.8509C66.1041 68.9619 62.8493 63.5901 62.8493 63.5901Z" fill="#000072"/>
</g>
<path d="M62.1258 58.4106C61.4052 54.657 59.1172 52.8645 57.4822 52.0442C56.3913 51.4969 55.0888 51.6334 54.1352 52.395C52.7058 53.5365 50.8391 55.7644 50.9125 59.5859C50.9735 62.7614 53.7178 65.2657 56.8841 65.0155C56.9706 65.0086 57.0583 65.0006 57.1473 64.9912C57.2363 64.9819 57.3238 64.9716 57.4098 64.9604C60.559 64.5486 62.7246 61.5298 62.1258 58.4106Z" fill="#000072"/>
<path d="M57.644 64.3037C57.6715 64.3919 57.685 64.4422 57.7012 64.5091C57.7162 64.5723 57.7291 64.6344 57.7405 64.6969C57.7633 64.8219 57.7816 64.9469 57.7905 65.0739C57.809 65.3271 57.8076 65.5853 57.7719 65.8469C57.6985 66.3651 57.4924 66.909 57.1218 67.3334C56.7556 67.7595 56.2776 68.0526 55.7975 68.2242C55.3137 68.3925 54.8367 68.475 54.3569 68.5C53.8748 68.5216 53.3687 68.4892 52.87 68.3297C52.6208 68.2516 52.3793 68.133 52.1555 67.9873C51.9319 67.8397 51.7328 67.6551 51.5656 67.4519C51.3987 67.2475 51.2646 67.0239 51.1606 66.7939C51.0576 66.5636 50.9786 66.3279 50.9443 66.0872C50.9087 65.847 50.9105 65.6052 50.9516 65.3695C50.9951 65.1345 51.0694 64.902 51.2153 64.6924C51.451 65.1318 51.5986 65.5105 51.7569 65.867C51.836 66.0432 51.9055 66.216 51.9977 66.3718C52.0892 66.5275 52.1963 66.6669 52.3168 66.7854C52.7878 67.27 53.507 67.3967 54.2663 67.3075C54.6475 67.2641 55.0289 67.1889 55.3575 67.0586C55.6833 66.9224 55.9626 66.7476 56.161 66.514C56.356 66.2802 56.4905 65.9936 56.5467 65.6586C56.5781 65.4928 56.5904 65.3166 56.5872 65.1383C56.5847 65.0493 56.5821 64.9589 56.5727 64.8701C56.5686 64.8257 56.5631 64.7812 56.5567 64.7385L56.5404 64.6282L57.644 64.3037Z" fill="#000072"/>
<path d="M57.6655 64.5102L57.6725 64.6215C57.6751 64.6647 57.679 64.7092 57.6842 64.7535C57.6933 64.8425 57.7095 64.9314 57.7256 65.019C57.7595 65.1941 57.808 65.3639 57.8731 65.5196C57.9976 65.8356 58.1885 66.0882 58.4278 66.2764C58.6703 66.4638 58.9797 66.577 59.3268 66.6427C59.6753 66.7019 60.0639 66.6964 60.4458 66.6598C61.2071 66.5896 61.8844 66.3167 62.2447 65.7449C62.338 65.6038 62.4139 65.4454 62.4711 65.2741C62.529 65.1026 62.5612 64.9191 62.6021 64.7304C62.683 64.3487 62.7489 63.9477 62.8883 63.469C63.0745 63.6438 63.1953 63.8558 63.2867 64.0767C63.3758 64.2988 63.4277 64.5349 63.4427 64.7772C63.459 65.0199 63.4306 65.2668 63.3775 65.5134C63.3235 65.7599 63.2387 66.0066 63.1179 66.2411C62.9964 66.4746 62.8399 66.6964 62.6517 66.8872C62.463 67.0762 62.2513 67.2423 62.0237 67.3703C61.569 67.6298 61.0806 67.7665 60.6045 67.8452C60.13 67.9203 59.6462 67.9384 59.138 67.8741C58.6328 67.8058 58.1044 67.6182 57.6578 67.2771C57.2074 66.9389 56.8929 66.4496 56.7136 65.9578C56.6244 65.7094 56.5695 65.4569 56.5351 65.2054C56.5175 65.0795 56.5095 64.9532 56.506 64.8264C56.5041 64.7629 56.5039 64.6993 56.5055 64.6345C56.5074 64.5657 56.5102 64.5136 56.5188 64.4216L57.6655 64.5102Z" fill="#000072"/>
<path d="M57.2296 66.1071C57.2296 66.1071 55.8296 68.4593 52.433 67.6234C52.433 67.6234 54.2124 71.2367 57.7627 70.8646C61.3131 70.4925 62.3046 66.5888 62.3046 66.5888C59.197 67.9709 57.2296 66.1071 57.2296 66.1071Z" fill="#000072"/>
<path d="M60.8295 69.2756C60.13 70.047 59.1393 70.7211 57.7628 70.8654C56.3879 71.0094 55.2789 70.5555 54.4347 69.9458L54.4361 69.9441C54.4361 69.9441 57.189 66.8077 60.8278 69.2742L60.8295 69.2756Z" fill="#FF4A9C"/>
<path d="M57.2412 71.4672C53.7276 71.4672 51.993 68.0314 51.9171 67.8775C51.8182 67.677 51.8448 67.4372 51.9849 67.263C52.1249 67.0889 52.3531 67.0121 52.5705 67.0649C55.4866 67.7827 56.6878 65.8904 56.7375 65.8096C56.8281 65.6619 56.9818 65.5613 57.1536 65.5387C57.325 65.5163 57.4974 65.5699 57.6228 65.6874C57.697 65.7557 59.3773 67.2609 62.0709 66.0633C62.2725 65.9739 62.507 66.0072 62.6755 66.1492C62.8438 66.2911 62.9163 66.517 62.8621 66.7304C62.8176 66.9056 61.727 71.0275 57.8227 71.4366C57.6237 71.4573 57.43 71.4672 57.2412 71.4672ZM53.6098 68.3702C54.3523 69.297 55.7176 70.5 57.7028 70.2926C59.711 70.0822 60.7993 68.5902 61.3268 67.5265C59.4381 67.9692 58.0443 67.3501 57.3422 66.9052C56.6733 67.6341 55.4155 68.4332 53.6098 68.3702Z" fill="#000072"/>
<path d="M48.7103 58.6818C48.7883 56.2806 47.3694 54.2859 45.5409 54.2264C43.7125 54.167 42.167 56.0653 42.0889 58.4665C42.0108 60.8676 43.4298 62.8624 45.2582 62.9218C47.0866 62.9813 48.6322 61.0829 48.7103 58.6818Z" fill="#000072"/>
<path d="M47.2026 57.8313C47.2254 57.1299 46.811 56.5473 46.2769 56.5299C45.7428 56.5126 45.2914 57.067 45.2686 57.7684C45.2458 58.4697 45.6602 59.0523 46.1943 59.0697C46.7284 59.0871 47.1798 58.5326 47.2026 57.8313Z" fill="white"/>
<path d="M99.8088 86.3197C99.8088 86.7801 99.6657 87.2042 99.4209 87.5542C99.0312 88.1146 98.383 88.4818 97.6467 88.4818C96.4536 88.4818 95.4863 87.5146 95.4863 86.3197C95.4863 85.1266 96.4536 84.1593 97.6467 84.1593C98.2623 84.1593 98.8192 84.4162 99.2123 84.83C99.583 85.218 99.8088 85.7421 99.8088 86.3197Z" fill="#C9BADD"/>
<g opacity="0.3">
<path d="M99.4209 87.5542C99.0312 88.1146 98.3829 88.4818 97.6467 88.4818C96.3748 88.4818 95.3596 87.3826 95.4992 86.0802C95.6048 85.0955 96.396 84.2932 97.3794 84.1754C98.0996 84.0891 98.7629 84.3571 99.2123 84.83C98.9778 85.2685 98.6831 85.766 98.3407 86.23C97.9026 86.8236 98.3548 87.667 99.0892 87.5972C99.1931 87.5873 99.3036 87.5732 99.4209 87.5542Z" fill="#000072"/>
</g>
<path d="M97.6475 88.9126C96.2181 88.9126 95.0551 87.7496 95.0551 86.3202C95.0551 84.8907 96.2181 83.7277 97.6475 83.7277C99.077 83.7277 100.24 84.8907 100.24 86.3202C100.24 87.7496 99.077 88.9126 97.6475 88.9126ZM97.6475 84.5898C96.6934 84.5898 95.9172 85.366 95.9172 86.3202C95.9172 87.2743 96.6934 88.0505 97.6475 88.0505C98.6016 88.0505 99.3779 87.2743 99.3779 86.3202C99.3779 85.366 98.6016 84.5898 97.6475 84.5898Z" fill="#000072"/>
<path d="M97.3778 86.1818C94.3501 89.6733 89.7793 89.9629 89.7793 89.9629C88.5344 84.4714 85.2619 80.761 85.2619 80.761C81.455 80.6955 79.7187 79.8644 79.7187 79.8644C74.8428 79.661 75.71 76.4833 75.71 76.4833C75.5634 76.3488 75.4393 76.2126 75.3393 76.0764C74.2375 74.597 75.71 73.1401 75.71 73.1401C75.6738 71.6987 77.1945 71.6004 77.1945 71.6004C83.4929 71.4832 87.6792 70.3763 87.6792 70.3763C102.511 67.8158 100.599 82.4679 97.3778 86.1818Z" fill="#C9BADD"/>
<g opacity="0.3">
<path d="M97.3776 86.1818C94.3499 89.6733 89.7791 89.9629 89.7791 89.9629C88.5343 84.4714 85.2618 80.761 85.2618 80.761C81.4548 80.6955 79.7186 79.8644 79.7186 79.8644C74.8426 79.661 75.7099 76.4833 75.7099 76.4833C76.7268 78.1889 78.6672 78.404 79.3672 78.4242C79.5607 78.4298 79.7528 78.4577 79.9401 78.5067C84.8242 79.7863 89.2229 79.6727 91.3562 79.5003C91.6902 79.4733 91.8256 79.9209 91.5334 80.0849C90.7107 80.5467 89.8951 80.9161 89.2439 81.1838C88.5812 81.4563 88.3302 82.2546 88.7039 82.866C89.234 83.7331 89.6771 84.6825 90.0224 85.5255C90.6694 87.105 92.6169 87.7278 94.0181 86.753C97.8083 84.1161 97.8337 78.397 97.7063 76.3167C97.6905 76.0599 97.4264 75.9135 97.1881 76.0107C96.8926 76.1315 96.5872 75.9868 96.3973 75.8589C96.2614 75.7674 96.0938 75.7377 95.935 75.7782C83.3794 78.982 77.1944 71.6004 77.1944 71.6004C83.4928 71.4832 87.6791 70.3763 87.6791 70.3763C102.511 67.8158 100.598 82.4679 97.3776 86.1818Z" fill="#000072"/>
</g>
<path d="M89.7797 90.3942C89.5798 90.3942 89.4043 90.2558 89.3597 90.0584C88.2863 85.3234 85.6492 81.9093 85.0571 81.1871C81.7505 81.1076 80.0148 80.4583 79.619 80.2906C77.7524 80.1994 76.4531 79.6699 75.7561 78.7165C75.1731 77.9191 75.1897 77.0545 75.2451 76.6314C74.7617 76.1265 74.511 75.5608 74.4991 74.9467C74.4812 74.0212 75.0272 73.2699 75.2816 72.971C75.3462 71.6441 76.5251 71.2113 77.166 71.1698C77.1726 71.1693 77.1791 71.169 77.1859 71.169C83.3532 71.0546 87.5274 69.9703 87.5687 69.9595C87.5809 69.9563 87.5933 69.9536 87.6056 69.9514C94.5098 68.7592 97.5341 71.301 98.855 73.6425C101.217 77.8289 99.7262 84.132 97.7037 86.464C94.5934 90.0504 90.0013 90.3811 89.8073 90.3933C89.7982 90.394 89.7889 90.3942 89.7797 90.3942ZM77.2147 72.0308C77.0101 72.0482 76.117 72.1788 76.1414 73.1283C76.1445 73.2472 76.0982 73.3621 76.0135 73.4459C76.0079 73.4515 75.3427 74.1282 75.3612 74.9353C75.3711 75.3718 75.5864 75.7856 76.0009 76.1651C76.12 76.2742 76.1682 76.4408 76.1257 76.5966C76.1171 76.6296 75.9069 77.4716 76.4591 78.2173C76.9986 78.9457 78.1322 79.3661 79.7373 79.4331C79.7956 79.4355 79.8529 79.4497 79.9056 79.475C79.9211 79.4824 81.6277 80.2679 85.2686 80.3292C85.3896 80.3312 85.5043 80.3842 85.5844 80.475C85.7181 80.6263 88.8004 84.165 90.1116 89.4921C91.2213 89.3385 94.6639 88.6532 97.0525 85.8991C98.9377 83.7254 100.21 77.7989 98.1042 74.0661C96.4069 71.0575 92.8326 69.9279 87.7693 70.798C87.4471 70.8802 83.268 71.9171 77.2147 72.0308Z" fill="#000072"/>
<path d="M85.2258 80.3306C85.5722 80.3106 85.9266 80.2891 86.2785 80.2753L87.3365 80.2224L88.3961 80.1638C88.7505 80.1455 89.1063 80.1359 89.4731 80.1408C89.1502 80.3152 88.8092 80.4441 88.4646 80.5511C88.1193 80.6561 87.7695 80.7387 87.4195 80.8214C87.0691 80.9021 86.7169 80.9701 86.3636 81.0324C86.0097 81.0977 85.6577 81.149 85.2965 81.1898L85.2258 80.3306Z" fill="#000072"/>
<path d="M85.9098 57.3469C85.0075 60.9698 81.737 63.4509 78.1242 63.4849C77.6047 63.4903 77.0781 63.4445 76.5514 63.3443C74.9269 63.0357 73.5161 62.2686 72.4207 61.2067L72.3581 61.4055C72.2502 61.7433 71.8367 61.8599 71.5629 61.6358C70.988 61.1613 70.2313 60.1827 70.413 58.383C70.4132 58.3822 70.4132 58.3822 70.4132 58.3822C70.4156 58.362 70.3871 58.3569 70.3812 58.3755C70.3796 58.3823 70.3772 58.389 70.3747 58.3964C70.3003 58.6117 70.1086 58.6859 69.9334 58.6384C69.9116 58.6325 69.8901 58.6251 69.87 58.6156C69.7686 58.5702 69.6799 58.4815 69.6319 58.3551C69.1668 57.1186 69.155 55.6805 69.7892 53.786C71.2106 49.545 75.5471 46.4836 79.9005 47.5035C82.0897 48.0164 83.862 49.3736 84.9526 51.1492C85.1569 51.4818 85.3377 51.8296 85.4924 52.1897C86.1684 53.7587 86.3559 55.5554 85.9098 57.3469Z" fill="#C9BADD"/>
<path d="M81.6073 59.078C83.6683 57.017 83.6683 53.6753 81.6073 51.6143C79.5463 49.5532 76.2046 49.5532 74.1436 51.6143C72.0826 53.6753 72.0826 57.017 74.1436 59.078C76.2046 61.139 79.5463 61.139 81.6073 59.078Z" fill="#EAE4F2"/>
<g opacity="0.5">
<path d="M86.152 55.3146C86.1219 51.6653 83.6107 48.373 79.9005 47.5037C75.5467 46.4837 71.2102 49.5453 69.7893 53.7859C69.336 55.1393 69.2141 56.2589 69.3502 57.2393C69.3596 56.4692 69.5137 55.6131 69.8414 54.6345C70.9416 51.3512 73.7897 48.7753 77.0402 48.2528C77.3076 48.5198 77.9686 48.7521 78.7575 48.827C79.6045 48.9074 80.3404 48.7818 80.6146 48.5375C83.6798 49.5328 85.7986 52.2312 86.152 55.3146Z" fill="white"/>
</g>
<g opacity="0.3">
<path d="M85.4925 52.1897C84.4459 52.3611 83.4866 52.6449 82.6081 53.0083C81.9335 51.6446 80.6773 50.5817 79.0802 50.2075C78.0704 49.9709 77.0609 50.0429 76.1487 50.36C76.6169 50.3406 77.0952 50.3822 77.5737 50.4943C77.591 50.4983 77.6084 50.5025 77.6256 50.5067C79.8564 51.0528 80.5233 53.8846 78.8052 55.4086C76.7733 57.2108 75.5402 59.3021 74.927 60.5424C74.6431 61.1167 73.9064 61.2873 73.3942 60.9024C72.8347 60.482 72.3566 60.0741 72.1123 59.8601C72.0237 59.7825 71.8858 59.8204 71.847 59.9316C71.7916 60.0904 71.762 60.2292 71.7471 60.3434C71.7303 60.4727 71.5686 60.5188 71.4839 60.4196C70.7421 59.5501 70.4131 58.383 70.4131 58.383C70.2314 60.1828 70.9881 61.1614 71.563 61.6359C71.8368 61.86 72.2503 61.7433 72.3582 61.4056L72.4208 61.2067C73.5162 62.2686 74.927 63.0358 76.5515 63.3444C77.0782 63.4446 77.6049 63.4904 78.1243 63.485C81.7371 63.451 85.0076 60.9698 85.91 57.3469C86.356 55.5554 86.1685 53.7587 85.4925 52.1897Z" fill="#000072"/>
</g>
<path d="M78.0644 63.9183C77.5382 63.9183 77.0055 63.8693 76.4709 63.7677C75.0121 63.4906 73.6671 62.8496 72.5483 61.9031C72.4392 62.0147 72.3019 62.0987 72.1475 62.1442C71.8499 62.2316 71.5294 62.166 71.2892 61.9681C70.7869 61.5539 70.0109 60.6622 69.9578 59.0802C69.6359 59.0497 69.3498 58.8282 69.2288 58.5074C68.6964 57.0926 68.7448 55.5488 69.3809 53.6491C70.9574 48.9422 75.6228 46.0592 79.9989 47.0841C82.2387 47.6089 84.1326 48.9792 85.3318 50.9427C86.5307 52.9057 86.8847 55.2169 86.3284 57.4508C85.3681 61.3072 81.903 63.9181 78.0644 63.9183ZM72.4213 60.7756C72.5319 60.7756 72.64 60.8183 72.7213 60.8972C73.7962 61.9392 75.1482 62.639 76.6317 62.9208C80.6182 63.6784 84.5103 61.1841 85.4918 57.2424C85.9919 55.2344 85.6737 53.1566 84.596 51.3921C83.5181 49.6271 81.8155 48.3952 79.8023 47.9234C75.8532 46.9983 71.6349 49.6337 70.1984 53.9229C69.6374 55.5983 69.5785 56.9427 70.0149 58.1474C70.1112 57.9883 70.2993 57.9033 70.4887 57.9422C70.7128 57.9894 70.8646 58.1969 70.8419 58.425C70.6838 59.9951 71.296 60.8567 71.8375 61.3028C71.8627 61.3237 71.8876 61.3223 71.9039 61.3172C71.9366 61.3075 71.9445 61.2828 71.9471 61.2746L72.0107 61.0755C72.0562 60.9334 72.1719 60.8249 72.3165 60.7886C72.3511 60.7798 72.3864 60.7756 72.4213 60.7756ZM70.3815 58.3751L70.7877 58.5192C70.7883 58.5176 70.7889 58.5157 70.7896 58.5139L70.3815 58.3751ZM69.9758 58.2469C69.9703 58.2522 69.9667 58.2571 69.9651 58.2602L70.3747 58.3954L69.9758 58.2469ZM69.9759 58.2467L70.3815 58.3751L69.9788 58.2442C69.9778 58.2449 69.9769 58.2458 69.9759 58.2467Z" fill="#000072"/>
<path d="M76.2394 50.3278C76.92 49.7861 77.8364 49.604 78.7031 49.7031C79.5696 49.8211 80.4142 50.1364 81.1483 50.6277C81.8867 51.1132 82.4989 51.7874 82.9305 52.5611C83.1554 52.944 83.3134 53.3618 83.4469 53.785C83.5013 53.9999 83.5549 54.2166 83.5932 54.4354L83.6358 54.7664L83.6564 54.9321L83.6617 55.099C83.6984 55.9894 83.5256 56.8826 83.1686 57.6976C83.0803 57.9016 82.968 58.095 82.8653 58.2921L82.6802 58.57C82.6173 58.6617 82.56 58.7573 82.4861 58.8409C82.3434 59.0112 82.2113 59.1909 82.0479 59.3423L81.8125 59.5776L81.5569 59.7907C80.1905 60.9311 78.2652 61.3247 76.5832 60.8656L76.7617 60.1035C77.5013 60.2421 78.2613 60.2164 78.9765 60.0298C79.1585 59.9951 79.3294 59.921 79.5047 59.8641C79.5935 59.8384 79.6746 59.7924 79.759 59.7557L80.01 59.64C80.3305 59.4585 80.6449 59.2647 80.9212 59.022C81.4805 58.5477 81.9353 57.9509 82.2253 57.2795C82.5175 56.6096 82.6563 55.8716 82.6286 55.1426L82.6273 55.0055L82.6115 54.8694L82.581 54.597C82.552 54.4168 82.5098 54.2381 82.4688 54.06C82.3623 53.7103 82.2395 53.362 82.0567 53.043C81.7045 52.401 81.2215 51.8198 80.6154 51.3957C80.0158 50.9637 79.3121 50.6816 78.5787 50.5459C78.2119 50.4762 77.8399 50.4311 77.4547 50.3972C77.0685 50.3627 76.673 50.3522 76.2394 50.3278Z" fill="#000072"/>
<path d="M90.7598 58.4832C89.959 62.1298 91.7871 65.8055 95.0088 67.4407C95.4718 67.6763 95.964 67.8692 96.4804 68.0134C98.0729 68.4585 99.6776 68.3978 101.131 67.933L101.098 68.1389C101.045 68.4895 101.364 68.7777 101.709 68.6985C102.435 68.5287 103.547 67.9881 104.184 66.2949C104.184 66.2941 104.184 66.2941 104.184 66.2941C104.191 66.2749 104.219 66.283 104.216 66.3023C104.214 66.3092 104.213 66.3161 104.212 66.3239C104.183 66.5498 104.322 66.7015 104.5 66.7368C104.522 66.7412 104.545 66.7441 104.567 66.7445C104.678 66.7489 104.797 66.7088 104.896 66.6169C105.862 65.7157 106.511 64.4325 106.785 62.4534C107.395 58.0224 104.87 53.3534 100.516 52.3334C98.327 51.8205 96.1362 52.2493 94.3705 53.3557C94.0397 53.5629 93.7232 53.7942 93.4246 54.0481C92.1221 55.1535 91.1559 56.68 90.7598 58.4832Z" fill="#C9BADD"/>
<path d="M102.577 63.991C104.638 61.93 104.638 58.5884 102.577 56.5273C100.516 54.4663 97.1744 54.4663 95.1133 56.5273C93.0523 58.5884 93.0523 61.93 95.1133 63.991C97.1744 66.0521 100.516 66.0521 102.577 63.991Z" fill="#EAE4F2"/>
<g opacity="0.5">
<path d="M91.4454 56.5548C93.0934 53.2986 96.8056 51.4644 100.516 52.3336C104.87 53.3537 107.395 58.0228 106.784 62.4533C106.589 63.8672 106.201 64.9245 105.644 65.7424C105.977 65.0483 106.22 64.2129 106.361 63.1905C106.833 59.7602 105.426 56.1873 102.746 54.2753C102.388 54.3958 101.692 54.3102 100.952 54.0269C100.158 53.7227 99.554 53.2833 99.4169 52.9427C96.2285 52.4728 93.1316 53.9492 91.4454 56.5548Z" fill="white"/>
</g>
<g opacity="0.3">
<path d="M93.4246 54.0481C94.2861 54.6665 95.0196 55.3469 95.6451 56.0627C96.8554 55.1406 98.453 54.7462 100.05 55.1204C101.06 55.357 101.932 55.8699 102.609 56.5591C102.198 56.3338 101.751 56.1586 101.272 56.0465C101.255 56.0424 101.238 56.0384 101.22 56.0345C98.9792 55.5329 97.1238 57.7738 97.9862 59.9024C99.0062 62.4196 99.182 64.8409 99.1804 66.2246C99.1797 66.8653 99.764 67.3453 100.394 67.2279C101.082 67.0998 101.691 66.9467 102.005 66.8635C102.119 66.8333 102.226 66.9286 102.211 67.0454C102.19 67.2123 102.155 67.3498 102.118 67.4587C102.075 67.582 102.2 67.6952 102.32 67.6439C103.371 67.1944 104.184 66.2949 104.184 66.2949C103.547 67.9881 102.435 68.5287 101.709 68.6985C101.364 68.7777 101.045 68.4895 101.098 68.1389L101.131 67.933C99.6776 68.3978 98.0729 68.4585 96.4804 68.0134C95.964 67.8692 95.4718 67.6763 95.0088 67.4407C91.7871 65.8055 89.959 62.1298 90.7598 58.4832C91.1559 56.68 92.1221 55.1535 93.4246 54.0481Z" fill="#000072"/>
</g>
<path d="M101.593 69.1423C101.36 69.1423 101.134 69.0556 100.959 68.8943C100.841 68.7849 100.755 68.6488 100.707 68.5002C99.2845 68.8514 97.7945 68.8283 96.3644 68.4286C92.016 67.2134 89.3692 62.8041 90.3386 58.3903C90.8325 56.1418 92.1763 54.2282 94.1223 53.0021C96.069 51.7756 98.3748 51.3893 100.614 51.914C104.992 52.9397 107.889 57.595 107.211 62.5122C106.937 64.4971 106.295 65.9015 105.189 66.9322C104.939 67.1661 104.584 67.2378 104.282 67.1217C103.532 68.5154 102.44 68.9699 101.806 69.1177C101.735 69.1342 101.664 69.1423 101.593 69.1423ZM101.13 67.5017C101.231 67.5017 101.331 67.5372 101.41 67.6048C101.523 67.7016 101.579 67.8502 101.556 67.9976L101.525 68.204C101.524 68.2125 101.52 68.2383 101.545 68.2615C101.557 68.2731 101.578 68.2852 101.611 68.2782C102.294 68.1187 103.225 67.6188 103.781 66.1422C103.861 65.9281 104.09 65.8099 104.31 65.866C104.498 65.9139 104.629 66.0746 104.645 66.2605C105.571 65.3752 106.116 64.1447 106.357 62.3943C106.975 57.9134 104.366 53.6785 100.418 52.7532C98.4039 52.2817 96.3316 52.629 94.5819 53.7315C92.8326 54.8336 91.6245 56.5539 91.1805 58.5752C90.3091 62.5427 92.6881 66.506 96.5963 67.5982C98.0511 68.0047 99.5733 67.9783 100.999 67.522C101.042 67.5084 101.086 67.5017 101.13 67.5017ZM104.214 66.3156L104.639 66.3873C104.639 66.383 104.638 66.3773 104.636 66.3705L104.618 66.3675L104.214 66.3156ZM103.789 66.2419C103.788 66.2433 103.788 66.2448 103.788 66.2463L103.789 66.2419Z" fill="#000072"/>
<path d="M102.542 56.4901C102.143 56.3193 101.783 56.153 101.422 56.0123C101.062 55.8716 100.709 55.7468 100.349 55.6463C99.6318 55.442 98.876 55.3823 98.1469 55.5029C97.4155 55.6138 96.7247 55.92 96.1239 56.3387C95.8184 56.5433 95.5536 56.8008 95.3029 57.0668C95.1871 57.2082 95.0699 57.3495 94.9639 57.498L94.8156 57.7287L94.7409 57.8436L94.6788 57.9658C94.3303 58.6067 94.1268 59.3294 94.091 60.0595C94.0526 60.7898 94.195 61.5264 94.4854 62.1999C94.6251 62.5401 94.8208 62.8533 95.0273 63.1583L95.2007 63.3735C95.2601 63.4438 95.3123 63.5211 95.3804 63.5836C95.5122 63.7123 95.6324 63.8547 95.78 63.9667C96.338 64.4515 97.0073 64.8121 97.7316 65.0164L97.5531 65.7785C95.8421 65.4428 94.292 64.2348 93.5743 62.6062L93.4401 62.3018L93.3336 61.9864C93.2545 61.7782 93.216 61.5585 93.1638 61.3425C93.1346 61.2348 93.1258 61.1236 93.1101 61.0135L93.0678 60.6824C93.0633 60.4601 93.0486 60.237 93.0601 60.015C93.1023 59.1263 93.3443 58.2493 93.7726 57.4678L93.8514 57.3207L93.9435 57.1813L94.1288 56.9037C94.2601 56.7247 94.4044 56.5544 94.5487 56.3861C94.8564 56.0661 95.1835 55.762 95.555 55.5188C96.2854 55.0174 97.1333 54.6853 98.0106 54.5783C98.8865 54.4642 99.7833 54.5569 100.612 54.8361C101.433 55.1322 102.173 55.7024 102.542 56.4901Z" fill="#000072"/>
<path d="M98.9345 71.0901C98.4293 71.2401 97.9052 70.3245 97.9052 70.3245C98.369 71.8987 97.3845 74.3832 96.7724 74.0108C96.1603 73.6401 96.4189 73.0367 96.4189 73.0367C95.3085 74.466 91.755 76.2919 84.7928 74.7556C84.6669 74.7263 84.5393 74.6987 84.41 74.6677C77.1943 72.978 74.7408 69.6779 74.3753 67.8727C74.3753 67.8727 74.3391 68.5279 73.6253 68.5883C72.9115 68.6503 73.1322 65.9865 74.2477 64.783C74.2477 64.783 73.3718 65.3692 72.9856 65.0106C72.908 64.9399 72.889 64.8226 72.9183 64.6761C73.0338 64.0761 73.9425 62.9795 75.0305 62.5329C75.0305 62.5329 78.534 53.85 85.7255 52.8982C85.9687 52.8672 86.2187 52.8431 86.4721 52.8293C86.4721 52.8293 86.4721 52.8293 86.4738 52.8293L86.4842 52.7844C86.5652 52.4344 86.6876 52.1982 86.6876 52.1982C86.8497 52.2379 87.0118 52.2982 87.1703 52.3706C87.8462 52.6758 88.4187 53.181 88.4187 53.181C87.9618 51.6361 88.7618 51.031 88.7618 51.031C90.6187 51.5999 91.3929 53.7827 91.3929 53.7827C95.5361 55.6052 97.1913 59.5881 97.8361 62.8692C98.3879 65.671 98.2034 67.9607 98.2034 67.9607C99.169 69.0624 99.4414 70.9401 98.9345 71.0901Z" fill="#C9BADD"/>
<path d="M89.035 71.4267C89.4167 69.7973 88.077 68.09 86.0426 67.6133C84.0082 67.1367 82.0496 68.0713 81.6678 69.7007C81.286 71.3302 82.6258 73.0375 84.6601 73.5141C86.6945 73.9908 88.6532 73.0562 89.035 71.4267Z" fill="#EAE4F2"/>
<path d="M91.9064 63.9645C92.0993 63.601 92.4089 63.1823 92.8748 62.9657C93.6256 62.6165 94.4866 63.2697 94.311 64.0789C94.2405 64.4042 94.0104 64.6693 93.4463 64.666C92.576 64.6608 92.3662 64.519 92.1774 64.4847C91.9328 64.4403 91.7898 64.1841 91.9064 63.9645Z" fill="#EAE4F2"/>
<path d="M82.4478 61.7485C82.4365 61.3372 82.345 60.8245 82.0239 60.4235C81.5063 59.7772 80.4448 59.98 80.2426 60.7829C80.1614 61.1057 80.2498 61.4454 80.7566 61.693C81.5386 62.075 81.7896 62.0411 81.974 62.0942C82.2129 62.163 82.4547 61.9971 82.4478 61.7485Z" fill="#EAE4F2"/>
<g opacity="0.7">
<path d="M98.2184 67.6915C98.0952 64.7076 96.7249 56.9976 91.0376 54.454C90.8922 54.389 90.7812 54.2668 90.7303 54.116C90.5239 53.5014 89.8865 51.8557 88.7617 51.0301C90.6181 51.5997 91.3921 53.7834 91.3921 53.7834C98.3515 56.845 98.2906 66.0013 98.2184 67.6915Z" fill="white"/>
</g>
<g opacity="0.7">
<path d="M86.235 53.8474L86.232 53.8601C80.1542 54.1901 76.3837 60.0123 75.0664 62.4472C75.4658 61.5136 79.2105 53.2238 86.4735 52.8293C86.4735 52.8293 86.317 53.4793 86.235 53.8474Z" fill="white"/>
</g>
<g opacity="0.3">
<path d="M88.4914 55.5111C88.4914 55.5111 85.3404 55.8978 85.7251 52.8991C85.9693 52.8668 86.2183 52.8431 86.4715 52.8297C86.4087 53.0049 85.7971 54.9016 88.4914 55.5111Z" fill="#000072"/>
</g>
<g opacity="0.3">
<path d="M88.4915 55.5111C88.4915 55.5111 85.9504 55.1616 86.4734 52.8293L86.4838 52.7849C86.5659 52.4344 86.6874 52.1977 86.6874 52.1977C86.8502 52.2384 87.1118 52.344 87.2689 52.416C87.0112 53.2196 86.6881 54.7473 88.4915 55.5111Z" fill="#000072"/>
</g>
<g opacity="0.3">
<path d="M99.111 70.9116C99.1232 70.8841 99.1338 70.8537 99.143 70.821C99.143 70.8208 99.1431 70.8207 99.1431 70.8206L99.1431 70.8205C99.3074 70.2326 98.9796 68.8463 98.2035 67.9607C98.2035 67.9607 98.388 65.671 97.8362 62.8692C96.3896 74.5832 84.7532 73.1988 84.7532 73.1988C76.5956 71.2873 75.41 66.9753 75.3064 65.9425C75.2961 65.8396 75.1774 65.7868 75.0956 65.8501C75.0185 65.9098 74.9364 65.9783 74.8611 66.0432C74.7663 66.1249 74.6222 66.0398 74.6464 65.9169C74.7834 65.2188 75.0276 64.5899 75.2396 64.1322C75.3523 63.889 75.0954 63.6404 74.8558 63.7608C73.8599 64.2616 73.2486 64.6021 72.9187 64.6766C72.8895 64.8228 72.9088 64.9402 72.9852 65.0108C73.3711 65.3697 74.2482 64.7823 74.2482 64.7823C73.133 65.9864 72.9122 68.6497 73.6257 68.5885C74.3385 68.5272 74.3756 67.8726 74.3756 67.8726C74.7412 69.6788 77.1944 72.9777 84.4098 74.6682C84.5394 74.6985 84.6654 74.7252 84.7927 74.7533C84.7928 74.7541 84.7928 74.7548 84.7928 74.7556C84.8492 74.7681 84.9036 74.7784 84.9596 74.7905C85.049 74.8097 85.1375 74.828 85.2257 74.8461C85.3517 74.8719 85.4767 74.8968 85.6003 74.9204C85.6897 74.9374 85.7782 74.9537 85.8663 74.9696C85.9857 74.9912 86.1041 75.0119 86.2212 75.0313C86.3101 75.0461 86.3982 75.0602 86.4858 75.0739C86.5987 75.0914 86.7107 75.1082 86.8216 75.1238C86.9102 75.1364 86.9982 75.1483 87.0855 75.1597C87.1921 75.1736 87.2977 75.1866 87.4023 75.1988C87.4905 75.209 87.578 75.2187 87.6648 75.2278C87.7651 75.2382 87.8644 75.2478 87.9628 75.2567C88.0506 75.2647 88.1378 75.2721 88.2242 75.2788C88.3186 75.2862 88.4121 75.2927 88.5048 75.2986C88.5917 75.3041 88.6779 75.3093 88.7632 75.3136C88.8522 75.3181 88.9402 75.3217 89.0276 75.325C89.1133 75.3281 89.1986 75.3309 89.2827 75.3328C89.3665 75.3347 89.4491 75.3358 89.5313 75.3366C89.6159 75.3373 89.7 75.3378 89.783 75.3373C89.8616 75.3369 89.9391 75.3356 90.0163 75.3341C90.0996 75.3325 90.1824 75.3306 90.264 75.3278C90.3376 75.3252 90.41 75.3218 90.4823 75.3183C90.5643 75.3144 90.646 75.3102 90.7263 75.3049C90.7951 75.3005 90.8627 75.2953 90.9301 75.2899C91.0107 75.2836 91.0909 75.2771 91.1696 75.2696C91.2337 75.2634 91.2967 75.2565 91.3596 75.2496C91.4387 75.2409 91.5175 75.2321 91.5947 75.2223C91.6543 75.2147 91.7127 75.2063 91.7712 75.198C91.8484 75.1871 91.9254 75.1761 92.0007 75.164C92.0566 75.1551 92.1111 75.1454 92.166 75.1358C92.2411 75.1227 92.3161 75.1095 92.3892 75.0953C92.4409 75.0853 92.4912 75.0746 92.5419 75.064C92.6152 75.0487 92.6883 75.0333 92.7596 75.017C92.8077 75.006 92.8543 74.9943 92.9014 74.9828C92.9724 74.9655 93.0433 74.9481 93.1122 74.9298C93.1567 74.9179 93.1999 74.9054 93.2436 74.8932C93.3122 74.8739 93.3808 74.8546 93.4473 74.8344C93.4887 74.8218 93.5286 74.8087 93.5691 74.7957C93.6352 74.7746 93.7012 74.7535 93.7651 74.7315C93.8037 74.7182 93.8408 74.7044 93.8786 74.6908C93.9415 74.6682 94.0045 74.6456 94.0653 74.6222C94.1017 74.6081 94.1366 74.5935 94.1723 74.5792C94.2319 74.5552 94.2917 74.5312 94.3492 74.5065C94.383 74.492 94.4152 74.477 94.4483 74.4622C94.505 74.4369 94.5618 74.4116 94.6163 74.3856C94.6482 74.3704 94.6785 74.3548 94.7097 74.3393C94.7627 74.3131 94.8158 74.287 94.8667 74.2602C94.8974 74.2441 94.9264 74.2276 94.9563 74.2112C95.0051 74.1846 95.0541 74.1581 95.1009 74.131C95.1309 74.1136 95.1591 74.0959 95.1882 74.0784C95.2322 74.0519 95.2768 74.0255 95.3189 73.9987C95.3493 73.9793 95.3778 73.9596 95.4073 73.9401C95.4455 73.9147 95.4844 73.8895 95.521 73.8639C95.5532 73.8414 95.5832 73.8187 95.6142 73.7961C95.6454 73.7733 95.6775 73.7505 95.7074 73.7275C95.7428 73.7004 95.7757 73.6732 95.8093 73.6459C95.8323 73.6272 95.8566 73.6086 95.8788 73.5898C95.9208 73.5544 95.9601 73.519 95.9992 73.4836C96.0107 73.4731 96.0233 73.4625 96.0347 73.452C96.1847 73.3127 96.3123 73.1737 96.4176 73.0382C96.4116 73.0527 96.1681 73.6444 96.772 74.0114C96.906 74.0927 97.0578 74.0373 97.2084 73.8846C97.3549 73.7361 97.5002 73.4948 97.6267 73.1981C97.6302 73.1902 97.6337 73.1827 97.6371 73.1747C97.6387 73.1708 97.6402 73.1666 97.6418 73.1627C97.9155 72.5043 98.0961 71.586 97.9989 70.7884C97.9794 70.6281 97.9487 70.4726 97.9053 70.3252C97.908 70.3299 98.4312 71.2402 98.9351 71.0905C98.9385 71.0895 98.9412 71.087 98.9446 71.0858C98.9614 71.0799 98.9773 71.0719 98.9924 71.0621C98.9993 71.0576 99.0061 71.0531 99.0126 71.0478C99.0287 71.0349 99.0438 71.0203 99.0576 71.0029C99.0622 70.9969 99.0663 70.9899 99.0707 70.9835C99.0817 70.9676 99.0919 70.9502 99.1012 70.9313C99.1045 70.9247 99.108 70.9186 99.111 70.9116Z" fill="#000072"/>
</g>
<path d="M89.6703 75.7632C88.1222 75.7632 86.3372 75.5629 84.3113 75.0882C78.2536 73.6689 75.2094 71.0077 74.241 68.8383C74.0878 68.9314 73.8972 68.9979 73.6623 69.0181C73.3611 69.0442 73.0935 68.878 72.9449 68.5737C72.6444 67.9591 72.781 66.6409 73.2581 65.5578C73.0559 65.5474 72.8587 65.4821 72.6912 65.3264C72.586 65.2284 72.4199 65.0048 72.4921 64.6075C72.6241 63.8797 73.5796 62.7374 74.7001 62.2078C74.9517 61.6288 75.88 59.6303 77.529 57.5685C80.0102 54.4665 82.9805 52.6921 86.1371 52.4205C86.214 52.1791 86.2917 52.0236 86.3032 52.0012C86.3944 51.8225 86.5967 51.7308 86.7914 51.7793C87.1657 51.8728 87.5347 52.0536 87.8472 52.241C87.8647 51.1834 88.4688 50.7113 88.5018 50.6864C88.6122 50.6028 88.7563 50.5778 88.8881 50.6181C90.6241 51.1506 91.4876 52.8941 91.7278 53.462C94.9088 54.9265 97.1091 57.8883 98.0968 62.0396C98.7465 64.7707 98.6795 67.1559 98.644 67.8179C99.4124 68.7902 99.7608 70.2375 99.5559 70.9479C99.444 71.336 99.1959 71.4626 99.0581 71.5037C98.8392 71.5685 98.6333 71.5398 98.4475 71.4593C98.3937 72.6415 97.9307 73.8833 97.3885 74.3004C97.1201 74.5069 96.8061 74.5365 96.5483 74.3799C96.3468 74.2574 96.2056 74.1132 96.1098 73.9617C94.891 74.9692 92.7509 75.7632 89.6703 75.7632ZM84.5078 74.2489C93.081 76.2576 95.7963 73.1352 96.0775 72.7727C96.2104 72.6013 96.4497 72.5555 96.6367 72.6654C96.8235 72.7754 96.8997 73.007 96.8145 73.2063C96.7838 73.2878 96.7587 73.443 96.9099 73.5798C97.241 73.2532 97.8453 71.6455 97.4915 70.4469C97.4296 70.2371 97.5346 70.0143 97.7357 69.9284C97.9365 69.8423 98.1702 69.9209 98.2789 70.1106C98.4176 70.3503 98.6192 70.567 98.7444 70.6453C98.8064 70.2548 98.6027 69.0704 97.8791 68.2461C97.8022 68.1585 97.7642 68.0435 97.7734 67.9274C97.7818 67.8224 98.524 57.3916 91.2182 54.178C91.1092 54.1301 91.025 54.0394 90.9853 53.9273C90.9789 53.9093 90.3332 52.1489 88.8932 51.5366C88.7559 51.7625 88.5894 52.2389 88.8325 53.0591C88.887 53.2434 88.813 53.4416 88.6508 53.5449C88.4884 53.6484 88.2776 53.6316 88.1337 53.5043C88.1272 53.4987 87.5648 53.0071 86.9412 52.7393C86.9256 52.7921 86.9104 52.8494 86.8966 52.9106C86.8543 53.0989 86.6894 53.2489 86.4967 53.2594C79.1682 53.6578 75.4669 62.6039 75.4302 62.6943C75.3867 62.8018 75.3018 62.8874 75.1945 62.9315C74.1773 63.3498 73.468 64.3243 73.3527 64.6996C73.4951 64.6843 73.7751 64.5792 74.0089 64.424C74.1909 64.3033 74.4347 64.3375 74.576 64.5037C74.7175 64.6698 74.7127 64.9153 74.5643 65.0756C73.715 65.9923 73.5422 67.7008 73.6938 68.1408C73.9197 68.077 73.9428 67.8899 73.9452 67.8487C73.9573 67.6322 74.1283 67.4584 74.3446 67.4428C74.5623 67.4274 74.755 67.5748 74.7981 67.7873C74.889 68.2371 75.9348 72.2403 84.5078 74.2489Z" fill="#000072"/>
<path d="M88.7556 52.9119C88.8013 52.9979 88.8484 53.09 88.8895 53.1841C88.9328 53.2773 88.9753 53.3713 89.0154 53.4676C89.0549 53.5648 89.097 53.6593 89.1347 53.7589C89.1724 53.8595 89.2014 53.9646 89.2323 54.0843C89.1076 54.0739 88.9948 54.0334 88.8934 53.9868C88.7922 53.9387 88.6983 53.8828 88.6046 53.8271C88.5114 53.7707 88.4222 53.7107 88.3353 53.6484C88.2462 53.5871 88.1644 53.5228 88.0829 53.4509L88.7556 52.9119Z" fill="#000072"/>
<path d="M86.8785 52.971L86.8491 53.1364C86.8384 53.1988 86.8344 53.2623 86.8273 53.3253C86.8218 53.4515 86.8194 53.577 86.8382 53.6976C86.8697 53.9394 86.9548 54.1663 87.1005 54.3772C87.2442 54.5922 87.4682 54.7633 87.7018 54.9457C87.8254 55.0287 87.9526 55.1158 88.0817 55.2139C88.2168 55.2996 88.3537 55.3921 88.4918 55.5106C88.3195 55.5432 88.146 55.5499 87.9707 55.5497C87.7988 55.5345 87.6254 55.5037 87.4542 55.4585C87.3711 55.4277 87.2871 55.3956 87.2041 55.3601C87.1624 55.3428 87.1208 55.325 87.0797 55.3058L86.9614 55.2335C86.8832 55.1836 86.8012 55.1382 86.7266 55.0797C86.6545 55.0172 86.5809 54.9543 86.5104 54.8879C86.3791 54.7449 86.251 54.5895 86.16 54.4091C86.1075 54.3224 86.0762 54.2268 86.0409 54.1323C86.002 54.0382 85.9825 53.9403 85.9626 53.8419C85.925 53.6453 85.9172 53.4464 85.9338 53.2517C85.9432 53.1545 85.9564 53.0577 85.9795 52.9624C86.0015 52.8626 86.0256 52.7816 86.0739 52.6614L86.8785 52.971Z" fill="#000072"/>
<g opacity="0.3">
<path d="M88.4217 70.1832C87.6594 71.5641 86.3901 70.7693 86.0808 70.5458C86.0385 70.5152 86.0184 70.4626 86.0304 70.4118C86.0441 70.3532 86.0965 70.3132 86.1566 70.3126C87.4783 70.3001 88.6529 69.3192 88.8515 67.9579C89.1251 66.0833 88.3455 64.8717 87.7135 64.2217C87.2921 63.7882 86.6602 63.6402 86.0901 63.8414C85.2352 64.1431 83.9986 64.8822 83.411 66.6833C82.9879 67.98 83.5906 69.3679 84.7498 69.9746C84.8025 70.0022 84.831 70.0608 84.8174 70.1187L84.8155 70.1272C84.8035 70.178 84.7622 70.2162 84.7107 70.2248C84.3343 70.2877 82.8441 70.436 82.7745 68.8601C82.7745 68.8601 80.8403 71.2992 84.9557 72.2634C89.0711 73.2276 88.4217 70.1832 88.4217 70.1832Z" fill="#000072"/>
</g>
<path d="M88.9257 67.6408C89.1993 65.7663 88.4199 64.5548 87.788 63.9048C87.3664 63.4711 86.7344 63.323 86.164 63.5243C85.3091 63.8261 84.0727 64.5653 83.4852 66.3662C82.997 67.8626 83.8742 69.4816 85.3971 69.8797C85.4387 69.8905 85.4811 69.901 85.5243 69.9112C85.5675 69.9213 85.6101 69.9307 85.6522 69.9394C87.1935 70.2592 88.6985 69.1984 88.9257 67.6408Z" fill="#000072"/>
<path d="M85.8688 69.6702C85.8653 69.7502 85.8588 69.805 85.8493 69.8697C85.8396 69.9317 85.8285 69.9936 85.8114 70.0543C85.7804 70.1761 85.734 70.2959 85.6775 70.4131C85.5582 70.6433 85.374 70.8644 85.1314 71.0031C84.8888 71.1422 84.6209 71.1953 84.3664 71.2048C84.2436 71.1957 84.1153 71.1982 83.9979 71.1753C83.8808 71.1494 83.7616 71.1401 83.6471 71.0973L83.4752 71.0398L83.3896 71.01L83.3055 70.9683L83.1385 70.8836C83.0838 70.8533 83.0326 70.8104 82.9803 70.7738C82.8723 70.7053 82.7864 70.5978 82.7009 70.5003L82.5942 70.3327C82.5607 70.276 82.5405 70.2127 82.5144 70.153C82.3435 69.6649 82.4043 69.1203 82.7961 68.8059C82.8326 69.0493 82.8453 69.2518 82.8599 69.4436C82.8722 69.6333 82.8948 69.8133 82.9711 69.9644C82.9928 70.0003 83.007 70.04 83.0322 70.0728L83.1081 70.1694C83.1721 70.2232 83.2241 70.2852 83.3022 70.326C83.3396 70.3475 83.3715 70.3744 83.4118 70.3927L83.5356 70.4446L83.5969 70.4712L83.6646 70.4891L83.8 70.5247C83.8887 70.552 83.9862 70.5557 84.0782 70.5741C84.1716 70.5898 84.2595 70.5808 84.3499 70.5877C84.5218 70.5702 84.6829 70.5397 84.8147 70.4632C84.944 70.3854 85.0531 70.2726 85.1345 70.1256C85.1739 70.0514 85.2113 69.9733 85.2375 69.8886C85.2664 69.8092 85.2888 69.7081 85.2992 69.6425L85.8688 69.6702Z" fill="#000072"/>
<path d="M85.8453 69.7703C85.8255 69.8337 85.8007 69.9342 85.7912 70.0182C85.7771 70.1058 85.7759 70.1924 85.7783 70.2764C85.7859 70.4442 85.8335 70.5937 85.9148 70.7209C85.999 70.8479 86.1297 70.9468 86.2759 71.0388C86.36 71.0729 86.4348 71.12 86.5255 71.1474C86.6161 71.1717 86.705 71.2118 86.7967 71.2267L86.9337 71.255L87.0024 71.2691L87.0691 71.2724L87.2031 71.2809C87.2474 71.2824 87.288 71.2725 87.3309 71.2698C87.4191 71.268 87.4932 71.2355 87.5745 71.2158L87.6852 71.1629C87.7225 71.1448 87.7528 71.1155 87.7881 71.093C87.9236 70.9914 88.0239 70.8403 88.1191 70.6758C88.2175 70.5104 88.3188 70.3346 88.4596 70.1328C88.6709 70.5885 88.4835 71.1035 88.1136 71.4648C88.0637 71.5068 88.0175 71.5545 87.9623 71.5904L87.7922 71.6932C87.6724 71.7425 87.5476 71.8007 87.4204 71.8141C87.3573 71.8236 87.2925 71.8394 87.2299 71.8421L87.0428 71.8439L86.9489 71.8438L86.859 71.8326L86.6793 71.8077C86.5578 71.7952 86.4469 71.7506 86.3303 71.7218C86.2151 71.6902 86.1012 71.6309 85.9871 71.5846C85.7634 71.463 85.547 71.2964 85.3915 71.064C85.2357 70.832 85.1688 70.5522 85.1642 70.2928C85.1656 70.1627 85.1773 70.0348 85.2036 69.9118C85.2153 69.85 85.2328 69.7895 85.2516 69.7297C85.2719 69.6675 85.2903 69.6155 85.3229 69.5423L85.8453 69.7703Z" fill="#000072"/>
<path d="M85.3813 70.4469C85.3813 70.4469 84.3432 71.3202 82.8892 70.3762C82.8892 70.3762 83.1342 72.3573 84.8567 72.7608C86.5793 73.1644 87.6787 71.4983 87.6787 71.4983C85.999 71.6397 85.3813 70.4469 85.3813 70.4469Z" fill="#000072"/>
<path d="M86.5508 72.5161C86.0978 72.7634 85.5243 72.9177 84.8565 72.7612C84.1894 72.6049 83.7441 72.2119 83.4481 71.7892L83.4491 71.7886C83.4491 71.7886 85.2482 70.7683 86.5502 72.5151L86.5508 72.5161Z" fill="#FF4A9C"/>
<path d="M85.4016 73.1103C85.2076 73.1103 85.0042 73.0882 84.7917 73.0385C82.8974 72.5946 82.6173 70.5002 82.6063 70.4112C82.5927 70.3012 82.6441 70.1933 82.738 70.1346C82.832 70.076 82.9513 70.077 83.0444 70.1372C84.3068 70.9572 85.1892 70.236 85.1978 70.2289C85.2642 70.173 85.3527 70.1506 85.4371 70.1674C85.5215 70.1842 85.5938 70.2383 85.6338 70.3145C85.6576 70.3589 86.2005 71.3372 87.6548 71.2144C87.765 71.2047 87.8683 71.2592 87.9238 71.3528C87.9797 71.4468 87.9767 71.5643 87.9167 71.6554C87.8729 71.7218 86.9368 73.1102 85.4016 73.1103ZM83.3186 70.9173C83.5153 71.4722 83.9585 72.2577 84.9217 72.4833C85.8964 72.7116 86.6483 72.1901 87.0684 71.7782C86.1124 71.6782 85.5605 71.1613 85.3042 70.8389C84.8724 71.0714 84.1532 71.2411 83.3186 70.9173Z" fill="#000072"/>
<path d="M79.3549 64.486C79.6221 64.1894 79.9891 64.0392 80.383 63.9933C80.7757 63.9516 81.2214 64.0512 81.5791 64.3133C81.9412 64.5706 82.1707 64.9716 82.2461 65.358C82.3242 65.7481 82.282 66.134 82.0978 66.4861C81.8528 66.1741 81.6784 65.8971 81.4983 65.6705C81.3213 65.4417 81.1546 65.2728 80.9735 65.1377C80.7929 65.0015 80.5799 64.8876 80.3093 64.7868C80.0383 64.6824 79.7292 64.5987 79.3549 64.486Z" fill="#000072"/>
<path d="M93.4064 68.0845C93.0374 67.9549 92.7384 67.8405 92.458 67.7651C92.18 67.6872 91.9407 67.6538 91.7146 67.6575C91.4886 67.6599 91.2544 67.6981 90.9766 67.7787C90.6976 67.8557 90.3935 67.9767 90.0117 68.0845C90.0703 67.6914 90.2635 67.3548 90.5565 67.0856C90.8451 66.8178 91.2667 66.629 91.7109 66.6344C92.1544 66.6334 92.5732 66.8156 92.866 67.0806C93.1572 67.3498 93.3652 67.6875 93.4064 68.0845Z" fill="#000072"/>
</g>
<rect x="0.5" y="0.5" width="124" height="124" stroke="black"/>
<defs>
<clipPath id="clip0_4_2793">
<rect width="125" height="125" fill="white"/>
</clipPath>
</defs>
</svg>
