<svg width="125" height="125" viewBox="0 0 125 125" fill="none" xmlns="http://www.w3.org/2000/svg">
<g clip-path="url(#clip0_17_492)">
<path d="M125 0H0V125H125V0Z" fill="#FFCAEC"/>
<g opacity="0.2">
<path d="M61.87 112.5C75.6319 112.5 86.7881 110.888 86.7881 108.899C86.7881 106.91 75.6319 105.298 61.87 105.298C48.1082 105.298 36.952 106.91 36.952 108.899C36.952 110.888 48.1082 112.5 61.87 112.5Z" fill="#650000"/>
</g>
<path d="M68.579 94.209C73.1584 96.7572 82.8576 99.1897 89.7638 93.5037C96.6088 87.868 93.5273 77.8187 96.5256 74.1712C98.2077 72.1249 100.839 72.5746 102.454 74.2246C103.623 75.4184 105.08 76.7265 106.851 76.0221C110.998 74.3733 108.414 67.5522 103.129 65.5591C96.6921 63.1314 89.3307 67.2588 89.3307 77.2875C89.3307 82.1471 88.8496 86.1667 86.3662 88.6879C84.0948 90.994 79.3213 92.6101 72.1965 89.5743" fill="#B17E4F"/>
<path d="M108.902 73.073C108.852 74.3783 108.217 75.4806 106.852 76.0225C105.08 76.7266 103.623 75.4186 102.454 74.2241C100.84 72.5746 98.208 72.125 96.5256 74.1713C93.5273 77.8183 96.6086 87.8679 89.7643 93.5031C84.1884 98.0954 76.789 97.3926 71.7365 95.61C70.5315 95.1855 69.4608 94.6989 68.5787 94.2085L72.1967 89.574C79.3219 92.6104 84.0948 90.994 86.3666 88.6879C88.8493 86.167 89.3305 82.1469 89.3305 77.2869C89.3305 67.2584 96.6917 63.1316 103.129 65.5589C106.675 66.8972 109.006 70.4084 108.902 73.073Z" fill="#D2623A"/>
<g opacity="0.35">
<path d="M89.3306 77.2869C89.3306 67.2584 96.6917 63.1316 103.129 65.5589C106.594 66.8655 108.898 70.2462 108.906 72.8871C108.342 70.5033 106.231 67.8834 103.279 66.7693C96.842 64.3419 89.4809 68.4688 89.4809 78.4973L89.3306 77.2869Z" fill="white"/>
</g>
<path d="M108.902 73.073C108.852 74.3783 108.217 75.4806 106.852 76.0225C105.08 76.7266 103.623 75.4186 102.454 74.2241C100.84 72.5746 98.208 72.125 96.5256 74.1713C93.5274 77.8183 96.6087 87.8679 89.7644 93.5031C84.1884 98.0954 76.789 97.3926 71.7366 95.61C71.7366 95.61 72.2558 93.8127 76.442 91.459C78.1624 94.703 83.9586 94.8531 87.2849 92.5795C92.4381 89.0572 93.05 82.1495 93.3493 77.7405C93.849 70.3859 99.2582 67.8099 102.144 70.8702C103.701 72.5223 104.741 73.9481 105.741 74.4551C106.628 74.9048 108.102 74.4051 108.902 73.073Z" fill="#BC462F"/>
<path d="M79.5015 97.5063C74.9576 97.5063 70.7365 96.0005 68.328 94.6602C68.0788 94.5216 67.9892 94.2071 68.1279 93.9579C68.2665 93.7088 68.5811 93.6192 68.8302 93.7578C72.9193 96.0333 82.4882 98.8251 89.4356 93.105C93.4252 89.8203 93.9017 84.9923 94.322 80.7327C94.6045 77.8703 94.8485 75.3983 96.1266 73.8433C96.9189 72.8796 97.9543 72.3434 99.1209 72.2929C100.441 72.2362 101.79 72.808 102.823 73.8634C104.217 75.2875 105.345 76.0652 106.661 75.5422C108.104 74.9684 108.397 73.7689 108.389 72.8635C108.369 70.5624 106.282 67.3 102.947 66.0423C99.9822 64.9242 96.8676 65.2613 94.4012 66.967C91.4644 68.9981 89.8471 72.6633 89.8471 77.2875C89.8471 81.7554 89.47 86.2727 86.7342 89.0504C85.9382 89.8584 83.6163 91.7602 79.453 91.7605C77.4186 91.7607 74.9453 91.3068 71.9941 90.0494C71.7317 89.9375 71.6097 89.6342 71.7214 89.3718C71.8333 89.1095 72.1368 88.9873 72.3989 89.0992C80.7892 92.6743 84.9293 89.4108 85.9984 88.3255C88.4732 85.8129 88.8144 81.5355 88.8144 77.2875C88.8144 72.3141 90.5898 68.3472 93.8137 66.1176C96.5631 64.2159 100.025 63.8362 103.311 65.0759C107.106 66.5068 109.398 70.1544 109.422 72.8543C109.437 74.5902 108.592 75.8856 107.042 76.5019C104.824 77.3839 103.042 75.5637 102.085 74.5857C101.269 73.7522 100.175 73.2788 99.1656 73.3246C98.3002 73.3621 97.5252 73.7683 96.9245 74.4991C95.8455 75.8118 95.6158 78.1391 95.3498 80.834C94.9315 85.0719 94.4111 90.3463 90.092 93.9022C86.8451 96.5757 83.0735 97.5063 79.5015 97.5063Z" fill="#650000"/>
<path d="M75.4727 82.1385C74.1736 83.6375 72.5915 88.5672 74.6067 89.9496C75.6585 90.6711 77.3389 90.5158 77.3389 90.5158C77.3389 90.5158 80.6415 91.6255 82.9515 90.4643C84.8368 89.5165 84.9867 87.1557 84.0436 86.4437C83.7334 86.2095 83.4004 86.144 83.4004 86.144C83.4004 86.144 83.7127 85.2134 83.4628 84.2453" fill="#F9D6B6"/>
<path d="M84.5551 88.3862C84.3942 89.1773 83.8866 89.9947 82.9518 90.4641C80.6418 91.6257 77.3389 90.5155 77.3389 90.5155C77.3389 90.5155 75.6579 90.6711 74.607 89.9499C72.5911 88.5668 74.1732 83.6369 75.4733 82.1391L83.4633 84.2448C83.6176 84.842 83.557 85.4248 83.4884 85.7834C83.4462 86.0063 83.4001 86.1434 83.4001 86.1434C83.4001 86.1434 83.7336 86.2093 84.0435 86.444C84.5195 86.8027 84.7172 87.5806 84.5551 88.3862Z" fill="#F9D6B6"/>
<path d="M84.5551 88.3862C84.3942 89.1773 83.8866 89.9947 82.9518 90.4641C80.6418 91.6257 77.3389 90.5155 77.3389 90.5155C77.3389 90.5155 75.6579 90.6711 74.607 89.9499C72.5911 88.5668 74.1732 83.6369 75.4733 82.1391L83.4633 84.2448C83.6176 84.842 83.557 85.4248 83.4884 85.7834C83.4712 85.8744 83.4528 85.9509 83.4383 86.0089C83.4159 86.0946 83.4001 86.1434 83.4001 86.1434C83.4001 86.1434 83.5372 86.1711 83.7178 86.2529C83.818 86.2977 83.9327 86.3596 84.0435 86.444C84.5195 86.8027 84.7172 87.5806 84.5551 88.3862Z" fill="#F9D6B6"/>
<path d="M82.6327 87.868C82.5655 86.7077 83.0401 86.2173 83.4383 86.0089C83.4159 86.0946 83.4001 86.1434 83.4001 86.1434C83.4001 86.1434 83.5372 86.1711 83.7178 86.2529C83.8549 87.2325 82.6327 87.868 82.6327 87.868Z" fill="#E2B28A"/>
<path d="M84.5551 88.3862C84.3942 89.1773 83.8866 89.9947 82.9518 90.4641C80.6418 91.6257 77.3389 90.5155 77.3389 90.5155C77.3389 90.5155 75.6579 90.6711 74.607 89.9499C72.5911 88.5668 74.1732 83.6369 75.4733 82.1391L83.4633 84.2448C83.6176 84.842 83.557 85.4248 83.4884 85.7834C81.3076 86.9108 77.4444 85.5488 77.2546 86.7143C77.0805 87.7889 77.7503 89.2577 79.3035 89.5741C81.7005 90.062 83.5847 89.4502 84.5551 88.3862Z" fill="#F4B68C"/>
<path d="M80.387 91.5114C78.9272 91.5115 77.6448 91.1515 77.276 91.0378C76.8556 91.0613 75.3531 91.0877 74.3146 90.3755C73.6815 89.9412 73.2975 89.2298 73.173 88.2613C72.8823 85.9976 74.1098 82.9227 75.0824 81.8003C75.2693 81.5849 75.5953 81.5615 75.8109 81.7483C76.0264 81.9352 76.0497 82.2612 75.8629 82.4768C75.0241 83.4445 73.9554 86.2446 74.1974 88.1297C74.2827 88.7941 74.5187 89.2631 74.8988 89.5238C75.7805 90.1286 77.2773 90.0032 77.2922 90.0016C77.3632 89.995 77.4356 90.0036 77.5034 90.0264C77.534 90.0365 80.6331 91.0515 82.7196 90.0029C83.4981 89.6116 84.0084 88.8749 84.0848 88.0325C84.1317 87.5148 83.9934 87.0529 83.7325 86.8559C83.5272 86.7009 83.2986 86.6503 83.2963 86.6497C83.1526 86.6188 83.0266 86.5276 82.9539 86.3999C82.8812 86.2721 82.8641 86.119 82.9107 85.9797C82.9128 85.9735 83.1692 85.1743 82.9628 84.3743C82.8915 84.0981 83.0576 83.8166 83.3338 83.7453C83.6098 83.6739 83.8915 83.8401 83.9628 84.1163C84.1313 84.7693 84.08 85.4014 84.007 85.818C84.118 85.8729 84.2374 85.943 84.3548 86.0316C84.9106 86.4512 85.1942 87.2341 85.1134 88.1257C85.0045 89.3262 84.2831 90.3729 83.1835 90.9257C82.305 91.3673 81.3104 91.5113 80.387 91.5114Z" fill="#650000"/>
<path d="M66.7333 65.5586C66.7333 65.5586 72.7302 66.1581 76.4803 67.9029C78.2266 68.7155 85.8664 72.0996 87.0951 77.376C87.5214 79.2067 87.3289 81.1226 85.4822 83.4209C84.9334 84.1039 83.9468 84.9561 83.6289 85.1116C81.5184 86.144 76.0307 85.6193 75.4561 83.5458C74.9578 81.7477 75.581 80.0317 76.4221 78.8924C76.4221 78.8924 75.531 77.546 73.0828 77.0963L66.7333 65.5586Z" fill="#B17E4F"/>
<path d="M85.482 83.4207C84.9335 84.1037 83.9473 84.9568 83.6295 85.111C81.5186 86.1434 76.031 85.62 75.4562 83.546C74.9696 81.7897 75.5524 80.1126 76.3633 78.9747C76.383 78.9471 76.4028 78.9194 76.4226 78.893C76.4226 78.893 75.5313 77.5455 73.0828 77.0959L71.0273 73.3619L66.733 65.5591C66.733 65.5591 72.7308 66.1576 76.4806 67.9033C78.2263 68.7155 85.867 72.1001 87.0945 77.3754C87.5217 79.2068 87.3292 81.1226 85.482 83.4207Z" fill="#B17E4F"/>
<path d="M85.8142 82.9869C85.7101 83.1293 85.5993 83.2744 85.482 83.4207C84.9335 84.1037 83.9473 84.9568 83.6295 85.111C81.5186 86.1434 76.031 85.62 75.4562 83.546C75.1002 82.2617 75.3164 81.0197 75.7753 79.9992C75.944 79.6248 76.1458 79.2806 76.3633 78.9747C76.383 78.9471 76.4028 78.9194 76.4226 78.893C76.4226 78.893 75.5313 77.5455 73.0828 77.0959L71.0273 73.3619L66.733 65.5591C66.733 65.5591 72.7308 66.1576 76.4806 67.9033C78.2263 68.7155 85.867 72.1001 87.0945 77.3754C87.494 79.0908 87.3516 80.8786 85.8142 82.9869Z" fill="#B17E4F"/>
<path d="M85.8142 82.9869C85.7101 83.1293 85.5993 83.2744 85.482 83.4207C84.9335 84.1037 83.9473 84.9568 83.6295 85.111C81.5186 86.1434 76.031 85.62 75.4562 83.546C75.1002 82.2617 75.3164 81.0197 75.7753 79.9992C75.944 79.6248 76.1458 79.2806 76.3633 78.9747C76.383 78.9471 76.4028 78.9194 76.4226 78.893C76.4226 78.893 75.5313 77.5455 73.0828 77.0959L71.0273 73.3619L68.9533 69.5923L66.733 65.5591C66.733 65.5591 72.7308 66.1576 76.4806 67.9033C76.6797 67.9956 76.9552 68.1222 77.2902 68.2804C79.8862 69.5119 86.0067 72.7026 87.0945 77.3754C87.494 79.0908 87.3516 80.8786 85.8142 82.9869Z" fill="#D2623A"/>
<path d="M77.2902 68.2805C74.8905 69.0531 72.0465 69.5159 68.9533 69.5923L66.733 65.5591C66.733 65.5591 72.7308 66.1576 76.4806 67.9033C76.6797 67.9956 76.9552 68.1222 77.2902 68.2805Z" fill="#BC462F"/>
<path d="M61.459 65.5591L59.12 68.585C53.4834 67.2731 48.9478 64.8286 46.6457 61.9754C51.3066 64.2379 56.4698 66.0865 61.459 65.5591Z" fill="#A05F3C"/>
<path d="M72.3352 69.3445C69.722 69.6688 66.8424 69.6978 63.8441 69.3788C60.7813 69.0531 57.9175 68.3965 55.3926 67.4986C56.8799 65.89 59.7014 63.7606 64.067 64.0388C68.6065 64.3289 71.1341 67.3219 72.3352 69.3445Z" fill="#A05F3C"/>
<path d="M85.8142 82.9869C85.7101 83.1293 85.5993 83.2744 85.482 83.4207C84.9335 84.1037 83.9473 84.9568 83.6295 85.111C81.5186 86.1434 76.031 85.62 75.4562 83.546C75.1002 82.2617 75.3164 81.0198 75.7753 79.9992C76.5677 81.3797 76.2749 83.2757 77.6884 83.9336C80.8488 85.4064 84.145 84.1894 85.8142 82.9869Z" fill="#BC462F"/>
<path d="M79.9034 75.8592C79.9166 76.2257 78.1854 76.8849 76.3633 78.9747C76.383 78.9471 76.4028 78.9194 76.4226 78.893C76.4226 78.893 75.5312 77.5455 73.0828 77.0959L71.0273 73.3619L73.2305 71.1257C73.2305 71.1257 74.5608 73.7324 76.4225 74.6237C78.163 75.4557 79.8863 75.4267 79.9034 75.8592Z" fill="#BC462F"/>
<path d="M80.7133 86.1455C79.3022 86.1456 77.806 85.8914 76.7027 85.3951C75.7399 84.9619 75.153 84.3861 74.9584 83.6837C74.3755 81.58 75.1962 79.8244 75.7728 78.9256C75.4076 78.5588 74.5556 77.8919 72.9895 77.6042C72.709 77.5527 72.5234 77.2836 72.5749 77.003C72.6264 76.7226 72.8953 76.5371 73.1761 76.5885C75.8101 77.0722 76.8113 78.5449 76.8526 78.6074C76.9723 78.7882 76.9663 79.0246 76.8374 79.1991C76.3893 79.8061 75.406 81.4315 75.9537 83.408C76.0891 83.8967 76.6662 84.2461 77.1264 84.4532C78.8807 85.2426 81.9892 85.3389 83.402 84.6478C83.6084 84.5468 84.5319 83.7792 85.0796 83.0975C87.0158 80.6878 86.905 78.8367 86.5922 77.4932C85.84 74.2629 82.4248 71.2217 76.4415 68.4541L76.2625 68.3712C72.6367 66.6842 66.741 66.0784 66.6819 66.0725C66.3981 66.0441 66.191 65.791 66.2195 65.5073C66.2479 65.2235 66.4996 65.0154 66.7846 65.0449C67.033 65.0697 72.9122 65.6733 76.6981 67.4348L76.875 67.5168C83.1621 70.425 86.7698 73.7027 87.598 77.259C88.1341 79.5616 87.5897 81.6224 85.8846 83.7444C85.2973 84.4754 84.2609 85.3774 83.8558 85.5756C83.0736 85.958 81.9248 86.1455 80.7133 86.1455Z" fill="#650000"/>
<path d="M75.9945 78.5835C77.046 77.3575 78.3275 76.3389 79.7763 75.6284C80.0706 75.485 80.3114 75.9038 80.0384 76.0852C78.7807 76.8871 77.6867 77.9715 76.8495 79.2013C76.4301 79.8117 75.5459 79.1755 75.9945 78.5835Z" fill="#650000"/>
<path d="M67.8703 104.563C67.8703 104.563 64.5666 105.31 64.8528 107.11C64.975 107.878 65.612 108.421 67.2076 108.14C68.431 107.924 69.7525 107.618 71.0618 108.3C71.7982 108.684 72.7893 109.667 73.8457 110.114C74.6673 110.462 75.7943 110.496 76.3398 109.65C76.3398 109.65 77.9901 110.387 78.5766 109.064C78.5766 109.064 80.1723 109.152 79.9881 107.652C79.7999 106.118 75.5686 104.018 73.4725 104.018C71.7945 104.019 67.8703 104.563 67.8703 104.563Z" fill="#F9D6B6"/>
<path d="M64.8526 107.109C64.9752 107.878 65.612 108.421 67.2074 108.14C68.431 107.924 69.7521 107.618 71.0614 108.3C71.7984 108.684 72.7886 109.667 73.846 110.114C74.6674 110.462 75.7948 110.497 76.3393 109.65C76.3393 109.65 77.9901 110.387 78.5768 109.063C78.5768 109.063 80.1722 109.153 79.9876 107.653C79.9625 107.448 79.8663 107.235 79.7107 107.016C79.4536 107.871 78.3395 107.809 78.3395 107.809C77.7528 109.132 76.102 108.396 76.102 108.396C75.5575 109.241 74.4302 109.207 73.6087 108.86C72.5513 108.412 71.5611 107.428 70.8241 107.046C69.5148 106.363 68.1937 106.669 66.9701 106.885C65.8758 107.078 65.2323 106.883 64.8974 106.494C64.8368 106.683 64.817 106.888 64.8526 107.109Z" fill="#F4B68C"/>
<path d="M74.9388 110.873C74.4963 110.873 74.0447 110.771 73.64 110.6C72.959 110.312 72.3277 109.839 71.7707 109.421C71.417 109.156 71.0829 108.906 70.8181 108.768C69.7583 108.216 68.6873 108.409 67.5537 108.614L67.2992 108.659C66.3146 108.833 65.5504 108.732 65.0278 108.36C64.6513 108.091 64.4106 107.688 64.3319 107.193C64.0446 105.387 66.3478 104.367 67.754 104.049C67.7685 104.045 67.7831 104.043 67.7979 104.041C67.9596 104.018 71.7774 103.491 73.4723 103.491C73.4726 103.491 73.473 103.491 73.4734 103.491C75.7459 103.491 80.275 105.661 80.5116 107.588C80.6018 108.323 80.344 108.774 80.1119 109.022C79.7429 109.416 79.2334 109.54 78.8953 109.578C78.689 109.89 78.4067 110.12 78.0652 110.251C77.5003 110.468 76.8995 110.375 76.5165 110.269C76.0923 110.696 75.5234 110.873 74.9388 110.873ZM69.2562 107.353C69.9224 107.353 70.6113 107.471 71.3053 107.832C71.6466 108.01 72.0141 108.285 72.4033 108.577C72.9121 108.958 73.4887 109.39 74.0512 109.629C74.5399 109.835 75.4784 110.013 75.8966 109.364C76.0378 109.146 76.3171 109.063 76.5547 109.169C76.6731 109.22 77.737 109.657 78.0944 108.85C78.1833 108.65 78.3865 108.526 78.6058 108.537C78.7337 108.543 79.1484 108.511 79.3438 108.299C79.3857 108.253 79.5135 108.115 79.4647 107.717C79.3264 106.59 75.4635 104.546 73.4735 104.546C73.4731 104.546 73.473 104.546 73.4726 104.546C71.9158 104.546 68.2907 105.038 67.9659 105.082C67.2164 105.258 65.2057 105.971 65.3736 107.027C65.4079 107.242 65.495 107.397 65.64 107.501C65.835 107.64 66.2491 107.773 67.116 107.62L67.3664 107.576C67.9625 107.468 68.5983 107.353 69.2562 107.353Z" fill="#650000"/>
<path d="M73.8578 106.389C75.2057 106.976 77.051 108.012 76.8576 109.751C76.8251 110.049 76.5505 110.263 76.2534 110.218C75.9399 110.174 75.7337 109.854 75.822 109.55C76.075 108.434 74.4775 107.363 73.6298 106.864C73.3466 106.703 73.5551 106.269 73.8578 106.389Z" fill="#650000"/>
<path d="M75.9067 105.688C77.2282 106.279 79.5738 107.481 79.0658 109.266C78.8189 109.969 77.796 109.581 78.0784 108.891C78.4423 107.901 76.4306 106.601 75.6819 106.166C75.3891 106.008 75.5986 105.562 75.9067 105.688Z" fill="#650000"/>
<path d="M55.0861 104.563C55.0861 104.563 58.3898 105.31 58.1036 107.11C57.9814 107.878 57.3444 108.421 55.7488 108.14C54.5254 107.924 53.204 107.618 51.8947 108.3C51.1582 108.684 50.1671 109.667 49.1107 110.114C48.2892 110.462 47.1621 110.496 46.6166 109.65C46.6166 109.65 44.9663 110.387 44.3798 109.064C44.3798 109.064 42.7842 109.152 42.9682 107.652C43.1565 106.118 47.3878 104.018 49.4839 104.018C51.1619 104.019 55.0861 104.563 55.0861 104.563Z" fill="#F9D6B6"/>
<path d="M58.1038 107.109C57.9811 107.878 57.3443 108.421 55.7489 108.14C54.5253 107.924 53.2042 107.618 51.8949 108.3C51.1579 108.684 50.1677 109.667 49.1103 110.114C48.2889 110.462 47.1616 110.497 46.617 109.65C46.617 109.65 44.9663 110.387 44.3795 109.063C44.3795 109.063 42.7841 109.153 42.9687 107.653C42.9938 107.448 43.09 107.235 43.2456 107.016C43.5027 107.871 44.6168 107.809 44.6168 107.809C45.2036 109.132 46.8543 108.396 46.8543 108.396C47.3988 109.241 48.5262 109.207 49.3476 108.86C50.405 108.412 51.3952 107.428 52.1323 107.046C53.4415 106.363 54.7626 106.669 55.9862 106.885C57.0806 107.078 57.724 106.883 58.0589 106.494C58.1196 106.683 58.1394 106.888 58.1038 107.109Z" fill="#F4B68C"/>
<path d="M48.0175 110.873C47.4329 110.873 46.8642 110.696 46.4398 110.269C46.0567 110.375 45.4558 110.468 44.8912 110.251C44.5497 110.12 44.2673 109.89 44.0611 109.578C43.723 109.54 43.2135 109.416 42.8444 109.022C42.6123 108.774 42.3545 108.323 42.4448 107.588C42.6814 105.661 47.2104 103.491 49.483 103.491C49.4835 103.491 49.4837 103.491 49.484 103.491C51.1789 103.492 54.9968 104.018 55.1585 104.041C55.1733 104.043 55.1879 104.045 55.2024 104.049C56.6086 104.367 58.9117 105.387 58.6244 107.193C58.5457 107.688 58.305 108.091 57.9285 108.36C57.4061 108.732 56.6415 108.833 55.6572 108.659L55.4026 108.614C54.2688 108.409 53.198 108.216 52.1382 108.768C51.8734 108.906 51.5393 109.156 51.1856 109.421C50.6286 109.839 49.9973 110.312 49.3164 110.6C48.9117 110.771 48.46 110.873 48.0175 110.873ZM46.6155 109.124C46.7904 109.124 46.9601 109.21 47.0597 109.364C47.478 110.013 48.4165 109.836 48.9051 109.629C49.4676 109.39 50.0443 108.958 50.5531 108.577C50.9423 108.285 51.3098 108.01 51.651 107.832C53.0306 107.114 54.3904 107.359 55.5899 107.576L55.8404 107.62C56.707 107.773 57.1214 107.64 57.3163 107.501C57.4613 107.397 57.5485 107.242 57.5827 107.027C57.7514 105.967 55.7406 105.257 54.991 105.082C54.669 105.038 51.0412 104.546 49.4837 104.546C49.4835 104.546 49.4831 104.546 49.4829 104.546C47.4929 104.546 43.63 106.59 43.4916 107.717C43.4427 108.115 43.5706 108.253 43.6126 108.299C43.808 108.511 44.2241 108.543 44.3539 108.537C44.5693 108.527 44.7741 108.652 44.862 108.85C45.2194 109.656 46.2833 109.22 46.4035 109.168C46.4721 109.138 46.5442 109.124 46.6155 109.124Z" fill="#650000"/>
<path d="M49.3172 106.869C48.4735 107.367 46.8813 108.437 47.1343 109.55C47.3101 110.287 46.213 110.502 46.0988 109.75C45.9248 108.395 47.0835 107.469 48.1046 106.874C48.4274 106.691 48.7486 106.531 49.0985 106.389C49.2335 106.335 49.3874 106.4 49.4422 106.535C49.4945 106.663 49.4375 106.808 49.3172 106.869Z" fill="#650000"/>
<path d="M47.2746 106.166C46.5294 106.599 44.5133 107.901 44.878 108.891C45.1525 109.532 44.2215 109.959 43.9152 109.331C43.4139 107.878 44.931 106.809 46.005 106.2C46.3455 106.01 46.6856 105.842 47.0497 105.688C47.184 105.632 47.3387 105.695 47.3953 105.829C47.4493 105.957 47.3944 106.103 47.2746 106.166Z" fill="#650000"/>
<path d="M62.3318 92.4192C65.3871 96.3078 66.1461 103.536 67.7676 104.589C70.4097 105.776 74.313 104.849 74.9695 104.258C77.2157 99.0389 76.4417 87.5584 75.5893 84.5493" fill="#B17E4F"/>
<path d="M75.2584 103.508C75.1674 103.77 75.0725 104.021 74.9696 104.258C74.313 104.849 70.4103 105.776 67.768 104.589C66.1463 103.536 65.3868 96.3077 62.3319 92.4195L75.5893 84.5494C75.8834 85.5883 76.1682 87.636 76.3224 90.0884C76.5953 94.4157 76.4622 99.9995 75.2584 103.508Z" fill="#D2623A"/>
<path d="M75.2584 103.508C75.1674 103.77 75.0725 104.021 74.9696 104.258C74.313 104.849 70.4103 105.776 67.768 104.589C66.1463 103.536 65.3868 96.3077 62.3319 92.4195L75.5893 84.5494C75.8834 85.5883 76.1682 87.636 76.3224 90.0884C74.3842 93.7498 69.4241 95.5588 68.3323 97.0289C67.2894 98.4344 67.4191 101.687 69.3271 103.386C70.6897 104.599 73.8964 103.847 75.2584 103.508Z" fill="#BC462F"/>
<path d="M70.84 105.673C69.7105 105.673 68.5437 105.503 67.5559 105.06C67.5318 105.049 67.5085 105.036 67.4863 105.022C66.5907 104.44 66.0462 102.722 65.2927 100.345C64.5064 97.8644 63.5279 94.7773 61.9257 92.7382C61.7494 92.5138 61.7885 92.1892 62.0127 92.0131C62.2369 91.8367 62.5616 91.8759 62.7378 92.1C64.4558 94.2865 65.4656 97.4727 66.2772 100.033C66.8509 101.843 67.4438 103.713 68.0202 104.136C70.3639 105.162 73.8275 104.391 74.5466 103.931C76.709 98.7016 75.8756 87.4552 75.0924 84.6901C75.0147 84.4156 75.1741 84.1302 75.4485 84.0525C75.7234 83.9748 76.0084 84.1342 76.0861 84.4085C77.0006 87.6369 77.7371 99.1332 75.4438 104.462C75.4143 104.53 75.3704 104.592 75.3151 104.641C74.7767 105.127 72.8682 105.673 70.84 105.673Z" fill="#650000"/>
<path d="M61.1403 92.4192C58.1212 95.9827 58.1212 102.628 55.6086 104.712C53.1596 105.927 49.125 104.732 48.4685 104.14C46.377 99.78 47.2754 86.8893 48.3506 83.4168" fill="#B17E4F"/>
<path d="M61.1399 92.4194C58.1206 95.9833 58.1206 102.629 55.6088 104.712C53.1591 105.927 49.1245 104.732 48.4679 104.141C48.3031 103.797 48.1567 103.4 48.0288 102.959C46.9529 99.2862 47.0716 92.546 47.5871 87.8192C47.7941 85.914 48.067 84.3357 48.3505 83.4167L61.1399 92.4194Z" fill="#D2623A"/>
<path d="M61.1399 92.4194C58.1206 95.9833 58.1206 102.629 55.6088 104.712C53.1591 105.927 49.1245 104.732 48.4679 104.141C48.3031 103.797 48.1567 103.4 48.0288 102.959C49.0243 103.729 50.9216 104.645 53.7221 103.702C56.5081 102.766 56.007 98.2815 55.3953 96.8311C54.2693 94.1625 49.437 91.8933 47.5871 87.8192C47.7941 85.914 48.067 84.3357 48.3505 83.4167L61.1399 92.4194Z" fill="#BC462F"/>
<path d="M52.9682 105.76C50.8088 105.76 48.668 105.015 48.1228 104.524C48.0728 104.479 48.0321 104.424 48.0029 104.363C45.7878 99.7456 46.7854 86.7261 47.8573 83.264C47.9416 82.9916 48.2305 82.839 48.5033 82.9235C48.7758 83.0078 48.9282 83.2971 48.8439 83.5695C47.7901 86.973 46.9116 99.4638 48.8848 103.811C49.623 104.317 53.2106 105.277 55.3244 104.276C56.4183 103.326 57.026 101.245 57.669 99.0434C58.3639 96.6644 59.1514 93.9679 60.7464 92.0853C60.9308 91.8677 61.2565 91.8407 61.4741 92.0251C61.6917 92.2095 61.7187 92.5353 61.5343 92.7529C60.0812 94.468 59.3589 96.9412 58.6604 99.333C57.963 101.721 57.3043 103.976 55.9383 105.109C55.9076 105.135 55.874 105.156 55.8382 105.174C54.9839 105.598 53.9739 105.76 52.9682 105.76Z" fill="#650000"/>
<path d="M61.4588 65.5586C48.8419 66.8953 35.1184 53.0258 31.188 55.7377C28.7633 57.4106 25.6724 62.8875 25.9584 64.0146C26.8244 67.4283 33.736 71.8801 39.5412 73.5168C47.6594 75.8056 54.11 75.0657 54.11 75.0657" fill="#B17E4F"/>
<path d="M61.459 65.5591L57.1699 71.1073L54.1097 75.0654C54.1097 75.0654 47.6597 75.8051 39.5417 73.5162C33.7363 71.8799 26.8248 67.4287 25.9586 64.0151C25.6725 62.8878 28.763 57.4108 31.1877 55.7376C31.6254 55.4357 32.1845 55.3394 32.849 55.4053C38.1599 55.9248 50.2465 66.7457 61.459 65.5591Z" fill="#D2623A"/>
<path d="M61.459 65.5591L59.12 68.585C53.4834 67.2731 48.9478 64.8286 46.6457 61.9754C51.3066 64.2379 56.4698 66.0865 61.459 65.5591Z" fill="#BC462F"/>
<path d="M57.1699 71.1073L54.1097 75.0655C54.1097 75.0655 47.6597 75.8051 39.5417 73.5162C33.7363 71.88 26.8248 67.4287 25.9586 64.0152C25.6725 62.8879 28.763 57.4108 31.1877 55.7377C31.6254 55.4357 32.1845 55.3395 32.849 55.4054C34.2506 57.6046 34.2598 60.835 32.9703 63.7646C31.4013 67.3299 35.5743 69.9747 40.4172 71.1258C47.1428 72.7251 52.1729 70.8595 54.8046 69.2021C55.7288 69.8548 56.5094 70.4942 57.1699 71.1073Z" fill="#BC462F"/>
<path d="M51.383 75.7012C48.7223 75.7012 44.391 75.4206 39.401 74.0138C33.5855 72.3742 26.387 67.8039 25.4578 64.1415C25.1943 63.1028 26.6595 60.5662 27.1148 59.8135C28.3456 57.779 29.7586 56.0965 30.8947 55.3127C32.8643 53.9542 36.3633 55.8736 41.2064 58.5306C47.0971 61.7623 54.4282 65.7845 61.4044 65.0451C61.6879 65.0152 61.9423 65.2207 61.9723 65.5042C62.0024 65.7878 61.7968 66.0421 61.5132 66.0722C54.2154 66.8453 46.7267 62.7371 40.7097 59.436C36.533 57.1447 32.9262 55.1659 31.4812 56.1627C28.9919 57.8803 26.2944 63.1159 26.4592 63.8886C27.218 66.8795 33.6439 71.3175 39.6814 73.0198C47.5969 75.2515 53.9879 74.56 54.0514 74.5526C54.3343 74.5209 54.5906 74.7238 54.623 75.0071C54.6554 75.2903 54.4522 75.5462 54.1689 75.5787C54.0657 75.5905 53.0535 75.7012 51.383 75.7012Z" fill="#650000"/>
<path d="M71.0895 70.1708C68.7727 70.4529 66.2285 70.4577 63.495 70.1827C60.8282 69.9148 58.3554 69.2838 56.1362 68.4326C56.7148 67.329 57.1613 66.3527 57.3494 65.5586C57.3494 65.5586 58.1744 65.8812 63.7545 66.2384C69.3334 66.5944 70.9847 67.7707 70.9847 67.7707C70.9716 68.5552 71.0109 69.3588 71.0895 70.1708Z" fill="#F9D3B7"/>
<path d="M72.6634 69.9315C69.9442 70.4351 66.8619 70.5208 63.495 70.1827C60.3579 69.8672 57.4887 69.0505 54.9862 67.9636C56.3303 66.3408 59.2638 63.7324 64.0664 64.0395C69.0703 64.3597 71.63 67.9623 72.6634 69.9315Z" fill="#FF9343"/>
<path d="M73.2309 71.2C74.207 76.6648 76.0116 80.3412 76.1728 85.0487C76.248 87.2443 75.8269 89.5602 74.8674 91.1497L69.2017 95.1632C67.0002 95.986 64.4299 96.3641 61.6167 96.1488C58.8036 95.9334 56.3208 95.1685 54.2704 94.0201L49.2848 89.1969C48.2041 87.28 47.7516 85.1255 48.0546 82.9411C48.6367 78.7445 50.8655 73.8753 54.11 69.2021C54.11 69.2021 57.1492 63.5976 64.0668 64.04C70.9845 64.4824 73.2309 71.2 73.2309 71.2Z" fill="#FFAD40"/>
<path d="M76.1517 86.4895C76.0398 88.217 75.6171 89.9064 74.8671 91.1493L69.2013 95.1626C67 95.9865 64.4296 96.3639 61.6164 96.1484C58.8031 95.9329 56.3208 95.1686 54.2707 94.0197L49.2847 89.1968C48.2037 87.2801 47.7513 85.1252 48.0549 82.9405C48.6371 78.7451 50.8658 73.8758 54.11 69.2017C54.11 69.2017 57.1494 63.5978 64.0665 64.0395C70.9847 64.4824 73.2313 71.1994 73.2313 71.1994C74.2075 76.6652 76.0112 80.3416 76.1731 85.049C76.1898 85.5264 76.1826 86.0098 76.1517 86.4895Z" fill="#D2623A"/>
<path d="M72.3352 69.3445C69.722 69.6688 66.8424 69.6979 63.8441 69.3788C60.7813 69.0531 57.9175 68.3965 55.3926 67.4986C56.1363 65.5591 59.7014 63.7606 64.067 64.0389C68.6065 64.3289 71.8405 67.2589 72.3352 69.3445Z" fill="#BC462F"/>
<path d="M71.2791 90.4562C70.4511 91.6231 68.0791 93.6206 61.7148 93.498C58.0085 93.4268 54.7729 91.983 52.9837 89.4146C55.237 91.0456 58.2577 92.2072 62.1842 92.2678C66.1027 92.3285 69.0812 91.5202 71.2791 90.4562Z" fill="#E2B28A"/>
<path d="M76.1517 86.4895C76.0398 88.217 75.6171 89.9064 74.8671 91.1493L72.7315 93.0125L69.2013 95.1627C67 95.9865 64.4296 96.3639 61.6164 96.1484C58.8031 95.9329 56.3208 95.1686 54.2707 94.0197L51.9465 91.9466L49.2847 89.1968C48.2037 87.2801 47.7513 85.1252 48.0549 82.9406C49.5097 86.9431 53.7647 92.1375 62.1842 92.2673C70.9395 92.403 74.9992 88.2063 76.1505 86.4908C76.1505 86.4908 76.1505 86.4895 76.1517 86.4895Z" fill="#BC462F"/>
<path d="M49.0551 89.3264C47.7082 87.4418 47.1383 84.9089 47.5955 82.5978C47.6514 82.2025 47.7761 81.6331 47.8609 81.2367C48.4965 78.5588 49.6013 76.0195 50.9326 73.6221C51.8209 72.033 52.8152 70.509 53.8935 69.0517C53.9801 68.9346 54.1454 68.9099 54.2625 68.9966C54.3754 69.08 54.4023 69.2367 54.3267 69.3525C53.3598 70.8637 52.4395 72.4022 51.633 73.996C50.8218 75.5806 50.1096 77.2189 49.5432 78.9039C49.0078 80.5669 48.5493 82.283 48.4913 84.0333C48.4294 85.7726 48.8329 87.4607 49.5146 89.0674C49.637 89.3519 49.2414 89.5845 49.0551 89.3264Z" fill="#650000"/>
<path d="M69.294 95.4101C64.6404 97.5302 58.413 97.0722 54.1416 94.2502C54.0205 94.1682 53.9888 94.0037 54.0707 93.8827C54.144 93.7742 54.284 93.7374 54.3993 93.79C55.5559 94.3077 56.742 94.7229 57.9561 95.0278C60.3844 95.6292 62.9145 95.8278 65.4063 95.6035C66.6535 95.4879 67.89 95.2557 69.1107 94.9157C69.4147 94.831 69.5861 95.2726 69.294 95.4101Z" fill="#650000"/>
<path d="M73.4905 71.1536C74.3199 75.3586 76.0627 79.3538 76.5574 83.6334C76.6404 84.5069 76.7266 85.3867 76.6894 86.2661C76.584 88.03 76.1744 89.8476 75.0932 91.2859C75.0039 91.4021 74.8373 91.4238 74.7211 91.3344C74.621 91.2575 74.5913 91.1232 74.6417 91.0134C75.5922 88.7333 75.7973 86.1797 75.593 83.7313C75.3693 81.1966 74.6538 78.7699 74.0281 76.2902C73.6034 74.6311 73.2265 72.9476 72.9713 71.2463C72.9268 70.9207 73.4122 70.8158 73.4905 71.1536Z" fill="#650000"/>
<path d="M89.9251 47.38C89.9251 47.38 90.9776 43.3716 95.3529 43.752C99.5554 44.1173 101.089 48.3619 100.341 51.389C99.5553 54.5695 97.7157 56.1386 95.1241 56.7079C92.4169 57.3026 89.7263 56.4371 89.7263 56.4371" fill="#F9D6B6"/>
<path d="M100.341 51.3886C99.555 54.5698 97.7156 56.1392 95.1244 56.7084C92.4174 57.3022 89.7263 56.4365 89.7263 56.4365L89.7689 54.4972C90.8009 54.7352 92.9018 55.0841 95.0122 54.6199C97.6443 54.0414 99.5672 52.522 100.516 49.5229C100.546 50.1651 100.487 50.8007 100.341 51.3886Z" fill="#F4B68C"/>
<path d="M95.7807 51.3877C95.7183 51.631 95.6443 51.8558 95.557 52.0648C95.0318 53.3399 94.0719 54.0009 92.7896 54.2607C91.2318 54.5762 89.6794 54.0972 89.6794 54.0972L89.7675 49.1798C89.7675 49.1798 90.361 47.0069 92.8842 47.2253C93.8393 47.3082 94.5564 47.718 95.0501 48.2843C95.8087 49.1533 96.0364 50.3927 95.7807 51.3877Z" fill="#F28475"/>
<path d="M95.557 52.0648C95.0318 53.3399 94.0719 54.0009 92.7896 54.2607C91.2318 54.5762 89.6794 54.0972 89.6794 54.0972L89.7675 49.1798C89.7675 49.1798 90.361 47.0069 92.8842 47.2253C93.8393 47.3082 94.5564 47.718 95.0501 48.2843C95.0501 48.2843 92.3404 49.4801 92.4468 51.4274C92.5456 53.2408 94.2748 52.7134 95.557 52.0648Z" fill="#F44A4A"/>
<path d="M91.6546 54.8957C90.4962 54.8957 89.575 54.6176 89.5238 54.6018C89.2454 54.5162 89.0892 54.221 89.1748 53.9427C89.2605 53.6642 89.5555 53.5082 89.834 53.5937C89.8477 53.5978 91.2842 54.0273 92.6858 53.7438C94.0853 53.461 94.9065 52.6705 95.2702 51.2563C95.477 50.4524 95.3033 49.5263 94.8169 48.8393C94.5016 48.3941 93.9024 47.8438 92.8382 47.7513C90.8356 47.5772 90.3261 49.1432 90.2746 49.3224C90.1944 49.6009 89.9039 49.7646 89.6248 49.6862C89.3457 49.6079 89.1816 49.3205 89.2581 49.0409C89.504 48.1423 90.5868 46.4966 92.9296 46.7005C94.3963 46.8281 95.2336 47.6026 95.6778 48.2298C96.3383 49.1627 96.5736 50.4231 96.2918 51.5191C95.8288 53.3193 94.6859 54.4157 92.8947 54.7777C92.4705 54.8635 92.0488 54.8957 91.6546 54.8957Z" fill="#650000"/>
<path d="M93.0876 57.445C91.1671 57.4451 89.65 56.9666 89.5648 56.9392C89.2875 56.85 89.135 56.5529 89.2242 56.2756C89.3135 55.9983 89.6104 55.8459 89.8878 55.935C89.9129 55.9431 92.4825 56.7482 95.0109 56.1928C97.6078 55.6223 99.139 54.0556 99.8293 51.2624C100.24 49.6007 99.8752 47.6462 98.9001 46.2829C98.0552 45.1018 96.8128 44.4083 95.3071 44.2774C91.4208 43.9381 90.4735 47.3678 90.4352 47.514C90.3612 47.7958 90.0726 47.9645 89.7911 47.8902C89.5094 47.8162 89.341 47.5278 89.415 47.2461C89.4267 47.2017 90.6354 42.8123 95.3985 43.2265C97.2208 43.385 98.7283 44.2297 99.7579 45.6692C100.922 47.2972 101.342 49.5373 100.853 51.5155C100.067 54.6988 98.2294 56.5657 95.2371 57.2231C94.5005 57.3848 93.7687 57.445 93.0876 57.445Z" fill="#650000"/>
<path d="M47.0836 42.1353C47.0836 42.1353 46.7832 38.0018 42.4123 37.5744C38.2138 37.1638 35.9284 41.0555 36.1093 44.1684C36.2994 47.4391 37.8205 49.3186 40.264 50.353C42.8164 51.4335 45.62 51.0755 45.62 51.0755" fill="#F9D6B6"/>
<path d="M36.1095 44.168C36.2996 47.4394 37.8205 49.3192 40.2636 50.3534C42.8161 51.4331 45.6202 51.0749 45.6202 51.0749L45.9335 49.1606C44.8754 49.2056 42.7461 49.1637 40.7564 48.3208C38.2749 47.2699 36.6628 45.424 36.2798 42.302C36.1325 42.9278 36.0736 43.5633 36.1095 44.168Z" fill="#F4B68C"/>
<path d="M40.593 45.0026C40.6098 45.2531 40.6414 45.4877 40.6888 45.7092C40.9716 47.0589 41.7942 47.8845 43.0073 48.3747C44.4809 48.9702 46.0947 48.7837 46.0947 48.7837L46.9089 43.9334C46.9089 43.9334 46.7235 41.6885 44.203 41.4411C43.2489 41.3476 42.4688 41.6191 41.8798 42.0853C40.9748 42.8008 40.5238 43.9775 40.593 45.0026Z" fill="#F28475"/>
<path d="M40.6888 45.7092C40.9716 47.0589 41.7942 47.8845 43.0072 48.3747C44.4809 48.9702 46.0947 48.7837 46.0947 48.7837L46.9089 43.9334C46.9089 43.9334 46.7234 41.6885 44.203 41.4411C43.2489 41.3476 42.4688 41.6191 41.8797 42.0853C41.8797 42.0853 44.3246 43.7572 43.8633 45.6521C43.4339 47.4168 41.8306 46.5816 40.6888 45.7092Z" fill="#F44A4A"/>
<path d="M45.4796 49.3395C44.8268 49.3395 43.7959 49.2621 42.8092 48.8638C41.1147 48.1798 40.1918 46.8927 40.0664 45.0381C39.9901 43.909 40.4523 42.713 41.2727 41.9168C41.8242 41.3817 42.7896 40.7744 44.2543 40.9168C46.594 41.1455 47.358 42.9617 47.435 43.8901C47.4591 44.1804 47.2434 44.4352 46.9531 44.4593C46.6648 44.4837 46.4095 44.2691 46.3841 43.98C46.3658 43.7912 46.1498 42.1618 44.1518 41.9666C43.0883 41.8628 42.3988 42.2938 42.0073 42.6738C41.4033 43.2599 41.0628 44.1386 41.1188 44.9669C41.2173 46.4238 41.8799 47.3512 43.204 47.8856C44.5296 48.4206 46.0205 48.2618 46.0357 48.2603C46.3248 48.228 46.5859 48.4361 46.6187 48.725C46.6515 49.0142 46.4443 49.2751 46.1553 49.3083C46.1284 49.3115 45.8725 49.3395 45.4796 49.3395Z" fill="#650000"/>
<path d="M44.4698 51.6613C43.3676 51.6613 41.6755 51.5232 40.0583 50.8387C37.2371 49.6443 35.7731 47.4725 35.5828 44.199C35.4645 42.1648 36.2874 40.0394 37.7304 38.6523C39.0063 37.4257 40.6424 36.8711 42.4636 37.0494C47.2219 37.5148 47.6062 42.0512 47.6096 42.097C47.6307 42.3875 47.4123 42.6401 47.1218 42.6613C46.8307 42.6816 46.5791 42.4644 46.5576 42.1744C46.5448 42.0138 46.2168 38.4763 42.3609 38.0992C40.8567 37.952 39.5083 38.4063 38.4614 39.4126C37.253 40.5743 36.5365 42.429 36.6358 44.1378C36.8028 47.0102 38.021 48.8308 40.4696 49.8673C42.8537 50.8765 45.527 50.5557 45.5538 50.5522C45.8431 50.5149 46.1064 50.7205 46.143 51.0092C46.1796 51.2979 45.9756 51.5618 45.6869 51.5986C45.6398 51.6047 45.1758 51.6612 44.4698 51.6613Z" fill="#650000"/>
<path d="M76.5571 20.8419L75.6119 20.5655C75.9288 20.6521 76.2441 20.7424 76.5571 20.8419Z" fill="#B17E4F"/>
<path d="M91.1256 60.6156C90.0765 63.2861 86.0954 66.1633 79.9507 66.878L52.2429 63.6172C46.432 61.4955 43.2276 57.7727 42.8271 54.9316C42.5299 52.8154 43.2475 50.0519 46.2819 49.0918C44.8755 46.3154 44.4694 42.4379 44.7994 38.8912C45.3993 32.4505 49.0461 27.0881 54.2139 23.6586C55.4171 22.8601 56.9696 22.0625 58.799 21.3752C58.9592 18.4587 59.7204 17.0092 60.1665 16.2117C60.3173 15.9438 60.679 15.8866 60.9054 16.0948C61.5596 16.6973 62.2196 17.6874 62.6788 18.0035C62.9303 18.1759 63.2765 18.0738 63.3916 17.7906C63.9082 16.5231 64.7287 14.935 65.2112 14.311C65.4107 14.053 65.8056 14.0676 65.9859 14.3384C66.6422 15.3238 68.2864 17.2699 70.7197 18.4963C72.8557 19.5741 74.0602 19.9543 75.5597 20.4678L75.561 20.4679C80.9277 22.2295 85.0286 25.1081 87.3101 27.5535C91.5406 32.089 93.8429 38.1515 92.9311 44.5555C92.4288 48.082 91.1336 51.7592 89.121 54.1333C91.8496 55.7717 91.906 58.6263 91.1256 60.6156Z" fill="#D2623A"/>
<g opacity="0.35">
<path d="M92.9311 44.5554C92.9145 44.6727 92.8966 44.7898 92.8773 44.9068C93.324 38.9903 91.056 33.4378 87.1149 29.2123C86.5422 28.6 85.8564 27.9591 85.0654 27.3169C84.0623 28.7477 81.5255 28.9899 79.1748 27.8161C76.6669 26.5643 75.3203 24.1748 76.1657 22.4815C76.1768 22.4578 76.1891 22.4357 76.2014 22.4136C75.926 22.3146 75.6474 22.2194 75.3658 22.1267L75.3644 22.1265C73.865 21.6131 72.6604 21.2329 70.5244 20.1551C68.0911 18.9287 66.447 16.9826 65.7906 15.9972C65.6103 15.7264 65.554 15.7572 65.3698 16.0267C64.9817 16.5911 64.139 19.0737 63.7193 19.5539C63.5287 19.7714 63.2806 19.8171 62.8186 19.502C62.3575 19.1898 60.9464 17.726 60.7102 17.7536C60.4064 17.79 59.5555 20.5309 59.935 21.9371C59.9359 21.9414 59.938 21.9472 59.9389 21.9514C60.0001 22.1375 60.032 22.3146 60.0145 22.4637C59.9998 22.5881 59.1815 22.8024 58.6038 23.0339C56.7744 23.7213 55.2219 24.5188 54.0187 25.3173C49.2043 28.5125 45.7092 33.3867 44.7702 39.2453C44.7786 39.127 44.7883 39.0089 44.7994 38.891C45.3993 32.4503 49.0461 27.0879 54.2139 23.6584C55.4125 22.8636 56.9564 22.0691 58.7758 21.3834C58.7668 21.4364 58.8009 21.3822 58.8547 21.279C58.8394 21.2439 58.8256 21.2076 58.812 21.17C58.9949 18.3907 59.7311 16.9895 60.1665 16.2116C60.3173 15.9437 60.679 15.8864 60.9054 16.0947C61.5596 16.6972 62.2196 17.6873 62.6788 18.0033C62.9303 18.1757 63.2765 18.0737 63.3916 17.7905C63.9082 16.5229 64.7287 14.9348 65.2112 14.3108C65.4107 14.0528 65.8056 14.0674 65.9858 14.3382C66.6422 15.3237 68.2864 17.2698 70.7196 18.4962C72.8557 19.5739 74.0602 19.9542 75.5596 20.4676L75.561 20.4678C76.2685 20.7008 76.9544 20.952 77.6161 21.2198C80.8459 22.5234 83.5223 24.2055 85.497 25.8522C86.1902 26.4302 86.7954 27.0019 87.3101 27.5533C91.5406 32.0889 93.8428 38.1514 92.9311 44.5554Z" fill="white"/>
</g>
<g opacity="0.35">
<path d="M58.812 21.17C58.8068 21.2373 58.8029 21.3062 58.799 21.375C58.7917 21.3783 58.783 21.3815 58.7758 21.3834C58.7871 21.3112 58.7982 21.2404 58.812 21.17Z" fill="white"/>
</g>
<g opacity="0.35">
<path d="M89.3173 54.2561C89.2529 54.2138 89.1884 54.173 89.121 54.1331C89.9019 53.2115 90.5756 52.0942 91.1349 50.8636C90.6388 52.1099 90.0311 53.2683 89.3173 54.2561Z" fill="white"/>
</g>
<path d="M91.1257 60.6155C90.0765 63.2859 86.0954 66.1632 79.9507 66.8779L52.2429 63.6171C46.432 61.4954 43.2276 57.7725 42.8271 54.9315C42.6714 53.8275 42.793 52.5468 43.3753 51.4395C44.0292 54.2133 47.1959 57.6669 52.7064 59.6784L80.4143 62.9392C86.2412 62.2619 90.1232 59.6379 91.4031 57.0917C91.7124 58.3038 91.5334 59.5778 91.1257 60.6155Z" fill="#BC462F"/>
<path d="M79.9507 67.4054C79.9301 67.4054 79.9095 67.4042 79.889 67.4018L52.1812 64.1409C52.1405 64.1362 52.1005 64.1267 52.062 64.1126C45.8912 61.8595 42.715 57.9151 42.3048 55.0053C42.0008 52.8405 42.6964 50.0028 45.5583 48.7963C44.3932 46.1688 43.9261 42.5838 44.2743 38.8423C44.856 32.5964 48.3726 26.902 53.9223 23.2192C55.1495 22.4048 56.6553 21.642 58.2943 21.0036C58.5073 18.0979 59.3118 16.6593 59.7062 15.9543C59.8581 15.6842 60.1198 15.5022 60.4248 15.4539C60.7296 15.4053 61.0351 15.4977 61.2624 15.7067C61.5933 16.0114 61.9204 16.4016 62.2091 16.7458C62.4712 17.0585 62.7415 17.3809 62.9278 17.5315C63.4216 16.3325 64.2443 14.6993 64.7939 13.9885C64.9912 13.7333 65.3024 13.5885 65.6242 13.5994C65.9469 13.6108 66.2463 13.7778 66.4248 14.0462C66.7086 14.4722 68.2606 16.6664 70.9569 18.0254C72.8914 19.0015 74.044 19.3941 75.3786 19.8488L75.7147 19.9634C75.7183 19.9646 75.7219 19.9657 75.7255 19.9668C80.4439 21.5157 84.9188 24.2173 87.6957 27.1937C92.2388 32.0646 94.3374 38.4198 93.4533 44.6299C92.9233 48.3501 91.6366 51.7287 89.8933 54.0139C92.3969 55.8519 92.4148 58.7736 91.6166 60.8082C91.6166 60.8084 91.6165 60.8084 91.6165 60.8085C90.5421 63.5435 86.537 66.6429 80.0117 67.4018C79.9913 67.4042 79.9711 67.4054 79.9507 67.4054ZM52.3662 63.1007L79.9507 66.347C85.9734 65.6302 89.7096 62.7776 90.6348 60.4228C91.3661 58.5582 91.2812 56.0456 88.8495 54.5855C88.7167 54.5058 88.6257 54.3719 88.6005 54.2192C88.5753 54.0664 88.6185 53.9103 88.7186 53.7923C90.5244 51.6623 91.8694 48.2685 92.409 44.4812C93.248 38.5884 91.2489 32.5496 86.9244 27.9133C84.2661 25.0639 79.9628 22.4704 75.4108 20.9738C75.4034 20.9716 75.396 20.9693 75.3888 20.9668L75.0384 20.8472C73.6666 20.3798 72.4818 19.9762 70.482 18.9672C67.6564 17.543 65.9819 15.2693 65.5864 14.6893C65.1423 15.2936 64.3754 16.774 63.8799 17.9897C63.7651 18.2722 63.5316 18.4848 63.2393 18.5726C62.9463 18.6606 62.6333 18.6117 62.3806 18.4385C62.0759 18.2288 61.7631 17.8556 61.4008 17.4235C61.1351 17.1066 60.8608 16.7795 60.5948 16.5264C60.2142 17.2089 59.4801 18.591 59.3256 21.4041C59.3141 21.613 59.1803 21.7953 58.9845 21.8688C57.2955 22.5035 55.7466 23.2744 54.5055 24.0981C49.2229 27.6037 45.8765 33.0133 45.3245 38.9401C44.9701 42.7492 45.4905 46.3624 46.7524 48.8535C46.8223 48.9916 46.8281 49.1534 46.7681 49.2962C46.7081 49.4388 46.5885 49.548 46.4409 49.5947C43.7365 50.4503 43.0707 52.8747 43.3493 54.8583C43.7025 57.3633 46.6745 61.0054 52.3662 63.1007Z" fill="#650000"/>
<path d="M89.3388 60.1169C89.1281 62.1553 86.979 64.8641 84.3176 65.8002C82.8296 66.3086 76.3586 68.5351 65.8554 67.299C55.3521 66.0629 49.5748 62.395 48.2455 61.555C45.8741 60.0266 44.4126 56.893 44.6808 54.8613C45.132 51.4397 48.8529 51.0097 48.8529 51.0097C48.8529 51.0097 45.4866 41.5468 51.2953 34.6626C51.3406 34.607 51.3889 34.5502 51.4368 34.4962C59.3268 25.4319 69.9874 32.1883 69.3272 37.7982C69.9873 32.1883 81.9252 28.0914 87.4953 38.7398C87.5294 38.8034 87.5632 38.8698 87.5943 38.9345C91.6461 46.9791 86.1749 55.4019 86.1749 55.4019C86.1749 55.4019 89.6943 56.6841 89.3388 60.1169Z" fill="#F9D6B6"/>
<path d="M89.3388 60.1168C89.1281 62.1552 86.979 64.864 84.3176 65.8C82.8296 66.3085 76.3586 68.535 65.8554 67.2989C55.3521 66.0628 49.5748 62.3949 48.2455 61.5549C45.8741 60.0265 44.4126 56.8928 44.6808 54.8612C44.7288 54.5008 44.8117 54.1736 44.9255 53.8778C45.1546 55.8196 49.4296 63.286 66.0968 65.2475C82.764 67.2089 88.6555 60.939 89.3291 59.1035C89.3712 59.4176 89.3758 59.7551 89.3388 60.1168Z" fill="#F4B68C"/>
<path d="M72.012 68.1947C69.7123 68.1947 67.592 68.0345 65.7937 67.8229C60.9629 67.2543 53.9502 65.7841 47.9764 62.0089C47.975 62.008 47.9611 61.9993 47.9598 61.9984C45.3396 60.3097 43.8786 56.909 44.158 54.7924C44.5054 52.1579 46.6739 50.9732 48.1726 50.6006C47.9106 49.6893 47.4532 47.7943 47.3687 45.4367C47.2129 41.0824 48.4312 37.2391 50.8922 34.3226C50.9364 34.2682 50.9895 34.2058 51.0423 34.1463C54.844 29.7785 59.8942 28.3986 64.5484 30.4584C67.035 31.5589 68.8957 33.5193 69.5879 35.5822C70.7402 33.7364 73.0052 32.2616 75.6792 31.7684C80.6844 30.8458 85.2762 33.3599 87.9626 38.4954C87.9977 38.5608 88.035 38.634 88.0694 38.7054C89.782 42.1055 90.0749 46.1265 88.9124 50.3256C88.283 52.5993 87.3981 54.3364 86.9317 55.162C88.3028 55.8722 90.1368 57.5284 89.8634 60.1712C89.6438 62.2949 87.4333 65.2634 84.4926 66.2977C84.4911 66.2982 84.4755 66.3035 84.474 66.3041C80.276 67.7387 75.89 68.1947 72.012 68.1947ZM60.2372 30.5833C57.2349 30.5833 54.2653 32.05 51.8346 34.8425C51.7883 34.8948 51.7448 34.9458 51.704 34.9958C46.1587 41.5681 49.3173 50.7414 49.3498 50.8332C49.4035 50.9847 49.3853 51.1524 49.3003 51.2886C49.2153 51.4249 49.073 51.5152 48.9135 51.5336C48.7793 51.5498 45.5945 51.9671 45.2037 54.9304C44.9714 56.69 46.2809 59.6614 48.5312 61.1118C54.3464 64.7867 61.1947 66.2195 65.917 66.7753C70.6392 67.331 77.6327 67.5272 84.1329 65.306C86.6682 64.4143 88.6317 61.8282 88.8142 60.0627V60.0627C89.1221 57.0897 86.1211 55.9443 85.9932 55.897C85.8429 55.8415 85.7255 55.7203 85.675 55.5682C85.6245 55.4161 85.6454 55.2491 85.7327 55.1146C85.7855 55.0332 90.9875 46.8438 87.1233 39.1718C87.0914 39.1056 87.061 39.0461 87.0304 38.989C84.5675 34.2806 80.3966 31.9705 75.8706 32.8057C72.6575 33.3983 70.1258 35.524 69.8509 37.86C69.8168 38.1493 69.5556 38.3568 69.2655 38.3221C68.9971 38.2905 68.7997 38.0627 68.7997 37.7989C68.7997 37.7783 68.8009 37.7576 68.8034 37.7367C69.0783 35.4006 67.1092 32.7453 64.1215 31.4229C62.8482 30.8594 61.5395 30.5833 60.2372 30.5833Z" fill="#650000"/>
<path d="M86.1279 59.4706C86.2003 58.6469 85.0574 57.8735 83.5751 57.7432C82.0929 57.6128 80.8326 58.1749 80.7601 58.9986C80.6877 59.8223 81.8306 60.5957 83.3129 60.726C84.7951 60.8564 86.0554 60.2943 86.1279 59.4706Z" fill="#F28475"/>
<path d="M53.2107 56.5055C53.2831 55.6818 52.1402 54.9084 50.6579 54.7781C49.1757 54.6477 47.9154 55.2098 47.8429 56.0335C47.7705 56.8572 48.9134 57.6306 50.3957 57.7609C51.8779 57.8913 53.1382 57.3292 53.2107 56.5055Z" fill="#F28475"/>
<path d="M68.1614 55.926C68.0435 55.9488 67.9425 55.8429 67.9696 55.7259C68.0512 55.375 68.2664 54.7779 68.7902 54.742C69.484 54.6945 69.5059 55.295 69.4289 55.4668C69.3392 55.667 69.1544 55.7811 68.8067 55.8227C68.5933 55.8482 68.3434 55.8907 68.1614 55.926Z" fill="#650000"/>
<path d="M66.2953 55.6876C66.4074 55.7307 66.5254 55.644 66.519 55.5241C66.5 55.1643 66.3923 54.5388 65.8828 54.4121C65.2079 54.2442 65.0815 54.8317 65.1274 55.0143C65.1808 55.2271 65.3429 55.3717 65.6779 55.4733C65.8836 55.5356 66.1223 55.6211 66.2953 55.6876Z" fill="#650000"/>
<path d="M65.0011 58.5147C66.2928 59.5974 68.4861 59.8172 69.5346 58.3107C69.6621 58.13 69.9143 58.0887 70.0925 58.22C70.2577 58.3414 70.3002 58.5684 70.1983 58.7413C69.3424 60.2363 67.3475 60.5204 65.9116 59.7445C65.4511 59.51 65.0387 59.1877 64.7195 58.7924C64.6505 58.707 64.6638 58.5819 64.7492 58.5129C64.8241 58.4524 64.9299 58.4554 65.0011 58.5147Z" fill="#650000"/>
<path d="M69.0256 57.663C70.0208 57.4713 70.9518 58.5685 70.5109 59.506C70.4482 59.6633 70.2122 59.6714 70.1372 59.5221C70.0431 59.3519 69.9997 59.1691 69.9136 59.0092C69.7216 58.5584 69.3448 58.2968 68.9439 58.0281C68.7976 57.9312 68.8548 57.688 69.0256 57.663Z" fill="#650000"/>
<path d="M62.6619 50.6123C63.0382 48.1077 61.6384 45.8211 59.5352 45.5051C57.4321 45.1891 55.422 46.9632 55.0457 49.4678C54.6693 51.9724 56.0691 54.2589 58.1723 54.575C60.2755 54.891 62.2855 53.1168 62.6619 50.6123Z" fill="#650000"/>
<path d="M61.6654 49.5672C61.8092 48.6105 61.3249 47.7446 60.5838 47.6333C59.8426 47.5219 59.1252 48.2072 58.9814 49.1639C58.8377 50.1206 59.322 50.9865 60.0631 51.0979C60.8043 51.2093 61.5217 50.524 61.6654 49.5672Z" fill="white"/>
<g opacity="0.35">
<path d="M57.207 52.6711C57.7673 52.6376 58.1807 51.9281 58.1303 51.0865C58.0799 50.245 57.5847 49.5899 57.0244 49.6235C56.464 49.6571 56.0506 50.3665 56.1011 51.2081C56.1515 52.0497 56.6466 52.7047 57.207 52.6711Z" fill="white"/>
</g>
<path d="M80.3587 52.6786C80.5805 50.1555 79.0429 47.9591 76.9242 47.7728C74.8055 47.5865 72.9081 49.4809 72.6863 52.0039C72.4644 54.527 74.0021 56.7234 76.1208 56.9097C78.2394 57.096 80.1368 55.2017 80.3587 52.6786Z" fill="#650000"/>
<path d="M76.6039 51.4597C76.6886 50.4959 76.1521 49.6614 75.4054 49.5957C74.6588 49.5301 73.9848 50.2581 73.9001 51.2219C73.8153 52.1857 74.3519 53.0202 75.0985 53.0859C75.8452 53.1516 76.5191 52.4235 76.6039 51.4597Z" fill="white"/>
<g opacity="0.35">
<path d="M78.9215 54.121C79.1681 53.3147 78.9327 52.5281 78.3959 52.3639C77.859 52.1998 77.224 52.7203 76.9775 53.5266C76.731 54.3328 76.9663 55.1195 77.5031 55.2836C78.04 55.4478 78.675 54.9272 78.9215 54.121Z" fill="white"/>
</g>
<path d="M29.1474 65.619C27.7843 66.0227 26.6448 65.7244 25.8785 65.3261C25.8785 65.3261 21.4453 65.1992 21.3281 63.2814C21.2495 61.9966 19.6232 52.7761 28.5738 53.031C30.8621 53.0962 32.8854 55.3868 32.968 58.3364C33.0684 61.9228 31.0364 65.0596 29.1474 65.619Z" fill="#F9D6B6"/>
<path d="M21.3276 63.2808C21.3833 64.1917 22.4135 64.6985 23.4789 64.9796C24.6558 65.2912 25.8789 65.3264 25.8789 65.3264C26.6456 65.7239 27.7844 66.0225 29.148 65.6192C30.6021 65.1876 32.1427 63.2253 32.7265 60.7059C32.9008 59.957 32.9904 59.1584 32.9674 58.3358C32.8853 55.3869 30.862 53.0965 28.5742 53.0311C19.6231 52.7756 21.2495 61.9963 21.3276 63.2808Z" fill="#F9D6B6"/>
<path d="M23.4789 64.9796C24.6558 65.2913 25.8789 65.3265 25.8789 65.3265C26.6456 65.7239 27.7844 66.0225 29.148 65.6192C30.6021 65.1876 32.1428 63.2254 32.7265 60.706C32.5104 61.1072 31.309 63.1814 30.0721 62.1645C29.401 61.6136 29.4942 60.4345 28.7799 58.6989C28.244 57.4011 26.8231 58.0292 26.8231 58.0292L23.4789 64.9796Z" fill="#F4B68C"/>
<path d="M27.8503 66.3401C26.9864 66.3401 26.2701 66.106 25.744 65.8489C24.8804 65.8106 20.9363 65.5151 20.8016 63.3136C20.7964 63.227 20.7834 63.1023 20.7674 62.9453C20.6069 61.3735 20.1808 57.1981 22.6069 54.5876C23.9609 53.1303 25.9721 52.4281 28.5889 52.5038C31.2065 52.5783 33.4075 55.1882 33.4952 58.3216C33.6041 62.2133 31.4125 65.4983 29.2973 66.1246C28.7797 66.2779 28.2954 66.3401 27.8503 66.3401ZM28.2173 53.5532C26.0872 53.5532 24.4608 54.142 23.3795 55.3056C21.2786 57.5662 21.6695 61.3963 21.8167 62.8382C21.8345 63.0134 21.8485 63.1526 21.8544 63.2492C21.9206 64.3318 24.6044 64.7608 25.8938 64.7989C25.9731 64.8013 26.0512 64.8215 26.1217 64.8581C26.7406 65.1797 27.7422 65.485 28.9977 65.1133C30.6983 64.6097 32.532 61.6108 32.4407 58.3511C32.3684 55.7672 30.627 53.6172 28.5587 53.5582C28.4437 53.5549 28.3297 53.5532 28.2173 53.5532Z" fill="#650000"/>
<path d="M20.0114 46.7393C20.0114 46.7393 20.2187 46.3717 20.6271 45.9481C20.9346 45.6284 21.3567 45.2767 21.8884 45.0224C21.9675 44.9909 22.0468 44.9698 22.1258 44.9604C22.5274 44.9116 22.9119 45.1464 23.0521 45.5628L23.6457 47.479C23.6457 47.479 26.5055 46.9919 28.105 49.2404C29.3537 50.9949 30.6705 54.4004 29.4821 59.0953C29.314 59.7603 29.1084 60.394 28.8658 60.9951C28.0574 62.9944 26.8284 64.6365 25.1381 65.898C23.6505 67.0082 21.8495 67.6704 20.3343 67.9319C19.2039 68.1275 18.2329 68.0999 17.6679 67.8703C17.2132 67.6853 16.9648 67.4347 16.8577 67.1629C16.6433 66.6237 16.9941 66.0102 17.3904 65.7115C17.7353 65.4526 18.4897 64.7853 19.3118 63.7899C19.4377 63.6386 19.5636 63.4801 19.6913 63.3134C20.6712 62.0292 21.6737 60.3089 22.1462 58.2831C22.1899 58.0944 22.2291 57.9023 22.2637 57.7068C22.662 55.4521 21.9928 51.3848 22.0036 49.7538C22.005 49.5494 22.0162 49.3828 22.0422 49.2636C22.0422 49.2636 20.5272 48.2053 20.2222 47.9819C19.7326 47.6237 19.782 47.1688 20.0114 46.7393Z" fill="#FDD907"/>
<path d="M17.3904 65.7113C16.9941 66.0099 16.6437 66.6235 16.8582 67.1627C16.965 67.4349 17.2124 67.6857 17.6673 67.8704C18.2327 68.0994 19.2036 68.1269 20.3338 67.9323C21.8491 67.67 23.6509 67.0081 25.1378 65.8974C26.8276 64.6369 28.0573 62.994 28.8656 60.9946C29.1086 60.394 29.314 59.761 29.4816 59.0955C29.6633 58.3783 29.7859 57.6916 29.8603 57.0374C30.271 53.3995 29.1632 50.7273 28.1051 49.2407C26.506 46.9915 23.6463 47.4788 23.6463 47.4788L23.0515 45.5631C22.9112 45.1469 22.527 44.9113 22.1256 44.9597C22.0463 44.9704 21.9682 44.9909 21.8883 45.0223C21.3565 45.2767 20.9351 45.628 20.6268 45.9479C20.4585 46.1228 20.3252 46.2868 20.2259 46.4203C20.084 46.6119 20.0121 46.7388 20.0121 46.7388C19.7816 47.1683 19.7327 47.623 20.2215 47.9823C20.5275 48.2052 22.0418 49.2629 22.0418 49.2629C22.0166 49.3835 22.005 49.5493 22.0035 49.7541C21.9923 51.3843 22.6615 55.4524 22.2635 57.7069C22.229 57.9022 22.1895 58.0939 22.1462 58.2836C21.6733 60.3084 20.6705 62.0297 19.6918 63.3129C19.5635 63.4805 19.438 63.6388 19.3123 63.7902C18.4897 64.7857 17.7358 65.4529 17.3904 65.7113Z" fill="#FDD907"/>
<path d="M17.3904 65.7113C16.9941 66.0099 16.6437 66.6235 16.8582 67.1627C16.965 67.4349 17.2124 67.6857 17.6673 67.8704C18.2327 68.0994 19.2036 68.1269 20.3338 67.9323C21.8491 67.67 23.6509 67.0081 25.1378 65.8974C26.8276 64.6369 28.0573 62.994 28.8656 60.9946C28.8845 60.9464 28.9048 60.8984 28.9223 60.85C29.1417 60.2927 29.3268 59.7076 29.4816 59.0955C29.6632 58.3783 29.7858 57.6916 29.8602 57.0374C30.0353 55.4906 29.9352 54.1194 29.6796 52.9377C29.3376 51.3416 28.7129 50.0958 28.1051 49.2407C26.5059 46.9915 23.6463 47.4788 23.6463 47.4788L23.0514 45.5631C22.9112 45.1469 22.527 44.9113 22.1256 44.9597C22.0463 44.9704 21.9681 44.9909 21.8882 45.0223C21.3565 45.2767 20.935 45.628 20.6268 45.9479C20.4585 46.1228 20.3251 46.2868 20.2259 46.4203C20.0839 46.6119 20.012 46.7388 20.012 46.7388C19.7816 47.1683 19.7327 47.623 20.2215 47.9823C20.5275 48.2052 22.0417 49.2629 22.0417 49.2629C22.0166 49.3835 22.0049 49.5493 22.0035 49.7541C21.9989 50.3629 22.09 51.3115 22.1841 52.3783C22.3435 54.1692 22.5123 56.2941 22.2634 57.7069C22.2289 57.9022 22.1895 58.0939 22.1462 58.2836C21.7063 60.1642 20.8102 61.7836 19.9008 63.0324C19.8312 63.1278 19.7606 63.2216 19.6917 63.313C19.5634 63.4805 19.4379 63.6389 19.3122 63.7902C18.4897 64.7857 17.7358 65.4529 17.3904 65.7113Z" fill="#FDD907"/>
<path d="M29.86 57.0377C29.7861 57.6916 29.6635 58.3786 29.4816 59.0958C29.3273 59.7076 29.1414 60.293 28.9225 60.8494C28.9054 60.8982 28.8843 60.947 28.8658 60.9944C28.0576 62.9946 26.8275 64.6374 25.1385 65.8979C24.8761 66.0944 24.6032 66.2763 24.3237 66.4438C23.0236 67.2296 21.5812 67.7161 20.3339 67.9323C19.2039 68.1275 18.2322 68.0998 17.6679 67.8704C17.213 67.6858 16.9651 67.4353 16.8583 67.1624C16.6434 66.6231 16.9941 66.01 17.391 65.7107C17.6125 65.5446 18.0028 65.2097 18.4708 64.7284C18.7319 64.4608 19.018 64.1456 19.3121 63.7896C19.4386 63.6393 19.5639 63.4811 19.6918 63.3123C19.7603 63.2214 19.8316 63.1277 19.9014 63.0328C20.8099 61.7842 21.7064 60.1638 22.1468 58.2836C22.189 58.0937 22.2286 57.9025 22.2642 57.7074C22.5121 56.2939 22.3433 54.1685 22.1837 52.378C22.0902 51.3114 21.9992 50.3634 22.0031 49.7542C22.0044 49.5499 22.0163 49.3837 22.0414 49.2624C22.0414 49.2624 20.5277 48.205 20.2218 47.9822C19.7327 47.6235 19.7815 47.1687 20.0122 46.7388C20.0122 46.7388 20.0834 46.6122 20.2258 46.4197C20.3247 46.2866 20.4592 46.1231 20.6266 45.9477C20.9352 45.6273 21.3571 45.2766 21.8884 45.0221C21.9688 44.9904 22.0466 44.9707 22.1257 44.9601C22.5265 44.9113 22.9116 45.1473 23.0513 45.5627L23.646 47.4785C23.646 47.4785 26.5058 46.9919 28.1051 49.24C28.7129 50.0957 29.3379 51.3417 29.6794 52.937C29.9351 54.1198 30.0353 55.4911 29.86 57.0377Z" fill="#FDD907"/>
<path d="M24.3236 66.4438C23.0236 67.2296 21.5812 67.7161 20.3338 67.9324C19.2039 68.1275 18.2322 68.0998 17.6678 67.8704C17.213 67.6858 16.9651 67.4353 16.8583 67.1624C16.6434 66.6231 16.9941 66.01 17.391 65.7107C17.6125 65.5446 18.0027 65.2097 18.4708 64.7285C18.6871 65.3178 19.3147 66.1142 20.9469 65.1214C20.91 65.1794 19.9277 66.7207 21.3095 66.8947C22.628 67.0635 23.8964 66.6165 24.3236 66.4438Z" fill="#F9B00D"/>
<path d="M19.9008 63.0324C20.5638 62.9683 21.2978 62.9268 22.0905 62.9254C24.1426 62.9234 25.3165 61.8118 24.9085 59.7949C25.3367 59.8284 25.7593 59.1628 25.8287 58.6158C26.7012 58.9417 27.3745 59.0525 27.3745 59.0525C27.4024 59.776 28.1782 60.416 28.9223 60.85C29.1417 60.2927 29.3268 59.7076 29.4816 59.0955C29.6633 58.3783 29.7858 57.6916 29.8603 57.0373C30.0353 55.4906 29.9352 54.1194 29.6797 52.9377C27.9422 52.8107 24.9965 52.9667 22.1841 52.3783C22.3435 54.1692 22.5123 56.2941 22.2634 57.707C22.2289 57.9022 22.1895 58.0939 22.1462 58.2836C21.7064 60.1642 20.8103 61.7837 19.9008 63.0324Z" fill="#F9B00D"/>
<g opacity="0.7">
<path d="M20.2259 46.4203C20.9971 45.954 22.0185 45.466 22.2826 45.9633C23.1273 47.5524 22.7712 48.6361 22.7712 48.6361C22.7712 48.6361 24.8106 47.7995 26.7808 49.5894C28.7524 51.3796 28.7156 56.8514 28.7156 56.8514L29.8603 57.0374C30.271 53.3995 29.1632 50.7273 28.1051 49.2407C26.506 46.9915 23.6463 47.4788 23.6463 47.4788L23.0515 45.5631C22.9112 45.1469 22.527 44.9113 22.1256 44.9597C22.0463 44.9704 21.9682 44.9909 21.8883 45.0223C21.3565 45.2767 20.9351 45.628 20.6268 45.9479C20.4585 46.1228 20.3252 46.2868 20.2259 46.4203Z" fill="white"/>
</g>
<g opacity="0.5">
<path d="M21.5247 61.2377C22.2881 59.7028 23.3872 56.7293 22.6775 53.3107C22.6332 53.0972 22.9015 52.9612 23.0159 53.1391C23.5529 53.9742 24.1961 55.6461 23.4596 58.3612C23.0786 59.7658 22.3903 60.7938 21.8224 61.4535C21.6713 61.6289 21.4207 61.447 21.5247 61.2377Z" fill="white"/>
</g>
<g opacity="0.7">
<path d="M20.4201 46.563C20.4201 46.563 20.0222 47.045 20.0544 47.2656C20.1064 47.6218 20.8105 47.1239 20.8105 47.1239C20.8105 47.1239 20.3425 47.2548 20.2886 47.0521C20.2459 46.8915 20.4201 46.563 20.4201 46.563Z" fill="white"/>
</g>
<path d="M27.8083 60.569L27.8087 60.5677L28.5996 60.8877L27.8083 60.569Z" fill="#F4DD7A"/>
<path d="M19.596 63.5804C19.5935 63.574 19.6037 63.5513 19.6288 63.5155C19.6105 63.563 19.5989 63.5854 19.596 63.5804Z" fill="#F4DD7A"/>
<path d="M21.7156 49.4747C21.7155 49.4728 21.7151 49.4717 21.7147 49.4714C21.7114 49.4699 21.7118 49.4709 21.7156 49.4747Z" fill="#F9B00D"/>
<path d="M18.9508 68.463C18.3832 68.463 17.8918 68.3885 17.5193 68.2373C16.691 67.9009 16.458 67.3756 16.4084 66.9942C16.3234 66.3401 16.7211 65.72 17.153 65.3956C17.1917 65.3665 21.0392 62.3623 21.8743 57.6377C22.1288 56.1973 21.9266 53.9331 21.7641 52.1138C21.6613 50.9637 21.5768 50.0181 21.6196 49.4506C21.1975 49.1554 20.2299 48.4779 19.9881 48.3012C19.6503 48.0544 19.1587 47.499 19.6618 46.5532C19.6955 46.4934 20.3826 45.3013 21.7187 44.6658L21.7376 44.6574C22.0697 44.5203 22.4279 44.5247 22.7466 44.6701C23.0689 44.8171 23.3105 45.0895 23.4268 45.437L23.9267 47.0503C24.7864 46.9893 27.0279 47.0429 28.4281 49.0113C29.3182 50.2628 31.2404 53.7599 29.8658 59.1926C29.1065 62.1938 27.5954 64.5561 25.3745 66.2142C23.399 67.6889 20.7798 68.463 18.9508 68.463ZM22.0481 45.3852C20.9505 45.9118 20.3605 46.9246 20.3546 46.9349C20.1239 47.369 20.2774 47.5328 20.4548 47.6625C20.7532 47.8804 22.254 48.9289 22.2691 48.9396L22.4853 49.0906L22.429 49.3483C22.3454 49.731 22.4457 50.8542 22.552 52.0434C22.7187 53.9094 22.9262 56.2316 22.6533 57.7754C21.9046 62.0119 18.772 65.1691 17.6281 66.0282C17.3863 66.2098 17.1516 66.5744 17.1929 66.8923C17.2256 67.1435 17.4355 67.3494 17.8169 67.5043C18.9792 67.9763 22.3973 67.4495 24.9012 65.5802C26.9729 64.0337 28.3852 61.8193 29.0989 58.9986C30.3925 53.886 28.6098 50.6318 27.7833 49.4699C26.3514 47.4568 23.8182 47.8511 23.7108 47.8687L23.3704 47.9251L22.674 45.6797C22.6307 45.5509 22.5389 45.445 22.4182 45.3899C22.304 45.3378 22.1728 45.3361 22.0481 45.3852Z" fill="#650000"/>
<path d="M24.1513 49.299C26.0324 52.4123 26.3945 56.4258 25.3207 59.8767C25.2606 60.0707 24.9684 60.0004 25.0071 59.7974C25.4766 57.1937 25.4878 54.4959 24.8006 51.9278C24.5779 51.077 24.2968 50.2271 23.9223 49.436C23.8415 49.2916 24.0564 49.1521 24.1513 49.299Z" fill="#650000"/>
<path d="M23.0361 63.1452C22.4592 64.1235 21.6572 64.9628 20.7484 65.6391C20.4425 65.8618 20.1219 66.065 19.7788 66.2293C19.6972 66.2683 19.5993 66.2338 19.5602 66.1522C19.529 66.0871 19.5447 66.0113 19.5941 65.9637C19.8605 65.7029 20.1348 65.4601 20.4072 65.2161L21.2216 64.4853C21.767 63.9923 22.2846 63.4806 22.8274 62.9789C22.9374 62.8753 23.1128 63.0149 23.0361 63.1452Z" fill="#650000"/>
<path d="M20.4868 47.4332C21.1191 47.1425 22.2432 46.0563 22.2921 45.348C22.2838 45.322 22.2735 45.3333 22.2799 45.3497C22.2845 45.3659 22.2723 45.3633 22.2422 45.3584C22.2079 45.354 22.135 45.354 22.1002 45.3554C21.5659 45.3676 21.5394 44.583 22.0731 44.5596C22.5222 44.5786 23.0039 44.8529 22.9594 45.3629C22.929 45.6834 22.7471 45.942 22.5677 46.1633C22.2404 46.5505 21.8461 46.8703 21.4252 47.1398C21.1458 47.3137 20.8533 47.4729 20.529 47.5581C20.4937 47.5674 20.4576 47.5463 20.4483 47.511C20.4398 47.4787 20.4569 47.4456 20.4868 47.4332Z" fill="#650000"/>
<path d="M32.6412 61.0516C33.6693 56.9299 32.3833 53.5945 29.7612 52.9789C26.9798 52.3259 25.0614 55.733 25.9929 56.7855C27.0107 57.9355 28.9313 56.9897 29.0076 57.0258C29.0839 57.062 28.304 59.4184 29.6302 60.465L32.6412 61.0516Z" fill="#F9D6B6"/>
<path d="M25.9929 56.786C27.0102 57.9349 28.9316 56.989 29.0073 57.0262C29.0846 57.0624 28.3043 59.4182 29.6305 60.4649L32.6414 61.0509C33.6695 56.9301 32.384 53.5945 29.7617 52.9788C27.6905 52.4927 26.0976 54.2567 25.8046 55.625C25.7023 56.0932 25.7553 56.5174 25.9929 56.786Z" fill="#F9D6B6"/>
<path d="M25.9929 56.786C27.0102 57.9349 28.9316 56.989 29.0073 57.0262C29.0846 57.0624 28.3043 59.4182 29.6305 60.4649C29.6305 60.4649 29.3637 58.7896 29.5864 57.9045C29.8089 57.0207 30.5027 56.2634 30.1327 55.8375C29.763 55.4103 28.6775 56.9242 26.7627 56.465C26.2786 56.3489 25.983 56.0197 25.8046 55.625C25.7023 56.0932 25.7553 56.5174 25.9929 56.786Z" fill="#E2B28A"/>
<path d="M25.8624 56.5833C25.9386 55.2865 27.4999 53.3165 29.579 53.8053C31.9396 54.3605 33.1295 57.3038 32.3258 60.99L32.6414 61.0509C33.6696 56.9302 32.384 53.5945 29.7617 52.9788C27.1381 52.3628 25.2831 55.356 25.8624 56.5833Z" fill="white"/>
<path d="M32.1295 60.924C32.5538 59.198 32.6584 57.2803 31.976 55.632C31.3829 54.0932 29.6753 52.929 28.0787 53.6337C27.3524 53.9526 26.7322 54.6227 26.4326 55.3694C26.3121 55.6664 26.2206 56.0841 26.3351 56.3519C26.8802 57.123 27.9915 56.8001 28.7761 56.5376C29.1919 56.3844 29.5688 56.6871 29.5394 57.0888C29.3833 58.1732 29.2384 59.272 29.7936 60.258C29.8834 60.3902 29.8454 60.574 29.7054 60.6541C29.4099 60.8068 28.9633 60.3626 28.7881 60.1394C28.1039 59.2374 28.2696 58.052 28.4825 57.0438L28.486 57.0215C28.4865 57.0173 28.4852 57.0453 28.4854 57.049C28.4854 57.1028 28.4985 57.1719 28.5208 57.2253C28.5024 57.2116 28.6385 57.4584 28.7617 57.4925C28.8764 57.5539 28.9998 57.5632 29.0989 57.5419C29.1051 57.5403 29.0973 57.5422 29.0877 57.5453C28.3883 57.7803 27.7166 57.9657 26.9205 57.8475C25.8956 57.6919 25.0832 56.8775 25.2409 55.8126C25.4295 54.427 26.3998 53.2443 27.6547 52.6679C29.814 51.7121 32.1419 53.1599 32.947 55.2201C33.7335 57.1277 33.6273 59.2309 33.1529 61.1793C32.9673 61.8505 31.9777 61.6054 32.1295 60.924Z" fill="#650000"/>
<path d="M22.0198 52.12C23.299 51.7423 25.7616 52.8831 25.1117 54.7221C24.6424 56.0499 23.2675 55.5728 21.8583 55.738C20.3574 55.3889 20.2799 52.6336 22.0198 52.12Z" fill="#F9D6B6"/>
<path d="M20.7242 53.9463C20.6989 54.7582 21.0937 55.5608 21.8588 55.7377C23.2668 55.5729 24.6426 56.0499 25.1117 54.7227C25.1806 54.5289 25.2137 54.3417 25.2177 54.1636C25.2542 52.6595 23.1634 51.7823 22.0196 52.1202C21.1655 52.3722 20.7488 53.1634 20.7242 53.9463Z" fill="#F9D6B6"/>
<path d="M20.7241 53.9463C20.7229 53.9711 20.7228 53.9974 20.7242 54.0226C20.9044 53.4935 21.291 53.0409 21.8993 52.8613C23.0081 52.5343 25.0066 53.348 25.0932 54.7682C25.1012 54.7529 25.1063 54.7385 25.1117 54.7227C25.1806 54.5289 25.2137 54.3417 25.2177 54.1636C25.2542 52.6595 23.1635 51.7823 22.0196 52.1202C21.1655 52.3722 20.7488 53.1634 20.7241 53.9463Z" fill="white"/>
<path d="M20.7242 53.9464C20.6989 54.7583 21.0937 55.5608 21.8588 55.7377C23.2668 55.5729 24.6426 56.0499 25.1117 54.7227C25.1806 54.5289 25.2137 54.3417 25.2177 54.1636C24.9324 54.4193 24.4921 54.6701 24.0314 54.7344C23.2928 54.8376 22.2269 54.8548 21.4586 54.4826C21.0794 54.299 20.8421 54.1331 20.7242 53.9464Z" fill="#E2B28A"/>
<path d="M21.8582 56.2653C21.818 56.2653 21.7779 56.2608 21.7387 56.2516C20.8483 56.0446 20.2289 55.1822 20.1973 54.1058C20.1685 53.1201 20.6748 51.9673 21.8705 51.6142C22.8814 51.3161 24.2997 51.7424 25.0995 52.5855C25.7228 53.2424 25.9036 54.0637 25.6089 54.8978C25.1383 56.2294 23.9729 56.2267 22.9446 56.2238C22.6068 56.2231 22.2584 56.2221 21.9195 56.2618C21.8991 56.2642 21.8786 56.2653 21.8582 56.2653ZM22.565 52.5751C22.4186 52.5751 22.284 52.5919 22.1691 52.6258C21.4667 52.8332 21.2359 53.536 21.2516 54.075C21.2653 54.5402 21.4723 55.0543 21.9029 55.2028C22.268 55.1672 22.6275 55.168 22.9473 55.169C24.0209 55.1735 24.4112 55.1214 24.6144 54.5465C24.775 54.0922 24.6806 53.6767 24.3343 53.3115C23.8745 52.8268 23.1315 52.5751 22.565 52.5751Z" fill="#650000"/>
<path d="M21.5626 55.6722C22.8232 55.2758 25.2513 56.3413 24.6908 58.149C24.2501 59.5705 22.1091 59.0406 21.2736 59.1077C20.1479 58.6045 19.7461 56.2433 21.5626 55.6722Z" fill="#F9D6B6"/>
<path d="M20.3954 57.966C20.538 58.4782 20.8555 58.9205 21.274 59.1076C22.1091 59.0409 24.2495 59.5701 24.691 58.1484C24.7522 57.9505 24.7775 57.7606 24.7732 57.5826C24.7328 56.1255 22.6845 55.319 21.5633 55.6717C20.42 56.0319 20.1553 57.0985 20.3954 57.966Z" fill="#F9D6B6"/>
<path d="M20.3152 57.4113C20.483 56.9578 20.8418 56.5659 21.4491 56.3749C22.5603 56.0248 24.5821 56.8146 24.657 58.2468C24.669 58.2155 24.6799 58.1826 24.691 58.1484C24.7523 57.9505 24.7776 57.7607 24.7732 57.5826C24.7328 56.1256 22.6846 55.3191 21.5633 55.6717C20.6551 55.9578 20.3023 56.6888 20.3152 57.4113Z" fill="white"/>
<path d="M20.3954 57.966C20.5381 58.4782 20.8555 58.9205 21.274 59.1076C22.1091 59.0409 24.2495 59.5701 24.691 58.1483C24.7523 57.9505 24.7776 57.7606 24.7732 57.5826C24.5642 57.8202 24.2702 58.0523 23.8919 58.1044C22.823 58.2537 21.5534 57.4129 20.3954 57.966Z" fill="#E2B28A"/>
<path d="M22.7027 59.677C22.433 59.677 22.176 59.6623 21.9517 59.6495C21.7005 59.6351 21.4632 59.6216 21.3158 59.6334C21.2277 59.6403 21.1391 59.6252 21.0584 59.5892C20.2653 59.2346 19.7324 58.2393 19.7913 57.2225C19.8485 56.2364 20.4516 55.4687 21.4044 55.1691C22.3938 54.858 23.8027 55.2458 24.612 56.0519C25.2433 56.6806 25.4502 57.4809 25.1946 58.3051C24.8292 59.4835 23.6818 59.6769 22.7027 59.677ZM21.4537 58.574C21.6209 58.574 21.8068 58.5847 22.0118 58.5964C23.0807 58.6574 23.9821 58.6543 24.1871 57.9928C24.3247 57.549 24.2172 57.1475 23.8677 56.7993C23.2834 56.2173 22.267 56.0035 21.7208 56.1753H21.7207C21.037 56.3903 20.8667 56.8966 20.8444 57.2835C20.8142 57.8034 21.0549 58.3532 21.3945 58.5746C21.414 58.5741 21.4337 58.574 21.4537 58.574Z" fill="#650000"/>
<path d="M21.365 58.6672C22.5687 58.5182 24.2309 59.4789 23.7799 61.0372C23.3639 62.4746 21.3779 62.4231 20.4934 62.1571C19.5308 61.8677 19.593 58.8865 21.365 58.6672Z" fill="#F9D6B6"/>
<path d="M19.8749 60.7271C19.8551 61.4124 20.0797 62.0335 20.4932 62.1575C21.3783 62.4232 23.3636 62.4741 23.7799 61.0372C23.793 60.9908 23.8045 60.9456 23.8131 60.9012C24.1336 59.4224 22.5328 58.5224 21.3651 58.6666C20.3541 58.7919 19.8995 59.8167 19.8749 60.7271Z" fill="#F9D6B6"/>
<path d="M19.8749 60.7271L19.8743 60.7311C20.0728 60.0887 20.5123 59.5324 21.239 59.4427C22.2737 59.3157 23.6479 60.0072 23.7252 61.1945C23.7459 61.1438 23.7641 61.0914 23.7799 61.0371C23.7929 60.9908 23.8044 60.9455 23.813 60.9012C24.1336 59.4224 22.5328 58.5223 21.365 58.6665C20.3541 58.7919 19.8995 59.8167 19.8749 60.7271Z" fill="white"/>
<path d="M19.8749 60.7271C19.8551 61.4124 20.0797 62.0335 20.4932 62.1575C21.3783 62.4232 23.3636 62.4741 23.7799 61.0372C23.793 60.9908 23.8045 60.9456 23.8131 60.9012C23.021 61.2145 21.6435 61.4812 19.8749 60.7271Z" fill="#E2B28A"/>
<path d="M21.5756 62.8317C21.1223 62.8317 20.6874 62.7662 20.3415 62.6623C19.5567 62.4263 19.2823 61.4136 19.3584 60.5147C19.4692 59.2068 20.2314 58.2761 21.3002 58.1438C22.2307 58.0283 23.2574 58.423 23.8561 59.125C24.3502 59.7045 24.503 60.4356 24.2865 61.1839C24.1269 61.7353 23.7681 62.1762 23.2489 62.4588C22.7584 62.7258 22.1521 62.8317 21.5756 62.8317ZM21.4298 59.1906C20.5635 59.2978 20.4278 60.3865 20.4094 60.6037C20.3539 61.2598 20.5715 61.63 20.6452 61.6521C21.1132 61.793 22.0972 61.8848 22.7446 61.5323C23.0185 61.3833 23.1914 61.1734 23.2733 60.8906C23.3913 60.4827 23.3174 60.1189 23.0535 59.8095C22.687 59.3798 22.0044 59.1202 21.4298 59.1906Z" fill="#650000"/>
<path d="M30.2429 56.1191C29.9067 56.7304 29.3829 57.202 28.7735 57.531C28.5705 57.643 28.3555 57.7302 28.1362 57.8099C27.8606 57.91 27.5561 57.7677 27.4561 57.4922C27.356 57.2166 27.4982 56.9121 27.7738 56.812C27.9846 56.7552 28.2058 56.7505 28.4158 56.6802C28.7656 56.584 29.0986 56.4219 29.3929 56.206C29.5429 56.0982 29.6994 55.9538 29.8148 55.8206C30.0206 55.5919 30.386 55.8498 30.2429 56.1191Z" fill="#650000"/>
<path d="M82.6322 87.8677C82.6322 87.8677 82.4427 86.4687 83.4004 86.144Z" fill="#F9D6B6"/>
<path d="M82.4362 87.8943C82.1084 87.1254 82.3674 85.9887 83.2733 85.7694C83.6907 85.6638 83.9439 86.2241 83.5973 86.4689C83.3782 86.6146 83.2177 86.738 83.0987 86.9883C82.9656 87.2473 82.8972 87.5767 82.8211 87.8682C82.7796 88.0549 82.5012 88.0704 82.4362 87.8943Z" fill="#650000"/>
<path d="M71.6614 89.7459C71.4481 90.375 69.8188 93.6535 61.7149 93.4984C55.7702 93.3846 51.0362 89.7372 51.5352 83.5841C51.7921 80.4151 53.5593 76.0471 55.5371 73.2241C56.7047 71.5574 59.4198 69.0786 63.554 69.3963C67.419 69.6933 69.3271 72.0583 70.4334 74.7708C71.1989 76.6473 73.2309 85.1155 71.6614 89.7459Z" fill="#F9D6B6"/>
<path d="M71.2791 90.4562C70.4511 91.6231 68.0791 93.6206 61.7148 93.498C58.0085 93.4268 54.7729 91.983 52.9837 89.4146C55.237 91.0456 58.2577 92.2072 62.1842 92.2678C66.1027 92.3285 69.0812 91.5202 71.2791 90.4562Z" fill="#F4B68C"/>
<path d="M35.1956 31.6751C35.9457 30.4477 36.3156 28.9744 36.1573 27.4331C35.7732 23.692 32.4291 20.9706 28.6879 21.3547C24.9468 21.7389 22.2255 25.083 22.6096 28.8241C22.9937 32.5652 26.3378 35.2866 30.0789 34.9025C31.1195 34.7956 32.0808 34.4592 32.9187 33.9495L36.0699 34.6562L35.1956 31.6751Z" fill="white"/>
<g opacity="0.5">
<path d="M28.8217 22.6576C32.3164 22.2987 35.464 24.6502 36.1766 28.0109C36.1775 27.7709 36.1671 27.5287 36.1421 27.2845C35.7579 23.5434 32.4138 20.822 28.6727 21.2061C24.9316 21.5902 22.2102 24.9344 22.5943 28.6755C22.6195 28.9207 22.6581 29.1613 22.708 29.3972C22.7212 25.9602 25.3259 23.0165 28.8217 22.6576Z" fill="white"/>
</g>
<path d="M29.3779 35.4659C25.6662 35.4659 22.4722 32.6489 22.0849 28.878C21.8848 26.9285 22.4558 25.0177 23.6927 23.4977C24.9297 21.9777 26.6846 21.0303 28.6341 20.8301C32.6589 20.416 36.2687 23.3549 36.682 27.3793C36.8391 28.9109 36.5228 30.4153 35.7659 31.746L36.8279 35.3667L33.0066 34.5097C32.1212 35.0137 31.1555 35.3222 30.1327 35.4272C29.8793 35.4531 29.6273 35.4659 29.3779 35.4659ZM29.3882 21.8463C29.1744 21.8463 28.9591 21.8571 28.7418 21.8794C27.0726 22.0508 25.57 22.8619 24.5108 24.1634C23.4517 25.4649 22.9628 27.101 23.1343 28.7702C23.4881 32.216 26.5787 34.7321 30.0251 34.3778C30.9628 34.2815 31.8441 33.9858 32.6446 33.4988L32.8265 33.3882L35.312 33.9456L34.6237 31.5993L34.7456 31.4C35.4675 30.2188 35.7742 28.8658 35.6326 27.487C35.3012 24.2584 32.566 21.8463 29.3882 21.8463Z" fill="#650000"/>
<g opacity="0.3">
<path d="M35.2338 31.6097C33.3686 33.1873 30.7992 33.8781 28.2475 33.2431C25.4178 32.5388 23.3328 30.3839 22.5829 27.7687C22.5649 28.1155 22.573 28.468 22.6096 28.8241C22.9937 32.5652 26.3379 35.2866 30.0789 34.9025C31.1195 34.7957 32.0808 34.4592 32.9187 33.9495L36.07 34.6562L35.1956 31.6751C35.2087 31.6535 35.2209 31.6313 35.2338 31.6097Z" fill="#650000"/>
</g>
<path d="M31.5609 26.2165C30.9716 25.6272 30.0161 25.7328 29.4268 26.3221L29.3351 26.4138L29.2434 26.3221C28.6541 25.7328 27.6986 25.6272 27.1093 26.2165C26.52 26.8058 26.52 27.7612 27.1093 28.3505L27.201 28.4423L29.0538 30.295C29.2091 30.4504 29.461 30.4504 29.6164 30.295L31.4691 28.4423L31.5608 28.3505C32.1502 27.7612 32.1502 26.8058 31.5609 26.2165Z" fill="#FF0068"/>
</g>
<rect x="0.5" y="0.5" width="124" height="124" stroke="black"/>
<defs>
<clipPath id="clip0_17_492">
<rect width="125" height="125" fill="white"/>
</clipPath>
</defs>
</svg>
