<svg width="125" height="125" viewBox="0 0 125 125" fill="none" xmlns="http://www.w3.org/2000/svg">
<g clip-path="url(#clip0_4_5743)">
<path d="M125 0H0V125H125V0Z" fill="#FFCAEC"/>
<g opacity="0.2">
<path d="M60.6088 116.25C74.0725 116.25 84.987 114.316 84.987 111.929C84.987 109.543 74.0725 107.609 60.6088 107.609C47.1451 107.609 36.2306 109.543 36.2306 111.929C36.2306 114.316 47.1451 116.25 60.6088 116.25Z" fill="#181558"/>
</g>
<path d="M51.9781 91.8951C45.8787 93.2058 43.207 101.75 48.626 105.884C48.626 105.884 46.7356 106.085 45.8283 107.135C45.2288 107.829 44.7207 109.318 45.7526 110.41C47.0717 111.807 52.4914 111.26 54.3808 111.26C56.7691 111.26 60.6534 110.908 61.0707 110.41C61.8842 109.44 66.4621 105.448 60.8386 90.3069" fill="white"/>
<path d="M61.0704 110.41C60.6528 110.909 56.7692 111.26 54.3801 111.26C52.4914 111.26 47.0717 111.806 45.7527 110.41C45.2785 109.908 45.1292 109.323 45.1651 108.77C45.2066 108.119 45.5025 107.512 45.8274 107.136C46.7358 106.085 48.6258 105.883 48.6258 105.883C43.5088 101.98 45.6062 94.1421 50.9941 92.1803C51.3108 92.0627 51.6398 91.9687 51.9786 91.8954L60.8381 90.3069C66.4624 105.448 61.8833 109.439 61.0704 110.41Z" fill="white"/>
<g opacity="0.25">
<path d="M61.0704 110.41C60.6528 110.909 56.7692 111.26 54.3801 111.26C52.4914 111.26 47.0717 111.806 45.7527 110.41C45.2785 109.908 45.1292 109.323 45.1651 108.77C46.2975 109.363 48.446 110.082 51.3135 109.198C54.9206 108.084 50.9043 105.847 49.6627 105.767C48.8511 105.714 46.6335 96.14 50.4397 92.6296C50.6139 92.4692 50.7992 92.3185 50.9941 92.1803C51.3107 92.0627 51.6398 91.9687 51.9785 91.8954L60.8381 90.3069C66.4624 105.448 61.8833 109.439 61.0704 110.41Z" fill="#181558"/>
</g>
<path d="M50.4845 112.007C48.1291 112.007 46.159 111.779 45.284 110.853C43.9447 109.435 44.6078 107.562 45.3403 106.714C45.8589 106.114 46.6179 105.751 47.2687 105.536C45.3824 103.576 44.638 100.856 45.2693 98.0332C46.0335 94.6155 48.6136 91.9588 51.8425 91.265C52.1901 91.189 52.5331 91.4116 52.6079 91.7597C52.6827 92.1076 52.4613 92.4503 52.1132 92.5251C49.3746 93.1136 47.1819 95.3861 46.5271 98.3146C45.9102 101.073 46.8408 103.711 49.0166 105.371C49.2264 105.531 49.3173 105.803 49.2464 106.057C49.1753 106.311 48.9565 106.496 48.694 106.524C48.2377 106.575 46.9188 106.859 46.3156 107.557C46.0216 107.897 45.3732 109.07 46.2209 109.968C47.0937 110.891 51.0731 110.733 52.9861 110.657C53.5391 110.634 54.0169 110.615 54.3805 110.615C57.0192 110.615 60.0816 110.247 60.6119 109.955C60.6489 109.912 60.6915 109.864 60.739 109.811C63.8585 106.319 63.6886 99.8322 60.2342 90.5311C60.1103 90.1975 60.2803 89.8266 60.614 89.7026C60.9474 89.5787 61.3185 89.7489 61.4424 90.0824C63.7506 96.297 64.6385 101.416 64.0817 105.297C63.6189 108.522 62.2743 110.027 61.7001 110.67C61.6473 110.729 61.6014 110.78 61.5643 110.824C61.4044 111.015 61.1067 111.37 58.5373 111.662C57.2221 111.812 55.6294 111.904 54.3805 111.904C54.0425 111.904 53.5768 111.923 53.0374 111.944C52.1602 111.979 51.2991 112.007 50.4845 112.007Z" fill="#181558"/>
<path d="M54.8844 106.446C52.8151 106.284 50.6907 106.255 48.6484 106.528L48.6023 105.239C50.7571 105.395 52.8307 105.852 54.8844 106.446Z" fill="#3A3A3A"/>
<path d="M74.1751 102.999C74.1751 102.999 75.0198 99.5708 76.9783 99.4006C77.7858 99.3303 78.3539 99.9667 78.3539 99.9667C78.3539 99.9667 80.5431 96.3587 83.4618 97.0656C85.9257 97.6623 86.1241 104.644 80.7374 106.211C80.7374 106.211 81.2169 108.082 78.3288 108.358C75.8317 108.596 73.8464 106.872 73.8464 106.872L74.1751 102.999Z" fill="white"/>
<path d="M80.7383 106.211C80.7383 106.211 81.2168 108.083 78.3295 108.358C75.8324 108.595 73.8464 106.871 73.8464 106.871L74.1754 103C74.1754 103 74.3822 102.159 74.8286 101.29C75.2854 100.403 75.9902 99.4858 76.9789 99.4C77.7863 99.3305 78.3547 99.9659 78.3547 99.9659C78.3547 99.9659 80.5436 96.3581 83.4627 97.0653C83.9586 97.1852 84.3642 97.5646 84.6483 98.1066L84.6486 98.1081C85.78 100.257 85.0386 104.96 80.7383 106.211Z" fill="white"/>
<g opacity="0.25">
<path d="M80.7383 106.211C80.7383 106.211 81.2168 108.083 78.3295 108.358C75.8324 108.595 73.8464 106.871 73.8464 106.871L74.1754 103C74.1754 103 74.3822 102.159 74.8286 101.29C75.3624 101.768 75.9674 102.714 76.3057 104.578C76.7083 106.798 78.138 106.421 77.8246 105.218C77.8246 105.218 84.4748 104.183 84.6486 98.1083C85.78 100.257 85.0386 104.96 80.7383 106.211Z" fill="#181558"/>
</g>
<path d="M77.8474 109.025C75.3709 109.025 73.5051 107.431 73.4214 107.358C73.1526 107.125 73.124 106.718 73.3573 106.449C73.5908 106.18 73.998 106.152 74.2665 106.385C74.2832 106.399 76.0871 107.921 78.2652 107.716C79.1021 107.636 79.6849 107.403 79.95 107.04C80.1827 106.722 80.1112 106.374 80.108 106.36C80.0216 106.023 80.2209 105.689 80.5549 105.592C83.5186 104.73 84.5179 102.127 84.4732 100.159C84.4444 98.886 83.9541 97.8485 83.3076 97.692C80.888 97.105 78.9213 100.27 78.9018 100.302C78.7956 100.476 78.6128 100.59 78.4097 100.608C78.2056 100.626 78.0066 100.548 77.8706 100.396C77.8705 100.396 77.4952 100.001 77.0317 100.043C75.8081 100.149 74.9888 102.38 74.7984 103.154C74.7132 103.499 74.3635 103.711 74.0185 103.625C73.6729 103.54 73.4617 103.191 73.5469 102.845C73.6447 102.449 74.5698 98.9631 76.92 98.7586C77.4411 98.7141 77.8794 98.8662 78.2055 99.0487C79.0287 97.9638 81.0307 95.8148 83.611 96.4393C84.8736 96.7451 85.7179 98.1936 85.7618 100.13C85.8185 102.618 84.4864 105.531 81.4038 106.669C81.3815 106.983 81.2872 107.379 81.0148 107.767C80.5241 108.465 79.6402 108.88 78.3876 108.999C78.2046 109.017 78.0246 109.025 77.8474 109.025Z" fill="#181558"/>
<path d="M77.8259 105.218C77.8259 105.218 78.7295 106.465 80.7393 106.211Z" fill="white"/>
<path d="M78.0853 105.029C78.6762 105.576 79.5365 105.762 80.3181 105.638C80.4476 105.617 80.5759 105.585 80.7041 105.563C81.5515 105.432 81.7803 106.657 80.9409 106.839C79.6787 106.94 78.2995 106.484 77.5634 105.407C77.3503 105.053 77.8082 104.732 78.0853 105.029Z" fill="#181558"/>
<path d="M77.9236 101.87C77.9236 101.87 77.9906 101.005 78.3503 99.9668Z" fill="white"/>
<path d="M77.6052 101.845C77.5695 101.133 77.62 100.447 77.7466 99.7432C77.9266 98.8975 79.162 99.1204 79.0341 99.9765C78.9199 100.339 78.6872 100.647 78.5578 101.013C78.4397 101.295 78.33 101.606 78.2477 101.895C78.166 102.263 77.6261 102.218 77.6052 101.845Z" fill="#3A3A3A"/>
<path d="M58.2939 75.0065C53.1417 75.0552 49.4188 81.0107 46.6507 81.3187C44.5565 81.5516 37.6442 78.9658 37.6442 78.9658L36.7188 88.8137C36.7188 88.8137 41.2919 92.5242 47.0417 92.0598C54.9633 91.4201 58.7533 83.7738 58.7533 83.7738" fill="white"/>
<path d="M58.7529 83.774C58.7529 83.774 54.9633 91.4197 47.0411 92.0599C41.2923 92.5244 36.7188 88.8136 36.7188 88.8136L37.6437 78.9654C37.6437 78.9654 44.5566 81.5509 46.6512 81.3186C48.3477 81.1291 50.4036 78.8189 52.9282 77.0464C54.5209 75.9279 56.2989 75.0251 58.294 75.0057L58.5027 78.9862L58.7529 83.774Z" fill="white"/>
<path d="M58.753 83.774C58.753 83.774 57.3441 86.6153 54.449 88.9809C52.5963 90.4934 50.134 91.811 47.0411 92.0599C41.2923 92.5244 36.7188 88.8136 36.7188 88.8136L37.6437 78.9654C37.6437 78.9654 37.7183 78.9931 37.8566 79.0442H37.858C39.0387 79.4756 44.7764 81.526 46.6512 81.3186C48.3476 81.1291 50.4035 78.8189 52.9281 77.0464C54.5209 75.9279 56.2988 75.0251 58.2939 75.0057L58.5027 78.9862L58.753 83.774Z" fill="white"/>
<g opacity="0.25">
<path d="M54.449 88.9808C52.5963 90.4934 50.134 91.8109 47.0411 92.0598C41.2923 92.5244 36.7188 88.8135 36.7188 88.8135L37.6437 78.9654C37.6437 78.9654 37.7183 78.993 37.8566 79.0442H37.858C39.3747 79.7714 41.6836 81.3351 41.9076 84.2081C42.1619 87.4876 43.3261 89.1066 47.4088 88.4167C50.5515 87.8858 50.4727 83.0869 52.635 81.2591C53.2973 80.6991 53.9913 84.7736 54.449 88.9808Z" fill="#181558"/>
</g>
<g opacity="0.25">
<path d="M58.5044 78.9861C56.1844 78.4995 54.2847 77.7239 52.9298 77.0464C54.5226 75.9279 56.3005 75.0251 58.2956 75.0057L58.5044 78.9861Z" fill="#181558"/>
</g>
<path d="M73.6539 76.9594C65.6418 80.8596 58.7524 79.4632 54.6448 77.8166C56.7587 75.1219 61.071 71.2175 67.789 72.3056C72.057 72.9969 73.3732 75.0998 73.6539 76.9594Z" fill="#E8E8E8"/>
<path d="M76.1036 75.6195C73.962 76.926 71.884 77.8386 69.9014 78.4469L69.4824 77.4127C69.4824 77.4127 72.2601 77.2841 76.1036 75.6195Z" fill="#E8E8E8"/>
<path d="M46.0316 92.7447C40.6106 92.745 36.4994 89.4625 36.3163 89.3141C36.1489 89.1783 36.0606 88.9679 36.0807 88.7533L37.006 78.9055C37.0248 78.7057 37.1355 78.5261 37.3055 78.4196C37.4756 78.313 37.6851 78.2919 37.8735 78.3621C39.7561 79.0663 44.9905 80.8574 46.5829 80.6779C47.5181 80.574 48.7859 79.5275 50.1281 78.4197C52.3017 76.6258 55.0069 74.393 58.2914 74.362C58.2935 74.362 58.2955 74.3618 58.2977 74.3618C58.6507 74.3618 58.9385 74.6464 58.9419 75.0002C58.9452 75.3562 58.6594 75.6474 58.3036 75.6507C55.4754 75.6774 53.0704 77.6624 50.9486 79.4138C49.3891 80.7009 48.0424 81.8125 46.7254 81.959C44.9051 82.1593 40.1612 80.5552 38.2111 79.8574L37.3977 88.5142C38.435 89.2583 42.3431 91.7916 46.9933 91.4172C54.4457 90.8154 58.1432 83.56 58.1797 83.4867C58.3382 83.1684 58.7244 83.0384 59.0435 83.1968C59.3619 83.355 59.4921 83.7411 59.3342 84.0599C59.1729 84.3853 55.288 92.0405 47.0971 92.702C46.7371 92.731 46.3813 92.7447 46.0316 92.7447Z" fill="#181558"/>
<path d="M74.0882 75.3212C74.0849 75.3212 74.0815 75.321 74.078 75.321L56.8417 75.0514C56.4858 75.0459 56.2017 74.7528 56.2074 74.397C56.2129 74.0445 56.5003 73.7625 56.8516 73.7625C56.8549 73.7625 56.8583 73.7627 56.8618 73.7627L74.0981 74.0323C74.454 74.0378 74.7381 74.3309 74.7325 74.6867C74.727 75.0392 74.4395 75.3212 74.0882 75.3212Z" fill="#512717"/>
<path d="M73.2904 80.1796C73.6768 84.203 75.2728 88.6802 76.338 91.6869C77.9259 96.169 78.8056 100.498 78.1392 103.244C77.4999 105.879 68.4492 110.529 68.4492 110.529C68.4492 110.529 60.2118 111.23 56.8527 110.28C48.2462 106.794 46.7074 94.8153 53.0939 80.1796C53.0939 80.1796 57.7628 70.6809 67.7891 72.3047C75.9945 73.6336 73.2904 80.1796 73.2904 80.1796Z" fill="white"/>
<path d="M78.1395 103.244C77.7178 104.982 73.6406 107.593 70.9113 109.172C69.4997 109.988 68.4489 110.529 68.4489 110.529C68.4489 110.529 60.2115 111.231 56.8518 110.28C52.4372 108.492 49.8822 104.467 49.3029 98.9965C49.3016 98.9937 49.3016 98.9896 49.3016 98.9854C48.7554 93.7938 49.9859 87.3012 53.094 80.1795C53.094 80.1795 57.763 70.6812 67.7895 72.3057C75.9937 73.6344 73.2908 80.1795 73.2908 80.1795C73.6765 84.2028 75.272 88.681 76.338 91.6868C77.9252 96.1691 78.8058 100.498 78.1395 103.244Z" fill="white"/>
<g opacity="0.25">
<path d="M70.9126 109.172C69.501 109.988 68.4502 110.528 68.4502 110.528C68.4502 110.528 60.2128 111.231 56.8531 110.28C52.4385 108.492 49.8835 104.467 49.3042 98.9963C49.6692 101.065 51.0545 104.477 56.2461 103.978C61.6949 103.454 62.324 95.761 67.1437 95.8164C70.1135 95.8495 70.784 104.036 70.9126 109.172Z" fill="#181558"/>
</g>
<g opacity="0.25">
<path d="M73.6539 76.9594C65.6418 80.8596 58.7524 79.4632 54.6448 77.8166C56.7587 75.1219 61.071 71.2175 67.789 72.3056C72.057 72.9969 73.3732 75.0998 73.6539 76.9594Z" fill="#181558"/>
</g>
<path d="M73.9312 80.118C74.3176 83.8075 75.4935 87.3575 76.7319 90.844C78.0175 94.4458 79.7659 99.8819 78.7308 103.656C77.8905 105.715 74.5752 107.717 72.7381 108.905C71.4405 109.704 70.1315 110.453 68.7756 111.165C68.6901 111.21 68.6002 111.235 68.5092 111.242C66.5471 111.41 64.605 111.501 62.6376 111.515C60.594 111.499 58.6084 111.516 56.5807 110.968C47.589 107.308 47.4826 95.9815 49.7775 87.9897C50.5431 85.2562 51.559 82.5991 52.7979 80.0508C52.9881 79.6944 53.5272 79.9187 53.3886 80.3085C52.3874 82.9058 51.4957 85.5579 50.8672 88.2682C49.0043 95.8141 48.9677 106.199 57.0535 109.568C57.8888 109.796 58.839 109.891 59.7763 109.955C61.6761 110.078 63.6033 110.052 65.5123 109.976C66.471 109.934 67.4388 109.887 68.3877 109.816L68.1215 109.892C70.7087 108.522 73.3433 107.018 75.6264 105.197C76.1815 104.741 76.7198 104.252 77.1121 103.737C77.5341 103.236 77.5751 102.609 77.6431 101.979C77.7592 100.558 77.5831 99.0932 77.3207 97.6801C76.9106 95.5048 76.249 93.3746 75.5 91.2791C74.2546 87.6929 73.0401 84.0432 72.6482 80.2413C72.5816 79.4018 73.8213 79.2512 73.9312 80.118Z" fill="#181558"/>
<path d="M30.7885 79.3862C30.7885 79.3862 30.7885 79.3862 30.7885 79.3876C30.4608 80.9638 29.8608 82.3782 28.8238 83.2754C25.9218 82.3463 24.1272 81.008 24.1272 81.008L25.2858 71.1336L25.3577 70.517C25.3577 70.517 28.2777 71.6368 30.9585 72.3682C31.1535 74.2541 31.2835 77.0041 30.7885 79.3862Z" fill="white"/>
<path d="M44.901 61.0335C43.2713 58.3916 40.8656 56.2388 38.1272 54.7908C37.7352 54.5724 37.2979 54.388 36.9009 54.1781C36.5473 53.9932 36.775 53.4576 37.1548 53.5876C37.4707 53.6988 37.8251 53.8342 38.141 53.9542C39.5436 54.5209 40.8984 55.3343 42.0632 56.2994C43.1484 57.2047 44.1269 58.272 44.8561 59.4852C45.0989 59.8972 45.3179 60.3048 45.4921 60.7765C45.5537 60.9435 45.4683 61.1288 45.3013 61.1905C45.1447 61.2486 44.9751 61.1761 44.901 61.0335Z" fill="#181558"/>
<path d="M43.6073 64.3567C41.7318 63.0073 39.6174 61.8084 37.2966 61.495C36.5343 61.3855 35.7602 61.3891 34.9883 61.4835C34.8096 61.5095 34.6432 61.3829 34.6216 61.2033C34.6017 61.0408 34.7064 60.8917 34.8606 60.8518C37.3356 60.1907 40.0094 60.9307 42.1195 62.2873C42.8287 62.7495 43.4781 63.2567 44.0525 63.8907C44.1714 64.0237 44.1599 64.2279 44.0269 64.3468C43.9064 64.4547 43.7283 64.4543 43.6073 64.3567Z" fill="#181558"/>
<path d="M80.2848 20.8813C78.1739 23.0309 73.2656 26.6367 70.2827 31.0214C68.4809 33.6672 67.3824 36.5976 68.0235 39.6632L57.8005 41.1585C57.0357 38.5924 56.5575 35.1509 56.7312 32.2066C56.7922 31.1796 56.9323 30.2124 57.1684 29.3638C59.1633 17.4888 72.6578 13.7366 75.8221 12.4064C81.2046 10.1431 82.4894 8.14785 84.0639 8.91879C85.5185 9.62894 85.8933 15.1682 80.2848 20.8813Z" fill="white"/>
<g opacity="0.25">
<path d="M68.0235 39.6629L57.8005 41.1582C57.0357 38.5922 56.5575 35.1506 56.7312 32.2063C58.5476 33.5545 60.1092 28.9956 61.426 28.9144C64.645 28.7132 64.8578 34.098 67.6855 32.7532C68.2931 32.4643 69.3647 31.4987 70.2827 31.0212C68.481 33.6669 67.3825 36.5973 68.0235 39.6629Z" fill="#181558"/>
</g>
<path d="M57.8051 41.8935C57.4884 41.8935 57.1962 41.6873 57.1012 41.3684C56.1011 38.0145 55.4749 32.7852 56.4542 29.2041C57.2625 24.4585 59.932 20.4143 64.3891 17.1837C68.0187 14.5529 71.937 13.0896 74.2782 12.2152C74.7881 12.0248 75.2285 11.8603 75.5427 11.7282C77.7682 10.7926 79.2943 9.89442 80.4087 9.2387C82.0452 8.27573 83.1263 7.63952 84.3915 8.25811C85.0185 8.56483 85.4616 9.30373 85.6391 10.3389C86.0529 12.7509 85.0374 17.094 80.814 21.3962C80.1839 22.0379 79.3352 22.785 78.3526 23.6502C74.0068 27.476 67.4396 33.2575 68.7477 39.5124C68.8309 39.9096 68.5761 40.299 68.1789 40.3821C67.7817 40.4651 67.3923 40.2106 67.3092 39.8133C65.8257 32.7202 72.7797 26.5981 77.3813 22.547C78.3425 21.7008 79.1726 20.9701 79.7651 20.3665C83.5996 16.4606 84.5457 12.6573 84.1906 10.5873C84.0689 9.87867 83.8283 9.61873 83.7458 9.57845C83.2178 9.31995 82.6677 9.61455 81.1541 10.5054C80.0038 11.1822 78.4285 12.1093 76.1124 13.0831C75.7706 13.2267 75.3173 13.396 74.7924 13.5921C70.2512 15.288 59.6164 19.2597 57.8972 29.4852L57.8807 29.5599C57.0051 32.715 57.5344 37.6773 58.5096 40.9485C58.6255 41.3374 58.4043 41.7467 58.0153 41.8627C57.9453 41.8835 57.8746 41.8935 57.8051 41.8935Z" fill="#181558"/>
<path d="M82.0194 11.9225C81.9761 12.1088 81.9325 12.2924 81.8874 12.4734C81.1866 15.3275 80.1082 17.8249 73.0189 22.4566C65.944 27.0789 64.9128 33.3011 64.4393 35.6278C63.9292 38.1389 59.2951 37.9732 59.2951 37.9732C59.2951 37.9732 59.2061 36.9534 59.2104 35.4286C59.2203 32.3307 59.6183 27.1455 61.941 24.1775C66.6694 18.133 73.5702 16.8601 78.4436 14.1215C80.5125 12.959 82.0194 11.9225 82.0194 11.9225Z" fill="#FF67A0"/>
<g opacity="0.25">
<path d="M81.8874 12.4733C81.1866 15.3274 80.1082 17.8248 73.0189 22.4565C65.944 27.0789 64.9128 33.301 64.4393 35.6277C63.9292 38.1389 59.2951 37.9731 59.2951 37.9731C59.2951 37.9731 59.2061 36.9533 59.2104 35.4285C59.2799 33.2803 59.1089 31.3539 59.8552 29.0475C59.9376 28.7931 60.8264 30.9631 62.9324 30.1682C66.3804 28.8668 64.709 23.0172 73.4846 19.2913C78.6966 17.0785 80.993 14.4511 81.8874 12.4733Z" fill="#181558"/>
</g>
<path d="M59.4812 38.6205C59.3655 38.6205 59.2917 38.6183 59.2695 38.6175C58.9444 38.6058 58.6789 38.3536 58.6505 38.0294C58.6469 37.9866 58.5591 36.963 58.5634 35.4269C58.5751 31.7703 59.0822 26.7818 61.4311 23.7806C64.8909 19.3576 69.4865 17.4108 73.5413 15.693C75.188 14.9953 76.7436 14.3364 78.1254 13.5598C80.1419 12.4268 81.6368 11.4018 81.6518 11.3916C81.8709 11.2408 82.1602 11.2403 82.3799 11.3902C82.5996 11.54 82.7049 11.8095 82.6447 12.0686C82.6006 12.2584 82.5562 12.4453 82.5102 12.6296C81.7822 15.594 80.6465 18.2414 73.369 22.9964C66.7592 27.3147 65.6097 33.0547 65.1189 35.5057L65.0684 35.7565C64.5204 38.4535 60.4726 38.6205 59.4812 38.6205ZM80.9683 13.3716C80.3702 13.7454 79.6129 14.2025 78.7569 14.6835C77.3124 15.4952 75.7248 16.1678 74.044 16.8798C69.9421 18.6176 65.7007 20.4144 62.4463 24.5748C60.2104 27.4316 59.8614 32.6026 59.8524 35.4308C59.8501 36.2225 59.8738 36.8786 59.8964 37.3177C61.0417 37.2622 63.5064 36.9708 63.8052 35.4997L63.8549 35.2526C64.3776 32.6429 65.6015 26.5314 72.664 21.9173C78.6766 17.9889 80.2197 15.7268 80.9683 13.3716Z" fill="#181558"/>
<path d="M105.551 34.8598C97.1365 39.0254 82.6066 37.7502 79.9491 43.1891C80.0293 43.257 80.1112 43.3267 80.1895 43.3979C87.5612 49.8611 88.7246 60.8928 86.9952 67.4396C83.2504 78.9213 66.2074 77.7036 60.2733 77.0038C51.8958 76.0157 41.6609 71.4444 40.6808 64.8691L40.6769 64.8411C40.2658 62.0283 41.9382 60.4075 42.6829 59.8341C42.8898 59.6752 43.0253 59.5964 43.0253 59.5946C44.1605 48.4685 50.5309 36.6741 63.3984 36.124C65.5459 36.0313 67.8299 36.37 71.2862 37.5606C72.7969 34.2785 75.7521 30.1462 78.6 28.2858C87.1222 22.7194 98.1967 26.1222 103.809 27.8748C107.061 28.8912 109.457 27.1698 110.519 29.0736C110.607 29.2303 110.649 29.4075 110.649 29.5984C110.668 31.1231 108.117 33.5888 105.551 34.8598Z" fill="white"/>
<path d="M105.551 34.8597C97.1365 39.0254 82.6066 37.7502 79.9491 43.189C80.0293 43.2569 80.1112 43.3266 80.1895 43.3979C87.5612 49.8611 88.7246 60.8927 86.9952 67.4396C86.9931 67.4482 86.9893 67.4549 86.9872 67.4635C83.225 78.9207 66.2039 77.7034 60.2729 77.0036C51.8959 76.0149 41.666 71.4463 40.6823 64.8743C40.6807 64.8725 40.6808 64.8708 40.6808 64.869L40.6769 64.8411C40.2658 62.0282 41.9382 60.4074 42.6829 59.8341C42.8897 59.6752 43.0252 59.5963 43.0253 59.5947C44.1605 48.4685 50.5309 36.6741 63.3984 36.124C65.5459 36.0312 67.8299 36.37 71.2862 37.5606C72.7969 34.2785 75.7521 30.1462 78.6 28.2858C87.1222 22.7194 98.1967 26.1222 103.809 27.8748C107.062 28.8912 109.457 27.1698 110.519 29.0736C110.607 29.2303 110.649 29.4075 110.649 29.5984C110.668 31.123 108.117 33.5887 105.551 34.8597Z" fill="white"/>
<g opacity="0.25">
<path d="M110.669 29.6162C110.687 31.1397 108.136 33.6067 105.571 34.8776C97.1561 39.042 82.6268 37.7676 79.9685 43.206C80.0496 43.2749 80.1306 43.3439 80.2093 43.4145C79.0688 42.8947 76.8719 41.6046 77.1624 39.4736C77.5521 36.6114 84.4166 32.9381 93.4374 33.308C97.5062 33.4742 103.101 32.0326 106.395 30.6238C108.567 29.695 110.091 28.9561 110.669 29.6162Z" fill="#181558"/>
</g>
<g opacity="0.25">
<path d="M86.9972 67.4394C86.9951 67.448 86.993 67.4548 86.9909 67.4634C83.2287 78.9207 66.2076 77.7033 60.2766 77.0035C51.8996 76.0148 41.6698 71.4462 40.686 64.8743C47.6148 78.0646 79.9345 77.7149 86.9972 67.4394Z" fill="#181558"/>
</g>
<path d="M107.175 30.7468C107.175 30.7468 107.162 30.9298 107.015 31.2338C106.674 31.9482 105.234 33.1557 102.186 34.1953C96.3704 36.1793 87.066 35.7789 80.5342 39.3565C79.1425 40.1188 77.8549 41.5162 77.8549 41.5162C77.8549 41.5162 77.77 41.4531 77.6334 41.343C77.0213 40.8559 75.3605 39.4607 75.391 38.692C75.4735 36.679 78.9585 30.5389 88.3284 29.5646C97.6996 28.59 102.741 31.8628 107.175 30.7468Z" fill="#FF67A0"/>
<g opacity="0.25">
<path d="M107.175 30.7468C107.175 30.7468 107.162 30.9298 107.015 31.2338C104.183 33.0294 92.8895 30.2907 86.0244 32.3684C81.1507 33.8437 77.7257 37.0947 78.3934 38.1029C79.0523 39.0978 82.2235 38.553 82.0792 38.6025C80.0692 39.2935 78.0839 41.5356 77.6334 41.3429C77.0213 40.8559 75.3605 39.4606 75.391 38.692C75.4735 36.679 78.9585 30.5389 88.3284 29.5646C97.6996 28.59 102.741 31.8628 107.175 30.7468Z" fill="#181558"/>
</g>
<path d="M77.8531 42.1601C77.7188 42.1601 77.584 42.1184 77.4691 42.0332C77.4691 42.0332 77.3764 41.9645 77.2275 41.8446C74.6992 39.8323 74.7341 38.9545 74.7455 38.6662C74.8334 36.5195 78.331 29.9558 88.2601 28.9232C93.4378 28.3849 97.3365 29.1229 100.469 29.716C103.071 30.2085 105.126 30.5976 107.017 30.1215C107.217 30.0709 107.43 30.12 107.589 30.2534C107.747 30.3868 107.832 30.5882 107.817 30.7947C107.811 30.8663 107.779 31.1297 107.594 31.5141C107.052 32.6475 105.108 33.8789 102.393 34.8051C100.025 35.6128 97.1387 36.0281 94.0832 36.4678C89.4585 37.1333 84.6761 37.8216 80.8421 39.9215C79.563 40.622 78.3394 41.9396 78.3272 41.9528C78.201 42.0896 78.0277 42.1601 77.8531 42.1601ZM91.8177 30.0264C90.7419 30.0264 89.6032 30.0795 88.3934 30.2053C79.2194 31.1592 76.0988 37.1173 76.0334 38.718C76.0541 38.9216 76.5562 39.626 77.8016 40.6511C78.3153 40.1529 79.2359 39.3316 80.223 38.7909C84.2615 36.579 89.3821 35.8421 93.8997 35.192C96.8941 34.7611 99.7223 34.3541 101.977 33.5851C104.007 32.8925 105.221 32.1512 105.865 31.6001C104.129 31.7206 102.289 31.3723 100.229 30.9824C97.9186 30.545 95.1792 30.0264 91.8177 30.0264Z" fill="#181558"/>
<path d="M82.1631 67.8017C85.2585 66.3222 89.3997 66.6257 92.518 67.9016C92.7355 67.9877 92.9507 68.0791 93.1656 68.1696C93.5308 68.3276 93.3372 68.8827 92.952 68.7759C92.5758 68.6704 92.1735 68.547 91.7991 68.4328C91.1124 68.2653 90.3683 68.096 89.6676 67.9821C89.4326 67.954 88.9007 67.8811 88.6735 67.8573C87.4574 67.7444 86.23 67.7559 85.0176 67.8933C84.1432 67.9881 83.2362 68.1564 82.4003 68.3981C82.0297 68.5026 81.8185 67.9825 82.1631 67.8017Z" fill="#181558"/>
<path d="M81.1114 71.0674C84.4105 70.8478 88.0908 72.2135 89.9285 75.0652C90.1414 75.4052 89.6631 75.753 89.4064 75.4431C87.9047 73.6254 85.7014 72.6089 83.4366 72.1066C82.6719 71.9292 81.8761 71.7979 81.1056 71.7098C80.7257 71.6619 80.7294 71.1083 81.1114 71.0674Z" fill="#181558"/>
<path d="M56.8637 76.7536C50.8133 75.8672 41.8259 72.1745 40.1287 65.6925C39.6387 63.8531 39.9934 61.7671 41.2533 60.3024C41.6555 59.8156 42.1326 59.3906 42.6698 59.0576C42.6698 59.0576 42.6742 59.0549 42.6717 59.0565C42.595 59.2246 42.8546 58.6708 42.3867 59.5164C42.4074 59.3532 42.4387 59.027 42.4601 58.8638C43.6678 48.4344 49.6472 37.5171 60.8494 35.7387C62.641 35.4473 64.4843 35.3639 66.2833 35.6212C68.0879 35.8721 69.8169 36.375 71.4974 36.951L70.7021 37.2909C72.1972 34.1646 74.1534 31.3048 76.7121 28.9419C78.0077 27.7632 79.5619 26.8823 81.1687 26.1989C87.6171 23.5135 94.8712 24.5859 101.38 26.4651C102.576 26.7784 103.734 27.2515 104.942 27.4806C105.723 27.6106 106.509 27.5924 107.312 27.5389C107.956 27.5035 108.668 27.4197 109.351 27.536C110.199 27.6581 111.019 28.3115 111.243 29.1624C111.616 30.9611 109.563 32.8402 108.319 33.8534C106.962 34.9491 105.353 35.7478 103.724 36.3374C97.3779 38.684 90.4188 38.6055 84.0892 40.7921C82.6887 41.3356 81.2036 42.1158 80.5294 43.4717L80.3668 42.6968C81.8804 43.9566 83.1969 45.4431 84.2835 47.0832C87.5274 52.0019 88.7871 58.0573 88.3276 63.8909C88.1851 65.3679 87.9833 66.8691 87.4621 68.2733C85.4494 73.6827 80.1189 76.4225 74.7318 77.3846C73.773 77.5433 72.7995 77.6131 71.822 77.5042C71.6409 77.484 71.5103 77.3207 71.5305 77.1395C71.545 77.0089 71.6339 76.9047 71.7503 76.8642C72.665 76.5477 73.5766 76.3391 74.4862 76.1327C78.0482 75.4041 81.6465 73.9854 84.0733 71.2087C85.2279 69.8551 86.1167 68.2478 86.4801 66.4966C87.4077 61.9737 87.0138 57.1774 85.5261 52.8146C84.3404 49.324 82.3268 46.1 79.534 43.6807C79.2967 43.4932 79.2327 43.1623 79.3713 42.9058C80.9789 39.7675 85.4864 38.9345 88.6013 38.2601C93.5539 37.2809 98.5494 36.8237 103.28 35.1276C105.54 34.3228 107.692 33.0515 109.222 31.1914C109.561 30.7602 109.864 30.3188 109.982 29.8145C110.004 29.6507 110.024 29.5276 109.974 29.4219C109.695 28.8867 109.26 28.7638 108.608 28.766C107.125 28.8171 105.54 29.0193 104.065 28.6147C101.457 27.8294 98.8553 27.0207 96.1821 26.526C90.2155 25.3603 83.5902 25.5053 78.4999 29.1421C76.8774 30.3616 75.5546 31.9271 74.3599 33.589C73.4092 34.9297 72.5588 36.3522 71.8724 37.831C71.7323 38.1328 71.3857 38.2741 71.0776 38.1697C69.4421 37.6083 67.7828 37.1302 66.1084 36.8982C64.4294 36.6581 62.7265 36.7405 61.0582 37.0106C57.7057 37.5435 54.5407 39.0712 52.0215 41.3442C46.9119 45.9705 44.3801 52.9252 43.6662 59.6726C43.1949 60.5211 43.4507 59.9694 43.3703 60.14L43.361 60.146C41.6444 61.3074 40.9442 63.3591 41.4969 65.355C42.6378 69.5232 46.9971 72.1056 50.7178 73.831C52.7388 74.7485 54.8477 75.4901 57.0013 76.124C57.385 76.2374 57.2557 76.8091 56.8637 76.7536Z" fill="#181558"/>
<path d="M54.0131 40.4977C54.3663 38.8575 50.1774 38.6687 50.1525 37.4903C50.134 36.6121 54.822 34.5655 58.2745 36.8652C58.2745 36.8652 58.2042 36.0472 57.9067 35.0112C57.0858 32.1523 57.789 31.3352 57.789 31.3352C59.0897 31.0326 64.9521 35.917 70.4061 37.2692" fill="white"/>
<path d="M53.6987 40.4299C53.5679 39.5255 50.3024 39.2719 49.6568 38.1173C48.9466 36.9617 50.3493 36.1362 51.2468 35.7581C53.6115 34.7778 56.4897 34.8145 58.6323 36.3288L57.6329 36.9204C57.4954 35.5106 56.8697 34.1773 56.8674 32.7107C56.8644 32.109 56.9194 31.4065 57.3098 30.9038C57.4617 30.7061 57.7056 30.6883 57.9318 30.6774L57.9764 30.6804L58.0655 30.6878C58.6741 30.7593 59.2093 31.0544 59.7272 31.314C60.2648 31.5959 60.7738 31.8936 61.2809 32.1907C62.2926 32.7866 63.2882 33.3829 64.2984 33.9461C66.2891 35.0513 68.3641 36.0844 70.5618 36.6437C70.9097 36.728 71.1228 37.0811 71.0346 37.4283C70.9471 37.7733 70.5966 37.9822 70.2516 37.8948C69.0679 37.595 67.9359 37.1721 66.8461 36.6836C64.6832 35.7201 62.6509 34.4962 60.6281 33.3021C60.1274 33.0085 59.6269 32.7166 59.1296 32.456C58.7361 32.2584 58.3428 32.0376 57.9298 31.9685L57.9198 31.9663C57.9198 31.9663 57.9217 31.9679 57.9226 31.9684C57.9272 31.9704 57.9323 31.9685 57.9355 31.9629L58.278 31.7555L58.3016 31.7266L58.3052 31.7213C58.3064 31.7192 58.3033 31.7257 58.3022 31.7273C58.0278 32.4353 58.1821 33.223 58.3132 33.9721C58.5134 34.8637 58.8396 35.8572 58.9171 36.8099C58.981 37.3168 58.3819 37.6919 57.9547 37.4233C56.9392 36.7957 55.7328 36.5034 54.5275 36.5249C53.5995 36.5439 52.6495 36.7228 51.7933 37.0662C51.4358 37.2165 51.0663 37.3844 50.816 37.6437C50.816 37.6437 50.815 37.6448 50.8136 37.6449C50.8136 37.6449 50.8107 37.6463 50.8126 37.6434C50.8156 37.6394 50.8182 37.6351 50.8204 37.6306C50.8256 37.6195 50.8293 37.6062 50.8296 37.5938C50.8505 37.5344 50.8525 37.4474 50.8214 37.3993C51.0071 37.6145 51.3634 37.7534 51.6815 37.8997C52.4984 38.2611 53.5052 38.5625 54.13 39.3589C54.3855 39.6679 54.5026 40.1944 54.3286 40.5655C54.2609 40.7304 54.0723 40.8091 53.9073 40.7413C53.7731 40.6882 53.7138 40.561 53.6987 40.4299Z" fill="#181558"/>
<path d="M53.7231 65.9756C54.6909 67.1374 54.4554 70.3317 55.916 70.6811C57.928 71.1625 58.4457 67.8843 59.6045 66.8296" fill="#3A3A3A"/>
<path d="M59.6043 66.8297C59.0784 67.3086 58.6851 68.247 58.2238 69.0834C57.669 70.0868 57.0147 70.9433 55.9169 70.6815C55.3706 70.5515 55.0604 70.0238 54.8366 69.3529C54.4632 68.2291 54.3294 66.7026 53.7231 65.9748L59.6043 66.8297Z" fill="#181558"/>
<path d="M58.2273 69.0834C57.6724 70.0868 57.0182 70.9433 55.9204 70.6815C55.374 70.5514 55.0639 70.0238 54.8401 69.3529C55.1144 69.0992 55.6613 68.9164 56.3743 69.2653C56.7438 68.8848 57.5435 68.7326 58.2273 69.0834Z" fill="#FF8080"/>
<path d="M56.5106 68.9493L56.6142 69.0827C56.6142 69.0827 56.2998 69.3012 56.3224 69.7639C56.3224 69.7639 56.094 69.3019 56.3388 68.9083" fill="#181558"/>
<path d="M56.3225 71.2154C56.1594 71.2154 55.9871 71.1951 55.8048 71.1514C54.6607 70.8775 54.3475 69.5348 54.0447 68.2364C53.8663 67.471 53.6818 66.6797 53.353 66.2849C53.1821 66.0798 53.2099 65.7752 53.4151 65.6043C53.6202 65.4334 53.9249 65.4611 54.0958 65.6664C54.5711 66.237 54.7821 67.1419 54.9861 68.0168C55.2223 69.0294 55.4664 70.0764 56.0297 70.2112C56.92 70.4241 57.4156 69.6062 58.1256 68.2334C58.4823 67.5435 58.8194 66.8918 59.2804 66.4722C59.4778 66.2926 59.7836 66.3068 59.9632 66.5044C60.1428 66.7018 60.1285 67.0075 59.931 67.1872C59.5984 67.49 59.3001 68.0668 58.9844 68.6774C58.3926 69.8216 57.6718 71.2154 56.3225 71.2154Z" fill="#181558"/>
<path d="M55.4011 65.4469L55.371 68.0232C55.3694 68.1624 55.468 68.2827 55.6048 68.3084L56.5019 68.4769C56.6372 68.5024 56.7716 68.4279 56.8219 68.2997L57.7659 65.8911" fill="white"/>
<path d="M56.5526 68.7234C56.5203 68.7234 56.4876 68.7205 56.4548 68.7144L55.558 68.5459C55.3054 68.4983 55.1242 68.2772 55.127 68.0204L55.1572 65.4438L55.6406 65.4496L55.6104 68.0259C55.6101 68.0477 55.6256 68.0668 55.6473 68.0709L56.5441 68.2392C56.5662 68.2444 56.5866 68.2316 56.5944 68.2114L57.5385 65.8028L57.9886 65.9792L57.0445 68.3878C56.9641 68.5929 56.7665 68.7234 56.5526 68.7234Z" fill="#181558"/>
<path d="M56.2655 66.016L56.25 67.3254L56.625 66.0875L56.2655 66.016Z" fill="#3A3A3A"/>
<path d="M60.0259 66.8023C59.8513 67.4874 59.163 67.8462 58.6944 67.8818C57.3173 67.9863 56.6941 66.8267 56.5965 66.2486C56.5785 66.1424 56.404 66.1088 56.3343 66.1909C56.0347 66.5438 54.847 67.3161 53.9204 66.5832C53.3666 66.1452 53.4326 65.2879 53.4326 65.2879C53.4326 65.2879 54.3964 63.3973 57.045 63.6721C59.6935 63.9469 60.0259 66.8023 60.0259 66.8023Z" fill="white"/>
<path d="M60.2621 66.8619C60.172 67.85 59.0944 68.4941 58.1532 68.3553C57.1186 68.2431 56.3258 67.3236 56.1171 66.3398C56.1201 66.4296 56.2434 66.5967 56.3505 66.6203C56.441 66.6647 56.6345 66.6182 56.7113 66.5128C56.5217 66.7341 56.2849 66.9055 56.0526 67.0414C54.6673 67.9128 52.7609 67.0585 53.1936 65.2692C53.2677 65.0064 53.6378 65.0428 53.6756 65.3064C53.9458 66.6062 55.0522 66.6505 55.95 65.8804C56.2157 65.5791 56.656 65.5826 56.9222 65.8517C57.0325 65.9564 57.076 66.1159 57.1027 66.2652C57.173 66.5383 57.3435 66.8223 57.5554 67.0126C58.2019 67.5981 59.3508 67.5643 59.7938 66.7425L59.8037 66.7246C59.9241 66.4951 60.2879 66.6074 60.2621 66.8619Z" fill="#181558"/>
<path d="M56.1569 66.4471C56.0978 66.3162 55.8302 65.5728 56.3559 63.7926C56.4315 63.5367 56.7004 63.3905 56.9563 63.4659C57.2123 63.5414 57.3585 63.8103 57.283 64.0663C56.8582 65.5051 57.0442 66.0635 57.0462 66.069C57.0416 66.0561 57.0382 66.0501 57.0382 66.0501L56.1569 66.4471Z" fill="#181558"/>
<path d="M54.9693 63.091C54.8554 63.7593 55.4998 64.4767 56.012 64.9293C56.3666 65.2428 56.8693 65.3284 57.3077 65.1501C57.9409 64.8926 58.7865 64.4291 58.9003 63.7607C59.0853 62.6752 55.1543 62.0054 54.9693 63.091Z" fill="#181558"/>
<g opacity="0.35">
<path d="M55.9399 63.0146C55.9189 63.1382 56.1759 63.2944 56.3766 63.3962C56.5156 63.4666 56.7015 63.4983 56.856 63.4779C57.079 63.4483 57.3733 63.386 57.3943 63.2624C57.4286 63.0616 55.9742 62.8138 55.9399 63.0146Z" fill="white"/>
</g>
<path d="M69.824 66.5472C69.7549 65.598 69.4899 64.6101 69.0915 63.8041C68.6585 62.8911 67.9574 62.2091 66.944 62.1357C65.4271 61.9899 64.1945 63.1252 63.2839 64.2592C63.0953 64.4948 62.7513 64.5328 62.5157 64.3441C62.0032 63.9369 62.5494 62.5507 62.8354 62.0859C64.3369 59.548 68.0382 58.9828 69.9751 61.367C71.1616 62.8504 71.4618 64.9809 70.8533 66.7409C70.6363 67.294 69.8261 67.133 69.824 66.5472Z" fill="#181558"/>
<path d="M46.3303 60.7061C46.7333 59.2752 47.6333 57.9448 49.029 57.2833C50.737 56.4716 52.8562 57.0939 53.5088 58.9314C53.8827 59.9529 53.8587 61.0167 53.3548 61.9642C53.1516 62.3238 52.5831 62.2264 52.5077 61.8258C52.3466 61.0534 52.1593 60.2185 51.8603 59.6562C51.5703 59.1204 51.171 58.9003 50.6066 58.8481C49.1422 58.7392 48.0532 60.0431 47.1221 61.1038C46.8218 61.4842 46.2039 61.1692 46.3303 60.7061Z" fill="#181558"/>
<path d="M73.4479 87.2013C73.4479 87.2013 80.5395 85.7352 86.1243 82.0257C90.6961 78.9891 93.6129 74.514 91.5722 70.7607C90.9136 69.5493 89.4183 68.6428 87.3861 68.9791C84.7411 69.4168 82.3009 72.0827 79.9453 73.5788C74.2559 77.1922 69.4824 77.4128 69.4824 77.4128" fill="white"/>
<g opacity="0.25">
<path d="M75.3336 85.5329C74.4444 85.7094 73.1681 85.7866 73.6546 85.0986C74.3188 84.1592 77.3595 83.2997 80.6777 81.6406C82.9306 80.5142 86.3361 78.567 86.6158 79.2649C87.2761 80.9125 79.1059 84.7842 75.3336 85.5329Z" fill="#181558"/>
</g>
<g opacity="0.25">
<path d="M76.1036 75.6195C73.962 76.926 71.884 77.8386 69.9014 78.4469L69.4824 77.4127C69.4824 77.4127 72.2601 77.2841 76.1036 75.6195Z" fill="#181558"/>
</g>
<path d="M73.3798 86.8854C79.0197 85.2048 86.2544 82.4413 89.8957 77.656C91.0876 76.0843 91.953 74.0562 91.4198 72.1101C91.1865 71.2259 90.7 70.3741 89.8559 69.9475C86.4663 68.2929 83.1902 72.3739 80.4917 74.0112C77.6651 75.8056 74.5011 77.1139 71.1785 77.5947C70.6219 77.6709 70.0778 77.732 69.4945 77.7343C69.3165 77.735 69.1717 77.5913 69.171 77.4133C69.1703 77.2504 69.2907 77.1153 69.4475 77.093C70.4902 76.9447 71.5553 76.6644 72.5678 76.3475C75.1108 75.5424 77.5345 74.365 79.7634 72.9053C82.8313 70.8077 86.3736 66.7734 90.4708 68.806C92.1681 69.6942 92.9428 71.7478 92.8784 73.5857C92.4831 79.3235 86.251 83.2283 81.4551 85.2053C78.8929 86.2521 76.2422 87.0481 73.5103 87.5165C73.1077 87.5734 72.9787 86.9957 73.3798 86.8854Z" fill="#181558"/>
<path d="M70.9132 94.1251C60.9524 93.1841 60.2456 104.24 64.2964 107.181C61.5563 107.971 61.5353 110.71 62.5428 111.725C63.2682 112.455 64.2351 112.572 64.7063 112.591C65.5428 112.624 71.7826 113 72.6125 112.64C76.2259 111.073 78.6425 107.028 78.8694 102.677C79.0751 98.7293 77.3655 94.562 76.3381 91.687" fill="white"/>
<path d="M78.8698 102.677C78.6431 107.028 76.2263 111.073 72.6123 112.64C71.7827 113.001 65.5431 112.625 64.7067 112.591C64.2352 112.572 63.2688 112.456 62.5429 111.724C62.153 111.332 61.9166 110.681 61.9332 109.984C61.9581 108.882 62.6162 107.665 64.296 107.181C60.2451 104.241 60.953 93.184 70.9131 94.1255L76.3383 91.6866C77.143 93.9375 78.3638 96.9806 78.7579 100.09C78.8685 100.953 78.9141 101.82 78.8698 102.677Z" fill="white"/>
<g opacity="0.25">
<path d="M70.4767 106.506C69.0376 106.646 68.4334 105.703 65.1851 105.84C63.6646 105.904 62.3384 101.125 66.2853 101.145C71.3998 101.171 72.1009 106.349 70.4767 106.506Z" fill="#181558"/>
</g>
<g opacity="0.25">
<path d="M78.8698 102.677C78.6431 107.028 76.2263 111.073 72.6123 112.64C71.7827 113.001 65.5431 112.625 64.7067 112.591C64.2352 112.572 63.2688 112.456 62.5429 111.724C62.153 111.332 61.9166 110.681 61.9332 109.984C62.7185 110.379 64.1716 110.775 66.8455 110.779C71.5103 110.784 74.2866 110.779 72.2168 108.189C72.2168 108.189 78.7081 109.015 78.7578 100.09C78.8685 100.953 78.9141 101.82 78.8698 102.677Z" fill="#181558"/>
</g>
<path d="M70.8813 94.4459C67.7425 94.2241 64.5408 95.4116 63.2828 98.4339C62.1808 101.007 62.4133 104.806 64.6914 106.674C65.1033 106.979 64.9615 107.672 64.4731 107.8C63.7868 107.998 63.1994 108.379 62.8789 108.934C62.4692 109.619 62.4475 110.619 62.9697 111.238C63.2751 111.562 63.665 111.757 64.1146 111.865C64.4088 111.958 64.9268 111.946 65.2378 111.971L66.4796 112.032C68.3111 112.102 70.1724 112.22 71.9922 112.102C72.1756 112.085 72.3645 112.059 72.3989 112.028C73.4614 111.56 74.4055 110.859 75.2031 110.01C78.6593 106.241 78.8097 101.271 77.3368 96.58C76.8799 95.0135 76.2979 93.4783 75.7296 91.9039C75.4637 91.1044 76.6216 90.6662 76.942 91.4662C78.6909 96.1464 80.5931 101.421 78.7997 106.402C77.7926 109.357 75.6574 112.127 72.6807 113.295C71.439 113.529 70.1609 113.42 68.922 113.415C68.0856 113.392 67.252 113.359 66.4196 113.32C66.0078 113.298 64.939 113.248 64.5388 113.227C63.5467 113.163 62.5115 112.754 61.88 111.941C61.0997 110.879 61.1127 109.388 61.7698 108.277C62.2731 107.406 63.1814 106.826 64.1161 106.562C64.1164 106.561 63.9161 107.702 63.9161 107.702C63.1378 107.156 62.5631 106.401 62.1624 105.598C60.6238 102.427 61.1842 98.2795 63.7245 95.7866C65.6052 93.9321 68.4172 93.4348 70.9418 93.8043C71.3475 93.869 71.2886 94.4609 70.8813 94.4459Z" fill="#181558"/>
<path d="M65.0301 108.483C64.6637 109.317 64.6598 110.322 65.1611 111.081L65.3011 111.288C65.3547 111.349 65.4991 111.509 65.5508 111.568L65.6472 111.651C65.8225 111.82 66.0535 111.97 66.2504 112.105L65.4158 113.088C65.2083 112.844 64.9871 112.576 64.8243 112.299C64.0569 111.102 64.1213 109.572 65.0301 108.483Z" fill="#181558"/>
<path d="M67.9791 108.483C67.7279 109.171 67.6288 109.957 67.8104 110.653C67.9752 111.307 68.4169 111.787 69.0006 112.078L68.2356 113.115C67.9068 112.803 67.6177 112.431 67.4299 112.013C66.8855 110.834 67.254 109.472 67.9791 108.483Z" fill="#181558"/>
<path d="M47.6206 106.898C47.066 107.618 46.8106 108.594 47.1514 109.438C47.2079 109.555 47.2652 109.674 47.328 109.787C47.3814 109.861 47.5 110.039 47.5556 110.107L47.6471 110.205C47.8118 110.403 48.0408 110.583 48.2327 110.747L47.3122 111.649C47.1183 111.375 46.9085 111.076 46.7661 110.771C46.0435 109.384 46.3921 107.841 47.6206 106.898Z" fill="#181558"/>
<path d="M49.8472 107.144C49.6706 107.846 49.6209 108.608 49.775 109.302C49.9138 109.932 50.27 110.464 50.8305 110.74L50.0481 111.764C48.7255 110.541 48.9988 108.537 49.8472 107.144Z" fill="#181558"/>
<path d="M71.9316 108.189C69.8021 107.517 67.5146 107.279 65.3075 107.631C65.0487 107.665 64.6586 107.762 64.4013 107.817L64.1907 106.545C64.4854 106.533 64.9289 106.496 65.2199 106.507C67.5432 106.52 69.8692 107.138 71.9316 108.189Z" fill="#181558"/>
<path d="M25.5286 68.1061C36.5669 65.1086 41.0695 73.7025 40.4868 87.3833C39.9802 99.2771 36.5272 102.072 34.8739 102.521C33.2206 102.97 28.8284 102.305 22.3754 92.3015C14.9529 80.7945 14.4902 71.1036 25.5286 68.1061Z" fill="#FF7C1A"/>
<path d="M25.5286 68.1061C36.5669 65.1086 41.0695 73.7025 40.4868 87.3833C39.9802 99.2771 36.5272 102.072 34.8739 102.521C33.2206 102.97 28.8284 102.305 22.3754 92.3015C14.9529 80.7945 14.4902 71.1036 25.5286 68.1061Z" fill="#FF7C1A"/>
<path d="M40.487 87.3833C39.9801 99.2774 36.5271 102.072 34.8738 102.521C33.2205 102.97 28.8284 102.306 22.3756 92.3014C20.0062 88.6288 18.3461 85.1415 17.5433 81.997C17.0834 80.2001 16.9042 78.5158 17.0327 76.9734C17.3819 72.757 20.0263 69.6002 25.5284 68.1061C31.0305 66.612 34.9085 67.9977 37.3424 71.4582C38.2334 72.7237 38.9307 74.2674 39.4429 76.0501C40.3406 79.1682 40.6727 83.0168 40.487 87.3833Z" fill="#FF7C1A"/>
<g opacity="0.3">
<path d="M19.416 79.7535C19.4521 82.4598 20.7643 87.2921 22.3014 88.0456C24.5212 89.1337 24.2332 84.0866 25.1199 84.9602C26.0066 85.8337 26.9538 86.5516 27.5445 85.4161C28.2478 84.0642 27.1055 77.1779 25.1314 76.8436C23.4732 76.5628 23.9871 79.3829 22.6547 78.282C21.2151 77.0925 19.3788 76.9734 19.416 79.7535Z" fill="white"/>
</g>
<g opacity="0.3">
<path d="M33.8471 80.7866C34.7877 82.8358 36.2322 83.6488 37.0704 82.6815C38.3431 81.2128 36.6552 74.2278 34.4568 74.3114C32.7762 74.3753 32.5368 77.9318 33.8471 80.7866Z" fill="white"/>
</g>
<path d="M25.8718 94.1308C26.1663 96.2733 31.781 102.071 34.4689 101.018C37.8564 99.691 39.0739 91.3895 38.1617 90.531C37.717 90.1125 35.439 92.8151 32.0316 93.636C28.956 94.3768 25.7208 93.0326 25.8718 94.1308Z" fill="#FF5D1D"/>
<g opacity="0.5">
<path d="M36.2753 70.1683C33.6794 68.3391 30.2092 67.8531 25.7873 69.0539C21.3653 70.2547 18.6176 72.4292 17.3035 75.3202C18.1522 71.9327 20.7731 69.3977 25.5299 68.106C30.2866 66.8143 33.8298 67.6754 36.2753 70.1683Z" fill="white"/>
</g>
<path d="M34.0583 103.266C33.1351 103.266 31.7959 102.98 30.0767 101.873C27.4728 100.195 24.6999 97.0922 21.8351 92.6508C16.9356 85.0554 15.2747 78.6202 17.0319 74.0407C18.2525 70.8594 21.0547 68.6536 25.3609 67.4842C29.6673 66.3149 33.2001 66.8008 35.8622 68.9272C39.6943 71.9889 41.5166 78.3805 41.132 87.4108C40.907 92.6913 40.0843 96.7703 38.6867 99.5347C37.3515 102.176 35.8314 102.929 35.044 103.143C34.8008 103.209 34.471 103.266 34.0583 103.266ZM25.6988 68.7281C21.8115 69.7837 19.3005 71.7264 18.2352 74.5025C16.6315 78.6823 18.2508 84.7164 22.9182 91.9523C29.7865 102.6 33.9433 102.106 34.7062 101.899C35.4696 101.691 39.3049 100.016 39.8441 87.3559C40.2107 78.7531 38.5554 72.7288 35.0576 69.9342C32.7347 68.0784 29.5852 67.6729 25.6988 68.7281Z" fill="#181558"/>
<path d="M32.048 92.7714C33.5282 92.3004 34.996 91.7311 36.3888 91.049C37.408 90.5405 38.4031 89.9814 39.2329 89.2235C39.4938 88.9817 39.7202 88.719 39.8741 88.455C40.0536 88.1469 40.449 88.0427 40.7571 88.2223C41.0912 88.4139 41.1804 88.8677 40.9451 89.1721C40.3954 89.9036 39.6802 90.3699 38.922 90.7983C37.4934 91.5734 35.9792 92.0809 34.4345 92.5215C33.6699 92.7345 32.9042 92.925 32.1256 93.0841C31.9293 93.1221 31.8509 92.8319 32.048 92.7714Z" fill="#181558"/>
<path d="M25.0376 88.0378C23.3717 88.7445 21.5109 89.1729 19.7112 88.7041C18.891 88.4613 19.2052 87.2591 20.0408 87.4513C20.7797 87.7965 21.6045 87.9818 22.4419 87.9932C23.2671 88.0094 24.1207 87.9226 24.9276 87.7349C25.1173 87.6828 25.2179 87.9559 25.0376 88.0378Z" fill="#181558"/>
<path d="M33.257 97.1532C31.6409 97.9014 29.9178 98.4028 28.1278 98.499C27.5182 98.5243 26.8965 98.4841 26.2697 98.3754C25.4337 98.204 25.6428 96.9814 26.4907 97.1013C27.5443 97.4446 28.6843 97.5501 29.8069 97.4721C30.9251 97.3943 32.06 97.1886 33.1331 96.8557C33.3218 96.7899 33.4394 97.0644 33.257 97.1532Z" fill="#181558"/>
<path d="M32.5128 80.025C34.4339 79.2763 36.3932 78.3084 37.7694 76.7421C38.1897 76.2415 38.4844 75.6772 38.5629 75.1217C38.6129 74.7686 38.9397 74.5228 39.2928 74.5727C39.676 74.6239 39.9303 75.0134 39.8247 75.3848C39.5979 76.2376 39.0922 76.925 38.5316 77.4602C37.9654 77.999 37.3343 78.4171 36.6859 78.7762C35.3906 79.4789 34.0238 79.9773 32.6018 80.3347C32.4056 80.3799 32.3186 80.0925 32.5128 80.025Z" fill="#181558"/>
<path d="M25.8093 80.6571C22.8085 81.6944 18.9608 81.8994 16.558 79.4729C16.3029 79.2236 16.2982 78.8149 16.5473 78.5598C16.7966 78.3047 17.2054 78.2999 17.4604 78.5492C17.7034 78.8292 17.9487 79.1087 18.2444 79.3425C19.6933 80.5041 21.6329 80.7673 23.4494 80.6766C24.2061 80.6338 24.9744 80.5305 25.7093 80.3508C25.9039 80.2949 26.0046 80.5843 25.8093 80.6571Z" fill="#181558"/>
<path d="M21.9562 71.063C23.1006 69.7078 28.8098 68.399 29.6195 68.9624C30.4292 69.5258 32.806 71.7864 26.4606 73.6031C22.0108 74.8771 21.3671 71.7608 21.9562 71.063Z" fill="#FF5D1D"/>
<path d="M24.0425 73.0014C24.0425 73.0014 22.8235 67.4638 17.5888 66.2923C13.7268 65.4279 14.6224 63.79 15.1155 63.1557C15.6289 62.4954 17.6619 61.6352 19.5447 62.8036C23.1172 65.0204 24.6165 70.4786 25.2772 72.6205" fill="#5AE83D"/>
<path d="M25.2772 72.6201L24.0425 73.001C24.0425 73.001 23.0993 68.7156 19.3078 66.8874C18.79 66.637 18.2185 66.4328 17.589 66.2917C13.7268 65.4283 14.6224 63.7903 15.1154 63.1558C15.629 62.495 17.6625 61.6353 19.5449 62.8038C21.4024 63.9566 22.6996 65.9856 23.6091 67.9688C24.4499 69.8 24.9601 71.5921 25.2772 72.6201Z" fill="#52BF2E"/>
<path d="M16.3586 64.3601C16.4237 64.8297 20.3741 63.1835 24.0453 71.0449C24.0453 71.0449 24.8299 72.3638 24.263 70.9583C21.294 63.5985 16.2698 63.7199 16.3586 64.3601Z" fill="#C2FFAB"/>
<path d="M24.0407 71.0453C23.4935 69.8731 22.9404 68.9128 22.3938 68.1252C22.5782 68.217 22.7467 68.2609 22.8977 68.2684C23.3792 69.0282 23.8395 69.9188 24.2585 70.9585C24.8246 72.3634 24.0407 71.0453 24.0407 71.0453Z" fill="#C2FFAB"/>
<g opacity="0.5">
<path d="M24.3671 69.8202C24.2174 69.445 24.0553 69.0606 23.8779 68.6747C22.9684 66.6915 21.6712 64.6624 19.8137 63.5097C17.9313 62.3411 15.8978 63.2009 15.3842 63.8617C15.1818 64.1226 14.911 64.5518 14.9308 65.0281C14.3664 64.2993 14.8154 63.5417 15.1151 63.1558C15.6287 62.495 17.6622 61.6353 19.5446 62.8038C21.4021 63.9566 22.6993 65.9856 23.6088 67.9688C23.8985 68.6004 24.1494 69.2274 24.3671 69.8202Z" fill="white"/>
</g>
<path d="M25.2809 72.62L24.0462 73.0009C24.0462 73.0009 23.1031 68.7155 19.3115 66.8873C20.256 67.0897 21.3435 67.4229 22.1232 67.9607C22.8138 68.4382 23.2906 68.2989 23.6128 67.9688C24.4537 69.8 24.9638 71.592 25.2809 72.62Z" fill="#389113"/>
<path d="M24.0407 71.0453C23.4935 69.8731 22.9404 68.9128 22.3938 68.1252C22.5782 68.217 22.7467 68.2609 22.8977 68.2684C23.3792 69.0282 23.8395 69.9188 24.2585 70.9585C24.8246 72.3634 24.0407 71.0453 24.0407 71.0453Z" fill="#8ED372"/>
<path d="M23.5724 73.1058C23.5608 73.0534 22.3477 67.8522 17.485 66.7638C15.6451 66.352 14.5953 65.7193 14.2756 64.8294C14.0541 64.2124 14.2131 63.5311 14.7357 62.8589C15.3964 62.0092 17.7188 61.1003 19.8013 62.3928C23.3398 64.5885 24.8863 69.6712 25.6296 72.1138L25.7408 72.4779L24.817 72.7629L24.7047 72.3952C23.9958 70.0656 22.5209 65.218 19.2917 63.2143C17.59 62.1584 15.8265 63.0309 15.4989 63.4521C15.2834 63.7294 15.054 64.1366 15.1855 64.5025C15.2957 64.8095 15.7686 65.3889 17.6962 65.8205C23.1683 67.0451 24.4639 72.659 24.5164 72.8973L23.5724 73.1058Z" fill="#181558"/>
<path d="M25.9888 72.4012C25.9888 72.4012 26.2786 62.9801 31.545 62.0214C33.2198 61.7165 33.7755 62.3088 33.8472 62.8785C33.9757 63.899 32.382 64.3579 31.4694 64.9641C28.3987 67.0039 28.2387 69.8326 27.5022 72.426" fill="#5AE83D"/>
<path d="M33.8472 62.879C33.955 63.7365 32.8461 64.1978 31.948 64.6821C31.778 64.7745 31.6152 64.8675 31.4698 64.9637C28.3987 67.0037 28.2389 69.8331 27.5027 72.4258L25.9888 72.4009C25.9888 72.4009 26.0643 69.9615 26.8315 67.4384C27.573 65.0042 28.9591 62.4922 31.5454 62.0218C33.2197 61.7169 33.7759 62.309 33.8472 62.879Z" fill="#52BF2E"/>
<path d="M26.6785 71.0971C27.9871 63.7626 32.3305 62.4909 32.4704 62.9446C32.6103 63.3983 28.3999 63.8928 26.8965 71.1837" fill="#C2FFAB"/>
<path d="M28.23 67.2409C27.7031 68.2663 27.2319 69.5561 26.8957 71.1839L26.6785 71.0973C26.9308 69.6797 27.2972 68.4887 27.725 67.4926C27.8402 67.4558 27.9637 67.4017 28.0951 67.3256C28.1388 67.2998 28.1843 67.2722 28.23 67.2409Z" fill="#C2FFAB"/>
<g opacity="0.5">
<path d="M33.8504 62.879C33.8835 63.1388 33.8042 63.3617 33.6537 63.5596C33.5546 63.0068 32.9816 62.4618 31.3609 62.7571C28.7747 63.2275 27.3885 65.7395 26.647 68.1737C26.6061 68.3064 26.5679 68.4392 26.532 68.5713C26.618 68.2009 26.7184 67.8208 26.8346 67.4384C27.5761 65.0042 28.9623 62.4922 31.5485 62.0218C33.2229 61.7169 33.779 62.309 33.8504 62.879Z" fill="white"/>
</g>
<path d="M31.948 64.682C31.778 64.7745 31.6152 64.8674 31.4698 64.9636C28.3987 67.0037 28.2389 69.8331 27.5027 72.4258L25.9888 72.4009C25.9888 72.4009 26.0643 69.9614 26.8315 67.4384C27.1131 67.5892 27.5322 67.6523 28.0959 67.3261C29.1137 66.7387 30.84 64.5928 31.948 64.682Z" fill="#389113"/>
<path d="M28.23 67.2409C27.7031 68.2663 27.2319 69.5561 26.8957 71.1839L26.6785 71.0973C26.9308 69.6797 27.2972 68.4887 27.725 67.4926C27.8402 67.4558 27.9637 67.4017 28.0951 67.3256C28.1388 67.2998 28.1843 67.2722 28.23 67.2409Z" fill="#C2FFAB"/>
<path d="M27.9679 72.5581L27.0381 72.2942C27.1604 71.8633 27.2697 71.4128 27.3753 70.9773C27.926 68.7073 28.4953 66.36 31.2028 64.5615C31.4576 64.3922 31.7544 64.2371 32.0414 64.0869C32.8498 63.6642 33.4182 63.3343 33.3685 62.939C33.3512 62.8012 33.2879 62.6941 33.175 62.6113C33.0137 62.4931 32.5992 62.3209 31.6324 62.497C26.8123 63.3745 26.4757 72.3261 26.4728 72.4162L25.5066 72.3865C25.519 71.9858 25.8727 62.563 31.4593 61.546C32.4679 61.3625 33.2376 61.4585 33.7466 61.8318C34.0712 62.0698 34.2775 62.4201 34.3277 62.8182C34.4652 63.9104 33.3696 64.4834 32.4893 64.9436C32.2122 65.0886 31.9505 65.2254 31.7378 65.3667C29.3455 66.9559 28.8449 69.02 28.3148 71.2052C28.2069 71.6496 28.0955 72.1094 27.9679 72.5581Z" fill="#181558"/>
<path d="M24.6085 72.305C24.6085 72.305 20.8588 62.5887 24.8467 58.0342C28.1645 54.2451 31.5115 58.2217 29.6397 61.3189C27.908 64.1844 26.5864 66.563 26.9163 72.1156" fill="#5AE83D"/>
<path d="M29.6398 61.3188C28.4944 63.2141 27.5288 64.8963 27.101 67.4244C26.8821 68.7187 26.8047 70.2349 26.9163 72.1151L24.6082 72.3047C24.6082 72.3047 23.8143 70.2475 23.3459 67.5831C22.7959 64.4564 22.6939 60.4931 24.8471 58.0345C28.1648 54.245 31.5116 58.2216 29.6398 61.3188Z" fill="#52BF2E"/>
<g opacity="0.5">
<path d="M30.1236 60.038C30.0359 57.614 27.4062 55.7844 24.7949 58.7675C23.7003 60.0176 23.1881 61.6567 23.0225 63.3777C23.1056 61.3948 23.5958 59.4613 24.8456 58.0344C27.716 54.7564 30.6071 57.2898 30.1236 60.038Z" fill="white"/>
</g>
<path d="M27.101 67.4244C26.8821 68.7187 26.8047 70.2349 26.9163 72.1151L24.6082 72.3047C24.6082 72.3047 23.8143 70.2475 23.3459 67.5831C24.3581 68.3323 25.988 69.0972 27.101 67.4244Z" fill="#389113"/>
<path d="M25.7683 68.3933C25.7732 69.3776 25.8261 70.4418 25.9437 71.588C25.4939 71.9431 25.5515 71.5836 25.5515 71.5836C25.3957 70.4848 25.3237 69.4266 25.3174 68.4218C25.4688 68.4304 25.6198 68.4219 25.7683 68.3933Z" fill="#389113"/>
<path d="M24.1601 72.4791C24.0026 72.0713 20.3527 62.436 24.4856 57.716C26.3261 55.6137 28.1716 55.7347 29.2856 56.5491C30.5824 57.4974 31.2251 59.6343 30.056 61.569C28.4536 64.2202 27.07 66.51 27.4012 72.0869L26.4363 72.1443C26.0871 66.2672 27.613 63.7422 29.2286 61.0689C30.111 59.6086 29.6604 58.0208 28.715 57.3295C27.7198 56.6022 26.4111 56.9845 25.2128 58.3527C21.4647 62.6334 25.0256 72.0367 25.0621 72.1312L24.1601 72.4791Z" fill="#181558"/>
<path d="M27.7665 58.4716C27.4022 58.3977 24.4806 64.0268 25.5524 71.5837C25.5524 71.5837 25.4941 71.9432 25.9433 71.5873C25.0052 62.4054 28.1309 58.5456 27.7665 58.4716Z" fill="#C2FFAB"/>
<path d="M25.7683 68.3933C25.7732 69.3776 25.8261 70.4418 25.9437 71.588C25.4939 71.9431 25.5515 71.5836 25.5515 71.5836C25.3957 70.4848 25.3237 69.4266 25.3174 68.4218C25.4688 68.4304 25.6198 68.4219 25.7683 68.3933Z" fill="#8ED372"/>
<path d="M21.9547 71.0631C21.0793 72.211 23.8378 72.4282 26.2363 71.602C28.6789 70.7606 30.7343 69.4407 29.4278 68.8557C29.4278 68.8557 36.4382 71.7202 26.6682 74.3734C17.7031 76.808 21.9547 71.0631 21.9547 71.0631Z" fill="#FF7C1A"/>
<path d="M21.9576 71.0631C21.8982 71.2277 21.8506 71.4592 21.9968 71.563C22.4654 71.7973 23.1023 71.6558 23.633 71.5941C24.4231 71.4678 25.208 71.2694 25.9585 71.017C27.0845 70.6074 28.2934 70.2454 29.3175 69.6395C29.4719 69.5394 29.6061 69.4242 29.6554 69.3145C29.7214 69.2043 29.5988 69.0016 29.4308 68.8557C29.5433 68.8664 29.6555 68.8941 29.768 68.9559C30.1919 69.1974 30.0163 69.7712 29.778 70.0837C28.9214 71.1921 27.6346 71.7846 26.3669 72.2386C25.4959 72.5229 24.5865 72.6543 23.6686 72.5967C23.0184 72.5285 22.0388 72.4158 21.6933 71.7443C21.5771 71.4664 21.745 71.2026 21.9576 71.0631Z" fill="#181558"/>
<path d="M42.8867 81.5322C42.8867 80.0801 41.9697 76.7875 39.7011 77.4332C38.0168 77.9126 36.7251 80.3154 37.4612 81.2629C38.1848 82.1944 39.7704 82.2859 40.7805 80.8282" fill="white"/>
<path d="M42.5681 81.5324C42.3825 80.3948 41.6119 77.8629 40.1574 78.0211C39.2544 78.1539 38.425 79.0991 38.0897 79.9418C37.9736 80.2621 37.8766 80.5715 37.9916 80.8491C38.3876 81.4216 39.2521 81.4531 39.8582 81.1131C40.0854 80.9935 40.3101 80.826 40.5315 80.6344C40.7878 80.4057 41.1872 80.7039 41.0491 81.0119C40.6208 82.0785 39.3877 82.7977 38.236 82.4987C35.6694 81.7747 36.4676 79.0306 37.9853 77.6581C39.1994 76.5036 41.0686 76.2479 42.1834 77.6805C42.6483 78.2674 42.8942 78.9142 43.0585 79.5583C43.2095 80.2074 43.2848 80.8595 43.2127 81.5325C43.1935 81.7103 43.0339 81.839 42.856 81.8199C42.701 81.8035 42.5846 81.6803 42.5681 81.5324Z" fill="#181558"/>
<path d="M86.8982 76.9894C88.1367 76.9894 89.1407 75.9854 89.1407 74.7469C89.1407 73.5084 88.1367 72.5044 86.8982 72.5044C85.6597 72.5044 84.6558 73.5084 84.6558 74.7469C84.6558 75.9854 85.6597 76.9894 86.8982 76.9894Z" fill="#FF8080"/>
<path d="M87.0843 71.8245C87.4157 71.4932 87.4157 70.956 87.0843 70.6247C86.753 70.2933 86.2158 70.2933 85.8845 70.6247C85.5531 70.956 85.5531 71.4932 85.8845 71.8245C86.2158 72.1559 86.753 72.1559 87.0843 71.8245Z" fill="#FF8080"/>
<path d="M90.99 74.2639C91.2071 73.8486 91.0465 73.336 90.6312 73.1188C90.216 72.9017 89.7033 73.0623 89.4862 73.4775C89.269 73.8928 89.4296 74.4055 89.8449 74.6226C90.2602 74.8397 90.7728 74.6791 90.99 74.2639Z" fill="#FF8080"/>
<path d="M89.7002 72.3552C90.0757 71.9573 90.0575 71.3303 89.6596 70.9548C89.2617 70.5793 88.6347 70.5975 88.2592 70.9954C87.8837 71.3933 87.9019 72.0203 88.2998 72.3958C88.6978 72.7713 89.3247 72.7531 89.7002 72.3552Z" fill="#FF8080"/>
</g>
<rect x="0.5" y="0.5" width="124" height="124" stroke="black"/>
<defs>
<clipPath id="clip0_4_5743">
<rect width="125" height="125" fill="white"/>
</clipPath>
</defs>
</svg>
