<svg width="125" height="125" viewBox="0 0 125 125" fill="none" xmlns="http://www.w3.org/2000/svg">
<g clip-path="url(#clip0_17_1032)">
<path d="M125 0H0V125H125V0Z" fill="#66FEFF"/>
<g opacity="0.2118">
<path d="M61.282 111.094C76.5059 111.094 88.8473 109.856 88.8473 108.328C88.8473 106.801 76.5059 105.562 61.282 105.562C46.0581 105.562 33.7167 106.801 33.7167 108.328C33.7167 109.856 46.0581 111.094 61.282 111.094Z" fill="#6B1952"/>
</g>
<path d="M45.1405 89.6434L44.8008 97.3248L44.602 101.823C39.3758 106.167 30.0453 104.609 26.8865 98.4098C23.7277 92.2108 26.0916 84.2073 26.8865 80.5533C27.6814 76.8993 26.0563 74.0145 24.6187 71.851C23.1812 69.6874 22.5353 66.4373 23.9857 62.857C24.2454 62.2159 24.638 61.5829 25.1364 60.9899C28.167 57.384 35.1192 55.2268 39.9688 61.4595C45.6165 68.7163 41.7157 81.6078 41.7157 85.4542C41.7157 89.3021 45.1405 89.6434 45.1405 89.6434Z" fill="#F77D48"/>
<path d="M25.2742 72.6013C25.2742 72.6013 30.5587 61.4541 40.6625 62.855C40.6625 62.855 43.421 65.2049 43.0113 74.7065C43.0113 74.7065 33.4402 71.4623 27.0445 77.3117C27.0445 77.3117 27.3807 74.9663 25.2742 72.6013Z" fill="#A33C34"/>
<path d="M41.981 83.5685C41.981 83.5685 31.7502 80.2231 25.9968 84.7353C25.9968 84.7353 23.4898 94.6538 28.3086 100.476C28.3086 100.476 29.983 88.064 41.7159 87.1851C41.7159 87.1851 41.5475 84.7651 41.981 83.5685Z" fill="#A33C34"/>
<path d="M43.0529 88.7426C43.0529 88.7426 36.8202 94.6758 38.0983 104.288C38.0983 104.288 42.0796 104.111 44.6233 101.882L45.141 89.6505C45.141 89.6505 44.1247 89.7642 43.0529 88.7426Z" fill="#A33C34"/>
<g opacity="0.2">
<path d="M44.8008 97.3248L44.7976 97.405L44.602 101.823C43.3007 102.905 41.743 103.622 40.0906 103.99C35.568 104.324 30.7649 102.255 28.6718 98.147C25.5131 91.948 27.8769 83.9444 28.6718 80.2905C29.4667 76.6364 27.8417 73.7517 26.4041 71.5882C25.0547 69.5576 24.404 66.5719 25.5259 63.2544C25.6252 63.5974 25.7438 63.9323 25.8849 64.2513C27.2759 67.3909 33.4397 70.6073 32.9076 79.6622C32.3755 88.7171 30.1414 92.65 34.1544 95.6726C36.637 97.5412 39.9207 98.3185 44.0411 97.4932C44.2911 97.4435 44.5444 97.3873 44.8008 97.3248Z" fill="#39005E"/>
</g>
<g opacity="0.6">
<path d="M45.1405 89.6434L44.8008 97.3248L44.602 101.823C44.2158 102.144 43.8087 102.432 43.3824 102.689L43.5539 98.8025L43.8937 91.121C43.8937 91.121 41.0917 90.4019 41.0917 86.554C41.0917 82.7077 44.3697 70.1938 38.722 62.9371C34.2138 57.142 27.8866 58.6003 24.5835 61.7319C24.7486 61.4787 24.9329 61.2319 25.1364 60.9899C28.167 57.3839 35.1192 55.2268 39.9688 61.4595C45.6165 68.7162 41.7157 81.6078 41.7157 85.4541C41.7157 89.3021 45.1405 89.6434 45.1405 89.6434Z" fill="white"/>
</g>
<path d="M37.3557 104.931C36.4335 104.931 35.4974 104.837 34.5651 104.645C30.8584 103.882 27.8516 101.715 26.3157 98.701C23.3616 92.9042 25.0705 85.5565 25.9885 81.609C26.0897 81.1735 26.1826 80.7742 26.2604 80.4169C26.9713 77.1489 25.6346 74.5392 24.0842 72.2057C22.2772 69.4862 22.0249 65.9909 23.3918 62.6158C24.5272 59.8124 27.8235 57.4335 31.2298 56.9594C34.7501 56.4695 38.0329 57.9276 40.4746 61.065C45.0134 66.8971 43.6236 76.1751 42.7933 81.7184C42.5592 83.2817 42.3569 84.6318 42.3569 85.4546C42.3569 88.6008 44.916 88.9738 45.2078 89.006C45.5435 89.043 45.7963 89.3346 45.7813 89.6719L45.2424 101.853C45.2344 102.033 45.1507 102.202 45.0117 102.317C42.9644 104.019 40.2287 104.931 37.3557 104.931ZM32.5707 58.1479C32.159 58.1479 31.7689 58.1789 31.4066 58.2293C28.0288 58.6994 25.4157 61.0339 24.5802 63.0971C22.8682 67.3243 24.4097 70.379 25.152 71.4961C26.7766 73.9412 28.3277 76.9457 27.5132 80.6894C27.4343 81.0522 27.3401 81.4575 27.2373 81.8994C26.2944 85.9535 24.7163 92.739 27.4579 98.1189C28.816 100.784 31.5007 102.705 34.8237 103.389C38.1795 104.08 41.5763 103.376 43.9744 101.507L44.476 90.1697C43.0497 89.7911 41.075 88.4959 41.075 85.4546C41.075 84.5363 41.2737 83.2089 41.5255 81.5285C42.3254 76.1883 43.6641 67.2507 39.4629 61.8525C37.1722 58.9091 34.6087 58.1479 32.5707 58.1479Z" fill="#6B1952"/>
<path d="M81.5156 105.857C81.3521 108.058 77.2766 108.32 72.879 108.058C68.4829 107.795 65.712 106.878 66.5021 100.567C66.5021 100.567 65.5773 97.6614 63.0628 96.0075C63.0628 96.0075 61.7567 96.0075 59.8768 96.0075C59.8768 96.0075 59.4488 101.317 55.8029 102.79C55.8029 102.79 57.8527 103.655 57.8446 105.857C57.8366 108.058 53.8813 108.595 49.8715 108.058C47.397 107.726 44.6902 108.279 43.2574 105.755C42.3695 104.191 41.9721 101.442 42.424 96.5668C42.424 96.5668 39.0841 83.4412 46.9146 65.9853C47.7608 64.0926 48.7416 62.1486 49.8715 60.1661L75.8342 62.8409C75.8342 62.8409 76.7108 65.583 77.7605 69.6746C79.5154 76.5178 81.7463 87.1337 81.1405 94.9898C80.9177 97.8697 80.3135 100.379 79.166 102.197C79.1661 102.197 81.6806 103.655 81.5156 105.857Z" fill="#F77D48"/>
<path d="M52.6566 108.887C51.4283 108.887 50.3392 108.767 49.7865 108.693C49.263 108.623 48.7088 108.593 48.1728 108.564C46.3964 108.469 44.5594 108.371 43.2474 106.852C41.7661 105.138 41.2978 101.883 41.7754 96.6145C41.6103 95.9059 40.7896 92.0015 41.1763 85.929C41.5622 79.8708 43.2874 70.4283 49.3146 59.8487C49.4404 59.628 49.6843 59.5024 49.9373 59.5283L75.9004 62.2027C76.1537 62.2288 76.3677 62.4024 76.4453 62.6449C76.4691 62.7194 78.8468 70.1878 80.4375 78.7507C82.505 89.8805 82.3638 97.6974 80.0204 102.005C80.8407 102.626 82.2971 104.007 82.1555 105.904C81.9329 108.893 76.733 108.93 72.8411 108.697C70.1806 108.538 68.1556 108.128 66.9205 106.641C65.8575 105.362 65.5156 103.452 65.8479 100.639C65.6497 100.108 64.763 97.9778 62.8651 96.6481H60.4419C60.2335 97.9819 59.4907 101.214 57.0605 102.844C57.7323 103.411 58.4904 104.379 58.4852 105.859C58.4828 106.543 58.1933 107.155 57.6481 107.631C56.4954 108.636 54.431 108.887 52.6566 108.887ZM50.2231 60.8465C44.4978 71.04 42.839 80.1088 42.4598 85.9494C42.0438 92.3562 43.0348 96.3701 43.0449 96.4097C43.0627 96.4804 43.0686 96.5539 43.0618 96.6264C42.6089 101.519 42.9869 104.59 44.2176 106.014C45.1729 107.12 46.5949 107.196 48.2414 107.284C48.8024 107.314 49.3824 107.345 49.9566 107.422C53.106 107.843 55.7942 107.546 56.8055 106.664C57.0757 106.429 57.2021 106.171 57.2032 105.854C57.2093 104.121 55.6176 103.408 55.5499 103.378C55.3131 103.275 55.1598 103.039 55.1633 102.781C55.1668 102.523 55.3232 102.291 55.5627 102.195C58.7933 100.891 59.234 96.0042 59.2382 95.9549C59.2656 95.6225 59.5435 95.366 59.877 95.366H63.0621C63.1873 95.366 63.3098 95.4026 63.4145 95.4715C66.088 97.2306 67.0727 100.245 67.1133 100.372C67.1415 100.461 67.1501 100.554 67.1385 100.647C66.8272 103.132 67.0784 104.825 67.9067 105.822C68.8471 106.954 70.59 107.278 72.9176 107.417C79.7083 107.823 80.8192 106.584 80.877 105.809C81.0087 104.042 78.8641 102.763 78.8425 102.75C78.6926 102.663 78.5841 102.517 78.5431 102.348C78.5021 102.18 78.5307 102.001 78.6234 101.854C84.1664 93.0833 76.4385 66.9844 75.3483 63.4347L50.2231 60.8465Z" fill="#6B1952"/>
<path d="M56.2579 60.8568C56.2579 60.8568 48.4312 72.0406 49.2754 79.6624C50.1197 87.2841 57.1838 90.5791 62.9904 90.8774C67.7214 91.1204 75.3192 88.5772 75.8575 80.0704C76.4932 70.0225 70.5919 62.3084 70.5919 62.3084L56.2579 60.8568Z" fill="white"/>
<g opacity="0.2">
<path d="M77.7606 69.6746C74.3694 70.5897 70.608 71.0993 66.6479 71.0993C58.8672 71.0993 51.854 69.1329 46.9147 65.9853C47.7609 64.0926 48.7417 62.1486 49.8715 60.1661L75.8342 62.8409C75.8342 62.8409 76.7108 65.5831 77.7606 69.6746Z" fill="#39005E"/>
</g>
<path fill-rule="evenodd" clip-rule="evenodd" d="M76.7427 89.4334C76.7427 89.4334 74.6961 92.5454 69.7215 94.2195C68.2758 94.7061 66.5847 95.067 64.6213 95.2122C63.542 95.292 62.3808 95.3149 61.1327 95.2429C58.3114 95.1181 56.0617 94.5025 54.2942 93.722C50.4002 92.0024 48.8642 89.4601 48.8642 89.4601C48.763 89.2806 48.5351 89.217 48.3556 89.3181C48.176 89.4192 48.1124 89.6472 48.2136 89.8266C48.2136 89.8266 49.7213 92.6812 53.8491 94.6829C55.6946 95.5777 58.0689 96.2883 61.0588 96.5056C62.3693 96.5834 63.5894 96.5747 64.7216 96.479C66.802 96.3034 68.5886 95.8666 70.1051 95.3036C75.3888 93.3422 77.423 89.8535 77.423 89.8535C77.5389 89.6657 77.4807 89.4192 77.2929 89.3032C77.1052 89.1874 76.8585 89.2456 76.7427 89.4334Z" fill="#6B1952"/>
<path fill-rule="evenodd" clip-rule="evenodd" d="M79.6263 101.666C79.6263 101.666 78.4957 101.151 76.3954 101.316C75.2184 101.408 73.7217 101.706 71.9364 102.455C71.7672 102.517 71.6806 102.706 71.7434 102.875C71.8061 103.045 71.9946 103.131 72.1638 103.068C73.5444 102.621 74.7301 102.425 75.7188 102.365C77.9269 102.231 79.0756 102.824 79.0756 102.824C79.3952 102.976 79.7779 102.84 79.9299 102.521C80.0818 102.201 79.9457 101.818 79.6263 101.666Z" fill="#6B1952"/>
<path fill-rule="evenodd" clip-rule="evenodd" d="M56.2882 102.359C56.2882 102.359 55.152 101.81 53.4068 101.872C52.6043 101.901 51.672 102.047 50.6627 102.451C50.4915 102.508 50.3987 102.694 50.4559 102.865C50.5132 103.036 50.6986 103.129 50.8697 103.072C51.8149 102.817 52.6638 102.781 53.3846 102.84C54.8114 102.957 55.6897 103.492 55.6897 103.492C56.0025 103.658 56.3907 103.538 56.5559 103.225C56.7211 102.912 56.6012 102.524 56.2882 102.359Z" fill="#6B1952"/>
<path d="M95.2293 55.6579C95.2293 55.6579 95.2101 55.7172 95.17 55.8214C94.928 56.44 93.8943 58.6068 91.3301 58.6068C91.3301 58.6068 91.6538 58.9401 91.9183 59.6244V59.626C92.1891 60.3328 92.3958 61.4114 92.1202 62.8842C92.101 62.9964 92.0769 63.1118 92.0497 63.2287C92.0497 63.2287 88.7402 61.8569 86.628 63.2287C84.5173 64.6006 78.7254 68.6937 66.3034 67.5158C56.8879 66.6232 47.8458 63.7512 44.8329 60.1661C41.8199 56.581 38.8534 54.5553 36.2636 56.581C36.2636 56.581 36.262 56.5618 36.2588 56.5233C36.2283 56.0073 36.0905 52.1546 38.8534 50.1737C38.8534 50.1737 35.8918 50.3051 34.9013 45.728C34.9013 45.728 34.9847 45.7456 35.1417 45.7504C35.9222 45.7744 38.5361 45.486 41.8199 41.1524C41.8199 41.1524 41.7991 40.4104 41.8215 39.1668C41.8215 39.1668 41.8215 39.1652 41.8215 39.1604C41.8984 34.9471 42.4818 24.9899 46.0989 18.4367C46.8906 16.9976 48.5173 16.2315 50.1311 16.5392C52.6169 17.0088 56.6363 18.5697 61.4858 23.3568C61.4858 23.3568 69.9846 22.0747 76.2622 25.7768C76.2622 25.7768 87.5896 18.3726 92.0497 22.0747C96.0115 25.3633 91.9728 35.5897 89.9823 43.058C89.7323 43.9987 89.5128 44.8946 89.3477 45.728C89.3476 45.728 89.5688 54.012 95.2293 55.6579Z" fill="#F77D48"/>
<g opacity="0.6">
<path d="M89.9823 43.058C89.8413 43.1686 89.7595 43.2343 89.7467 43.2439C92.4567 36.2003 94.1395 24.7382 90.6377 22.884C87.1344 21.0298 77.8792 26.8634 77.8792 26.8634C77.4208 26.623 76.8294 26.4018 76.1403 26.1967C85.1071 31.7658 88.4069 43.0163 88.471 43.2407C83.2176 33.314 78.4257 25.9515 67.6912 24.7111C66.2313 24.5428 64.8273 24.5508 63.4843 24.6966C63.4875 24.7014 63.4875 24.7063 63.4891 24.7111C63.6254 25.3073 62.8273 25.998 61.7054 26.256C60.5836 26.5124 59.5643 26.2368 59.4264 25.6406C59.4217 25.6165 59.4168 25.5925 59.4153 25.5685C52.33 27.8538 47.7993 33.3413 47.7064 33.4438C47.7881 33.314 52.1024 26.53 59.8352 24.046C59.5387 24.0283 59.3752 24.0203 59.3752 24.0203C59.3752 24.0203 52.5496 17.2332 48.7048 18.0409C44.9018 18.8422 41.884 38.7502 41.8215 39.1604C41.8985 34.9471 42.4818 24.9899 46.099 18.4367C46.8907 16.9976 48.5174 16.2315 50.1312 16.5392C52.6169 17.0088 56.6363 18.5697 61.4859 23.3568C61.4859 23.3568 63.151 23.1052 65.5518 23.1469C65.5854 23.1469 65.6191 23.1485 65.6543 23.1485C66.1335 23.1581 66.64 23.1805 67.1688 23.2174C67.1913 23.2174 67.2153 23.2206 67.2378 23.2222C70.0215 23.4257 73.3758 24.0748 76.2622 25.7768C76.2622 25.7768 87.5896 18.3726 92.0497 22.0747C96.0114 25.3633 91.9728 35.5897 89.9823 43.058Z" fill="white"/>
</g>
<path d="M65.7188 67.4646C69.2917 67.8345 79.6841 68.1906 84.4127 64.5236C89.1413 60.8568 87.9282 56.2029 85.983 55.1705C83.939 54.0857 81.141 54.8642 78.0326 54.2514C74.9245 53.6385 72.7629 49.7126 67.8493 49.218C62.9849 48.7282 61.5096 50.9025 58.8315 50.9025C53.5764 50.9025 50.9481 47.7721 47.1351 49.218C42.6928 50.9025 41.7321 58.7862 48.3204 62.4736C54.9085 66.161 61.2062 66.9976 65.7188 67.4646Z" fill="white"/>
<path d="M68.0187 49.2936C63.9654 48.8364 61.8693 50.4088 59.8275 51.0228C57.7858 51.637 54.6665 52.0231 53.4056 55.1902C51.892 58.9913 54.3057 66.6913 65.6465 67.6854C76.9876 68.6797 80.7526 60.6242 79.6633 57.6355C78.7721 55.1902 77.462 54.845 75.3442 52.9338C73.2265 51.0229 71.7282 49.7121 68.0187 49.2936Z" fill="#A33C34"/>
<g opacity="0.2">
<path d="M92.1202 62.8842C92.101 62.9964 92.0769 63.1118 92.0497 63.2288C92.0497 63.2288 88.7402 61.8569 86.628 63.2288C84.5173 64.6006 78.7254 68.6938 66.3034 67.5158C56.8879 66.6232 47.8458 63.7513 44.8329 60.1662C41.8199 56.5811 38.8534 54.5553 36.2636 56.5811C36.2636 56.5811 36.262 56.5618 36.2588 56.5234C36.919 55.3134 38.089 53.7861 39.8823 53.4832C42.9353 52.9672 51.3476 64.1198 66.2537 64.1583C81.1582 64.1968 85.5847 59.5379 87.6472 59.4979C89.2851 59.4658 91.0496 60.4979 92.1202 62.8842Z" fill="#6B1952"/>
</g>
<g opacity="0.2">
<path d="M92.1202 62.8842C92.101 62.9964 92.0769 63.1118 92.0497 63.2288C92.0497 63.2288 88.7402 61.8569 86.628 63.2288C84.5173 64.6006 78.7254 68.6938 66.3034 67.5158C56.8879 66.6232 47.8458 63.7513 44.8329 60.1662C41.8199 56.5811 38.8534 54.5553 36.2636 56.5811C36.2636 56.5811 36.262 56.5618 36.2588 56.5234C36.919 55.3134 38.089 53.7861 39.8823 53.4832C42.9353 52.9672 51.3476 64.1198 66.2537 64.1583C81.1582 64.1968 85.5847 59.5379 87.6472 59.4979C89.2851 59.4658 91.0496 60.4979 92.1202 62.8842Z" fill="#6B1952"/>
</g>
<path d="M70.573 68.3656C69.2247 68.3656 67.7831 68.3 66.2425 68.154C56.1478 67.1976 47.3466 64.1531 44.3419 60.5784C40.0226 55.4398 37.8882 56.1244 36.6586 57.0859C36.4733 57.2308 36.2238 57.2627 36.0082 57.169C35.7926 57.0753 35.6455 56.8712 35.625 56.637C35.6103 56.469 35.332 52.937 37.5053 50.5244C36.3992 50.0653 34.9284 48.8853 34.2745 45.8639C34.2285 45.6516 34.2933 45.4304 34.4465 45.2763C34.5972 45.1246 34.8136 45.058 35.0233 45.0991C35.0879 45.1092 37.6778 45.4599 41.1734 40.941C41.1388 39.0046 41.0888 26.1876 45.5377 18.1272C46.4652 16.4407 48.3592 15.5494 50.2511 15.9097C52.8086 16.3934 56.8591 17.9642 61.7111 22.681C63.3278 22.4844 70.5154 21.8412 76.2444 25.0278C78.2211 23.792 88.0858 17.952 92.4595 21.5817C96.0653 24.5743 93.8735 32.0071 91.7537 39.1951C91.0478 41.5891 90.3805 43.8519 89.9922 45.7783C90.0311 46.5462 90.5247 53.6217 95.4084 55.042C95.5733 55.09 95.7121 55.2021 95.7937 55.3533C95.8752 55.5045 95.8927 55.6821 95.8421 55.8462C95.5304 56.8584 94.4436 58.6465 92.4011 59.1265C92.7866 59.9737 93.1316 61.3817 92.6749 63.3725C92.6327 63.5565 92.5117 63.7125 92.344 63.799C92.1763 63.8855 91.979 63.8937 91.8047 63.8214C91.7753 63.8095 88.7775 62.5977 86.9776 63.7669L86.7683 63.9035C84.7904 65.1976 79.9477 68.3655 70.573 68.3656ZM38.4471 55.1387C41.4445 55.1387 44.2427 58.4678 45.3234 59.7535C48.0822 63.0357 56.7343 65.9652 66.3635 66.8777C78.1701 67.9969 83.9067 64.2434 86.0665 62.8305L86.2794 62.6916C88.019 61.5618 90.37 62.0295 91.5538 62.3817C91.8524 60.1456 90.9091 59.0963 90.8649 59.0485C90.6915 58.8617 90.6426 58.5869 90.7446 58.3533C90.8466 58.1197 91.0745 57.9658 91.3294 57.9658C93.0686 57.9658 93.9732 56.776 94.3673 56.0371C88.9874 53.8703 88.7167 46.0888 88.7077 45.7455C88.7063 45.6978 88.7104 45.6502 88.7197 45.6034C89.117 43.604 89.8004 41.2862 90.5241 38.8325C92.4331 32.3589 94.5968 25.0216 91.6408 22.5683C88.2834 19.7822 79.6543 24.3269 76.6127 26.3132C76.4086 26.4465 76.1466 26.4527 75.9364 26.3288C69.9343 22.7898 61.6641 23.979 61.5812 23.9916C61.381 24.021 61.1791 23.9556 61.0355 23.8138C56.3136 19.1522 52.4346 17.6275 50.0121 17.1693C48.6666 16.9133 47.3203 17.5468 46.6607 18.7459C42.1081 26.9942 42.4561 40.9929 42.4602 41.1333C42.4643 41.2794 42.4186 41.4224 42.3304 41.5389C39.466 45.32 37.0111 46.1886 35.7249 46.3553C36.6958 49.5375 38.7449 49.5364 38.833 49.5325C39.1157 49.5197 39.3707 49.6952 39.4635 49.9634C39.5564 50.2315 39.4581 50.5289 39.2276 50.6942C37.4531 51.9662 37.0121 54.1475 36.9147 55.4512C37.4261 55.2342 37.9396 55.1387 38.4471 55.1387Z" fill="#6B1952"/>
<path d="M68.2215 48.9298C73.3005 49.5862 76.9832 53.531 76.4402 57.7334C75.8972 61.9358 71.3325 64.8148 66.2534 64.1585C61.1742 63.5021 57.4915 59.5571 58.0347 55.3547C58.5778 51.1523 63.1422 48.2734 68.2215 48.9298Z" fill="white"/>
<path d="M65.1407 51.0245C65.5811 50.3653 70.6815 51.0136 70.9951 51.8367C71.3086 52.6596 68.809 54.2983 67.6958 54.1762C66.5826 54.0541 64.6349 51.7817 65.1407 51.0245Z" fill="#6B1952"/>
<path d="M70.1669 58.2046C68.8403 58.2046 67.6708 57.3256 67.1058 56.8178C66.212 57.2321 64.1542 57.963 62.6033 56.8142C60.6289 55.3518 61.0211 53.0678 61.0388 52.9713C61.1026 52.6231 61.4362 52.3925 61.7848 52.4562C62.1321 52.5198 62.3624 52.852 62.3005 53.1992C62.2877 53.2755 62.0498 54.8087 63.3664 55.7839C64.6783 56.7555 66.8785 55.4975 66.9007 55.4847C67.1623 55.3327 67.4959 55.3838 67.699 55.6082C67.7101 55.6203 68.9136 56.9225 70.1669 56.9225C71.1105 56.9225 71.988 55.9347 72.2156 55.0122C72.3004 54.6684 72.6482 54.4588 72.9915 54.5433C73.3353 54.6282 73.5451 54.9755 73.4604 55.3192C73.1105 56.7376 71.7829 58.2046 70.1669 58.2046Z" fill="#6B1952"/>
<path d="M63.8918 56.708C64.0165 58.5288 64.4817 61.5269 66.1233 61.754C67.7662 61.9813 69.0845 59.2316 69.7329 57.522C68.3571 57.2903 67.2238 56.0383 67.2238 56.0383C67.2238 56.0383 65.4515 57.0771 63.8918 56.708Z" fill="#6B1952"/>
<path d="M66.3214 62.4089C66.2274 62.4089 66.1321 62.4023 66.0354 62.389C64.0353 62.1122 63.4179 59.1707 63.2522 56.7518C63.2383 56.5487 63.3218 56.3509 63.4771 56.2192C63.6324 56.0874 63.8411 56.0373 64.0394 56.0842C65.3243 56.3886 66.885 55.4937 66.9006 55.4847C67.1623 55.3325 67.4959 55.3838 67.699 55.6081C67.7081 55.618 68.7062 56.6991 69.8393 56.8899C70.0285 56.9218 70.1935 57.0367 70.289 57.2031C70.3844 57.3695 70.4003 57.57 70.3322 57.7494C69.5135 59.908 68.1664 62.4089 66.3214 62.4089ZM64.5993 57.4276C64.8428 59.6202 65.4411 61.0124 66.2112 61.119C66.9937 61.2256 67.9927 60.0256 68.8739 57.9429C68.1092 57.6449 67.4768 57.1509 67.1056 56.8174C66.569 57.0654 65.6122 57.4276 64.5999 57.4276C64.5997 57.4276 64.5996 57.4276 64.5993 57.4276Z" fill="#6B1952"/>
<path d="M64.3206 59.4056C64.8572 58.7052 65.8322 58.3412 66.8337 58.5506C67.6448 58.7203 68.2892 59.2279 68.6123 59.8726C67.9469 60.9881 67.0914 61.8879 66.1233 61.754C65.1907 61.6249 64.6378 60.6017 64.3206 59.4056Z" fill="#FF6294"/>
<path d="M66.3249 62.4091C66.229 62.4091 66.1324 62.4024 66.0354 62.389C64.9425 62.2378 64.1571 61.2894 63.701 59.57C63.6501 59.3781 63.691 59.1734 63.8117 59.0158C64.5147 58.0983 65.7527 57.6695 66.965 57.9232C67.9356 58.1262 68.7657 58.7476 69.1855 59.5855C69.2835 59.7811 69.275 60.0132 69.1629 60.2011C68.2878 61.6679 67.3345 62.4091 66.3249 62.4091ZM65.0372 59.5735C65.2449 60.2222 65.6206 61.0373 66.2111 61.119C66.8275 61.2042 67.4487 60.48 67.8552 59.8718C67.5822 59.5271 67.171 59.2761 66.7024 59.1781C66.0816 59.0483 65.4591 59.2023 65.0372 59.5735Z" fill="#6B1952"/>
<path fill-rule="evenodd" clip-rule="evenodd" d="M77.9807 43.8267C79.8067 43.691 81.4325 45.5137 81.6092 47.894C81.7859 50.2744 80.4471 52.317 78.6211 52.4526C76.7953 52.5882 75.1692 50.7658 74.9926 48.3852C74.8158 46.0049 76.1547 43.9623 77.9807 43.8267Z" fill="#6B1952"/>
<path fill-rule="evenodd" clip-rule="evenodd" d="M76.9232 45.3761C77.4406 45.3308 77.907 46.0294 77.9642 46.935C78.0215 47.8404 77.6478 48.6124 77.1304 48.6575C76.6131 48.7026 76.1466 48.0041 76.0894 47.0987C76.0321 46.1931 76.4058 45.4213 76.9232 45.3761Z" fill="white"/>
<g opacity="0.35">
<path fill-rule="evenodd" clip-rule="evenodd" d="M80.8258 48.1865C81.0933 48.2354 81.1305 48.8844 80.909 49.635C80.6876 50.3854 80.2905 50.9551 80.0231 50.906C79.7557 50.857 79.7184 50.208 79.9399 49.4576C80.1613 48.7071 80.5583 48.1376 80.8258 48.1865Z" fill="white"/>
</g>
<path d="M76.5121 38.9727C77.9198 38.5022 79.3401 38.95 79.6818 39.9724C80.0236 40.9947 79.1581 42.2066 77.7503 42.6772C76.3427 43.1477 74.9224 42.6998 74.5807 41.6775C74.2389 40.6552 75.1044 39.4432 76.5121 38.9727Z" fill="white"/>
<path d="M61.3984 37.4764C62.6828 38.2202 63.287 39.5814 62.7468 40.5142C62.2067 41.4469 60.7252 41.6003 59.4408 40.8565C58.1565 40.1126 57.5522 38.7515 58.0925 37.8188C58.6327 36.886 60.114 36.7326 61.3984 37.4764Z" fill="white"/>
<path d="M41.6972 41.8468C41.5648 41.8468 41.4312 41.8059 41.3164 41.7211C41.0318 41.5104 40.9718 41.1091 41.1823 40.8244C41.4485 40.4647 47.7355 31.98 50.7202 29.0255C54.2545 25.5269 57.8284 23.4689 61.6457 22.7338C61.9936 22.6668 62.3296 22.8944 62.3965 23.2421C62.4634 23.5898 62.2359 23.9258 61.8882 23.9928C58.3283 24.6783 54.9702 26.6226 51.6222 29.9367C48.7073 32.822 42.2776 41.4997 42.2131 41.587C42.0873 41.7569 41.8935 41.8468 41.6972 41.8468Z" fill="#6B1952"/>
<path d="M89.3257 46.5136C89.0496 46.5136 88.7947 46.3338 88.7117 46.0557C86.2905 37.9486 82.9142 32.9926 80.5081 30.2627C77.9067 27.3111 75.8498 26.2563 75.8294 26.246C75.5137 26.087 75.3856 25.7022 75.5437 25.3861C75.702 25.0701 76.0854 24.9414 76.4019 25.0988C76.4925 25.1439 78.6524 26.2385 81.4082 29.3452C83.9192 32.1757 87.4375 37.3088 89.9401 45.6889C90.0414 46.0281 89.8486 46.3852 89.5093 46.4866C89.4482 46.5049 89.3864 46.5136 89.3257 46.5136Z" fill="#6B1952"/>
<path d="M45.0696 36.7719C45.1908 31.9116 45.7772 22.0036 48.5309 20.6539C51.1717 19.3593 53.6338 23.7478 54.804 26.3096C53.5551 27.2281 52.3531 28.3111 51.1712 29.4811C49.6168 31.0197 47.1112 34.1367 45.0696 36.7719Z" fill="#FF7A8E"/>
<path d="M54.8044 26.3089C53.5544 27.2288 52.3524 28.3106 51.1713 29.4805C50.6744 29.9725 50.0815 30.6248 49.4356 31.3716C49.6728 27.7625 50.1761 23.5459 51.245 21.1019C52.7675 22.2638 54.0528 24.663 54.8044 26.3089Z" fill="#FF7A8E"/>
<g opacity="0.2">
<path d="M54.8044 26.3089C53.5544 27.2288 52.3524 28.3106 51.1713 29.4805C50.6744 29.9725 50.0815 30.6248 49.4356 31.3716C49.6728 27.7625 50.1761 23.5459 51.245 21.1019C52.7675 22.2638 54.0528 24.663 54.8044 26.3089Z" fill="#6B1952"/>
</g>
<path d="M80.8722 29.7043C80.8722 29.7043 87.5206 24.8895 89.3259 26.3387C91.6796 28.2282 86.9252 39.4055 86.9252 39.4055C86.9252 39.4055 85.5413 34.6326 80.8722 29.7043Z" fill="#FF7A8E"/>
<path d="M84.6343 34.6009C83.7256 33.1185 82.4996 31.4213 80.8729 29.7048C80.8729 29.7048 83.9388 27.4836 86.4725 26.5124C86.551 28.6824 85.5189 32.1024 84.6343 34.6009Z" fill="#FF7A8E"/>
<g opacity="0.2">
<path d="M84.6343 34.6009C83.7256 33.1185 82.4996 31.4213 80.8729 29.7048C80.8729 29.7048 83.9388 27.4836 86.4725 26.5124C86.551 28.6824 85.5189 32.1024 84.6343 34.6009Z" fill="#6B1952"/>
</g>
<path d="M45.0694 37.413C44.9977 37.413 44.925 37.4009 44.8546 37.3758C44.5936 37.2829 44.4218 37.0328 44.4287 36.7559C44.4915 34.2404 44.6727 30.5575 45.1796 27.2979C45.8271 23.1348 46.831 20.7731 48.2487 20.0783C48.9727 19.7233 49.7304 19.6826 50.5005 19.9579C52.5815 20.7017 54.3065 23.6777 55.3871 26.0432C55.5132 26.3193 55.4284 26.6461 55.1838 26.826C54.0864 27.6331 52.9214 28.6506 51.6222 29.9367C50.0402 31.5026 47.4612 34.7315 45.5763 37.1645C45.4525 37.3244 45.2638 37.413 45.0694 37.413ZM49.5047 21.0619C49.2703 21.0619 49.0411 21.1177 48.8131 21.2295C47.2476 21.9968 46.114 27.1401 45.7775 34.8261C47.4773 32.674 49.4146 30.3179 50.7202 29.0255C51.9011 27.8565 52.9798 26.8984 54.0031 26.1102C52.6987 23.3885 51.2776 21.5971 50.069 21.1652C49.8763 21.0964 49.6888 21.0619 49.5047 21.0619Z" fill="#6B1952"/>
<path d="M86.9254 40.0466C86.9125 40.0466 86.8996 40.0462 86.8867 40.0454C86.616 40.0291 86.3849 39.8444 86.3094 39.584C86.2961 39.5383 84.9015 34.8893 80.4068 30.1452C80.2798 30.0111 80.2167 29.8288 80.2339 29.6448C80.251 29.4609 80.3466 29.2934 80.4962 29.1851C80.5654 29.1349 82.2141 27.945 84.1168 26.9143C86.9093 25.4018 88.7445 25.0498 89.7272 25.8389C90.9595 26.8281 90.9264 29.3458 89.623 33.7622C88.7285 36.793 87.5271 39.6281 87.515 39.6564C87.414 39.894 87.181 40.0466 86.9254 40.0466ZM81.8397 29.806C84.6575 32.9247 86.2008 35.8997 86.9491 37.6459C88.8134 32.856 90.0267 27.7234 88.9245 26.8387C88.1284 26.1997 84.7456 27.8059 81.8397 29.806Z" fill="#6B1952"/>
<path d="M67.2242 56.6795C67.1721 56.6795 67.1191 56.6731 67.0662 56.6597C66.7231 56.5728 66.5154 56.224 66.6023 55.8808L67.0744 54.0187C67.1614 53.6755 67.5097 53.4681 67.8533 53.5548C68.1965 53.6418 68.4042 53.9905 68.3172 54.3338L67.8452 56.1959C67.7716 56.4862 67.5106 56.6795 67.2242 56.6795Z" fill="#6B1952"/>
<path d="M52.0845 46.3093C52.1622 45.7227 52.3373 45.184 52.5806 44.6511C52.8271 44.1233 53.1459 43.6113 53.5787 43.1566C54.0063 42.7045 54.5645 42.3026 55.2334 42.0897C55.5665 41.9815 55.9221 41.9356 56.2727 41.9313C56.6263 41.9268 56.9655 41.9946 57.2929 42.0778C57.629 42.1758 57.9571 42.3283 58.2581 42.5273C58.5576 42.7302 58.8127 42.9891 59.0234 43.2645C59.4455 43.8245 59.6503 44.4524 59.76 45.0509C59.8642 45.6528 59.8671 46.2427 59.8089 46.8135C59.78 47.0992 59.7354 47.3809 59.6724 47.6579C59.6116 47.937 59.5387 48.2037 59.4358 48.4812C59.38 48.6317 59.2128 48.7085 59.0624 48.6527C58.951 48.6114 58.8801 48.5092 58.8733 48.3979L58.8723 48.3812C58.81 47.3398 58.6888 46.2838 58.3835 45.3939C58.304 45.1732 58.2168 44.9643 58.1112 44.7761C58.011 44.5852 57.8928 44.4173 57.7626 44.2781C57.6348 44.1361 57.4936 44.0223 57.3426 43.9293C57.1889 43.839 57.0198 43.7758 56.839 43.7228C56.4464 43.6246 56.0771 43.6211 55.7109 43.7107C55.3474 43.8105 54.9715 43.9973 54.6144 44.2797C53.8903 44.8317 53.2425 45.6595 52.6231 46.5026L52.6097 46.5208C52.5142 46.6509 52.3312 46.6789 52.2011 46.5833C52.1122 46.518 52.0711 46.4115 52.0845 46.3093Z" fill="#6B184E"/>
<path d="M48.9035 71.1971C47.3297 76.7246 43.1645 75.7774 43.1645 75.7774C43.1645 75.7774 40.5442 81.7536 35.5936 78.8817C33.8532 77.8705 33.0455 76.2085 32.9237 74.3831C32.85 73.2725 33.0311 72.0994 33.4125 70.9791C34.3292 68.2819 36.4014 65.8812 38.8615 65.3186C38.8615 65.3186 40.4352 63.4147 41.7158 62.5108C42.9963 61.6085 42.7142 58.3536 44.6326 58.0779C45.4082 57.9674 45.9163 58.5523 46.2304 59.4065C46.6887 60.6646 46.7208 62.5076 46.5525 63.5573C46.5525 63.5573 46.9547 63.7737 47.4499 64.2513C47.4499 64.2513 47.4499 64.2513 47.4516 64.2513C48.5029 65.2625 49.9725 67.4405 48.9035 71.1971Z" fill="#F77D48"/>
<g opacity="0.6">
<path d="M46.2303 59.4065C45.8185 59.3055 45.3393 59.2174 44.9274 59.2174C43.9658 59.2174 44.4066 62.1246 43.0523 63.1791C41.6996 64.2321 39.8823 66.7722 39.8823 66.7722C39.8823 66.7722 34.733 67.963 32.9236 74.3831C32.8499 73.2725 33.0311 72.0994 33.4125 70.9791C34.3291 68.2819 36.4014 65.8812 38.8614 65.3186C38.8614 65.3186 40.4352 63.4147 41.7157 62.5108C42.9962 61.6085 42.7142 58.3536 44.6325 58.0779C45.4082 57.9674 45.9162 58.5523 46.2303 59.4065Z" fill="white"/>
</g>
<path d="M38.2035 80.3048C37.2501 80.3048 36.269 80.0148 35.2719 79.4363C32.967 78.0992 31.9096 75.5873 32.3709 72.5448C32.9303 68.8541 35.5461 65.5487 38.5054 64.7472C38.9262 64.2538 40.222 62.7808 41.3464 61.9874C41.7145 61.7277 41.9503 61.0047 42.1782 60.3055C42.5626 59.1264 43.0411 57.6591 44.5423 57.4439C45.1405 57.3578 45.6879 57.5474 46.1243 57.9915C47.2696 59.1573 47.3737 61.8274 47.2368 63.2457C48.2622 64.0001 50.9088 66.4935 49.5197 71.3728C48.1389 76.2226 44.8189 76.5354 43.5389 76.4636C43.0581 77.3571 41.7693 79.3821 39.662 80.0708C39.1844 80.2269 38.6976 80.3048 38.2035 80.3048ZM44.8167 58.706C44.787 58.706 44.7562 58.7084 44.7241 58.713C44.0606 58.8081 43.7801 59.5283 43.3972 60.7029C43.1043 61.6011 42.8016 62.5298 42.0855 63.0349C40.889 63.8792 39.3715 65.7088 39.3563 65.727C39.2663 65.836 39.1429 65.9121 39.0051 65.9437C36.4859 66.5196 34.1287 69.5036 33.6385 72.7369C33.2604 75.231 34.0902 77.2687 35.9152 78.3273C37.0999 79.0146 38.2265 79.1914 39.2637 78.8521C41.4015 78.1535 42.5662 75.5468 42.5776 75.5206C42.7011 75.2393 43.0076 75.0861 43.3068 75.153C43.4496 75.1838 46.9072 75.8668 48.2866 71.0219C49.6919 66.0857 46.3867 64.1986 46.2452 64.1208C46.0081 63.99 45.8757 63.7228 45.9189 63.4555C46.1363 62.1097 45.968 59.6621 45.2097 58.8901C45.0858 58.7639 44.9643 58.706 44.8167 58.706Z" fill="#6B1952"/>
<path fill-rule="evenodd" clip-rule="evenodd" d="M46.7658 62.9093C46.7658 62.9093 46.3487 62.7978 45.6643 62.9505C45.2844 63.0354 44.8257 63.1687 44.3058 63.4685C44.164 63.5217 44.092 63.6798 44.1452 63.8215C44.1983 63.9633 44.3565 64.0353 44.4983 63.9821C44.8967 63.9038 45.2321 63.9022 45.5231 63.9175C46.077 63.9462 46.3705 64.1289 46.3705 64.1289C46.707 64.238 47.0687 64.0534 47.1778 63.7168C47.287 63.3803 47.1024 63.0184 46.7658 62.9093Z" fill="#6B1952"/>
<path fill-rule="evenodd" clip-rule="evenodd" d="M43.6424 75.2305C43.6424 75.2305 42.866 75.0342 41.923 74.5189C41.4167 74.2422 40.8668 73.8899 40.36 73.4256C40.2582 73.3136 40.0846 73.3052 39.9725 73.407C39.8604 73.5088 39.8521 73.6824 39.9539 73.7945C40.4051 74.3935 40.9245 74.8808 41.4123 75.2784C42.3652 76.0552 43.2001 76.4339 43.2001 76.4339C43.5324 76.5561 43.901 76.3855 44.0231 76.0533C44.145 75.7212 43.9745 75.3526 43.6424 75.2305Z" fill="#6B1952"/>
<path d="M89.6906 80.2199C89.6457 80.6142 89.5656 81.0036 89.447 81.3882C89.2947 81.8819 89.1056 82.3162 88.8845 82.6912C86.3763 86.9686 79.8536 83.8483 79.6212 78.8833C79.6212 78.8833 76.5602 78.5612 75.1947 75.3223C74.0777 72.6763 74.9479 69.3332 76.9673 67.6504C76.9833 67.6376 77.0009 67.6248 77.0153 67.612C77.0762 67.5639 77.1227 67.527 77.15 67.5062C77.1676 67.4918 77.1788 67.4838 77.1804 67.4838L77.182 67.4821V67.4806C77.5762 67.1857 78.0122 66.9533 78.4801 66.7978C78.4801 66.7978 79.0491 63.6102 80.5267 62.7336C80.8216 62.5572 81.1533 62.4739 81.5236 62.5268C83.7496 62.8425 83.7496 67.7257 83.7496 67.7257C83.7496 67.7257 90.3973 74.3543 89.6906 80.2199Z" fill="#F77D48"/>
<g opacity="0.2">
<path d="M89.6906 80.2199C89.6457 80.6142 89.5656 81.0036 89.447 81.3882C89.2947 81.8819 89.1056 82.3162 88.8845 82.6912C86.3763 86.9686 79.8536 83.8483 79.6212 78.8833C79.6212 78.8833 76.5602 78.5612 75.1947 75.3223C74.0777 72.6763 74.9479 69.3332 76.9673 67.6504C76.9833 67.6376 77.0009 67.6248 77.0153 67.612C77.0762 67.5639 77.1227 67.527 77.15 67.5062C77.1676 67.4918 77.1788 67.4838 77.1804 67.4838C77.134 67.5895 75.8262 70.5977 77.8791 74.3831C79.9706 78.2375 84.4564 75.4264 84.4564 75.4264C84.4564 75.4264 85.2802 82.6816 89.6906 80.2199Z" fill="#6B1952"/>
</g>
<g opacity="0.6">
<path d="M89.447 81.3882C89.2947 81.8818 89.1056 82.3161 88.8845 82.6912C90.0706 75.3241 82.2239 68.0094 82.2239 68.0094C82.3441 65.3603 81.3633 63.6759 80.5267 62.7336C80.8216 62.5572 81.1534 62.4739 81.5236 62.5268C83.7496 62.8425 83.7496 67.7257 83.7496 67.7257C83.7496 67.7257 91.3188 75.2742 89.447 81.3882Z" fill="white"/>
</g>
<path d="M85.4808 85.3515C85.2611 85.3515 85.0368 85.3373 84.8076 85.3085C82.264 84.9885 79.4357 82.6733 79.024 79.4197C77.9999 79.1659 75.7587 78.3114 74.6036 75.5719C73.8298 73.737 73.8906 71.4895 74.7662 69.5602C75.4656 68.0189 76.5771 66.8826 77.9217 66.3229C78.1941 65.092 79.1954 61.549 81.6141 61.8921C84.058 62.2393 84.3521 66.2875 84.3857 67.4606C85.5865 68.713 91.8766 75.6436 90.0593 81.5762C89.3231 83.9799 87.6376 85.3514 85.4808 85.3515ZM81.3192 63.1533C80.1608 63.1533 79.3351 65.6541 79.1105 66.9113C79.0691 67.1429 78.9043 67.3332 78.681 67.407C77.5369 67.7857 76.5356 68.7637 75.9337 70.09C75.2033 71.6995 75.1477 73.5626 75.785 75.0738C76.9783 77.9038 79.5803 78.233 79.6906 78.2456C80.0028 78.2813 80.2461 78.5387 80.2609 78.8528C80.3949 81.7056 82.8085 83.7647 84.9677 84.0363C86.8017 84.2666 88.2108 83.2334 88.8335 81.2006C90.5709 75.5288 83.3691 68.2525 83.2962 68.1797C83.1757 68.0595 83.1079 67.8961 83.1079 67.7259C83.1062 66.3142 82.6949 63.3406 81.4338 63.1614C81.3953 63.1559 81.357 63.1533 81.3192 63.1533Z" fill="#6B1952"/>
<path fill-rule="evenodd" clip-rule="evenodd" d="M79.5232 79.4395C79.5232 79.4395 80.1944 79.719 81.3107 79.1281C81.794 78.8722 82.3889 78.4561 83.0588 77.7237C83.2032 77.5896 83.2115 77.3636 83.0774 77.2192C82.9434 77.075 82.7175 77.0666 82.573 77.2006C82.0395 77.621 81.576 77.882 81.1823 78.0517C80.379 78.3982 79.9707 78.238 79.9707 78.238C79.6393 78.1144 79.2697 78.2833 79.1463 78.6149C79.0227 78.9466 79.1917 79.3159 79.5232 79.4395Z" fill="#6B1952"/>
<g opacity="0.2">
<path d="M42.3872 47.8162C42.3872 47.8162 41.7996 50.7813 38.6442 50.5634C38.6442 50.5634 35.8917 50.3051 34.9013 45.728C34.9013 45.728 34.9846 45.7456 35.1417 45.7504C36.2106 46.954 38.339 48.297 42.3872 47.8162Z" fill="#6B1952"/>
</g>
<g opacity="0.2">
<path d="M91.3301 58.6068C91.3301 58.6068 91.6539 58.9401 91.9183 59.6244C89.8829 59.0411 89.3252 56.0378 89.3252 56.0378C91.7244 56.7173 93.8943 56.2557 95.17 55.8214C94.928 56.44 93.8943 58.6068 91.3301 58.6068Z" fill="#6B1952"/>
</g>
<g opacity="0.2">
<path d="M49.2082 71.1976C47.6344 76.7251 43.4692 75.7779 43.4692 75.7779C43.4692 75.7779 40.8489 81.7541 35.8983 78.8822C33.0985 77.2571 32.7107 73.9412 33.7172 70.9796C33.8742 70.7921 33.9672 70.6879 33.9672 70.6879C33.9672 70.6879 33.2123 76.802 36.5634 75.8756C39.9145 74.9493 39.6693 71.0325 39.6693 71.0325C46.9501 73.4365 47.7546 64.2517 47.7546 64.2517C47.7546 64.2517 47.7546 64.2517 47.7563 64.2517C48.8075 65.263 50.2772 67.441 49.2082 71.1976Z" fill="#6B1952"/>
</g>
<g opacity="0.2">
<path d="M81.6837 105.857C81.5202 108.058 77.4447 108.32 73.0471 108.058C68.6511 107.795 65.8801 106.878 66.6702 100.567C66.6702 100.567 65.7455 97.6614 63.231 96.0075C63.231 96.0075 61.9248 96.0075 60.0449 96.0075C60.0449 96.0075 59.617 101.317 55.971 102.79C55.971 102.79 58.0208 103.655 58.0128 105.857C58.0047 108.058 54.0495 108.595 50.0396 108.058C47.5652 107.726 44.8584 108.279 43.4256 105.755C45.6036 106.147 50.0028 106.845 52.2737 106.542C55.3636 106.13 56.1889 102.88 52.2737 102.186C52.2737 102.186 55.9822 97.5989 51.7577 92.9016C51.7577 92.9016 50.1182 91.3358 49.0316 89.4607C49.0316 89.4607 64.207 97.4787 76.9111 89.4335C76.9111 89.4335 75.7636 94.1773 69.9941 97.2688C69.9941 97.2688 70.7152 100.695 69.9941 103.567C69.9941 103.567 70.922 105.82 75.5568 105.716C80.1932 105.614 80.1612 102.777 74.8709 102.186C74.8709 102.186 80.0522 101.88 81.3071 94.9898C81.3071 94.9898 81.3071 94.9898 81.3087 94.9898C81.0859 97.8698 80.4817 100.38 79.3342 102.197C79.3343 102.197 81.8488 103.655 81.6837 105.857Z" fill="#39005E"/>
</g>
<path d="M26.7664 47.1421C26.7664 47.1421 26.2275 49.4219 24.4727 49.5187C26.2275 49.6154 26.7664 51.8953 26.7664 51.8953C26.7664 51.8953 27.3052 49.6154 29.06 49.5187C27.3052 49.422 26.7664 47.1421 26.7664 47.1421Z" fill="#FFD833"/>
<path d="M26.5338 47.1421L26.6282 45.6843C26.6331 45.608 26.699 45.5501 26.7753 45.555C26.8456 45.5596 26.9002 45.6158 26.9046 45.6843L26.999 47.1421C27.0073 47.2705 26.9099 47.3814 26.7815 47.3897C26.653 47.398 26.5421 47.3006 26.5338 47.1722C26.5332 47.1625 26.5332 47.1515 26.5338 47.1421Z" fill="#6B184E"/>
<path d="M26.642 53.353L26.5338 51.8953C26.5243 51.7668 26.6207 51.655 26.7491 51.6454C26.8776 51.6358 26.9894 51.7323 26.999 51.8607C26.9998 51.872 26.9997 51.8844 26.999 51.8953L26.8908 53.353C26.8857 53.4217 26.8259 53.4733 26.7572 53.4682C26.6947 53.4636 26.6464 53.4137 26.642 53.353Z" fill="#6B184E"/>
<path d="M24.4727 49.7513L23.3673 49.6569C23.291 49.6503 23.2345 49.5832 23.241 49.5069C23.2468 49.4386 23.3012 49.3861 23.3673 49.3805L24.4727 49.2861C24.6012 49.2752 24.7142 49.3704 24.7252 49.4988C24.7362 49.6273 24.6409 49.7403 24.5125 49.7513C24.4995 49.7524 24.4853 49.7523 24.4727 49.7513Z" fill="#6B184E"/>
<path d="M30.1655 49.6569L29.06 49.7513C28.9316 49.7623 28.8185 49.667 28.8076 49.5385C28.7966 49.4101 28.8919 49.2971 29.0203 49.2861C29.0333 49.285 29.0475 49.2851 29.06 49.2861L30.1655 49.3805C30.2418 49.387 30.2984 49.4541 30.2918 49.5305C30.286 49.5988 30.2315 49.6513 30.1655 49.6569Z" fill="#6B184E"/>
<path d="M26.7664 52.1276C26.6587 52.1276 26.565 52.0537 26.5401 51.949C26.535 51.9279 26.0182 49.8368 24.4599 49.751C24.3366 49.7442 24.2401 49.6422 24.2401 49.5187C24.2401 49.3953 24.3366 49.2933 24.4599 49.2865C26.0182 49.2006 26.535 47.1094 26.5401 47.0884C26.565 46.9836 26.6587 46.9098 26.7664 46.9098C26.874 46.9098 26.9677 46.9836 26.9926 47.0884C26.9977 47.1094 27.5146 49.2006 29.0729 49.2865C29.1961 49.2932 29.2927 49.3952 29.2927 49.5187C29.2927 49.6422 29.1962 49.7441 29.0729 49.751C27.5145 49.8368 26.9977 51.9279 26.9926 51.949C26.9677 52.0537 26.874 52.1276 26.7664 52.1276ZM25.3585 49.5187C26.0957 49.8929 26.5324 50.6364 26.7664 51.1825C27.0004 50.6364 27.4371 49.8929 28.1743 49.5187C27.4371 49.1444 27.0005 48.401 26.7664 47.8548C26.5324 48.401 26.0957 49.1444 25.3585 49.5187Z" fill="#6B184E"/>
<path d="M97.9165 38.9777C97.9165 38.9777 97.2641 41.7376 95.1398 41.8547C97.2642 41.9718 97.9165 44.7317 97.9165 44.7317C97.9165 44.7317 98.5688 41.9718 100.693 41.8547C98.5687 41.7376 97.9165 38.9777 97.9165 38.9777Z" fill="#FFD833"/>
<path d="M97.6349 38.9777L97.7491 37.2129C97.7551 37.1205 97.8349 37.0505 97.9273 37.0565C98.0124 37.062 98.0785 37.1301 98.0838 37.2129L98.198 38.9777C98.2081 39.1332 98.0902 39.2674 97.9347 39.2775C97.7792 39.2875 97.645 39.1696 97.6349 39.0141C97.6341 39.0023 97.6342 38.9891 97.6349 38.9777Z" fill="#6B184E"/>
<path d="M97.7659 46.4964L97.6349 44.7318C97.6234 44.5762 97.7401 44.4408 97.8956 44.4293C98.0511 44.4177 98.1865 44.5344 98.1981 44.6899C98.1991 44.7035 98.199 44.7186 98.1981 44.7318L98.0671 46.4964C98.0609 46.5796 97.9885 46.642 97.9053 46.6359C97.8297 46.6303 97.7713 46.5699 97.7659 46.4964Z" fill="#6B184E"/>
<path d="M95.1398 42.1363L93.8017 42.022C93.7093 42.0141 93.6408 41.9328 93.6487 41.8404C93.6558 41.7577 93.7217 41.6942 93.8017 41.6874L95.1398 41.5731C95.2953 41.5598 95.4322 41.6752 95.4455 41.8307C95.4587 41.9862 95.3435 42.123 95.188 42.1363C95.1722 42.1376 95.1551 42.1374 95.1398 42.1363Z" fill="#6B184E"/>
<path d="M102.031 42.022L100.693 42.1362C100.538 42.1495 100.401 42.0343 100.387 41.8787C100.374 41.7232 100.489 41.5864 100.645 41.5731C100.661 41.5717 100.678 41.5719 100.693 41.5731L102.031 41.6874C102.124 41.6953 102.192 41.7766 102.184 41.8689C102.177 41.9517 102.111 42.0152 102.031 42.022Z" fill="#6B184E"/>
<path d="M97.9164 45.013C97.7861 45.013 97.6727 44.9235 97.6425 44.7968C97.6364 44.7712 97.0107 42.2398 95.1244 42.1358C94.9751 42.1276 94.8582 42.0042 94.8582 41.8547C94.8582 41.7052 94.9751 41.5818 95.1244 41.5735C97.0167 41.4692 97.6363 38.9384 97.6424 38.9128C97.6724 38.7859 97.7857 38.6963 97.9161 38.6962C97.9163 38.6962 97.9163 38.6962 97.9165 38.6962C98.0468 38.6962 98.1601 38.7857 98.1904 38.9125C98.1965 38.9381 98.8222 41.4695 100.709 41.5735C100.858 41.5817 100.975 41.7052 100.975 41.8547C100.975 42.0041 100.858 42.1276 100.709 42.1358C98.8222 42.2398 98.1965 44.7712 98.1904 44.7968C98.1601 44.9235 98.0467 45.013 97.9164 45.013ZM96.2121 41.8547C97.1044 42.3078 97.6331 43.2077 97.9164 43.8688C98.1998 43.2077 98.7285 42.3078 99.6208 41.8547C98.7285 41.4016 98.1998 40.5016 97.9164 39.8405C97.6331 40.5016 97.1044 41.4016 96.2121 41.8547Z" fill="#6B184E"/>
</g>
<rect x="0.5" y="0.5" width="124" height="124" stroke="black"/>
<defs>
<clipPath id="clip0_17_1032">
<rect width="125" height="125" fill="white"/>
</clipPath>
</defs>
</svg>
