<svg width="125" height="125" viewBox="0 0 125 125" fill="none" xmlns="http://www.w3.org/2000/svg">
<g clip-path="url(#clip0_17_1268)">
<path d="M125 0H0V125H125V0Z" fill="#FFEC5E"/>
<g opacity="0.2">
<path d="M68.8358 110.938C89.9879 110.938 107.135 108.744 107.135 106.039C107.135 103.333 89.9879 101.14 68.8358 101.14C47.6837 101.14 30.5366 103.333 30.5366 106.039C30.5366 108.744 47.6837 110.938 68.8358 110.938Z" fill="#000072"/>
</g>
<path d="M100.776 61.4549C100.776 61.4549 102.694 64.1889 100.194 66.2209C100.194 66.2209 101.12 68.483 98.4483 69.9826C97.7369 68.0296 96.0584 66.658 94.0985 66.658C94.0985 66.658 93.6103 64.8608 92.3595 63.2776C92.3595 63.2776 92.9291 59.044 95.9514 60.1204C95.9514 60.1204 96.156 56.6889 98.3647 56.1379C100.573 55.5869 102.782 58.3163 100.776 61.4549Z" fill="#FFEBF6"/>
<path d="M98.4003 70.1121L98.3643 70.0133C97.6417 68.0293 95.9672 66.7474 94.0985 66.7474H94.0302L94.0122 66.6815C94.0074 66.6637 93.5136 64.8827 92.2894 63.333L92.2659 63.3032L92.271 63.2657C92.2835 63.1726 92.5931 60.9765 93.9397 60.1556C94.4935 59.8179 95.143 59.7652 95.8714 59.9989C95.9292 59.3785 96.3028 56.5601 98.3429 56.0512C99.3515 55.7995 100.419 56.2159 101.063 57.1118C101.914 58.2957 101.845 59.9154 100.882 61.4542C101.127 61.8401 102.577 64.3472 100.299 66.2503C100.425 66.6344 100.95 68.6806 98.4921 70.0606L98.4003 70.1121ZM94.1657 66.569C96.052 66.5988 97.7363 67.8773 98.4952 69.8526C100.953 68.4127 100.147 66.3432 100.112 66.2547L100.087 66.1935L100.138 66.1515C102.542 64.1967 100.779 61.6151 100.702 61.5062L100.668 61.4572L100.7 61.4067C101.652 59.9175 101.734 58.3508 100.918 57.2161C100.317 56.3801 99.3233 55.9909 98.3863 56.2246C96.2673 56.7533 96.0427 60.092 96.0407 60.1257L96.0336 60.2444L95.9215 60.2045C95.2016 59.9483 94.5662 59.9831 94.0332 60.308C92.8509 61.0283 92.5004 62.9615 92.4538 63.2526C93.5509 64.655 94.0641 66.2318 94.1657 66.569Z" fill="#000072"/>
<path d="M101.052 57.2555C100.454 56.3515 99.4097 55.8772 98.3647 56.1379C96.156 56.6889 95.9514 60.1204 95.9514 60.1204C93.2848 59.1707 92.5279 62.353 92.3867 63.1155C92.7533 63.6481 93.0385 64.1806 93.2533 64.6442C93.2758 64.6857 93.298 64.727 93.3195 64.7679C93.4742 63.9569 94.245 60.8635 96.8789 61.8015C96.8789 61.8015 97.0834 58.3701 99.2921 57.8191C99.9856 57.646 100.679 57.7968 101.242 58.1817C101.223 57.8508 101.156 57.5404 101.052 57.2555Z" fill="white"/>
<path d="M91.1275 102.732C91.1275 102.732 90.3788 104.973 90.1138 106.933Z" fill="#FFEBF6"/>
<path d="M90.2024 106.945L90.0253 106.921C90.2883 104.976 91.0352 102.727 91.0426 102.704L91.2123 102.761C91.2049 102.783 90.4632 105.017 90.2024 106.945Z" fill="#000072"/>
<path d="M73.3131 99.4097C73.3131 99.4097 71.948 101.35 71.5989 103.591Z" fill="#FFEBF6"/>
<path d="M71.6872 103.605L71.5106 103.578C71.8588 101.342 73.2262 99.3779 73.24 99.3583L73.3863 99.4612C73.3727 99.4804 72.029 101.412 71.6872 103.605Z" fill="#000072"/>
<path d="M98.2855 102.104L98.2831 102.101L98.4136 101.979L98.2855 102.104Z" fill="#000072"/>
<path d="M83.3715 94.5937C83.3715 94.5937 81.858 97.9717 80.0725 100.485L79.9679 100.411C76.3248 96.1118 70.5684 97.6183 70.5684 97.6183C71.7076 95.9259 72.8793 94.5937 72.8793 94.5937L72.8816 94.5913C76.2318 96.5675 79.5029 94.0915 79.5029 94.0915C80.8235 94.782 82.2695 94.7704 83.3715 94.5937Z" fill="#FFEBF6"/>
<path d="M80.0937 100.61L79.8997 100.468C76.3362 96.2635 70.6482 97.6899 70.5911 97.7049L70.3622 97.7647L70.4943 97.5685C71.6236 95.8906 72.8004 94.548 72.8122 94.5346L72.861 94.479L72.9271 94.5143C76.1877 96.4376 79.4166 94.0445 79.449 94.0202L79.4941 93.986L79.5444 94.0122C80.8803 94.7108 82.3554 94.6661 83.3573 94.5052L83.5207 94.4791L83.4531 94.6302C83.4379 94.6639 81.9156 98.0451 80.1454 100.537L80.0937 100.61ZM80.0288 100.344L80.0513 100.36C81.5779 98.1907 82.9102 95.3801 83.2215 94.7066C82.2125 94.8477 80.8049 94.8544 79.5106 94.196C79.0991 94.4844 76.0252 96.4975 72.9005 94.7057C72.6876 94.9525 71.7273 96.0832 70.7685 97.4831C71.8687 97.2636 76.797 96.5406 80.0288 100.344Z" fill="#000072"/>
<path d="M80.0727 100.523C79.2328 101.684 78.3384 102.66 77.5106 103.024C76.1443 103.624 73.6112 103.826 71.5785 103.573C69.7364 103.345 68.3057 102.745 68.5285 101.738C68.8136 100.44 69.6931 98.9066 70.5874 97.5942C70.5874 97.5942 76.3535 96.1251 79.9685 100.447L80.0727 100.523Z" fill="#50506D"/>
<g opacity="0.4">
<path d="M69.3098 102.363C69.5949 101.065 70.4744 99.5316 71.3687 98.2192C71.3687 98.2192 76.3062 96.9646 79.9078 100.203C76.284 96.1862 70.7437 97.5942 70.7437 97.5942C69.8494 98.9066 68.9699 100.44 68.6848 101.738C68.5786 102.218 68.8485 102.605 69.3588 102.904C69.2864 102.739 69.2665 102.559 69.3098 102.363Z" fill="white"/>
</g>
<g opacity="0.3">
<path d="M79.8709 94.5848C79.8709 94.5848 79.4038 94.9373 78.6468 95.263C78.0597 96.4118 77.208 97.9613 76.2793 99.2685C75.4784 100.392 74.6237 101.336 73.8295 101.691C72.7752 102.163 70.993 102.391 69.3173 102.342C69.4826 103.093 70.7243 103.546 72.2643 103.726C74.2219 103.957 76.6583 103.746 77.9693 103.16C78.7635 102.804 79.6182 101.86 80.4191 100.737C82.1373 98.3188 83.5938 95.068 83.5938 95.068C82.5333 95.2381 81.1417 95.2493 79.8709 94.5848Z" fill="#000072"/>
</g>
<path d="M98.3484 102.04V102.043C98.0438 103.219 97.6905 104.233 97.2883 104.844C96.3862 106.213 92.8547 107.064 90.1137 106.934C88.0841 106.839 86.4869 106.204 86.7101 104.844C86.9495 103.386 87.4587 101.754 87.9399 100.411C87.9399 100.411 93.4801 98.0787 98.3484 102.04Z" fill="#50506D"/>
<g opacity="0.4">
<path d="M87.5804 105.469C87.8198 104.011 88.329 102.379 88.8102 101.036C88.8102 101.036 93.6466 99.0005 98.2526 101.964C93.4077 98.1102 87.9398 100.411 87.9398 100.411C87.4586 101.754 86.9494 103.386 86.71 104.844C86.584 105.612 87.0385 106.149 87.8233 106.488C87.6081 106.208 87.5145 105.87 87.5804 105.469Z" fill="white"/>
</g>
<path d="M99.7085 93.8777C99.6899 94.0543 99.2203 98.6925 98.3484 102.04C93.4802 98.0787 87.9399 100.411 87.9399 100.411C88.5142 98.811 89.0536 97.6183 89.0536 97.6183C90.8205 97.6183 92.313 96.7303 92.8106 95.5073C93.5708 96.1886 94.5844 96.6094 95.7004 96.6094C97.544 96.6094 99.1133 95.4725 99.7085 93.8777Z" fill="#FFEBF6"/>
<path d="M98.3999 102.197L98.292 102.11C93.5234 98.229 88.0296 100.47 87.9746 100.493L87.787 100.572L87.8558 100.38C88.4247 98.7957 88.9667 97.5935 88.9721 97.5816L88.9959 97.5289H89.0536C90.7511 97.5289 92.2276 96.703 92.7277 95.4736L92.7756 95.3559L92.8702 95.4408C93.6469 96.1367 94.652 96.52 95.7004 96.52C97.4509 96.52 99.028 95.4456 99.6247 93.8464L99.871 93.1864L99.7956 93.9036C99.7113 94.7176 99.2491 98.9366 98.435 102.063L98.3999 102.197ZM91.8161 99.6504C93.7248 99.6504 96.0818 100.128 98.2964 101.884C98.9721 99.2309 99.3984 95.8453 99.5592 94.4234C98.8168 95.804 97.3305 96.6989 95.7004 96.6989C94.6493 96.6989 93.6398 96.329 92.8439 95.6551C92.281 96.8739 90.8045 97.6892 89.1117 97.7075C89.007 97.9436 88.565 98.9546 88.0898 100.259C88.5785 100.086 89.9929 99.6504 91.8161 99.6504Z" fill="#000072"/>
<path d="M92.9201 95.5971C92.884 95.5668 92.8456 95.5388 92.8105 95.5074C92.7991 95.5354 92.7845 95.5624 92.772 95.5902C92.8209 95.5941 92.8708 95.5948 92.9201 95.5971Z" fill="#000072"/>
<g opacity="0.3">
<path d="M96.2407 96.2462C96.019 97.696 95.7209 99.3555 95.3495 100.782V100.784C95.0449 101.96 94.6915 102.974 94.2894 103.585C93.3873 104.955 89.8558 105.806 87.1148 105.675C86.9228 105.666 86.7363 105.651 86.5532 105.632C87.079 106.283 88.2801 106.612 89.6924 106.678C92.4334 106.808 95.9649 105.958 96.867 104.588C97.2692 103.977 97.6226 102.963 97.9271 101.787V101.784C98.7989 98.4365 99.2686 93.7984 99.2872 93.6217C98.7988 94.9303 97.6541 95.9293 96.2407 96.2462Z" fill="#000072"/>
</g>
<path d="M54.0457 100.485C54.0457 100.485 53.2138 102.813 52.9614 104.729Z" fill="#FFEBF6"/>
<path d="M53.05 104.741L52.8727 104.718C53.1235 102.814 53.9531 100.478 53.9615 100.455L54.1299 100.515C54.1216 100.538 53.2983 102.856 53.05 104.741Z" fill="#000072"/>
<path d="M64.6516 93.7916C64.6074 96.5653 63.4055 99.9874 62.6964 101.775C58.3861 97.1976 52.2252 98.5135 52.2252 98.5135C53.6619 95.0285 55.3428 92.7734 55.3428 92.7734C55.7776 92.7734 56.1914 92.6966 56.582 92.5571C57.1725 93.5196 58.2954 94.1683 59.5858 94.1683C60.797 94.1683 61.8571 93.5986 62.4732 92.7361C62.9777 93.2406 63.6427 93.5499 64.3726 93.5499C64.4657 93.6335 64.5586 93.7149 64.6516 93.7916Z" fill="#FFEBF6"/>
<path d="M62.7277 101.939L62.6314 101.837C58.4044 97.3474 52.3051 98.5878 52.2439 98.6009L52.0778 98.6365L52.1425 98.4795C53.5671 95.0241 55.2543 92.7426 55.2711 92.72L55.298 92.684H55.3428C55.7532 92.684 56.1599 92.6129 56.5519 92.4728L56.6203 92.4484L56.6583 92.5104C57.2518 93.4778 58.3736 94.0788 59.5858 94.0788C60.7244 94.0788 61.7767 93.5574 62.4005 92.6842L62.4619 92.5984L62.5366 92.673C63.0443 93.1807 63.6964 93.4604 64.3727 93.4604H64.407L64.4325 93.4834C64.5246 93.5662 64.6166 93.6467 64.7086 93.7227L64.7418 93.75L64.7411 93.793C64.6967 96.5756 63.4931 100.009 62.7795 101.808L62.7277 101.939ZM54.2642 98.2567C56.4374 98.2567 59.9216 98.7735 62.6646 101.612C63.3746 99.8028 64.5072 96.514 64.5615 93.833C64.487 93.7708 64.4125 93.7058 64.3382 93.6389C63.6592 93.6301 63.0059 93.3591 62.4845 92.8714C61.8209 93.7413 60.7454 94.2576 59.5858 94.2576C58.3374 94.2576 57.1791 93.6491 56.5441 92.6647C56.1684 92.7912 55.7802 92.8578 55.3884 92.8625C55.1735 93.1596 53.675 95.2802 52.3704 98.3966C52.6678 98.3481 53.3502 98.2567 54.2642 98.2567Z" fill="#000072"/>
<path d="M62.6964 101.775C62.3639 102.615 61.7037 103.275 60.8667 103.612C59.5369 104.149 57.3004 104.844 54.6267 104.844C53.9664 104.844 53.4155 104.802 52.9621 104.73C50.414 104.326 50.7907 102.998 50.7907 102.998C51.1603 101.361 51.6741 99.8479 52.2251 98.5135C52.2251 98.5135 58.386 97.1976 62.6964 101.775Z" fill="#50506D"/>
<g opacity="0.4">
<path d="M51.572 103.623C51.9416 101.986 52.4554 100.473 53.0064 99.1385C53.0064 99.1385 57.8638 98.1015 61.97 101.074C57.7272 97.3392 52.2252 98.5135 52.2252 98.5135C51.6742 99.8479 51.1604 101.361 50.7907 102.998C50.7907 102.998 50.5552 103.833 51.7296 104.381C51.4716 103.98 51.572 103.623 51.572 103.623Z" fill="white"/>
</g>
<g opacity="0.3">
<path d="M64.3726 93.5498C63.6426 93.5498 62.9777 93.2406 62.4732 92.7361C62.0928 93.2686 61.5427 93.689 60.8927 93.9332C60.5999 96.4291 59.6325 99.1608 59.0248 100.693C58.6923 101.532 58.0321 102.193 57.1951 102.53C55.8653 103.067 53.6287 103.762 50.9551 103.762C50.9541 103.762 50.9533 103.762 50.9523 103.762C51.1938 104.131 51.7425 104.537 52.9622 104.73C53.4155 104.802 53.9665 104.844 54.6268 104.844C57.3004 104.844 59.5369 104.149 60.8668 103.612C61.7037 103.275 62.364 102.614 62.6964 101.775C63.4055 99.9873 64.6075 96.5652 64.6517 93.7916C64.5586 93.7149 64.4656 93.6335 64.3726 93.5498Z" fill="#000072"/>
</g>
<path d="M42.8863 97.7532C42.8863 97.7532 43.6702 100.682 44.8185 102.56Z" fill="#FFEBF6"/>
<path d="M44.7422 102.606C43.6004 100.74 42.8078 97.8058 42.7999 97.7764L42.9726 97.7301C42.9804 97.7594 43.7666 100.669 44.8948 102.513L44.7422 102.606Z" fill="#000072"/>
<path d="M49.233 94.9703C43.1419 93.7544 39.9126 97.5765 39.9126 97.5765C38.7315 93.6196 38.3015 89.6743 38.3015 89.6743C38.8757 90.1113 39.5918 90.3717 40.3682 90.3717C41.1657 90.3717 41.8957 90.0951 42.4769 89.6371C43.1674 91.0134 44.5879 91.9596 46.2339 91.9596C46.8407 91.9596 47.4173 91.8294 47.938 91.597C48.2264 92.5664 48.7401 93.8358 49.233 94.9703Z" fill="#FFEBF6"/>
<path d="M50.2211 98.4623C49.0517 100.776 46.6617 101.966 44.8181 102.559C44.2136 102.756 43.6673 102.887 43.2418 102.973C42.6978 103.082 42.1445 102.84 41.8655 102.361C41.0588 100.969 40.4171 99.2714 39.9126 97.5765C39.9126 97.5765 43.1418 93.7544 49.2331 94.9704C49.619 95.8607 49.9956 96.6698 50.2397 97.186C50.4303 97.5905 50.4233 98.0624 50.2211 98.4623Z" fill="#50506D"/>
<g opacity="0.4">
<path d="M44.1793 102.66C43.6353 102.769 43.082 102.528 42.803 102.049C41.9963 100.656 41.3546 98.9589 40.8501 97.264C40.8501 97.264 42.0788 95.8128 44.4465 94.9834C41.3641 95.6779 39.7563 97.5765 39.7563 97.5765C40.2608 99.2714 40.9025 100.969 41.7093 102.361C41.9883 102.84 42.5415 103.082 43.0856 102.973C43.511 102.887 44.0574 102.756 44.6619 102.559C44.6783 102.553 44.6954 102.547 44.7119 102.542C44.5193 102.588 44.3406 102.627 44.1793 102.66Z" fill="white"/>
</g>
<g opacity="0.3">
<path d="M50.2397 97.186C49.9956 96.6698 49.619 95.8608 49.2331 94.9703C48.7401 93.8358 48.2264 92.5664 47.9381 91.5969C47.4173 91.8294 46.8407 91.9596 46.234 91.9596C45.7348 91.9596 45.2585 91.8682 44.8149 91.7084C44.7976 91.7408 44.7799 91.7731 44.7617 91.8051C45.057 92.6667 45.4649 93.6648 45.862 94.5789C46.2479 95.4693 46.6245 96.2783 46.8686 96.7945C47.0592 97.1991 47.0523 97.671 46.85 98.0709C45.7353 100.276 43.5126 101.459 41.7101 102.079C41.7619 102.173 41.8124 102.269 41.8655 102.361C42.1445 102.84 42.6978 103.082 43.2418 102.973C43.6673 102.887 44.2136 102.756 44.8181 102.559C46.6617 101.966 49.0517 100.775 50.2211 98.4622C50.4234 98.0624 50.4303 97.5905 50.2397 97.186Z" fill="#000072"/>
</g>
<path d="M52.2251 91.7411C51.7439 92.3688 50.986 92.7734 50.1327 92.7734C49.2167 92.7734 48.41 92.306 47.9381 91.597C47.4173 91.8295 46.8407 91.9596 46.234 91.9596C44.588 91.9596 43.1674 91.0134 42.477 89.637C41.8957 90.0951 41.1657 90.3717 40.3683 90.3717C39.5918 90.3717 38.8757 90.1113 38.3015 89.6743C37.4855 89.0512 36.9577 88.0677 36.9577 86.9611C36.9577 85.3291 38.1062 83.9667 39.6383 83.6319C39.4849 83.2482 39.3988 82.8321 39.3988 82.3927C39.3988 80.9095 40.3683 79.6517 41.7074 79.2193C41.5494 79.9749 40.5613 85.6336 45.9852 86.0707C45.9852 86.0707 46.6594 91.8574 52.2251 91.7411Z" fill="#FFEBF6"/>
<path d="M50.1327 92.8629C49.2438 92.8629 48.4171 92.4327 47.9061 91.7085C47.3755 91.9345 46.8134 92.0491 46.234 92.0491C44.6371 92.0491 43.1956 91.1798 42.4465 89.7728C41.8385 90.2235 41.1223 90.4611 40.3683 90.4611C39.5958 90.4611 38.8624 90.2136 38.2473 89.7453C37.3709 89.0762 36.8683 88.0615 36.8683 86.9612C36.8683 85.3644 37.9765 83.954 39.5181 83.5683C39.3796 83.1899 39.3094 82.7948 39.3094 82.3927C39.3094 80.9016 40.262 79.5921 41.6799 79.1342L41.8264 79.0869L41.7949 79.2377C41.6848 79.7641 41.2048 82.4832 42.576 84.3168C43.3097 85.298 44.459 85.858 45.9924 85.9816L46.0655 85.9875L46.074 86.0603C46.0806 86.1168 46.7909 91.6534 52.0634 91.6534C52.1163 91.6534 52.1693 91.6529 52.2233 91.6517L52.4093 91.6479L52.2961 91.7956C51.776 92.4739 50.9875 92.8629 50.1327 92.8629ZM47.9706 91.4845L48.0125 91.5474C48.4861 92.259 49.2788 92.684 50.1327 92.684C50.8682 92.684 51.5511 92.3758 52.034 91.8323C46.9616 91.8144 46.0108 86.8202 45.9068 86.1537C44.3555 86.0144 43.1869 85.4326 42.4328 84.4239C41.1196 82.668 41.4451 80.1452 41.5897 79.355C40.3265 79.8291 39.4882 81.031 39.4882 82.3927C39.4882 82.8063 39.5666 83.2121 39.7212 83.5986L39.7604 83.6967L39.6573 83.7192C38.1449 84.0497 37.047 85.4132 37.047 86.9612C37.047 88.0052 37.524 88.9682 38.3556 89.6031C38.9392 90.0474 39.6352 90.2823 40.3682 90.2823C41.1175 90.2823 41.8275 90.0348 42.4216 89.5668L42.5076 89.4988L42.5568 89.5968C43.2602 90.9991 44.6692 91.8702 46.2339 91.8702C46.8131 91.8702 47.3741 91.7508 47.9015 91.5153L47.9706 91.4845Z" fill="#000072"/>
<g opacity="0.3">
<path d="M46.95 88.8309C46.8957 88.8331 46.8426 88.8396 46.7878 88.8396C45.1418 88.8396 43.7213 87.8934 43.0308 86.517C42.4496 86.9751 41.7195 87.2517 40.9221 87.2517C40.1456 87.2517 39.4295 86.9913 38.8553 86.5543C38.3051 86.1342 37.891 85.548 37.6763 84.873C37.2271 85.4499 36.9577 86.1733 36.9577 86.9612C36.9577 88.0678 37.4855 89.0512 38.3015 89.6743C38.8757 90.1113 39.5918 90.3717 40.3683 90.3717C41.1657 90.3717 41.8957 90.0951 42.477 89.6371C43.1674 91.0134 44.588 91.9597 46.234 91.9597C46.8407 91.9597 47.4173 91.8294 47.9381 91.597C48.41 92.3061 49.2168 92.7734 50.1327 92.7734C50.986 92.7734 51.7439 92.3688 52.2251 91.7412C49.3654 91.8008 47.799 90.3023 46.95 88.8309Z" fill="#000072"/>
</g>
<path d="M98.4786 89.3232C99.018 88.6444 99.3411 87.7749 99.3411 86.8263C99.3411 85.5825 98.7832 84.4781 97.916 83.7575C98.7878 82.8322 99.3411 81.4698 99.3411 79.9493C99.3411 78.2126 98.6227 76.6829 97.5277 75.7761C98.3229 74.809 98.8111 73.5047 98.8111 72.068C98.8111 71.3286 98.6809 70.6242 98.4484 69.9826C97.737 68.0296 96.0584 66.658 94.0985 66.658C94.0985 66.658 93.6103 64.8609 92.3595 63.2776C91.1274 61.7176 89.1512 60.3668 86.1684 61.155C86.1684 61.155 82.9135 57.4747 79.31 60.6528C79.31 60.6528 76.9456 56.4285 72.4888 60.5365C72.4888 60.5365 71.6821 57.9792 69.1712 58.4255V58.4233C68.6225 58.7697 67.9414 59.0649 67.1044 59.2951C67.1044 59.2951 65.2395 57.925 63.324 58.594C62.489 58.8856 61.8934 60.3823 61.4085 61.9315C61.4085 61.9315 49.7771 65.6373 38.8804 63.8379C38.8804 63.8379 36.8996 67.9367 40.2707 70.7846C40.2707 70.7846 37.1135 75.6483 41.7238 79.1356C41.7238 79.1356 41.7168 79.1635 41.7075 79.2193C41.5494 79.9749 40.5613 85.6337 45.9853 86.0707C45.9853 86.0707 46.6595 91.8574 52.2252 91.7411C52.3904 91.7387 64.6541 93.7056 64.6518 93.7916C68.3646 96.8441 71.831 93.8195 71.831 93.8195C72.1797 94.131 72.5307 94.3868 72.8818 94.5914C76.2319 96.5675 79.503 94.0915 79.503 94.0915C80.8236 94.782 82.2697 94.7704 83.3717 94.5937C84.4388 94.4193 85.185 94.0915 85.185 94.0915C85.1455 94.2636 85.1223 94.4356 85.1223 94.6146C85.1223 96.2722 86.8822 97.6184 89.0537 97.6184C90.8206 97.6184 92.3132 96.7303 92.8107 95.5074C93.5709 96.1886 94.5846 96.6094 95.7005 96.6094C97.5442 96.6094 99.1135 95.4725 99.7086 93.8777C99.7086 93.8777 99.7086 93.8754 99.7086 93.873C99.8737 93.4336 99.962 92.9593 99.962 92.4641C99.9619 91.2087 99.3853 90.0834 98.4786 89.3232Z" fill="#FFEBF7"/>
<g opacity="0.3">
<path d="M49.8133 68.7997C56.249 67.937 61.0643 65.3097 64.4593 62.6036C63.6642 62.6947 62.6406 62.5288 61.3148 61.9315C61.3148 61.9315 49.3269 65.751 38.0961 63.8964C38.0961 63.8964 37.9565 64.187 37.8125 64.6659C38.6619 67.2381 41.4627 69.9191 49.8133 68.7997Z" fill="#000072"/>
</g>
<path d="M98.8111 71.5992C98.8111 70.8599 98.6808 70.1555 98.4484 69.5138C97.737 67.5609 96.0584 66.1892 94.0985 66.1892C94.0985 66.1892 93.6103 64.3921 92.3595 62.8089C91.1273 61.2489 89.1512 59.8981 86.1684 60.6863C86.1684 60.6863 82.9135 57.0059 79.31 60.184C79.31 60.184 76.9456 55.9598 72.4888 60.0678C72.4888 60.0678 71.6821 57.5104 69.1712 57.9568V57.9545C68.6225 58.3009 67.9413 58.5961 67.1044 58.8263C67.1044 58.8263 67.0513 60.1642 66.2648 61.14C66.3569 61.2135 66.4446 61.2913 66.5296 61.3718C67.3476 61.1433 68.0161 60.8525 68.5557 60.5119V60.5142C71.0666 60.0678 71.8733 62.6252 71.8733 62.6252C76.3301 58.5171 78.6945 62.7414 78.6945 62.7414C82.298 59.5633 85.5529 63.2436 85.5529 63.2436C88.5357 62.4555 90.5118 63.8062 91.744 65.3662C92.9948 66.9495 93.483 68.7466 93.483 68.7466C95.4429 68.7466 97.1215 70.1183 97.8329 72.0712C98.0654 72.7129 98.1956 73.4173 98.1956 74.1566C98.1956 74.1951 98.1914 74.2324 98.1907 74.2708C98.5827 73.4825 98.8111 72.5729 98.8111 71.5992Z" fill="white"/>
<g opacity="0.3">
<path d="M85.1095 93.707C85.1201 93.8392 85.1418 93.9691 85.1741 94.0961C85.1646 94.1002 85.1468 94.1077 85.1242 94.1168C85.1628 94.1011 85.185 94.0916 85.185 94.0916C85.1643 94.1817 85.1488 94.2721 85.138 94.3633C85.1479 94.2818 85.1622 94.2011 85.1798 94.1204C85.5436 95.4912 87.1301 96.5246 89.0326 96.5246C90.7995 96.5246 92.2921 95.6365 92.7896 94.4136C93.5498 95.0948 94.5635 95.5157 95.6794 95.5157C97.5231 95.5157 99.0924 94.3787 99.6875 92.7839C99.6875 92.7839 99.6875 92.7816 99.6875 92.7793C99.7995 92.4813 99.8729 92.1662 99.9107 91.8404C99.9264 91.9411 99.939 92.0428 99.9478 92.1456C99.9188 91.779 99.8419 91.4257 99.7212 91.0919C98.9339 92.1656 97.6296 92.8688 96.15 92.8688C95.0098 92.8688 93.974 92.4479 93.1972 91.7667C92.6889 92.9896 91.1638 93.8777 89.3583 93.8777C88.6113 93.8777 87.9144 93.7223 87.3153 93.4567C86.8763 93.6571 86.4037 93.7714 85.9178 93.7714C85.64 93.7714 85.3701 93.748 85.108 93.7067C85.1084 93.7068 85.1089 93.707 85.1095 93.707Z" fill="#000072"/>
</g>
<g opacity="0.3">
<path d="M41.5455 80.564C41.7062 82.4344 42.6049 84.7062 45.9642 84.9769C45.9642 84.9769 46.6384 90.7636 52.2042 90.6473C52.3693 90.645 64.633 92.6118 64.6307 92.6979C68.3435 95.7504 71.8099 92.7258 71.8099 92.7258C72.1586 93.0373 72.5097 93.2931 72.8607 93.4976C76.2109 95.4738 79.482 92.9978 79.482 92.9978C80.8025 93.6883 82.2486 93.6766 83.3506 93.4999C83.5708 93.464 83.7763 93.4213 83.9654 93.3765C83.9656 93.3766 83.9658 93.3767 83.966 93.3767C82.9079 92.9152 82.0907 92.0674 81.6913 90.9293C81.0028 90.8705 80.2847 90.7014 79.5995 90.3508C79.5995 90.3508 76.2571 92.8268 72.834 90.8507C72.4753 90.6461 72.1165 90.3903 71.7602 90.0789C71.7602 90.0789 68.2183 93.1035 64.4245 90.0509C64.4269 89.9649 51.8938 87.9736 51.7272 88.0004C48.261 88.5569 47.916 85.5598 47.9938 83.841C47.9565 83.4269 47.958 83.0277 47.976 82.684C45.4717 82.4401 43.7541 81.0494 42.6476 79.5453C42.3184 79.4942 41.9969 79.4256 41.6836 79.3406C41.6383 79.5822 41.5695 80.024 41.5452 80.5699C41.5454 80.568 41.5454 80.5659 41.5455 80.564Z" fill="#000072"/>
</g>
<path d="M66.8161 88.7443C67.0695 89.2209 67.2206 89.7765 67.2206 90.3717C67.2206 92.02 66.0931 93.3754 64.6539 93.5336C64.5609 93.5452 64.468 93.5498 64.3726 93.5498C63.6426 93.5498 62.9777 93.2406 62.4732 92.7361C61.8571 93.5986 60.797 94.1683 59.5857 94.1683C58.2954 94.1683 57.1725 93.5196 56.582 92.5571C56.1914 92.6966 55.7776 92.7733 55.3428 92.7733C54.3455 92.7733 53.4341 92.3758 52.7366 91.7155C51.902 90.9296 51.3719 89.7672 51.3719 88.4723C51.3719 87.619 51.6044 86.8262 51.9996 86.159C50.9557 85.5731 50.249 84.4572 50.249 83.1739C50.249 81.2861 51.7787 79.754 53.6689 79.754L68.0041 82.9414C68.4761 83.5691 68.769 84.434 68.769 85.3918C68.769 87.0053 67.939 88.3561 66.8161 88.7443Z" fill="#FFEBF6"/>
<path d="M64.6539 93.5336C64.5609 93.5452 64.4679 93.5499 64.3726 93.5499Z" fill="#FFEBF6"/>
<path d="M64.3727 93.6392V93.4604C64.4709 93.4604 64.5594 93.4553 64.6429 93.4449L64.665 93.6223C64.574 93.6337 64.4784 93.6392 64.3727 93.6392Z" fill="#000072"/>
<path d="M55.3428 92.7733C54.3454 92.7733 53.4341 92.3758 52.7366 91.7155Z" fill="#FFEBF6"/>
<path d="M55.3428 92.8627C54.3597 92.8627 53.4123 92.4783 52.6751 91.7805L52.7981 91.6505C53.502 92.3169 54.4057 92.6838 55.3428 92.6838L55.3428 92.8627Z" fill="#000072"/>
<path d="M98.4496 70.6106C98.2297 70.6106 98.0163 70.4951 97.901 70.2897C97.7311 69.9871 97.8387 69.6042 98.1413 69.4342C100.237 68.2574 99.6817 66.6358 99.6115 66.4549C99.513 66.2008 99.5871 65.9066 99.7985 65.7347C101.77 64.1296 100.421 62.0473 100.261 61.8151C100.117 61.607 100.111 61.3309 100.247 61.1177C101.075 59.8206 101.162 58.4793 100.479 57.5298C100.001 56.8643 99.2481 56.5644 98.5167 56.7475C96.7852 57.1803 96.5813 60.1278 96.5794 60.1575C96.5671 60.3544 96.4629 60.5346 96.2983 60.6432C96.1336 60.7519 95.9274 60.7773 95.7415 60.7113C95.1755 60.5099 94.7093 60.5281 94.3164 60.7666C93.4426 61.2972 93.0566 62.8212 92.9816 63.3634C92.9341 63.7069 92.6187 63.9482 92.274 63.9006C91.9306 63.8536 91.6899 63.538 91.7362 63.1945C91.7501 63.0909 92.096 60.6484 93.66 59.6948C94.1889 59.3723 94.7784 59.2549 95.4201 59.3421C95.6283 58.1787 96.2727 56.013 98.2119 55.5282C99.4354 55.2226 100.726 55.72 101.5 56.7958C102.224 57.8035 102.579 59.5293 101.512 61.4494C102.167 62.6258 102.651 64.7439 100.911 66.4262C101.146 67.5098 100.921 69.3145 98.7567 70.53C98.6593 70.5847 98.5537 70.6106 98.4496 70.6106Z" fill="#000072"/>
<path d="M91.1916 102.754C91.1345 103.489 91.0379 104.205 90.9449 104.914C90.8954 105.268 90.857 105.621 90.7952 105.968C90.7351 106.315 90.6768 106.658 90.5789 106.996L90.576 107.006C90.5034 107.257 90.2414 107.401 89.9908 107.329C89.7827 107.268 89.648 107.077 89.6499 106.871C89.6534 106.495 89.7155 106.127 89.7983 105.767C89.8815 105.407 89.9989 105.056 90.1245 104.711C90.2504 104.365 90.3912 104.025 90.5446 103.691C90.7016 103.357 90.8669 103.028 91.0646 102.711C91.0847 102.679 91.1271 102.669 91.1594 102.689C91.1819 102.703 91.1935 102.729 91.1916 102.754Z" fill="#000072"/>
<path d="M73.3684 99.4482C73.0956 100.166 72.8405 100.872 72.6308 101.577C72.5217 101.928 72.4375 102.283 72.3427 102.629C72.2444 102.976 72.1737 103.321 72.0626 103.663L72.0544 103.689C71.9742 103.936 71.7086 104.072 71.4612 103.991C71.2542 103.924 71.1257 103.727 71.1363 103.519C71.1572 103.115 71.2399 102.716 71.3684 102.338C71.4926 101.958 71.6624 101.596 71.8517 101.25C72.0401 100.902 72.2515 100.57 72.4834 100.254C72.7189 99.9407 72.9688 99.6403 73.2589 99.3712C73.2866 99.3455 73.3299 99.3471 73.3556 99.3748C73.3739 99.3945 73.3784 99.4221 73.3695 99.4456L73.3684 99.4482Z" fill="#000072"/>
<path d="M98.3499 102.59C98.2285 102.59 98.1064 102.55 98.0049 102.467C93.4452 98.7542 88.2059 100.892 88.1534 100.914C87.875 101.031 87.5544 100.9 87.4374 100.622C87.3203 100.343 87.4511 100.023 87.7295 99.9057C87.9682 99.8056 93.6319 97.4958 98.6955 101.619C98.9297 101.81 98.965 102.154 98.7743 102.388C98.6662 102.521 98.5087 102.59 98.3499 102.59Z" fill="#000072"/>
<path d="M79.969 100.957C79.8138 100.957 79.6596 100.891 79.5514 100.763C76.1823 96.7869 70.7621 98.1327 70.7077 98.1469C70.4161 98.2218 70.1171 98.0474 70.0412 97.7552C69.9652 97.4632 70.1397 97.1649 70.4315 97.0886C70.6804 97.0237 76.565 95.5468 80.3859 100.056C80.5811 100.287 80.5526 100.632 80.3222 100.827C80.2195 100.914 80.0939 100.957 79.969 100.957Z" fill="#000072"/>
<path d="M73.3281 104.308C71.3787 104.308 69.4496 103.969 68.5462 103.238C68.0167 102.81 67.7956 102.244 67.9234 101.645C68.5833 98.5529 72.2521 94.3549 72.4079 94.1777C72.637 93.9174 73.0342 93.8919 73.2946 94.1209C73.5552 94.35 73.5807 94.747 73.3516 95.0076C73.3156 95.0487 69.7438 99.1364 69.1525 101.907C69.1386 101.973 69.1152 102.082 69.3364 102.261C70.5547 103.246 75.2262 103.346 77.2708 102.43C79.2194 101.557 81.9215 96.2912 82.7982 94.3358C82.9401 94.019 83.3119 93.8772 83.6287 94.0193C83.9453 94.1612 84.0869 94.533 83.945 94.8497C83.6026 95.614 80.5201 102.352 77.7844 103.577C76.7202 104.054 75.0165 104.308 73.3281 104.308Z" fill="#000072"/>
<path d="M90.699 107.573C89.5572 107.573 88.4997 107.428 87.7165 107.122C86.5128 106.652 85.9201 105.785 86.0907 104.743C86.621 101.501 88.4067 97.5265 88.4824 97.3589C88.6253 97.0427 88.9973 96.9026 89.3137 97.045C89.63 97.1879 89.7705 97.5601 89.6277 97.8764C89.6098 97.9159 87.8342 101.87 87.3309 104.946C87.3025 105.119 87.2269 105.582 88.1737 105.951C90.5004 106.86 95.7992 105.964 96.7641 104.498C97.981 102.651 98.8519 96.1566 99.0847 93.8103C99.1189 93.465 99.4274 93.2123 99.772 93.2471C100.117 93.2814 100.37 93.589 100.335 93.9344C100.3 94.2914 99.4495 102.706 97.8138 105.19C96.8207 106.698 93.5057 107.573 90.699 107.573Z" fill="#000072"/>
<path d="M54.1167 100.51C54.0606 101.26 53.9597 101.986 53.8625 102.703C53.8124 103.061 53.7718 103.418 53.7078 103.767C53.6439 104.116 53.584 104.46 53.4811 104.798L53.4769 104.811C53.3917 105.091 53.0964 105.248 52.8171 105.163C52.5906 105.094 52.4444 104.886 52.4427 104.661C52.4401 104.274 52.5081 103.898 52.5943 103.532C52.6845 103.166 52.8127 102.811 52.9495 102.462C53.087 102.113 53.2408 101.772 53.4082 101.437C53.5796 101.103 53.7599 100.774 53.9758 100.46C53.9999 100.425 54.0481 100.416 54.0833 100.44C54.1068 100.456 54.1186 100.483 54.1167 100.509L54.1167 100.51Z" fill="#000072"/>
<path d="M62.6972 102.323C62.5517 102.323 62.4065 102.265 62.2989 102.151C58.2593 97.8595 52.3981 99.0356 52.3394 99.0481C52.0437 99.1099 51.7539 98.9218 51.6912 98.6267C51.6286 98.3314 51.8165 98.0414 52.1116 97.9783C52.3753 97.922 58.6251 96.6525 63.0953 101.401C63.3023 101.621 63.2919 101.967 63.0719 102.174C62.9664 102.274 62.8316 102.323 62.6972 102.323Z" fill="#000072"/>
<path d="M54.6275 105.472C52.5212 105.472 51.1327 105.048 50.5006 104.212C50.0442 103.608 50.1429 103.012 50.1789 102.859C51.5298 96.8846 54.706 92.5787 54.8406 92.3983C55.0482 92.1202 55.4418 92.063 55.7201 92.2703C55.9982 92.4778 56.0554 92.8713 55.8482 93.1495C55.8168 93.1917 52.6938 97.433 51.4043 103.137C51.399 103.161 51.4037 103.15 51.4007 103.158C51.3971 103.201 51.3988 103.331 51.5255 103.482C51.7105 103.703 52.383 104.216 54.6275 104.216C57.164 104.216 59.2929 103.571 60.6322 103.03C61.3063 102.758 61.8461 102.216 62.1131 101.544C62.8401 99.714 64.0552 96.2405 64.0272 93.5398C64.0236 93.1928 64.302 92.9086 64.649 92.9049C64.6512 92.9049 64.6535 92.9049 64.6557 92.9049C64.9997 92.9049 65.2803 93.1818 65.2839 93.5267C65.3142 96.4425 64.0421 100.092 63.2811 102.008C62.8879 102.998 62.0939 103.796 61.1027 104.196C59.6601 104.778 57.3657 105.472 54.6275 105.472Z" fill="#000072"/>
<path d="M43.041 97.9376C43.4484 98.679 43.8166 99.4206 44.1919 100.146C44.3798 100.508 44.5757 100.863 44.7528 101.22C44.9318 101.577 45.1133 101.925 45.2658 102.287L45.2724 102.302C45.3855 102.571 45.2596 102.88 44.9913 102.993C44.7677 103.087 44.5155 103.015 44.3723 102.833C44.0976 102.484 43.8975 102.095 43.7217 101.702C43.5515 101.307 43.4253 100.897 43.3115 100.487C43.2002 100.077 43.1093 99.6618 43.0364 99.2443C42.9676 98.8253 42.9115 98.4056 42.8965 97.9763C42.8951 97.934 42.9282 97.8984 42.9706 97.8969C43.0005 97.8959 43.027 97.9121 43.0405 97.9366L43.041 97.9376Z" fill="#000072"/>
<path d="M39.9131 98.1219C39.788 98.1219 39.6623 98.0792 39.5596 97.9919C39.3299 97.7968 39.301 97.4532 39.4955 97.2229C39.6358 97.0568 43.005 93.1703 49.34 94.4333C49.6362 94.4923 49.8285 94.7803 49.7694 95.0766C49.7103 95.3728 49.4224 95.5649 49.1262 95.506C43.4445 94.3736 40.4545 97.7842 40.3301 97.93C40.2217 98.0566 40.0679 98.1219 39.9131 98.1219Z" fill="#000072"/>
<path d="M42.9803 103.627C42.3044 103.627 41.6686 103.273 41.3226 102.675C38.6012 97.973 37.7146 90.0759 37.6782 89.7419C37.6406 89.3971 37.8898 89.0869 38.2347 89.0492C38.5812 89.0136 38.8899 89.2608 38.9276 89.6057C38.9362 89.6849 39.8228 97.5746 42.4104 102.046C42.5512 102.289 42.8352 102.414 43.1172 102.357C44.6025 102.056 48.2132 101.046 49.6614 98.1782C49.7769 97.9493 49.7806 97.6855 49.6714 97.4543C49.0191 96.0736 47.8484 93.4999 47.3364 91.7758C47.2375 91.4431 47.4272 91.0934 47.7599 90.9945C48.0924 90.8958 48.4423 91.0853 48.5412 91.4181C49.0475 93.1233 50.2949 95.832 50.8077 96.9175C51.0836 97.5016 51.0746 98.1675 50.7832 98.7446C49.087 102.104 45.0317 103.251 43.3669 103.589C43.2378 103.615 43.1083 103.627 42.9803 103.627Z" fill="#000072"/>
<path d="M50.1335 93.4016C49.2118 93.4016 48.346 93.0157 47.7329 92.3494C47.2508 92.5079 46.7487 92.588 46.2347 92.588C44.6326 92.588 43.1696 91.8109 42.2735 90.5209C41.6901 90.836 41.0428 91.0001 40.369 91.0001C38.1419 91.0001 36.33 89.1882 36.33 86.9612C36.33 85.307 37.3604 83.8262 38.8582 83.2182C38.8003 82.9477 38.7711 82.6717 38.7711 82.3928C38.7711 80.667 39.8738 79.1513 41.515 78.6214C41.8452 78.5144 42.1995 78.696 42.3061 79.0263C42.4128 79.3565 42.2315 79.7107 41.9012 79.8174C40.7807 80.1792 40.0278 81.2142 40.0278 82.3928C40.0278 82.7374 40.0933 83.0757 40.2223 83.3986C40.291 83.5701 40.2806 83.7632 40.1941 83.9263C40.1075 84.0896 39.9535 84.2064 39.773 84.2458C38.5062 84.5226 37.5867 85.6647 37.5867 86.9613C37.5867 88.4954 38.8348 89.7434 40.3689 89.7434C40.996 89.7434 41.5907 89.536 42.0887 89.1436C42.237 89.0269 42.4303 88.9829 42.6142 89.0238C42.7985 89.065 42.9546 89.1866 43.0393 89.3554C43.6507 90.5743 44.875 91.3314 46.2346 91.3314C46.7375 91.3314 47.2247 91.2276 47.6825 91.0233C47.9626 90.8977 48.292 90.9937 48.4618 91.2488C48.8353 91.8099 49.4602 92.145 50.1335 92.145C50.7632 92.145 51.3441 91.8584 51.7272 91.3589C51.9384 91.0836 52.3329 91.0316 52.6082 91.2426C52.8836 91.4538 52.9357 91.8482 52.7245 92.1236C52.1017 92.9358 51.1573 93.4016 50.1335 93.4016Z" fill="#000072"/>
<path d="M52.0537 92.3732C47.1591 92.3733 45.7849 88.1236 45.4549 86.6438C43.9175 86.4248 42.7441 85.7698 41.9626 84.6925C40.633 82.8595 40.8748 80.3597 41.035 79.3907C37.2822 76.2866 38.8032 72.276 39.4831 70.9166C36.318 67.8134 38.2943 63.6088 38.3155 63.5652C38.4665 63.2527 38.8421 63.1221 39.1547 63.2729C39.4667 63.4238 39.5977 63.7987 39.4476 64.1109C39.3747 64.2638 37.7302 67.8153 40.6769 70.3046C40.9188 70.5089 40.9708 70.8613 40.7984 71.1268C40.6839 71.3048 38.0252 75.5493 42.1034 78.6336C42.3026 78.7842 42.3936 79.0385 42.3354 79.2813C42.3289 79.3089 41.6744 82.1607 42.983 83.9587C43.6187 84.8325 44.6464 85.3323 46.037 85.4443C46.3359 85.4684 46.5761 85.7002 46.6107 85.9981C46.6379 86.2227 47.3386 91.5265 52.6862 91.0899C53.0316 91.0623 53.3353 91.3193 53.3635 91.6652C53.3917 92.0111 53.1342 92.3144 52.7883 92.3427C52.5351 92.3633 52.2902 92.3732 52.0537 92.3732Z" fill="#000072"/>
<path d="M75.6276 95.9785C74.4352 95.9787 73.1081 95.6378 71.8046 94.6172C70.6392 95.3915 67.3317 97.0694 63.9514 94.0153C63.6939 93.7827 63.6737 93.3853 63.9064 93.1278C64.1391 92.8703 64.5364 92.85 64.794 93.0828C68.1579 96.1225 71.2869 93.4615 71.4186 93.3469C71.6575 93.1386 72.0143 93.1407 72.2506 93.3521C75.4913 96.2519 78.9787 93.7007 79.1256 93.5907C79.3193 93.4458 79.5803 93.4238 79.7948 93.5358C82.0838 94.7325 84.9052 93.5294 84.9335 93.517C85.2512 93.3788 85.6216 93.5236 85.7606 93.8411C85.8995 94.1585 85.7556 94.5283 85.4384 94.668C85.3066 94.7259 82.2977 96.0207 79.5519 94.8126C78.9157 95.2031 77.4251 95.9784 75.6276 95.9785Z" fill="#000072"/>
<path d="M80.6183 83.2647C80.36 83.7222 80.2088 84.2065 80.1724 84.6838C80.1585 84.9229 80.1646 85.1598 80.2055 85.3896C80.2504 85.6178 80.3058 85.8404 80.3974 86.0493C80.4903 86.2573 80.6044 86.4533 80.7368 86.6364C80.8753 86.8155 81.0276 86.9832 81.1983 87.1323C81.3705 87.2801 81.559 87.4082 81.7575 87.5186C81.9586 87.6257 82.1719 87.7062 82.3882 87.7764C82.7399 87.8904 82.9325 88.2679 82.8185 88.6196C82.802 88.6704 82.78 88.718 82.7534 88.7617L82.75 88.7669C82.4749 89.2128 82.3243 89.7132 82.3137 90.2197C82.3197 90.4726 82.3338 90.7272 82.4057 90.972C82.4292 91.0971 82.485 91.214 82.5238 91.3357C82.5827 91.4504 82.6255 91.5724 82.6973 91.6821C82.9508 92.1375 83.3395 92.5272 83.7883 92.8367C84.244 93.1396 84.7678 93.3504 85.3131 93.4714L85.318 93.4726C85.6627 93.5491 85.8801 93.8902 85.8035 94.2348C85.7655 94.4064 85.742 94.5506 85.7603 94.7112L85.7661 94.8313C85.7721 94.871 85.7821 94.9101 85.789 94.9497C85.7977 94.989 85.8023 95.0292 85.8131 95.0681L85.853 95.1836C85.9598 95.4918 86.1561 95.7819 86.4135 96.0286C86.9312 96.5257 87.6675 96.8342 88.4251 96.9431C89.1873 97.0492 89.9891 96.9656 90.6861 96.6747C91.034 96.5295 91.3554 96.3342 91.6251 96.0963C91.8953 95.8587 92.0997 95.5721 92.2296 95.2697L92.2346 95.2582C92.3716 94.9394 92.7411 94.7921 93.0599 94.9291C93.1238 94.9566 93.1826 94.9952 93.2318 95.0391C93.9391 95.675 94.8956 96.0254 95.8507 95.9737C96.8044 95.9418 97.7339 95.5237 98.3819 94.8312C98.7065 94.4871 98.9607 94.0791 99.1218 93.6383C99.286 93.1978 99.3465 92.7239 99.3275 92.2539C99.2739 91.3143 98.8057 90.4148 98.0749 89.8056C97.8138 89.5879 97.7746 89.2029 97.9831 88.9373L97.9866 88.9329C98.2544 88.5925 98.4598 88.2007 98.5789 87.7822C98.6996 87.3651 98.7412 86.9214 98.6966 86.4867C98.6526 86.0534 98.5307 85.628 98.3259 85.2447C98.1234 84.8609 97.8464 84.5168 97.5146 84.2402C97.2473 84.0174 97.2113 83.6202 97.4341 83.3529C97.4417 83.3439 97.4494 83.3352 97.4573 83.3267L97.4592 83.3246C97.895 82.8603 98.2273 82.2841 98.4373 81.6629C98.6479 81.0411 98.7386 80.3732 98.708 79.7096C98.6783 79.0474 98.5326 78.3918 98.2664 77.7947C98.0006 77.1987 97.6122 76.6623 97.1285 76.2607C96.8622 76.0399 96.8248 75.6453 97.0435 75.3779C97.6003 74.6985 97.9657 73.8547 98.11 72.9733C98.2576 72.0908 98.1799 71.1668 97.8981 70.3246C97.7545 69.9046 97.5684 69.4966 97.317 69.1346C97.0713 68.7707 96.7853 68.4312 96.4456 68.1622C96.1093 67.8918 95.7414 67.6594 95.3409 67.5153C94.9414 67.3708 94.5223 67.2948 94.0985 67.2863L94.0899 67.2861C93.8036 67.2803 93.5653 67.0848 93.492 66.8224C93.47 66.7436 93.4343 66.6337 93.402 66.5382C93.3684 66.439 93.332 66.3399 93.2952 66.2408C93.2191 66.0431 93.139 65.8462 93.0512 65.6525C92.8775 65.2645 92.6808 64.8871 92.4616 64.5267C92.0234 63.8063 91.4897 63.154 90.8624 62.6408C90.5504 62.3817 90.2088 62.1695 89.8516 61.9989C89.4938 61.8295 89.1186 61.699 88.728 61.6341C88.3393 61.5643 87.9398 61.5355 87.5368 61.5674C87.134 61.5836 86.7304 61.6696 86.3291 61.7631L86.3165 61.7661C86.0826 61.8207 85.8482 61.7382 85.6976 61.5719C85.6683 61.5394 85.61 61.4798 85.562 61.4336C85.5113 61.3842 85.4584 61.3353 85.4047 61.2871C85.2977 61.1901 85.184 61.0987 85.0697 61.0088C84.8387 60.832 84.5961 60.6714 84.3447 60.5329C83.8422 60.2567 83.3043 60.0661 82.7619 60.0092C82.4908 59.9812 82.2196 59.9853 81.9513 60.0187C81.6829 60.0533 81.4202 60.1288 81.162 60.2223C80.6493 60.4253 80.165 60.7368 79.7256 61.1233C79.465 61.3525 79.0679 61.3271 78.8387 61.0664C78.8165 61.0412 78.7967 61.0147 78.7793 60.9873L78.7617 60.9589L78.7172 60.8875L78.6587 60.8015C78.6185 60.7439 78.5757 60.6858 78.5305 60.6297C78.4413 60.5167 78.3456 60.4073 78.2439 60.3055C78.0423 60.0993 77.8196 59.919 77.5822 59.7749C77.1082 59.4826 76.5763 59.3435 76.0319 59.3785C75.4865 59.4154 74.9387 59.6281 74.4228 59.9253C73.9045 60.2235 73.4164 60.6112 72.939 61.0225L72.9146 61.0435C72.6404 61.2797 72.2267 61.249 71.9904 60.9748C71.929 60.9034 71.8848 60.8195 71.8591 60.7349C71.8482 60.6986 71.8171 60.6152 71.7929 60.551C71.7648 60.4822 71.7366 60.413 71.7028 60.3454C71.6399 60.2082 71.5624 60.0785 71.4839 59.9514C71.3226 59.6997 71.1361 59.4725 70.9189 59.2828C70.8127 59.1823 70.6921 59.1072 70.5712 59.0207L70.3745 58.9211C70.3099 58.8805 70.238 58.8587 70.1662 58.8324C70.0936 58.8094 70.0227 58.7718 69.9451 58.7581L69.7104 58.7033C69.6311 58.6793 69.5482 58.6766 69.4647 58.666C69.3809 58.6566 69.2955 58.6446 69.2078 58.631L69.1771 58.6263C69.0614 58.6083 68.9823 58.4999 69.0002 58.3843C69.0123 58.3062 69.0659 58.2447 69.1348 58.2185C69.4954 58.0823 69.8982 57.9797 70.3181 58.0166C70.7368 58.0316 71.1675 58.1622 71.5379 58.3827C71.9115 58.6001 72.2352 58.8924 72.4941 59.2221C72.6243 59.3869 72.7395 59.5612 72.8425 59.7423C72.8955 59.832 72.943 59.9256 72.9898 60.0199C73.0374 60.1201 73.0751 60.2028 73.1217 60.3365L72.0418 60.049C72.552 59.5596 73.122 59.112 73.7748 58.7601C74.4279 58.4158 75.1662 58.1507 75.9628 58.1152C76.7561 58.0716 77.5753 58.2897 78.2385 58.7032C78.5729 58.9068 78.8731 59.1519 79.1395 59.4237C79.2739 59.5588 79.3989 59.7016 79.517 59.851C79.5765 59.9253 79.6333 60.0019 79.6888 60.0814L79.7711 60.203C79.7998 60.2479 79.8221 60.2819 79.8584 60.3451L78.8945 60.1806C79.4194 59.7189 80.0271 59.3183 80.7111 59.0492C81.0559 58.9224 81.4145 58.8213 81.7843 58.7731C82.1536 58.726 82.5284 58.7211 82.8965 58.7596C83.6347 58.8379 84.3302 59.0907 84.9518 59.4325C85.2632 59.6042 85.5576 59.7995 85.8367 60.0133C85.9752 60.1218 86.1118 60.2322 86.243 60.3508C86.3089 60.4099 86.374 60.4701 86.4384 60.5328C86.5055 60.5985 86.5608 60.6528 86.6392 60.7395L86.0077 60.5482C86.4813 60.4357 86.9626 60.3352 87.4604 60.3131C87.9548 60.2753 88.4609 60.3086 88.9564 60.3983C89.4539 60.4827 89.9381 60.6488 90.3921 60.8643C90.8461 61.0808 91.2736 61.3498 91.6547 61.6652C92.4218 62.293 93.0386 63.0581 93.5352 63.8736C93.7837 64.2821 94.0036 64.7045 94.1977 65.1377C94.2956 65.354 94.3853 65.5739 94.4707 65.7962C94.5123 65.908 94.5533 66.02 94.592 66.1339C94.6314 66.2517 94.6663 66.3556 94.705 66.4933L94.0985 66.0296C94.6725 66.0379 95.2441 66.1419 95.7816 66.3383C96.3205 66.5343 96.8083 66.8392 97.2454 67.1928C97.6864 67.5456 98.0522 67.9768 98.3623 68.4369C98.6782 68.8957 98.9117 69.403 99.0894 69.9241C99.4387 70.9712 99.53 72.0927 99.3501 73.1772C99.1722 74.2613 98.7232 75.3107 98.0149 76.1753L97.9299 75.2925C98.5835 75.8358 99.0781 76.5308 99.4136 77.2814C99.7491 78.0337 99.9274 78.8443 99.9638 79.656C100 80.467 99.8909 81.2879 99.6281 82.0649C99.3653 82.8408 98.9481 83.575 98.3723 84.1883L98.3169 83.2728C98.778 83.6567 99.1597 84.1312 99.4382 84.6596C99.7192 85.1873 99.888 85.7721 99.9474 86.364C100.007 86.9558 99.9519 87.558 99.7862 88.1318C99.6221 88.7057 99.341 89.2455 98.9705 89.7149L98.8822 88.8423C99.3707 89.2524 99.78 89.7597 100.073 90.3308C100.367 90.9013 100.543 91.5355 100.582 92.1772C100.612 92.8175 100.526 93.4669 100.302 94.0704C100.081 94.6741 99.7348 95.2285 99.2965 95.6931C98.4229 96.6277 97.1712 97.1868 95.9004 97.2294C94.63 97.2963 93.3378 96.828 92.3916 95.9737L93.3938 95.7432C93.1803 96.2505 92.8512 96.6902 92.462 97.0338C92.0721 97.3784 91.6303 97.6425 91.167 97.8357C90.2366 98.2204 89.227 98.3218 88.2495 98.1874C87.2745 98.0445 86.3038 97.6586 85.543 96.9351C85.1666 96.5743 84.8488 96.1216 84.6666 95.5982L84.6013 95.4012C84.5828 95.3344 84.5714 95.2652 84.5568 95.1972C84.5434 95.1288 84.5281 95.0606 84.5177 94.9918L84.5018 94.7829C84.4724 94.5049 84.5104 94.2067 84.5676 93.9504L85.058 94.7137C84.3632 94.5697 83.6873 94.3068 83.0793 93.9163C82.4759 93.5217 81.9306 93.005 81.5476 92.3586C81.4447 92.2024 81.3697 92.028 81.2867 91.8592C81.222 91.6815 81.1444 91.5078 81.1024 91.3216C80.9935 90.9563 80.9591 90.5718 80.9588 90.1919C80.9674 89.8112 81.0286 89.43 81.1449 89.0685C81.2614 88.7071 81.4276 88.3652 81.6312 88.0528L81.993 89.0434C81.6868 88.9414 81.3922 88.8063 81.114 88.6427C80.8385 88.4741 80.5794 88.2791 80.3444 88.0564C80.1151 87.8279 79.9078 87.5762 79.7372 87.3002C79.5673 87.0232 79.4388 86.7222 79.3467 86.4125C79.1661 85.7903 79.1626 85.1263 79.3359 84.5239C79.504 83.9194 79.8502 83.3833 80.2965 82.9966C80.3851 82.9199 80.5192 82.9295 80.5959 83.0181C80.6562 83.0877 80.6632 83.1852 80.6206 83.2611L80.6183 83.2647Z" fill="#000072"/>
<path d="M53.6685 79.8511C52.9416 79.9831 52.2888 80.2928 51.8107 80.77C51.3283 81.235 51.0044 81.832 50.8994 82.4524C50.774 83.0699 50.8718 83.7122 51.1263 84.2573C51.383 84.8061 51.8102 85.2657 52.3302 85.5698L52.346 85.5792C52.6647 85.7655 52.7719 86.1749 52.5856 86.4936C52.5847 86.4952 52.5819 86.4998 52.5809 86.5014C52.2098 87.1167 51.9924 87.8413 52.0168 88.5765L52.0263 88.8517L52.0623 89.124C52.0697 89.2158 52.0941 89.3041 52.114 89.3933C52.1362 89.4819 52.1484 89.5736 52.1828 89.6585C52.2829 90.011 52.4547 90.3373 52.651 90.6409C52.8479 90.9458 53.0974 91.2135 53.3772 91.4362C53.6571 91.6573 53.9651 91.8466 54.3002 91.9593C54.6331 92.0761 54.9822 92.1395 55.3357 92.1452C55.6867 92.1472 56.0369 92.085 56.3722 91.9659C56.6566 91.8648 56.9658 91.9816 57.1178 92.2288C57.3585 92.62 57.7137 92.9485 58.1289 93.1748C58.5451 93.401 59.0201 93.5193 59.4987 93.5289C59.9784 93.54 60.4563 93.4401 60.8812 93.2364C61.3058 93.0338 61.678 92.7277 61.9378 92.3525C62.1426 92.0569 62.5483 91.9832 62.844 92.188C62.8737 92.2086 62.9013 92.2313 62.9265 92.2557L62.9405 92.2695C63.3404 92.6615 63.8616 92.8812 64.3852 92.8663C64.9106 92.8565 65.4155 92.6172 65.7946 92.2225C66.1709 91.8271 66.4289 91.2937 66.4933 90.7266C66.5691 90.1589 66.4754 89.5722 66.2128 89.068L66.2057 89.0542C66.0328 88.7222 66.1618 88.3128 66.4938 88.1399C66.5248 88.1238 66.5601 88.1091 66.5922 88.0982C66.9518 87.9781 67.2974 87.7028 67.5609 87.3357C67.8251 86.967 68.0033 86.516 68.1053 86.0438C68.2132 85.5716 68.2579 85.0697 68.2337 84.5622C68.2079 84.0525 68.1157 83.5365 67.9277 82.9984L67.9268 82.9959C67.9085 82.9436 67.9361 82.8864 67.9884 82.8681C68.0208 82.8567 68.0557 82.8635 68.0814 82.8824C68.567 83.2447 68.9179 83.7898 69.119 84.3783C69.3225 84.97 69.3873 85.6107 69.3077 86.2452C69.268 86.5622 69.1958 86.8784 69.0811 87.1835C68.9685 87.4888 68.8299 87.7893 68.6434 88.0693C68.278 88.6253 67.7474 89.1392 67.0392 89.3912L67.4184 88.4214C67.8294 89.1731 68.0023 90.0563 67.8867 90.9008C67.7894 91.7488 67.4126 92.5762 66.7948 93.2007C66.4871 93.5129 66.1188 93.7743 65.7079 93.9552C65.2971 94.1345 64.8443 94.2331 64.3942 94.2298C63.9441 94.2307 63.492 94.1326 63.0843 93.9515C62.6757 93.771 62.3116 93.5106 62.0082 93.2014L63.0108 93.1184C62.5994 93.6798 62.0481 94.1207 61.4315 94.4066C60.8148 94.6937 60.1334 94.8255 59.4632 94.8025C58.7922 94.7821 58.1213 94.6053 57.5269 94.2781C56.9321 93.9537 56.411 93.4778 56.0476 92.8875L56.7932 93.1502C56.3287 93.3156 55.8304 93.4048 55.3322 93.4019C54.8357 93.3961 54.3403 93.3069 53.873 93.1413C53.4028 92.9798 52.9739 92.7204 52.5906 92.4163C52.2072 92.1105 51.8718 91.7468 51.6064 91.3396C51.0646 90.5315 50.7728 89.5712 50.7398 88.609C50.7028 87.6471 50.929 86.6617 51.4205 85.8148L51.6713 86.7462C51.2783 86.5293 50.9238 86.2445 50.6234 85.9115C50.3285 85.5738 50.0869 85.1887 49.9198 84.7735C49.7591 84.3562 49.6595 83.9148 49.6477 83.4723C49.6352 83.0311 49.695 82.5899 49.8262 82.1735C49.9618 81.759 50.1588 81.3673 50.4187 81.0266C50.6841 80.6903 50.9978 80.3992 51.3485 80.1726C52.0472 79.7115 52.8998 79.5441 53.6687 79.6586C53.7219 79.6664 53.7586 79.7159 53.7507 79.7691C53.7444 79.8114 53.7117 79.8433 53.6719 79.8506L53.6685 79.8511Z" fill="#000072"/>
<g opacity="0.3">
<path d="M59.1184 93.2315C60.3277 93.2315 61.3898 92.6605 62.0054 91.7979C62.5095 92.3023 63.1734 92.6115 63.9038 92.6115C65.4767 92.6115 66.7518 91.189 66.7518 89.4342C66.7518 88.8387 66.6022 88.2834 66.3467 87.8072C67.4708 87.4186 68.3017 86.0673 68.3017 84.4551C68.3017 83.9503 68.2185 83.472 68.0722 83.0394C68.1262 83.1167 68.1776 83.1972 68.2262 83.2806C68.1571 83.1616 68.0844 83.0464 68.0044 82.9404L67.8846 82.9138C67.0274 82.7233 66.1857 83.2785 66.0145 84.1397C65.7692 85.3738 64.8575 86.0076 64.0396 86.2904C64.295 86.7667 64.4446 87.3219 64.4446 87.9175C64.4446 89.6723 63.1695 91.0948 61.5966 91.0948C60.8662 91.0948 60.2023 90.7855 59.6982 90.2812C59.0826 91.1438 58.0205 91.7148 56.8113 91.7148C56.5798 91.7148 56.3541 91.6931 56.1355 91.6532C56.732 92.5959 57.843 93.2315 59.1184 93.2315Z" fill="#000072"/>
</g>
<g opacity="0.3">
<path d="M54.8755 91.8366C55.288 91.8366 55.6841 91.7645 56.058 91.6379C56.0582 91.6379 56.0583 91.638 56.0585 91.638C55.0922 91.4404 54.2792 90.8721 53.8065 90.1039C53.4165 90.2425 53.001 90.3199 52.5683 90.3199C52.3008 90.3199 52.0406 90.288 51.788 90.2331C52.5154 91.2097 53.6265 91.8366 54.8755 91.8366Z" fill="#000072"/>
</g>
<path d="M67.7503 59.4054C67.076 60.4236 65.8639 61.252 64.3933 61.9894C64.3933 61.9894 45.5778 70.1575 31.9287 64.5357C22.1372 60.5016 27.2598 47.0178 30.1253 40.4981L30.1578 40.081L30.1627 40.0805C30.5932 35.2585 31.3611 34.0315 31.3611 34.0315C32.3163 34.3558 33.6143 34.2764 34.8841 33.7214C36.4167 33.0549 37.4726 31.8909 37.6941 30.7816C38.2568 32.5441 40.5953 33.7027 43.2574 33.4326C44.8783 33.2681 46.277 32.6077 47.1697 31.7021C48.0904 32.6206 49.438 33.299 51.0005 33.5168C52.4216 33.7166 53.7755 33.4995 54.8671 32.9824C54.8701 33.1591 54.8807 33.3375 54.899 33.5176C55.1941 36.4265 57.3931 38.5937 59.8447 38.4347C59.7978 38.8084 59.7796 39.194 59.7921 39.5866C59.8815 42.1874 61.3238 44.2171 63.167 44.5484C63.0542 45.1805 63.0253 45.854 63.0956 46.5473C63.3202 48.7603 64.4952 50.5879 66.0357 51.4236C65.0663 52.3844 64.5186 53.8159 64.6748 55.3554C64.8718 57.2971 66.1289 58.8521 67.7503 59.4054Z" fill="white"/>
<path d="M43.039 66.5957C39.3076 66.5957 35.4256 66.0791 31.8925 64.6238C29.4879 63.6332 27.8118 61.9966 26.9107 59.7598C25.1883 55.4842 26.209 49.1762 30.0315 40.4745L30.0748 39.9928C30.5037 35.2688 31.2485 34.0315 31.2802 33.9809L31.3203 33.9169L31.3918 33.9412C32.3614 34.2706 33.6528 34.1555 34.8459 33.634C36.2971 33.0028 37.3783 31.876 37.6005 30.763L37.6728 30.4014L37.785 30.7527C38.3383 32.4863 40.6867 33.5977 43.2478 33.3377C44.7842 33.1818 46.1889 32.5613 47.1018 31.6351L47.1691 31.5669L47.237 31.6346C48.1847 32.5801 49.5259 33.2151 51.0137 33.4225C52.3572 33.6114 53.7112 33.4246 54.8263 32.8963L54.9599 32.833L54.9625 32.9809C54.9654 33.1544 54.976 33.3318 54.9939 33.5081C55.2848 36.3747 57.4119 38.4971 59.8386 38.3396L59.9537 38.3322L59.9394 38.4466C59.8928 38.8184 59.8754 39.2009 59.8874 39.5836C59.9731 42.078 61.3595 44.1266 63.1839 44.4547L63.2776 44.4716L63.2609 44.5653C63.1464 45.2065 63.1227 45.8701 63.1905 46.5378C63.4047 48.6487 64.5124 50.4888 66.0811 51.3399L66.194 51.4011L66.1028 51.4915C65.1073 52.4782 64.6214 53.8831 64.7697 55.3459C64.9576 57.197 66.1397 58.7551 67.7812 59.3152L67.8981 59.3551L67.8299 59.4581C67.211 60.3925 66.1325 61.224 64.436 62.0747C64.3841 62.0975 59.645 64.1383 53.2989 65.4641C50.3653 66.0769 46.7778 66.5957 43.039 66.5957ZM30.2466 40.1685L30.2126 40.5365C26.4067 49.196 25.3845 55.4607 27.0877 59.6885C27.9688 61.876 29.6098 63.4771 31.9651 64.4474C38.9923 67.3419 47.4219 66.4965 53.2561 65.2781C59.584 63.9564 64.3083 61.9223 64.3553 61.9019C65.9542 61.0999 66.9917 60.3186 67.6019 59.4536C65.9515 58.8365 64.7708 57.2457 64.58 55.365C64.4302 53.8885 64.9032 52.4677 65.8802 51.4458C64.3153 50.5402 63.2163 48.6803 63.0007 46.5569C62.9345 45.9036 62.9535 45.254 63.0573 44.6241C61.191 44.2294 59.7842 42.1317 59.6968 39.5899C59.6856 39.2356 59.699 38.8816 59.7369 38.5357C59.6863 38.5376 59.6359 38.5385 59.5856 38.5385C57.1687 38.5387 55.0949 36.3922 54.8041 33.5272C54.7906 33.3945 54.7812 33.2611 54.7759 33.1292C53.6537 33.6268 52.3146 33.7979 50.9872 33.6113C49.4939 33.4031 48.1424 32.7739 47.1701 31.8361C46.2259 32.7561 44.8097 33.3709 43.267 33.5275C40.7164 33.786 38.4432 32.7739 37.7104 31.0949C37.3625 32.1669 36.3026 33.2085 34.9222 33.8088C33.7179 34.3352 32.4116 34.4597 31.4077 34.1469C31.2547 34.4569 30.628 35.9425 30.2578 40.0889L30.2466 40.1685Z" fill="#000072"/>
<g opacity="0.3">
<path d="M27.4758 59.6735C27.4705 59.6681 27.4651 59.6628 27.4597 59.6573C27.4651 59.6628 27.4705 59.6681 27.4758 59.6735Z" fill="#000072"/>
<path d="M67.4776 59.299C67.5673 59.3374 67.6579 59.3738 67.7504 59.4054C67.6579 59.3739 67.5675 59.337 67.4776 59.299Z" fill="#000072"/>
<path d="M31.9288 63.2857C45.5779 68.9075 64.3933 60.7395 64.3933 60.7395C65.4096 60.2298 66.3022 59.6766 66.9794 59.0476C66.9797 59.0477 66.98 59.0479 66.9802 59.048C66.4001 58.7079 65.892 58.2327 65.5006 57.6537C64.8469 58.2202 64.0192 58.7255 63.0858 59.1934C63.0858 59.1934 44.2704 67.3615 30.6213 61.7397C29.4784 61.2689 28.5405 60.6683 27.7772 59.9658C28.6791 61.3505 30.0186 62.4987 31.9288 63.2857Z" fill="#000072"/>
<path d="M67.2448 59.1907C67.2854 59.2111 67.326 59.2318 67.3673 59.251C67.3259 59.232 67.2855 59.2109 67.2448 59.1907Z" fill="#000072"/>
<path d="M26.8784 58.9928C26.8963 59.0155 26.9143 59.0381 26.9324 59.0607C26.9144 59.0381 26.8963 59.0155 26.8784 58.9928Z" fill="#000072"/>
<path d="M31.9288 64.5357C37.9003 66.9953 44.8606 66.8153 50.8016 65.8347C44.8606 66.8153 37.9002 66.9953 31.9288 64.5357Z" fill="#000072"/>
<path d="M52.0584 65.6129C51.6451 65.6904 51.226 65.7646 50.8016 65.8347C51.226 65.7646 51.6451 65.6905 52.0584 65.6129Z" fill="#000072"/>
</g>
<path d="M81.4286 38.6103C80.196 41.3499 74.231 41.397 67.5984 38.8944C68.32 35.8597 65.8146 35.4635 65.8146 35.4635C65.8146 35.4635 67.0569 33.802 66.3111 31.7589C65.563 29.7161 62.3052 29.962 62.3052 29.962C63.9265 26.6817 60.8302 24.4658 60.8302 24.4658C63.6046 24.6628 66.9971 25.5476 70.4551 27.1035C77.8725 30.4388 82.7848 35.5911 81.4286 38.6103Z" fill="white"/>
<path d="M76.3023 40.8276C73.8765 40.8276 70.8313 40.2161 67.5648 38.9836L67.4862 38.9539L67.5056 38.8723C67.7377 37.8962 67.6543 37.1004 67.2578 36.5069C66.7287 35.7151 65.8088 35.5592 65.7995 35.5578L65.6441 35.5327L65.7381 35.4065C65.7503 35.3902 66.9401 33.7601 66.2215 31.7916C65.5071 29.8409 62.3438 30.0547 62.3123 30.0571L62.1456 30.0696L62.2196 29.9197C63.7855 26.7517 60.8983 24.632 60.7746 24.5433L60.5006 24.3467L60.837 24.3706C63.729 24.576 67.1586 25.5157 70.4942 27.0165C77.9474 30.3679 82.8915 35.5864 81.5156 38.6493V38.6494C80.8641 40.0974 78.953 40.8276 76.3023 40.8276ZM67.71 38.8344C74.3084 41.3062 80.1605 41.196 81.3416 38.5711V38.5712C82.6744 35.6041 77.7731 30.4987 70.4159 27.1904C67.2158 25.7506 63.9307 24.8305 61.1252 24.5848C61.8162 25.1946 63.6859 27.1749 62.4598 29.8589C63.1418 29.837 65.7248 29.881 66.4006 31.7261C67.0408 33.4799 66.2376 34.976 65.9711 35.4004C66.2681 35.4776 66.962 35.7226 67.4148 36.3986C67.832 37.0213 67.9312 37.8404 67.71 38.8344Z" fill="#000072"/>
<path d="M27.233 35.1832C27.5157 33.923 28.3343 32.947 29.2613 32.1583C28.2021 31.1096 27.6639 29.6265 28.4301 28.2105C25.6768 29.9088 17.7023 35.2271 17.8136 39.7947C17.9186 44.1046 29.4288 39.8977 29.4288 39.8977L29.4282 39.7905C27.9664 38.8501 26.999 37.3028 27.233 35.1832Z" fill="white"/>
<path d="M20.9718 41.8354C19.9634 41.8354 19.0851 41.6798 18.4959 41.2785C17.9956 40.9376 17.7339 40.4391 17.7183 39.7969C17.605 35.1426 25.8503 29.6898 28.3801 28.1294L28.6839 27.942L28.514 28.2559C27.8459 29.4907 28.1503 30.9242 29.3284 32.0905L29.4022 32.1636L29.3231 32.2309C28.2188 33.1705 27.5659 34.1414 27.3273 35.1988C27.1209 37.0824 27.8853 38.6845 29.4797 39.7103L29.5232 39.7383L29.5247 39.9642L29.4616 39.9873C29.1983 40.0835 24.3551 41.8354 20.9718 41.8354ZM28.2038 28.4637C25.4232 30.2069 17.8019 35.3953 17.909 39.7924C17.9233 40.3777 18.1503 40.8122 18.6033 41.1208C20.9616 42.7275 28.487 40.1306 29.3214 39.8349C27.6989 38.7656 26.924 37.1125 27.1382 35.1728L27.1399 35.1623C27.3814 34.0864 28.0299 33.101 29.1215 32.1528C28.0306 31.0297 27.6994 29.678 28.2038 28.4637Z" fill="#000072"/>
<path d="M29.3789 32.0599C29.3396 32.0925 29.3003 32.1251 29.2613 32.1583C29.3008 32.1974 29.3394 32.2372 29.3803 32.2751L29.3789 32.0599Z" fill="white"/>
<path d="M29.4771 32.4946L29.3156 32.3451C29.2853 32.317 29.2562 32.288 29.2271 32.259L29.1202 32.153L29.1996 32.0856C29.239 32.0522 29.2785 32.0192 29.3181 31.9864L29.473 31.8582L29.4771 32.4946Z" fill="#000072"/>
<path d="M20.9919 42.4007C19.8606 42.4007 18.8593 42.2217 18.1722 41.7537C17.5194 41.3089 17.1637 40.6372 17.1436 39.8111C17.001 33.9577 28.5296 27.355 29.0205 27.0769C29.3426 26.8942 29.7516 27.0074 29.934 27.3294C30.1166 27.6514 30.0035 28.0605 29.6816 28.2431C26.5323 30.0292 18.3816 35.5834 18.4837 39.7784C18.4934 40.1759 18.6301 40.4434 18.9269 40.6456C20.5795 41.7718 26.1043 40.3983 29.1989 39.2682C29.5469 39.1411 29.9314 39.3201 30.0585 39.6677C30.1854 40.0154 30.0066 40.4002 29.659 40.5273C28.9942 40.7702 24.4046 42.4004 20.9919 42.4007Z" fill="#000072"/>
<path d="M44.297 57.6076C42.3813 62.7523 39.2467 63.1077 38.4851 61.1286C37.7234 59.1495 36.2059 57.9749 36.2059 57.9749C36.8226 58.0095 37.5648 57.8071 38.4369 57.1653C38.9665 58.6021 42.1085 59.4748 44.297 57.6076Z" fill="#390176"/>
<path d="M40.0443 62.3393C39.2954 62.3393 38.6799 61.9002 38.3961 61.1629C37.6535 59.2332 36.1625 58.0619 36.1476 58.0503L35.9052 57.8626L36.2112 57.8797C36.8848 57.9167 37.6154 57.6514 38.3804 57.0885L38.4825 57.0133L38.5264 57.1323C38.7383 57.7071 39.419 58.2078 40.3028 58.4388C41.6799 58.7985 43.1499 58.4609 44.2352 57.535L44.5146 57.2965L44.3865 57.6408C43.1004 61.0946 41.3056 62.3325 40.0549 62.3393C40.0513 62.3393 40.0478 62.3393 40.0443 62.3393ZM36.4648 58.0708C36.9077 58.469 37.977 59.5426 38.5742 61.0943C38.8321 61.7647 39.3676 62.1486 40.044 62.1486C40.0473 62.1486 40.0505 62.1486 40.0538 62.1486C41.202 62.1423 42.8438 61.0147 44.0833 57.8975C42.9846 58.6976 41.5786 58.9693 40.2545 58.6233C39.3546 58.3881 38.6707 57.9033 38.3952 57.3129C37.7258 57.7858 37.0781 58.0399 36.4648 58.0708Z" fill="#000072"/>
<path d="M41.728 61.4804C42.735 60.8024 43.1903 59.7167 42.745 59.0553C42.2997 58.394 41.1224 58.4075 40.1155 59.0855C39.1085 59.7635 38.6532 60.8492 39.0984 61.5106C39.5437 62.1719 40.721 62.1584 41.728 61.4804Z" fill="#F34743"/>
<path d="M40.1824 62.0887C39.8681 62.0887 39.5828 62.0186 39.3558 61.879C39.0555 61.6942 38.8776 61.4078 38.8411 61.0506C38.7507 60.1633 39.5993 59.0881 40.7328 58.6537C41.3949 58.4 42.0521 58.4099 42.4911 58.6799C42.7914 58.8647 42.9693 59.1511 43.0058 59.5082C43.0961 60.3956 42.2476 61.4709 41.1142 61.9051C40.7945 62.0276 40.4758 62.0887 40.1824 62.0887ZM41.6655 58.6601C41.3957 58.6601 41.0999 58.7172 40.801 58.8317C39.7427 59.2373 38.9486 60.224 39.0309 61.0312C39.0611 61.327 39.208 61.564 39.4558 61.7165C39.8443 61.9555 40.4388 61.9596 41.046 61.7269C42.1041 61.3214 42.8982 60.3348 42.816 59.5275C42.7859 59.2317 42.6389 58.9948 42.3911 58.8422C42.1939 58.7209 41.9435 58.6601 41.6655 58.6601Z" fill="#000072"/>
<path d="M26.4279 57.7281C28.3312 57.5203 29.7699 56.3908 29.6481 55.1905C29.533 54.0555 28.0638 53.2619 26.2925 53.33C26.1495 54.8501 26.1701 56.3393 26.4279 57.7281Z" fill="#FDC1E5"/>
<path d="M52.0302 56.6611C53.9548 56.4659 55.4157 55.3274 55.293 54.118C55.1704 52.9087 53.5107 52.0866 51.586 52.2818C49.6613 52.477 48.2005 53.6156 48.3231 54.8249C48.4458 56.0342 50.1055 56.8563 52.0302 56.6611Z" fill="#FDC1E5"/>
<path d="M40.0452 62.9133C39.0489 62.9133 38.2329 62.3368 37.8603 61.3684C37.1798 59.6003 35.8088 58.515 35.7951 58.5042C35.5039 58.2767 35.4511 57.856 35.6778 57.5641C35.9046 57.2724 36.3239 57.2186 36.6164 57.4447C36.6845 57.4973 38.2919 58.7575 39.1114 60.8869C39.232 61.2002 39.4918 61.5729 40.0453 61.5729C40.0477 61.5729 40.0499 61.5729 40.0523 61.5729C41.0028 61.5674 42.5211 60.4629 43.6718 57.3678C43.8008 57.0209 44.1865 56.8441 44.5337 56.9732C44.8807 57.1022 45.0574 57.4881 44.9283 57.8351C43.7501 61.0042 41.9301 62.9027 40.06 62.9134C40.055 62.9133 40.0501 62.9133 40.0452 62.9133Z" fill="#000072"/>
<path d="M36.3459 58.6513C36.1096 58.6513 35.8761 58.6237 35.6458 58.5685C34.1346 58.2061 33.3977 56.765 33.367 56.7039C33.2013 56.3728 33.3353 55.9701 33.6662 55.8044C33.9964 55.639 34.3977 55.7717 34.5643 56.1008C34.5776 56.1261 35.073 57.0578 35.9673 57.267C36.5735 57.4088 37.2704 57.1931 38.0389 56.6259C38.3368 56.4063 38.7564 56.4693 38.9762 56.7672C39.1961 57.0651 39.1328 57.4848 38.835 57.7046C37.9814 58.3345 37.1472 58.6513 36.3459 58.6513Z" fill="#000072"/>
<path d="M41.4082 59.3448C41.107 59.3448 40.8027 59.3184 40.4979 59.2646C39.1762 59.0313 38.1454 58.3154 37.8077 57.3964C37.1498 55.606 37.7726 54.1019 37.7994 54.0387C37.9441 53.6981 38.3378 53.5392 38.6784 53.684C39.0179 53.8281 39.1768 54.2193 39.0348 54.5591C39.0251 54.5832 38.6001 55.6661 39.066 56.9341C39.2016 57.303 39.7804 57.7766 40.7311 57.9444C42.0841 58.1837 43.4306 57.6892 44.3322 56.6225C44.5711 56.3397 44.9941 56.3041 45.2768 56.5432C45.5596 56.7822 45.595 57.2051 45.3561 57.4878C44.3451 58.6841 42.9151 59.3447 41.4082 59.3448Z" fill="#000072"/>
<path d="M43.0063 52.1614C42.9456 51.947 42.7533 51.6635 42.1827 51.5296C41.3117 51.3251 40.4244 51.9901 39.6417 52.5768C39.1273 52.9627 38.5456 53.4027 38.2223 53.3549C37.7644 53.2909 37.0174 52.8445 36.1731 52.1306C35.9079 51.9061 35.5435 51.8529 35.2216 51.9908C34.9046 52.1271 34.696 52.4241 34.677 52.7653C34.6545 53.1698 34.8359 53.5881 35.1622 53.8843C35.6026 54.2836 36.2361 54.156 36.6626 53.9626C36.9639 54.1752 37.5615 54.5544 38.135 54.671C38.2244 54.6889 38.3254 54.6911 38.4356 54.6799C39.2464 54.5976 40.5406 53.7979 41.1109 53.4214C41.7879 53.5499 42.4209 53.2883 42.7445 52.9665C42.9874 52.7249 43.0829 52.4316 43.0063 52.1614Z" fill="#390176"/>
<path d="M38.3071 54.782C38.2385 54.782 38.1747 54.7761 38.1163 54.7644C37.5534 54.65 36.9734 54.2939 36.6519 54.0714C36.3237 54.2109 35.6155 54.4239 35.0981 53.9549C34.7507 53.6396 34.5578 53.1929 34.5819 52.76C34.6028 52.3822 34.8335 52.0538 35.1839 51.9031C35.5396 51.751 35.9422 51.8103 36.2347 52.0578C37.0657 52.7604 37.7949 53.1988 38.2354 53.2604C38.5165 53.3014 39.0982 52.8654 39.5656 52.5145L39.5844 52.5005C40.3838 51.9012 41.2895 51.2223 42.2045 51.4366C42.8204 51.5812 43.0304 51.8964 43.0981 52.1353C43.1843 52.4398 43.0799 52.7674 42.8117 53.034C42.4786 53.3653 41.8332 53.641 41.1314 53.5219C40.4572 53.9648 39.2432 54.6938 38.4451 54.7747C38.3973 54.7796 38.3512 54.782 38.3071 54.782ZM36.673 53.8531L36.7176 53.8846C37.0157 54.0949 37.5988 54.4645 38.154 54.5774C38.2312 54.5929 38.3228 54.5955 38.4258 54.5849C39.2248 54.5039 40.5329 53.6885 41.0582 53.3418L41.0906 53.3204L41.1286 53.3277C41.7763 53.4507 42.3734 53.2008 42.6773 52.8988C42.8949 52.6824 42.9813 52.4231 42.9145 52.1874C42.8608 51.9977 42.6865 51.7457 42.1609 51.6224C41.3335 51.4277 40.4648 52.0789 39.6989 52.6531L39.6802 52.6671C39.133 53.0777 38.5682 53.5014 38.2083 53.4493C37.7338 53.3828 36.9693 52.9287 36.1115 52.2034C35.8745 52.0026 35.5479 51.9548 35.2592 52.0783C34.9759 52.2002 34.7893 52.4655 34.7723 52.7705C34.7514 53.1466 34.9211 53.5365 35.2263 53.8135C35.6879 54.2322 36.3569 53.9962 36.6233 53.8756L36.673 53.8531Z" fill="#000072"/>
<path d="M21.2463 38.8233C20.6955 39.6155 27.4477 38.4299 27.4477 38.4299C26.1655 36.298 26.4661 34.427 28.1711 32.7874C28.1711 32.7874 23.7477 35.2253 21.2463 38.8233Z" fill="#F883A0"/>
<path d="M22.0574 39.1859C21.5705 39.1859 21.2303 39.1349 21.148 39.0062C21.1221 38.9656 21.0902 38.8807 21.168 38.7688C23.6534 35.1938 28.0805 32.7284 28.125 32.7039L28.7587 32.3547L28.2371 32.8562C26.5189 34.5086 26.2874 36.3157 27.5294 38.3808L27.6011 38.4998L27.4642 38.5238C26.4112 38.7088 23.5474 39.1859 22.0574 39.1859ZM21.3246 38.8778C21.3103 38.8982 21.3097 38.9075 21.3097 38.9076C21.4711 39.1834 24.5151 38.8417 27.2956 38.3597C26.2166 36.4874 26.3317 34.7606 27.6363 33.2167C26.3552 34.0104 23.2492 36.1094 21.3246 38.8778Z" fill="#000072"/>
<g opacity="0.2">
<path d="M23.9056 37.996C23.3548 38.7883 30.107 37.6027 30.107 37.6027C28.8248 35.4708 29.1254 33.5998 30.8304 31.9602C30.8304 31.9602 26.407 34.398 23.9056 37.996Z" fill="#000072"/>
</g>
<path d="M22.112 39.6617C21.0008 39.6617 20.8538 39.4315 20.7462 39.2629C20.5977 39.0306 20.6093 38.737 20.7764 38.4967C23.325 34.8309 27.7095 32.3884 27.8949 32.2863C28.1715 32.1337 28.5195 32.2344 28.6721 32.5111C28.8247 32.7878 28.7241 33.1358 28.4475 33.2886C28.407 33.3108 24.6229 35.4215 22.1794 38.5252C23.2818 38.4883 25.4647 38.1972 27.3487 37.8663C27.6602 37.8115 27.9566 38.0197 28.0114 38.331C28.066 38.6423 27.8579 38.9389 27.5466 38.9936C24.6764 39.4975 23.0505 39.6617 22.112 39.6617Z" fill="#000072"/>
<path d="M29.0207 32.9177C28.6779 32.9177 28.3855 32.6561 28.354 32.308C28.3204 31.9394 28.5921 31.6134 28.9608 31.5799C29.3272 31.545 29.6567 31.8178 29.6902 32.1866C29.7237 32.5552 29.4533 32.8812 29.0846 32.9146L29.0821 32.9148C29.0615 32.9168 29.041 32.9177 29.0207 32.9177Z" fill="#000072"/>
<path d="M76.725 37.0136C76.7066 38.6506 72.876 38.5083 68.171 36.7C67.8571 36.5798 67.5478 36.4542 67.2434 36.328C66.6785 35.6002 65.8146 35.4635 65.8146 35.4635C65.8146 35.4635 67.0568 33.802 66.3111 31.7589C65.563 29.7161 62.3052 29.962 62.3052 29.962C62.4088 29.7545 62.4926 29.5491 62.5597 29.3504C64.0715 29.4612 66.0568 29.9402 68.2305 30.7766C72.9383 32.5871 76.7411 35.3792 76.725 37.0136Z" fill="#F883A0"/>
<path d="M74.4895 38.7189C72.8113 38.7189 70.4998 38.2081 67.9656 37.2342C67.6897 37.1285 67.3992 37.012 67.0243 36.8567C66.9326 36.8187 66.8522 36.7574 66.7913 36.6789C66.3794 36.1482 65.7275 36.0292 65.7209 36.028C65.525 35.9938 65.3585 35.86 65.2851 35.6752C65.2116 35.4903 65.2372 35.2802 65.3563 35.1209C65.3976 35.0644 66.3991 33.6688 65.7735 31.9551C65.1906 30.3638 62.3765 30.5303 62.3482 30.5326C62.142 30.5495 61.9449 30.452 61.8301 30.281C61.7152 30.1101 61.7012 29.8906 61.7932 29.7063C61.88 29.5326 61.9554 29.3513 62.0174 29.1674C62.1009 28.92 62.3405 28.7594 62.6015 28.7797C64.2207 28.8984 66.2928 29.4178 68.4359 30.2425C72.7476 31.9006 77.3187 34.8392 77.2972 37.0192C77.2972 37.0195 77.2972 37.0198 77.2972 37.02C77.2915 37.5241 77.058 37.947 76.6217 38.2431C76.1505 38.563 75.4166 38.7189 74.4895 38.7189ZM67.5933 35.8534C67.8964 35.9782 68.1418 36.0761 68.3756 36.1657C72.2611 37.6588 75.1415 37.8647 75.979 37.2962C76.1216 37.1994 76.1516 37.1107 76.1528 37.0072C76.1618 35.9369 73.0751 33.2528 68.025 31.3107C67.4637 31.0947 66.9088 30.9008 66.368 30.7309C66.5657 30.9656 66.7305 31.2403 66.8484 31.5622C67.4013 33.0768 67.0058 34.3976 66.652 35.1488C66.9525 35.2931 67.2971 35.5156 67.5933 35.8534Z" fill="#000072"/>
<g opacity="0.2">
<path d="M73.672 36.4136C73.6548 37.9492 70.0616 37.8157 65.6481 36.1195C65.3538 36.0068 65.0635 35.8889 64.778 35.7705C64.2481 35.0878 63.4378 34.9596 63.4378 34.9596C63.4378 34.9596 64.6031 33.4011 63.9036 31.4847C63.2017 29.5685 60.1459 29.7991 60.1459 29.7991C60.243 29.6045 60.3217 29.4118 60.3846 29.2253C61.8027 29.3293 63.665 29.7787 65.7039 30.5631C70.12 32.2614 73.6872 34.8806 73.672 36.4136Z" fill="#000072"/>
</g>
<path d="M76.2916 41.3899C75.6021 41.3899 74.8631 41.3427 74.0793 41.2467C72.0037 40.9917 69.681 40.3952 67.3621 39.5215C67.0463 39.4026 66.8682 39.0675 66.9463 38.7393C67.1385 37.931 67.0846 37.2908 66.7863 36.8363C66.4047 36.2549 65.7109 36.1258 65.7039 36.1246C65.4748 36.084 65.2801 35.9269 65.1944 35.7106C65.1089 35.4942 65.1384 35.2484 65.2777 35.0621C65.3172 35.0081 66.288 33.6504 65.6814 31.9888C65.1271 30.4749 62.3823 30.6283 62.3543 30.6304C62.115 30.6475 61.8834 30.5352 61.7494 30.3358C61.6153 30.1363 61.5977 29.8804 61.7042 29.6649C63.0577 26.9268 60.5476 25.0878 60.4401 25.0108C60.196 24.8362 60.0978 24.5206 60.1997 24.2383C60.3015 23.9559 60.5789 23.7762 60.8781 23.7972C61.8038 23.8635 62.7755 24 63.7663 24.2028C65.9967 24.6541 68.4052 25.4459 70.7302 26.4923C74.3942 28.1398 77.5859 30.278 79.717 32.5128C81.99 34.8965 82.8149 37.1594 82.0399 38.8848C82.0399 38.8848 82.0399 38.8848 82.0399 38.8849C81.3073 40.5155 79.2586 41.3899 76.2916 41.3899ZM68.3599 38.46C70.4034 39.1916 72.4267 39.693 74.2424 39.9161C77.7228 40.3418 80.1809 39.7513 80.8171 38.3355C81.3462 37.1577 80.5916 35.3726 78.7469 33.438C76.7326 31.3257 73.6902 29.2931 70.1802 27.7149C67.9447 26.7087 65.6345 25.9486 63.499 25.5165C63.1874 25.4527 62.8783 25.3959 62.5724 25.3463C63.2465 26.357 63.7062 27.7348 63.2715 29.3089C64.4549 29.4075 66.3215 29.8381 66.9405 31.5284C67.4838 33.0168 67.1299 34.3228 66.7802 35.1033C67.1507 35.2943 67.5713 35.5992 67.8925 36.0787C68.3255 36.7251 68.4819 37.5242 68.3599 38.46Z" fill="#000072"/>
<path d="M30.126 41.1683C30.1098 41.1683 30.0934 41.1677 30.0769 41.1666C29.7077 41.1398 29.4301 40.8188 29.4568 40.4496C29.4676 40.3002 29.4816 40.1559 29.4958 40.0139C29.5326 39.6455 29.8602 39.3755 30.2294 39.4135C30.5977 39.4503 30.8665 39.7787 30.8297 40.1471C30.8167 40.2772 30.8038 40.4096 30.7939 40.5465C30.7683 40.8992 30.4742 41.1683 30.126 41.1683Z" fill="#000072"/>
<path d="M43.0408 67.1699C39.2423 67.1699 35.2842 66.6426 31.6735 65.1555C29.1204 64.1035 27.3386 62.3605 26.3775 59.9746C24.6003 55.5629 25.6102 49.1378 29.4659 40.3328L29.4895 40.029C29.4919 39.9988 29.4962 39.9692 29.5023 39.9403C29.9361 35.1635 30.7061 33.8146 30.7929 33.6759C30.9578 33.4124 31.2823 33.2968 31.5766 33.3968C32.4143 33.681 33.5503 33.5729 34.6156 33.1072C35.8807 32.5571 36.8532 31.57 37.0368 30.6505C37.0966 30.3508 37.3515 30.1295 37.6566 30.1124C37.9611 30.096 38.2398 30.2868 38.3326 30.5778C38.8053 32.0582 40.8938 32.9994 43.1897 32.7657C44.5952 32.6231 45.8718 32.064 46.6923 31.2316C46.8176 31.1045 46.9884 31.0325 47.1668 31.0318C47.1678 31.0318 47.1688 31.0318 47.1697 31.0318C47.3471 31.0318 47.5174 31.1022 47.6431 31.2275C48.5029 32.0855 49.7281 32.6627 51.093 32.8531C52.3271 33.0263 53.5653 32.8574 54.5802 32.3767C54.7858 32.2792 55.0273 32.2928 55.2207 32.4131C55.4142 32.5332 55.5334 32.7434 55.5373 32.9712C55.5399 33.1286 55.5495 33.2896 55.5658 33.4499C55.821 35.9647 57.7237 37.901 59.8013 37.7659C60.0015 37.7541 60.1957 37.8297 60.3327 37.9752C60.4697 38.1207 60.5346 38.3197 60.5098 38.5181C60.4669 38.8601 60.4509 39.2126 60.462 39.5654C60.5385 41.7894 61.726 43.6084 63.2857 43.8887C63.6497 43.9542 63.8919 44.3021 63.8269 44.6662C63.7218 45.2549 63.7001 45.8651 63.7625 46.4796C63.9578 48.4041 64.9513 50.0727 66.3553 50.8344C66.5416 50.9355 66.6692 51.1189 66.6992 51.3287C66.7292 51.5386 66.6582 51.7503 66.5075 51.8996C65.6358 52.7637 65.2109 53.9986 65.3417 55.2877C65.5069 56.916 66.5374 58.2832 67.9668 58.771C68.1634 58.8381 68.3178 58.9926 68.3848 59.1891C68.4518 59.3858 68.4239 59.6023 68.3092 59.7755C67.6326 60.797 66.4837 61.6909 64.6937 62.5885C64.6828 62.5941 64.6715 62.5993 64.6602 62.6042C64.4655 62.6887 59.8199 64.6888 53.4165 66.0268C50.4518 66.6462 46.8254 67.1699 43.0408 67.1699ZM30.8198 40.213L30.7936 40.5501C30.7878 40.6252 30.7693 40.6988 30.739 40.7678C29.3642 43.8959 25.1804 53.4153 27.6209 59.4737C28.4421 61.5122 29.9773 63.0067 32.1842 63.9158C39.0694 66.7517 47.367 65.9186 53.1156 64.7201C59.2057 63.4506 63.8021 61.513 64.1103 61.3814C65.2515 60.8078 66.1005 60.2379 66.6804 59.6542C65.2089 58.8133 64.1922 57.2381 64.0079 55.4231C63.865 54.0142 64.2332 52.6487 65.029 51.5672C63.6095 50.485 62.6363 48.6592 62.4287 46.6149C62.3751 46.0857 62.3734 45.5584 62.4235 45.0402C60.5378 44.3591 59.2122 42.2276 59.1222 39.6096C59.1167 39.436 59.1167 39.2626 59.1222 39.0903C56.7116 38.8486 54.6966 36.7384 54.2753 33.929C53.2277 34.2531 52.0618 34.3431 50.9071 34.1806C49.4882 33.9827 48.1838 33.429 47.1692 32.6027C46.1565 33.4141 44.7905 33.9507 43.325 34.0995C41.0191 34.3336 38.9088 33.5905 37.7712 32.2557C37.2003 33.1016 36.2803 33.8451 35.1514 34.3361C34.0008 34.8391 32.796 35.0067 31.7539 34.8215C31.5204 35.4986 31.1053 37.0607 30.8304 40.1401C30.8282 40.1648 30.8246 40.1891 30.8198 40.213Z" fill="#000072"/>
<path d="M72.8692 49.7656C72.8692 49.7656 77.0291 55.929 70.1541 58.5783C70.1541 58.5783 70.4976 64.0272 64.3933 61.9894C65.8639 61.252 67.076 60.4236 67.7504 59.4054C66.1289 58.8521 64.8719 57.2972 64.6748 55.3554C64.5186 53.8159 65.0663 52.3844 66.0357 51.4236C64.4952 50.5879 63.3202 48.7604 63.0956 46.5473C63.0253 45.854 63.0542 45.1806 63.1671 44.5484C61.3238 44.2171 59.8815 42.1873 59.7921 39.5866C59.7797 39.194 59.7979 38.8084 59.8447 38.4347C57.3931 38.5937 55.1941 36.4265 54.899 33.5176C54.8807 33.3375 54.8701 33.1591 54.8671 32.9824C53.7755 33.4995 52.4216 33.7166 51.0005 33.5168C49.438 33.299 48.0904 32.6207 47.1697 31.7021C46.277 32.6077 44.8784 33.2681 43.2574 33.4326C40.5953 33.7027 38.2568 32.5441 37.6941 30.7817C37.4727 31.8909 36.4167 33.0549 34.8841 33.7214C33.6144 34.2764 32.3163 34.3558 31.3611 34.0315C31.3611 34.0315 30.5932 35.2585 30.1627 40.0805L30.1578 40.081C28.3398 39.8018 26.8662 38.3237 26.672 36.4091C26.49 34.6155 27.4828 32.9768 29.0215 32.2474C27.9283 30.5138 28.5154 28.0214 30.435 26.5255C31.9755 25.3223 33.9282 25.1117 35.3708 25.8427C35.3693 22.9041 37.729 20.3665 40.8821 20.0466C43.2975 19.8015 45.5205 20.9269 46.6912 22.7623C47.151 20.9061 48.7303 19.4472 50.7436 19.2429C52.7692 19.0374 54.6207 20.1631 55.4361 21.9099C56.3739 21.1293 57.84 20.7163 59.4247 20.907C61.9729 21.2093 63.7154 22.685 63.6319 24.8596C62.6468 24.6579 61.709 24.5288 60.8302 24.4659C60.8302 24.4659 63.9265 26.6817 62.3051 29.962C62.3051 29.962 65.563 29.7162 66.3111 31.759C67.0568 33.802 65.8146 35.4636 65.8146 35.4636C65.8146 35.4636 68.32 35.8599 67.5984 38.8943C69.9283 39.7721 72.1717 40.3371 74.1607 40.5815L74.1509 40.6573C74.2625 41.7576 73.8848 42.8005 73.1878 43.5965C74.3414 44.0578 75.1897 45.0485 75.3138 46.2722C75.4709 47.8192 74.4235 49.239 72.8692 49.7656Z" fill="#FFEBF7"/>
<g opacity="0.3">
<path d="M71.4961 57.7003C69.6723 57.1284 68.2668 55.4971 68.059 53.4498C67.8943 51.8266 68.5223 50.312 69.6222 49.2912C67.8918 48.4207 66.5807 46.5011 66.344 44.1677C66.2698 43.4367 66.3073 42.7259 66.4393 42.0581C64.3638 41.7221 62.753 39.5912 62.6714 36.8477C62.6603 36.4336 62.6837 36.0265 62.7393 35.632C59.9745 35.8178 57.5116 33.5474 57.2004 30.4804C57.1811 30.2904 57.1704 30.1022 57.1684 29.9159C55.934 30.4695 54.4062 30.7087 52.8056 30.5084C51.0459 30.2901 49.5317 29.5843 48.5006 28.6218C47.4876 29.5841 45.906 30.2912 44.0775 30.4767C41.0745 30.7814 38.447 29.5763 37.8257 27.7208C37.5678 28.8928 36.3689 30.1288 34.6363 30.8434C33.2008 31.4385 31.7369 31.5318 30.6625 31.1967C30.6625 31.1967 25.965 32.8192 26.669 36.3606C26.6705 36.3768 26.6704 36.3929 26.672 36.4092C26.8663 38.3237 28.3399 39.8018 30.1579 40.081L30.1628 40.0805C30.5933 35.2585 31.3612 34.0316 31.3612 34.0316C31.6372 34.1253 31.9426 34.1842 32.267 34.2087C32.0206 34.19 31.7852 34.1516 31.5654 34.0928C31.8029 33.2321 31.9862 32.9379 31.9862 32.9379C32.9413 33.2622 34.2394 33.1828 35.5092 32.6277C36.3892 32.245 37.1109 31.698 37.6088 31.0917C37.6435 30.9883 37.6736 30.8847 37.6942 30.7817C37.7254 30.8795 37.7629 30.975 37.8048 31.0689C37.7829 31.02 37.7623 30.9706 37.7433 30.9205C38.0384 30.5211 38.2368 30.1008 38.3192 29.688C38.8819 31.4505 41.2203 32.6091 43.8824 32.339C45.5034 32.1745 46.902 31.5141 47.7947 30.6085C48.7155 31.5271 50.063 32.2054 51.6256 32.4232C53.0467 32.623 54.4006 32.4059 55.4922 31.8888C55.4952 32.0655 55.5058 32.2439 55.5241 32.424C55.8192 35.3328 58.0182 37.5001 60.4698 37.3411C60.423 37.7147 60.4048 38.1004 60.4172 38.493C60.5066 41.0937 61.9489 43.1234 63.7921 43.4548C63.6793 44.0869 63.6504 44.7604 63.7207 45.4537C63.9453 47.6667 65.1203 49.4942 66.6608 50.33C66.3625 50.6255 66.1046 50.966 65.8944 51.3401C65.7109 51.2316 65.5329 51.1088 65.3615 50.973C65.5769 51.1439 65.8014 51.2965 66.0358 51.4237C65.64 51.816 65.3161 52.2877 65.0801 52.8122C65.2304 52.4786 65.4165 52.1663 65.6343 51.8825C65.3419 52.603 65.2141 53.4158 65.2999 54.2618C65.4969 56.2035 66.754 57.7585 68.3754 58.3118C68.1417 58.6647 67.8422 58.9942 67.4909 59.3056C67.4079 59.271 67.3265 59.2327 67.2459 59.1927C67.4097 59.2738 67.5774 59.3465 67.7504 59.4055C67.0761 60.4237 65.864 61.2521 64.3934 61.9895C67.6065 63.0621 69.032 62.0602 69.6626 60.8707C69.0816 60.8091 70.426 60.6953 69.6875 60.4688C70.6169 60.028 69.4551 59.5388 70.1482 59.0214C70.1644 58.7514 70.1541 58.5784 70.1541 58.5784C70.5138 58.4398 70.8415 58.2911 71.143 58.1347C71.2708 57.9932 71.3904 57.849 71.4961 57.7003Z" fill="#000072"/>
</g>
<path d="M66.8299 63.1161C66.0459 63.1161 65.1617 62.9526 64.1811 62.6252C63.9241 62.5394 63.7441 62.3074 63.7248 62.0372C63.7055 61.767 63.8507 61.5117 64.0929 61.3903C65.2428 60.8136 66.0975 60.2408 66.6804 59.6542C65.2089 58.8133 64.1922 57.2382 64.008 55.4231C63.865 54.0142 64.2332 52.6487 65.029 51.5672C63.6096 50.485 62.6363 48.6592 62.4287 46.6149C62.3751 46.0857 62.3734 45.5584 62.4235 45.0402C60.5379 44.3591 59.2122 42.2276 59.1222 39.6096C59.1167 39.436 59.1167 39.2626 59.1222 39.0903C56.7116 38.8486 54.6966 36.7384 54.2753 33.929C53.2278 34.2532 52.062 34.3432 50.9071 34.1806C49.4882 33.9827 48.1838 33.429 47.1692 32.6027C46.1565 33.4141 44.7905 33.9507 43.3251 34.0995C41.0191 34.3336 38.9088 33.5905 37.7712 32.2557C37.2003 33.1016 36.2803 33.8451 35.1515 34.3361C34.0008 34.8391 32.796 35.0067 31.7539 34.8215C31.5205 35.4986 31.1053 37.0607 30.8304 40.1401C30.8016 40.4624 30.5466 40.7182 30.2244 40.7479C30.1698 40.753 30.1101 40.7518 30.0561 40.7435C27.8921 40.4113 26.2263 38.6567 26.0051 36.4768C25.8237 34.6881 26.6619 32.9605 28.131 31.983C27.302 30.0037 28.0441 27.5391 30.023 25.9968C31.443 24.8876 33.219 24.4974 34.7708 24.9033C35.2098 22.0023 37.661 19.6997 40.8145 19.3797C42.9568 19.1625 45.0667 19.9464 46.4858 21.4236C47.3028 19.8551 48.8681 18.7594 50.6759 18.576C52.666 18.3745 54.5808 19.3074 55.6611 20.943C56.7273 20.3331 58.109 20.0738 59.5047 20.2414C62.5129 20.5982 64.3963 22.4212 64.3017 24.8852C64.2942 25.0819 64.2006 25.2653 64.0457 25.3868C63.8908 25.5083 63.6903 25.5557 63.4976 25.5162C63.1866 25.4525 62.8779 25.3958 62.5724 25.3462C63.2465 26.3569 63.7062 27.7348 63.2715 29.3089C64.455 29.4076 66.3215 29.8382 66.9405 31.5284C67.4838 33.0168 67.1299 34.3228 66.7803 35.1033C67.1507 35.2944 67.5713 35.5992 67.8926 36.0787C68.3255 36.7251 68.4819 37.5241 68.3599 38.46C70.4035 39.1916 72.4267 39.693 74.2424 39.9161C74.4196 39.9379 74.5807 40.0293 74.6901 40.1703C74.7996 40.3112 74.8483 40.49 74.8255 40.667L74.8251 40.6694C74.9045 41.6169 74.6813 42.5472 74.1881 43.3618C75.1979 44.0144 75.8634 45.0484 75.9808 46.2046C76.141 47.7832 75.2765 49.284 73.8218 50.0778C74.3667 51.134 75.2036 53.2481 74.5455 55.3411C74.0434 56.9382 72.7908 58.1778 70.8193 59.0305C70.7749 59.8287 70.5225 61.4023 69.2792 62.3588C68.6232 62.8634 67.804 63.1161 66.8299 63.1161ZM66.2012 61.7364C67.1621 61.8578 67.9173 61.7125 68.4566 61.3003C69.5749 60.4457 69.4861 58.6365 69.485 58.6184C69.4686 58.3278 69.6415 58.0575 69.9131 57.9529C71.7267 57.2539 72.8544 56.2421 73.2647 54.9454C73.9837 52.6731 72.3297 50.1648 72.3129 50.1397C72.1969 49.9663 72.1677 49.7484 72.2348 49.5509C72.3018 49.3534 72.4565 49.1978 72.6541 49.1309C73.9497 48.6919 74.7692 47.5442 74.647 46.34C74.5532 45.4154 73.8987 44.6027 72.939 44.2189C72.737 44.1381 72.5869 43.9645 72.5361 43.753C72.4853 43.5416 72.5402 43.3186 72.6835 43.155C73.1863 42.5806 73.4676 41.8877 73.4973 41.1673C71.5743 40.8791 69.4667 40.3145 67.3621 39.5216C67.0463 39.4026 66.8682 39.0675 66.9463 38.7393C67.1385 37.9311 67.0846 37.2909 66.7863 36.8363C66.4047 36.2549 65.7109 36.1259 65.7039 36.1247C65.4748 36.084 65.28 35.927 65.1944 35.7106C65.1089 35.4942 65.1384 35.2485 65.2777 35.0622C65.3172 35.0081 66.288 33.6504 65.6814 31.9888C65.1235 30.4653 62.383 30.6279 62.3555 30.6304C62.1149 30.6484 61.8841 30.5363 61.7494 30.3369C61.6148 30.1373 61.5975 29.8808 61.7042 29.665C63.0476 26.9471 60.5453 25.0874 60.4382 25.0096C60.1961 24.8338 60.0989 24.518 60.2014 24.2368C60.304 23.9557 60.5792 23.776 60.8781 23.7973C61.5286 23.8439 62.2019 23.9252 62.8886 24.0398C62.5232 22.5034 60.8991 21.7569 59.3456 21.5726C58.0012 21.4109 56.7004 21.7296 55.8649 22.4251C55.705 22.5582 55.4927 22.6095 55.2898 22.5641C55.0869 22.5187 54.9166 22.3818 54.8286 22.1935C54.1112 20.6565 52.4968 19.7388 50.8112 19.9098C49.1406 20.0793 47.7463 21.2904 47.3418 22.9234C47.2774 23.1836 47.0641 23.3804 46.7996 23.4238C46.5355 23.4677 46.2703 23.3488 46.1261 23.1228C45.0581 21.4485 43.0256 20.5029 40.9498 20.7135C38.1499 20.9976 36.0397 23.2025 36.0411 25.8424C36.0411 26.0755 35.9203 26.2918 35.7218 26.4138C35.5232 26.5356 35.2755 26.546 35.0678 26.4407C33.8019 25.7993 32.1454 26.0401 30.8475 27.0539C29.2272 28.3165 28.6744 30.4406 29.5883 31.8899C29.6906 32.0521 29.7185 32.2503 29.6651 32.4344C29.6116 32.6186 29.4817 32.7709 29.3085 32.8531C27.9825 33.4817 27.1908 34.8836 27.3388 36.3415C27.4738 37.6731 28.356 38.7845 29.5708 39.239C30.0124 35.0295 30.7104 33.8077 30.7928 33.6759C30.9577 33.4124 31.2822 33.2968 31.5765 33.3968C32.4142 33.681 33.5502 33.5729 34.6155 33.1072C35.8806 32.5571 36.8531 31.57 37.0367 30.6505C37.0965 30.3508 37.3514 30.1295 37.6565 30.1124C37.961 30.096 38.2396 30.2868 38.3325 30.5778C38.8051 32.0582 40.893 32.9994 43.1896 32.7657C44.5951 32.6231 45.8717 32.064 46.6922 31.2316C46.8175 31.1045 46.9883 31.0325 47.1667 31.0318C47.1676 31.0318 47.1686 31.0318 47.1696 31.0318C47.347 31.0318 47.5173 31.1022 47.643 31.2276C48.5028 32.0855 49.7281 32.6627 51.0929 32.8531C52.3272 33.0265 53.5653 32.8573 54.5801 32.3767C54.786 32.2791 55.0273 32.293 55.2206 32.4131C55.4141 32.5332 55.5333 32.7434 55.5371 32.9712C55.5398 33.1286 55.5494 33.2897 55.5658 33.4499C55.8209 35.9647 57.7236 37.901 59.8012 37.7659C60.0007 37.7534 60.1955 37.8297 60.3326 37.9752C60.4696 38.1207 60.5346 38.3197 60.5097 38.5181C60.4668 38.8602 60.4508 39.2126 60.462 39.5654C60.5384 41.7894 61.7259 43.6084 63.2856 43.8887C63.6496 43.9542 63.8918 44.3022 63.8268 44.6662C63.7217 45.2549 63.7 45.8651 63.7624 46.4796C63.9577 48.4041 64.9512 50.0727 66.3552 50.8344C66.5416 50.9355 66.6691 51.1189 66.6991 51.3287C66.7291 51.5386 66.6581 51.7503 66.5075 51.8997C65.6357 52.7636 65.2108 53.9986 65.3416 55.2877C65.5069 56.916 66.5373 58.2832 67.9667 58.771C68.1634 58.8381 68.3177 58.9926 68.3848 59.1892C68.4517 59.3858 68.4238 59.6023 68.3091 59.7755C67.8459 60.475 67.1614 61.1145 66.2012 61.7364Z" fill="#000072"/>
<path d="M33.9755 40.2443C31.8929 40.0921 30.068 42.2035 29.8994 44.9602C29.7309 47.7168 31.2826 50.0749 33.3652 50.2271C35.4478 50.3793 37.2728 48.268 37.4413 45.5112C37.6098 42.7546 36.0581 40.3965 33.9755 40.2443Z" fill="#000072"/>
<path d="M33.8799 41.3995C33.2299 41.6645 32.9861 42.6065 33.3354 43.5035C33.6846 44.4004 34.4946 44.9127 35.1446 44.6477C35.7946 44.3827 36.0384 43.4407 35.6891 42.5438C35.3399 41.6468 34.5299 41.1345 33.8799 41.3995Z" fill="white"/>
<path d="M31.913 47.3576C31.6093 47.5752 31.5937 48.0922 31.8781 48.5123C32.1626 48.9324 32.6394 49.0964 32.943 48.8787C33.2467 48.6611 33.2623 48.1441 32.9779 47.7241C32.6935 47.304 32.2166 47.14 31.913 47.3576Z" fill="#B199C5"/>
<path d="M50.2026 39.5564C48.12 39.4043 46.2951 41.5157 46.1265 44.2723C45.958 47.029 47.5097 49.3871 49.5923 49.5393C51.6749 49.6915 53.4999 47.5801 53.6684 44.8234C53.8369 42.0667 52.2852 39.7086 50.2026 39.5564Z" fill="#000072"/>
<path d="M50.107 40.7117C49.457 40.9767 49.2132 41.9187 49.5625 42.8156C49.9117 43.7126 50.7217 44.2248 51.3717 43.9598C52.0217 43.6948 52.2655 42.7528 51.9162 41.8559C51.567 40.9589 50.757 40.4466 50.107 40.7117Z" fill="white"/>
<path d="M48.1401 46.6697C47.8364 46.8874 47.8208 47.4044 48.1053 47.8244C48.3897 48.2445 48.8665 48.4086 49.1702 48.1909C49.4739 47.9733 49.4895 47.4562 49.205 47.0362C48.9206 46.6162 48.4438 46.4521 48.1401 46.6697Z" fill="#B199C5"/>
<g opacity="0.3">
<path d="M100.781 60.7812C100.781 60.7812 99.8438 67.6562 93.4375 64.5312L93.6719 66.0156L94.1406 66.7969L95.5687 66.9782L97.7016 68.1823L98.2521 69.4552C98.2521 69.4552 98.9273 69.4572 99.1121 69.4552C99.2969 69.4531 99.7657 68.6719 99.7657 68.6719L100.391 66.4844L100.859 65.3906L101.555 63.4004L100.859 61.4844L100.781 60.7812Z" fill="#000072"/>
</g>
</g>
<rect x="0.5" y="0.5" width="124" height="124" stroke="black"/>
<defs>
<clipPath id="clip0_17_1268">
<rect width="125" height="125" fill="white"/>
</clipPath>
</defs>
</svg>
