<?xml version="1.0" encoding="utf-8"?>
<!-- Generator: Adobe Illustrator 27.5.0, SVG Export Plug-In . SVG Version: 6.00 Build 0)  -->
<svg version="1.1" id="Layer_1" xmlns="http://www.w3.org/2000/svg" xmlns:xlink="http://www.w3.org/1999/xlink" x="0px" y="0px"
	 viewBox="0 0 4000 4000" style="enable-background:new 0 0 4000 4000;" xml:space="preserve">
<g>
	<g>
		<g>
			<rect style="fill:#7FFFB6;" width="4000" height="4000"/>
		</g>
	</g>
	<g>
		<g style="opacity:0.25;">
			<g>
				<ellipse style="fill:#1F3A12;" cx="2015.587" cy="3314.421" rx="1345.325" ry="216.517"/>
			</g>
		</g>
		<g>
			<g>
				<path style="fill:#49AF08;" d="M1771.527,3309.176c0,0-218.633,24.714-353.623,3.842s-147.088,26.064-320.188,18.483
					c-96.103-4.153-172.996-54.515-222.371-98.439c-0.052-0.052-0.104-0.052-0.156-0.104
					c-22.585-20.093-39.355-38.836-49.635-51.193c-5.971-7.217-2.025-18.068,7.113-19.833
					c55.813-10.799,130.837,4.206,134.316,4.881c-91.171-65.574-114.586-166.869-120.246-203.888
					c-1.142-7.528,4.776-14.33,12.409-14.018c62.459,2.388,99.27,30.165,99.27,30.165c-8.982-53.841,13.395-90.132,25.596-105.344
					c3.946-4.88,10.955-6.126,16.199-2.648c44.443,29.438,80.216,94.182,80.216,94.182l16.355-33.332
					c3.946-7.996,14.953-9.294,20.456-2.284c29.594,37.694,54.931,105.708,54.931,105.708
					c40.653-87.433,121.128-159.237,121.128-159.237c-57.111-61.005-66.197-129.799-66.197-129.799l77.879,7.788
					c-44.132-85.667,43.716-129.28,43.716-129.28s-178.291-95.688-112.509-259.338c65.782-163.65,352.845-268.683,352.845-268.683
					l160.275,1064.817L1771.527,3309.176z"/>
			</g>
		</g>
		<g style="opacity:0.25;">
			<g>
				<path style="fill:#1F3A12;" d="M1771.527,3309.176c0,0-218.633,24.714-353.623,3.842s-147.088,26.064-320.188,18.483
					c-96.103-4.153-172.996-54.515-222.371-98.439c107.629,69.935,290.749,53.218,338.775,2.492
					c48.026-50.725,83.071-28.452,164.844-81.358c81.773-52.906,24.143-188.935,24.143-188.935l346.199,196.359L1771.527,3309.176z"
					/>
			</g>
		</g>
		<g style="opacity:0.7;">
			<g>
				<path style="fill:#F7F7F7;" d="M1060.957,3176.833l-6.663,3.592c-29.18,15.729-62.383,22.187-95.385,19.052
					c-26.167-2.486-58.877-3.537-86.784,1.863c-9.138,1.765-13.084,12.616-7.113,19.833c3.427,4.154,7.632,8.982,12.513,14.382
					c-20.871-18.899-36.499-36.396-46.26-48.129c-5.971-7.217-2.025-18.068,7.113-19.833c41.64-8.048,94.026-1.713,119.311,2.232
					c10.903-0.779,25.129-2.025,26.271-2.959C985.778,3165.358,1060.957,3176.833,1060.957,3176.833z"/>
			</g>
		</g>
		<g style="opacity:0.7;">
			<g>
				<path style="fill:#F7F7F7;" d="M1043.304,2911.68c-3.063-2.492-6.178-4.777-9.345-6.854c-5.244-3.479-12.253-2.232-16.199,2.648
					c-12.201,15.212-34.578,51.504-25.596,105.344c0,0-36.811-27.777-99.27-30.165c-7.632-0.312-13.551,6.49-12.409,14.018
					c4.413,29.023,19.781,97.661,70.247,157.524c-77.776-65.263-98.699-156.589-103.995-191.272
					c-1.142-7.528,4.776-14.33,12.409-14.018c62.459,2.388,99.27,30.165,99.27,30.165c-8.982-53.841,13.395-90.132,25.596-105.344
					c3.946-4.88,10.955-6.126,16.199-2.648C1016.098,2881.619,1030.896,2896.675,1043.304,2911.68z"/>
			</g>
		</g>
		<g style="opacity:0.7;">
			<g>
				<path style="fill:#F7F7F7;" d="M1117.238,2929.644c6.905,8.774,13.551,19.21,19.781,30.061c-2.7,1.09-5.036,3.063-6.49,5.971
					l-42.75,45.972c0,0,15.128-32.992-2.628-56.044l11.63-23.675C1100.727,2923.933,1111.734,2922.635,1117.238,2929.644z"/>
			</g>
		</g>
		<g style="opacity:0.7;">
			<g>
				<path style="fill:#F7F7F7;" d="M1388.725,2845.586l-61.68,64.276c0,0-80.475,71.804-121.128,159.237
					c-20.041,27.465-34.942,64.276-47.454,105.552c0,0-2.492-55.917,7.528-106.487c5.4-26.998,11.474-43.041,16.51-52.438
					c-0.052-0.156-0.156-0.26-0.208-0.416c42.522-78.087,111.004-139.196,111.004-139.196
					c-57.111-61.005-66.197-129.799-66.197-129.799l77.879,7.788c-35.773-69.469,15.212-111.263,35.773-124.607
					c23.052,19.054,41.691,29.075,41.691,29.075s-87.848,43.612-43.716,129.28l-77.879-7.788c0,0,6.334,47.818,41.536,99.062
					l80.06-58.149L1388.725,2845.586z"/>
			</g>
		</g>
		<g style="opacity:0.7;">
			<g>
				<path style="fill:#F7F7F7;" d="M1236.185,2365.487c65.782-163.65,352.845-268.683,352.845-268.683l6.697,44.599
					c-72.999,30.684-272.37,124.918-325.795,257.832c-33.54,83.487-3.582,149.269,33.8,193.711
					C1255.915,2552.241,1192.677,2473.739,1236.185,2365.487z"/>
			</g>
		</g>
		<g>
			<g>
				<path style="fill:#EFE029;" d="M2829.594,2661.896c-40.352,47.6-79.416,71.761-115.521,42.002l20.093-131.512L2829.594,2661.896
					z"/>
			</g>
		</g>
		<g>
			<g>
				<polyline style="fill:#EFE029;" points="2927.573,2439.955 2817.999,2488.45 2893.525,2576.388 				"/>
			</g>
		</g>
		<g>
			<g>
				<polyline style="fill:#EFE029;" points="2875.902,2245.723 2803.288,2354.324 2920.609,2365.473 				"/>
			</g>
		</g>
		<g>
			<g>
				<path style="fill:#49AF08;" d="M2865.834,3287.629c-30.788,9.813-63.446,18.327-98.024,25.388
					c0,0-271.695,77.983-482.851-20.664c-11.37,2.648-22.585,5.14-33.748,7.425v0.052
					c-357.621,75.647-600.086,9.138-732.169-127.982c-101.71-105.448-138.158-252.692-111.523-409.073
					c0,0,117.857-559.951,268.372-887.46l374.443-13.603l9.813-0.364l407.983-14.849c0,0-1.454,232.651,78.139,447.234
					c77.827,209.755,147.348,297.135,173.048,435.033c0.623,3.219,1.194,6.49,1.765,9.761c1.973-1.039,3.946-2.025,5.919-3.115
					c197.969-104.773,240.179-286.647,167.025-452.945c-0.935-2.129-1.869-4.258-2.855-6.386
					c-29.231-63.809-75.439-125.126-136.341-178.759c130.006-6.542,247.241,48.648,339.034,139.04h0.052
					c35.825,35.254,67.755,75.855,95.065,120.246c10.332,16.718,19.989,34.007,28.919,51.711v0.052
					C3370.232,2710.128,3319.662,3142.722,2865.834,3287.629z"/>
			</g>
		</g>
		<g>
			<g>
				<path style="fill:#D7FF5C;" d="M2251.211,3299.778v0.052c-632.743,133.849-904.905-177.357-843.692-537.055
					c0,0,117.857-559.951,268.372-887.46l384.256-13.966c116.3,53.944,134.731,117.442,134.731,117.442
					s-43.769,176.526,24.039,309.752C2286.672,2421.82,2538.43,2967.493,2251.211,3299.778z"/>
			</g>
		</g>
		<g style="opacity:0.7;">
			<g>
				<path style="fill:#F7F7F7;" d="M2932.862,2615.635c-106.227,197.294-205.705,160.95-205.705,160.95v-38.057l-0.156-3.115
					c197.969-104.773,240.179-286.647,167.025-452.945c-0.935-2.129-1.869-4.258-2.855-6.386l11.993-11.63
					C2903.164,2264.452,3039.037,2418.341,2932.862,2615.635z"/>
			</g>
		</g>
		<g>
			<g>
				<path style="fill:#D7FF5C;" d="M2865.834,3287.629c-6.23-13.395-9.553-21.287-9.553-21.287l77.672-184.054
					c229.588-118.22,343.188-327.975,283.948-673.915C3370.232,2710.128,3319.662,3142.722,2865.834,3287.629z"/>
			</g>
		</g>
		<g style="opacity:0.3;">
			<g>
				<path style="fill:#3D1D55;" d="M3093.864,2236.363c-175.799-100.724-196.256,48.752-196.256,48.752l-3.582-2.648
					c-29.023-66.094-76.27-129.747-139.196-185.145C2884.836,2090.781,3002.071,2145.971,3093.864,2236.363z"/>
			</g>
		</g>
		<g>
			<g>
				<path style="fill:#1F3A12;" d="M1544.022,2241.799c45.233,18.182,93.681,30.453,141.335,40.996
					c76.662,15.472,154.961,25.062,233.395,26.948c24.052,1.323,61.589,0.367,85.907,0.332c13.716-0.717,51.06-2.636,64.454-3.335
					c15.291-1.102,48.825-4.755,64.329-6.16c24.743-2.493,60.636-8.652,85.457-12.021c-24.852,4.933-60.147,13.165-84.709,17.158
					c-149.609,26.281-304.004,30.819-454.553,9.018c-51.007-8.122-101.795-17.806-150.931-34.328L1544.022,2241.799
					L1544.022,2241.799z"/>
			</g>
		</g>
		<g>
			<g>
				<path style="fill:#1F3A12;" d="M1449.79,2573.898c15.991,3.733,39.628,10.786,55.714,15.097
					c197.208,53.012,405.152,69.146,608.163,45.604c74.421-7.329,147.69-23.032,220.615-40.22
					c-234.134,71.059-484.182,89.776-726.32,53.092c-46.465-6.953-93.514-16.192-139.32-26.93
					c-6.125-1.498-19.455-4.49-25.737-5.681C1442.905,2614.86,1449.79,2573.898,1449.79,2573.898L1449.79,2573.898z"/>
			</g>
		</g>
		<g>
			<g>
				<path style="fill:#1F3A12;" d="M1424.449,2927.336c-0.405-3.589-2.2-7.57-4.773-10.154c6.067,5.397,13.518,10.177,20.614,14.829
					c134.567,82.356,293.518,119.964,450.769,122.618c170.431,2.491,339.805-40.794,493.761-113.564
					c-227.989,120.832-498.447,169.981-751.665,107.653c-63.549-15.402-125.965-37.012-184.622-66.51
					c-19.027-9.875-38.163-19.88-55.322-33.166c-4.804-3.711-8.955-9.433-9.842-15.586
					C1383.368,2933.456,1424.449,2927.336,1424.449,2927.336L1424.449,2927.336z"/>
			</g>
		</g>
		<g>
			<g>
				<path style="fill:#1F3A12;" d="M3003.673,3041.088c33.313,39.348,46.174,93.63,44.015,144.56
					c-0.329,11.879-1.968,24.73-3.556,36.499c0,0-40.061-10.972-40.061-10.972c4.893-12.989,9.994-27.118,12.834-40.805
					C3026.615,3127.487,3024.18,3080.831,3003.673,3041.088L3003.673,3041.088z"/>
			</g>
		</g>
		<g>
			<g>
				<path style="fill:#1F3A12;" d="M3147.659,2897.424c48.042,31.59,81.717,80.867,83.463,139.896
					c0.001-0.001-41.427-2.999-41.427-2.999c5.178-22.627,4.542-47.043-3.01-70.769
					C3179.411,2938.99,3163.964,2917.037,3147.659,2897.424L3147.659,2897.424z"/>
			</g>
		</g>
		<g>
			<g>
				<path style="fill:#1F3A12;" d="M3222.856,2703.896c39.358,11.655,69.969,43.946,89.133,79.468c0,0-39.348,13.303-39.348,13.303
					c-0.715-4.18-1.261-8.516-2.129-12.756C3264.104,2753.134,3248.486,2723.217,3222.856,2703.896L3222.856,2703.896z"/>
			</g>
		</g>
		<g>
			<g>
				<path style="fill:#1F3A12;" d="M2538.833,3363.318c-81.001,0.002-172.373-11.606-256.099-49.16
					c-334.448,76.145-605.371,36.179-763.433-112.786c-115.313-108.674-162.285-265.681-132.256-442.1
					c0.044-0.266,0.098-0.53,0.151-0.793c1.182-5.623,120.088-565.999,269.8-891.829l37.744,17.344
					c-146.118,318.005-263.101,865.144-266.816,882.654c-27.476,162.102,15.083,305.747,119.863,404.497
					c148.721,140.151,408.853,176.008,732.48,100.959c4.526-1.052,9.277-0.552,13.481,1.416
					c201.421,94.104,465.693,20.288,468.345,19.531c0.513-0.146,1.045-0.276,1.567-0.383
					c422.153-86.094,537.974-390.605,505.601-646.875c-32.007-253.393-210.962-507.632-462.065-527.06
					c102.241,106.638,153.574,237.273,138.628,357.676c-14.536,117.097-90.981,216.748-215.249,280.591
					c-5.898,3.027-12.881,3.059-18.799,0.095c-5.918-2.969-10.068-8.582-11.172-15.112
					c-13.774-81.675-43.799-145.569-81.807-226.465c-27.603-58.748-58.887-125.332-91.982-214.541
					c-80.015-215.681-79.517-444.963-79.453-454.617l41.533,0.254c-0.015,2.292-0.435,231.558,76.865,439.915
					c32.485,87.573,63.374,153.32,90.63,211.326c34.976,74.441,63.423,134.98,79.653,208.787
					c98.452-57.661,156.548-138.572,168.56-235.352c15.034-121.089-46.084-255.061-163.496-358.376
					c-6.343-5.583-8.672-14.453-5.889-22.434c2.783-7.979,10.127-13.474,18.569-13.899
					c136.387-6.826,269.302,51.846,374.375,165.242c97.08,104.766,163.53,250.112,182.31,398.767
					c19.575,154.961-13.477,305.027-93.062,422.551c-92.085,135.982-245.84,229.358-444.678,270.069
					C2760.927,3336.534,2661.855,3363.313,2538.833,3363.318z"/>
			</g>
		</g>
		<g>
			<g>
				<polygon style="fill:#1F3A12;" points="2741.793,2736.994 2727.14,2841.503 2700.371,2740.063 2741.793,2736.994 				"/>
			</g>
		</g>
		<g>
			<g>
				<path style="fill:#1F3A12;" d="M2836.829,3064.535c-34.879-95.013-99.023-180.296-181.963-238.797
					c-28.2-19.77-58.955-36.137-91.271-49.135c67.542,19.21,130.513,55.085,182.971,101.973
					c53.201,48.093,98.478,106.153,129.15,171.359C2875.714,3049.936,2836.829,3064.535,2836.829,3064.535L2836.829,3064.535z"/>
			</g>
		</g>
		<g>
			<g>
				<path style="fill:#1F3A12;" d="M2734.619,2707.031l-41.055-6.274l20.103-131.509c1.162-7.625,6.455-13.972,13.745-16.492
					c7.295-2.522,15.371-0.788,20.991,4.485l95.391,89.514l-28.418,30.288l-66.616-62.51L2734.619,2707.031z"/>
			</g>
		</g>
		<g>
			<g>
				<path style="fill:#1F3A12;" d="M2877.768,2589.917l-75.527-87.937c-4.277-4.983-5.947-11.699-4.502-18.108
					c1.45-6.408,5.845-11.755,11.855-14.414l109.575-48.496l16.807,37.983l-84.009,37.18l57.314,66.731L2877.768,2589.917z"/>
			</g>
		</g>
		<g>
			<g>
				<path style="fill:#1F3A12;" d="M2918.647,2386.146l-117.324-11.148c-7.28-0.691-13.662-5.159-16.797-11.765
					c-3.135-6.606-2.568-14.373,1.494-20.452l72.617-108.601l34.531,23.086l-53.276,79.675l82.681,7.856L2918.647,2386.146z"/>
			</g>
		</g>
		<g style="opacity:0.25;">
			<g>
				<path style="fill:#1F3A12;" d="M2865.834,3286.186c-30.788,9.813-63.446,18.327-98.024,25.388
					c0,0-271.695,77.983-482.851-20.664c-11.37,2.648-22.585,5.14-33.748,7.425v0.052
					c-357.621,75.647-600.086,9.138-732.169-127.982c267.23,152.695,815.24,16.562,815.24,16.562
					c49.323,68.274,186.91,66.717,186.91,66.717c220.658-51.92,59.708-360.841-41.484-443.912
					c-101.191-83.071-2.648-155.759-0.052-262.193c2.596-106.435-109.239-492.924-109.239-492.924
					c-216.504,18.795-473.61-71.286-473.61-71.286l153.526-123.101l9.813-0.364l407.983-14.849c0,0-1.454,232.651,78.139,447.234
					c77.827,209.755,147.348,297.135,173.048,435.033c1.35,11.526,1.973,22.273,1.765,32.242
					c-2.388,118.377,50.777,155.915,50.777,155.915c495.519-8.515,417.121-560.315,417.121-560.315
					c10.332,16.718,19.989,34.007,28.919,51.712v0.052C3370.232,2708.685,3319.662,3141.278,2865.834,3286.186z"/>
			</g>
		</g>
		<g>
			<g>
				<g>
					<path style="fill:#49AF08;" d="M2686.469,3365.024c140.099-33.302,229.187-120.528,229.696-301.392
						c0.041-14.707-13.878-25.394-28.174-21.942c-22.955,5.543-55.906,25.123-82.107,87.1c0,0,1.4-74.217-31.068-111.805
						c-6.856-7.937-18.348-10.031-27.621-5.129c-18.756,9.916-50.269,35.632-69.38,100.493c0,0-11.709-41.328-65.241-77.894
						c-11.884-8.117-28.308-3.36-33.804,9.941c-10.024,24.256-21.455,69.146-15.177,141.073c0,0-46.654-15.213-110.077-5.297
						c-14.28,2.233-22.96,16.895-17.919,30.441C2455.811,3264.929,2520.187,3386.654,2686.469,3365.024z"/>
				</g>
			</g>
			<g style="opacity:0.7;">
				<g>
					<path style="fill:#F7F7F7;" d="M2658.26,3077.095c-6.23-5.503-13.395-11.162-21.443-16.666
						c-11.89-8.151-28.296-3.375-33.8,9.917c-10.02,24.246-21.495,69.157-15.212,141.065c0,0-46.624-15.212-110.069-5.295
						c-14.278,2.232-22.948,16.926-17.912,30.477c7.425,19.885,20.716,48.804,42.834,76.425
						c-37.122-33.955-57.267-76.062-67.08-102.385c-5.036-13.551,3.634-28.244,17.964-30.477
						c63.394-9.917,110.069,5.296,110.069,5.296c-6.282-71.908,5.14-116.819,15.161-141.065c5.503-13.291,21.91-18.068,33.799-9.917
						C2633.702,3048.903,2648.291,3064.012,2658.26,3077.095z"/>
				</g>
			</g>
			<g style="opacity:0.7;">
				<g>
					<path style="fill:#F7F7F7;" d="M2774.819,3016.973c4.829,5.607,8.878,11.993,12.305,18.847
						c-5.192-1.246-10.747-0.623-15.679,1.973c-18.795,9.917-50.31,35.669-69.416,100.516c0,0-4.517-15.939-20.768-36.759
						c19.262-56.956,48.285-80.371,65.938-89.717C2756.492,3006.952,2767.966,3009.029,2774.819,3016.973z"/>
				</g>
			</g>
			<g style="opacity:0.7;">
				<g>
					<path style="fill:#F7F7F7;" d="M2916.144,3063.648c0,1.194,0,2.336-0.052,3.479c-1.298,0.052-2.596,0.208-3.894,0.519
						c-22.948,5.555-55.865,25.129-82.085,87.121c0,0,0.519-28.867-6.905-59.708c22.325-35.876,46.676-48.96,64.796-53.373
						C2902.281,3038.26,2916.196,3048.903,2916.144,3063.648z"/>
				</g>
			</g>
			<g style="opacity:0.7;">
				<g>
					<path style="fill:#F7F7F7;" d="M2805.867,3128.807c0,0,1.038-53.789-18.743-92.988c4.569,0.987,8.774,3.375,11.942,7.113
						c12.201,14.122,19.625,33.488,24.142,52.127C2817.186,3104.613,2811.371,3115.775,2805.867,3128.807z"/>
				</g>
			</g>
			<g style="opacity:0.25;">
				<g>
					<path style="fill:#1F3A12;" d="M2916.144,3063.648c-0.468,180.835-89.561,268.06-229.692,301.393
						c-166.246,21.598-230.627-100.101-250.875-154.409c-2.129-5.763-1.817-11.682,0.363-16.77
						c33.8,56.852,101.347,124.087,228.446,107.577c129.072-30.684,214.843-107.11,227.926-260.324
						C2904.981,3040.492,2916.196,3050.409,2916.144,3063.648z"/>
				</g>
			</g>
			<g>
				<g>
					<path style="fill:#1F3A12;" d="M2647.744,3388.389c-150.796,0-211.65-116.897-231.611-170.532
						c-4.575-12.297-3.398-25.832,3.223-37.138c6.646-11.35,17.925-19.029,30.952-21.064c37.388-5.85,69.429-3.574,90.938-0.256
						c-1.826-59.604,8.545-99.243,18.33-122.93c5.005-12.104,15.083-21.194,27.661-24.944c12.627-3.764,26.143-1.667,37.056,5.786
						c22.72,15.518,38.75,32.026,49.912,46.582c19.614-40.093,44.121-60.264,63.286-70.396c17.983-9.507,39.795-5.425,53.042,9.914
						c14.771,17.1,23.516,39.89,28.687,61.382c22.261-27.463,45.601-38.87,63.896-43.291c13.159-3.176,26.768-0.193,37.368,8.174
						c10.488,8.281,16.484,20.679,16.45,34.011c-0.254,91.36-22.871,165.09-67.212,219.148
						c-40.552,49.436-100.591,83.887-178.447,102.395c-0.703,0.166-1.411,0.295-2.124,0.388
						C2674.653,3387.505,2660.849,3388.389,2647.744,3388.389z M2496.596,3197.608c-12.095,0-25.532,0.84-39.873,3.081
						c-0.254,0.042-1.025,0.161-1.528,1.018c-0.459,0.789-0.225,1.426-0.137,1.665c22.593,60.696,82.188,159.59,227.666,141.196
						c144.644-34.741,212.236-124.058,212.676-280.996c0-0.229,0-0.779-0.654-1.296c-0.547-0.435-1.182-0.566-1.88-0.398
						c-18.364,4.436-45.049,21.05-67.852,74.998c-3.877,9.167-13.711,14.297-23.447,12.229c-9.736-2.07-16.636-10.754-16.445-20.708
						c0.303-18.462-3.779-72.085-26.025-97.834c-0.508-0.591-1.45-0.737-2.192-0.347c-14.702,7.774-41.938,29.541-59.165,88.003
						c-2.603,8.838-10.718,14.897-19.922,14.897c-0.034,0-0.073,0-0.107,0c-9.248-0.046-17.354-6.206-19.873-15.105
						c-0.381-1.23-11.133-35.093-56.978-66.406c-0.542-0.369-1.128-0.464-1.758-0.276c-0.825,0.247-1.055,0.796-1.138,1.003
						c-9.473,22.92-19.531,64.316-13.682,131.331c0.605,6.946-2.31,13.73-7.769,18.066c-5.464,4.336-12.739,5.647-19.355,3.484
						C2556.885,3205.127,2532.749,3197.608,2496.596,3197.608z"/>
				</g>
			</g>
			<g>
				<g>
					<path style="fill:#1F3A12;" d="M2566.169,3164.863c1.856,0.419,4.052,1.081,5.583,1.895
						c21.397,11.182,40.368,27.358,54.877,46.438c4.85,6.429,8.854,13.37,12.247,20.301c-6.135-4.812-12.397-9.043-19.055-12.458
						c-18.54-9.259-39.116-15.35-59.761-15.426c-0.524,0.016,0.806,0.406,0.957,0.465
						C2561.018,3206.076,2566.169,3164.863,2566.169,3164.863L2566.169,3164.863z"/>
				</g>
			</g>
		</g>
		<g>
			<g>
				<path style="fill:#1F3A12;" d="M1134.614,3353.13c-11.724,0-24.272-0.269-37.783-0.857
					c-146.88-6.394-249.829-112.117-287.275-157.273c-7.519-9.07-9.643-21.099-5.679-32.18c3.97-11.094,13.262-19.058,24.849-21.299
					c24.399-4.715,51.753-4.932,75.913-3.462c-56.001-63.938-73.267-138.225-78.418-171.99c-1.489-9.773,1.431-19.609,8.018-26.987
					c6.538-7.327,15.898-11.37,25.688-10.938c31.499,1.201,57.222,8.352,75.947,15.825c2.602-40.129,19.971-68.298,31.968-83.225
					c10.762-13.403,29.614-16.414,43.838-6.98c27.022,17.91,50.615,46.802,66.382,69.192l0.083-0.161
					c5.034-10.257,14.839-17.097,26.216-18.291c11.313-1.187,22.212,3.423,29.199,12.322c15.874,20.217,30.327,47.871,40.845,70.562
					c30.801-50.62,69.399-91.987,90.21-112.627c-48.999-60.686-57.729-122.89-58.105-125.725c-0.83-6.289,1.26-12.615,5.674-17.17
					c4.414-4.556,10.649-6.87,16.982-6.213l45.059,4.504c-3.965-18.35-3.135-36.233,2.515-53.45
					c7.363-22.444,21.787-39.426,34.951-51.096c-17.095-12.363-39.678-31.138-59.99-55.942
					c-52.642-64.284-64.668-137.573-34.78-211.941c68.423-170.268,352.876-276.013,364.951-280.432l14.273,39.006
					c-2.783,1.021-279.165,103.816-340.689,256.914c-57.939,144.175,96.475,229.746,103.076,233.318
					c6.821,3.691,11.03,10.881,10.893,18.638c-0.132,7.754-4.565,14.795-11.509,18.245c-0.239,0.119-32.144,16.623-41.797,46.494
					c-5.405,16.738-3.008,34.624,7.324,54.683c3.486,6.767,2.993,14.9-1.289,21.194s-11.636,9.756-19.238,8.982l-48.545-4.854
					c7.642,23.482,23.311,59.131,54.087,92.01c3.823,4.082,5.835,9.536,5.586,15.124c-0.249,5.586-2.744,10.837-6.919,14.561
					c-0.767,0.686-77.837,70.166-116.143,152.488c-3.535,7.59-11.26,12.295-19.644,11.987c-8.364-0.327-15.718-5.65-18.643-13.494
					c-0.22-0.584-19.868-52.881-43.579-88.65l-10.054,20.461c-3.408,6.946-10.4,11.416-18.135,11.604
					c-0.171,0.005-0.337,0.008-0.503,0.008c-7.544,0-14.512-4.097-18.174-10.72c-0.313-0.556-30.21-54.001-66.787-82.09
					c-10.689,15.771-23.052,43.525-16.563,82.473c1.401,8.384-2.456,16.773-9.722,21.177c-7.275,4.394-16.494,3.933-23.276-1.189
					c-0.215-0.156-28.799-20.827-76.802-25.31c8.037,42.012,33.169,124.453,110.078,179.636c7.964,5.715,10.845,16.223,6.909,25.205
					c-3.94,8.982-13.623,13.979-23.223,12.004c-0.664-0.139-61.094-12.412-111.338-7.09
					c40.102,45.008,127.998,125.481,247.109,130.669c81.226,3.533,125.933-5.288,165.366-13.074
					c44.951-8.872,83.779-16.536,157.07-5.212c130.737,20.203,345.981-3.701,348.14-3.943l4.658,41.274
					c-9.038,1.018-222.979,24.756-359.136,3.718c-66.089-10.212-99.888-3.54-142.69,4.912
					C1236.865,3345.401,1197.71,3353.128,1134.614,3353.13z"/>
			</g>
		</g>
		<g>
			<g>
				<path style="fill:#1F3A12;" d="M1306.855,2891.844l-27.124-31.452c1.958-1.689,48.647-41.824,111.816-84.094l23.096,34.521
					C1353.696,2851.604,1307.319,2891.446,1306.855,2891.844z"/>
			</g>
		</g>
		<g>
			<g>
				<path style="fill:#1F3A12;" d="M1193.71,3037.365c-14.247,30.553-27.362,62.032-35.248,95.102
					c-4.568-25.601-5.494-52.238-5.604-78.376c0.017-8.86,0.092-17.478,0.524-26.67L1193.71,3037.365L1193.71,3037.365z"/>
			</g>
		</g>
		<g>
			<g>
				<polygon style="fill:#1F3A12;" points="976.835,2969.494 996.057,3051.344 939.998,2988.683 976.835,2969.494 				"/>
			</g>
		</g>
		<g>
			<g>
				<polygon style="fill:#1F3A12;" points="1100.939,2961.994 1090.161,3026.681 1059.915,2968.493 1100.939,2961.994 				"/>
			</g>
		</g>
		<g>
			<g>
				<polygon style="fill:#1F3A12;" points="969.112,3146.198 1045.814,3174.653 965.026,3187.531 969.112,3146.198 				"/>
			</g>
		</g>
		<g>
			<g>
				<path style="fill:#1F3A12;" d="M1467.452,2438.613c-2.256-26.657-11.193-53.329-26.596-75.501
					c-5.378-7.722-12.023-14.524-19.491-20.903c9.116,3.328,18.323,7.617,26.682,13.411c25.909,17.998,46.121,43.876,59.584,72.465
					C1507.631,2428.085,1467.452,2438.613,1467.452,2438.613L1467.452,2438.613z"/>
			</g>
		</g>
		<g>
			<g>
				<polygon style="fill:#1F3A12;" points="1317.231,2737.336 1338.726,2778.766 1292.725,2770.873 1317.231,2737.336 				"/>
			</g>
		</g>
		<g style="opacity:0.25;">
			<g>
				<path style="fill:#1F3A12;" d="M1519.042,2290.113c-4.223,0.177-40.999,66.808-97.678,46.04c0,0-56.444-10.384-18.271,79.177
					s22.597,260.895,26.491,257.001c3.894-3.894,83.104-330.122,83.104-330.122"/>
			</g>
		</g>
		<g>
			<g>
				<g>
					<path style="fill:#49AF08;" d="M2103.91,1980.736c0,0,289.249-17.38,544.469-175.367
						c233.828-144.745,259.529-354.074,204.365-526.576c-46.374-145.015-168.221-294.42-168.221-294.42
						s-77.164-197.113-163.512-264.594c-91.454-71.472-201.617-113.068-367.677-29.195c0,0-180.795-65.968-381.914-2.691
						c0,0-115.146-83.502-236.615-22.515c-113.261,56.867-138.294,262.268-138.294,262.268s-147.816,130.389-156.402,282.71
						c-8.232,146.032-178.686,380.316-178.686,380.316s-19.113,108.562,51.303,146.66c70.416,38.098,109.428,38.395,183.502,82.165
						c122.847,72.59,259.988,128.882,508.47,144.652"/>
				</g>
			</g>
			<g>
				<g>
					<path style="fill:#49AF08;" d="M2855.92,1561.821c-30.174,88.619-94.554,173.61-207.552,243.562
						c-255.225,157.96-544.454,175.374-544.454,175.374l-299.216-16.614c-248.46-15.777-385.625-72.036-508.484-144.642
						c-74.041-43.787-113.085-44.079-183.482-82.159c-6.974-3.797-13.103-8.283-18.443-13.289
						c-48.371-45.323-32.86-133.364-32.86-133.364s170.441-234.28,178.685-380.334c8.6-152.336,156.376-282.69,156.376-282.69
						s25.075-205.405,138.319-262.294c121.481-60.989,236.609,22.537,236.609,22.537c201.122-63.307,381.917,2.66,381.917,2.66
						c166.069-83.863,276.198-42.256,367.664,29.19c86.342,67.504,163.512,264.636,163.512,264.636s121.847,149.377,168.252,294.421
						C2881.292,1367.96,2888.194,1466.94,2855.92,1561.821z"/>
				</g>
			</g>
			<g>
				<g>
					
						<ellipse transform="matrix(0.9998 -0.0183 0.0183 0.9998 -20.4335 48.0648)" style="fill:#3A8E04;" cx="2615.772" cy="1140.406" rx="77.953" ry="63.004"/>
				</g>
			</g>
			<g>
				<g>
					
						<ellipse transform="matrix(0.9998 -0.0183 0.0183 0.9998 -21.8313 44.6729)" style="fill:#3A8E04;" cx="2429.366" cy="1214.883" rx="56.207" ry="45.429"/>
				</g>
			</g>
			<g>
				<g>
					
						<ellipse transform="matrix(0.9993 -0.037 0.037 0.9993 -44.8383 102.7186)" style="fill:#3A8E04;" cx="2756.344" cy="1264.333" rx="50.126" ry="42.437"/>
				</g>
			</g>
			<g>
				<g>
					
						<ellipse transform="matrix(0.9993 -0.037 0.037 0.9993 -45.8178 96.5971)" style="fill:#3A8E04;" cx="2590.142" cy="1287.718" rx="44.75" ry="37.886"/>
				</g>
			</g>
			<g>
				<g>
					
						<ellipse transform="matrix(0.9993 -0.0369 0.0369 0.9993 -50.1568 102.8344)" style="fill:#3A8E04;" cx="2757.192" cy="1408.452" rx="50.126" ry="42.437"/>
				</g>
			</g>
			<g style="opacity:0.5;">
				<g>
					<path style="fill:#FFFFFF;" d="M2135.411,761.232c35.304-32.982,111.496-89.105,227.516-72.298
						c100.15,14.508,180.457,139.567,163.657,124.129C2343.136,644.477,2111.516,783.555,2135.411,761.232z"/>
				</g>
			</g>
			<g style="opacity:0.5;">
				<g>
					<path style="fill:#FFFFFF;" d="M1470.609,785.233c17.323-47.06,72.941-129.04,188.961-112.233
						c100.15,14.507,145.997,108.528,128.037,94.172C1565.408,589.553,1459.841,814.485,1470.609,785.233z"/>
				</g>
			</g>
			<g style="opacity:0.3;">
				<g>
					<path style="fill:#1F3A12;" d="M2855.92,1561.821c-30.174,88.619-94.554,173.61-207.552,243.562
						c-255.225,157.96-544.454,175.374-544.454,175.374l-299.216-16.614c-248.46-15.777-385.625-72.036-508.484-144.642
						c-74.041-43.787-113.085-44.079-183.482-82.159c-6.974-3.797-13.103-8.283-18.443-13.289
						c73.255,28.845,114.867,19.258,206.273,57.833c288.356,121.847,313.725,17.68,444.481,25.336
						c299.533,17.554,882.781,120.499,1110.775-245.278C2855.821,1561.902,2855.87,1561.861,2855.92,1561.821z"/>
				</g>
			</g>
			<g>
				<g>
					<path style="fill:#ABD625;" d="M2639.888,1751.553c-45.529,68.384-116.191,123.367-201.826,154.369
						c-181.413,65.656-334.145,74.793-334.145,74.793l-132.389,5.297l-166.83-21.869
						c-248.463-15.735-385.625-72.036-508.481-144.685c-74.094-43.704-113.09-43.994-183.482-82.158
						c-6.977-3.755-13.058-8.239-18.351-13.244c73.211,28.802,114.82,19.256,206.179,57.83
						c288.356,121.847,313.725,17.68,444.481,25.336C1972.901,1820.575,2364.971,1883.336,2639.888,1751.553z"/>
				</g>
			</g>
			<g>
				<g>
					<path style="fill:#D7FF5C;" d="M2438.066,1905.93c-181.431,65.633-334.171,74.788-334.171,74.788l-132.376,5.294
						l-166.836-21.875c-248.454-15.739-385.593-72.051-508.456-144.661c-74.091-43.731-113.108-44.028-183.477-82.164
						c-70.418-38.096-51.344-146.659-51.344-146.659s26.348-31.12,60.213-77.729c191.64,29.556,436.195,54.148,619.067,27.342
						c215.46-31.612,473.647-193.801,638.668-204.184c84.231-5.319,129.81-2.73,198.836,32.207
						c83.962,42.493,121.901,124.2,117.403,217.815C2688.786,1727.715,2585.729,1852.513,2438.066,1905.93z"/>
				</g>
			</g>
			<g>
				<g>
					<path style="fill:#D7FF5C;" d="M1094.442,1724.063c-0.019-0.008-0.038-0.014-0.057-0.022c1.308,1.256,2.667,2.456,4.139,3.646
						c1.354,1.147,2.822,2.285,4.285,3.371c1.275,0.891,2.55,1.783,3.876,2.617c0.668,0.469,1.331,0.887,1.994,1.304
						c1.322,0.782,2.7,1.56,4.078,2.337c4.421,2.361,8.663,4.631,12.835,6.75c2.083,1.034,4.167,2.067,6.189,3.053
						c4.045,1.972,8.023,3.844,11.936,5.616c3.856,1.777,7.703,3.451,11.428,5.029c5.615,2.365,11.047,4.587,16.414,6.711
						c1.825,0.687,3.593,1.379,5.361,2.071c15.901,6.07,31.166,11.406,47.265,17.775c5.366,2.123,10.798,4.346,16.362,6.767
						c16.748,7.26,34.831,16.091,55.671,28.369c122.843,72.643,260.016,128.933,508.496,144.7l166.813,21.875l132.346-5.288
						l0.057-0.005c0,0,152.693-9.162,334.114-74.797c10.739-3.852,21.155-8.148,31.372-12.744c2.078-0.912,4.1-1.818,6.117-2.777
						c3.164-1.476,6.268-3,9.314-4.52c2.393-1.201,4.787-2.402,7.119-3.65c4.241-2.146,8.36-4.386,12.413-6.726
						c1.895-1.054,3.733-2.103,5.567-3.204c16.367-9.531,31.906-20.044,46.458-31.42c1.806-1.414,3.611-2.828,5.412-4.295
						c3.606-2.881,7.094-5.804,10.574-8.832c1.739-1.514,3.479-3.028,5.162-4.537c3.418-3.075,6.723-6.141,10.019-9.311
						c3.295-3.17,6.531-6.387,9.652-9.595c2.337-2.458,4.673-4.916,6.953-7.37c3.056-3.307,6.046-6.714,8.979-10.117
						c1.241-1.366,2.416-2.833,3.596-4.247c8.307-10.007,16.017-20.332,23.124-31.027c33.056-49.478,52.854-105.986,55.721-165.481
						c4.505-93.597-33.469-175.299-117.424-217.788c-69.004-34.971-114.61-37.534-198.793-32.212
						c-165.037,10.362-423.249,172.544-638.673,204.195c-182.884,26.8-427.444,2.186-619.06-27.373
						c-33.884,46.604-60.239,77.746-60.239,77.746S1045.953,1678.738,1094.442,1724.063z"/>
				</g>
			</g>
			<g style="opacity:0.25;">
				<g>
					<path style="fill:#1F3A12;" d="M1094.385,1724.041c1.308,1.256,2.667,2.456,4.139,3.646c1.354,1.147,2.822,2.285,4.285,3.371
						c1.275,0.891,2.55,1.783,3.876,2.617c0.668,0.469,1.331,0.887,1.994,1.304c1.322,0.782,2.7,1.56,4.078,2.337
						c4.421,2.361,8.663,4.631,12.835,6.75c2.083,1.034,4.167,2.067,6.189,3.053c4.045,1.972,8.023,3.844,11.936,5.616
						c3.856,1.777,7.703,3.451,11.428,5.029c5.62,2.417,11.052,4.64,16.414,6.711c1.825,0.687,3.593,1.379,5.361,2.071
						c15.906,6.122,31.171,11.458,47.265,17.775c5.31,2.128,10.742,4.35,16.362,6.767c16.748,7.26,34.831,16.091,55.671,28.369
						c122.843,72.643,260.016,128.933,508.496,144.7l166.813,21.875l132.346-5.288l0.057-0.005c0,0,152.693-9.162,334.114-74.797
						c10.739-3.852,21.155-8.148,31.372-12.744c2.078-0.912,4.1-1.818,6.117-2.777c3.164-1.476,6.268-3,9.314-4.52
						c2.393-1.201,4.787-2.402,7.119-3.65c4.241-2.146,8.36-4.386,12.413-6.726c1.895-1.054,3.733-2.103,5.567-3.204
						c16.367-9.531,31.906-20.044,46.458-31.42c1.806-1.414,3.611-2.828,5.412-4.295c3.606-2.881,7.094-5.804,10.574-8.832
						c1.739-1.514,3.479-3.028,5.162-4.537c3.418-3.075,6.723-6.141,10.019-9.311c3.295-3.17,6.531-6.387,9.652-9.595
						c2.341-2.406,4.678-4.864,6.953-7.37c3.056-3.307,6.046-6.714,8.979-10.117c1.241-1.366,2.416-2.833,3.596-4.247
						c8.307-10.007,16.017-20.332,23.124-31.027c-274.89,131.782-666.983,68.996-894.832,55.641
						c-130.727-7.624-156.114,96.515-444.488-25.344C1209.22,1743.312,1167.61,1752.873,1094.385,1724.041z"/>
				</g>
			</g>
			<g>
				<g>
					<path style="fill:#1F3A12;" d="M2103.91,1980.736c185.452-37.038,370.569-90.908,532.02-191.048
						c167.609-101.942,254.277-270.441,207.185-465.213c-29.289-123.395-101.913-232.139-175.203-333.605
						c-32.978-78.904-71.425-159.431-125.987-225.618c-18.184-21.982-39.663-38.409-63.196-53.947
						c-23.58-15.523-48.572-28.369-74.833-36.931c-81.229-27.345-167.034-6.308-242.52,32.132c-4.59,2.304-9.67,2.451-14.158,0.834
						c-14.013-4.74-29.785-9.051-44.548-12.409c-76.568-17.416-156.5-21.46-234.286-10.613
						c-31.062,4.395-61.715,11.321-91.611,20.591c-5.494,1.702-11.185,0.64-15.575-2.4c-35.555-23.623-78.246-38.585-120.773-41.214
						c-100.406-3.97-155.517,50.241-191.607,139.215c-12.642,30.944-22.079,63.666-28.901,96.528
						c-2.249,10.901-4.308,22.317-5.701,32.766c-0.596,4.47-2.751,8.35-5.845,11.164c-21.842,20.069-43.005,43.551-61.536,67.144
						c-36.977,47.368-68.539,101.081-82.389,159.529c-7.61,30.573-6.071,62.961-14.082,93.135
						c-7.551,32.134-18.762,62.573-31.313,92.175c-38.42,88.066-88.007,169.722-143.203,248.211c-0.012,0.024,3.143-7.4,3.14-7.395
						c-3.324,31.871-0.917,69.253,14.686,97.036c7.401,13.348,18.246,23.717,31.821,30.273c15.97,8.391,32.191,15.957,49.079,22.686
						c39.23,15.136,81.317,29.797,118.29,51.441c90.44,56.406,187.443,101.25,291.423,127.542
						c72.344,19.366,146.163,31.142,220.41,41.405c-113.454,0.313-227.58-12.333-336.187-46.604
						c-67.859-21.188-132.83-53.146-194.483-88.375c-54.242-30.133-116.393-43.103-170.85-73.923
						c-48.85-25.97-65.552-85.72-62.686-136.902c0.649-10.71,1.308-19.894,3.362-30.766c0.459-2.744,1.522-5.33,3.147-7.405
						c35.725-50.295,69.066-103.654,98.599-157.966c28.814-53.811,55.787-110.444,70.021-169.526
						c7.808-30.959,6.147-62.59,14.099-93.206c23.926-96.142,84.212-177.931,154.989-245.208c0.001,0.001-5.904,11.219-5.904,11.219
						c10.891-71.453,31.182-141.75,70.529-203.145c68.849-110.687,209.864-120.786,316.22-59.146
						c5.796,3.494,10.586,6.12,16.338,10.255c0,0-15.824-2.573-15.824-2.573c111.194-34.743,231.365-36.409,344.609-10.713
						c16.697,3.99,32.201,7.884,48.772,13.662c0,0-14.155,0.835-14.155,0.835c118.022-60.537,239.419-70.169,353.031,6.833
						c12.909,8.546,24.982,17.242,37.211,27.159c35.851,30.021,62.247,69.108,86.083,108.027
						c30.961,51.824,56.726,105.236,79.513,161.184c0.012,0.024-2.786-4.77-2.783-4.766c41.421,50.39,77.884,103.667,110.58,160.071
						c49.966,85.092,86.497,180.557,89.758,280.34c7.238,177.908-92.542,321.719-241.939,409.989
						C2490.282,1921.969,2297.974,1981.971,2103.91,1980.736L2103.91,1980.736z"/>
				</g>
			</g>
			<g>
				<g>
					<path style="fill:#1F3A12;" d="M1277.471,1775.822c65.546,5.851,128.641,32.448,192.63,43.715
						c47.145,8.534,95.633,8.167,142.994-0.224c16.042-2.763,31.906-6.855,48.177-11.26c-55.122,40.6-129.609,50.832-196.111,37.598
						C1398.304,1832.362,1339.632,1801.35,1277.471,1775.822L1277.471,1775.822z"/>
				</g>
			</g>
			<g>
				<g>
					<path style="fill:#16260E;" d="M1734.336,1647.92c-2.476,0-4.883-1.033-6.597-2.917c-2.241-2.466-2.925-5.974-1.767-9.099
						c10.161-27.424,15.903-61.584,20.517-89.033c4.57-27.163,7.866-46.79,13.994-56.416c5.64-8.879,15.308-12.144,26.504-8.938
						c36.724,10.5,94.126,90.557,94.487,131.785c0.044,4.724-3.608,8.662-8.32,8.977c-51.079,3.413-90.415,13.071-136.523,25.342
						C1735.869,1647.823,1735.097,1647.92,1734.336,1647.92z M1778.852,1498.12c-2.104,0-2.759,1.03-3.315,1.907
						c-4.189,6.58-7.72,27.573-11.455,49.802c-3.901,23.193-8.584,51.057-16.108,76.36c37.788-9.802,72.393-17.498,114.746-21.016
						c-7.29-37.026-56.177-99.514-80.635-106.506C1780.732,1498.279,1779.682,1498.12,1778.852,1498.12z"/>
				</g>
			</g>
			<g>
				<g>
					<path style="fill:#16260E;" d="M2147.031,1562.325c-1.235,0-2.471-0.256-3.628-0.771c-2.603-1.157-4.492-3.491-5.093-6.274
						c-5.547-25.85-15.791-53.318-24.829-77.556c-10.64-28.516-16.626-45.166-16.025-55.764c0.459-8.091,4.839-14.316,12.339-17.524
						c28.726-12.302,103.628,23.804,138.154,53.22c3.359,2.859,4.121,7.744,1.797,11.492
						c-22.739,36.646-55.801,67.595-98.271,91.995C2150.102,1561.927,2148.569,1562.325,2147.031,1562.325z M2124.072,1419.676
						c-2.974,0-5.43,0.374-7.256,1.157c-1.318,0.564-1.479,0.93-1.548,2.134c-0.42,7.38,7.378,28.296,14.922,48.523
						c7.891,21.152,16.675,44.712,22.705,68.005c32.451-20.298,58.438-44.849,77.446-73.171
						C2196.684,1440.22,2146.142,1419.676,2124.072,1419.676z"/>
				</g>
			</g>
			<g>
				<g>
					<path style="fill:#FFFFFF;" d="M924.952,1592.732c32.396,88.646,86.138,145.466,113.134,146.52
						c37.991,1.483,44.29-131.028,55.849-156.32"/>
				</g>
				<g>
					<path style="fill:#1F3A12;" d="M1038.886,1757.107c-0.493,0-0.991-0.01-1.494-0.029
						c-40.601-1.587-97.349-71.086-129.194-158.223c-3.384-9.253,1.377-19.495,10.63-22.876c9.243-3.381,19.492,1.372,22.876,10.63
						c31.694,86.721,81.445,133.208,96.577,134.783c12.715-7.239,23.809-71.467,28.008-95.784
						c4.448-25.762,7.173-40.791,11.426-50.093c4.092-8.96,14.668-12.903,23.638-8.806c8.96,4.097,12.9,14.68,8.804,23.64
						c-2.534,5.547-5.815,24.558-8.716,41.331C1091.284,1690.516,1079.78,1757.107,1038.886,1757.107z"/>
				</g>
			</g>
			<g>
				<g>
					<path style="fill:#FFFFFF;" d="M1593.804,1620.807c-11.361,112.493-52.668,165.298-76.565,168.614
						c-33.361,4.629-72.937-123.206-91.697-144.259"/>
				</g>
				<g>
					<path style="fill:#1F3A12;" d="M1515.244,1807.4c-32.92,0-56.221-51.628-80.83-106.155
						c-7.866-17.437-17.661-39.136-22.188-44.216c-6.558-7.356-5.908-18.63,1.45-25.186c7.344-6.55,18.633-5.911,25.181,1.45
						c7.783,8.735,15.357,25.1,28.076,53.276c10.718,23.755,35.571,78.828,48.784,84.973c11.523-3.503,49.414-44.377,60.337-152.529
						c0.991-9.795,9.678-16.924,19.541-15.955c9.8,0.989,16.943,9.739,15.957,19.539c-11.553,114.355-54.956,179.373-91.86,184.492
						C1518.188,1807.298,1516.709,1807.4,1515.244,1807.4z"/>
				</g>
			</g>
			<g>
				<g>
					<path style="fill:#FFFFFF;" d="M2100.327,1553.079c-1.267,107.667-29.253,164.49-53.15,167.805
						c-33.361,4.629-96.352-122.397-115.111-143.45"/>
				</g>
				<g>
					<path style="fill:#1F3A12;" d="M2045.351,1738.848c-31.367,0-62.754-47.263-103.1-113.303
						c-9.429-15.432-19.175-31.387-23.501-36.243c-6.557-7.356-5.908-18.63,1.45-25.186c7.349-6.55,18.628-5.911,25.181,1.45
						c6.167,6.917,13.999,19.585,27.314,41.379c15.361,25.144,55.869,91.45,72.524,96.116c8.54-3.313,36.03-44.358,37.271-150.193
						c0.122-9.851,8.237-17.549,18.047-17.627c9.849,0.117,17.744,8.196,17.627,18.047
						c-1.255,106.941-28.159,179.661-68.535,185.264C2048.203,1738.75,2046.777,1738.848,2045.351,1738.848z M2045.796,1703.201
						L2045.796,1703.201L2045.796,1703.201z"/>
				</g>
			</g>
			<g>
				<g>
					<path style="fill:#49AF08;" d="M2136.395,1188.411c-37.883-54.3-107.953-124.135-268.999-168.433
						c-203.046-55.85-488.715-26.215-615.554,97.996c-74.986-23.594-226.42-47.405-350.525,69.077
						c-127.891,120.036-68.478,367.339,33.023,422.822c83.19,45.473,152.084,0.605,194.018-12.863
						c49.878-16.019,101.293-10.054,175.369,36.893c92.555,58.659,190.497,59.181,313.555,33.905s176.852-54.996,292.82-55.809
						s275.285-40.615,339.247-159.938c63.962-119.322,129.985-115.982,129.985-115.982L2136.395,1188.411z"/>
				</g>
			</g>
			<g style="opacity:0.5;">
				<g>
					<path style="fill:#FFFFFF;" d="M926.385,1214.539c0,0,114.233-138.832,322.52-50.831
						c63.058-14.257,282.651-56.108,381.373,58.41c0,0-177.438-85.835-383.493-25.399
						C1246.786,1196.719,1083.495,1109.253,926.385,1214.539z"/>
				</g>
			</g>
			<g style="opacity:0.3;">
				<g>
					<path style="fill:#1F3A12;" d="M2379.296,1336.098c-2.118-0.075-67.042-1.416-129.962,115.948
						c-63.945,119.355-223.268,159.14-339.234,159.953c-115.967,0.813-169.77,30.541-292.827,55.817
						c-123.057,25.276-221.01,24.744-313.533-33.896c-74.074-46.956-125.491-52.928-175.394-36.919
						c-41.909,13.463-110.837,58.326-194.017,12.862c-62.445-34.079-108.909-140.72-105.754-245.721
						c12.056,82.644,51.964,156.943,102.144,184.375c83.18,45.464,152.061,0.6,194.016-12.862
						c49.856-16.011,101.273-10.039,175.346,36.917c92.571,58.642,190.477,59.172,313.581,33.898
						c123.057-25.276,176.813-55.005,292.779-55.818c115.967-0.813,275.29-40.597,339.281-159.951
						C2270.97,1343.562,2379.296,1336.098,2379.296,1336.098z"/>
				</g>
			</g>
			<g>
				<g>
					<path style="fill:#1F3A12;" d="M1258.076,1101.261c-4.204-1.4-4.516-0.839-5.403-1.074c0,0,1.305-0.276,1.305-0.276
						l4.199-0.969c103.18-27.687,214.925-33.1,316.198,7.06c81.795,31.962,145.583,99.063,150.287,189.893
						c1.973,27.201-1.439,54.833-8.266,81.078c-0.582-51.882-9.237-105.108-38.273-147.927
						c-81.575-117.431-254.745-121.801-383.256-99.52c-9.09,1.597-26.13,4.698-35.23,5.995c-5.425,0.412-6.685,1.311-14.032-0.835
						c-9.23-3.445-13.92-13.719-10.476-22.95C1238.573,1102.509,1248.846,1097.819,1258.076,1101.261L1258.076,1101.261z"/>
				</g>
			</g>
			<g>
				<g>
					<path style="fill:#1F3A12;" d="M1068.647,1340.562c0,0-21.41-85.66-67.487-83.717c-32.057,1.352-43.932,39.463-34.69,67.474
						c9.242,28.01,37.163,32.35,52.948,22.152C1038.997,1333.821,1039.912,1306.667,1068.647,1340.562z"/>
				</g>
			</g>
			<g>
				<g>
					<path style="fill:#1F3A12;" d="M1424.368,1367.816c0,0,32.285-83.748,77.903-78.539c31.737,3.624,38.676,42.405,25.889,69.631
						c-12.787,27.226-41.137,29.562-55.544,18.289C1454.746,1363.213,1457.313,1336.118,1424.368,1367.816z"/>
				</g>
			</g>
			<g>
				<g>
					<path style="fill:#FFFFFF;" d="M1872.558,1613.379c-52.492,3.509-92.829,13.542-138.224,25.623
						c19.578-52.831,22.611-126.378,33.673-143.757C1788.362,1463.197,1872.148,1567.146,1872.558,1613.379z"/>
				</g>
				<g>
					<path style="fill:#1F3A12;" d="M1734.336,1656.839c-4.956,0-9.771-2.065-13.198-5.835c-4.482-4.932-5.845-11.951-3.53-18.198
						c9.868-26.636,15.537-60.334,20.088-87.412c5.215-31.023,8.496-49.094,15.264-59.729c7.793-12.261,21.431-17.031,36.48-12.722
						c40.176,11.487,100.557,95.391,100.957,140.278c0.083,9.451-7.217,17.327-16.646,17.957
						c-50.283,3.359-89.189,12.917-134.829,25.063C1737.407,1656.643,1735.864,1656.839,1734.336,1656.839z M1781.743,1507.762
						c-2.93,8.242-6.182,27.585-8.867,43.545c-3.189,18.984-6.9,41.055-12.271,62.471c29.541-7.329,58.017-13.176,90.864-16.521
						C1839.712,1562.871,1799.179,1514.248,1781.743,1507.762z"/>
				</g>
			</g>
			<g>
				<g>
					<path style="fill:#FFFFFF;" d="M2242.169,1464.444c-23.445,37.778-56.847,66.966-95.137,88.964
						c-11.268-52.502-41.728-112.283-40.67-130.942C2108.105,1391.645,2199.285,1427.917,2242.169,1464.444z"/>
				</g>
				<g>
					<path style="fill:#1F3A12;" d="M2147.031,1571.243c-2.466,0-4.941-0.51-7.256-1.543c-5.205-2.317-8.989-6.98-10.186-12.551
						c-5.41-25.212-15.537-52.358-24.468-76.309c-11.372-30.493-17.275-46.982-16.567-59.387
						c0.649-11.482,7.109-20.674,17.734-25.22c34.375-14.722,115.015,27.007,147.446,54.631c6.714,5.72,8.242,15.488,3.589,22.983
						c-23.525,37.913-57.642,69.885-101.406,95.024C2153.174,1570.447,2150.107,1571.243,2147.031,1571.243z M2124.922,1428.467
						c2.129,9.077,8.394,25.879,13.628,39.907c6.328,16.973,13.76,36.902,19.668,56.985c24.136-16.497,44.165-35.591,59.829-57.029
						C2185.737,1445.545,2141.889,1428.65,2124.922,1428.467z"/>
				</g>
			</g>
			<g>
				<g>
					<path style="fill:#1F3A12;" d="M2063.96,763.764c23.703-32.111,48.073-61.807,79.162-87.805
						c7.633-6.277,18.909-5.178,25.186,2.454c6.996,8.347,4.658,21.366-4.762,26.797c-23.01,13.547-45.352,32.051-65.558,50.471
						c-6.949,6.373-13.89,12.996-20.426,19.6C2069.836,782.965,2057.657,772.604,2063.96,763.764L2063.96,763.764z"/>
				</g>
			</g>
			<g>
				<g>
					<path style="fill:#1F3A12;" d="M1783.627,674.887c14.673,18.273,28.573,35.933,40.778,56.211
						c2.514,4.273,1.09,9.773-3.181,12.288c-3.669,2.164-8.237,1.406-11.051-1.533c-7.516-7.329-16.034-14.343-24.63-21.155
						c-8.549-6.74-17.52-13.509-26.328-19.797C1737.959,684.038,1765.438,654.735,1783.627,674.887L1783.627,674.887z"/>
				</g>
			</g>
			<g>
				<g>
					<g>
						<g>
							<g>
								<path style="fill:#1F3A12;" d="M2230.929,841.614c74.382,1.216,130.991,80.54,126.44,177.173
									c-4.55,96.633-68.538,173.983-142.921,172.767c-74.38-1.217-130.992-80.539-126.44-177.173
									C2092.559,917.749,2156.548,840.397,2230.929,841.614z"/>
							</g>
						</g>
					</g>
				</g>
				<g>
					<g>
						<g>
							<g>
								<path style="fill:#FFFFFF;" d="M2229.906,882.188c22.022,11.275,27.066,44.878,11.266,75.054
									c-15.8,30.177-46.459,45.498-68.481,34.223c-22.021-11.274-27.066-44.877-11.265-75.052
									C2177.225,886.235,2207.883,870.912,2229.906,882.188z"/>
							</g>
						</g>
					</g>
				</g>
				<g>
					<g>
						<g>
							<g>
								<path style="fill:#B199C5;" d="M2276.863,1096.062c9.932,8.54,8.511,26.612-3.172,40.365
									c-11.683,13.755-29.206,17.981-39.135,9.441c-9.932-8.538-8.511-26.612,3.173-40.363
									C2249.409,1091.751,2266.933,1087.524,2276.863,1096.062z"/>
							</g>
						</g>
					</g>
				</g>
			</g>
			<g>
				<g>
					<g>
						<g>
							<g>
								<path style="fill:#1F3A12;" d="M1633.537,778.706c47.755,8.388,74.094,65.587,58.83,127.754
									c-15.264,62.168-66.351,105.765-114.107,97.377c-47.754-8.388-74.095-65.586-58.831-127.755
									C1534.694,813.914,1585.783,770.317,1633.537,778.706z"/>
							</g>
						</g>
					</g>
				</g>
				<g>
					<g>
						<g>
							<g>
								<path style="fill:#FFFFFF;" d="M1627.7,804.899c12.746,9.558,11.706,31.853-2.323,49.798
									c-14.028,17.945-35.732,24.743-48.478,15.185c-12.745-9.557-11.706-31.853,2.323-49.797
									C1593.251,802.14,1614.954,795.34,1627.7,804.899z"/>
							</g>
						</g>
					</g>
				</g>
				<g>
					<g>
						<g>
							<g>
								<path style="fill:#B199C5;" d="M1630.65,948.32c5.307,6.55,2.085,18.119-7.195,25.839
									c-9.281,7.721-21.107,8.671-26.413,2.121c-5.308-6.549-2.086-18.118,7.195-25.838
									C1613.517,942.721,1625.344,941.772,1630.65,948.32z"/>
							</g>
						</g>
					</g>
				</g>
			</g>
			<g>
				<g>
					<path style="fill:#1F3A12;" d="M2136.394,1188.412c-170.044-204.949-678.404-240.836-872.073-57.697
						c-4.871,4.749-11.763,6.173-17.834,4.274c-91.676-28.957-196.571-26.306-279.68,24.63
						c-90.984,53.382-127.104,135.864-119.501,240.3c7.768,87.558,48.571,201.138,148.224,211.257
						c41.393,5.023,81.812-13.495,120.318-28.707c60.503-23.651,124.799-6.882,178.491,25.024
						c21.324,12.509,41.849,26.183,64.845,35.284c142.487,57.513,294.542-6.163,436.506-37.731
						c25.586-5.228,51.717-9.031,77.866-10.86c25.445-1.964,50.405-1.203,75.658-3.753
						c111.105-10.695,234.186-51.958,288.741-156.108c23.567-40.266,54.877-80.575,100.916-95.801
						c13.055-4.08,27.417-6.282,40.461-2.444c-11.98,4.221-22.228,11.198-31.958,18.808
						c-37.253,30.908-64.018,72.201-86.329,114.741c-20.056,35.806-50.087,65.803-83.605,88.684
						c-66.477,44.728-145.972,65.416-225.006,71.548c-25.313,2.17-51.24,1.055-76.437,2.521
						c-49.826,2.246-97.461,13.651-145.836,26.653c-135.074,35.428-291.15,74.512-420.775-0.99
						c-55.036-34.732-115.634-67.648-181.332-42.053c-43.175,17.402-87.544,36.4-136.306,30.654
						c-58.97-6.118-105.53-41.563-133.861-91.751c-52.513-92.162-64.696-212.178-20.082-309.794
						c22.571-49.615,64.503-88.156,110.601-116.05c92.01-56.4,207.974-60.025,308.789-28.095c0-0.001-17.833,4.269-17.833,4.269
						c93.235-87.448,223.329-116.683,346.532-128.505c123.421-10.47,250.686,3.9,364.653,54.075
						C2025.637,1063.289,2097.295,1115.466,2136.394,1188.412L2136.394,1188.412z"/>
				</g>
			</g>
		</g>
		<g>
			<g>
				<g>
					<path style="fill:#49AF08;" d="M2963.806,1951.896c0,0-86.965,363.488-510.109,519.247
						c-60.382-25.441-99.166-82.137-119.415-147.452c-29.283-94.701-19.626-207.418,19.677-269.202
						c250.719,31.152,399.365-207.989,399.365-207.989l160.223,12.305l29.49,2.285L2963.806,1951.896z"/>
				</g>
			</g>
			<g style="opacity:0.7;">
				<g>
					<path style="fill:#F7F7F7;" d="M2953.63,1907.297l-172.165-24.869c0,0-141.377,196.723-359.802,187.066
						c-4.932-4.05-10.488-8.203-16.147-12.305c219.36-4.102,347.809-210.689,347.809-210.689l189.714,14.589L2953.63,1907.297z"/>
				</g>
			</g>
			<g>
				<g>
					<path style="fill:#1F3A12;" d="M2354.28,2051.913c150.468-0.577,271.417-81.534,364.293-194.693
						c5.682-6.942,11.972-14.733,17.107-21.686c4.214-6.782,11.783-10.321,19.238-9.751l189.713,14.599
						c9.283,0.715,16.671,7.456,18.652,16.077c0.08,3.703,24.382,98.493,20.952,99.253c-3.761,16.874-8.588,32.683-14.227,48.833
						c-81.993,226.316-279.737,413.585-515.414,469.034c-0.001-0.001-1.794-4.872-1.794-4.872
						c13.807-7.849,27.822-14.897,41.545-22.446c7.407-4.35,23.602-13.212,30.675-17.142c9.821-6.092,20.217-12.162,30.051-17.908
						c167.85-101.505,298.059-239.716,373.359-422.329c5.448-13.629,10.957-27.94,15.177-41.826c0,0-0.048,9.46-0.048,9.46
						l-20.768-90.798l18.651,16.077l-189.713-14.6l19.231-9.744c-74.183,121.579-211.137,216.636-357.482,208.988
						c-20.353-0.902-40.419-4.5-59.839-9.376L2354.28,2051.913L2354.28,2051.913z"/>
				</g>
			</g>
			<g style="opacity:0.25;">
				<g>
					<path style="fill:#1F3A12;" d="M2963.806,1951.896c0,0-86.965,363.488-510.109,519.247
						c-60.382-25.441-99.166-82.137-119.415-147.452c116.352,22.014,276.99-61.472,407.568-164.896
						c158.354-125.385,62.147-267.489,57.111-274.342l114.586-25.648l29.49,2.285L2963.806,1951.896z"/>
				</g>
			</g>
			<g>
				<g>
					<path style="fill:#49AF08;" d="M3041.27,1927.702c-64.069,39.823-121.18,32.035-208.561-18.172
						c-87.381-50.154-111.004-106.85-131.772-143.869c-20.768-36.967-33.073-97.297,21.443-89.509
						c54.515,7.788,86.083,46.468,86.083,46.468c13.447-92.728,26.427-153.526,48.337-178.447
						c10.748-12.149,29.127-12.824,41.016-1.713c46.208,43.093,49.116,121.336,49.116,121.336
						c25.077-41.588,49.791-63.498,65.055-74.089c0.156-0.104,0.26-0.208,0.415-0.312c10.436-7.217,24.35-6.957,34.371,0.727
						c31.775,24.298,26.791,79.748,19.73,114.69c-0.052,0.156-0.104,0.312-0.104,0.416c-1.298,6.334-2.648,11.993-3.894,16.614
						c-0.26,1.142-0.571,2.181-0.831,3.167c0,0.104,0,0.156-0.052,0.26c-1.765,6.49-3.063,10.332-3.063,10.332
						s64.017-51.037,102.126-31.152C3198.742,1724.385,3105.287,1887.932,3041.27,1927.702z"/>
				</g>
			</g>
			<g style="opacity:0.25;">
				<g>
					<path style="fill:#1F3A12;" d="M3041.27,1927.702c-64.069,39.823-121.18,32.035-208.561-18.172
						c-87.381-50.154-111.004-106.85-131.772-143.869c-1.662-2.959-3.271-6.075-4.777-9.294
						c19.573,27.31,48.389,57.06,96.726,84.837c87.432,50.154,144.544,57.942,208.561,18.172
						c40.29-25.077,92.313-99.218,115.78-155.655c15.109-4.621,30.736-5.919,43.457,0.727
						C3198.742,1724.385,3105.287,1887.932,3041.27,1927.702z"/>
				</g>
			</g>
			<g style="opacity:0.7;">
				<g>
					<path style="fill:#F7F7F7;" d="M2812.565,1695.362c12.097-77.464,24.558-128.812,44.235-151.19
						c10.436-11.786,28.036-12.772,39.926-2.648c-0.935,0.779-1.87,1.661-2.7,2.648c-21.962,24.922-34.89,85.719-48.337,178.447
						C2845.689,1722.62,2834.007,1708.29,2812.565,1695.362z"/>
				</g>
			</g>
			<g style="opacity:0.7;">
				<g>
					<path style="fill:#F7F7F7;" d="M2869.936,1909.53c41.64,23.935,76.374,38.213,108.304,42.314
						c-42.418,5.815-87.225-8.826-145.53-42.314c-87.381-50.154-111.004-106.85-131.772-143.869
						c-20.768-36.967-33.073-97.297,21.443-89.509c4.413,0.623,8.67,1.453,12.72,2.492c-24.973,12.149-13.707,57.163,3.063,87.017
						C2758.932,1802.68,2782.503,1859.376,2869.936,1909.53z"/>
				</g>
			</g>
			<g>
				<g>
					<path style="fill:#1F3A12;" d="M2959.516,1973.714c-44.746,0.002-89.038-18.53-137.148-46.157
						c-83.438-47.915-113.291-103.247-133.047-139.861c-2.231-4.136-4.365-8.093-6.47-11.841
						c-16.729-29.8-29.688-74.187-11.172-101.221c6.226-9.092,21.436-23.655,53.643-19.067c28.56,4.082,51.597,15.513,68.262,26.812
						c12.241-76.321,25.186-126.418,47.637-151.914c8.862-10.059,21.079-15.957,34.409-16.609
						c13.457-0.681,26.396,4.097,36.362,13.401c25.649,23.943,39.517,56.528,47.002,83.787
						c15.898-18.84,30.508-31.055,41.611-38.738c17.925-12.41,41.553-11.88,58.804,1.316c35.527,27.17,36.328,79.141,30.571,118.455
						c24.609-11.409,55.103-19.189,80.308-6.016c7.09,3.706,19.106,13.242,19.937,35.469
						c2.114,56.741-77.852,186.436-138.008,223.828C3020.244,1965.232,2989.775,1973.711,2959.516,1973.714z M2713.33,1696.214
						c-3.794,0-6.538,0.662-7.383,1.895c-4.385,6.401-1.514,31.338,13.125,57.412c2.212,3.943,4.458,8.103,6.807,12.454
						c19.6,36.328,43.989,81.538,117.173,123.562c83.311,47.842,132.31,52.695,187.241,18.545
						c24.131-15,57.036-53.982,83.828-99.314c29.048-49.146,35.698-79.807,34.59-88.901c-18.687-6.472-56.499,13.567-77.227,30.007
						c-7.197,5.71-17.319,6.021-24.844,0.735c-7.529-5.281-10.693-14.878-7.769-23.596c8.179-24.546,24.897-99.768-4.697-122.4
						c-2.832-2.173-6.924-2.239-9.932-0.156c-11.865,8.21-35.366,27.964-59.521,68.057c-4.736,7.866-14.072,11.687-22.979,9.392
						c-8.892-2.297-15.225-10.161-15.562-19.341c-0.029-0.662-3.311-70.332-42.529-106.943c-2.28-2.124-4.727-2.336-5.996-2.28
						c-1.426,0.071-3.501,0.574-5.264,2.578c-20.063,22.781-32.695,94.06-43.359,167.695c-1.177,8.154-7.07,14.839-15.01,17.039
						c-7.9,2.192-16.367-0.481-21.577-6.816c-0.586-0.698-27.949-32.715-73.003-39.15
						C2717.226,1696.368,2715.156,1696.214,2713.33,1696.214z"/>
				</g>
			</g>
			<g>
				<g>
					<path style="fill:#1F3A12;" d="M2807.876,1701.879c49.557,6.245,101.274,32.407,122.356,79.545c0,0,3.72,8.709,3.72,8.709
						l-5.918-7.329c-3.05-4.264-9.095-9.449-12.863-13.152c-29.258-23.961-69.419-31.718-106.088-26.258
						C2809.084,1743.395,2807.876,1701.879,2807.876,1701.879L2807.876,1701.879z"/>
				</g>
			</g>
			<g style="opacity:0.25;">
				<g>
					<path style="fill:#1F3A12;" d="M3066.503,1704.811c-0.052,0.156-0.104,0.312-0.104,0.416
						c-1.506,5.815-2.804,11.422-3.894,16.614l-0.156,0.779c-0.156,0.779-0.364,1.61-0.675,2.388c0,0.104,0,0.156-0.052,0.26
						c-11.993,34.838-118.013,69.209-67.963,1.454c51.296-69.416,16.874-127.826,16.874-127.826l1.454-9.19
						c0.156-0.104,0.26-0.208,0.415-0.312c10.436-7.217,24.35-6.957,34.371,0.727
						C3078.548,1614.42,3073.564,1669.87,3066.503,1704.811z"/>
				</g>
			</g>
		</g>
	</g>
</g>
</svg>
