<svg width="125" height="125" viewBox="0 0 125 125" fill="none" xmlns="http://www.w3.org/2000/svg">
<g clip-path="url(#clip0_4_3845)">
<path d="M125 0H0V125H125V0Z" fill="#7FFFB6"/>
<g opacity="0.25">
<path d="M62.9871 110.342C86.2059 110.342 105.028 107.313 105.028 103.576C105.028 99.8388 86.2059 96.8095 62.9871 96.8095C39.7683 96.8095 20.9457 99.8388 20.9457 103.576C20.9457 107.313 39.7683 110.342 62.9871 110.342Z" fill="#1F3A12"/>
</g>
<path d="M55.3603 103.412C55.3603 103.412 48.528 104.184 44.3096 103.532C40.0911 102.88 39.7131 104.346 34.3037 104.109C31.3005 103.98 28.8976 102.406 27.3546 101.033C27.353 101.032 27.3514 101.032 27.3497 101.03C26.6439 100.402 26.1199 99.8163 25.7986 99.4302C25.612 99.2046 25.7354 98.8655 26.0209 98.8104C27.7651 98.4729 30.1096 98.9418 30.2183 98.9629C27.3692 96.9137 26.6375 93.7483 26.4606 92.5914C26.4249 92.3562 26.6099 92.1436 26.8484 92.1534C28.8002 92.228 29.9506 93.096 29.9506 93.096C29.6699 91.4135 30.3692 90.2794 30.7504 89.804C30.8738 89.6515 31.0928 89.6126 31.2567 89.7213C32.6455 90.6412 33.7634 92.6644 33.7634 92.6644L34.2745 91.6228C34.3978 91.3729 34.7418 91.3324 34.9138 91.5514C35.8386 92.7294 36.6304 94.8548 36.6304 94.8548C37.9008 92.1225 40.4156 89.8787 40.4156 89.8787C38.6309 87.9723 38.3469 85.8224 38.3469 85.8224L40.7807 86.0658C39.4015 83.3887 42.1468 82.0258 42.1468 82.0258C42.1468 82.0258 36.5752 79.0356 38.6309 73.9215C40.6866 68.8074 49.6573 65.5252 49.6573 65.5252L54.6659 98.8007L55.3603 103.412Z" fill="#49AF08"/>
<g opacity="0.25">
<path d="M55.3603 103.412C55.3603 103.412 48.528 104.184 44.3096 103.532C40.0911 102.88 39.7131 104.346 34.3037 104.109C31.3005 103.98 28.8976 102.406 27.3546 101.033C30.718 103.219 36.4405 102.696 37.9413 101.111C39.4421 99.5259 40.5373 100.222 43.0927 98.5686C45.6481 96.9153 43.8472 92.6644 43.8472 92.6644L54.6659 98.8006L55.3603 103.412Z" fill="#1F3A12"/>
</g>
<g opacity="0.7">
<path d="M33.1549 99.276L32.9466 99.3883C32.0348 99.8798 30.9972 100.082 29.9659 99.9837C29.1481 99.906 28.1259 99.8731 27.2539 100.042C26.9683 100.097 26.845 100.436 27.0316 100.662C27.1387 100.791 27.2701 100.942 27.4226 101.111C26.7704 100.521 26.282 99.9737 25.977 99.6071C25.7904 99.3815 25.9137 99.0424 26.1993 98.9873C27.5005 98.7358 29.1376 98.9338 29.9277 99.057C30.2685 99.0327 30.713 98.9938 30.7487 98.9646C30.8055 98.9174 33.1549 99.276 33.1549 99.276Z" fill="#F7F7F7"/>
</g>
<g opacity="0.7">
<path d="M32.6033 90.99C32.5076 90.9121 32.4103 90.8407 32.3113 90.7758C32.1474 90.6671 31.9284 90.7061 31.8051 90.8586C31.4238 91.334 30.7245 92.4681 31.0052 94.1506C31.0052 94.1506 29.8548 93.2825 27.903 93.2079C27.6645 93.1982 27.4795 93.4107 27.5152 93.646C27.6531 94.5529 28.1334 96.6979 29.7104 98.5686C27.2799 96.5291 26.6261 93.6752 26.4606 92.5914C26.4249 92.3561 26.6098 92.1435 26.8484 92.1533C28.8002 92.2279 29.9506 93.0959 29.9506 93.0959C29.6699 91.4134 30.3692 90.2793 30.7504 89.8039C30.8738 89.6514 31.0928 89.6125 31.2567 89.7212C31.7531 90.0506 32.2156 90.5211 32.6033 90.99Z" fill="#F7F7F7"/>
</g>
<g opacity="0.7">
<path d="M34.9136 91.5514C35.1294 91.8256 35.3371 92.1517 35.5318 92.4908C35.4474 92.5248 35.3744 92.5865 35.329 92.6774L33.993 94.114C33.993 94.114 34.4658 93.083 33.9109 92.3626L34.2743 91.6228C34.3976 91.3729 34.7416 91.3323 34.9136 91.5514Z" fill="#F7F7F7"/>
</g>
<g opacity="0.7">
<path d="M43.3976 88.9245L41.4701 90.9332C41.4701 90.9332 38.9553 93.1771 37.6849 95.9093C37.0586 96.7676 36.593 97.9179 36.202 99.2078C36.202 99.2078 36.1241 97.4604 36.4372 95.8801C36.606 95.0364 36.7958 94.5351 36.9531 94.2414C36.9515 94.2365 36.9483 94.2333 36.9466 94.2284C38.2755 91.7882 40.4155 89.8785 40.4155 89.8785C38.6308 87.9721 38.3469 85.8223 38.3469 85.8223L40.7806 86.0657C39.6627 83.8948 41.256 82.5887 41.8985 82.1717C42.6189 82.7672 43.2013 83.0803 43.2013 83.0803C43.2013 83.0803 40.4561 84.4432 41.8352 87.1203L39.4015 86.877C39.4015 86.877 39.5994 88.3713 40.6995 89.9726L43.2014 88.1555L43.3976 88.9245Z" fill="#F7F7F7"/>
</g>
<g opacity="0.7">
<path d="M38.6308 73.9215C40.6865 68.8074 49.6572 65.5251 49.6572 65.5251L49.8665 66.9188C47.5853 67.8777 41.355 70.8225 39.6854 74.9761C38.6373 77.5851 39.5735 79.6407 40.7417 81.0296C39.2474 79.7575 37.2712 77.3043 38.6308 73.9215Z" fill="#F7F7F7"/>
</g>
<path d="M88.4249 83.1842C87.1639 84.6717 85.9431 85.4268 84.8148 84.4968L85.4427 80.3871L88.4249 83.1842Z" fill="#EFE029"/>
<path d="M91.4867 76.2486L88.0625 77.7641L90.4227 80.5121" fill="#EFE029"/>
<path d="M89.8721 70.1788L87.6029 73.5726L91.2692 73.921" fill="#EFE029"/>
<path d="M89.5573 102.738C88.5952 103.045 87.5746 103.311 86.4941 103.532C86.4941 103.532 78.0036 105.969 71.405 102.886C71.0497 102.969 70.6992 103.047 70.3504 103.118V103.12C59.1747 105.484 51.5977 103.405 47.4701 99.1202C44.2916 95.825 43.1526 91.2236 43.985 86.3367C43.985 86.3367 47.668 68.8382 52.3716 58.6036L64.073 58.1785L64.3796 58.1671L77.1291 57.7031C77.1291 57.7031 77.0836 64.9734 79.5709 71.6792C82.003 78.234 84.1755 80.9646 84.9787 85.2739C84.9981 85.3745 85.016 85.4768 85.0338 85.579C85.0955 85.5465 85.1571 85.5157 85.2188 85.4816C91.4053 82.2075 92.7244 76.5239 90.4383 71.3271C90.4091 71.2606 90.3799 71.194 90.3491 71.1275C89.4356 69.1335 87.9916 67.2173 86.0885 65.5413C90.1511 65.3369 93.8147 67.0616 96.6833 69.8863H96.6849C97.8044 70.988 98.8022 72.2568 99.6557 73.644C99.9785 74.1664 100.28 74.7067 100.559 75.26V75.2616C105.32 84.6915 103.739 98.2101 89.5573 102.738Z" fill="#49AF08"/>
<path d="M70.3503 103.118V103.12C50.5771 107.302 42.072 97.5773 43.9849 86.3367C43.9849 86.3367 47.668 68.8383 52.3716 58.6036L64.3796 58.1672C68.0139 59.8529 68.5899 61.8372 68.5899 61.8372C68.5899 61.8372 67.2221 67.3537 69.3411 71.517C71.4585 75.6819 79.3259 92.7342 70.3503 103.118Z" fill="#D7FF5C"/>
<g opacity="0.7">
<path d="M91.6519 81.7386C88.3323 87.904 85.2236 86.7683 85.2236 86.7683V85.579L85.2188 85.4817C91.4053 82.2075 92.7243 76.5239 90.4383 71.3271C90.4091 71.2606 90.3799 71.1941 90.3491 71.1276L90.7238 70.7641C90.7238 70.7641 94.9699 75.5731 91.6519 81.7386Z" fill="#F7F7F7"/>
</g>
<path d="M89.5574 102.738C89.3628 102.32 89.2589 102.073 89.2589 102.073L91.6862 96.3215C98.8608 92.6271 102.411 86.0723 100.56 75.2617C105.32 84.6915 103.74 98.2101 89.5574 102.738Z" fill="#D7FF5C"/>
<g opacity="0.3">
<path d="M96.6833 69.8863C91.1896 66.7387 90.5503 71.4098 90.5503 71.4098L90.4384 71.3271C89.5314 69.2616 88.0549 67.2725 86.0885 65.5413C90.1512 65.3369 93.8148 67.0616 96.6833 69.8863Z" fill="#3D1D55"/>
</g>
<path d="M48.2507 70.0562C49.6642 70.6244 51.1783 71.0079 52.6674 71.3373C55.0631 71.8208 57.51 72.1205 59.961 72.1795C60.7127 72.2208 61.8857 72.1909 62.6456 72.1898C63.0743 72.1674 64.2413 72.1075 64.6598 72.0856C65.1377 72.0512 66.1856 71.937 66.6701 71.8931C67.4433 71.8152 68.565 71.6228 69.3406 71.5175C68.564 71.6716 67.461 71.9289 66.6935 72.0537C62.0182 72.8749 57.1933 73.0168 52.4887 72.3355C50.8947 72.0817 49.3076 71.779 47.7721 71.2627L48.2507 70.0562Z" fill="#1F3A12"/>
<path d="M45.3059 80.4343C45.8056 80.551 46.5442 80.7714 47.0469 80.9061C53.2097 82.5627 59.7079 83.0669 66.052 82.3312C68.3777 82.1022 70.6673 81.6115 72.9462 81.0743C65.6295 83.2949 57.8155 83.8798 50.2487 82.7335C48.7967 82.5162 47.3264 82.2275 45.895 81.8919C45.7036 81.8451 45.287 81.7516 45.0907 81.7144L45.3059 80.4343Z" fill="#1F3A12"/>
<path d="M44.514 91.4792C44.5013 91.3671 44.4452 91.2427 44.3648 91.1619C44.5544 91.3306 44.7873 91.48 45.009 91.6253C49.2142 94.199 54.1814 95.3742 59.0955 95.4571C64.4215 95.535 69.7144 94.1823 74.5256 91.9083C67.4009 95.6843 58.9491 97.2202 51.036 95.2724C49.0501 94.7911 47.0996 94.1158 45.2666 93.194C44.672 92.8854 44.074 92.5727 43.5378 92.1576C43.3877 92.0416 43.2579 91.8628 43.2302 91.6705L44.514 91.4792Z" fill="#1F3A12"/>
<path d="M93.865 95.034C94.906 96.2636 95.3079 97.9599 95.2405 99.5515C95.2302 99.9227 95.179 100.324 95.1293 100.692L93.8774 100.349C94.0303 99.9433 94.1897 99.5018 94.2785 99.0741C94.5819 97.734 94.5058 96.276 93.865 95.034Z" fill="#1F3A12"/>
<path d="M98.3644 90.5445C99.8657 91.5317 100.918 93.0716 100.973 94.9163L99.678 94.8226C99.8398 94.1155 99.8199 93.3525 99.5839 92.611C99.3566 91.8435 98.8739 91.1574 98.3644 90.5445Z" fill="#1F3A12"/>
<path d="M100.714 84.4967C101.944 84.861 102.901 85.87 103.5 86.9801L102.27 87.3958C102.248 87.2652 102.231 87.1297 102.204 86.9972C102.003 86.0354 101.515 85.1005 100.714 84.4967Z" fill="#1F3A12"/>
<path d="M79.3385 105.104C76.8072 105.104 73.9518 104.741 71.3354 103.567C60.8839 105.947 52.4176 104.698 47.4781 100.043C43.8746 96.6468 42.4067 91.7403 43.3451 86.2272C43.3465 86.2189 43.3482 86.2107 43.3498 86.2025C43.3868 86.0267 47.1026 68.515 51.7811 58.3328L52.9606 58.8748C48.3944 68.8125 44.7387 85.9106 44.6226 86.4577C43.764 91.5234 45.0939 96.0123 48.3683 99.0983C53.0158 103.478 61.145 104.599 71.2583 102.253C71.3997 102.22 71.5482 102.236 71.6796 102.297C77.974 105.238 86.2325 102.931 86.3154 102.908C86.3314 102.903 86.348 102.899 86.3643 102.896C99.5566 100.205 103.176 90.6895 102.164 82.681C101.164 74.7625 95.5718 66.8175 87.7248 66.2104C90.9199 69.5428 92.524 73.6252 92.057 77.3878C91.6027 81.0471 89.2138 84.1612 85.3304 86.1562C85.1461 86.2508 84.9279 86.2518 84.743 86.1592C84.558 86.0664 84.4283 85.891 84.3938 85.687C83.9634 83.1346 83.0251 81.1379 81.8374 78.6099C80.9748 76.7741 79.9971 74.6933 78.9629 71.9055C76.4625 65.1655 76.478 58.0004 76.48 57.6987L77.7779 57.7067C77.7775 57.7783 77.7643 64.9429 80.18 71.454C81.1951 74.1907 82.1604 76.2453 83.0121 78.058C84.1051 80.3842 84.9941 82.2761 85.5013 84.5826C88.5779 82.7807 90.3934 80.2522 90.7688 77.2278C91.2386 73.4438 89.3287 69.2572 85.6595 66.0286C85.4613 65.8541 85.3886 65.5769 85.4755 65.3275C85.5625 65.0782 85.792 64.9064 86.0558 64.8932C90.3179 64.6798 94.4715 66.5133 97.755 70.057C100.789 73.3309 102.865 77.873 103.452 82.5184C104.064 87.361 103.031 92.0505 100.544 95.7232C97.6664 99.9726 92.8615 102.891 86.6478 104.163C86.2789 104.267 83.1829 105.104 79.3385 105.104Z" fill="#1F3A12"/>
<path d="M85.681 85.5311L85.2231 88.797L84.3866 85.627L85.681 85.5311Z" fill="#1F3A12"/>
<path d="M88.651 95.7667C87.561 92.7976 85.5565 90.1325 82.9646 88.3043C82.0834 87.6865 81.1223 87.175 80.1124 86.7688C82.2231 87.3692 84.191 88.4902 85.8303 89.9555C87.4928 91.4584 88.9077 93.2728 89.8662 95.3105C89.8661 95.3105 88.651 95.7667 88.651 95.7667Z" fill="#1F3A12"/>
<path d="M85.4568 84.5947L84.1738 84.3986L84.802 80.289C84.8384 80.0507 85.0038 79.8524 85.2316 79.7736C85.4596 79.6948 85.7119 79.749 85.8876 79.9138L88.8685 82.7111L87.9805 83.6576L85.8987 81.7041L85.4568 84.5947Z" fill="#1F3A12"/>
<path d="M89.9303 80.9349L87.5701 78.1869C87.4364 78.0312 87.3842 77.8213 87.4294 77.621C87.4747 77.4208 87.612 77.2537 87.7998 77.1706L91.2241 75.6551L91.7493 76.842L89.124 78.0039L90.9151 80.0892L89.9303 80.9349Z" fill="#1F3A12"/>
<path d="M91.2077 74.5671L87.5414 74.2187C87.3139 74.1971 87.1144 74.0575 87.0165 73.851C86.9185 73.6446 86.9362 73.4019 87.0631 73.2119L89.3324 69.8181L90.4115 70.5396L88.7467 73.0294L91.3304 73.2749L91.2077 74.5671Z" fill="#1F3A12"/>
<g opacity="0.25">
<path d="M89.5573 102.693C88.5952 103 87.5747 103.266 86.4941 103.487C86.4941 103.487 78.0036 105.924 71.405 102.841C71.0497 102.924 70.6992 103.002 70.3504 103.073V103.075C59.1747 105.439 51.5977 103.36 47.4701 99.0752C55.821 103.847 72.9463 99.5927 72.9463 99.5927C74.4877 101.726 78.7873 101.678 78.7873 101.678C85.6828 100.055 80.6532 90.4013 77.4909 87.8054C74.3287 85.2094 77.4082 82.9379 77.4893 79.6119C77.5704 76.2858 74.0756 64.208 74.0756 64.208C67.3098 64.7953 59.2752 61.9803 59.2752 61.9803L64.0729 58.1334L64.3796 58.122L77.1291 57.658C77.1291 57.658 77.0836 64.9283 79.5709 71.634C82.003 78.1889 84.1755 80.9195 84.9787 85.2288C85.0208 85.589 85.0403 85.9248 85.0338 86.2364C84.9592 89.9357 86.6206 91.1087 86.6206 91.1087C102.106 90.8426 99.6556 73.5989 99.6556 73.5989C99.9785 74.1213 100.28 74.6616 100.559 75.2149V75.2165C105.32 84.6464 103.739 98.1649 89.5573 102.693Z" fill="#1F3A12"/>
</g>
<path d="M83.952 105.157C88.3301 104.116 91.1141 101.39 91.13 95.7385C91.1313 95.2789 90.6963 94.9449 90.2496 95.0528C89.5322 95.226 88.5025 95.8379 87.6837 97.7747C87.6837 97.7747 87.7275 95.4554 86.7129 94.2808C86.4986 94.0327 86.1395 93.9673 85.8497 94.1205C85.2636 94.4304 84.2788 95.234 83.6816 97.2609C83.6816 97.2609 83.3157 95.9694 81.6428 94.8267C81.2714 94.5731 80.7582 94.7217 80.5864 95.1374C80.2732 95.8954 79.916 97.2982 80.1121 99.5459C80.1121 99.5459 78.6542 99.0705 76.6722 99.3804C76.226 99.4502 75.9547 99.9083 76.1123 100.332C76.7439 102.029 78.7557 105.833 83.952 105.157Z" fill="#49AF08"/>
<g opacity="0.7">
<path d="M83.0707 96.1592C82.876 95.9872 82.6521 95.8104 82.4006 95.6384C82.029 95.3837 81.5163 95.5329 81.3443 95.9483C81.0312 96.706 80.6726 98.1095 80.8689 100.357C80.8689 100.357 79.4119 99.8812 77.4293 100.191C76.9831 100.261 76.7122 100.72 76.8695 101.144C77.1016 101.765 77.5169 102.669 78.2081 103.532C77.048 102.471 76.4185 101.155 76.1118 100.332C75.9545 99.9088 76.2254 99.4497 76.6732 99.3799C78.6543 99.07 80.1129 99.5454 80.1129 99.5454C79.9166 97.2982 80.2735 95.8948 80.5867 95.1371C80.7586 94.7217 81.2713 94.5725 81.6429 94.8272C82.3032 95.2782 82.7591 95.7504 83.0707 96.1592Z" fill="#F7F7F7"/>
</g>
<g opacity="0.7">
<path d="M86.7131 94.2804C86.864 94.4556 86.9906 94.6552 87.0976 94.8694C86.9354 94.8304 86.7618 94.8499 86.6077 94.931C86.0203 95.2409 85.0355 96.0457 84.4384 98.0721C84.4384 98.0721 84.2973 97.574 83.7894 96.9234C84.3914 95.1435 85.2983 94.4118 85.85 94.1198C86.1404 93.9672 86.499 94.0321 86.7131 94.2804Z" fill="#F7F7F7"/>
</g>
<g opacity="0.7">
<path d="M91.1295 95.739C91.1295 95.7763 91.1295 95.812 91.1278 95.8477C91.0873 95.8493 91.0467 95.8542 91.0062 95.8639C90.289 96.0375 89.2604 96.6492 88.441 98.5865C88.441 98.5865 88.4572 97.6844 88.2252 96.7206C88.9229 95.5995 89.6838 95.1906 90.2501 95.0527C90.6962 94.9456 91.1311 95.2782 91.1295 95.739Z" fill="#F7F7F7"/>
</g>
<g opacity="0.7">
<path d="M87.6834 97.7752C87.6834 97.7752 87.7158 96.0943 87.0977 94.8693C87.2404 94.9002 87.3718 94.9748 87.4708 95.0916C87.8521 95.5329 88.0841 96.1381 88.2253 96.7206C88.0371 97.0191 87.8554 97.3679 87.6834 97.7752Z" fill="#F7F7F7"/>
</g>
<g opacity="0.25">
<path d="M91.1295 95.739C91.1149 101.39 88.3307 104.116 83.9516 105.158C78.7564 105.832 76.7445 102.029 76.1118 100.332C76.0453 100.152 76.055 99.9672 76.1231 99.8082C77.1794 101.585 79.2902 103.686 83.2621 103.17C87.2956 102.211 89.9759 99.8228 90.3848 95.0348C90.7807 95.0154 91.1311 95.3253 91.1295 95.739Z" fill="#1F3A12"/>
</g>
<path d="M82.742 105.887C78.0296 105.887 76.1279 102.234 75.5041 100.558C75.3611 100.174 75.3979 99.7508 75.6048 99.3975C75.8125 99.0428 76.165 98.8028 76.5721 98.7392C77.7405 98.5564 78.7417 98.6275 79.4139 98.7312C79.3568 96.8686 79.6809 95.6299 79.9867 94.8897C80.1431 94.5114 80.4581 94.2273 80.8511 94.1102C81.2457 93.9925 81.6681 94.0581 82.0091 94.291C82.7191 94.7759 83.2201 95.2918 83.5689 95.7467C84.1818 94.4938 84.9476 93.8634 85.5465 93.5468C86.1085 93.2497 86.7901 93.3772 87.2041 93.8566C87.6657 94.391 87.939 95.1032 88.1006 95.7748C88.7962 94.9166 89.5256 94.5601 90.0973 94.4219C90.5085 94.3227 90.9338 94.4159 91.2651 94.6774C91.5928 94.9362 91.7802 95.3236 91.7791 95.7402C91.7712 98.5952 91.0644 100.899 89.6788 102.589C88.4115 104.133 86.5353 105.21 84.1023 105.788C84.0803 105.794 84.0582 105.798 84.0359 105.801C83.5829 105.86 83.1515 105.887 82.742 105.887ZM78.0186 99.9252C77.6406 99.9252 77.2207 99.9515 76.7725 100.022C76.7646 100.023 76.7405 100.027 76.7248 100.053C76.7105 100.078 76.7178 100.098 76.7205 100.105C77.4266 102.002 79.2889 105.093 83.8351 104.518C88.3552 103.432 90.4675 100.641 90.4812 95.7366C90.4812 95.7295 90.4812 95.7123 90.4608 95.6961C90.4437 95.6825 90.4238 95.6784 90.402 95.6837C89.8281 95.8223 88.9942 96.3415 88.2816 98.0274C88.1605 98.3138 87.8532 98.4742 87.5489 98.4095C87.2447 98.3448 87.0291 98.0735 87.035 97.7624C87.0445 97.1855 86.9169 95.5098 86.2217 94.7051C86.2059 94.6866 86.1764 94.6821 86.1532 94.6943C85.6938 94.9372 84.8427 95.6174 84.3043 97.4443C84.223 97.7205 83.9694 97.9099 83.6818 97.9099C83.6807 97.9099 83.6795 97.9099 83.6784 97.9099C83.3894 97.9084 83.1361 97.7159 83.0574 97.4378C83.0455 97.3994 82.7095 96.3412 81.2768 95.3627C81.2599 95.3511 81.2416 95.3482 81.2219 95.354C81.1961 95.3618 81.1889 95.3789 81.1863 95.3854C80.8903 96.1016 80.576 97.3953 80.7588 99.4895C80.7777 99.7065 80.6866 99.9185 80.516 100.054C80.3452 100.19 80.1179 100.23 79.9111 100.163C79.9026 100.16 79.1484 99.9252 78.0186 99.9252Z" fill="#1F3A12"/>
<path d="M80.1926 98.902C80.2506 98.9151 80.3193 98.9357 80.3671 98.9612C81.0358 99.3106 81.6286 99.8161 82.082 100.412C82.2336 100.613 82.3587 100.83 82.4647 101.047C82.273 100.896 82.0773 100.764 81.8693 100.657C81.2899 100.368 80.6469 100.178 80.0017 100.175C79.9853 100.176 80.0269 100.188 80.0316 100.19C80.0317 100.19 80.1926 98.902 80.1926 98.902Z" fill="#1F3A12"/>
<path d="M35.4567 104.785C35.0904 104.785 34.6982 104.777 34.276 104.759C29.686 104.559 26.4689 101.255 25.2987 99.8438C25.0637 99.5603 24.9973 99.1844 25.1212 98.8381C25.2453 98.4914 25.5356 98.2426 25.8977 98.1725C26.6602 98.0252 27.515 98.0184 28.27 98.0643C26.52 96.0663 25.9804 93.7448 25.8194 92.6897C25.7729 92.3843 25.8642 92.0769 26.07 91.8463C26.2743 91.6173 26.5668 91.491 26.8728 91.5045C27.8571 91.542 28.6609 91.7655 29.2461 91.999C29.3274 90.745 29.8702 89.8647 30.2451 89.3982C30.5814 88.9794 31.1705 88.8853 31.615 89.1801C32.4595 89.7398 33.1968 90.6427 33.6895 91.3424L33.6921 91.3373C33.8494 91.0168 34.1558 90.8031 34.5113 90.7657C34.8649 90.7287 35.2054 90.8727 35.4238 91.1508C35.9199 91.7826 36.3715 92.6468 36.7002 93.3559C37.6627 91.774 38.8689 90.4813 39.5193 89.8363C37.988 87.9398 37.7152 85.996 37.7035 85.9074C37.6775 85.7108 37.7429 85.5132 37.8808 85.3708C38.0187 85.2284 38.2136 85.1561 38.4115 85.1767L39.8196 85.3174C39.6957 84.744 39.7216 84.1851 39.8982 83.6471C40.1283 82.9457 40.579 82.415 40.9904 82.0503C40.4562 81.664 39.7504 81.0773 39.1157 80.3022C37.4706 78.2933 37.0948 76.003 38.0288 73.679C40.167 68.3581 49.0562 65.0536 49.4335 64.9155L49.8796 66.1344C49.7926 66.1663 41.1557 69.3787 39.233 74.163C37.4224 78.6685 42.2479 81.3426 42.4542 81.4542C42.6673 81.5695 42.7989 81.7942 42.7946 82.0366C42.7904 82.2789 42.6519 82.499 42.4349 82.6068C42.4274 82.6105 41.4304 83.1262 41.1288 84.0597C40.9599 84.5828 41.0348 85.1417 41.3576 85.7686C41.4666 85.98 41.4512 86.2342 41.3174 86.4309C41.1835 86.6276 40.9537 86.7358 40.7162 86.7116L39.1991 86.5599C39.4379 87.2937 39.9276 88.4077 40.8894 89.4352C41.0088 89.5628 41.0717 89.7332 41.0639 89.9078C41.0561 90.0824 40.9782 90.2465 40.8477 90.3628C40.8237 90.3843 38.4153 92.5555 37.2182 95.1281C37.1078 95.3653 36.8664 95.5123 36.6044 95.5027C36.343 95.4925 36.1132 95.3261 36.0218 95.081C36.0149 95.0628 35.4009 93.4285 34.6599 92.3107L34.3457 92.9501C34.2392 93.1672 34.0207 93.3068 33.779 93.3127C33.7737 93.3129 33.7685 93.313 33.7633 93.313C33.5275 93.313 33.3098 93.1849 33.1954 92.978C33.1856 92.9606 32.2513 91.2904 31.1083 90.4127C30.7742 90.9055 30.3879 91.7728 30.5907 92.9899C30.6344 93.2519 30.5139 93.5141 30.2869 93.6517C30.0595 93.789 29.7714 93.7746 29.5595 93.6146C29.5528 93.6097 28.6595 92.9637 27.1594 92.8236C27.4106 94.1365 28.1959 96.7128 30.5994 98.4372C30.8482 98.6158 30.9383 98.9442 30.8153 99.2249C30.6921 99.5056 30.3895 99.6617 30.0895 99.6C30.0688 99.5957 28.1804 99.2122 26.6102 99.3785C27.8634 100.785 30.6102 103.3 34.3324 103.462C36.8707 103.572 38.2678 103.297 39.5001 103.053C40.9048 102.776 42.1182 102.537 44.4085 102.89C48.494 103.522 55.2204 102.775 55.2879 102.767L55.4334 104.057C55.151 104.089 48.4654 104.831 44.2104 104.173C42.1452 103.854 41.0889 104.063 39.7514 104.327C38.6521 104.544 37.4285 104.785 35.4567 104.785Z" fill="#1F3A12"/>
<path d="M40.8392 90.3701L39.9916 89.3873C40.0528 89.3345 41.5118 88.0803 43.4858 86.7593L44.2076 87.8381C42.303 89.1126 40.8537 90.3577 40.8392 90.3701Z" fill="#1F3A12"/>
<path d="M37.3035 94.9176C36.8583 95.8724 36.4484 96.8561 36.202 97.8896C36.0592 97.0895 36.0303 96.2571 36.0269 95.4403C36.0274 95.1635 36.0297 94.8941 36.0432 94.6069L37.3035 94.9176Z" fill="#1F3A12"/>
<path d="M30.5262 92.7967L31.1268 95.3545L29.375 93.3964L30.5262 92.7967Z" fill="#1F3A12"/>
<path d="M34.4044 92.5623L34.0676 94.5838L33.1224 92.7654L34.4044 92.5623Z" fill="#1F3A12"/>
<path d="M30.2849 98.3187L32.6819 99.2079L30.1572 99.6104L30.2849 98.3187Z" fill="#1F3A12"/>
<path d="M45.8579 76.2067C45.7874 75.3736 45.5082 74.5401 45.0268 73.8473C44.8588 73.6059 44.6511 73.3934 44.4177 73.194C44.7026 73.298 44.9903 73.4321 45.2515 73.6131C46.0612 74.1756 46.6928 74.9842 47.1135 75.8777L45.8579 76.2067Z" fill="#1F3A12"/>
<path d="M41.1634 85.5417L41.8351 86.8364L40.3976 86.5898L41.1634 85.5417Z" fill="#1F3A12"/>
<g opacity="0.25">
<path d="M47.4701 71.566C47.3381 71.5716 46.1889 73.6538 44.4177 73.0048C44.4177 73.0048 42.6538 72.6803 43.8467 75.4791C45.0396 78.2778 44.5529 83.632 44.6745 83.5103C44.7962 83.3887 47.2715 73.194 47.2715 73.194" fill="#1F3A12"/>
</g>
<path d="M65.7471 61.898C65.7471 61.898 74.7862 61.3549 82.7618 56.4178C90.0689 51.8945 90.8721 45.353 89.1482 39.9623C87.699 35.4306 83.8913 30.7616 83.8913 30.7616C83.8913 30.7616 81.4799 24.6019 78.7815 22.4931C75.9236 20.2596 72.481 18.9597 67.2916 21.5807C67.2916 21.5807 61.6418 19.5192 55.3568 21.4966C55.3568 21.4966 51.7585 18.8872 47.9626 20.7931C44.4232 22.5701 43.6409 28.9889 43.6409 28.9889C43.6409 28.9889 39.0217 33.0636 38.7533 37.8236C38.4961 42.3871 33.1694 49.7085 33.1694 49.7085C33.1694 49.7085 32.5721 53.1011 34.7726 54.2916C36.9731 55.4822 38.1922 55.4915 40.5071 56.8593C44.346 59.1277 48.6317 60.8868 56.3967 61.3797" fill="#49AF08"/>
<path d="M89.2477 48.8069C88.3047 51.5762 86.2929 54.2322 82.7617 56.4182C74.7859 61.3545 65.7475 61.8987 65.7475 61.8987L56.397 61.3795C48.6326 60.8864 44.3462 59.1283 40.5069 56.8594C38.1931 55.4911 36.973 55.4819 34.7731 54.2919C34.5551 54.1733 34.3636 54.0331 34.1967 53.8767C32.6851 52.4603 33.1698 49.709 33.1698 49.709C33.1698 49.709 38.4961 42.3878 38.7537 37.8236C39.0225 33.0631 43.6405 28.9895 43.6405 28.9895C43.6405 28.9895 44.4241 22.5706 47.963 20.7928C51.7592 18.8869 55.357 21.4971 55.357 21.4971C61.642 19.5188 67.2919 21.5802 67.2919 21.5802C72.4815 18.9595 75.9231 20.2597 78.7814 22.4924C81.4796 24.6019 83.8911 30.7623 83.8911 30.7623C83.8911 30.7623 87.6989 35.4303 89.149 39.963C90.0405 42.7487 90.2562 45.8419 89.2477 48.8069Z" fill="#49AF08"/>
<path d="M81.7763 37.6052C83.1214 37.5805 84.1957 36.6793 84.1758 35.5921C84.1559 34.5049 83.0493 33.6436 81.7042 33.6682C80.3591 33.6928 79.2848 34.5941 79.3047 35.6813C79.3246 36.7684 80.4312 37.6298 81.7763 37.6052Z" fill="#3A8E04"/>
<path d="M75.941 39.3836C76.9109 39.3658 77.6855 38.716 77.6712 37.9321C77.6568 37.1482 76.8589 36.5271 75.8891 36.5449C74.9192 36.5626 74.1446 37.2125 74.1589 37.9964C74.1733 38.7803 74.9711 39.4014 75.941 39.3836Z" fill="#3A8E04"/>
<path d="M86.1852 40.8309C87.0497 40.7989 87.7286 40.1796 87.7015 39.4477C87.6744 38.7158 86.9516 38.1484 86.0871 38.1804C85.2226 38.2125 84.5437 38.8317 84.5708 39.5636C84.5979 40.2955 85.3207 40.8629 86.1852 40.8309Z" fill="#3A8E04"/>
<path d="M80.9863 41.4199C81.7581 41.3914 82.3641 40.8385 82.3399 40.1851C82.3158 39.5317 81.6705 39.0251 80.8987 39.0537C80.1269 39.0823 79.5208 39.6351 79.545 40.2886C79.5692 40.942 80.2145 41.4485 80.9863 41.4199Z" fill="#3A8E04"/>
<path d="M86.2076 45.3427C87.0722 45.3108 87.7511 44.6916 87.7241 43.9597C87.697 43.2278 86.9743 42.6604 86.1098 42.6923C85.2453 42.7242 84.5663 43.3434 84.5934 44.0753C84.6204 44.8072 85.3431 45.3747 86.2076 45.3427Z" fill="#3A8E04"/>
<g opacity="0.5">
<path d="M66.7317 23.7885C67.835 22.7578 70.216 21.004 73.8416 21.5292C76.9713 21.9825 79.4809 25.8906 78.9559 25.4082C73.2231 20.1399 65.985 24.4861 66.7317 23.7885Z" fill="white"/>
</g>
<g opacity="0.5">
<path d="M45.9566 24.5385C46.4979 23.0679 48.236 20.506 51.8616 21.0313C54.9913 21.4846 56.424 24.4228 55.8628 23.9741C48.9191 18.4235 45.6201 25.4527 45.9566 24.5385Z" fill="white"/>
</g>
<g opacity="0.3">
<path d="M89.2476 48.8069C88.3047 51.5762 86.2928 54.2322 82.7616 56.4182C74.7858 61.3545 65.7474 61.8986 65.7474 61.8986L56.3969 61.3795C48.6326 60.8864 44.3462 59.1283 40.5068 56.8594C38.193 55.4911 36.9729 55.4819 34.773 54.2919C34.5551 54.1733 34.3635 54.0331 34.1967 53.8766C36.4859 54.7781 37.7863 54.4785 40.6427 55.6839C49.6538 59.4916 50.4466 56.2364 54.5327 56.4757C63.8931 57.0242 82.1196 60.2413 89.2444 48.8107C89.2445 48.8094 89.2461 48.8082 89.2476 48.8069Z" fill="#1F3A12"/>
</g>
<path d="M82.4965 54.736C81.0737 56.873 78.8655 58.5912 76.1894 59.5601C70.5202 61.6118 65.7474 61.8973 65.7474 61.8973L61.6102 62.0629L56.3968 61.3795C48.6323 60.8877 44.346 59.1283 40.5067 56.8581C38.1913 55.4923 36.9727 55.4832 34.7729 54.2906C34.5549 54.1733 34.3649 54.0331 34.1995 53.8767C36.4873 54.7768 37.7876 54.4785 40.6426 55.6839C49.6537 59.4916 50.4465 56.2364 54.5326 56.4757C61.6531 56.893 73.9053 58.8542 82.4965 54.736Z" fill="#ABD625"/>
<path d="M76.1896 59.5603C70.5198 61.6113 65.7467 61.8974 65.7467 61.8974L61.61 62.0629L56.3963 61.3793C48.6322 60.8874 44.3466 59.1277 40.5071 56.8586C38.1917 55.492 36.9725 55.4827 34.7734 54.291C32.5729 53.1005 33.1689 49.7079 33.1689 49.7079C33.1689 49.7079 33.9923 48.7354 35.0506 47.2789C41.0393 48.2025 48.6817 48.971 54.3964 48.1333C61.1296 47.1454 69.1979 42.077 74.3548 41.7526C76.987 41.5863 78.4114 41.6672 80.5684 42.759C83.1922 44.0869 84.3778 46.6403 84.2373 49.5657C84.0246 53.9911 80.804 57.891 76.1896 59.5603Z" fill="#D7FF5C"/>
<path d="M34.2015 53.877C34.2009 53.8767 34.2003 53.8765 34.1997 53.8763C34.2406 53.9155 34.283 53.953 34.329 53.9902C34.3714 54.0261 34.4172 54.0616 34.4629 54.0956C34.5028 54.1234 34.5426 54.1513 34.5841 54.1773C34.6049 54.192 34.6257 54.2051 34.6464 54.2181C34.6877 54.2425 34.7308 54.2668 34.7738 54.2911C34.912 54.3649 35.0445 54.4358 35.1749 54.5021C35.24 54.5344 35.3051 54.5667 35.3683 54.5975C35.4947 54.6591 35.619 54.7176 35.7413 54.773C35.8618 54.8285 35.982 54.8808 36.0984 54.9301C36.2739 55.004 36.4437 55.0735 36.6114 55.1398C36.6684 55.1613 36.7237 55.1829 36.7789 55.2046C37.2758 55.3943 37.7529 55.561 38.2559 55.76C38.4236 55.8264 38.5934 55.8958 38.7673 55.9715C39.2906 56.1984 39.8557 56.4743 40.507 56.858C44.3458 59.1281 48.6325 60.8872 56.3975 61.3799L61.6104 62.0635L65.7462 61.8983L65.748 61.8981C65.748 61.8981 70.5196 61.6118 76.189 59.5607C76.5246 59.4403 76.8501 59.3061 77.1694 59.1624C77.2344 59.1339 77.2975 59.1056 77.3606 59.0757C77.4594 59.0295 77.5564 58.9819 77.6516 58.9344C77.7264 58.8969 77.8012 58.8593 77.8741 58.8203C78.0066 58.7533 78.1353 58.6833 78.262 58.6102C78.3212 58.5772 78.3787 58.5444 78.436 58.51C78.9474 58.2122 79.433 57.8837 79.8878 57.5282C79.9442 57.484 80.0006 57.4398 80.0569 57.3939C80.1696 57.3039 80.2786 57.2126 80.3873 57.1179C80.4417 57.0706 80.4961 57.0233 80.5487 56.9762C80.6555 56.8801 80.7588 56.7843 80.8618 56.6852C80.9647 56.5861 81.0658 56.4856 81.1634 56.3853C81.2364 56.3085 81.3094 56.2317 81.3807 56.155C81.4762 56.0517 81.5696 55.9452 81.6613 55.8389C81.7 55.7962 81.7368 55.7503 81.7736 55.7062C82.0332 55.3934 82.2742 55.0708 82.4963 54.7366C83.5293 53.1904 84.1479 51.4245 84.2375 49.5653C84.3783 46.6404 83.1916 44.0872 80.568 42.7594C78.4117 41.6666 76.9865 41.5865 74.3558 41.7528C69.1983 42.0766 61.1292 47.1448 54.3972 48.1339C48.6821 48.9714 41.0396 48.2022 35.0516 47.2785C33.9927 48.7348 33.1691 49.708 33.1691 49.708C33.1691 49.708 32.6862 52.4606 34.2015 53.877Z" fill="#D7FF5C"/>
<g opacity="0.25">
<path d="M34.1995 53.8763C34.2403 53.9155 34.2828 53.953 34.3288 53.9902C34.3711 54.0261 34.417 54.0616 34.4627 54.0956C34.5026 54.1234 34.5424 54.1513 34.5838 54.1773C34.6047 54.192 34.6254 54.2051 34.6461 54.2181C34.6875 54.2425 34.7305 54.2668 34.7736 54.2911C34.9117 54.3649 35.0443 54.4358 35.1747 54.5021C35.2398 54.5344 35.3049 54.5667 35.3681 54.5975C35.4945 54.6591 35.6188 54.7176 35.7411 54.773C35.8616 54.8285 35.9818 54.8808 36.0982 54.9301C36.2738 55.0057 36.4436 55.0751 36.6111 55.1398C36.6682 55.1613 36.7234 55.1829 36.7787 55.2046C37.2757 55.3959 37.7528 55.5626 38.2557 55.76C38.4217 55.8265 38.5914 55.896 38.767 55.9715C39.2904 56.1984 39.8555 56.4743 40.5067 56.858C44.3456 59.1281 48.6322 60.8872 56.3972 61.3799L61.6101 62.0635L65.746 61.8983L65.7477 61.8981C65.7477 61.8981 70.5194 61.6118 76.1888 59.5607C76.5244 59.4403 76.8499 59.3061 77.1692 59.1624C77.2341 59.1339 77.2973 59.1056 77.3603 59.0757C77.4592 59.0295 77.5562 58.9819 77.6514 58.9344C77.7262 58.8969 77.801 58.8593 77.8739 58.8203C78.0064 58.7533 78.1351 58.6833 78.2618 58.6102C78.321 58.5772 78.3784 58.5444 78.4357 58.51C78.9472 58.2122 79.4328 57.8837 79.8876 57.5282C79.944 57.484 80.0004 57.4398 80.0567 57.3939C80.1694 57.3039 80.2784 57.2126 80.3871 57.1179C80.4415 57.0706 80.4958 57.0233 80.5484 56.9762C80.6552 56.8801 80.7585 56.7843 80.8615 56.6852C80.9645 56.5861 81.0656 56.4856 81.1631 56.3853C81.2363 56.3102 81.3093 56.2333 81.3804 56.155C81.4759 56.0517 81.5694 55.9452 81.661 55.8389C81.6998 55.7962 81.7365 55.7503 81.7734 55.7062C82.033 55.3934 82.2739 55.0708 82.496 54.7366C73.9057 58.8547 61.6528 56.8927 54.5325 56.4753C50.4473 56.2371 49.654 59.4914 40.6423 55.6833C37.7881 54.4785 36.4877 54.7773 34.1995 53.8763Z" fill="#1F3A12"/>
</g>
<path d="M65.7471 61.898C71.5425 60.7406 77.3274 59.0571 82.3728 55.9277C87.6106 52.7421 90.3189 47.4765 88.8473 41.3898C87.932 37.5337 85.6625 34.1355 83.3722 30.9647C82.3417 28.4989 81.1402 25.9825 79.4351 23.9141C78.8669 23.2272 78.1956 22.7138 77.4602 22.2283C76.7234 21.7432 75.9424 21.3417 75.1217 21.0742C72.5833 20.2197 69.9019 20.8771 67.543 22.0783C67.3995 22.1503 67.2408 22.1549 67.1005 22.1044C66.6626 21.9562 66.1697 21.8215 65.7084 21.7166C63.3156 21.1723 60.8178 21.046 58.387 21.3849C57.4163 21.5223 56.4584 21.7387 55.5241 22.0284C55.3524 22.0816 55.1746 22.0484 55.0374 21.9534C53.9263 21.2152 52.5922 20.7476 51.2632 20.6655C48.1256 20.5414 46.4033 22.2355 45.2755 25.0159C44.8805 25.9829 44.5856 27.0055 44.3724 28.0324C44.3021 28.3731 44.2377 28.7298 44.1942 29.0564C44.1756 29.1961 44.1082 29.3173 44.0116 29.4052C43.329 30.0324 42.6676 30.7662 42.0886 31.5035C40.933 32.9837 39.9467 34.6623 39.5139 36.4888C39.2761 37.4442 39.3242 38.4563 39.0738 39.3992C38.8379 40.4034 38.4875 41.3547 38.0953 42.2797C36.8947 45.0318 35.3451 47.5835 33.6202 50.0363C33.6198 50.0371 33.7184 49.8051 33.7183 49.8052C33.6145 50.8012 33.6897 51.9694 34.1773 52.8376C34.4086 53.2547 34.7475 53.5787 35.1717 53.7836C35.6707 54.0458 36.1776 54.2823 36.7054 54.4926C37.9313 54.9656 39.2466 55.4237 40.402 56.1001C43.2282 57.8628 46.2596 59.2642 49.5089 60.0858C51.7697 60.691 54.0765 61.059 56.3967 61.3797C52.8513 61.3895 49.2849 60.9943 45.8909 59.9233C43.7703 59.2612 41.74 58.2625 39.8133 57.1616C38.1182 56.2199 36.176 55.8146 34.4742 54.8515C32.9477 54.0399 32.4257 52.1727 32.5153 50.5733C32.5356 50.2386 32.5562 49.9516 32.6204 49.6119C32.6347 49.5261 32.6679 49.4453 32.7187 49.3805C33.8351 47.8087 34.877 46.1413 35.7999 44.444C36.7004 42.7624 37.5433 40.9927 37.9881 39.1463C38.2321 38.1789 38.1802 37.1904 38.4287 36.2337C39.1764 33.2292 41.0603 30.6733 43.2721 28.5709L43.0876 28.9215C43.4279 26.6886 44.062 24.4918 45.2916 22.5732C47.4431 19.1142 51.8499 18.7987 55.1735 20.7249C55.3546 20.8341 55.5043 20.9162 55.6841 21.0454L55.1896 20.965C58.6644 19.8792 62.4197 19.8272 65.9586 20.6302C66.4804 20.7549 66.9649 20.8766 67.4827 21.0571L67.0404 21.0832C70.7286 19.1914 74.5222 18.8904 78.0726 21.2967C78.476 21.5638 78.8533 21.8356 79.2354 22.1455C80.3558 23.0836 81.1806 24.3051 81.9255 25.5213C82.8931 27.1408 83.6982 28.8099 84.4103 30.5583C84.4107 30.5591 84.3232 30.4092 84.3233 30.4094C85.6177 31.9841 86.7572 33.649 87.779 35.4116C89.3404 38.0707 90.482 41.054 90.5839 44.1722C90.8101 49.7318 87.692 54.2259 83.0233 56.9844C77.8213 60.0615 71.8116 61.9366 65.7471 61.898Z" fill="#1F3A12"/>
<path d="M39.921 55.4944C41.9693 55.6773 43.9411 56.5084 45.9407 56.8605C47.414 57.1272 48.9292 57.1158 50.4093 56.8535C50.9106 56.7672 51.4063 56.6393 51.9148 56.5017C50.1922 57.7704 47.8645 58.0902 45.7863 57.6766C43.6971 57.2613 41.8636 56.2922 39.921 55.4944Z" fill="#1F3A12"/>
<path d="M54.1982 51.4975C54.1208 51.4975 54.0456 51.4652 53.992 51.4064C53.922 51.3293 53.9006 51.2197 53.9368 51.122C54.2543 50.265 54.4338 49.1975 54.5779 48.3397C54.7208 47.4909 54.8238 46.8775 55.0153 46.5767C55.1915 46.2993 55.4936 46.1972 55.8435 46.2974C56.9911 46.6255 58.7849 49.1273 58.7962 50.4157C58.7976 50.5633 58.6835 50.6864 58.5362 50.6962C56.94 50.8029 55.7108 51.1047 54.2699 51.4882C54.2461 51.4945 54.2219 51.4975 54.1982 51.4975ZM55.5893 46.8163C55.5235 46.8163 55.5031 46.8484 55.4857 46.8758C55.3548 47.0815 55.2444 47.7375 55.1277 48.4322C55.0058 49.1569 54.8595 50.0277 54.6243 50.8184C55.8052 50.5121 56.8866 50.2716 58.2102 50.1617C57.9823 49.0046 56.4546 47.0518 55.6903 46.8333C55.648 46.8212 55.6152 46.8163 55.5893 46.8163Z" fill="#16260E"/>
<path d="M67.0948 48.8227C67.0562 48.8227 67.0176 48.8147 66.9814 48.7986C66.9001 48.7624 66.8411 48.6895 66.8223 48.6025C66.6489 47.7947 66.3288 46.9363 66.0464 46.1789C65.7139 45.2878 65.5268 44.7674 65.5456 44.4362C65.5599 44.1834 65.6968 43.9889 65.9312 43.8886C66.8289 43.5042 69.1696 44.6325 70.2485 45.5518C70.3535 45.6411 70.3773 45.7937 70.3047 45.9109C69.5941 47.0561 68.5609 48.0232 67.2337 48.7857C67.1908 48.8102 67.1429 48.8227 67.0948 48.8227ZM66.3774 44.3649C66.2844 44.3649 66.2077 44.3766 66.1506 44.401C66.1094 44.4187 66.1044 44.4301 66.1022 44.4677C66.0891 44.6983 66.3328 45.352 66.5685 45.9841C66.8151 46.6451 67.0896 47.3813 67.2781 48.1092C68.2922 47.4749 69.1043 46.7077 69.6983 45.8226C68.6465 45.0069 67.067 44.3649 66.3774 44.3649Z" fill="#16260E"/>
<path d="M28.9047 49.7729C29.917 52.5431 31.5965 54.3187 32.4401 54.3516C33.6273 54.398 33.8242 50.257 34.1854 49.4666" fill="white"/>
<path d="M32.4651 54.9096C32.4497 54.9096 32.4341 54.9093 32.4184 54.9087C31.1496 54.8591 29.3763 52.6873 28.3811 49.9642C28.2754 49.6751 28.4241 49.355 28.7133 49.2493C29.0021 49.1437 29.3224 49.2922 29.4282 49.5815C30.4186 52.2916 31.9733 53.7443 32.4462 53.7935C32.8435 53.5673 33.1902 51.5602 33.3214 50.8003C33.4604 49.9952 33.5456 49.5255 33.6785 49.2348C33.8064 48.9548 34.1369 48.8316 34.4172 48.9597C34.6972 49.0877 34.8203 49.4184 34.6923 49.6984C34.6131 49.8718 34.5106 50.4659 34.4199 50.99C34.1025 52.8286 33.743 54.9096 32.4651 54.9096Z" fill="#1F3A12"/>
<path d="M49.8064 50.6502C49.4514 54.1656 48.1605 55.8158 47.4137 55.9194C46.3712 56.0641 45.1345 52.0692 44.5482 51.4113" fill="white"/>
<path d="M47.3515 56.4813C46.3228 56.4813 45.5946 54.8679 44.8256 53.1639C44.5798 52.619 44.2737 51.9409 44.1322 51.7822C43.9273 51.5523 43.9476 51.2 44.1775 50.9951C44.407 50.7904 44.7598 50.8104 44.9644 51.0404C45.2076 51.3134 45.4443 51.8248 45.8418 52.7053C46.1767 53.4476 46.9534 55.1687 47.3663 55.3607C47.7264 55.2512 48.9105 53.9739 49.2518 50.5942C49.2828 50.2881 49.5543 50.0653 49.8625 50.0956C50.1687 50.1265 50.3919 50.3999 50.3611 50.7062C50.0001 54.2798 48.6438 56.3116 47.4905 56.4715C47.4435 56.4781 47.3973 56.4813 47.3515 56.4813Z" fill="#1F3A12"/>
<path d="M65.6352 48.5337C65.5956 51.8983 64.7211 53.674 63.9743 53.7776C62.9318 53.9223 60.9633 49.9527 60.3771 49.2948" fill="white"/>
<path d="M63.9172 54.339C62.937 54.339 61.9561 52.862 60.6953 50.7983C60.4007 50.316 60.0961 49.8174 59.9609 49.6657C59.756 49.4358 59.7763 49.0835 60.0062 48.8786C60.2359 48.6739 60.5884 48.6939 60.7931 48.9239C60.9859 49.1401 61.2306 49.536 61.6467 50.217C62.1267 51.0028 63.3926 53.0748 63.9131 53.2206C64.1799 53.1171 65.039 51.8345 65.0778 48.5271C65.0816 48.2193 65.3352 47.9787 65.6418 47.9763C65.9495 47.9799 66.1963 48.2324 66.1926 48.5402C66.1534 51.8821 65.3126 54.1546 64.0509 54.3297C64.0063 54.3359 63.9618 54.339 63.9172 54.339Z" fill="#1F3A12"/>
<path d="M66.7624 37.1379C65.5786 35.441 63.3889 33.2586 58.3562 31.8743C52.011 30.129 43.0839 31.0551 39.1201 34.9367C36.7768 34.1994 32.0445 33.4553 28.1662 37.0954C24.1696 40.8465 26.0263 48.5747 29.1982 50.3085C31.7979 51.7296 33.9508 50.3274 35.2613 49.9066C36.82 49.406 38.4267 49.5924 40.7416 51.0595C43.6339 52.8926 46.6946 52.9089 50.5401 52.119C54.3857 51.3291 56.0668 50.4004 59.6908 50.375C63.3148 50.3496 68.2934 49.1058 70.2922 45.3769C72.2911 41.6481 74.3543 41.7525 74.3543 41.7525L66.7624 37.1379Z" fill="#49AF08"/>
<g opacity="0.5">
<path d="M28.9496 37.9543C28.9496 37.9543 32.5194 33.6158 39.0283 36.3659C40.9989 35.9203 47.8612 34.6125 50.9462 38.1912C50.9462 38.1912 45.4013 35.5088 38.9621 37.3975C38.9621 37.3975 33.8593 34.6642 28.9496 37.9543Z" fill="white"/>
</g>
<g opacity="0.3">
<path d="M74.3531 41.7531C74.2869 41.7507 72.258 41.7088 70.2918 45.3764C68.2935 49.1063 63.3146 50.3496 59.6907 50.375C56.0667 50.4004 54.3854 51.3294 50.5399 52.1192C46.6943 52.9091 43.6333 52.8925 40.7419 51.06C38.4271 49.5926 36.8204 49.406 35.2609 49.9063C33.9512 50.327 31.7972 51.729 29.1979 50.3082C27.2464 49.2432 25.7944 45.9107 25.893 42.6294C26.2698 45.2121 27.5169 47.5339 29.085 48.3911C31.6844 49.8119 33.8369 48.4099 35.148 47.9892C36.706 47.4889 38.3128 47.6755 40.6276 49.1429C43.5204 50.9754 46.58 50.992 50.427 50.2022C54.2725 49.4123 55.9524 48.4833 59.5764 48.4579C63.2003 48.4325 68.1792 47.1892 70.1789 43.4594C70.9679 41.9863 74.3531 41.7531 74.3531 41.7531Z" fill="#1F3A12"/>
</g>
<path d="M39.3149 34.4144C39.1835 34.3706 39.1738 34.3882 39.1461 34.3808L39.1869 34.3722L39.3181 34.3419C42.5425 33.4767 46.0345 33.3076 49.1993 34.5626C51.7554 35.5614 53.7487 37.6583 53.8957 40.4967C53.9574 41.3467 53.8508 42.2102 53.6374 43.0304C53.6192 41.4091 53.3488 39.7458 52.4414 38.4077C49.8922 34.738 44.4806 34.6014 40.4646 35.2977C40.1806 35.3476 39.6481 35.4445 39.3637 35.485C39.1942 35.4979 39.1548 35.526 38.9252 35.4589C38.6368 35.3513 38.4902 35.0302 38.5978 34.7417C38.7055 34.4534 39.0265 34.3068 39.3149 34.4144Z" fill="#1F3A12"/>
<path d="M33.3952 41.8926C33.3952 41.8926 32.7261 39.2157 31.2862 39.2764C30.2844 39.3186 29.9134 40.5096 30.2022 41.385C30.491 42.2603 31.3635 42.3959 31.8568 42.0772C32.4686 41.6819 32.4972 40.8333 33.3952 41.8926Z" fill="#1F3A12"/>
<path d="M44.5116 42.7442C44.5116 42.7442 45.5205 40.1271 46.9461 40.2899C47.9378 40.4031 48.1547 41.6151 47.7551 42.4659C47.3555 43.3167 46.4696 43.3897 46.0193 43.0374C45.4609 42.6004 45.5411 41.7537 44.5116 42.7442Z" fill="#1F3A12"/>
<path d="M58.5176 50.4181C56.8772 50.5277 55.6167 50.8413 54.1981 51.2188C54.8099 49.5678 54.9047 47.2695 55.2504 46.7264C55.8865 45.7249 58.5048 48.9733 58.5176 50.4181Z" fill="white"/>
<path d="M54.1981 51.7762C54.0432 51.7762 53.8927 51.7117 53.7857 51.5939C53.6456 51.4397 53.603 51.2204 53.6753 51.0252C53.9837 50.1928 54.1609 49.1397 54.3031 48.2936C54.4661 47.3241 54.5686 46.7594 54.7801 46.427C55.0236 46.0439 55.4498 45.8948 55.9201 46.0295C57.1756 46.3884 59.0625 49.0104 59.075 50.4132C59.0776 50.7085 58.8495 50.9546 58.5548 50.9743C56.9835 51.0793 55.7677 51.378 54.3414 51.7575C54.2941 51.7701 54.2458 51.7762 54.1981 51.7762ZM55.6796 47.1176C55.588 47.3751 55.4864 47.9796 55.4025 48.4783C55.3028 49.0716 55.1868 49.7613 55.019 50.4306C55.9422 50.2015 56.832 50.0188 57.8585 49.9143C57.4911 48.8397 56.2244 47.3202 55.6796 47.1176Z" fill="#1F3A12"/>
<path d="M70.0679 45.7639C69.3353 46.9444 68.2915 47.8566 67.0949 48.544C66.7428 46.9033 65.7909 45.0351 65.824 44.4521C65.8784 43.4889 68.7278 44.6224 70.0679 45.7639Z" fill="white"/>
<path d="M67.0949 49.1013C67.0179 49.1013 66.9405 49.0854 66.8682 49.0531C66.7055 48.9807 66.5873 48.835 66.5499 48.6609C66.3808 47.873 66.0643 47.0247 65.7853 46.2762C65.4299 45.3233 65.2454 44.8081 65.2675 44.4204C65.2878 44.0616 65.4897 43.7743 65.8217 43.6323C66.8959 43.1722 69.4159 44.4762 70.4294 45.3395C70.6392 45.5182 70.687 45.8235 70.5416 46.0577C69.8064 47.2425 68.7402 48.2416 67.3726 49.0272C67.2869 49.0765 67.1911 49.1013 67.0949 49.1013ZM66.404 44.6396C66.4706 44.9232 66.6663 45.4483 66.8299 45.8867C67.0277 46.4171 67.2599 47.0399 67.4445 47.6675C68.1988 47.1519 68.8247 46.5552 69.3142 45.8853C68.3045 45.1733 66.9343 44.6453 66.404 44.6396Z" fill="#1F3A12"/>
<path d="M64.4987 23.8676C65.2395 22.8642 66.001 21.9362 66.9726 21.1237C67.2111 20.9276 67.5635 20.9619 67.7596 21.2004C67.9783 21.4613 67.9052 21.8681 67.6108 22.0378C66.8917 22.4612 66.1936 23.0394 65.5621 23.615C65.345 23.8142 65.1281 24.0212 64.9238 24.2275C64.6824 24.4677 64.3018 24.1439 64.4987 23.8676Z" fill="#1F3A12"/>
<path d="M55.7383 21.0902C56.1968 21.6612 56.6312 22.2131 57.0126 22.8468C57.0912 22.9803 57.0466 23.1522 56.9132 23.2308C56.7985 23.2984 56.6558 23.2747 56.5678 23.1829C56.333 22.9539 56.0668 22.7347 55.7981 22.5218C55.531 22.3112 55.2506 22.0996 54.9754 21.9031C54.3111 21.3762 55.1699 20.4605 55.7383 21.0902Z" fill="#1F3A12"/>
<path d="M69.7166 26.3004C72.041 26.3384 73.8101 28.8173 73.6678 31.8371C73.5257 34.8569 71.526 37.2741 69.2016 37.2361C66.8772 37.198 65.1081 34.7192 65.2503 31.6994C65.3925 28.6796 67.3922 26.2624 69.7166 26.3004Z" fill="#1F3A12"/>
<path d="M69.6846 27.5684C70.3728 27.9207 70.5304 28.9708 70.0367 29.9138C69.5429 30.8568 68.5848 31.3356 67.8967 30.9833C67.2085 30.631 67.0508 29.5809 67.5446 28.6379C68.0383 27.6948 68.9964 27.216 69.6846 27.5684Z" fill="white"/>
<path d="M71.1521 34.2519C71.4625 34.5188 71.4181 35.0835 71.053 35.5133C70.6879 35.9432 70.1403 36.0752 69.83 35.8084C69.5196 35.5415 69.564 34.9767 69.9292 34.547C70.2942 34.1172 70.8418 33.9851 71.1521 34.2519Z" fill="#B199C5"/>
<path d="M51.0481 24.3346C52.5405 24.5967 53.3635 26.3842 52.8865 28.3269C52.4095 30.2696 50.8131 31.632 49.3207 31.3699C47.8284 31.1078 47.0052 29.3203 47.4822 27.3776C47.9593 25.4348 49.5558 24.0724 51.0481 24.3346Z" fill="#1F3A12"/>
<path d="M50.8657 25.1531C51.264 25.4518 51.2315 26.1485 50.7931 26.7093C50.3548 27.2701 49.6765 27.4825 49.2782 27.1838C48.8799 26.8852 48.9124 26.1884 49.3508 25.6277C49.7892 25.0669 50.4674 24.8544 50.8657 25.1531Z" fill="white"/>
<path d="M50.9579 29.635C51.1238 29.8397 51.0231 30.2012 50.7331 30.4425C50.443 30.6837 50.0735 30.7134 49.9077 30.5088C49.7418 30.3041 49.8425 29.9426 50.1325 29.7013C50.4225 29.46 50.7921 29.4304 50.9579 29.635Z" fill="#B199C5"/>
<path d="M66.7625 37.1379C61.4486 30.7332 45.5624 29.6118 39.5102 35.3348C39.358 35.4833 39.1426 35.5278 38.9529 35.4684C36.088 34.5635 32.8101 34.6463 30.2129 36.2381C27.3697 37.9063 26.2409 40.4838 26.4785 43.7475C26.7212 46.4837 27.9963 50.033 31.1105 50.3493C32.404 50.5062 33.6671 49.9275 34.8704 49.4522C36.7611 48.7131 38.7704 49.2371 40.4483 50.2342C41.1146 50.6251 41.7561 51.0524 42.4747 51.3368C46.9274 53.1341 51.6791 51.1442 56.1155 50.1577C56.9151 49.9943 57.7317 49.8755 58.5488 49.8183C59.344 49.7569 60.124 49.7807 60.9131 49.701C64.3851 49.3668 68.2314 48.0773 69.9363 44.8227C70.6727 43.5643 71.6512 42.3047 73.0899 41.8289C73.4979 41.7014 73.9467 41.6326 74.3543 41.7525C73.9799 41.8844 73.6597 42.1024 73.3556 42.3403C72.1915 43.3061 71.3551 44.5965 70.6578 45.9259C70.0311 47.0448 69.0926 47.9823 68.0452 48.6973C65.9678 50.095 63.4836 50.7415 61.0137 50.9332C60.2227 51.001 59.4125 50.9661 58.6251 51.0119C57.068 51.0821 55.5794 51.4385 54.0677 51.8448C49.8466 52.952 44.9693 54.1733 40.9185 51.8139C39.1986 50.7285 37.3049 49.6999 35.2519 50.4998C33.9026 51.0436 32.5161 51.6373 30.9923 51.4577C29.1495 51.2665 27.6945 50.1588 26.8092 48.5905C25.1681 45.7104 24.7874 41.9599 26.1816 38.9094C26.8869 37.3589 28.1973 36.1545 29.6379 35.2828C32.5132 33.5203 36.1371 33.4071 39.2875 34.4049L38.7302 34.5383C41.6438 31.8055 45.7093 30.8919 49.5594 30.5225C53.4163 30.1953 57.3933 30.6444 60.9548 32.2123C63.3013 33.2278 65.5407 34.8583 66.7625 37.1379Z" fill="#1F3A12"/>
<path d="M92.619 60.9967C92.619 60.9967 89.9014 72.3558 76.6781 77.2232C74.7912 76.4282 73.5792 74.6564 72.9464 72.6153C72.0313 69.6559 72.3331 66.1335 73.5613 64.2028C81.3963 65.1763 86.0415 57.7031 86.0415 57.7031L91.0484 58.0877L91.97 58.1591L92.619 60.9967Z" fill="#49AF08"/>
<g opacity="0.7">
<path d="M92.301 59.603L86.9209 58.8259C86.9209 58.8259 82.5029 64.9735 75.6771 64.6717C75.523 64.5451 75.3493 64.4153 75.1725 64.2872C82.0275 64.159 86.0415 57.7031 86.0415 57.7031L91.9701 58.159L92.301 59.603Z" fill="#F7F7F7"/>
</g>
<path d="M73.5712 64.1223C78.2733 64.1042 82.053 61.5743 84.9553 58.0381C85.1329 57.8212 85.3295 57.5777 85.4899 57.3604C85.6216 57.1485 85.8581 57.0379 86.0911 57.0557L92.0197 57.5119C92.3097 57.5343 92.5406 57.7449 92.6025 58.0143C92.605 58.1301 93.3645 61.0922 93.2573 61.116C93.1397 61.6433 92.9889 62.1373 92.8127 62.642C90.2504 69.7144 84.0709 75.5666 76.706 77.2993L76.6499 77.1471C77.0814 76.9018 77.5194 76.6816 77.9482 76.4456C78.1797 76.3097 78.6858 76.0328 78.9068 75.91C79.2137 75.7196 79.5386 75.5299 79.8459 75.3503C85.0912 72.1783 89.1602 67.8592 91.5134 62.1526C91.6836 61.7266 91.8558 61.2794 91.9876 60.8455L91.9862 61.1411L91.3372 58.3037L91.92 58.8061L85.9915 58.3498L86.5924 58.0453C84.2742 61.8447 79.9944 64.8152 75.4211 64.5762C74.7851 64.548 74.158 64.4356 73.5511 64.2832L73.5712 64.1223Z" fill="#1F3A12"/>
<g opacity="0.25">
<path d="M92.6189 60.9967C92.6189 60.9967 89.9013 72.3557 76.678 77.2232C74.7911 76.4282 73.5791 74.6564 72.9463 72.6153C76.5823 73.3033 81.6022 70.6943 85.6828 67.4623C90.6314 63.544 87.6249 59.1033 87.4675 58.8891L91.0483 58.0876L91.9699 58.159L92.6189 60.9967Z" fill="#1F3A12"/>
</g>
<path d="M95.0397 60.2407C93.0375 61.4852 91.2528 61.2418 88.5221 59.6728C85.7915 58.1055 85.0533 56.3337 84.4043 55.1769C83.7553 54.0217 83.3707 52.1364 85.0743 52.3797C86.7779 52.6231 87.7644 53.8319 87.7644 53.8319C88.1847 50.9341 88.5903 49.0342 89.275 48.2554C89.6108 47.8757 90.1852 47.8546 90.5567 48.2019C92.0007 49.5485 92.0916 51.9936 92.0916 51.9936C92.8752 50.694 93.6476 50.0093 94.1246 49.6783C94.1294 49.6751 94.1327 49.6718 94.1375 49.6686C94.4637 49.4431 94.8985 49.4512 95.2116 49.6913C96.2046 50.4506 96.0488 52.1834 95.8282 53.2754C95.8266 53.2802 95.8249 53.2851 95.8249 53.2884C95.7844 53.4863 95.7422 53.6632 95.7032 53.8076C95.6951 53.8432 95.6854 53.8757 95.6773 53.9065C95.6773 53.9098 95.6773 53.9114 95.6757 53.9147C95.6205 54.1175 95.5799 54.2375 95.5799 54.2375C95.5799 54.2375 97.5805 52.6426 98.7714 53.264C99.9607 53.887 97.0402 58.9979 95.0397 60.2407Z" fill="#49AF08"/>
<g opacity="0.25">
<path d="M95.0397 60.2407C93.0375 61.4852 91.2528 61.2418 88.5222 59.6728C85.7915 58.1055 85.0533 56.3337 84.4043 55.1769C84.3524 55.0844 84.3021 54.9871 84.255 54.8865C84.8667 55.7399 85.7672 56.6696 87.2777 57.5376C90.0099 59.1049 91.7947 59.3483 93.7952 58.1055C95.0543 57.3218 96.68 55.0049 97.4134 53.2413C97.8855 53.0969 98.3739 53.0563 98.7714 53.264C99.9607 53.887 97.0402 58.9979 95.0397 60.2407Z" fill="#1F3A12"/>
</g>
<g opacity="0.7">
<path d="M87.8927 52.9801C88.2707 50.5593 88.6601 48.9547 89.275 48.2554C89.6012 47.8871 90.1512 47.8562 90.5227 48.1726C90.4935 48.197 90.4643 48.2245 90.4384 48.2554C89.752 49.0342 89.348 50.9341 88.9278 53.8318C88.9278 53.8318 88.5628 53.3841 87.8927 52.9801Z" fill="#F7F7F7"/>
</g>
<g opacity="0.7">
<path d="M89.6856 59.6728C90.9868 60.4208 92.0722 60.867 93.0701 60.9951C91.7445 61.1768 90.3443 60.7193 88.5222 59.6728C85.7916 58.1055 85.0534 56.3337 84.4044 55.1769C83.7554 54.0217 83.3708 52.1364 85.0745 52.3797C85.2124 52.3992 85.3454 52.4252 85.472 52.4576C84.6916 52.8373 85.0436 54.244 85.5677 55.1769C86.2167 56.3337 86.9533 58.1055 89.6856 59.6728Z" fill="#F7F7F7"/>
</g>
<path d="M92.4849 61.6786C91.0866 61.6786 89.7025 61.0995 88.199 60.2362C85.5916 58.7388 84.6587 57.0097 84.0413 55.8655C83.9716 55.7362 83.9049 55.6126 83.8391 55.4955C83.3164 54.5642 82.9114 53.1771 83.49 52.3323C83.6846 52.0482 84.1599 51.5931 85.1664 51.7365C86.0589 51.864 86.7788 52.2213 87.2995 52.5743C87.6821 50.1893 88.0866 48.6238 88.7882 47.827C89.0651 47.5127 89.4469 47.3284 89.8635 47.308C90.284 47.2867 90.6884 47.436 90.9998 47.7268C91.8013 48.475 92.2347 49.4933 92.4686 50.3451C92.9654 49.7564 93.422 49.3747 93.7689 49.1346C94.3291 48.7468 95.0675 48.7633 95.6066 49.1757C96.7168 50.0247 96.7418 51.6488 96.5619 52.8774C97.3309 52.5209 98.2839 52.2778 99.0715 52.6894C99.2931 52.8052 99.6686 53.1032 99.6946 53.7978C99.7606 55.571 97.2617 59.6239 95.3818 60.7924C94.3827 61.4135 93.4305 61.6785 92.4849 61.6786ZM84.7916 53.0067C84.673 53.0067 84.5873 53.0274 84.5609 53.0659C84.4239 53.2659 84.5136 54.0452 84.971 54.86C85.0402 54.9832 85.1104 55.1132 85.1838 55.2492C85.7963 56.3845 86.5584 57.7973 88.8454 59.1105C91.4489 60.6056 92.9801 60.7572 94.6967 59.6901C95.4508 59.2213 96.4791 58.0031 97.3163 56.5865C98.2241 55.0507 98.4319 54.0925 98.3973 53.8083C97.8133 53.6061 96.6317 54.2323 95.9839 54.7461C95.759 54.9245 95.4427 54.9342 95.2075 54.769C94.9723 54.604 94.8734 54.3041 94.9648 54.0317C95.2204 53.2646 95.7428 50.9139 94.818 50.2067C94.7295 50.1388 94.6016 50.1367 94.5076 50.2018C94.1368 50.4583 93.4024 51.0757 92.6476 52.3286C92.4996 52.5744 92.2078 52.6938 91.9295 52.6221C91.6516 52.5503 91.4537 52.3045 91.4432 52.0177C91.4423 51.997 91.3397 49.8198 90.1141 48.6757C90.0429 48.6093 89.9664 48.6027 89.9268 48.6044C89.8822 48.6067 89.8174 48.6224 89.7623 48.685C89.1353 49.3969 88.7405 51.6244 88.4073 53.9255C88.3705 54.1803 88.1864 54.3892 87.9382 54.4579C87.6914 54.5264 87.4268 54.4429 87.2639 54.2449C87.2456 54.2231 86.3905 53.2226 84.9826 53.0215C84.9133 53.0115 84.8487 53.0067 84.7916 53.0067Z" fill="#1F3A12"/>
<path d="M87.7461 53.1837C89.2947 53.3789 90.9109 54.1964 91.5697 55.6695L91.686 55.9416L91.501 55.7126C91.4057 55.5794 91.2168 55.4173 91.0991 55.3016C90.1847 54.5528 88.9297 54.3104 87.7838 54.481L87.7461 53.1837Z" fill="#1F3A12"/>
<g opacity="0.25">
<path d="M95.8282 53.2753C95.8266 53.2802 95.8249 53.2851 95.8249 53.2883C95.7779 53.4701 95.7373 53.6453 95.7033 53.8075L95.6984 53.8319C95.6935 53.8562 95.687 53.8822 95.6773 53.9065C95.6773 53.9097 95.6773 53.9114 95.6757 53.9146C95.3009 55.0033 91.9878 56.0774 93.5518 53.9601C95.1548 51.7908 94.0791 49.9655 94.0791 49.9655L94.1246 49.6783C94.1295 49.6751 94.1327 49.6718 94.1375 49.6686C94.4637 49.443 94.8985 49.4511 95.2116 49.6913C96.2046 50.4506 96.0489 52.1834 95.8282 53.2753Z" fill="#1F3A12"/>
</g>
</g>
<rect x="0.5" y="0.5" width="124" height="124" stroke="black"/>
<defs>
<clipPath id="clip0_4_3845">
<rect width="125" height="125" fill="white"/>
</clipPath>
</defs>
</svg>
