<svg width="125" height="125" viewBox="0 0 125 125" fill="none" xmlns="http://www.w3.org/2000/svg">
<g clip-path="url(#clip0_4_3531)">
<path d="M125 0H0V125H125V0Z" fill="#FEEBCD"/>
<g opacity="0.2">
<path d="M59.0965 111.627C77.1362 111.627 91.7602 109.856 91.7602 107.671C91.7602 105.486 77.1362 103.715 59.0965 103.715C41.0569 103.715 26.4329 105.486 26.4329 107.671C26.4329 109.856 41.0569 111.627 59.0965 111.627Z" fill="#000072"/>
</g>
<path d="M74.9108 91.1262C74.9108 91.1262 83.9798 90.7466 83.6101 85.7093C83.1174 78.9952 75.9306 75.349 76.1681 67.3135C76.5744 53.5724 101.99 52.9592 102.374 69.7354C102.482 74.4182 100.208 75.9726 98.1287 76.0478C94.8785 76.1652 93.1765 73.657 92.7561 70.3894C91.9875 64.4147 83.6227 64.6983 83.0963 70.4031C82.6691 75.0327 93.5348 82.3461 89.5536 90.5873C86.8057 96.2755 80.2564 97.4443 76.1584 97.1626C75.3355 97.1061 74.9108 91.1262 74.9108 91.1262Z" fill="#FFC76C"/>
<g opacity="0.5">
<path d="M102.348 70.9096C101.386 54.9547 77.1768 55.5039 76.1953 68.5974C76.1643 68.1829 76.1554 67.755 76.1687 67.3139C76.5743 53.572 101.99 52.9592 102.375 69.7357C102.384 70.1517 102.375 70.5425 102.348 70.9096Z" fill="white"/>
</g>
<g opacity="0.3">
<path d="M75.1028 93.1595C75.3034 94.8995 75.6585 97.1296 76.1592 97.1633C80.2571 97.4438 86.8052 96.2755 89.5537 90.5867C91.0185 87.556 90.4734 84.6512 89.2217 81.9577C89.3637 83.4545 89.9401 85.1496 88.8435 87.4056C86.1067 93.0356 79.206 93.4116 75.1028 93.1595Z" fill="#000072"/>
</g>
<g opacity="0.3">
<path d="M92.7567 70.3903C93.1774 73.6573 94.8784 76.166 98.1294 76.0471C99.5729 75.9956 101.112 75.2286 101.881 73.1956C101.13 73.7887 100.253 74.0514 99.406 74.0816C95.9774 74.2059 94.9708 71.764 94.6086 68.307C93.5433 58.1395 76.1748 64.2044 84.2971 74.038C84.5678 74.3657 83.5467 72.6954 83.2026 71.5834C83.1014 71.1733 83.0624 70.7791 83.0961 70.4027C83.6234 64.698 91.9879 64.4139 92.7567 70.3903Z" fill="#000072"/>
</g>
<path d="M77.3116 97.7935C76.8508 97.7935 76.448 97.7761 76.1177 97.7534C75.4731 97.7091 75.0466 97.1305 74.6395 94.2049C74.4301 92.7004 74.3245 91.2301 74.3201 91.1683L74.277 90.5607L74.8857 90.5347C74.9388 90.5325 80.2159 90.2815 82.2598 87.9856C82.8339 87.3406 83.0825 86.6102 83.0196 85.7526C82.8054 82.8355 81.2425 80.5024 79.5879 78.0321C77.5495 74.9894 75.4418 71.8429 75.5762 67.296C75.787 60.1662 82.3625 56.4577 88.761 56.4783C92.4016 56.4904 95.8073 57.6426 98.3506 59.7226C101.275 62.1146 102.871 65.5721 102.966 69.7217C103.08 74.6898 100.553 76.5528 98.15 76.6394C94.919 76.7606 92.6813 74.4481 92.1688 70.465C91.82 67.7536 89.7476 66.579 87.8383 66.6086C85.9451 66.6427 83.9269 67.846 83.6859 70.4577C83.5434 72.0014 85.0024 74.1379 86.547 76.3999C89.2913 80.419 92.7069 85.4212 90.0867 90.8449C88.7874 93.5344 86.5971 95.4927 83.5766 96.6657C81.2106 97.5843 78.9125 97.7935 77.3116 97.7935ZM76.3719 96.5825C78.2995 96.6885 85.9524 96.6804 89.0204 90.3298C91.3425 85.523 88.2752 81.0309 85.5689 77.0678C83.8283 74.5186 82.325 72.3171 82.5066 70.3487C82.8133 67.0256 85.4743 65.4666 87.8171 65.4245C90.2457 65.3852 92.9011 66.8758 93.3434 70.3139C93.548 71.9045 94.4237 75.5878 98.1073 75.456C99.2506 75.4146 101.898 74.7759 101.782 69.7489C101.592 61.4289 95.1029 57.6836 88.757 57.6625C88.7403 57.6625 88.7233 57.6625 88.7065 57.6625C82.9032 57.6625 76.9478 60.9764 76.76 67.3311C76.6368 71.4989 78.6371 74.4852 80.5717 77.3731C82.2393 79.8624 83.9636 82.4366 84.2005 85.666C84.2871 86.8439 83.9311 87.8899 83.1429 88.7746C81.1979 90.9574 77.1051 91.5318 75.5475 91.6741C75.7259 93.767 76.0678 96.0165 76.3719 96.5825Z" fill="#000072"/>
<path d="M82.1477 98.8019H36.0859C36.6884 95.5082 37.5678 92.142 38.5699 88.8882C40.0903 83.9528 41.8992 79.2853 43.4728 75.5534C43.5083 75.472 43.5423 75.3906 43.5749 75.3107C43.646 75.1419 43.72 74.9732 43.7896 74.8089C43.945 74.4447 44.0975 74.0894 44.2485 73.746C44.4572 73.2649 44.66 72.806 44.8554 72.3693C45.0004 72.0466 45.1411 71.7342 45.2773 71.4352C45.449 71.0562 45.6133 70.6995 45.7687 70.3664C46.6925 68.3694 47.2876 67.2015 47.2876 67.2015H70.9461C70.9461 67.2015 70.9535 67.2163 70.9683 67.2474C71.0187 67.3451 71.1489 67.6041 71.3443 68.0038C71.3443 68.0038 71.3443 68.0038 71.3443 68.0053C71.6833 68.6981 72.2192 69.8172 72.8809 71.2664C72.9061 71.3227 72.9312 71.3789 72.9578 71.4367C73.0807 71.7091 73.2095 71.9918 73.3413 72.2864C73.5396 72.732 73.7483 73.2013 73.963 73.6927C74.1096 74.0273 74.2591 74.3722 74.4101 74.7275C74.4412 74.7985 74.4707 74.8681 74.5018 74.9392C74.5418 75.0369 74.5847 75.1375 74.6277 75.2382C76.0192 78.5201 77.6105 82.5613 79.0287 86.8869C79.2448 87.5486 79.4579 88.2162 79.6652 88.8883C80.6674 92.1419 81.5452 95.5082 82.1477 98.8019Z" fill="#FFC76C"/>
<path d="M58.1932 96.3455C63.5657 96.3455 67.9209 92.2355 67.9209 87.1656C67.9209 82.0957 63.5657 77.9857 58.1932 77.9857C52.8208 77.9857 48.4656 82.0957 48.4656 87.1656C48.4656 92.2355 52.8208 96.3455 58.1932 96.3455Z" fill="white"/>
<path d="M82.1488 98.8148H36.0865C35.9108 98.8148 35.7441 98.7366 35.6316 98.6016C35.5191 98.4666 35.4724 98.2886 35.5041 98.1158C38.2427 83.1806 46.6766 66.5197 46.7616 66.3531C46.91 66.0616 47.2668 65.9461 47.5579 66.0943C47.8493 66.2428 47.9651 66.5993 47.8167 66.8908C47.7339 67.0531 39.6371 83.0508 36.801 97.6304H81.4343C78.5982 83.0508 70.5014 67.0531 70.4186 66.8908C70.2702 66.5993 70.386 66.2428 70.6774 66.0943C70.9689 65.9463 71.3254 66.0619 71.4737 66.3531C71.5587 66.5197 79.9926 83.1806 82.7312 98.1158C82.7629 98.2886 82.7162 98.4666 82.6037 98.6016C82.4913 98.7366 82.3246 98.8148 82.1488 98.8148Z" fill="#000072"/>
<path d="M44.4806 94.043C42.5054 88.4467 34.0187 86.9653 31.7966 96.0594C30.0938 103.028 35.5001 104.632 35.5001 104.632H80.8864C80.8864 104.632 86.2927 103.028 84.5899 96.0594C82.3678 86.9653 73.8811 88.4467 71.9059 94.043" fill="#FFC76C"/>
<g opacity="0.5">
<path d="M44.4809 94.0427H44.4957V95.2195H44.4809C42.5047 89.6239 34.0179 88.1421 31.796 97.2358C31.6242 97.9419 31.5236 98.5917 31.4851 99.1928C31.4214 98.2942 31.5043 97.255 31.796 96.0589C34.0179 86.9653 42.5047 88.4471 44.4809 94.0427Z" fill="white"/>
</g>
<g opacity="0.5">
<path d="M84.9011 99.1927C84.8626 98.5917 84.762 97.9419 84.5903 97.2357C82.5171 88.7494 74.9866 89.4731 72.3846 94.1559C72.2567 94.386 71.9083 94.2984 71.9083 94.0353C73.889 88.4455 82.3698 86.9697 84.5903 96.0589C84.8819 97.255 84.9648 98.2942 84.9011 99.1927Z" fill="white"/>
</g>
<path d="M44.2013 94.1416C42.3489 90.5847 38.1463 88.65 34.8677 91.6107C33.2803 93.1498 32.4911 95.3901 32.1895 97.5599C31.806 100.333 32.9194 102.955 35.5955 104.038C35.5956 104.038 35.6684 104.065 35.6685 104.065L35.5001 104.04C35.4226 104.035 81.5479 104.047 80.7912 104.038C81.7407 103.657 82.597 103 83.1999 102.176C84.5113 100.403 84.454 97.9683 83.87 95.9114C83.3023 93.8081 82.2179 91.7079 80.2254 90.6947C77.1246 89.1201 73.5687 91.1886 72.1851 94.1417C72.1134 94.2933 71.9308 94.3567 71.7811 94.2806C71.6554 94.2169 71.5945 94.0758 71.6267 93.9446C71.9219 92.74 72.5843 91.5946 73.528 90.7294C76.6919 87.8313 81.3305 88.5362 83.6435 92.1336C84.6881 93.7403 85.2462 95.5363 85.4967 97.4051C85.8587 99.9942 85.031 102.739 82.8142 104.296C82.318 104.657 81.7717 104.949 81.1929 105.155C81.1075 105.183 80.9914 105.228 80.8935 105.225C80.897 105.227 35.5 105.222 35.5001 105.224C35.3937 105.229 35.2833 105.184 35.1936 105.155C34.6148 104.949 34.0686 104.657 33.5719 104.296C30.7311 102.271 30.3427 98.71 31.2489 95.5707C31.7245 93.7699 32.577 91.9583 33.9821 90.6576C35.9409 88.8026 38.8954 88.4043 41.2868 89.62C41.8675 89.9054 42.4059 90.2707 42.8817 90.7028C43.8383 91.562 44.5048 92.7249 44.7597 93.9446C44.8294 94.2865 44.3567 94.4443 44.2013 94.1416Z" fill="#000072"/>
<path d="M89.4532 98.3268C88.8315 102.818 86.4289 106.415 83.56 107.298C83.2684 107.388 82.9812 107.46 82.7 107.517C80.4972 107.967 78.6113 107.511 77.6254 107.259C75.6655 106.759 74.2606 106.412 72.2118 106.184C69.6361 105.896 66.0374 105.792 59.0266 105.792C52.0173 105.792 48.4186 105.896 45.8428 106.184C45.7792 106.192 45.7155 106.199 45.6533 106.207C45.5897 106.212 45.5275 106.22 45.4653 106.229C44.9724 106.289 44.515 106.358 44.0738 106.435C44.0191 106.443 43.9643 106.452 43.911 106.463C43.6919 106.503 43.4773 106.543 43.2626 106.587C43.2093 106.597 43.156 106.608 43.1027 106.62C43.0494 106.63 42.9962 106.642 42.9429 106.654C42.5698 106.734 42.1982 106.819 41.8134 106.913C41.7586 106.926 41.7038 106.939 41.6476 106.953C41.2597 107.047 40.8586 107.15 40.4293 107.259C39.4671 107.505 37.6433 107.946 35.5072 107.548C35.4732 107.54 35.4391 107.534 35.4036 107.527C35.106 107.468 34.8025 107.392 34.4946 107.298C33.5532 107.007 32.662 106.426 31.867 105.617C30.9211 104.654 30.1114 103.366 29.5192 101.863C29.423 101.624 29.3342 101.378 29.2513 101.126C29.2099 101.002 29.1699 100.874 29.1299 100.747C29.0529 100.491 28.9804 100.231 28.9153 99.9656C28.785 99.4356 28.6784 98.8879 28.6015 98.3269C28.483 97.4683 28.4386 96.3965 28.6414 95.418C28.6696 95.2789 28.7036 95.1427 28.7436 95.0094C28.7628 94.9428 28.7835 94.8747 28.8057 94.8096C28.8501 94.6793 28.9005 94.5505 28.9582 94.4277C29.0159 94.3033 29.0781 94.1834 29.1477 94.0694C29.2172 93.9539 29.2942 93.8444 29.3771 93.7393C29.4422 93.6579 29.5088 93.5839 29.5755 93.5173C30.4 92.669 31.2838 92.7934 31.2838 92.7934C31.2838 92.7934 31.2942 92.7727 31.3134 92.7342C31.3237 92.7164 31.3356 92.6928 31.3504 92.6661C31.4022 92.5743 31.4836 92.4381 31.5917 92.2827C31.6997 92.1273 31.8374 91.9541 31.9988 91.7868C32.021 91.7631 32.0447 91.7394 32.0698 91.7157C32.3348 91.4582 32.6635 91.2228 33.0468 91.1088C34.6382 90.6366 35.5886 91.3723 35.8773 91.6506C35.8862 91.6595 35.895 91.6669 35.9024 91.6758C35.9172 91.6905 35.9305 91.7039 35.9409 91.7142C35.9498 91.7246 35.9572 91.7335 35.9631 91.7394C35.9675 91.7453 35.9705 91.7483 35.9705 91.7483C35.9705 91.7483 37.0482 90.9238 38.3746 91.2006C38.416 91.2094 38.456 91.2183 38.496 91.2287C38.5241 91.2346 38.5522 91.242 38.5803 91.2509C38.5892 91.2524 38.5967 91.2553 38.6055 91.2583C38.6469 91.2687 38.6869 91.2805 38.7269 91.2938C38.7728 91.3086 38.8187 91.3249 38.8631 91.3412C38.869 91.3441 38.8749 91.3456 38.8809 91.3486C38.9031 91.356 38.9253 91.3649 38.9475 91.3753C39.0466 91.4138 39.1444 91.4596 39.2391 91.5085C39.2894 91.5351 39.3398 91.5618 39.3886 91.5914C39.4375 91.6195 39.4863 91.6491 39.5337 91.6802C39.5455 91.6876 39.5559 91.695 39.5662 91.7009C39.6062 91.7276 39.6462 91.7557 39.6847 91.7838C39.7809 91.8534 39.8756 91.9274 39.9674 92.0074C39.9866 92.0222 40.0044 92.0384 40.0222 92.0547C40.0592 92.0873 40.0947 92.1213 40.1302 92.1554C40.2102 92.2338 40.2901 92.3153 40.3656 92.4011C40.3878 92.4248 40.4085 92.4485 40.4292 92.4736C40.4929 92.5462 40.5551 92.6231 40.6143 92.7016C40.6542 92.7534 40.6927 92.8052 40.7312 92.86C40.8007 92.9577 40.8688 93.0599 40.934 93.1649C40.9784 93.236 41.0213 93.307 41.0628 93.3811C41.1013 93.4492 41.1397 93.5188 41.1782 93.5898C41.1842 93.5987 41.1886 93.609 41.193 93.6179C41.27 93.7674 41.3455 93.9229 41.418 94.0827V94.0842C41.4906 94.25 41.5602 94.4217 41.6268 94.5979C41.6593 94.6867 41.6919 94.777 41.723 94.8688C41.7541 94.9591 41.7837 95.0509 41.8133 95.1426C41.8148 95.1441 41.8148 95.1456 41.8148 95.1471C41.9243 95.5009 42.022 95.8739 42.1064 96.2632C42.1079 96.2691 42.1094 96.2765 42.1108 96.2839C42.1212 96.3284 42.1301 96.3728 42.139 96.4172C42.1478 96.4601 42.1552 96.503 42.1641 96.5459C42.2544 97.0049 42.3255 97.4859 42.3788 97.9878H75.6743C75.7276 97.483 75.8001 96.9974 75.8919 96.5341C76.4633 93.6119 77.7585 91.6002 79.68 91.2005C81.0064 90.9237 82.0841 91.7482 82.0841 91.7482C82.0841 91.7482 83.0715 90.5344 85.0077 91.1087C86.1238 91.4403 86.7708 92.7933 86.7708 92.7933C86.7708 92.7933 87.8011 92.6483 88.6759 93.7393C89.6442 94.9457 89.6471 96.9204 89.4532 98.3268Z" fill="#FFC76C"/>
<path d="M89.4532 98.3268C88.8315 102.818 86.4289 106.415 83.56 107.298C83.2684 107.388 82.9812 107.46 82.7 107.517C80.4972 107.967 78.6113 107.511 77.6254 107.259C75.6655 106.759 74.2606 106.412 72.2118 106.184C69.6361 105.896 66.0374 105.792 59.0266 105.792C52.0173 105.792 48.4186 105.896 45.8428 106.184C45.7792 106.192 45.7155 106.199 45.6533 106.207C45.5897 106.214 45.5275 106.221 45.4653 106.229C44.9724 106.289 44.515 106.358 44.0738 106.435C44.0191 106.443 43.9658 106.452 43.911 106.463C43.6919 106.503 43.4773 106.543 43.2626 106.587C43.2093 106.597 43.156 106.608 43.1027 106.62C43.0494 106.631 42.9962 106.642 42.9429 106.654C42.5698 106.734 42.1982 106.819 41.8134 106.913C41.7586 106.926 41.7038 106.939 41.6476 106.953C41.2597 107.047 40.8586 107.15 40.4293 107.259C39.4671 107.505 37.6433 107.946 35.5072 107.548C35.5072 107.546 35.5072 107.546 35.5072 107.546C35.4732 107.54 35.4391 107.534 35.4036 107.527C35.106 107.468 34.8025 107.392 34.4946 107.298C33.5532 107.007 32.662 106.426 31.867 105.617C30.9211 104.652 30.1129 103.366 29.5192 101.863C29.4245 101.624 29.3357 101.378 29.2513 101.126C29.2099 101.002 29.1699 100.874 29.1299 100.747C29.0529 100.491 28.9804 100.231 28.9153 99.9656C28.785 99.4356 28.6784 98.8879 28.6015 98.3269C28.483 97.4683 28.4386 96.3965 28.6414 95.418C28.6696 95.2789 28.7036 95.1427 28.7436 95.0095C28.7628 94.9428 28.7835 94.8747 28.8057 94.8096C28.8516 94.6779 28.9019 94.5506 28.9582 94.4277C29.0159 94.3033 29.0781 94.1834 29.1477 94.0694C29.2187 93.954 29.2942 93.8444 29.3786 93.7393C29.4437 93.6579 29.5088 93.5839 29.5754 93.5173C30.4 92.6691 31.2837 92.7934 31.2837 92.7934C31.2837 92.7934 31.2941 92.7727 31.3133 92.7342C31.3237 92.7165 31.3356 92.6928 31.3503 92.6661C31.4022 92.5743 31.4836 92.4381 31.5917 92.2827C31.7012 92.1273 31.8374 91.9541 31.9987 91.7868C32.0209 91.7631 32.0446 91.7394 32.0698 91.7157C32.3348 91.4582 32.6634 91.2228 33.0468 91.1088C34.6382 90.6366 35.5886 91.3723 35.8772 91.6506C35.8861 91.6595 35.895 91.6669 35.9024 91.6758C35.9172 91.6906 35.9305 91.7039 35.9409 91.7142C35.9498 91.7246 35.9572 91.7335 35.9631 91.7394C35.9675 91.7453 35.9705 91.7483 35.9705 91.7483C35.9705 91.7483 37.0482 90.9238 38.3746 91.2006C38.416 91.2095 38.4559 91.2183 38.4959 91.2287C38.5241 91.2346 38.5522 91.242 38.5803 91.2509C38.5892 91.2524 38.5966 91.2553 38.6055 91.2583C38.6469 91.2687 38.6869 91.2805 38.7269 91.2938C38.7728 91.3086 38.8187 91.3249 38.8631 91.3412C38.869 91.3441 38.8749 91.3456 38.8808 91.3486C38.903 91.356 38.9253 91.3649 38.9474 91.3753C39.0466 91.4138 39.1443 91.4596 39.2391 91.5085C39.2894 91.5351 39.3397 91.5618 39.3886 91.5914C39.4374 91.6195 39.4862 91.6491 39.5336 91.6802C39.5455 91.6876 39.5558 91.695 39.5662 91.7009C39.6062 91.7276 39.6461 91.7557 39.6846 91.7838C39.7809 91.8534 39.8756 91.9274 39.9673 92.0074C39.9866 92.0222 40.0043 92.0385 40.0221 92.0547C40.0591 92.0873 40.0947 92.1213 40.1302 92.1554C40.2101 92.2338 40.2901 92.3153 40.3656 92.4011C40.3878 92.4248 40.4085 92.4485 40.4292 92.4736C40.4928 92.5462 40.555 92.6231 40.6142 92.7016C40.6542 92.7534 40.6927 92.8052 40.7312 92.86C40.8022 92.9577 40.8688 93.0599 40.9339 93.165C40.9798 93.236 41.0228 93.3071 41.0627 93.3811C41.1012 93.4492 41.1397 93.5188 41.1782 93.5898C41.1842 93.5987 41.1886 93.6091 41.193 93.6179C41.2729 93.7674 41.347 93.9229 41.418 94.0827V94.0842C41.492 94.25 41.5616 94.4202 41.6268 94.5979C41.6593 94.6867 41.6919 94.777 41.723 94.8688C41.7541 94.9591 41.7837 95.0509 41.8133 95.1426C41.8147 95.1441 41.8147 95.1456 41.8147 95.1471C41.9257 95.5009 42.0235 95.8725 42.1064 96.2632C42.1078 96.2691 42.1093 96.2766 42.1108 96.284C42.1212 96.3284 42.13 96.3728 42.1389 96.4172C42.1478 96.4557 42.1552 96.4956 42.1626 96.5341C42.1626 96.5386 42.1626 96.5415 42.1641 96.546C42.2204 97.2151 42.2648 97.9404 42.2973 98.728C42.2988 98.762 42.3003 98.7961 42.3018 98.8301C42.398 100.861 44.3624 102.272 46.3223 101.727C46.3325 101.724 46.3427 101.721 46.3529 101.719C47.7647 101.326 48.4913 99.7676 47.8676 98.4415C47.1607 96.9385 46.7731 95.2556 46.7907 93.4797C46.8513 87.3757 51.7966 82.3501 57.8989 82.1965C64.3306 82.0345 69.596 87.2006 69.596 93.5957C69.596 95.1878 69.2703 96.7029 68.6814 98.0786C68.1023 99.4316 68.8689 100.981 70.3019 101.316C70.7918 101.431 71.2732 101.553 71.7455 101.681C73.7039 102.216 75.6668 100.805 75.7557 98.7768C75.7557 98.7605 75.7571 98.7443 75.7571 98.728C75.7897 97.936 75.8341 97.2062 75.8919 96.5341C76.4633 93.612 77.7585 91.6002 79.68 91.2006C81.0064 90.9237 82.0841 91.7483 82.0841 91.7483C82.0841 91.7483 83.0715 90.5344 85.0077 91.1088C86.1238 91.4404 86.7708 92.7934 86.7708 92.7934C86.7708 92.7934 87.8011 92.6483 88.6759 93.7393C89.6442 94.9457 89.6471 96.9205 89.4532 98.3268Z" fill="white"/>
<g opacity="0.3">
<path d="M89.453 98.3276C88.8324 102.818 86.4297 106.415 83.56 107.299C80.9959 108.087 78.7374 107.544 77.6253 107.259C73.1993 106.128 71.6122 105.792 59.0272 105.792C46.4421 105.792 44.855 106.128 40.4291 107.259C39.3169 107.544 37.0565 108.087 34.4944 107.299C31.6248 106.415 29.222 102.818 28.6014 98.3276C28.497 97.5665 28.4495 96.6385 28.5824 95.7579C28.5881 95.811 28.5938 95.8641 28.6014 95.9154C29.222 100.406 31.6248 104.004 34.4944 104.887C37.0566 105.676 39.317 105.132 40.4291 104.847C44.855 103.716 46.4422 102.733 59.0272 102.733C71.6122 102.733 73.1993 103.716 77.6253 104.847C78.7374 105.132 80.9959 105.676 83.56 104.887C86.4297 104.004 88.8324 100.406 89.453 95.9154C89.4606 95.8641 89.4663 95.811 89.472 95.7579C89.6049 96.6385 89.5574 97.5665 89.453 98.3276Z" fill="#000072"/>
</g>
<path d="M75.3805 97.9565C75.3788 95.4096 76.1011 92.3636 78.5114 91.0007C79.1593 90.6545 79.9263 90.4734 80.6572 90.5724C81.271 90.6484 81.8382 90.8672 82.3506 91.2016C82.3475 91.2012 82.4087 91.2367 82.3185 91.1835C82.1341 91.083 81.8836 91.1117 81.7278 91.2513C82.5372 90.3988 84.0682 90.1054 85.3381 90.5823C86.2143 90.9133 86.8546 91.6672 87.2869 92.4611C87.2069 92.2893 86.9558 92.1553 86.7866 92.1788C87.9896 92.1367 88.9798 92.9217 89.5142 93.8934C90.633 96.0546 90.137 98.7318 89.5127 100.964C88.6814 103.594 87.1912 106.24 84.6244 107.551C82.9686 108.344 81.0469 108.471 79.2485 108.239C77.3889 107.956 75.6106 107.327 73.7771 107.045C68.9447 106.311 63.9283 106.487 59.0269 106.425C54.1245 106.478 49.1086 106.3 44.2738 107.028C42.4401 107.308 40.6615 107.935 38.8022 108.217C37.1711 108.432 35.4628 108.327 33.914 107.735C30.6579 106.385 28.9046 102.806 28.2068 99.5519C27.7869 97.4975 27.5767 94.9402 29.0312 93.2242C29.5467 92.6217 30.3861 92.151 31.2664 92.1929C31.2712 92.1905 31.1437 92.1922 31.0928 92.2135C30.9571 92.2531 30.844 92.347 30.7794 92.4678C31.2487 91.5976 31.9927 90.7591 32.9948 90.5085C34.1307 90.1814 35.4676 90.3957 36.3354 91.2716C36.3276 91.2647 36.3932 91.3279 36.32 91.2582C36.2714 91.2161 36.2121 91.1813 36.1467 91.1594C36.0167 91.1139 35.8597 91.1265 35.7394 91.1913C35.6506 91.2436 35.711 91.2084 35.708 91.2087L35.7381 91.1885C36.8604 90.4547 38.2166 90.3216 39.4324 90.9167C41.9162 92.2073 42.6033 95.3977 42.6734 97.9564C42.6878 98.3199 42.1496 98.3786 42.0846 98.0194C41.8375 96.8202 41.5252 95.6444 41.0454 94.5732C40.229 92.6735 38.3942 90.9109 36.3877 92.1801L36.3694 92.1921C36.3502 92.2029 36.3949 92.1793 36.2891 92.2409C36.1345 92.3238 35.9358 92.3401 35.7691 92.2818C35.6447 92.2425 35.5486 92.1638 35.4618 92.0733C34.8642 91.5046 33.9053 91.4311 33.1336 91.7089C32.6112 91.911 32.2256 92.3789 31.9303 92.8552C31.8221 93.0676 31.6828 93.2957 31.4292 93.3587C31.3597 93.3858 31.2126 93.3883 31.198 93.3846C30.9549 93.3774 30.7123 93.4458 30.4814 93.5687C28.7013 94.6326 29.0198 97.5425 29.3879 99.3038C29.9892 102.078 31.3861 105.076 33.9823 106.429C35.987 107.357 38.2915 107.203 40.3879 106.633C46.4469 104.906 52.812 105.249 59.0269 105.161C65.2422 105.239 71.6096 104.893 77.671 106.613C79.6428 107.152 81.7538 107.297 83.6845 106.571C86.4888 105.398 88.0302 102.146 88.6449 99.2995C88.9167 98.0403 89.0626 96.6737 88.7789 95.4187C88.5689 94.4372 87.9106 93.4173 86.8565 93.3988C86.8419 93.4026 86.6915 93.4 86.6205 93.3723C86.4439 93.3208 86.2953 93.1981 86.2108 93.0397C86.1745 92.9698 86.147 92.9228 86.1115 92.8624C85.8045 92.3654 85.3987 91.8793 84.8417 91.6931C84.1134 91.4604 83.238 91.5244 82.6601 92.0253C82.6321 92.0498 82.5971 92.0794 82.5714 92.1065C82.373 92.3271 82.0222 92.3923 81.7606 92.2487C81.1833 91.8599 80.4705 91.6391 79.7848 91.7889C77.3086 92.3781 76.5163 95.8529 75.9692 98.0194C75.8824 98.3635 75.3884 98.303 75.3805 97.9565Z" fill="#000072"/>
<path d="M35.5686 103.914C37.1505 103.826 38.3509 102.279 38.2498 100.458C38.1488 98.637 36.7846 97.2319 35.2028 97.3197C33.6209 97.4074 32.4205 98.9548 32.5216 100.776C32.6226 102.597 33.9868 104.002 35.5686 103.914Z" fill="#FFA1A8"/>
<path d="M31.6004 98.7211C32.1986 98.6349 32.6019 97.9992 32.5013 97.3013C32.4006 96.6034 31.8342 96.1075 31.2361 96.1937C30.6379 96.2799 30.2346 96.9156 30.3353 97.6135C30.4359 98.3115 31.0023 98.8073 31.6004 98.7211Z" fill="#FFA1A8"/>
<path d="M34.4704 96.3686C35.0686 96.2823 35.4719 95.6467 35.3713 94.9487C35.2706 94.2508 34.7042 93.755 34.1061 93.8412C33.5079 93.9274 33.1046 94.5631 33.2053 95.261C33.3059 95.9589 33.8723 96.4548 34.4704 96.3686Z" fill="#FFA1A8"/>
<path d="M38.036 96.9132C38.6341 96.8269 39.0374 96.1913 38.9368 95.4933C38.8362 94.7954 38.2697 94.2995 37.6716 94.3858C37.0735 94.472 36.6702 95.1077 36.7708 95.8056C36.8714 96.5035 37.4379 96.9994 38.036 96.9132Z" fill="#FFA1A8"/>
<path d="M85.4019 100.773C85.503 98.9522 84.3025 97.4049 82.7207 97.3171C81.1389 97.2293 79.7747 98.6344 79.6737 100.455C79.5726 102.276 80.773 103.824 82.3549 103.912C83.9367 103.999 85.3009 102.594 85.4019 100.773Z" fill="#FFA1A8"/>
<path d="M87.589 97.6131C87.6896 96.9152 87.2863 96.2795 86.6882 96.1933C86.0901 96.1071 85.5237 96.603 85.423 97.3009C85.3224 97.9988 85.7257 98.6345 86.3238 98.7207C86.922 98.8069 87.4884 98.3111 87.589 97.6131Z" fill="#FFA1A8"/>
<path d="M84.7195 95.2613C84.8201 94.5634 84.4168 93.9277 83.8187 93.8415C83.2206 93.7552 82.6541 94.2511 82.5535 94.949C82.4529 95.6469 82.8562 96.2826 83.4543 96.3689C84.0525 96.4551 84.6189 95.9592 84.7195 95.2613Z" fill="#FFA1A8"/>
<path d="M81.154 95.8062C81.2546 95.1083 80.8513 94.4726 80.2532 94.3863C79.655 94.3001 79.0886 94.796 78.988 95.4939C78.8874 96.1918 79.2907 96.8275 79.8888 96.9137C80.4869 97 81.0533 96.5041 81.154 95.8062Z" fill="#FFA1A8"/>
<g opacity="0.3">
<path d="M34.3027 64.2436C34.3086 64.2553 34.3159 64.2656 34.3218 64.2773L34.2969 64.2363C34.2998 64.2392 34.3013 64.2407 34.3027 64.2436Z" fill="#6B184E"/>
<path d="M34.3217 64.2773L35.0436 65.4356C34.7947 65.0607 34.5516 64.6771 34.3217 64.2773Z" fill="#6B184E"/>
</g>
<g opacity="0.3">
<path d="M34.3016 63.8709C34.306 63.8757 34.3104 63.8805 34.3134 63.8837C34.3192 63.8917 34.3251 63.8997 34.3309 63.9077L34.3016 63.8709Z" fill="#6B184E"/>
<path d="M35.0309 64.7656C34.7893 64.4887 34.555 64.2038 34.3309 63.9077L35.0309 64.7656Z" fill="#6B184E"/>
<path d="M83.0569 64.7656L83.7554 63.9125C83.5328 64.207 83.3 64.4903 83.0569 64.7656Z" fill="#6B184E"/>
</g>
<path d="M35.0443 65.0633C34.8015 64.7843 34.5648 64.4963 34.337 64.1992L35.0443 65.0633Z" fill="white"/>
<path d="M83.0101 65.0634L83.7144 64.2007C83.4897 64.4978 83.2529 64.7844 83.0101 65.0634Z" fill="white"/>
<g opacity="0.25">
<path d="M83.7278 63.5355C83.7233 63.5445 83.7188 63.5536 83.7142 63.5626C83.7188 63.5551 83.7218 63.546 83.7248 63.5385C83.7263 63.537 83.7278 63.537 83.7278 63.5355Z" fill="#6B184E"/>
</g>
<g opacity="0.3">
<path d="M73.9631 73.6926C64.2329 76.9124 53.958 76.9212 44.2485 73.7459C44.4573 73.2648 44.6601 72.8059 44.8554 72.3692C45.0005 72.0465 45.1412 71.7342 45.2773 71.4352C45.4491 71.0562 45.6134 70.6994 45.7688 70.3664C46.6925 68.3694 47.2876 67.2014 47.2876 67.2014H70.9462C70.9462 67.2014 70.9536 67.2162 70.9684 67.2473C71.0187 67.345 71.149 67.6041 71.3444 68.0038C71.3444 68.0038 71.3444 68.0038 71.3444 68.0052C71.6833 68.698 72.2193 69.8171 72.8809 71.2664C72.9061 71.3226 72.9313 71.3789 72.9579 71.4366C73.0808 71.709 73.2096 71.9918 73.3413 72.2864C73.5397 72.7319 73.7485 73.2012 73.9631 73.6926Z" fill="#000072"/>
</g>
<path d="M89.6071 59.1722C89.4724 60.3535 87.0624 59.2344 86.5369 58.9768C86.4954 58.956 86.4496 58.9989 86.4614 59.0508C86.4925 59.1781 86.5547 59.406 86.6775 59.7391C86.7515 59.9375 86.8448 60.1714 86.9677 60.4452C87.3763 61.3497 87.7078 62.0514 87.5228 62.5266C87.3259 63.0299 86.5073 63.2253 85.4859 63.1098C85.0906 63.0654 84.6747 63.2904 84.2749 63.6339C84.0988 63.7863 83.9241 63.9625 83.7568 64.1475L83.7553 64.149L83.7495 64.1534L83.7139 64.2008C83.7228 64.1875 83.7331 64.1742 83.742 64.1609C83.5984 64.3207 83.4593 64.488 83.3261 64.6538C83.2136 64.7959 83.104 64.935 83.0034 65.0698C82.9604 65.1201 82.916 65.1689 82.8686 65.2178C81.9893 66.2052 80.999 67.0845 79.9243 67.8661C78.4691 68.889 76.8644 69.6958 75.1724 70.3279V70.316C75.1724 70.316 72.8513 71.1717 69.4184 71.9577C69.4184 71.9577 66.3512 72.6135 63.5475 72.9762C63.5475 72.9762 61.4025 73.2308 59.0428 73.2308C56.6862 73.2308 54.5042 72.9762 54.5042 72.9762C51.7019 72.6135 48.6332 71.9577 48.6332 71.9577C45.2018 71.1717 42.8792 70.316 42.8792 70.316V70.3279C41.1872 69.6958 39.5825 68.889 38.1273 67.8661C37.0955 67.1156 36.1437 66.2748 35.2866 65.3333C35.2051 65.2459 35.1267 65.1586 35.0497 65.0698C34.9313 64.9129 34.804 64.75 34.6708 64.5857C34.5523 64.4391 34.4295 64.2941 34.3036 64.1534C34.314 64.1683 34.3258 64.1845 34.3362 64.1994L34.2962 64.1475C34.2977 64.149 34.3007 64.1505 34.3021 64.152C34.16 63.9951 34.012 63.8441 33.8625 63.7094C33.4376 63.3245 32.9905 63.061 32.5672 63.1098C31.5472 63.2253 30.7271 63.0299 30.5302 62.5266C30.3452 62.0514 30.6783 61.3497 31.0839 60.4452C31.1668 60.2587 31.2379 60.0899 31.2986 59.9389C31.4747 59.4963 31.5561 59.2017 31.5917 59.0508C31.602 58.9989 31.5591 58.956 31.5162 58.9768C30.9921 59.2343 28.5821 60.3534 28.446 59.1722C28.4223 58.9694 28.5067 58.6407 28.6473 58.2218C28.9597 57.2892 29.5459 55.9125 29.8005 54.5121C29.9737 53.5662 30.1261 52.7416 30.2609 52.0252C30.4489 51.0334 30.6013 50.2488 30.7242 49.63C31.0647 47.9188 31.1831 47.4791 31.1831 47.4791C31.1905 47.4391 32.2297 43.2291 33.7826 40.1293C32.2312 35.9933 31.2142 23.933 33.8122 21.415C35.8965 19.3929 43.7333 23.637 46.6747 26.6051C47.5289 26.2483 48.4733 25.9493 49.4503 25.6991C50.6938 25.3823 51.9876 25.144 53.2104 24.9664C54.7129 24.7473 56.1073 24.6214 57.1658 24.5504C58.091 24.4897 58.7615 24.4704 59.0265 24.4704C59.2885 24.4704 59.9517 24.4882 60.8681 24.5489C61.1597 24.5696 61.4794 24.5933 61.8184 24.6214C62.7111 24.6969 63.7488 24.808 64.8427 24.9679C66.0654 25.144 67.3593 25.3824 68.6028 25.7006C69.5798 25.9493 70.5242 26.2483 71.3784 26.6051C74.3183 23.637 82.1566 19.3929 84.2424 21.4151C86.8389 23.9331 85.8219 35.9933 84.2705 40.1293C85.252 42.0878 86.0292 44.4904 86.4673 46.0033C86.7234 46.8855 86.867 47.4644 86.87 47.4792C86.87 47.4792 86.9884 47.9218 87.3304 49.6434C87.4517 50.2488 87.5998 51.0156 87.7819 51.9764C87.9181 52.7032 88.0749 53.544 88.2511 54.5122C88.4983 55.8652 89.0534 57.1975 89.3732 58.1286V58.1301C89.5316 58.5919 89.6323 58.9546 89.6071 59.1722Z" fill="#FFC76C"/>
<g opacity="0.5">
<path d="M85.8249 29.7018C85.7627 26.6746 85.3053 24.047 84.2424 23.0167C82.1566 20.9946 74.3183 25.2387 71.3784 28.2067C70.5243 27.85 69.5798 27.5509 68.6028 27.3022C67.3593 26.984 66.0655 26.7457 64.8427 26.5695C63.7488 26.4096 62.7111 26.2986 61.8184 26.2231C61.4794 26.195 61.1597 26.1713 60.8681 26.1506C59.9518 26.0899 59.2886 26.0721 59.0265 26.0721C58.7616 26.0721 58.091 26.0913 57.1658 26.152C56.1074 26.2231 54.7129 26.3489 53.2104 26.568C51.9876 26.7456 50.6938 26.984 49.4503 27.3007C48.4733 27.5509 47.5288 27.85 46.6747 28.2067C43.7333 25.2387 35.8965 20.9946 33.8122 23.0167C32.7493 24.047 32.2904 26.6731 32.2283 29.7033C32.1513 26.0306 32.5657 22.6229 33.8122 21.415C35.8965 19.3928 43.7333 23.6369 46.6747 26.605C47.5289 26.2482 48.4733 25.9492 49.4503 25.699C50.6938 25.3822 51.9876 25.1439 53.2104 24.9663C54.7129 24.7472 56.1074 24.6214 57.1658 24.5503C58.091 24.4896 58.7616 24.4704 59.0265 24.4704C59.2886 24.4704 59.9517 24.4881 60.8681 24.5488C61.1597 24.5696 61.4794 24.5932 61.8184 24.6214C62.7111 24.6969 63.7488 24.8079 64.8427 24.9678C66.0655 25.1439 67.3593 25.3823 68.6028 25.7005C69.5798 25.9492 70.5243 26.2482 71.3784 26.605C74.3183 23.637 82.1566 19.3929 84.2424 21.415C85.4889 22.6229 85.9019 26.0292 85.8249 29.7018Z" fill="white"/>
</g>
<path d="M31.2986 59.939C31.4747 59.4964 31.5561 59.2018 31.5917 59.0508C31.602 58.999 31.5591 58.9561 31.5162 58.9768C30.9921 59.2344 28.5821 60.3535 28.446 59.1722C28.4223 58.9694 28.5067 58.6408 28.6473 58.2218C30.9951 57.1945 34.1556 56.0857 37.6432 55.6031C37.6432 55.6031 34.5271 57.4357 31.2986 59.939Z" fill="white"/>
<path d="M39.0304 60.3772C38.9711 60.4467 37.1992 62.5458 35.2866 65.3333C35.2052 65.2459 35.1268 65.1586 35.0498 65.0698C34.9313 64.9129 34.804 64.75 34.6708 64.5857C34.5524 64.4391 34.4295 64.2941 34.3037 64.1535C34.3141 64.1683 34.3259 64.1846 34.3363 64.1994L34.2963 64.1476C34.2978 64.149 34.3007 64.1505 34.3022 64.152C34.1601 63.9951 34.012 63.8441 33.8625 63.7094C35.3518 62.5444 37.0926 61.3675 39.0304 60.3772Z" fill="white"/>
<path d="M37.2111 50.6825C37.2111 50.6825 33.9737 51.097 30.261 52.0252C30.449 51.0334 30.6014 50.2488 30.7243 49.63C32.7213 49.7588 34.9536 50.0652 37.2111 50.6825Z" fill="white"/>
<path d="M89.6072 59.1722C89.4725 60.3535 87.0625 59.2343 86.537 58.9767C86.4955 58.956 86.4497 58.9989 86.4615 59.0507C86.4926 59.1781 86.5548 59.406 86.6776 59.7391C83.5438 57.338 80.592 55.6031 80.592 55.6031C83.9745 56.0708 87.0492 57.1293 89.3733 58.1285V58.13C89.5317 58.5919 89.6324 58.9546 89.6072 59.1722Z" fill="white"/>
<path d="M84.2751 63.6339C84.0989 63.7863 83.9243 63.9625 83.757 64.1476L83.7555 64.149L83.7496 64.1535L83.714 64.2008C83.7229 64.1875 83.7333 64.1742 83.7422 64.1609C83.5986 64.3207 83.4594 64.488 83.3262 64.6538C83.2137 64.7959 83.1042 64.9351 83.0035 65.0698C82.9606 65.1201 82.9162 65.169 82.8688 65.2178C80.9873 62.4866 79.2627 60.4452 79.205 60.3772C81.1013 61.3453 82.8066 62.4926 84.2751 63.6339Z" fill="white"/>
<path d="M87.7819 51.9763C84.1492 51.0837 81.0242 50.6825 81.0242 50.6825C83.2136 50.083 85.3808 49.778 87.3304 49.6433C87.4517 50.2488 87.5998 51.0156 87.7819 51.9763Z" fill="white"/>
<g opacity="0.3">
<path d="M86.9678 60.4453C87.3764 61.3497 87.7079 62.0514 87.5229 62.5266C87.326 63.0299 86.5074 63.2253 85.486 63.1099C85.0907 63.0655 84.6748 63.2905 84.2751 63.6339C84.0989 63.7864 83.9243 63.9625 83.7569 64.1476L83.7554 64.149L83.7496 64.1535L83.714 64.2009C83.7229 64.1875 83.7333 64.1742 83.7422 64.1609C83.5986 64.3208 83.4594 64.488 83.3262 64.6538C83.2137 64.796 83.1042 64.9351 83.0035 65.0698C82.9606 65.1201 82.9162 65.169 82.8688 65.2178C81.9894 66.2052 80.9991 67.0845 79.9244 67.8661C78.4693 68.889 76.8646 69.6958 75.1726 70.3279V70.3161C75.1726 70.3161 72.8514 71.1717 69.4186 71.9578C69.4186 71.9578 66.3513 72.6135 63.5476 72.9762C63.5476 72.9762 61.4026 73.2308 59.0429 73.2308C56.6863 73.2308 54.5043 72.9762 54.5043 72.9762C51.702 72.6135 48.6333 71.9578 48.6333 71.9578C45.2019 71.1717 42.8793 70.3161 42.8793 70.3161V70.3279C41.1873 69.6958 39.5826 68.889 38.1274 67.8661C37.0957 67.1156 36.1438 66.2748 35.2867 65.3333C35.2053 65.246 35.1268 65.1586 35.0498 65.0698C34.9314 64.9129 34.8041 64.75 34.6709 64.5857C34.5524 64.4392 34.4296 64.2941 34.3038 64.1535C34.3141 64.1683 34.3259 64.1846 34.3363 64.1994L34.2963 64.1476C34.2978 64.149 34.3008 64.1505 34.3022 64.152C34.1601 63.9951 34.0121 63.8441 33.8626 63.7094C33.4377 63.3245 32.9907 63.061 32.5673 63.1099C31.5473 63.2253 30.7273 63.0299 30.5304 62.5266C30.3453 62.0514 30.6784 61.3497 31.084 60.4453C31.1669 60.2587 31.238 60.09 31.2987 59.939C31.3135 59.9035 31.3268 59.8694 31.3402 59.8354C31.6806 59.9124 32.1025 59.9227 32.5673 59.8709C32.9907 59.822 33.4378 60.0855 33.8626 60.4704C34.0121 60.6051 34.1601 60.7561 34.3023 60.913C34.3008 60.9116 34.2978 60.9101 34.2964 60.9086L34.3363 60.9604C34.326 60.9456 34.3141 60.9293 34.3038 60.9145C34.4296 61.0551 34.5525 61.2002 34.6709 61.3468C34.8041 61.5111 34.9314 61.6739 35.0499 61.8308C35.1268 61.9196 35.2053 62.007 35.2867 62.0943C36.1438 63.0358 37.0957 63.8766 38.1275 64.6272C39.5826 65.6501 41.1873 66.4569 42.8793 67.089V67.0771C42.8793 67.0771 45.2019 67.9327 48.6333 68.7188C48.6333 68.7188 51.702 69.3746 54.5043 69.7373C54.5043 69.7373 56.6863 69.9919 59.043 69.9919C61.4026 69.9919 63.5476 69.7373 63.5476 69.7373C66.3513 69.3746 69.4186 68.7188 69.4186 68.7188C72.8515 67.9327 75.1726 67.0771 75.1726 67.0771V67.089C76.8646 66.4569 78.4693 65.6501 79.9244 64.6272C80.9992 63.8456 81.9895 62.9663 82.8688 61.9789C82.9162 61.93 82.9606 61.8812 83.0035 61.8308C83.1042 61.6961 83.2137 61.557 83.3262 61.4149C83.4594 61.2491 83.5986 61.0818 83.7422 60.9219C83.7333 60.9352 83.7229 60.9486 83.714 60.9619L83.7496 60.9145L83.7555 60.9101L83.757 60.9086C83.9243 60.7236 84.0989 60.5474 84.2751 60.395C84.6748 60.0515 85.0907 59.8265 85.486 59.8709C85.9508 59.9227 86.3727 59.9124 86.7132 59.8354C86.7813 60.0115 86.8642 60.2143 86.9678 60.4453Z" fill="#000072"/>
</g>
<path d="M58.6993 34.3019C58.2166 31.4979 57.3396 26.3253 57.1879 24.8877C57.1685 24.704 57.3064 24.5409 57.4908 24.53C58.2477 24.4852 58.7938 24.4704 59.0267 24.4704C59.2566 24.4704 59.7956 24.4841 60.5435 24.5284C60.7279 24.5394 60.8657 24.7024 60.8463 24.886C60.6947 26.3236 59.8183 31.4974 59.336 34.3019C59.2744 34.6598 58.7609 34.6598 58.6993 34.3019Z" fill="white"/>
<path d="M68.4249 26.0765L65.3915 32.4859C65.2433 32.7991 64.773 32.6912 64.7761 32.3447L64.8393 25.3565C64.8411 25.1543 65.0259 25.0035 65.2243 25.0421L68.1946 25.621C68.4016 25.6613 68.5151 25.8859 68.4249 26.0765Z" fill="white"/>
<path d="M52.6617 32.4857L49.6283 26.075C49.5381 25.8844 49.6517 25.6599 49.8587 25.6195L52.8289 25.0407C53.0273 25.002 53.2122 25.1529 53.214 25.355L53.2771 32.3445C53.2802 32.691 52.8099 32.7988 52.6617 32.4857Z" fill="white"/>
<g opacity="0.3">
<path d="M34.3422 64.2044L35.044 65.0626C34.8014 64.7857 34.5669 64.5008 34.3422 64.2044Z" fill="#6B184E"/>
<path d="M83.0104 65.0625L83.7122 64.2043C83.4875 64.5008 83.2514 64.7857 83.0104 65.0625Z" fill="#6B184E"/>
</g>
<g opacity="0.3">
<path d="M34.303 61.3938C34.316 61.4117 34.3291 61.4296 34.3421 61.4459L34.2965 61.3889C34.2981 61.3905 34.3014 61.3921 34.303 61.3938Z" fill="#6B184E"/>
<path d="M83.7512 61.3937C83.7528 61.3921 83.7561 61.3905 83.7578 61.3889L83.7122 61.4459C83.7252 61.4296 83.7382 61.4117 83.7512 61.3937Z" fill="#6B184E"/>
</g>
<path d="M39.6114 31.9278C37.5547 34.0155 36.2618 36.9336 36.0778 36.5932C36.0599 36.5607 36.042 36.5216 36.024 36.476C35.6316 35.5217 34.9786 31.7373 34.9802 28.3649C34.9819 27.821 34.9965 27.3406 35.0258 26.9172C35.104 25.7741 35.275 25.0413 35.485 24.5723C35.7456 23.9991 36.3318 23.8233 36.8513 24.0154C38.2321 24.5283 42.155 26.971 43.4333 28.5375C43.6613 28.8159 41.6697 29.8402 39.6114 31.9278Z" fill="#FFA1A8"/>
<path d="M39.6114 31.9278C37.5548 34.0155 36.2618 36.9336 36.0778 36.5932C36.0599 36.5607 36.042 36.5216 36.0241 36.476C36.4817 34.7059 37.7437 32.26 38.7109 30.4916C40.0332 28.0766 38.2094 26.1584 36.6282 25.5852C36.086 25.3882 35.4428 26.2333 35.0259 26.9172C35.104 25.7741 35.275 25.0413 35.4851 24.5723C35.7456 23.9991 36.3319 23.8233 36.8513 24.0154C38.2322 24.5283 42.155 26.971 43.4333 28.5375C43.6613 28.8159 41.6698 29.8402 39.6114 31.9278Z" fill="#FF8392"/>
<path d="M36.1268 37.2126C36.1167 37.2126 36.1065 37.2124 36.0962 37.2121C35.8686 37.2045 35.6669 37.0783 35.5568 36.8744C35.0937 36.0178 34.3863 31.8648 34.3889 28.3649C34.3904 26.4794 34.5725 25.1595 34.9458 24.3297C35.3176 23.5099 36.2056 23.1455 37.0569 23.4609C38.4722 23.9856 42.5296 26.4929 43.8929 28.1625C44.0093 28.3051 44.0613 28.485 44.0393 28.669C43.991 29.0752 43.6483 29.3352 42.8205 29.9632C42.0828 30.5231 41.0724 31.2898 40.034 32.3436C38.8919 33.5028 37.983 34.9463 37.3815 35.9015C36.7551 36.8964 36.556 37.2126 36.1268 37.2126ZM35.5732 28.3659C35.5712 31.01 35.9846 33.883 36.3187 35.3669C36.3391 35.3345 36.3593 35.3024 36.3794 35.2706C37.008 34.2721 37.9582 32.7631 39.1906 31.5124C40.2887 30.3979 41.3816 29.5687 42.1047 29.0198C42.3021 28.8701 42.5143 28.7092 42.6752 28.5789C41.2247 27.0989 37.8036 25.0008 36.6453 24.5715C36.435 24.4933 36.1613 24.5168 36.025 24.8173C35.7268 25.4803 35.5745 26.6749 35.5732 28.3659Z" fill="#000072"/>
<path d="M78.2809 31.9278C80.3376 34.0155 81.6305 36.9336 81.8145 36.5932C81.8324 36.5607 81.8503 36.5216 81.8683 36.476C82.2607 35.5217 82.9137 31.7373 82.9121 28.3649C82.9105 27.821 82.8958 27.3406 82.8665 26.9172C82.7883 25.7741 82.6173 25.0413 82.4073 24.5723C82.1467 23.9991 81.5605 23.8233 81.0411 24.0154C79.6602 24.5283 75.7373 26.971 74.459 28.5375C74.2311 28.8159 76.2226 29.8402 78.2809 31.9278Z" fill="#FFA1A8"/>
<path d="M78.2808 31.9278C80.3375 34.0155 81.6304 36.9336 81.8144 36.5932C81.8323 36.5607 81.8502 36.5216 81.8682 36.476C81.4106 34.7059 80.1486 32.26 79.1813 30.4916C77.859 28.0766 79.6829 26.1584 81.264 25.5852C81.8063 25.3882 82.4495 26.2333 82.8664 26.9172C82.7882 25.7741 82.6172 25.0413 82.4071 24.5723C82.1466 23.9991 81.5604 23.8233 81.0409 24.0154C79.6601 24.5283 75.7372 26.971 74.4589 28.5375C74.231 28.8159 76.2225 29.8402 78.2808 31.9278Z" fill="#FF8392"/>
<path d="M81.7658 37.2126C81.3364 37.2126 81.1374 36.8964 80.5109 35.9014C79.9095 34.9462 79.0007 33.5027 77.8585 32.3436C76.8201 31.2899 75.8098 30.5231 75.072 29.9634C74.2442 29.3352 73.9016 29.0752 73.8532 28.669C73.8312 28.485 73.8833 28.3051 73.9996 28.1626C75.363 26.493 79.4204 23.9855 80.8355 23.4609C81.6876 23.1453 82.5749 23.5099 82.9459 24.328C83.32 25.1594 83.5021 26.4792 83.5036 28.3649C83.5063 31.8648 82.7988 36.0178 82.3357 36.8745C82.2256 37.0783 82.0238 37.2045 81.7963 37.2121C81.786 37.2124 81.7758 37.2126 81.7658 37.2126ZM75.2173 28.5789C75.3782 28.7092 75.5905 28.8703 75.7879 29.02C76.511 29.5687 77.6039 30.398 78.702 31.5124C79.9344 32.7631 80.8844 34.272 81.5131 35.2705C81.5332 35.3024 81.5535 35.3345 81.5738 35.3669C81.9079 33.883 82.3214 31.01 82.3194 28.3659C82.318 26.6747 82.1657 25.4803 81.8667 24.8156C81.7313 24.517 81.4577 24.4933 81.2472 24.5715C80.089 25.0007 76.6679 27.0988 75.2173 28.5789Z" fill="#000072"/>
<path d="M54.4668 73.2701C50.4481 72.994 46.4804 72.2162 42.6751 70.8726L43.4743 70.3156V70.3273L43.4751 71.1822C41.6738 70.5395 39.9005 69.7652 38.2924 68.7006C36.9301 67.8033 35.6969 66.7085 34.6152 65.4886L34.6024 65.4742L34.596 65.467C34.6422 65.5116 34.686 65.5582 34.7441 65.5863L34.5897 65.4597L33.8198 64.5168L33.8474 64.5507L33.8416 64.5457L34.7651 63.7652L35.5194 64.6863L34.5685 65.4371C34.118 64.8662 33.6916 64.2901 33.1175 63.8951C32.938 63.7743 32.7836 63.7128 32.6604 63.7172C32.5718 63.715 32.4819 63.7343 32.3927 63.7375C31.3762 63.8407 29.8638 63.5355 29.8665 62.2407C29.8609 61.748 30.0588 61.2874 30.2221 60.8799C30.4916 60.2417 30.8005 59.6429 30.9756 58.9789L30.9855 58.9397L30.9901 58.9206L30.9924 58.9111L30.9856 58.9446C30.9135 59.3733 31.3843 59.7372 31.7883 59.5289L31.7649 59.5403L31.7184 59.563L31.6254 59.6073C30.5033 60.1163 28.2039 61.0926 27.8318 59.2498C27.7854 58.7002 27.9894 58.2981 28.1224 57.845C28.5045 56.7543 28.9235 55.7121 29.1486 54.5937C29.4155 53.2032 29.6596 51.7892 29.9335 50.4006C30.158 49.2701 30.4286 47.8204 30.6947 46.8435C31.3503 44.442 32.1112 42.0939 33.2118 39.8426L33.1848 40.3534C31.6783 36.1815 30.624 25.4793 32.8073 21.649C32.955 21.3982 33.1488 21.1585 33.3563 20.9394L33.4282 20.8787L33.5747 20.7599C34.8302 19.879 36.5322 20.2664 37.8603 20.6409C41.1269 21.681 44.6746 23.7561 47.1534 26.1321C47.1533 26.1322 46.4151 25.9847 46.4151 25.9847C47.4302 25.5668 48.4668 25.2544 49.5088 24.992C51.5866 24.4756 53.6982 24.1761 55.8219 23.9724C56.8981 23.8792 57.9352 23.7992 59.027 23.784C60.1187 23.7959 61.1561 23.8774 62.2322 23.9705C65.4302 24.2891 68.6324 24.774 71.6402 25.9813L70.898 26.1296C71.9478 25.0917 73.1128 24.245 74.3388 23.4529C76.6077 22.0184 82.0194 19.0116 84.4829 20.7549C86.1612 22.0721 86.3802 25.6332 86.4695 27.6013C86.5582 30.4655 86.3408 33.3095 85.8942 36.1356C85.6549 37.5707 85.3792 38.9694 84.878 40.3568L84.8506 39.8383C85.9522 42.0902 86.7137 44.4386 87.3697 46.8407C87.4929 47.2987 87.563 47.6059 87.6697 48.1017C88.0805 50.101 88.4857 52.2181 88.8461 54.2228C88.9723 54.9596 89.1775 55.6631 89.4229 56.3796C89.5861 56.8595 89.7676 57.3358 89.9436 57.8408C90.174 58.4725 90.4903 59.3971 89.8903 59.9747C88.9881 60.8078 87.2629 59.9954 86.3296 59.5753L86.283 59.5525L86.2597 59.5411C86.3273 59.5755 86.425 59.6028 86.525 59.6003C86.7106 59.6 86.878 59.5029 86.9794 59.3671C87.0978 59.2373 87.0979 59.0206 87.0772 58.9175L87.0817 58.9365L87.0916 58.9755L87.1375 59.138C87.5482 60.6038 89.354 62.8664 87.0389 63.6349C86.4767 63.7967 85.9692 63.783 85.4171 63.7301C85.3981 63.7336 85.3808 63.7308 85.3614 63.7297C85.267 63.7367 85.1082 63.7973 84.9446 63.9075C84.3707 64.3009 83.947 64.8759 83.4975 65.4464L82.5227 64.6766L83.2769 63.7554L84.224 64.556C84.2038 64.575 84.2482 64.5258 84.2464 64.5261L83.476 65.4701L83.3176 65.5999C83.376 65.5704 83.4254 65.5249 83.4697 65.4773L83.4633 65.4845C81.3136 67.9684 78.455 69.7839 75.3868 70.8999L74.5614 71.2074L74.5622 70.3274V70.3156L75.3848 70.889C72.5214 71.8941 69.5922 72.6263 66.5834 72.9938C65.5905 73.1259 64.5913 73.2246 63.587 73.2702C63.2213 73.2762 63.163 72.7655 63.5097 72.6832C63.5109 72.6831 66.4155 72.045 66.4169 72.0448C68.1109 71.6729 70.5162 71.1254 72.1598 70.629C73.3828 70.2889 74.6038 69.8791 75.7837 69.4482L75.7844 70.3156V70.3274L74.9598 69.7548C76.5924 69.1439 78.1517 68.3608 79.5688 67.3648C80.633 66.588 81.6251 65.6993 82.4959 64.7091C82.5533 64.6385 82.6234 64.5713 82.702 64.5255L82.5436 64.6553L83.256 63.7796L83.2843 63.7448L83.2901 63.7398L84.2372 64.5404L83.4846 65.4628L82.5098 64.6931C83.2211 63.8147 84.0131 62.6449 85.272 62.4854C85.5403 62.4736 85.8157 62.5266 86.0826 62.5164C86.2993 62.512 86.5143 62.4897 86.6795 62.4376C86.8523 62.3913 86.9444 62.3039 86.9388 62.3001C86.9833 62.0015 86.8081 61.685 86.6895 61.3624C86.3982 60.6929 86.063 60.0107 85.8746 59.2927C85.6572 58.6635 86.2906 58.1097 86.8766 58.4422L86.9589 58.4813L87.1251 58.5575C87.7093 58.7989 88.3673 59.1032 88.9892 59.0635C89.0411 59.0545 89.0384 59.0418 89.0082 59.0705C88.9774 59.1014 88.9731 59.1368 88.98 59.1014C88.9481 58.8602 88.852 58.5405 88.7477 58.2558C88.3534 57.1525 87.9085 56.0159 87.6713 54.8457C87.2316 52.6352 86.756 49.7842 86.2399 47.5987C85.5946 45.1521 84.8011 42.6849 83.6908 40.4195L83.5657 40.1675L83.6633 39.901C85.0485 36.044 86.0321 25.8646 84.1112 22.3263C84.0296 22.2166 83.9608 22.0824 83.8711 21.9987L83.8086 21.9269L83.7778 21.891C83.7206 21.8595 83.6868 21.805 83.6258 21.7784C83.5754 21.7558 83.5367 21.7216 83.4802 21.702L83.3113 21.6404C80.9898 21.1432 77.0494 23.334 75.0663 24.5866C73.7778 25.4146 72.572 26.3315 71.5377 27.4026C69.5279 26.541 67.3582 26.0461 65.1894 25.7117C63.1609 25.4009 61.0754 25.202 59.027 25.1566C58.0192 25.1712 56.9611 25.2437 55.9463 25.333C52.895 25.6297 49.7872 26.0913 46.9345 27.2275L46.517 27.3983C44.5277 25.3736 41.9658 23.8016 39.3764 22.6241C38.1106 22.0762 35.5274 21.0625 34.361 21.8173C34.3419 21.8337 34.3225 21.8493 34.3024 21.8644L34.2719 21.8866L34.2409 21.9226L34.1782 21.9947C33.8424 22.3827 33.645 22.9006 33.4853 23.3906C32.2763 27.5382 32.9734 36.0764 34.4778 40.1671C33.5762 41.9425 32.8933 43.8625 32.3118 45.7798C32.1235 46.3782 31.9517 47.0337 31.793 47.6418C31.6868 48.0529 31.5606 48.7043 31.4695 49.1228C31.1656 50.5857 30.6879 53.1683 30.4119 54.6412C30.1565 56.1142 29.4933 57.5145 29.0901 58.9215C29.0629 59.024 29.0663 59.0992 29.061 59.103C29.068 59.1403 29.0649 59.1083 29.0366 59.0799C29.0089 59.0537 29.0089 59.0672 29.0624 59.0764C29.3419 59.1095 29.6194 59.0362 29.9231 58.9525C30.3169 58.8357 30.7233 58.67 31.1009 58.4936C31.2477 58.4244 31.3685 58.3511 31.5503 58.3561C32.0027 58.3565 32.3103 58.8299 32.1801 59.2344C31.9554 60.1877 31.3957 61.0769 31.1244 61.9933C31.1019 62.0864 31.0895 62.1714 31.09 62.2277C31.0909 62.2831 31.1027 62.3072 31.1027 62.3072C31.1002 62.3161 31.1958 62.4045 31.3703 62.4514C31.7037 62.5487 32.1351 62.5447 32.4997 62.5047C32.5942 62.4994 32.6884 62.4963 32.7809 62.5001C34.0304 62.6596 34.8256 63.8263 35.5321 64.7023L34.5812 65.4531L33.8287 64.5306L34.7522 63.75L34.758 63.755L34.7856 63.789L35.4985 64.6656L35.3441 64.5391C35.4815 64.6169 35.5814 64.7683 35.6897 64.8807C37.6873 67.123 40.2744 68.737 43.0881 69.771L42.2869 70.3274V70.3156L42.2877 69.4702C43.461 69.9001 44.6829 70.3089 45.8871 70.6539C47.7865 71.2157 49.6907 71.665 51.6319 72.074C52.6011 72.2847 53.5721 72.4833 54.5441 72.6832C54.8992 72.7566 54.8314 73.2886 54.4668 73.2701Z" fill="#000072"/>
<path d="M74.3826 62.0648C75.9529 62.0648 77.2259 61.4537 77.2259 60.6998C77.2259 59.946 75.9529 59.3349 74.3826 59.3349C72.8122 59.3349 71.5392 59.946 71.5392 60.6998C71.5392 61.4537 72.8122 62.0648 74.3826 62.0648Z" fill="#FF7687"/>
<path d="M43.6515 62.0648C45.2218 62.0648 46.4949 61.4537 46.4949 60.6998C46.4949 59.946 45.2218 59.3349 43.6515 59.3349C42.0811 59.3349 40.8081 59.946 40.8081 60.6998C40.8081 61.4537 42.0811 62.0648 43.6515 62.0648Z" fill="#FF7687"/>
<path d="M54.7646 58.5791C54.7646 58.5791 55.511 60.537 57.2582 60.085C59.2472 59.5705 59.0082 57.1987 59.0082 57.1987" fill="white"/>
<path d="M63.3253 58.5791C63.3253 58.5791 62.5789 60.537 60.8317 60.085C58.8427 59.5705 59.0817 57.1987 59.0817 57.1987" fill="white"/>
<path d="M48.5493 57.7088C50.4715 57.7088 52.0297 55.216 52.0297 52.1411C52.0297 49.0661 50.4715 46.5733 48.5493 46.5733C46.6271 46.5733 45.0688 49.0661 45.0688 52.1411C45.0688 55.216 46.6271 57.7088 48.5493 57.7088Z" fill="#000072"/>
<path d="M50.6792 50.9611C50.7826 49.9844 50.366 49.1397 49.7486 49.0743C49.1312 49.0089 48.5469 49.7477 48.4435 50.7243C48.3401 51.701 48.7567 52.5457 49.3741 52.6111C49.9915 52.6765 50.5758 51.9377 50.6792 50.9611Z" fill="white"/>
<g opacity="0.35">
<path d="M47.7693 56.3793C48.0977 56.2194 48.1385 55.6267 47.8603 55.0556C47.5821 54.4845 47.0903 54.1512 46.7619 54.3111C46.4335 54.4711 46.3928 55.0638 46.6709 55.6349C46.9491 56.206 47.4409 56.5393 47.7693 56.3793Z" fill="white"/>
</g>
<path d="M69.4455 57.7088C71.3677 57.7088 72.926 55.216 72.926 52.1411C72.926 49.0661 71.3677 46.5733 69.4455 46.5733C67.5233 46.5733 65.9651 49.0661 65.9651 52.1411C65.9651 55.216 67.5233 57.7088 69.4455 57.7088Z" fill="#000072"/>
<path d="M68.6182 52.6037C69.2356 52.5383 69.6523 51.6935 69.5488 50.7169C69.4454 49.7402 68.8611 49.0015 68.2437 49.0669C67.6263 49.1323 67.2097 49.977 67.3131 50.9536C67.4165 51.9303 68.0009 52.669 68.6182 52.6037Z" fill="white"/>
<g opacity="0.35">
<path d="M71.3249 55.6453C71.6031 55.0742 71.5623 54.4815 71.2339 54.3216C70.9055 54.1616 70.4137 54.4949 70.1355 55.066C69.8574 55.6371 69.8981 56.2298 70.2265 56.3898C70.5549 56.5498 71.0467 56.2165 71.3249 55.6453Z" fill="white"/>
</g>
<g opacity="0.3">
<path d="M54.6059 98.1954C52.8488 99.5855 48.5055 99.3264 45.5375 95.8269C44.3473 94.425 43.3792 91.0218 42.8862 88.4756L49.527 82.4537C49.9163 85.2426 51.3344 87.395 52.7955 89.2114C55.6363 92.7419 58.6458 95.0024 54.6059 98.1954Z" fill="#000072"/>
</g>
<g opacity="0.3">
<path d="M61.7837 98.1954C63.5408 99.5855 67.8841 99.3264 70.8521 95.8269C72.0423 94.425 73.0104 91.0218 73.5034 88.4756L66.8626 82.4537C66.4733 85.2426 65.0552 87.395 63.5941 89.2114C60.7533 92.7419 57.7439 95.0024 61.7837 98.1954Z" fill="#000072"/>
</g>
<path d="M54.6059 95.6789C52.8488 97.0689 48.5055 96.8098 45.5375 93.3104C44.3473 91.9085 43.3792 89.9856 42.8862 87.4394L49.527 79.9371C49.9163 82.7261 51.3344 84.8785 52.7955 86.6948C55.6363 90.2254 58.6458 92.4858 54.6059 95.6789Z" fill="#FFC76C"/>
<path d="M54.606 95.6789C52.8489 97.0689 48.5056 96.8099 45.5376 93.3104C45.9748 90.4568 49.6603 87.0323 52.7956 86.6948C55.6364 90.2254 58.6458 92.4858 54.606 95.6789Z" fill="white"/>
<g opacity="0.3">
<path d="M54.6064 95.6784C52.8493 97.0685 48.506 96.8094 45.538 93.3099C44.5447 92.139 43.7053 90.6053 43.1694 88.6498C43.615 89.6002 44.1464 90.4144 44.7297 91.1012C47.6978 94.6007 52.041 94.8598 53.7982 93.4698C55.2148 92.3507 55.7641 91.3455 55.7581 90.3596C56.9113 92.1198 57.0786 93.7244 54.6064 95.6784Z" fill="#000072"/>
</g>
<path d="M49.9662 79.8762C50.5366 82.7011 52.1399 85.0707 54.0267 87.2246C56.5068 90.0796 59.0495 92.7531 55.2993 95.9505C54.2068 96.9475 52.6352 97.215 51.2109 97.0755C46.4711 96.6269 42.7781 92.1087 42.5954 87.495C42.5852 87.1624 43.0474 87.0641 43.1721 87.3708C43.4477 88.0541 43.6696 88.7367 43.9558 89.3894C44.9589 91.9566 46.7276 94.3417 49.3718 95.3211C50.8496 95.8813 52.6858 96.1177 54.0795 95.2565C54.3164 95.0918 54.6131 94.8327 54.8346 94.6204C55.8144 93.7036 56.2688 92.6537 55.6302 91.4015C55.021 90.1754 53.9858 89.095 53.0962 88.0127C51.1684 85.7623 49.2855 83.078 49.0866 79.9992C49.0548 79.4558 49.8444 79.3351 49.9662 79.8762Z" fill="#000072"/>
<path d="M61.7837 95.6789C63.5408 97.0689 67.8841 96.8098 70.8521 93.3104C72.0423 91.9085 73.0104 89.9856 73.5034 87.4394L66.8626 79.9371C66.4733 82.7261 65.0552 84.8785 63.5941 86.6948C60.7533 90.2254 57.7439 92.4858 61.7837 95.6789Z" fill="#FFC76C"/>
<path d="M61.7837 95.6789C63.5408 97.0689 67.8841 96.8099 70.8521 93.3104C70.4149 90.4568 66.7294 87.0323 63.5941 86.6948C60.7533 90.2254 57.7439 92.4858 61.7837 95.6789Z" fill="white"/>
<path d="M67.3029 79.9992C67.0553 83.8848 64.2398 86.8686 61.8947 89.6907C60.275 91.721 59.7153 93.1172 61.9306 94.9603C63.3005 96.1753 65.4151 95.9273 67.0177 95.3212C69.6618 94.3415 71.4307 91.9569 72.4336 89.3894C72.7183 88.7403 72.9389 88.0624 73.2127 87.3825C73.2698 87.2231 73.4496 87.1416 73.6068 87.2055C73.7271 87.254 73.7987 87.3724 73.7941 87.495C73.7346 89.0036 73.3084 90.5092 72.5654 91.8619C71.0971 94.6014 68.3629 96.7886 65.1785 97.0755C62.8444 97.2894 61.2291 96.5181 59.857 94.615C58.4226 92.5733 59.5537 90.5701 60.9286 88.9159C62.3089 87.2387 63.8452 85.6423 64.9063 83.7775C65.616 82.5606 66.1322 81.2553 66.4236 79.875C66.543 79.3449 67.3342 79.4462 67.3029 79.9992Z" fill="#000072"/>
<path d="M62.3114 58.6764C62.3114 58.6764 62.2462 60.1627 61.7059 61.6667C61.5905 61.9894 61.4306 62.2692 61.2397 62.5075C60.1457 63.865 57.9992 63.865 56.9052 62.5075C56.7143 62.2692 56.5544 61.9894 56.4389 61.6667C55.9001 60.1627 55.8335 58.6764 55.8335 58.6764H62.3114Z" fill="#000072"/>
<path d="M61.2398 62.5075C60.1458 63.8649 57.9994 63.8649 56.9054 62.5075C57.9979 61.1485 60.1473 61.1485 61.2398 62.5075Z" fill="#F27E80"/>
<path d="M59.0728 64.1332C57.6173 64.1332 56.3586 63.2454 55.866 61.8717C55.3024 60.2994 55.2284 58.7673 55.2255 58.7029C55.2105 58.3672 55.4705 58.0828 55.8062 58.0678C56.1403 58.0567 56.4262 58.3129 56.4413 58.6486C56.4419 58.6622 56.5121 60.0675 57.0117 61.4609C57.3962 62.5339 58.3286 62.9163 59.0728 62.9163C59.8169 62.9163 60.7492 62.5339 61.1338 61.4609C61.6334 60.0675 61.7036 58.6622 61.7043 58.6481C61.7198 58.3126 62.0031 58.0509 62.3398 58.0681C62.6753 58.0834 62.935 58.3673 62.92 58.7029C62.9171 58.7673 62.8431 60.2994 62.2795 61.8717C61.7869 63.2454 60.5282 64.1332 59.0728 64.1332Z" fill="#000072"/>
<g opacity="0.25">
<path d="M63.3251 59.3819C63.3251 59.3819 62.5788 61.3399 60.8315 60.8879C58.8426 60.3733 59.1128 59.4163 59.0267 59.4163C58.9406 59.4163 59.2471 60.3733 57.2581 60.8879C55.5109 61.3399 54.7645 59.3819 54.7645 59.3819C54.7645 59.3819 54.7289 54.5296 59.027 54.5296C63.3251 54.5296 63.3251 59.3819 63.3251 59.3819Z" fill="#6B184E"/>
</g>
<path d="M63.3252 58.5791C63.3252 58.5791 62.5788 60.537 60.8316 60.085C58.8427 59.5705 59.0817 57.1987 59.0817 57.1987H59.0082C59.0082 57.1987 59.2472 59.5705 57.2582 60.085C55.511 60.537 54.7646 58.5791 54.7646 58.5791C54.7646 58.5791 52.2243 53.7268 59.0271 53.7268C65.8299 53.7268 63.3252 58.5791 63.3252 58.5791Z" fill="white"/>
<g opacity="0.25">
<path d="M63.2976 58.6421C63.1536 58.9721 62.3916 60.488 60.832 60.0852C58.8421 59.5707 59.0815 57.199 59.0815 57.199H59.0087C59.0087 57.199 59.2465 59.5707 57.2582 60.0852C55.6986 60.488 54.9366 58.9721 54.7926 58.6421C55.2844 58.9737 55.9283 59.1646 56.7373 58.9559C59.3064 58.291 58.9974 55.2284 58.9974 55.2284H59.0928C59.0928 55.2284 58.7838 58.291 61.353 58.9559C62.1619 59.1646 62.8058 58.9737 63.2976 58.6421Z" fill="#000072"/>
</g>
<path d="M55.0413 58.4737C55.5347 59.3017 56.3364 59.9819 57.3317 59.5834C58.3086 59.2773 58.6761 58.1409 58.715 57.2027C58.7238 57.0393 58.8634 56.9141 59.0268 56.9229C59.3798 56.952 59.3241 57.3994 59.3473 57.6453C59.3542 58.126 59.2882 58.5975 59.0906 59.0517C58.7823 59.8364 57.9935 60.4447 57.1473 60.5662C56.0978 60.7838 55.074 60.066 54.6616 59.1375C54.5537 58.898 54.3063 58.4456 54.6889 58.3174C54.8326 58.2747 54.9758 58.3478 55.0413 58.4737Z" fill="#000072"/>
<path d="M63.6018 58.6846C63.2096 60.0655 61.8635 61.0055 60.4474 60.4321C59.1167 59.9871 58.5595 58.4576 58.7871 57.169C58.8483 56.8241 59.355 56.8559 59.3749 57.2025C59.4135 58.1406 59.7812 59.2774 60.7581 59.5835C61.7681 59.9876 62.5735 59.2824 63.067 58.4441C63.248 58.1558 63.6975 58.3611 63.6018 58.6846Z" fill="#000072"/>
<path d="M61.4407 55.6539C61.4407 56.215 60.7088 57.0122 60.037 57.349C59.3343 57.7013 58.547 57.7013 57.8442 57.349C57.1725 57.0122 56.4406 56.215 56.4406 55.6539C56.4406 54.64 61.4407 54.64 61.4407 55.6539Z" fill="#000072"/>
<g opacity="0.5">
<path d="M59.9319 55.6236C59.9319 55.7853 59.6417 55.9282 59.3753 56.0253C59.0967 56.1269 58.7845 56.1269 58.5059 56.0253C58.2395 55.9282 57.9493 55.7853 57.9493 55.6236C57.9493 55.1356 59.9319 55.1356 59.9319 55.6236Z" fill="white"/>
</g>
<path d="M46.4067 41.3367C47.4967 40.2583 49.3474 40.0197 50.6132 40.9286C50.7909 41.0441 50.9399 41.1949 51.0967 41.3347C51.2904 41.5157 51.3007 41.8194 51.1197 42.0132C50.9719 42.1714 50.7422 42.2073 50.5575 42.1166C50.4623 42.0697 50.3635 42.0211 50.2727 41.9707C49.9434 41.7822 49.5788 41.6609 49.2082 41.5999C48.421 41.4872 47.6283 41.775 46.9257 42.12C46.4392 42.3209 46.0354 41.7008 46.4067 41.3367Z" fill="#000072"/>
<path d="M71.0344 42.0807C69.8425 41.4646 68.7338 41.3706 67.5658 42.0827C67.32 42.2386 66.9843 42.1667 66.8546 41.8976C66.6441 41.4528 67.146 41.1627 67.441 40.9288C67.981 40.5558 68.6467 40.3447 69.3078 40.3645C70.1899 40.3852 71.0155 40.7303 71.6475 41.3369C72.0527 41.7707 71.5399 42.3726 71.0344 42.0807Z" fill="#000072"/>
<path d="M51.0308 94.7447C51.5802 95.1695 52.2752 95.4924 52.9661 95.5872C53.1982 95.6262 53.4277 95.6188 53.6522 95.6094C54.5113 95.6141 54.4498 96.8746 53.5928 96.794C52.7124 96.6899 51.8928 96.302 51.2162 95.748C50.9965 95.5666 50.8018 95.3838 50.6044 95.1556C50.4975 95.032 50.5111 94.8451 50.6347 94.7382C50.7511 94.637 50.9208 94.6457 51.0308 94.7447Z" fill="#000072"/>
<path d="M52.7587 92.5614C53.6288 93.171 54.6978 93.7089 55.7784 93.6644C56.633 93.6563 56.5947 94.9103 55.7404 94.848C54.7316 94.7322 53.8433 94.2404 53.066 93.6305C52.8178 93.4331 52.5893 93.2334 52.3599 92.999C52.2454 92.8821 52.2473 92.6945 52.3643 92.58C52.4733 92.4729 52.6435 92.4687 52.7587 92.5614Z" fill="#000072"/>
<path d="M65.9168 95.1556C65.1452 96.0325 64.0985 96.6509 62.9284 96.794C62.1464 96.8809 61.9844 95.75 62.7607 95.6149C63.0244 95.601 63.2848 95.6391 63.5552 95.5872C64.2459 95.4925 64.9411 95.1695 65.4904 94.7447C65.7661 94.4982 66.1546 94.8744 65.9168 95.1556Z" fill="#000072"/>
<path d="M64.1615 92.9991C63.2324 93.9153 62.1108 94.6846 60.781 94.848C59.9988 94.9179 59.8613 93.7859 60.639 93.6678C61.1891 93.6895 61.7515 93.5915 62.2781 93.3772C62.7982 93.1708 63.3243 92.8808 63.7753 92.5523C64.0671 92.3425 64.4109 92.7423 64.1615 92.9991Z" fill="#000072"/>
<g opacity="0.3">
<path d="M61.7839 95.6784C63.5411 97.0685 67.8844 96.8094 70.8524 93.3099C71.8457 92.139 72.6851 90.6053 73.2209 88.6498C72.7754 89.6002 72.2439 90.4144 71.6607 91.1012C68.6926 94.6007 64.3494 94.8598 62.5922 93.4698C61.1755 92.3507 60.6263 91.3455 60.6323 90.3596C59.4791 92.1198 59.3118 93.7244 61.7839 95.6784Z" fill="#000072"/>
</g>
<path d="M91.6658 42.1642C90.7333 41.2002 90.0968 39.935 89.9269 38.5003C89.5145 35.0182 92.0031 31.861 95.4853 31.4486C98.9674 31.0362 102.125 33.5248 102.537 37.007C102.949 40.4892 100.461 43.6463 96.9786 44.0587C96.01 44.1734 95.0668 44.0631 94.2007 43.7699L91.4773 45.0547L91.6658 42.1642Z" fill="white"/>
<g opacity="0.5">
<path d="M95.6288 32.6612C92.3759 33.0465 89.9909 35.8269 90.0269 39.03C89.9772 38.8117 89.9373 38.5893 89.9104 38.362C89.498 34.8798 91.9866 31.7226 95.4688 31.3102C98.951 30.8979 102.108 33.3864 102.52 36.8686C102.548 37.0969 102.561 37.3237 102.564 37.5485C101.852 34.4239 98.8827 32.2759 95.6288 32.6612Z" fill="white"/>
</g>
<path d="M90.8815 45.9304L91.1142 42.3614C90.1558 41.3001 89.5621 39.9921 89.393 38.5634C88.9463 34.7925 91.651 31.3613 95.422 30.9147C99.1925 30.4665 102.624 33.1728 103.071 36.9439C103.518 40.7148 100.813 44.146 97.0419 44.5927C96.0896 44.7054 95.1476 44.6226 94.2384 44.3467L90.8815 45.9304ZM96.2361 31.9419C96.0089 31.9419 95.7796 31.9552 95.5485 31.9825C92.3663 32.3594 90.084 35.2549 90.4608 38.4371C90.6116 39.7103 91.1619 40.8698 92.0523 41.7904L92.2178 41.9616L92.0733 44.179L94.1675 43.191L94.3731 43.2606C95.1943 43.5386 96.0495 43.6272 96.9154 43.5249C100.098 43.148 102.38 40.2524 102.003 37.0702C101.654 34.1192 99.1377 31.9419 96.2361 31.9419Z" fill="#000072"/>
<g opacity="0.3">
<path d="M91.6177 42.1124C93.636 43.168 96.1147 43.2733 98.307 42.1759C100.738 40.9588 102.197 38.5736 102.346 36.0413C102.433 36.3531 102.498 36.6755 102.537 37.007C102.949 40.4892 100.461 43.6463 96.9786 44.0587C96.01 44.1734 95.0669 44.0631 94.2006 43.7699L91.4773 45.0547L91.6658 42.1642C91.6494 42.1472 91.6339 42.1295 91.6177 42.1124Z" fill="#000072"/>
</g>
<path d="M94.224 35.9706C94.7735 35.4212 95.6643 35.5196 96.2138 36.0691L96.2993 36.1546L96.3848 36.0691C96.9343 35.5196 97.8251 35.4212 98.3746 35.9706C98.9241 36.5201 98.9241 37.4109 98.3746 37.9604L98.2891 38.0459L96.5616 39.7734C96.4167 39.9183 96.1819 39.9183 96.037 39.7734L94.3095 38.0459L94.224 37.9604C93.6745 37.4109 93.6745 36.5201 94.224 35.9706Z" fill="#FF0068"/>
</g>
<rect x="0.5" y="0.5" width="124" height="124" stroke="black"/>
<defs>
<clipPath id="clip0_4_3531">
<rect width="125" height="125" fill="white"/>
</clipPath>
</defs>
</svg>
