<?xml version="1.0" encoding="utf-8"?>
<!-- Generator: Adobe Illustrator 27.5.0, SVG Export Plug-In . SVG Version: 6.00 Build 0)  -->
<svg version="1.1" id="Layer_1" xmlns="http://www.w3.org/2000/svg" xmlns:xlink="http://www.w3.org/1999/xlink" x="0px" y="0px"
	 viewBox="0 0 4000 4000" style="enable-background:new 0 0 4000 4000;" xml:space="preserve">
<g>
	<g>
		<g>
			<rect style="fill:#FEEBCD;" width="4000" height="4000"/>
		</g>
	</g>
	<g>
		<g style="opacity:0.2;">
			<g>
				<ellipse style="fill:#000072;" cx="1891.09" cy="3445.468" rx="1045.238" ry="126.584"/>
			</g>
		</g>
		<g>
			<g>
				<g>
					<g>
						<path style="fill:#FFC76C;" d="M2397.151,2916.04c0,0,290.21-12.15,278.38-173.341
							c-15.769-214.852-245.745-331.53-238.144-588.666c12.999-439.717,826.287-459.339,838.599,77.499
							c3.437,149.85-69.315,199.592-135.86,201.997c-104.008,3.759-158.471-76.503-171.923-181.068
							c-24.596-191.191-292.27-182.115-309.115,0.44c-13.67,148.146,334.033,382.176,206.633,645.894
							c-87.932,182.02-297.511,219.424-428.647,210.41C2410.742,3107.394,2397.151,2916.04,2397.151,2916.04z"/>
					</g>
				</g>
				<g style="opacity:0.5;">
					<g>
						<path style="fill:#FFFFFF;" d="M3275.15,2269.109c-30.791-510.558-805.486-492.984-836.894-73.993
							c-0.994-13.263-1.278-26.954-0.852-41.07c12.979-439.74,826.281-459.351,838.598,77.498
							C3276.287,2244.855,3276.002,2257.361,3275.15,2269.109z"/>
					</g>
				</g>
				<g style="opacity:0.3;">
					<g>
						<path style="fill:#000072;" d="M2403.291,2981.104c6.42,55.68,17.783,127.042,33.806,128.121
							c131.133,8.977,340.672-28.408,428.624-210.449c46.874-96.985,29.431-189.938-10.625-276.128
							c4.545,47.896,22.99,102.14-12.102,174.33C2755.416,2977.139,2534.594,2989.172,2403.291,2981.104z"/>
					</g>
				</g>
				<g style="opacity:0.3;">
					<g>
						<path style="fill:#000072;" d="M2968.217,2252.489c13.465,104.543,67.896,184.824,171.927,181.018
							c46.192-1.648,95.452-26.193,120.053-91.247c-24.033,18.977-52.101,27.385-79.202,28.351
							c-109.713,3.977-141.924-74.163-153.515-184.787c-34.09-325.36-589.883-131.283-329.969,183.39
							c8.663,10.488-24.013-42.962-35.023-78.544c-3.239-13.125-4.488-25.738-3.409-37.783
							C2675.953,2070.335,2943.616,2061.244,2968.217,2252.489z"/>
					</g>
				</g>
				<g>
					<g>
						<path style="fill:#000072;" d="M2473.979,3129.391c-14.746,0-27.637-0.557-38.206-1.284
							c-20.627-1.416-34.275-19.932-47.302-113.55c-6.701-48.145-10.08-95.195-10.222-97.173l-1.379-19.443l19.48-0.83
							c1.699-0.073,170.566-8.105,235.969-81.572c18.374-20.64,26.328-44.014,24.314-71.455
							c-6.853-93.35-56.865-168.008-109.815-247.056c-65.227-97.368-132.673-198.057-128.372-343.555
							c6.746-228.154,217.161-346.826,421.912-346.167c116.501,0.386,225.483,37.256,306.868,103.818
							c93.582,76.543,144.658,187.183,147.703,319.971c3.645,158.979-77.224,218.594-154.121,221.367
							c-103.394,3.877-175-70.122-191.399-197.583c-11.162-86.763-77.48-124.351-138.576-123.403
							c-60.584,1.089-125.166,39.595-132.878,123.169c-4.558,49.399,42.129,117.769,91.555,190.151
							c87.82,128.613,197.119,288.682,113.271,462.241c-41.577,86.064-111.667,148.73-208.323,186.265
							C2598.747,3122.697,2525.208,3129.391,2473.979,3129.391z M2443.908,3090.641c61.682,3.389,306.577,3.13,404.751-200.088
							c74.307-153.818-23.847-297.563-110.447-424.385c-55.7-81.572-103.806-152.021-97.993-215.01
							c9.812-106.338,94.966-156.226,169.934-157.573c77.715-1.26,162.688,46.44,176.843,156.46
							c6.548,50.898,34.568,168.765,152.444,164.546c36.587-1.323,121.289-21.763,117.602-182.627
							c-6.106-266.24-213.743-386.089-416.812-386.763c-0.535,0-1.079,0-1.614,0c-185.708,0-376.279,106.045-382.29,309.395
							c-3.943,133.369,60.068,228.931,121.975,321.343c53.362,79.658,108.54,162.031,116.123,265.371
							c2.769,37.695-8.621,71.167-33.845,99.478c-62.239,69.849-193.208,88.228-243.052,92.783
							C2423.235,3000.544,2434.175,3072.526,2443.908,3090.641z"/>
					</g>
				</g>
			</g>
			<g>
				<g>
					<path style="fill:#FFC76C;" d="M2628.734,3161.662H1154.756c19.28-105.399,47.418-213.119,79.488-317.24
						c48.65-157.933,106.536-307.292,156.891-426.712c1.137-2.605,2.226-5.211,3.268-7.769c2.274-5.4,4.642-10.8,6.869-16.058
						c4.974-11.653,9.853-23.022,14.685-34.012c6.679-15.395,13.169-30.08,19.421-44.054c4.642-10.327,9.143-20.322,13.501-29.891
						c5.495-12.127,10.753-23.543,15.727-34.201c29.559-63.903,48.602-101.278,48.602-101.278h757.073c0,0,0.237,0.474,0.711,1.469
						c1.611,3.126,5.779,11.416,12.032,24.206c0,0,0,0,0,0.047c10.847,22.169,27.996,57.981,49.17,104.357
						c0.806,1.8,1.611,3.6,2.463,5.448c3.932,8.716,8.053,17.764,12.269,27.191c6.347,14.259,13.027,29.275,19.896,45.002
						c4.69,10.706,9.474,21.743,14.306,33.112c0.995,2.274,1.942,4.5,2.936,6.774c1.279,3.126,2.653,6.347,4.027,9.569
						c44.528,105.02,95.451,234.341,140.832,372.758c6.916,21.175,13.737,42.539,20.369,64.045
						C2581.364,2948.542,2609.454,3056.262,2628.734,3161.662z"/>
				</g>
			</g>
			<g>
				<g>
					<ellipse style="fill:#FFFFFF;" cx="1862.186" cy="2789.298" rx="311.285" ry="293.757"/>
				</g>
			</g>
			<g>
				<g>
					<path style="fill:#000072;" d="M2628.764,3162.072H1154.77c-5.623,0-10.957-2.5-14.556-6.821
						c-3.601-4.321-5.095-10.015-4.082-15.547c87.637-477.925,357.522-1011.074,360.239-1016.406
						c4.749-9.326,16.169-13.022,25.483-8.281c9.326,4.751,13.032,16.162,8.281,25.488
						c-2.649,5.195-261.748,517.119-352.502,983.667h1428.266c-90.754-466.548-349.854-978.472-352.502-983.667
						c-4.751-9.326-1.045-20.737,8.281-25.488c9.329-4.736,20.735-1.035,25.483,8.281c2.717,5.332,272.603,538.481,360.239,1016.406
						c1.013,5.532-0.481,11.226-4.082,15.547C2639.721,3159.572,2634.387,3162.072,2628.764,3162.072z"/>
				</g>
			</g>
			<g>
				<g>
					<path style="fill:#FFC76C;" d="M1423.38,3009.377c-63.206-179.084-334.781-226.489-405.888,64.523
						c-54.49,223.003,118.511,274.332,118.511,274.332h1452.363c0,0,173.001-51.329,118.511-274.332
						c-71.107-291.011-342.682-243.607-405.888-64.523"/>
				</g>
			</g>
			<g style="opacity:0.5;">
				<g>
					<path style="fill:#FFFFFF;" d="M1423.395,3009.366h0.473v37.659h-0.473c-63.24-179.06-334.815-226.478-405.918,64.519
						c-5.495,22.595-8.716,43.391-9.947,62.624c-2.038-28.754,0.615-62.008,9.947-100.283
						C1088.58,2782.888,1360.155,2830.306,1423.395,3009.366z"/>
				</g>
			</g>
			<g style="opacity:0.5;">
				<g>
					<path style="fill:#FFFFFF;" d="M2716.842,3174.167c-1.232-19.232-4.453-40.028-9.947-62.624
						c-66.342-271.561-307.318-248.404-390.583-98.553c-4.091,7.361-15.24,4.559-15.24-3.862l0,0
						c63.382-178.871,334.767-226.099,405.823,64.755C2716.227,3112.16,2718.88,3145.414,2716.842,3174.167z"/>
				</g>
			</g>
			<g>
				<g>
					<path style="fill:#000072;" d="M1414.446,3012.53c-59.279-113.82-193.763-175.73-298.677-80.989
						c-50.797,49.251-76.051,120.942-85.701,190.374c-12.274,88.737,23.357,172.658,108.991,207.29
						c0.002,0.002,2.333,0.86,2.335,0.862l-5.389-0.783c-2.479-0.178,1473.531,0.223,1449.317-0.078
						c30.385-12.178,57.786-33.219,77.077-59.576c41.966-56.742,40.133-134.645,21.445-200.467
						c-18.167-67.305-52.867-134.51-116.629-166.932c-99.226-50.389-213.012,15.802-257.288,110.302
						c-2.294,4.853-8.138,6.88-12.929,4.447c-4.023-2.041-5.97-6.554-4.94-10.755c9.447-38.545,30.644-75.198,60.841-102.885
						c101.244-92.738,249.68-70.183,323.695,44.936c33.427,51.413,51.289,108.886,59.303,168.686
						c11.583,82.851-14.902,170.693-85.839,220.5c-15.878,11.559-33.359,20.892-51.882,27.504c-2.733,0.903-6.449,2.321-9.58,2.221
						c0.11,0.08-1452.592-0.068-1452.59-0.004c-3.404,0.137-6.938-1.28-9.808-2.217c-18.521-6.614-35.999-15.948-51.894-27.488
						c-90.905-64.804-103.335-178.759-74.335-279.217c15.217-57.626,42.499-115.597,87.461-157.218
						c62.681-59.36,157.226-72.107,233.75-33.203c18.582,9.131,35.813,20.82,51.036,34.648
						c30.612,27.494,51.942,64.708,60.099,103.739C1434.544,3017.166,1419.418,3022.217,1414.446,3012.53L1414.446,3012.53z"/>
				</g>
			</g>
			<g>
				<g>
					<path style="fill:#FFC76C;" d="M2862.506,3146.456c-19.895,143.722-96.777,258.832-188.582,287.064
						c-9.331,2.89-18.521,5.211-27.521,7.011c-70.488,14.401-130.838-0.189-162.386-8.242
						c-62.718-16.011-107.673-27.096-173.234-34.391c-82.424-9.237-197.582-12.553-421.928-12.553
						c-224.298,0-339.456,3.316-421.88,12.553c-2.037,0.237-4.074,0.474-6.064,0.711c-2.038,0.189-4.027,0.427-6.016,0.711
						c-15.775,1.942-30.411,4.121-44.528,6.584c-1.753,0.284-3.506,0.568-5.211,0.9c-7.011,1.279-13.879,2.558-20.748,3.979
						c-1.706,0.332-3.412,0.663-5.116,1.042c-1.706,0.332-3.411,0.71-5.116,1.09c-11.937,2.558-23.828,5.305-36.143,8.29
						c-1.753,0.426-3.506,0.853-5.306,1.279c-12.412,3.032-25.249,6.3-38.986,9.806c-30.791,7.864-89.151,21.98-157.507,9.237
						c-1.089-0.237-2.179-0.427-3.316-0.663c-9.521-1.895-19.233-4.311-29.086-7.342c-30.127-9.285-58.644-27.901-84.083-53.765
						c-30.269-30.838-56.181-72.05-75.129-120.131c-3.08-7.674-5.921-15.537-8.574-23.59c-1.326-3.979-2.606-8.053-3.885-12.127
						c-2.463-8.195-4.784-16.532-6.868-25.011c-4.168-16.959-7.579-34.486-10.042-52.439c-3.79-27.475-5.211-61.771,1.279-93.083
						c0.9-4.453,1.989-8.811,3.268-13.074c0.615-2.132,1.279-4.311,1.989-6.395c1.421-4.169,3.032-8.29,4.879-12.222
						c1.847-3.979,3.837-7.816,6.063-11.464c2.226-3.695,4.69-7.2,7.343-10.563c2.084-2.605,4.215-4.974,6.347-7.105
						c26.386-27.144,54.666-23.164,54.666-23.164s0.332-0.663,0.947-1.895c0.332-0.568,0.711-1.326,1.184-2.179
						c1.659-2.937,4.264-7.295,7.722-12.269s7.863-10.516,13.027-15.869c0.71-0.758,1.468-1.516,2.274-2.274
						c8.479-8.242,18.996-15.774,31.264-19.422c50.923-15.111,81.336,8.432,90.573,17.337c0.285,0.284,0.569,0.521,0.805,0.806
						c0.474,0.473,0.9,0.9,1.232,1.231c0.284,0.332,0.522,0.616,0.711,0.806c0.141,0.189,0.236,0.284,0.236,0.284
						s34.486-26.385,76.931-17.527c1.325,0.284,2.604,0.568,3.884,0.9c0.9,0.189,1.801,0.426,2.7,0.71
						c0.284,0.047,0.522,0.142,0.805,0.237c1.326,0.332,2.606,0.71,3.885,1.137c1.469,0.474,2.938,0.995,4.358,1.516
						c0.19,0.094,0.379,0.142,0.569,0.237c0.71,0.237,1.421,0.521,2.131,0.853c3.173,1.232,6.301,2.7,9.332,4.263
						c1.611,0.853,3.222,1.705,4.784,2.653c1.564,0.9,3.126,1.847,4.642,2.842c0.379,0.237,0.711,0.474,1.042,0.663
						c1.279,0.853,2.558,1.753,3.79,2.653c3.08,2.226,6.111,4.595,9.047,7.153c0.616,0.474,1.184,0.995,1.753,1.516
						c1.184,1.042,2.321,2.131,3.458,3.221c2.558,2.51,5.116,5.116,7.532,7.863c0.71,0.758,1.373,1.516,2.036,2.321
						c2.037,2.321,4.027,4.784,5.921,7.295c1.279,1.658,2.511,3.316,3.742,5.069c2.226,3.126,4.405,6.395,6.489,9.758
						c1.421,2.274,2.795,4.547,4.122,6.916c1.232,2.179,2.463,4.406,3.695,6.679c0.19,0.284,0.331,0.616,0.473,0.9
						c2.463,4.784,4.879,9.758,7.2,14.874v0.047c2.321,5.305,4.548,10.801,6.68,16.438c1.042,2.842,2.084,5.732,3.079,8.668
						c0.995,2.89,1.942,5.827,2.89,8.764c0.046,0.048,0.046,0.095,0.046,0.142c3.507,11.322,6.633,23.259,9.333,35.717
						c0.047,0.189,0.095,0.426,0.141,0.663c0.332,1.421,0.616,2.843,0.901,4.263c0.283,1.374,0.52,2.748,0.805,4.121
						c2.89,14.685,5.164,30.08,6.869,46.139h1065.456c1.705-16.153,4.026-31.691,6.963-46.518
						c18.284-93.509,59.733-157.885,121.22-170.675c42.444-8.858,76.931,17.527,76.931,17.527s31.596-38.844,93.556-20.464
						c35.716,10.611,56.418,53.907,56.418,53.907s32.969-4.642,60.965,30.27C2868.617,3038.262,2868.712,3101.454,2862.506,3146.456
						z"/>
				</g>
			</g>
			<g>
				<g>
					<path style="fill:#FFFFFF;" d="M2862.506,3146.456c-19.895,143.722-96.777,258.832-188.582,287.064
						c-9.331,2.89-18.521,5.211-27.521,7.011c-70.488,14.401-130.838-0.189-162.386-8.242
						c-62.718-16.011-107.673-27.096-173.234-34.391c-82.424-9.237-197.582-12.553-421.928-12.553
						c-224.298,0-339.456,3.316-421.88,12.553c-2.037,0.237-4.074,0.474-6.064,0.711c-2.038,0.237-4.027,0.473-6.016,0.711
						c-15.775,1.942-30.411,4.121-44.528,6.584c-1.753,0.284-3.458,0.568-5.211,0.9c-7.011,1.279-13.879,2.558-20.748,3.979
						c-1.706,0.332-3.412,0.663-5.116,1.042c-1.706,0.379-3.411,0.71-5.116,1.09c-11.937,2.558-23.828,5.305-36.143,8.29
						c-1.753,0.426-3.506,0.853-5.306,1.279c-12.412,3.032-25.249,6.3-38.986,9.806c-30.791,7.864-89.151,21.98-157.507,9.237
						c0-0.047,0-0.047,0-0.047c-1.089-0.189-2.179-0.379-3.316-0.616c-9.521-1.895-19.233-4.311-29.086-7.342
						c-30.127-9.285-58.644-27.901-84.083-53.765c-30.269-30.885-56.133-72.05-75.129-120.131
						c-3.032-7.674-5.874-15.537-8.574-23.59c-1.326-3.979-2.606-8.053-3.885-12.127c-2.463-8.195-4.784-16.532-6.868-25.011
						c-4.168-16.959-7.579-34.486-10.042-52.439c-3.79-27.475-5.211-61.771,1.279-93.083c0.9-4.453,1.989-8.811,3.268-13.074
						c0.615-2.132,1.279-4.311,1.989-6.395c1.469-4.216,3.079-8.29,4.879-12.222c1.847-3.979,3.837-7.816,6.063-11.464
						c2.274-3.695,4.69-7.2,7.39-10.563c2.084-2.605,4.168-4.974,6.299-7.105c26.386-27.144,54.666-23.164,54.666-23.164
						s0.332-0.663,0.947-1.895c0.332-0.568,0.711-1.326,1.184-2.179c1.659-2.937,4.264-7.295,7.722-12.269
						c3.505-4.974,7.863-10.516,13.027-15.869c0.71-0.758,1.468-1.516,2.274-2.274c8.479-8.242,18.996-15.774,31.264-19.422
						c50.923-15.111,81.336,8.432,90.573,17.337c0.285,0.284,0.569,0.521,0.805,0.806c0.474,0.473,0.9,0.9,1.232,1.231
						c0.284,0.332,0.522,0.616,0.711,0.806c0.141,0.189,0.236,0.284,0.236,0.284s34.486-26.385,76.931-17.527
						c1.325,0.284,2.604,0.568,3.884,0.9c0.9,0.189,1.801,0.426,2.7,0.71c0.284,0.047,0.522,0.142,0.805,0.237
						c1.326,0.332,2.606,0.71,3.885,1.137c1.469,0.474,2.938,0.995,4.358,1.516c0.19,0.094,0.379,0.142,0.569,0.237
						c0.71,0.237,1.421,0.521,2.131,0.853c3.173,1.232,6.301,2.7,9.332,4.263c1.611,0.853,3.222,1.705,4.784,2.653
						c1.564,0.9,3.126,1.847,4.642,2.842c0.379,0.237,0.711,0.474,1.042,0.663c1.279,0.853,2.558,1.753,3.79,2.653
						c3.08,2.226,6.111,4.595,9.047,7.153c0.616,0.474,1.184,0.995,1.753,1.516c1.184,1.042,2.321,2.131,3.458,3.221
						c2.558,2.51,5.116,5.116,7.532,7.863c0.71,0.758,1.373,1.516,2.036,2.321c2.037,2.321,4.027,4.784,5.921,7.295
						c1.279,1.658,2.511,3.316,3.742,5.069c2.274,3.126,4.405,6.395,6.489,9.758c1.469,2.274,2.843,4.547,4.122,6.916
						c1.232,2.179,2.463,4.406,3.695,6.679c0.19,0.284,0.331,0.616,0.473,0.9c2.558,4.784,4.927,9.758,7.2,14.874v0.047
						c2.368,5.305,4.595,10.753,6.68,16.438c1.042,2.842,2.084,5.732,3.079,8.668c0.995,2.89,1.942,5.827,2.89,8.764
						c0.046,0.048,0.046,0.095,0.046,0.142c3.553,11.322,6.68,23.212,9.333,35.717c0.047,0.189,0.095,0.426,0.141,0.663
						c0.332,1.421,0.616,2.843,0.901,4.263c0.283,1.232,0.52,2.511,0.758,3.742c0,0.142,0,0.237,0.047,0.379
						c1.801,21.411,3.221,44.623,4.264,69.824c0.046,1.09,0.095,2.179,0.141,3.268c3.08,64.992,65.94,110.136,128.659,92.704
						c0.326-0.091,0.652-0.182,0.978-0.272c45.179-12.567,68.428-62.433,48.471-104.868
						c-22.62-48.096-35.026-101.949-34.462-158.777c1.939-195.326,160.19-356.146,355.463-361.063
						c205.814-5.182,374.307,160.133,374.307,364.775c0,50.948-10.424,99.431-29.268,143.455
						c-18.532,43.295,5.999,92.863,51.855,103.594c15.679,3.669,31.083,7.57,46.196,11.689
						c62.671,17.101,125.484-28.043,128.327-92.941c0-0.521,0.046-1.042,0.046-1.563c1.043-25.343,2.463-48.697,4.312-70.203
						c18.284-93.509,59.733-157.885,121.22-170.675c42.444-8.858,76.931,17.527,76.931,17.527s31.596-38.844,93.556-20.464
						c35.716,10.611,56.418,53.907,56.418,53.907s32.969-4.642,60.965,30.27C2868.617,3038.262,2868.712,3101.454,2862.506,3146.456
						z"/>
				</g>
			</g>
			<g style="opacity:0.3;">
				<g>
					<path style="fill:#000072;" d="M2862.5,3146.483c-19.859,143.695-96.748,258.784-188.576,287.085
						c-82.051,25.204-154.323,7.834-189.913-1.275c-141.629-36.197-192.417-46.947-595.138-46.947
						c-402.722,0-453.509,10.75-595.138,46.947c-35.59,9.11-107.923,26.479-189.912,1.275
						c-91.828-28.302-168.717-143.391-188.576-287.085c-3.34-24.354-4.859-54.052-0.607-82.232c0.182,1.7,0.364,3.401,0.607,5.041
						c19.859,143.694,96.748,258.844,188.576,287.085c81.99,25.265,154.323,7.835,189.912-1.275
						c141.629-36.197,192.417-67.638,595.138-67.638c402.721,0,453.508,31.441,595.138,67.638
						c35.59,9.11,107.862,26.54,189.913,1.275c91.828-28.241,168.717-143.391,188.576-287.085c0.243-1.64,0.425-3.341,0.608-5.041
						C2867.36,3092.431,2865.841,3122.129,2862.5,3146.483z"/>
				</g>
			</g>
			<g>
				<g>
					<path style="fill:#000072;" d="M2412.179,3134.608c-0.053-81.501,23.06-178.973,100.19-222.587
						c20.732-11.076,45.276-16.871,68.667-13.704c19.639,2.431,37.791,9.433,54.187,20.133c-0.098-0.013,1.86,1.125-1.028-0.577
						c-5.9-3.218-13.916-2.298-18.901,2.168c25.902-27.281,74.894-36.668,115.531-21.409c28.036,10.593,48.526,34.719,62.359,60.122
						c-2.559-5.498-10.593-9.785-16.01-9.033c38.499-1.348,70.183,23.774,87.286,54.869c35.799,69.158,19.929,154.828-0.048,226.242
						c-26.604,84.167-74.29,168.849-156.426,210.792c-52.985,25.373-114.482,29.457-172.029,22.032
						c-59.507-9.05-116.415-29.185-175.086-38.207c-154.636-23.484-315.162-17.876-472.006-19.858
						c-156.878,1.72-317.385-3.988-472.098,19.314c-58.68,8.962-115.594,29.026-175.093,38.024
						c-52.193,6.894-106.859,3.529-156.422-15.395c-104.193-43.204-160.3-157.743-182.629-261.873
						c-13.436-65.742-20.165-147.576,26.381-202.487c16.495-19.28,43.357-34.341,71.526-33c0.153-0.078-3.926-0.024-5.556,0.659
						c-4.343,1.266-7.96,4.27-10.029,8.135c15.018-27.846,38.826-54.676,70.893-62.697c36.35-10.466,79.129-3.61,106.898,24.42
						c-0.248-0.22,1.851,1.802-0.491-0.428c-1.555-1.349-3.454-2.463-5.546-3.164c-4.159-1.454-9.183-1.051-13.032,1.022
						c-2.843,1.674-0.912,0.547-1.006,0.556l0.962-0.646c35.913-23.482,79.313-27.74,118.218-8.697
						c79.483,41.3,101.469,143.391,103.713,225.272c0.46,11.63-16.762,13.508-18.842,2.014c-7.907-38.374-17.901-76-33.254-110.278
						c-26.125-60.791-84.839-117.193-149.046-76.579c0-0.001-0.587,0.384-0.587,0.384c-0.615,0.345,0.816-0.411-2.57,1.562
						c-4.945,2.654-11.305,3.173-16.639,1.309c-3.98-1.258-7.057-3.777-9.833-6.672c-19.125-18.198-49.808-20.551-74.503-11.663
						c-16.718,6.469-29.055,21.443-38.505,36.682c-3.463,6.799-7.922,14.097-16.035,16.112c-2.225,0.869-6.933,0.949-7.398,0.829
						c-7.781-0.228-15.543,1.958-22.932,5.892c-56.963,34.046-46.773,127.163-34.993,183.525
						c19.241,88.785,63.943,184.722,147.02,228.014c64.151,29.693,137.895,24.746,204.98,6.527
						c193.887-55.262,397.57-44.291,596.447-47.124c198.892,2.511,402.649-8.572,596.613,46.472
						c63.097,17.253,130.649,21.886,192.432-1.354c89.738-37.512,139.063-141.581,158.731-232.675
						c8.7-40.295,13.368-84.025,4.29-124.186c-6.721-31.406-27.785-64.042-61.517-64.637c-0.469,0.123-5.282,0.041-7.553-0.846
						c-5.651-1.649-10.405-5.576-13.111-10.644c-1.161-2.235-2.042-3.74-3.178-5.674c-9.824-15.904-22.807-31.459-40.633-37.418
						c-23.306-7.444-51.319-5.396-69.811,10.63c-0.895,0.786-2.017,1.733-2.839,2.6c-6.348,7.059-17.572,9.146-25.944,4.55
						c-18.475-12.442-41.283-19.508-63.225-14.712c-79.238,18.854-104.593,130.047-122.101,199.375
						C2428.242,3147.632,2412.432,3145.695,2412.179,3134.608L2412.179,3134.608z"/>
				</g>
			</g>
			<g>
				<g>
					
						<ellipse transform="matrix(0.9985 -0.0554 0.0554 0.9985 -176.5439 67.6336)" style="fill:#FFA1A8;" cx="1132.218" cy="3219.66" rx="91.79" ry="105.669"/>
				</g>
			</g>
			<g>
				<g>
					
						<ellipse transform="matrix(0.9898 -0.1427 0.1427 0.9898 -434.6224 175.3089)" style="fill:#FFA1A8;" cx="1005.243" cy="3118.586" rx="35.013" ry="40.855"/>
				</g>
			</g>
			<g>
				<g>
					
						<ellipse transform="matrix(0.9898 -0.1427 0.1427 0.9898 -422.935 187.6341)" style="fill:#FFA1A8;" cx="1097.071" cy="3043.316" rx="35.013" ry="40.855"/>
				</g>
			</g>
			<g>
				<g>
					
						<ellipse transform="matrix(0.9898 -0.1427 0.1427 0.9898 -424.2547 204.0887)" style="fill:#FFA1A8;" cx="1211.164" cy="3060.747" rx="35.013" ry="40.855"/>
				</g>
			</g>
			<g>
				<g>
					
						<ellipse transform="matrix(0.0554 -0.9985 0.9985 0.0554 -719.929 5678.3589)" style="fill:#FFA1A8;" cx="2641.032" cy="3219.66" rx="105.669" ry="91.79"/>
				</g>
			</g>
			<g>
				<g>
					
						<ellipse transform="matrix(0.1427 -0.9898 0.9898 0.1427 -713.5707 5413.375)" style="fill:#FFA1A8;" cx="2768.007" cy="3118.586" rx="40.855" ry="35.013"/>
				</g>
			</g>
			<g>
				<g>
					
						<ellipse transform="matrix(0.1427 -0.9898 0.9898 0.1427 -717.7906 5257.9668)" style="fill:#FFA1A8;" cx="2676.18" cy="3043.316" rx="40.855" ry="35.013"/>
				</g>
			</g>
			<g>
				<g>
					
						<ellipse transform="matrix(0.1427 -0.9898 0.9898 0.1427 -832.8599 5159.9849)" style="fill:#FFA1A8;" cx="2562.086" cy="3060.747" rx="40.855" ry="35.013"/>
				</g>
			</g>
			<g style="opacity:0.3;">
				<g>
					<g>
						<path style="fill:#6B184E;" d="M1097.692,2055.795c0.188,0.375,0.422,0.704,0.609,1.078l-0.796-1.312
							C1097.598,2055.655,1097.645,2055.701,1097.692,2055.795z"/>
					</g>
				</g>
				<g>
					<g>
						<path style="fill:#6B184E;" d="M1098.3,2056.873l23.101,37.066C1113.436,2081.942,1105.657,2069.665,1098.3,2056.873z"/>
					</g>
				</g>
			</g>
			<g style="opacity:0.3;">
				<g>
					<g>
						<path style="fill:#6B184E;" d="M1097.652,2043.868c0.141,0.154,0.282,0.307,0.375,0.41c0.188,0.256,0.375,0.512,0.562,0.768
							L1097.652,2043.868z"/>
					</g>
				</g>
				<g>
					<g>
						<path style="fill:#6B184E;" d="M1120.988,2072.499c-7.731-8.861-15.229-17.978-22.399-27.453L1120.988,2072.499z"/>
					</g>
				</g>
				<g>
					<g>
						<path style="fill:#6B184E;" d="M2657.824,2072.499l22.352-27.299C2673.053,2054.624,2665.604,2063.689,2657.824,2072.499z"/>
					</g>
				</g>
			</g>
			<g>
				<g>
					<path style="fill:#FFFFFF;" d="M1121.421,2082.027c-7.77-8.928-15.346-18.145-22.633-27.652L1121.421,2082.027z"/>
				</g>
			</g>
			<g>
				<g>
					<path style="fill:#FFFFFF;" d="M2656.328,2082.027l22.537-27.604C2671.675,2063.93,2664.098,2073.099,2656.328,2082.027z"/>
				</g>
			</g>
			<g style="opacity:0.25;">
				<g>
					<path style="fill:#6B184E;" d="M2679.288,2033.135c-0.145,0.289-0.29,0.579-0.435,0.869c0.145-0.241,0.242-0.531,0.338-0.772
						C2679.24,2033.183,2679.288,2033.183,2679.288,2033.135z"/>
				</g>
			</g>
			<g style="opacity:0.3;">
				<g>
					<path style="fill:#000072;" d="M2366.823,2358.165c-311.365,103.031-640.163,103.315-950.866,1.705
						c6.679-15.395,13.169-30.08,19.421-44.054c4.642-10.327,9.143-20.322,13.501-29.891c5.495-12.127,10.753-23.543,15.727-34.201
						c29.559-63.903,48.602-101.278,48.602-101.278h757.073c0,0,0.237,0.474,0.711,1.469c1.611,3.126,5.779,11.416,12.032,24.206
						c0,0,0,0,0,0.047c10.847,22.169,27.996,57.981,49.17,104.357c0.806,1.8,1.611,3.6,2.463,5.448
						c3.932,8.716,8.053,17.764,12.269,27.191C2353.274,2327.422,2359.955,2342.438,2366.823,2358.165z"/>
				</g>
			</g>
			<g>
				<g>
					<path style="fill:#FFC76C;" d="M2867.433,1893.509c-4.31,37.802-81.429,1.99-98.246-6.253c-1.327-0.663-2.795,0.71-2.416,2.368
						c0.995,4.074,2.985,11.369,6.916,22.027c2.368,6.348,5.353,13.832,9.284,22.596c13.075,28.943,23.685,51.397,17.764,66.603
						c-6.3,16.106-32.496,22.359-65.181,18.664c-12.649-1.421-25.959,5.779-38.75,16.769c-5.637,4.879-11.226,10.516-16.58,16.438
						l-0.048,0.047l-0.188,0.142l-1.138,1.516c0.284-0.426,0.616-0.853,0.901-1.279c-4.595,5.116-9.048,10.469-13.311,15.774
						c-3.6,4.548-7.105,9-10.326,13.311c-1.374,1.611-2.795,3.174-4.312,4.737c-28.138,31.596-59.828,59.734-94.219,84.746
						c-46.565,32.733-97.915,58.55-152.059,78.777v-0.379c0,0-74.276,27.38-184.128,52.534c0,0-98.152,20.985-187.872,32.591
						c0,0-68.64,8.147-144.148,8.147c-75.413,0-145.237-8.147-145.237-8.147c-89.673-11.606-187.872-32.591-187.872-32.591
						c-109.804-25.154-184.128-52.534-184.128-52.534v0.379c-54.144-20.227-105.494-46.044-152.059-78.777
						c-33.017-24.017-63.476-50.923-90.904-81.051c-2.606-2.795-5.116-5.59-7.58-8.432c-3.79-5.021-7.863-10.232-12.126-15.49
						c-3.79-4.69-7.722-9.332-11.748-13.832c0.331,0.474,0.71,0.995,1.042,1.469l-1.279-1.658c0.047,0.047,0.142,0.095,0.188,0.142
						c-4.547-5.021-9.284-9.853-14.068-14.164c-13.596-12.316-27.902-20.748-41.449-19.185
						c-32.639,3.695-58.882-2.558-65.183-18.664c-5.921-15.206,4.737-37.66,17.718-66.603c2.652-5.969,4.926-11.369,6.869-16.201
						c5.637-14.164,8.242-23.591,9.379-28.422c0.332-1.658-1.042-3.032-2.416-2.368c-16.769,8.242-93.889,44.054-98.246,6.253
						c-0.758-6.49,1.942-17.006,6.442-30.412c9.996-29.843,28.754-73.898,36.902-118.71c5.543-30.269,10.421-56.655,14.733-79.582
						c6.016-31.738,10.894-56.844,14.826-76.645c10.896-54.76,14.685-68.829,14.685-68.829c0.237-1.279,33.49-136,83.183-235.194
						c-49.644-132.353-82.188-518.28,0.947-598.856c66.697-64.708,317.476,71.103,411.601,166.081
						c27.333-11.416,57.556-20.985,88.819-28.991c39.792-10.137,81.193-17.764,120.322-23.448
						c48.081-7.011,92.703-11.037,126.573-13.311c29.607-1.942,51.065-2.558,59.544-2.558c8.385,0,29.606,0.568,58.93,2.511
						c9.332,0.663,19.563,1.421,30.411,2.321c28.565,2.416,61.771,5.969,96.777,11.085c39.128,5.637,80.53,13.264,120.322,23.448
						c31.264,7.958,61.487,17.527,88.82,28.944c94.077-94.978,344.903-230.789,411.648-166.081
						c83.088,80.577,50.545,466.503,0.9,598.856c31.407,62.671,56.277,139.553,70.298,187.966
						c8.195,28.233,12.79,46.755,12.885,47.229c0,0,3.79,14.164,14.733,69.255c3.883,19.374,8.62,43.912,14.447,74.655
						c4.359,23.259,9.379,50.165,15.017,81.146c7.91,43.297,25.674,85.93,35.906,115.726v0.047
						C2865.017,1874.94,2868.238,1886.546,2867.433,1893.509z"/>
				</g>
			</g>
			<g style="opacity:0.5;">
				<g>
					<path style="fill:#FFFFFF;" d="M2746.401,950.459c-1.989-96.872-16.627-180.955-50.639-213.925
						c-66.745-64.708-317.571,71.103-411.648,166.081c-27.333-11.416-57.556-20.985-88.82-28.943
						c-39.792-10.185-81.193-17.811-120.322-23.448c-35.006-5.116-68.213-8.669-96.777-11.085c-10.848-0.9-21.08-1.658-30.411-2.321
						c-29.323-1.942-50.545-2.511-58.93-2.511c-8.478,0-29.937,0.616-59.544,2.558c-33.87,2.274-78.493,6.3-126.573,13.311
						c-39.128,5.684-80.53,13.311-120.322,23.448c-31.264,8.006-61.487,17.575-88.819,28.991
						c-94.124-94.978-344.904-230.789-411.601-166.081c-34.012,32.97-48.697,117.005-50.686,213.972
						c-2.464-117.526,10.799-226.573,50.686-265.227c66.697-64.708,317.476,71.103,411.601,166.081
						c27.333-11.416,57.556-20.985,88.819-28.991c39.792-10.137,81.193-17.764,120.322-23.448
						c48.081-7.011,92.703-11.037,126.573-13.311c29.607-1.942,51.065-2.558,59.544-2.558c8.385,0,29.606,0.568,58.93,2.511
						c9.332,0.663,19.563,1.421,30.411,2.321c28.565,2.416,61.771,5.969,96.777,11.085c39.128,5.637,80.53,13.264,120.322,23.448
						c31.264,7.958,61.487,17.527,88.82,28.944c94.077-94.978,344.903-230.789,411.648-166.081
						C2735.649,723.934,2748.865,832.934,2746.401,950.459z"/>
				</g>
			</g>
			<g>
				<g>
					<g>
						<path style="fill:#FFFFFF;" d="M1001.561,1918.047c5.637-14.164,8.242-23.591,9.379-28.422
							c0.332-1.658-1.042-3.032-2.416-2.368c-16.769,8.242-93.889,44.054-98.246,6.253c-0.758-6.49,1.942-17.006,6.442-30.412
							c75.13-32.875,176.266-68.355,287.87-83.798C1204.59,1779.299,1104.875,1837.943,1001.561,1918.047z"/>
					</g>
				</g>
				<g>
					<g>
						<path style="fill:#FFFFFF;" d="M1248.977,1932.068c-1.896,2.227-58.598,69.398-119.8,158.596
							c-2.606-2.795-5.116-5.59-7.58-8.432c-3.79-5.021-7.863-10.232-12.126-15.49c-3.79-4.69-7.722-9.332-11.748-13.832
							c0.331,0.474,0.71,0.995,1.042,1.469l-1.279-1.658c0.047,0.047,0.142,0.095,0.188,0.142
							c-4.547-5.021-9.284-9.853-14.068-14.164C1131.261,2001.419,1186.968,1963.759,1248.977,1932.068z"/>
					</g>
				</g>
				<g>
					<g>
						<path style="fill:#FFFFFF;" d="M1190.758,1621.84c0,0-103.598,13.264-222.404,42.965
							c6.016-31.738,10.894-56.844,14.826-76.645C1047.083,1592.281,1118.519,1602.087,1190.758,1621.84z"/>
					</g>
				</g>
				<g>
					<g>
						<path style="fill:#FFFFFF;" d="M2867.433,1893.509c-4.31,37.802-81.429,1.99-98.246-6.253
							c-1.327-0.663-2.795,0.71-2.416,2.368c0.995,4.074,2.985,11.369,6.916,22.027
							c-100.283-76.835-194.739-132.353-194.739-132.353c108.24,14.969,206.629,48.839,281,80.814v0.047
							C2865.017,1874.94,2868.238,1886.546,2867.433,1893.509z"/>
					</g>
				</g>
				<g>
					<g>
						<path style="fill:#FFFFFF;" d="M2696.805,2036.283c-5.637,4.879-11.226,10.516-16.58,16.438l-0.048,0.047l-0.188,0.142
							l-1.138,1.516c0.284-0.426,0.616-0.853,0.901-1.279c-4.595,5.116-9.048,10.469-13.311,15.774
							c-3.6,4.548-7.105,9-10.326,13.311c-1.374,1.611-2.795,3.174-4.312,4.737c-60.208-87.398-115.394-152.722-117.242-154.901
							C2595.243,1963.049,2649.814,1999.761,2696.805,2036.283z"/>
					</g>
				</g>
				<g>
					<g>
						<path style="fill:#FFFFFF;" d="M2809.025,1663.241c-116.246-28.564-216.246-41.402-216.246-41.402
							c70.061-19.185,139.411-28.943,201.799-33.254C2798.461,1607.96,2803.198,1632.498,2809.025,1663.241z"/>
					</g>
				</g>
			</g>
			<g style="opacity:0.3;">
				<g>
					<path style="fill:#000072;" d="M2782.971,1934.248c13.075,28.943,23.685,51.397,17.764,66.603
						c-6.3,16.106-32.496,22.359-65.181,18.664c-12.649-1.421-25.959,5.779-38.75,16.769c-5.637,4.879-11.226,10.516-16.58,16.438
						l-0.048,0.047l-0.188,0.142l-1.138,1.516c0.284-0.426,0.616-0.853,0.901-1.279c-4.595,5.116-9.048,10.469-13.311,15.774
						c-3.6,4.548-7.105,9-10.326,13.311c-1.374,1.611-2.795,3.174-4.312,4.737c-28.138,31.596-59.828,59.734-94.219,84.746
						c-46.565,32.733-97.915,58.55-152.059,78.777v-0.379c0,0-74.276,27.38-184.128,52.534c0,0-98.152,20.985-187.872,32.591
						c0,0-68.64,8.147-144.148,8.147c-75.413,0-145.237-8.147-145.237-8.147c-89.673-11.606-187.872-32.591-187.872-32.591
						c-109.804-25.154-184.128-52.534-184.128-52.534v0.379c-54.144-20.227-105.494-46.044-152.059-78.777
						c-33.017-24.017-63.476-50.923-90.904-81.051c-2.606-2.795-5.116-5.59-7.58-8.432c-3.79-5.021-7.863-10.232-12.126-15.49
						c-3.79-4.69-7.722-9.332-11.748-13.832c0.331,0.474,0.71,0.995,1.042,1.469l-1.279-1.658c0.047,0.047,0.142,0.095,0.188,0.142
						c-4.547-5.021-9.284-9.853-14.068-14.164c-13.596-12.316-27.902-20.748-41.449-19.185
						c-32.639,3.695-58.882-2.558-65.183-18.664c-5.921-15.206,4.737-37.66,17.718-66.603c2.652-5.969,4.926-11.369,6.869-16.201
						c0.473-1.137,0.9-2.227,1.327-3.316c10.894,2.464,24.395,2.795,39.27,1.137c13.547-1.563,27.853,6.869,41.449,19.185
						c4.783,4.311,9.52,9.142,14.068,14.164c-0.046-0.047-0.141-0.095-0.188-0.142l1.279,1.658
						c-0.332-0.474-0.711-0.995-1.042-1.469c4.026,4.5,7.958,9.142,11.748,13.832c4.263,5.258,8.336,10.469,12.126,15.49
						c2.463,2.842,4.974,5.637,7.58,8.432c27.428,30.127,57.887,57.034,90.904,81.051c46.565,32.733,97.915,58.55,152.059,78.777
						v-0.379c0,0,74.324,27.38,184.128,52.534c0,0,98.199,20.985,187.872,32.591c0,0,69.824,8.148,145.237,8.148
						c75.508,0,144.148-8.148,144.148-8.148c89.719-11.606,187.872-32.591,187.872-32.591
						c109.852-25.154,184.128-52.534,184.128-52.534v0.379c54.144-20.227,105.494-46.044,152.059-78.777
						c34.391-25.011,66.082-53.149,94.219-84.746c1.516-1.563,2.938-3.126,4.312-4.737c3.221-4.311,6.726-8.763,10.326-13.311
						c4.263-5.305,8.717-10.658,13.311-15.774c-0.284,0.426-0.616,0.853-0.901,1.279l1.138-1.516l0.188-0.142l0.048-0.047
						c5.353-5.921,10.943-11.558,16.58-16.437c12.791-10.99,26.101-18.19,38.75-16.769c14.874,1.658,28.374,1.327,39.269-1.137
						C2777.003,1920.368,2779.656,1926.858,2782.971,1934.248z"/>
				</g>
			</g>
			<g>
				<g>
					<path style="fill:#FFFFFF;" d="M1878.38,1097.661c-15.447-89.727-43.51-255.251-48.366-301.256
						c-0.621-5.878,3.792-11.095,9.693-11.444c24.221-1.434,41.698-1.909,49.149-1.909c7.359,0,24.606,0.438,48.539,1.858
						c5.899,0.35,10.309,5.566,9.689,11.443c-4.851,46.003-32.895,211.565-48.33,301.306
						C1896.784,1109.112,1880.352,1109.113,1878.38,1097.661z"/>
				</g>
			</g>
			<g>
				<g>
					<path style="fill:#FFFFFF;" d="M2189.601,834.448l-97.069,205.101c-4.743,10.021-19.792,6.569-19.692-4.518l2.021-223.624
						c0.058-6.468,5.972-11.296,12.321-10.059l95.049,18.523C2188.854,821.162,2192.488,828.348,2189.601,834.448z"/>
				</g>
			</g>
			<g>
				<g>
					<path style="fill:#FFFFFF;" d="M1685.178,1039.541l-97.069-205.14c-2.886-6.1,0.747-13.285,7.371-14.576l95.049-18.523
						c6.349-1.237,12.263,3.591,12.321,10.059l2.02,223.664C1704.97,1046.111,1689.921,1049.563,1685.178,1039.541z"/>
				</g>
			</g>
			<g style="opacity:0.3;">
				<g>
					<g>
						<path style="fill:#6B184E;" d="M1098.953,2054.54l22.459,27.462C1113.648,2073.143,1106.144,2064.024,1098.953,2054.54z"/>
					</g>
				</g>
				<g>
					<g>
						<path style="fill:#6B184E;" d="M2656.334,2082.001l22.459-27.462C2671.602,2064.024,2664.047,2073.143,2656.334,2082.001z"/>
					</g>
				</g>
			</g>
			<g style="opacity:0.3;">
				<g>
					<g>
						<path style="fill:#6B184E;" d="M1097.703,1964.6c0.417,0.573,0.834,1.147,1.251,1.667l-1.459-1.824
							C1097.546,1964.496,1097.651,1964.548,1097.703,1964.6z"/>
					</g>
				</g>
				<g>
					<g>
						<path style="fill:#6B184E;" d="M2680.044,1964.6c0.052-0.052,0.156-0.104,0.209-0.156l-1.459,1.824
							C2679.21,1965.746,2679.627,1965.173,2680.044,1964.6z"/>
					</g>
				</g>
			</g>
			<g>
				<g>
					<path style="fill:#FFA1A8;" d="M1267.573,1021.691c-65.814,66.804-107.188,160.183-113.076,149.292
						c-0.573-1.042-1.146-2.293-1.72-3.752c-12.558-30.536-33.454-151.637-33.402-259.555c0.052-17.404,0.521-32.777,1.459-46.325
						c2.501-36.581,7.973-60.03,14.695-75.037c8.337-18.342,27.097-23.97,43.719-17.821
						c44.188,16.414,169.719,94.578,210.624,144.707C1397.168,922.11,1333.439,954.887,1267.573,1021.691z"/>
				</g>
			</g>
			<g>
				<g>
					<path style="fill:#FF8392;" d="M1267.573,1021.691c-65.814,66.804-107.188,160.183-113.076,149.292
						c-0.573-1.042-1.146-2.293-1.72-3.752c14.643-56.642,55.027-134.91,85.98-191.501c42.313-77.278-16.05-138.662-66.647-157.004
						c-17.352-6.305-37.935,20.739-51.275,42.625c2.501-36.581,7.973-60.03,14.695-75.037c8.337-18.342,27.097-23.97,43.719-17.821
						c44.188,16.414,169.719,94.578,210.624,144.707C1397.168,922.11,1333.439,954.887,1267.573,1021.691z"/>
				</g>
			</g>
			<g>
				<g>
					<path style="fill:#000072;" d="M1156.059,1190.802c-0.325,0-0.649-0.005-0.979-0.015c-7.283-0.244-13.738-4.282-17.263-10.806
						c-14.817-27.412-37.456-160.308-37.371-272.305l0,0c0.046-60.337,5.876-102.573,17.82-129.126
						c11.897-26.235,40.313-37.896,67.556-27.803c45.288,16.792,175.127,97.026,218.752,150.454
						c3.723,4.561,5.388,10.317,4.685,16.206c-1.548,12.998-12.512,21.318-39.002,41.416c-23.608,17.915-55.94,42.451-89.167,76.172
						c-36.55,37.095-65.635,83.286-84.883,113.852C1176.164,1180.685,1169.792,1190.802,1156.059,1190.802z M1171.155,1161.964
						h0.051H1171.155z M1138.342,907.707c-0.063,84.614,13.167,176.548,23.858,224.033c0.652-1.035,1.299-2.065,1.941-3.081
						c20.117-31.953,50.522-80.239,89.958-120.264c35.139-35.664,70.112-62.197,93.252-79.761
						c6.316-4.79,13.108-9.941,18.257-14.111c-46.416-47.358-155.891-114.497-192.957-128.237c-6.729-2.5-15.488-1.748-19.849,7.866
						C1143.259,815.368,1138.386,853.595,1138.342,907.707L1138.342,907.707z"/>
				</g>
			</g>
			<g>
				<g>
					<path style="fill:#FFA1A8;" d="M2504.992,1021.691c65.814,66.804,107.188,160.183,113.076,149.292
						c0.573-1.042,1.146-2.293,1.72-3.752c12.558-30.536,33.454-151.637,33.402-259.555c-0.052-17.404-0.521-32.777-1.459-46.325
						c-2.501-36.581-7.973-60.03-14.695-75.037c-8.337-18.342-27.097-23.97-43.719-17.821
						c-44.188,16.414-169.719,94.578-210.625,144.707C2375.397,922.11,2439.126,954.887,2504.992,1021.691z"/>
				</g>
			</g>
			<g>
				<g>
					<path style="fill:#FF8392;" d="M2504.992,1021.691c65.814,66.804,107.188,160.183,113.076,149.292
						c0.573-1.042,1.146-2.293,1.72-3.752c-14.643-56.642-55.027-134.91-85.98-191.501c-42.313-77.278,16.05-138.662,66.647-157.004
						c17.352-6.305,37.935,20.739,51.275,42.625c-2.501-36.581-7.973-60.03-14.695-75.037c-8.337-18.342-27.097-23.97-43.719-17.821
						c-44.188,16.414-169.719,94.578-210.625,144.707C2375.397,922.11,2439.126,954.887,2504.992,1021.691z"/>
				</g>
			</g>
			<g>
				<g>
					<path style="fill:#000072;" d="M2616.509,1190.802c-13.74,0-20.107-10.117-40.156-41.958
						c-19.246-30.566-48.327-76.758-84.878-113.848c-33.228-33.721-65.559-58.257-89.168-76.167
						c-26.489-20.103-37.453-28.423-39.001-41.421c-0.703-5.889,0.962-11.645,4.685-16.206
						c43.628-53.428,173.467-133.667,218.75-150.454c27.266-10.098,55.659,1.567,67.532,27.749
						c11.97,26.602,17.798,68.838,17.847,129.18l0,0c0.085,111.997-22.554,244.893-37.373,272.305
						c-3.525,6.523-9.98,10.562-17.263,10.806C2617.156,1190.797,2616.829,1190.802,2616.509,1190.802z M2406.958,914.523
						c5.149,4.17,11.943,9.326,18.257,14.116c23.142,17.559,58.113,44.097,93.252,79.756c39.436,40.024,69.839,88.31,89.956,120.259
						c0.642,1.021,1.292,2.051,1.944,3.086c10.691-47.485,23.921-139.419,23.857-224.033l0,0
						c-0.044-54.116-4.917-92.339-14.487-113.608c-4.331-9.556-13.086-10.313-19.824-7.813
						C2562.851,800.021,2453.376,867.16,2406.958,914.523z"/>
				</g>
			</g>
			<g>
				<g>
					<g>
						<path style="fill:#000072;" d="M1742.944,2344.643c-128.598-8.836-255.564-33.724-377.336-76.721
							c0,0,25.574-17.825,25.574-17.825l0,0.375l0.028,27.359c-57.644-20.569-114.388-45.345-165.847-79.412
							c-43.593-28.713-83.055-63.747-117.67-102.785c0,0-0.41-0.461-0.41-0.461l-0.205-0.231c1.477,1.428,2.879,2.92,4.74,3.818
							c0,0-4.942-4.049-4.942-4.049l-24.636-30.175l0.882,1.086l-0.185-0.159l29.552-24.977l24.138,29.474l-30.429,24.026
							c-14.415-18.269-28.06-36.705-46.431-49.344c-5.746-3.864-10.687-5.834-14.63-5.693c-2.835-0.069-5.71,0.549-8.566,0.649
							c-32.526,3.305-80.923-6.462-80.837-47.895c-0.18-15.767,6.153-30.508,11.38-43.547c8.623-20.422,18.509-39.583,24.11-60.831
							c0,0,0.317-1.254,0.317-1.254l0.147-0.611l0.074-0.306l-0.218,1.072c-2.307,13.718,12.758,25.363,25.686,18.697
							c-0.001,0.001-0.746,0.365-0.746,0.365l-1.49,0.726l-2.974,1.419c-35.909,16.287-109.491,47.53-121.396-11.44
							c-1.487-17.587,5.042-30.454,9.299-44.955c12.228-34.901,25.636-68.251,32.837-104.041
							c8.542-44.496,16.353-89.742,25.119-134.18c7.183-36.174,15.842-82.565,24.356-113.825
							c20.979-76.849,45.328-151.988,80.549-224.03c0,0-0.864,16.346-0.864,16.346c-48.21-133.501-81.947-475.971-12.082-598.542
							c4.728-8.023,10.928-15.695,17.568-22.705c0,0,2.302-1.943,2.302-1.943l4.687-3.802c40.178-28.189,94.64-15.791,137.14-3.807
							c104.532,33.282,218.058,99.685,297.378,175.719c-0.001,0.002-23.623-4.719-23.623-4.719
							c32.481-13.372,65.652-23.37,98.998-31.767c66.49-16.524,134.059-26.106,202.019-32.625
							c34.439-2.984,67.625-5.544,102.562-6.029c34.936,0.38,68.132,2.988,102.568,5.966
							c102.336,10.196,204.807,25.714,301.056,64.347c0,0.001-23.75,4.747-23.75,4.747c33.592-33.213,70.872-60.31,110.104-85.657
							c72.604-45.904,245.778-142.12,324.613-86.334c53.703,42.151,60.712,156.105,63.57,219.084
							c2.838,91.655-4.118,182.662-18.409,273.097c-7.659,45.924-16.482,90.681-32.518,135.078c0,0-0.877-16.591-0.877-16.591
							c35.249,72.06,59.619,147.21,80.611,224.078c3.941,14.655,6.185,24.484,9.599,40.351
							c13.147,63.977,26.111,131.725,37.646,195.876c4.038,23.576,10.603,46.087,18.457,69.015
							c5.222,15.359,11.029,30.599,16.661,46.759c7.375,20.214,17.497,49.802-1.706,68.287
							c-28.868,26.658-84.075,0.661-113.94-12.783c0-0.001-1.492-0.728-1.492-0.728l-0.746-0.365
							c2.165,1.102,5.29,1.974,8.489,1.893c5.939-0.008,11.298-3.116,14.542-7.462c3.789-4.152,3.792-11.087,3.128-14.388
							c0,0,0.145,0.608,0.145,0.608l0.316,1.249l1.471,5.201c13.142,46.905,70.928,119.307-3.157,143.901
							c-17.99,5.177-34.229,4.739-51.897,3.046c-0.608,0.111-1.162,0.021-1.782-0.013c-3.022,0.223-8.102,2.164-13.339,5.69
							c-18.365,12.589-31.922,30.988-46.305,49.243c0,0-31.196-24.631-31.196-24.631l24.134-29.479l30.308,25.617
							c-0.646,0.609,0.776-0.964,0.719-0.955c0,0-24.654,30.207-24.654,30.207l-5.07,4.155c1.871-0.945,3.45-2.4,4.867-3.923
							c0,0-0.205,0.231-0.205,0.231c-68.789,79.483-160.264,137.58-258.446,173.292c0.001,0.001-26.412,9.84-26.412,9.84
							l0.024-28.162l0-0.375l26.323,18.347c-91.629,32.163-185.363,55.595-281.645,67.353c-31.771,4.229-63.747,7.386-95.885,8.846
							c-11.702,0.191-13.567-16.151-2.474-18.784c0.04-0.003,92.987-20.422,93.03-20.429c54.21-11.9,131.179-29.421,183.773-45.306
							c39.137-10.884,78.21-23.996,115.965-37.784c0,0,0.024,27.757,0.024,27.757l0,0.375l-26.388-18.323
							c52.243-19.547,102.142-44.606,147.489-76.48c34.055-24.858,65.802-53.295,93.666-84.98c1.837-2.261,4.079-4.41,6.596-5.877
							c0,0-5.069,4.153-5.069,4.153l22.796-28.02l0.906-1.115l0.185-0.159l30.309,25.617l-24.083,29.519l-31.196-24.632
							c22.762-28.109,48.106-65.541,88.392-70.646c8.585-0.376,17.397,1.319,25.939,0.991c6.934-0.141,13.815-0.852,19.102-2.521
							c5.529-1.48,8.475-4.277,8.295-4.398c1.426-9.558-4.182-19.684-7.976-30.007c-9.321-21.424-20.049-43.256-26.078-66.23
							c-6.956-20.134,13.314-37.858,32.064-27.217c0,0,2.633,1.25,2.633,1.25l5.321,2.441c18.694,7.724,39.748,17.46,59.65,16.189
							c1.66-0.286,1.576-0.693,0.607,0.224c-0.986,0.99-1.121,2.122-0.901,0.991c-1.022-7.719-4.096-17.95-7.435-27.06
							c-12.616-35.307-26.852-71.678-34.444-109.122c-14.069-70.736-29.289-161.968-45.804-231.906
							c-20.651-78.291-46.041-157.241-81.573-229.733c0,0-4.003-8.066-4.003-8.066l3.126-8.526
							c44.324-123.423,75.799-449.164,14.33-562.392c-2.609-3.509-4.811-7.805-7.682-10.481l-2.001-2.299l-0.985-1.148
							c-1.83-1.008-2.913-2.753-4.864-3.603c-1.613-0.724-2.852-1.817-4.66-2.444l-5.403-1.973
							c-74.29-15.909-200.38,54.196-263.84,94.278c-41.234,26.496-79.817,55.837-112.917,90.114
							c-64.312-27.574-133.744-43.408-203.144-54.11c-64.911-9.946-131.65-16.311-197.198-17.762
							c-32.248,0.467-66.109,2.786-98.582,5.643c-97.64,9.494-197.092,24.267-288.378,60.625c0,0.001-13.36,5.466-13.36,5.466
							c-63.657-64.79-145.639-115.094-228.498-152.775c-40.505-17.532-123.169-49.972-160.494-25.817
							c-0.609,0.523-1.232,1.024-1.874,1.506l-0.978,0.711l-0.989,1.152l-2.009,2.307c-10.743,12.417-17.06,28.988-22.171,44.67
							c-38.689,132.721-16.383,405.945,31.76,536.846c-28.851,56.812-50.706,118.255-69.312,179.608
							c-6.027,19.149-11.523,40.123-16.603,59.582c-3.397,13.156-7.435,34.002-10.35,47.393
							c-9.727,46.814-25.012,129.456-33.846,176.588c-8.171,47.137-29.394,91.947-42.297,136.971
							c-0.869,3.278-0.762,5.687-0.93,5.808c0.224,1.192,0.123,0.169-0.78-0.741c-0.887-0.838-0.886-0.406,0.824-0.111
							c8.945,1.058,17.826-1.287,27.543-3.964c12.602-3.738,25.605-9.04,37.689-14.685c4.697-2.216,8.565-4.56,14.38-4.399
							c14.478,0.012,24.321,15.161,20.155,28.104c-7.192,30.506-25.102,58.961-33.781,88.286c-0.722,2.979-1.118,5.699-1.101,7.501
							c0.026,1.77,0.405,2.542,0.405,2.542c-0.081,0.286,2.98,3.115,8.562,4.616c10.669,3.114,24.476,2.984,36.142,1.704
							c3.025-0.169,6.037-0.269,8.998-0.146c39.984,5.104,65.43,42.437,88.038,70.47c-0.001,0.001-30.429,24.027-30.429,24.027
							l-24.078-29.523l29.552-24.977l0.185,0.159l0.883,1.087l22.814,28.052l-4.941-4.048c4.395,2.491,7.591,7.335,11.059,10.932
							c63.922,71.752,146.71,123.4,236.747,156.49c-0.001,0.001-25.639,17.803-25.639,17.803l0-0.375l0.027-27.053
							c37.547,13.755,76.646,26.838,115.18,37.876c60.783,17.979,121.715,32.357,183.834,45.444
							c31.014,6.742,62.087,13.099,93.192,19.496C1756.781,2328.212,1754.609,2345.233,1742.944,2344.643L1742.944,2344.643z"/>
					</g>
				</g>
			</g>
			<g>
				<g>
					<ellipse style="fill:#FF7687;" cx="2380.245" cy="1942.395" rx="90.988" ry="43.678"/>
				</g>
			</g>
			<g>
				<g>
					<ellipse style="fill:#FF7687;" cx="1396.852" cy="1942.395" rx="90.988" ry="43.678"/>
				</g>
			</g>
			<g>
				<g>
					<path style="fill:#FFFFFF;" d="M1752.473,1874.531c0,0,23.884,62.653,79.795,48.189c63.646-16.465,55.998-92.363,55.998-92.363
						"/>
				</g>
			</g>
			<g>
				<g>
					<path style="fill:#FFFFFF;" d="M2026.412,1874.531c0,0-23.884,62.653-79.795,48.189
						c-63.646-16.465-55.998-92.363-55.998-92.363"/>
				</g>
			</g>
			<g>
				<g>
					<g>
						<ellipse style="fill:#000072;" cx="1553.579" cy="1668.513" rx="111.374" ry="178.168"/>
					</g>
				</g>
				<g>
					<g>
						
							<ellipse transform="matrix(0.1053 -0.9944 0.9944 0.1053 -198.7887 3032.771)" style="fill:#FFFFFF;" cx="1585.995" cy="1626.858" rx="56.907" ry="35.973"/>
					</g>
				</g>
				<g style="opacity:0.35;">
					<g>
						
							<ellipse transform="matrix(0.899 -0.4379 0.4379 0.899 -622.8341 841.0624)" style="fill:#FFFFFF;" cx="1512.495" cy="1771.198" rx="21.167" ry="36.809"/>
					</g>
				</g>
			</g>
			<g>
				<g>
					<g>
						<ellipse style="fill:#000072;" cx="2222.261" cy="1668.513" rx="111.374" ry="178.168"/>
					</g>
				</g>
				<g>
					<g>
						
							<ellipse transform="matrix(0.9944 -0.1053 0.1053 0.9944 -159.0958 239.5712)" style="fill:#FFFFFF;" cx="2189.845" cy="1626.858" rx="35.973" ry="56.907"/>
					</g>
				</g>
				<g style="opacity:0.35;">
					<g>
						
							<ellipse transform="matrix(0.4379 -0.899 0.899 0.4379 -320.0592 3030.5205)" style="fill:#FFFFFF;" cx="2263.345" cy="1771.198" rx="36.809" ry="21.167"/>
					</g>
				</g>
			</g>
			<g style="opacity:0.3;">
				<g>
					<path style="fill:#000072;" d="M1747.393,3142.254c-56.228,44.481-195.213,36.191-290.19-75.793
						c-38.086-44.86-69.066-153.764-84.841-235.241l212.504-192.703c12.458,89.246,57.839,158.122,104.593,216.246
						C1780.364,2967.741,1876.667,3040.076,1747.393,3142.254z"/>
				</g>
			</g>
			<g style="opacity:0.3;">
				<g>
					<path style="fill:#000072;" d="M1977.08,3142.254c56.228,44.481,195.213,36.191,290.19-75.793
						c38.086-44.86,69.066-153.764,84.841-235.241l-212.504-192.703c-12.458,89.246-57.839,158.122-104.593,216.246
						C1944.109,2967.741,1847.806,3040.076,1977.08,3142.254z"/>
				</g>
			</g>
			<g>
				<g>
					<path style="fill:#FFC76C;" d="M1747.393,3061.724c-56.228,44.481-195.213,36.191-290.19-75.792
						c-38.086-44.86-69.066-106.394-84.841-187.871l212.504-240.073c12.458,89.246,57.839,158.123,104.593,216.246
						C1780.364,2887.212,1876.667,2959.546,1747.393,3061.724z"/>
				</g>
			</g>
			<g>
				<g>
					<path style="fill:#FFFFFF;" d="M1747.393,3061.724c-56.228,44.481-195.213,36.191-290.19-75.792
						c13.99-91.316,131.926-200.898,232.256-211.698C1780.364,2887.212,1876.667,2959.546,1747.393,3061.724z"/>
				</g>
			</g>
			<g style="opacity:0.3;">
				<g>
					<path style="fill:#000072;" d="M1747.408,3061.71c-56.229,44.481-195.213,36.191-290.191-75.793
						c-31.785-37.47-58.645-86.546-75.793-149.122c14.259,30.412,31.264,56.465,49.929,78.445
						c94.978,111.983,233.962,120.273,290.191,75.793c45.333-35.812,62.908-67.977,62.718-99.525
						C1821.164,2947.832,1826.516,2999.181,1747.408,3061.71z"/>
				</g>
			</g>
			<g>
				<g>
					<path style="fill:#000072;" d="M1598.921,2556.039c18.251,90.396,69.557,166.223,129.934,235.149
						c79.366,91.359,160.73,176.911,40.724,279.227c-34.96,31.905-85.251,40.466-130.828,36
						c-151.673-14.354-269.85-158.938-275.697-306.575c-0.325-10.643,14.466-13.789,18.456-3.974
						c8.817,21.865,15.92,43.707,25.077,64.596c32.1,82.149,88.698,158.472,173.314,189.813
						c47.288,17.928,106.046,25.492,150.644-2.066c7.583-5.271,17.077-13.561,24.164-20.355
						c31.353-29.338,45.893-62.936,25.46-103.005c-19.495-39.236-52.62-73.809-81.09-108.441
						c-61.688-72.013-121.94-157.911-128.307-256.433C1569.756,2542.586,1595.024,2538.724,1598.921,2556.039L1598.921,2556.039z"/>
				</g>
			</g>
			<g>
				<g>
					<path style="fill:#FFC76C;" d="M1977.08,3061.724c56.228,44.481,195.213,36.191,290.19-75.792
						c38.086-44.86,69.066-106.394,84.841-187.871l-212.504-240.073c-12.458,89.246-57.839,158.123-104.593,216.246
						C1944.109,2887.212,1847.806,2959.546,1977.08,3061.724z"/>
				</g>
			</g>
			<g>
				<g>
					<path style="fill:#FFFFFF;" d="M1977.08,3061.724c56.228,44.481,195.213,36.191,290.19-75.792
						c-13.99-91.316-131.926-200.898-232.256-211.698C1944.109,2887.212,1847.806,2959.546,1977.08,3061.724z"/>
				</g>
			</g>
			<g>
				<g>
					<path style="fill:#000072;" d="M2153.7,2559.975c-7.925,124.34-98.019,219.819-173.062,310.126
						c-51.832,64.972-69.742,109.648,1.149,168.63c43.837,38.88,111.504,30.944,162.785,11.547
						c84.613-31.351,141.216-107.658,173.311-189.816c9.11-20.774,16.169-42.465,24.931-64.222
						c1.826-5.101,7.578-7.709,12.609-5.664c3.852,1.551,6.141,5.341,5.994,9.264c-1.905,48.274-15.543,96.453-39.318,139.741
						c-46.985,87.664-134.481,157.654-236.379,166.834c-74.694,6.847-126.381-17.836-170.289-78.735
						c-45.902-65.333-9.705-129.436,34.292-182.37c44.168-53.672,93.331-104.756,127.285-164.429
						c22.71-38.943,39.23-80.71,48.552-124.882C2129.383,2539.037,2154.702,2542.277,2153.7,2559.975L2153.7,2559.975z"/>
				</g>
			</g>
			<g>
				<g>
					<path style="fill:#000072;" d="M1993.971,1877.645c0,0-2.085,47.56-19.375,95.688c-3.695,10.327-8.81,19.28-14.921,26.907
						c-35.007,43.438-103.694,43.438-138.701,0c-6.111-7.627-11.227-16.58-14.922-26.907
						c-17.242-48.128-19.374-95.688-19.374-95.688H1993.971z"/>
				</g>
			</g>
			<g>
				<g>
					<path style="fill:#F27E80;" d="M1959.675,2000.24c-35.007,43.438-103.694,43.438-138.701,0
						C1855.933,1956.753,1924.715,1956.753,1959.675,2000.24z"/>
				</g>
			</g>
			<g>
				<g>
					<path style="fill:#000072;" d="M1890.332,2052.262c-46.575,0-86.853-28.408-102.615-72.368
						c-18.035-50.313-20.405-99.341-20.498-101.401c-0.479-10.742,7.842-19.844,18.584-20.322
						c10.691-0.357,19.839,7.842,20.322,18.584c0.02,0.434,2.266,45.405,18.252,89.995c12.307,34.336,42.141,46.572,65.955,46.572
						s53.647-12.236,65.955-46.572c15.986-44.59,18.232-89.561,18.254-90.01c0.498-10.737,9.561-19.111,20.337-18.56
						c10.735,0.488,19.045,9.575,18.567,20.313c-0.093,2.061-2.463,51.089-20.498,101.401
						C1977.185,2023.854,1936.907,2052.262,1890.332,2052.262z"/>
				</g>
			</g>
			<g>
				<g style="opacity:0.25;">
					<g>
						<path style="fill:#6B184E;" d="M2026.412,1900.222c0,0-23.884,62.653-79.795,48.189
							c-63.646-16.465-55.001-47.089-57.756-47.089s7.053,30.624-56.593,47.089c-55.911,14.464-79.795-48.189-79.795-48.189
							s-1.14-155.274,136.399-155.274S2026.412,1900.222,2026.412,1900.222z"/>
					</g>
				</g>
				<g>
					<g>
						<path style="fill:#FFFFFF;" d="M2026.412,1874.531c0,0-23.884,62.653-79.795,48.189
							c-63.646-16.465-55.998-92.363-55.998-92.363h-2.352c0,0,7.648,75.898-55.998,92.363
							c-55.911,14.464-79.795-48.189-79.795-48.189s-81.29-155.274,136.399-155.274S2026.412,1874.531,2026.412,1874.531z"/>
					</g>
				</g>
				<g style="opacity:0.25;">
					<g>
						<path style="fill:#000072;" d="M2025.527,1876.546c-4.608,10.561-28.992,59.07-78.899,46.18
							c-63.678-16.463-56.016-92.359-56.016-92.359h-2.329c0,0,7.61,75.896-56.017,92.359
							c-49.907,12.891-74.292-35.618-78.899-46.18c15.739,10.613,36.343,16.722,62.229,10.044
							c82.212-21.278,72.324-119.28,72.324-119.28h3.054c0,0-9.888,98.002,72.325,119.28
							C1989.184,1893.268,2009.789,1887.159,2025.527,1876.546z"/>
					</g>
				</g>
				<g>
					<g>
						<path style="fill:#000072;" d="M1761.326,1871.157c15.789,26.496,41.444,48.263,73.295,35.513
							c31.261-9.795,43.019-46.161,44.264-76.185c0.283-5.227,4.75-9.234,9.977-8.952c11.298,0.93,9.514,15.247,10.256,23.118
							c0.223,15.382-1.889,30.469-8.214,45.002c-9.865,25.112-35.107,44.578-62.186,48.465
							c-33.583,6.964-66.343-16.007-79.541-45.719c-3.453-7.663-11.37-22.139,0.872-26.243
							C1754.65,1864.79,1759.231,1867.129,1761.326,1871.157L1761.326,1871.157z"/>
					</g>
				</g>
				<g>
					<g>
						<path style="fill:#000072;" d="M2035.265,1877.906c-12.55,44.19-55.625,74.27-100.94,55.923
							c-42.583-14.241-60.413-63.187-53.131-104.421c1.959-11.035,18.173-10.019,18.809,1.072
							c1.237,30.021,13.002,66.398,44.263,76.191c32.322,12.934,58.093-9.633,73.887-36.461
							C2023.944,1860.985,2038.326,1867.555,2035.265,1877.906L2035.265,1877.906z"/>
					</g>
				</g>
				<g>
					<g>
						<g>
							<path style="fill:#000072;" d="M1966.107,1780.924c0,17.954-23.421,43.466-44.918,54.243
								c-22.487,11.273-47.681,11.273-70.168,0c-21.497-10.777-44.918-36.289-44.918-54.243
								C1806.103,1748.479,1966.107,1748.479,1966.107,1780.924z"/>
						</g>
					</g>
					<g style="opacity:0.5;">
						<g>
							<path style="fill:#FFFFFF;" d="M1917.827,1779.954c0,5.177-9.287,9.75-17.81,12.857c-8.916,3.25-18.906,3.25-27.822,0
								c-8.524-3.107-17.81-7.681-17.81-12.857C1854.384,1764.339,1917.827,1764.339,1917.827,1779.954z"/>
						</g>
					</g>
				</g>
				<g>
					<g>
						<path style="fill:#000072;" d="M1485.017,1322.78c34.878-34.506,94.102-42.141,134.609-13.058
							c5.685,3.697,10.454,8.521,15.469,12.994c6.2,5.792,6.53,15.513,0.738,21.712c-4.73,5.063-12.079,6.212-17.992,3.309
							c-3.046-1.498-6.207-3.056-9.112-4.669c-10.539-6.032-22.206-9.911-34.065-11.865c-25.189-3.605-50.555,5.604-73.04,16.645
							C1486.057,1354.275,1473.136,1334.434,1485.017,1322.78L1485.017,1322.78z"/>
					</g>
				</g>
				<g>
					<g>
						<path style="fill:#000072;" d="M2273.108,1346.581c-38.141-19.716-73.618-22.723-110.995,0.065
							c-7.866,4.987-18.607,2.689-22.76-5.923c-6.734-14.233,9.327-23.516,18.765-31.003c17.281-11.934,38.584-18.689,59.738-18.058
							c28.227,0.663,54.646,11.708,74.872,31.117C2305.695,1336.661,2289.283,1355.921,2273.108,1346.581L2273.108,1346.581z"/>
					</g>
				</g>
			</g>
			<g>
				<g>
					<path style="fill:#000072;" d="M1632.992,3031.83c17.581,13.594,39.821,23.927,61.928,26.961
						c7.427,1.246,14.772,1.011,21.957,0.711c27.492,0.15,25.524,40.486-1.9,37.905c-28.175-3.329-54.401-15.745-76.053-33.473
						c-7.03-5.803-13.262-11.654-19.576-18.955c-3.421-3.956-2.987-9.937,0.969-13.358
						C1624.04,3028.385,1629.472,3028.662,1632.992,3031.83L1632.992,3031.83z"/>
				</g>
			</g>
			<g>
				<g>
					<path style="fill:#000072;" d="M1688.281,2961.965c27.842,19.506,62.051,36.718,96.629,35.295
						c27.347-0.26,26.121,39.868-1.214,37.876c-32.282-3.705-60.708-19.443-85.581-38.961c-7.943-6.315-15.255-12.708-22.597-20.206
						c-3.664-3.742-3.601-9.746,0.141-13.41C1679.149,2959.131,1684.595,2958.998,1688.281,2961.965L1688.281,2961.965z"/>
				</g>
			</g>
			<g>
				<g>
					<path style="fill:#000072;" d="M2109.343,3044.979c-24.69,28.06-58.186,47.849-95.629,52.429
						c-25.024,2.781-30.209-33.408-5.367-37.731c8.438-0.445,16.772,0.775,25.424-0.885c22.104-3.032,44.351-13.368,61.928-26.961
						C2104.52,3023.943,2116.952,3035.982,2109.343,3044.979L2109.343,3044.979z"/>
				</g>
			</g>
			<g>
				<g>
					<path style="fill:#000072;" d="M2053.173,2975.97c-29.731,29.318-65.623,53.936-108.178,59.167
						c-25.029,2.237-29.43-33.988-4.544-37.769c17.605,0.695,35.602-2.44,52.452-9.297c16.643-6.605,33.479-15.886,47.91-26.399
						C2050.15,2954.961,2061.152,2967.752,2053.173,2975.97L2053.173,2975.97z"/>
				</g>
			</g>
			<g style="opacity:0.3;">
				<g>
					<path style="fill:#000072;" d="M1977.089,3061.71c56.229,44.481,195.213,36.191,290.191-75.793
						c31.785-37.47,58.645-86.546,75.793-149.122c-14.259,30.412-31.264,56.465-49.929,78.445
						c-94.978,111.983-233.962,120.273-290.191,75.793c-45.333-35.812-62.908-67.977-62.718-99.525
						C1903.333,2947.832,1897.98,2999.181,1977.089,3061.71z"/>
				</g>
			</g>
		</g>
		<g>
			<g>
				<g>
					<path style="fill:#FFFFFF;" d="M2933.306,1349.253c-29.839-30.846-50.21-71.333-55.646-117.242
						c-13.196-111.43,66.438-212.46,177.868-225.656s212.46,66.438,225.656,177.869c13.196,111.43-66.438,212.459-177.869,225.655
						c-30.994,3.67-61.176,0.139-88.894-9.241l-87.146,41.113L2933.306,1349.253z"/>
				</g>
			</g>
			<g style="opacity:0.5;">
				<g>
					<g>
						<path style="fill:#FFFFFF;" d="M3060.123,1045.16c-104.091,12.327-180.412,101.302-179.26,203.8
							c-1.589-6.984-2.866-14.103-3.728-21.377c-13.196-111.43,66.438-212.459,177.868-225.655
							c111.43-13.196,212.459,66.438,225.655,177.869c0.865,7.305,1.309,14.561,1.393,21.754
							C3259.271,1101.566,3164.249,1032.829,3060.123,1045.16z"/>
					</g>
				</g>
			</g>
			<g>
				<g>
					<path style="fill:#000072;" d="M2908.205,1469.772l7.446-114.209c-30.667-33.96-49.666-75.816-55.078-121.533
						c-14.292-120.669,72.256-230.469,192.93-244.761c120.654-14.341,230.476,72.261,244.765,192.935
						c14.292,120.669-72.258,230.469-192.93,244.761c-30.474,3.608-60.618,0.957-89.712-7.871L2908.205,1469.772z M3079.553,1022.14
						c-7.27,0-14.607,0.425-22.002,1.299c-101.831,12.061-174.866,104.717-162.808,206.548
						c4.827,40.742,22.437,77.847,50.928,107.305l5.298,5.478l-4.624,70.957l67.014-31.616l6.577,2.227
						c26.28,8.896,53.647,11.733,81.355,8.457c101.831-12.06,174.865-104.717,162.808-206.548
						C3252.915,1091.813,3172.405,1022.14,3079.553,1022.14z"/>
				</g>
			</g>
			<g style="opacity:0.3;">
				<g>
					<path style="fill:#000072;" d="M2931.767,1347.598c64.587,33.779,143.903,37.149,214.058,2.031
						c77.802-38.947,124.466-115.275,129.258-196.308c2.782,9.979,4.844,20.295,6.101,30.903
						c13.196,111.43-66.438,212.459-177.869,225.655c-30.994,3.671-61.175,0.139-88.894-9.241l-87.147,41.113l6.032-92.498
						C2932.782,1348.712,2932.285,1348.145,2931.767,1347.598z"/>
				</g>
			</g>
			<g>
				<g>
					<path style="fill:#FF0068;" d="M3015.168,1151.06L3015.168,1151.06c17.583-17.583,46.09-14.432,63.673,3.151l2.737,2.737
						l2.737-2.737c17.583-17.583,46.09-20.733,63.673-3.151l0,0c17.583,17.583,17.583,46.09,0,63.673l-2.737,2.737l-55.28,55.28
						c-4.635,4.635-12.151,4.635-16.786,0l-55.28-55.28l-2.737-2.737C2997.585,1197.15,2997.585,1168.642,3015.168,1151.06z"/>
				</g>
			</g>
		</g>
	</g>
</g>
</svg>
