<?xml version="1.0" encoding="utf-8"?>
<!-- Generator: Adobe Illustrator 27.5.0, SVG Export Plug-In . SVG Version: 6.00 Build 0)  -->
<svg version="1.1" id="Layer_1" xmlns="http://www.w3.org/2000/svg" xmlns:xlink="http://www.w3.org/1999/xlink" x="0px" y="0px"
	 viewBox="0 0 4000 4000" style="enable-background:new 0 0 4000 4000;" xml:space="preserve">
<g>
	<g>
		<g>
			<rect style="fill:#CCEEFF;" width="4000" height="4000"/>
		</g>
	</g>
	<g>
		<g>
			<g style="opacity:0.2;">
				<g>
					<ellipse style="fill:#000072;" cx="1937.55" cy="3307.408" rx="1027.401" ry="77.592"/>
				</g>
			</g>
			<g>
				<g>
					<g>
						<path style="fill:#FFD400;" d="M2385.771,1047.876l-96.849-14.438l-71.806-40.289l-79.554-44.629
							c63.908-35.284,116.558-80.873,150.587-143.306c14.642-26.765,52.754-26.873,68.305-0.702
							c1.756,2.983,3.504,6.022,5.137,9.045c0,0,0,0,0.048,0.065C2398.865,881.584,2406.967,959.677,2385.771,1047.876z"/>
					</g>
				</g>
				<g style="opacity:0.55;">
					<g>
						<path style="fill:#FFFFFF;" d="M2375.537,842.732c-0.466-0.764-0.875-1.52-1.339-2.284
							c-15.552-26.171-53.72-26.072-68.306,0.702c-29.893,54.887-74.228,96.736-127.944,130.066l-40.386-22.695
							c63.908-35.284,116.558-80.873,150.587-143.306c14.642-26.765,52.754-26.873,68.305-0.702
							C2363.813,816.899,2370.189,829.661,2375.537,842.732z"/>
					</g>
				</g>
				<g>
					<g>
						<path style="fill:#000070;" d="M2385.787,1065.033c-1.331,0-2.678-0.154-4.026-0.478c-9.226-2.217-14.91-11.492-12.693-20.718
							c20.945-87.185,11.738-164.751-27.361-230.542c-4.221-7.1-11.77-11.265-19.849-11.099
							c-3.787,0.068-13.176,1.306-18.601,11.255c-33.196,60.862-84.685,109.968-157.415,150.125
							c-8.303,4.585-18.755,1.572-23.342-6.736c-4.585-8.306-1.57-18.757,6.736-23.342
							c66.833-36.899,113.889-81.548,143.857-136.497c9.749-17.881,27.742-28.779,48.13-29.158
							c20.681-0.386,39.414,10.046,50.02,27.898c43.831,73.755,54.341,159.927,31.233,256.123
							C2400.584,1059.74,2393.546,1065.033,2385.787,1065.033z"/>
					</g>
				</g>
				<g style="opacity:0.3;">
					<g>
						<path style="fill:#000072;" d="M2385.771,1047.876l-96.849-14.438l-71.806-40.289c7.306-2.79,15.854-4.989,25.848-6.394
							c157.172-22.423,119.743-169.036,118.675-173.133C2398.865,881.584,2406.967,959.677,2385.771,1047.876z"/>
					</g>
				</g>
				<g>
					<g>
						<path style="fill:#FFD400;" d="M1454.216,1047.865l96.849-14.438l71.806-40.289l79.554-44.629
							c-63.908-35.284-116.558-80.873-150.587-143.306c-14.642-26.765-52.754-26.873-68.305-0.702
							c-1.756,2.983-3.504,6.022-5.137,9.045c0,0,0,0-0.048,0.065C1441.121,881.572,1433.02,959.666,1454.216,1047.865z"/>
					</g>
				</g>
				<g style="opacity:0.55;">
					<g>
						<path style="fill:#FFFFFF;" d="M1464.45,842.72c0.466-0.764,0.874-1.52,1.339-2.284c15.552-26.171,53.72-26.072,68.306,0.702
							c29.893,54.887,74.228,96.736,127.944,130.066l40.386-22.695c-63.908-35.284-116.558-80.873-150.587-143.306
							c-14.642-26.765-52.754-26.873-68.305-0.702C1476.174,816.888,1469.798,829.649,1464.45,842.72z"/>
					</g>
				</g>
				<g>
					<g>
						<path style="fill:#000070;" d="M1454.2,1065.024c-7.759,0-14.797-5.293-16.689-13.169
							c-23.108-96.199-12.6-182.371,31.233-256.126c10.608-17.852,29.302-28.401,50.02-27.898
							c20.388,0.378,38.381,11.277,48.132,29.158c29.968,54.951,77.024,99.6,143.855,136.499
							c8.306,4.585,11.321,15.037,6.736,23.342c-4.587,8.308-15.044,11.321-23.342,6.736
							c-72.729-40.156-124.219-89.263-157.412-150.127c-5.427-9.949-14.817-11.187-18.604-11.255
							c-8.262-0.132-15.627,3.994-19.849,11.099c-39.099,65.791-48.306,143.357-27.361,230.544
							c2.217,9.226-3.467,18.501-12.693,20.718C1456.878,1064.87,1455.528,1065.024,1454.2,1065.024z"/>
					</g>
				</g>
				<g style="opacity:0.3;">
					<g>
						<path style="fill:#000072;" d="M1454.216,1047.865l96.849-14.438l71.806-40.289c-7.306-2.79-15.854-4.989-25.848-6.394
							c-157.172-22.423-119.743-169.036-118.675-173.133C1441.121,881.572,1433.02,959.666,1454.216,1047.865z"/>
					</g>
				</g>
				<g>
					<g>
						<path style="fill:#5F5E73;" d="M2762.994,2851.941c0,0-13.789-195.675,111.904-172.085s169.394-27.245,169.394-27.245
							s-10.645,232.323-128.025,262.036c-83.703,21.189-129.559-44.676-129.559-44.676"/>
					</g>
				</g>
				<g style="opacity:0.35;">
					<g>
						<path style="fill:#FFFFFF;" d="M3042.573,2674.062c-21.007,24.347-71.377,65.61-162.026,48.583
							c-89.732-16.868-108.395,78.096-111.718,133.768l-5.824-4.445c0,0-13.826-195.684,111.871-172.089
							c125.707,23.542,169.413-27.243,169.413-27.243S3043.941,2660.722,3042.573,2674.062z"/>
					</g>
				</g>
				<g style="opacity:0.3;">
					<g>
						<path style="fill:#000072;" d="M2916.293,2914.643c-83.745,21.186-129.586-44.662-129.586-44.662l-23.702-18.014
							c0,0-2.767-39.381,5.491-80.676c14.633,22.705,42.376,50.341,91.591,55.427c79.708,8.206,146.039-82.993,181.705-145.588
							C3034.609,2744.058,3008.156,2891.371,2916.293,2914.643z"/>
					</g>
				</g>
				<g>
					<g>
						<path style="fill:#000070;" d="M2883.182,2937.084c-70.918,0.005-109.509-54.072-111.37-56.743
							c-2.356-3.389-3.401-7.295-3.24-11.123c-1.365,0.439-2.808,0.723-4.302,0.83c-9.98,0.645-18.674-6.831-19.38-16.831
							c-0.347-4.907-7.825-120.762,48.247-170.718c22.419-19.985,51.055-26.88,85.107-20.479
							c111.929,21.016,152.087-21.03,152.48-21.46c5.046-5.874,13.157-7.783,20.361-4.927c7.195,2.856,11.689,10.073,11.335,17.808
							c-0.459,10.034-12.747,246.152-141.704,278.799C2907.349,2935.624,2894.827,2937.084,2883.182,2937.084z M2786.69,2851.821
							c5.74,0,11.384,2.715,14.912,7.778c1.558,2.192,40.2,55.146,110.21,37.456c71.841-18.188,101.685-135.786,111.064-209.087
							c-28.923,12.861-77.336,23.608-151.326,9.727c-22.732-4.268-40.486-0.371-54.268,11.904
							c-35.605,31.724-38.193,112.588-36.187,141.069c0.049,0.684,0.059,1.357,0.032,2.026
							C2782.945,2852.109,2784.825,2851.821,2786.69,2851.821z"/>
					</g>
				</g>
				<g>
					<g>
						<path style="fill:#FFFFFF;" d="M2370.674,2974.222c0,0,174.561,35.982,287.094-77.81
							c123.167-124.543,199.912-112.859,203.325-75.593c3.413,37.266-61.517,52.807-124.854,158.118
							c-59.636,99.158-135.878,183.875-295.666,151.254"/>
					</g>
				</g>
				<g style="opacity:0.25;">
					<g>
						<path style="fill:#6B184E;" d="M2736.251,2978.947c-59.677,99.167-135.913,183.885-295.675,151.232l-69.914-155.966
							c0,0,12.148,2.491,32.04,4.107l6.219,28.73c149.628,64.923,241.715-2.199,320.6-86.846
							c55.974-60.186,104.392-80.895,131.607-99.18C2864.234,2858.136,2799.448,2873.85,2736.251,2978.947z"/>
					</g>
				</g>
				<g>
					<g>
						<path style="fill:#000070;" d="M2505.745,3155.346c-21.245,0-44.109-2.329-68.804-7.368
							c-9.819-2.007-16.157-11.592-14.15-21.411c2.004-9.824,11.58-16.152,21.411-14.155
							c140.874,28.765,212.412-36.294,276.484-142.827c34.307-57.041,68.574-88.345,93.596-111.206
							c19.419-17.739,29.517-27.393,28.738-35.903c-0.134-1.46-0.447-4.883-6.846-7.178c-19.924-7.124-77.2,4.59-165.503,93.877
							c-118.101,119.414-296.138,84.37-303.662,82.822c-9.817-2.021-16.133-11.621-14.111-21.436
							c2.024-9.814,11.606-16.133,21.418-14.116l0,0c1.653,0.332,166.489,32.427,270.547-72.798
							c80.234-81.123,156.318-119.458,203.562-102.515c17.646,6.328,29.141,20.547,30.742,38.032
							c2.458,26.855-16.458,44.136-40.403,66.011c-23.376,21.357-55.391,50.605-86.975,103.12
							C2700.999,3072.743,2632.252,3155.341,2505.745,3155.346z"/>
					</g>
				</g>
				<g style="opacity:0.35;">
					<g>
						<path style="fill:#FFFFFF;" d="M1435.651,2811.48c-40.576-20.774-101.635-47.469-147.454-42.469
							c-119.837,13.056-124.593,100.956-124.593,100.956s-20.338-29.996-34.073-52.08l1.019-1.602
							C1224.371,2661.308,1365.419,2750.81,1435.651,2811.48z"/>
					</g>
				</g>
				<g style="opacity:0.3;">
					<g>
						<path style="fill:#6B184E;" d="M1656.979,3268.939c23.249,0.291,47.129,0.63,71.495,0.97
							c-15.92,5.388-35.432,6.746-59.166,2.038C1665.133,3271.123,1661.008,3270.104,1656.979,3268.939z"/>
					</g>
				</g>
				<g style="opacity:0.3;">
					<g>
						<path style="fill:#6B184E;" d="M2193.745,3271.22c-1.068,0.291-2.135,0.534-3.203,0.728c-20.288,4.029-37.47,3.64-51.983,0
							C2157.877,3271.705,2176.273,3271.462,2193.745,3271.22z"/>
					</g>
				</g>
				<g>
					<g>
						<path style="fill:#FFFFFF;" d="M2837.434,3016.433c-0.182,28.176-4.13,53.629-10.889,76.678
							c-12.07,41.379-33.122,74.908-57.214,101.723c-54.537,60.798-133.484,94.282-215.198,94.282H1312.946
							c-81.76,0-160.615-33.484-215.243-94.282c-24.093-26.815-45.1-60.299-57.169-101.632
							c-6.76-23.049-10.707-48.593-10.844-76.769c-0.953-173.501,121.325-182.167,191.151-130.489l3.993-6.261l0.771-1.18
							l0.907-1.452c13.068-21.597,27.178-37.84,41.923-49.728c19.51-15.789,40.154-23.911,60.979-26.361
							c64.156-7.758,129.809,37.25,169.781,71.823c0.045,0.045,0.045,0.045,0.09,0.045c23.64,20.417,38.249,37.159,38.249,37.159
							h791.962c0,0,100.271-114.654,199.59-109.8c22.005,1.089,43.965,8.076,64.79,23.457c16.47,12.115,32.214,29.537,46.688,53.403
							l5.581,8.938C2715.928,2834.266,2838.295,2842.795,2837.434,3016.433z"/>
					</g>
				</g>
				<g style="opacity:0.35;">
					<g>
						<path style="fill:#FFFFFF;" d="M2370.299,2872.765c36.267-18.568,90.841-42.427,131.794-37.959
							c107.109,11.67,111.361,90.234,111.361,90.234s18.178-26.81,30.454-46.549l-0.911-1.431
							C2559.14,2738.541,2433.072,2818.537,2370.299,2872.765z"/>
					</g>
				</g>
				<g>
					<g>
						<path style="fill:#5F5E73;" d="M1399.304,3289.1h-86.373c-81.732,0-160.6-33.447-215.217-94.269
							c-37.526-41.777-67.633-99.778-68.023-178.387c-0.954-173.527,121.339-182.16,191.141-130.492l3.991-6.247
							c31.191,39.304,72.621,110.06,96.655,226.627C1339.524,3194.007,1370.673,3251.965,1399.304,3289.1z"/>
					</g>
				</g>
				<g style="opacity:0.3;">
					<g>
						<path style="fill:#6B184E;" d="M1374.334,3027.05c-3.675-10.572-4.946-17.468-5.128-18.466
							C1369.524,3009.582,1371.838,3016.523,1374.334,3027.05z"/>
					</g>
				</g>
				<g style="opacity:0.3;">
					<g>
						<path style="fill:#6B184E;" d="M2497.781,3008.583c-0.181,0.998-1.452,7.849-5.081,18.375
							C2495.15,3016.478,2497.463,3009.582,2497.781,3008.583z"/>
					</g>
				</g>
				<g>
					<g>
						<path style="fill:#666566;" d="M2467.783,3289.1h86.373c81.732,0,160.6-33.447,215.217-94.269
							c37.526-41.777,67.633-99.778,68.023-178.387c0.954-173.527-121.339-182.16-191.141-130.492l-3.991-6.247
							c-31.191,39.304-72.621,110.06-96.655,226.627C2527.563,3194.007,2496.414,3251.965,2467.783,3289.1z"/>
					</g>
				</g>
				<g>
					<g>
						<path style="fill:#5F5E73;" d="M2837.413,3016.428c-0.395,78.637-30.508,136.64-68.024,178.403
							c-54.646,60.816-133.481,94.285-215.229,94.285h-86.387c3.11-3.998,6.22-8.244,9.33-12.785
							c19.894-28.632,40.182-67.481,55.782-119.511c4.739-15.599,9.033-32.432,12.735-50.5
							c24.041-116.549,65.457-187.288,96.656-226.631l3.998,6.269c62.99-46.649,168.728-44.181,188.029,84.265
							c0.346,2.122,0.642,4.245,0.888,6.417C2836.722,2988.785,2837.512,3002.064,2837.413,3016.428z"/>
					</g>
				</g>
				<g style="opacity:0.3;">
					<g>
						<path style="fill:#000072;" d="M2826.545,3093.111c-12.07,41.379-33.122,74.908-57.214,101.723
							c-54.537,60.798-133.484,94.282-215.198,94.282H1312.946c-81.76,0-160.615-33.484-215.243-94.282
							c-24.093-26.815-45.1-60.299-57.169-101.632c72.413,62.386,173.274,113.928,288.699,73.048
							c64.202-22.686,53.675-102.54,45.1-139.2c21.461,62.295,82.497,203.268,559.16,203.268s537.79-141.199,559.206-203.358
							c-8.621,36.524-19.237,116.56,45.054,139.291C2653.224,3207.13,2754.131,3155.542,2826.545,3093.111z"/>
					</g>
				</g>
				<g style="opacity:0.35;">
					<g>
						<path style="fill:#FFFFFF;" d="M1039.228,2994.612c0,0,30.757-75.039,88.543-84.587
							c57.786-9.548,118.834,39.85,157.047,93.441c0,0-49.398-137.09-114.64-145.205
							C1104.936,2850.147,1024.781,2919.583,1039.228,2994.612z"/>
					</g>
				</g>
				<g style="opacity:0.35;">
					<g>
						<path style="fill:#FFFFFF;" d="M2829.419,2994.612c0,0-30.757-75.039-88.543-84.587s-118.834,39.85-157.048,93.441
							c0,0,49.398-137.09,114.64-145.205C2763.711,2850.147,2843.865,2919.583,2829.419,2994.612z"/>
					</g>
				</g>
				<g>
					<g>
						<path style="fill:#000070;" d="M2552.461,3028.574c9.766-27.1,19.966-53.845,31.298-80.53
							c2.826-6.672,5.776-13.325,8.857-19.985c1.499-3.33,3.179-6.66,4.764-9.995c1.759-3.54,3.788-7.18,5.912-10.61
							c8.596-13.799,19.58-25.884,32.091-36.069l0.173-0.139c7.787-6.338,19.238-5.166,25.577,2.622
							c6.339,7.786,5.165,19.238-2.622,25.576c-0.508,0.415-1.05,0.806-1.587,1.157c-10.421,6.755-19.856,15.146-27.462,24.846
							c-1.904,2.454-3.636,4.883-5.354,7.568c-1.798,2.942-3.657,5.806-5.416,8.821c-3.567,5.959-7.072,12.029-10.487,18.184
							c-13.682,24.592-26.617,50.027-38.982,75.51l-0.044,0.09c-2.19,4.512-7.625,6.396-12.139,4.207
							C2552.833,3037.783,2550.927,3032.881,2552.461,3028.574z"/>
					</g>
				</g>
				<g>
					<g>
						<path style="fill:#000070;" d="M1231.57,2871.323c12.529,10.166,23.552,22.241,32.167,36.06
							c2.13,3.438,4.158,7.078,5.92,10.625c1.586,3.335,3.262,6.66,4.764,9.995c3.083,6.663,6.037,13.32,8.865,19.995
							c11.341,26.702,21.547,53.462,31.32,80.576c1.701,4.719-0.746,9.924-5.466,11.626c-4.401,1.587-9.224-0.435-11.235-4.541
							l-0.062-0.129c-12.372-25.498-25.315-50.947-39.005-75.557c-3.417-6.157-6.924-12.229-10.493-18.193
							c-1.761-3.01-3.624-5.886-5.425-8.833c-1.716-2.683-3.448-5.115-5.352-7.563c-7.601-9.69-17.054-18.064-27.497-24.812
							c-8.433-5.452-10.851-16.707-5.401-25.139s16.705-10.852,25.138-5.4c0.55,0.354,1.074,0.735,1.573,1.138L1231.57,2871.323z"/>
					</g>
				</g>
				<g>
					<g>
						<path style="fill:#000070;" d="M2554.139,3307.24H1312.93c-88.157,0-171.521-36.558-228.718-100.298
							c-47.847-53.291-72.302-117.358-72.688-190.405c-0.549-103.892,40.276-146.465,74.622-163.892
							c38.242-19.395,87.224-15.952,129.177,8.066c30.842-47.798,70.049-74.238,116.423-78.281
							c95.95-8.374,189.897,84.004,213.801,109.424h775.972c23.906-25.415,117.834-117.847,213.804-109.424
							c46.265,4.033,85.398,30.356,116.411,78.271c41.953-24.009,90.923-27.471,129.17-8.071
							c34.355,17.417,75.19,59.99,74.641,163.906c-0.383,73.047-24.841,137.114-72.693,190.41
							C2725.66,3270.683,2642.296,3307.24,2554.139,3307.24z M1140.303,2876.528c-13.533,0-26.474,2.778-37.737,8.491
							c-36.172,18.35-55.103,63.76-54.744,131.323c0.334,63.901,21.665,119.868,63.401,166.357
							c50.325,56.079,123.843,88.242,201.707,88.242h1241.208c77.864,0,151.382-32.163,201.702-88.237
							c41.738-46.494,63.071-102.461,63.406-166.362l0,0c0.359-67.578-18.577-112.993-54.756-131.338
							c-30.725-15.576-73.938-9.321-107.534,15.571l-15.774,11.685l-16.016-25.591c-25.466-42.061-56.685-64.888-92.93-68.071
							c-90.332-7.993-188.091,102.246-189.067,103.359l-5.42,6.187l-8.235,0.01h-800.203l-5.425-6.206
							c-0.969-1.104-98.645-111.333-189.055-103.35c-36.245,3.184-67.463,26.011-92.79,67.842l-16.394,25.654l-15.62-11.558
							C1188.768,2884.799,1163.658,2876.528,1140.303,2876.528z"/>
					</g>
				</g>
				<g>
					<g>
						<path style="fill:#FFFFFF;" d="M2440.205,3109.717c0,0-173.637,94.963-508.616,94.963c-334.934,0-504.67-94.963-504.67-94.963
							c-51.133-48.412-72.775-125.271-70.008-219.826c1.814-65.018,15.155-138.384,38.384-216.65
							c26.634-90.244,66.379-186.977,116.56-284.979c58.848-114.972,132.077-231.577,215.515-341.331h412.338
							c48.775,64.156,94.101,130.716,135.072,197.866c27.585,45.19,53.221,90.698,76.587,135.933
							c40.336,77.948,74.092,155.262,99.999,229.172C2528.226,2829.32,2535.848,3019.2,2440.205,3109.717z"/>
					</g>
				</g>
				<g style="opacity:0.3;">
					<g>
						<path style="fill:#000072;" d="M2163.528,2850.281c-36.388,39.746-17.605,59.709-24.954,116.106
							c-13.294,101.27-328.414,213.89-494.642,203.9c-203.837-12.25-192.352-213.802-208.281-226.212
							c-26.609-20.732-38.349-23.219-78.74-54.184c1.814-65.018,15.155-138.384,38.384-216.65l471.185,24.228
							c0,0,363.79-86.342,373.091-21.234C2248.873,2741.39,2194.018,2816.979,2163.528,2850.281z"/>
					</g>
				</g>
				<g>
					<g>
						<path style="fill:#5F5E73;" d="M2451.366,2609.903c-119.328-14.564-211.794-116.288-211.794-239.562
							c0-46.007,12.885-88.974,35.208-125.543C2349.87,2367.845,2410.44,2493.071,2451.366,2609.903z"/>
					</g>
				</g>
				<g>
					<g>
						<path style="fill:#000070;" d="M2433.95,3103.149c30.084-35.798,45.789-79.734,52.863-125.437
							c7.172-45.781,6.312-93.42,0.399-140.498c-5.975-47.124-15.627-94.106-28.567-140.325
							c-12.762-46.272-28.175-91.963-45.67-136.909c-17.606-44.907-37.238-89.089-58.386-132.559
							c-21.36-43.372-44.156-86.072-68.438-127.932c-48.495-83.76-102.322-164.492-160.889-241.572l-0.009-0.012l14.446,7.163
							h-412.31l14.446-7.163l-0.01,0.012c-58.566,77.08-112.393,157.813-160.888,241.572
							c-48.265,83.862-91.334,170.786-126.388,260.664c-17.418,44.956-33.118,90.527-45.994,136.768
							c-6.423,23.118-12.127,46.399-16.924,69.807c-4.922,23.381-9.022,46.887-11.906,70.469
							c-5.841,47.092-6.663,94.746,0.612,140.505c7.162,45.688,22.85,89.529,52.8,125.447l0.076,0.09
							c3.227,3.87,2.706,9.624-1.164,12.852c-3.338,2.783-8.079,2.773-11.39,0.237c-20.474-15.674-37.292-36.487-49.532-59.407
							c-6.158-11.465-11.419-23.391-15.49-35.657c-4.256-12.219-7.607-24.683-10.048-37.271c-2.596-12.573-4.304-25.22-5.544-37.893
							c-0.99-12.664-1.784-25.342-1.816-37.966c-0.318-25.271,1.148-50.396,3.897-75.271c2.736-24.88,6.643-49.543,11.55-73.945
							c5.038-24.375,10.994-48.494,17.67-72.368c13.351-47.749,29.542-94.526,47.878-140.344
							c36.799-91.589,80.859-179.875,130.295-264.895c49.283-85.12,103.922-167.065,163.412-245.364l0.01-0.012l5.39-7.166h9.057
							h412.31h9.056l5.391,7.166l0.01,0.012c59.49,78.298,114.128,160.244,163.412,245.364
							c49.176,85.164,93.21,173.445,129.86,265.068c36.362,91.582,66.324,186.833,77.683,286.467
							c2.717,24.885,4.152,50.015,3.801,75.288c-0.049,12.627-0.859,25.303-1.865,37.966c-1.266,12.671-2.998,25.315-5.612,37.883
							c-2.463,12.581-5.84,25.032-10.094,37.246c-4.081,12.258-9.347,24.177-15.496,35.637
							c-12.229,22.913-29.01,43.718-49.418,59.46c-3.988,3.076-9.716,2.336-12.792-1.65c-2.668-3.459-2.467-8.225,0.234-11.436
							L2433.95,3103.149z"/>
					</g>
				</g>
				<g>
					<g>
						<path style="fill:#5F5E73;" d="M1444.675,1099.571l-30.4,218.238c0,0-40.698,103.674-216.875,103.855
							c-146.188,0.182-251.587-172.185-247.14-200.815c1.498-9.664,12.251-17.468,29.809-24.092
							c60.753-22.913,203.038-31.76,326.132-55.943C1358.333,1130.56,1407.062,1117.584,1444.675,1099.571z"/>
					</g>
				</g>
				<g style="opacity:0.5;">
					<g>
						<path style="fill:#FFFFFF;" d="M1051.548,1207.809c3.101-5.204,54.943-13.411,105.686-17.922
							c58.006-5.156,96.606-18.124,101.023-17.298c20.515,3.835-29.697,33.914-91.287,41.075
							C1108.236,1220.494,1046.865,1215.668,1051.548,1207.809z"/>
					</g>
				</g>
				<g style="opacity:0.3;">
					<g>
						<path style="fill:#000072;" d="M1444.675,1099.571l-30.4,218.238c0,0-40.698,103.674-216.875,103.855
							c-146.188,0.182-251.587-172.185-247.14-200.815c1.498-9.664,12.251-17.468,29.809-24.092
							c1.543,20.327,10.299,43.421,35.027,63.883c61.888,51.225,174.953,80.898,219.1,29.628
							c32.668-37.976,42.559-100.453,72.005-149.454C1358.333,1130.56,1407.062,1117.584,1444.675,1099.571z"/>
					</g>
				</g>
				<g>
					<g>
						<path style="fill:#000070;" d="M1197.186,1438.862c-96.97,0.007-170.208-68.508-205.259-109.37
							c-31.936-37.236-62.332-87.419-58.625-111.286c6.223-40.11,73.845-51.023,213.948-70.029
							c102.092-13.848,217.808-29.544,289.993-64.097c8.562-4.097,18.816-0.474,22.913,8.079c4.097,8.557,0.479,18.816-8.079,22.913
							c-77.053,36.882-195.61,52.964-300.21,67.153c-49.482,6.711-96.223,13.052-130.915,20.771
							c-44.316,9.863-52.361,18.672-53.594,20.488c2.156,25.117,95.776,181.021,229.827,181.021c0.066,0,0.127,0,0.193,0
							c161.042-0.181,199.417-89.307,200.972-93.101c3.579-8.738,13.562-13.01,22.317-9.49c8.76,3.516,13.069,13.379,9.617,22.163
							c-1.836,4.678-47.129,114.575-232.866,114.783C1197.344,1438.859,1197.257,1438.862,1197.186,1438.862z"/>
					</g>
				</g>
				<g>
					<g>
						<path style="fill:#FFFFFF;" d="M2398.816,1099.571l30.4,218.238c0,0,40.698,103.674,216.875,103.855
							c146.188,0.182,251.587-172.185,247.14-200.815c-1.498-9.664-12.251-17.468-29.809-24.092
							c-60.753-22.913-203.038-31.76-326.132-55.943C2485.158,1130.56,2436.429,1117.584,2398.816,1099.571z"/>
					</g>
				</g>
				<g style="opacity:0.5;">
					<g>
						<path style="fill:#FFFFFF;" d="M2791.943,1207.809c-3.101-5.204-54.943-13.411-105.686-17.922
							c-58.006-5.156-96.606-18.124-101.023-17.298c-20.515,3.835,29.697,33.914,91.287,41.075
							C2735.255,1220.494,2796.626,1215.668,2791.943,1207.809z"/>
					</g>
				</g>
				<g style="opacity:0.3;">
					<g>
						<path style="fill:#000072;" d="M2398.816,1099.571l30.4,218.238c0,0,40.698,103.674,216.875,103.855
							c146.188,0.182,251.587-172.185,247.14-200.815c-1.498-9.664-12.251-17.468-29.809-24.092
							c-1.543,20.327-10.3,43.421-35.027,63.883c-61.888,51.225-174.953,80.898-219.1,29.628
							c-32.669-37.976-42.559-100.453-72.006-149.454C2485.158,1130.56,2436.429,1117.584,2398.816,1099.571z"/>
					</g>
				</g>
				<g>
					<g>
						<path style="fill:#000070;" d="M2646.304,1438.862c-0.076,0-0.151-0.002-0.229-0.002
							c-185.737-0.208-231.03-110.105-232.869-114.783c-3.467-8.831,0.881-18.801,9.712-22.271
							c8.833-3.467,18.804,0.879,22.271,9.712c1.509,3.679,39.883,92.805,200.925,92.986c0.059,0,0.134,0,0.193,0
							c134.329,0,228.04-156.519,229.839-181.167c-0.842-1.204-8.113-10.215-53.606-20.342
							c-34.692-7.72-81.433-14.06-130.916-20.771c-104.6-14.189-223.157-30.271-300.21-67.153
							c-8.557-4.097-12.175-14.355-8.079-22.913c4.099-8.557,14.355-12.168,22.913-8.079c72.185,34.553,187.9,50.249,289.993,64.097
							c140.103,19.006,207.725,29.919,213.948,70.029c3.706,23.867-26.689,74.05-58.628,111.286
							C2816.514,1370.351,2743.265,1438.859,2646.304,1438.862z M2876.239,1223.473h0.049H2876.239z"/>
					</g>
				</g>
				<g>
					<g>
						<path style="fill:#FFFFFF;" d="M2530.951,1901.276c-1.794,6.84-597.032,50.795-597.032,50.795h-24.612
							c0,0-595.295-43.954-597.088-50.795c-36.891-141.731-64.474-360.551-26.576-554.422
							c17.268-88.526,48.216-171.894,98.225-240.293c69.914-95.646,260.253-168.082,523.027-170.717
							c4.878-0.056,9.755-0.056,14.69-0.056c270.343,0,466.569,73.332,537.771,170.773
							C2618.747,1324.765,2584.661,1694.847,2530.951,1901.276z"/>
					</g>
				</g>
				<g>
					<g>
						<path style="fill:#5F5E73;" d="M1906.896,935.844c-5.157,80.902-22.65,191.853-75.856,274.829
							c-84.825,132.368-379.725,141.956-545.396,136.181c17.268-88.526,48.216-171.894,98.225-240.293
							C1453.783,1010.915,1644.122,938.479,1906.896,935.844z"/>
					</g>
				</g>
				<g style="opacity:0.5;">
					<g>
						<path style="fill:#FFFFFF;" d="M1906.906,935.825c-0.907,14.428-2.223,29.809-4.083,45.825
							c-255.261,5.082-439.923,76.633-508.526,170.507c-41.469,56.669-69.827,123.638-88.111,195.28
							c-7.078-0.181-13.929-0.363-20.553-0.59c17.287-88.52,48.229-171.868,98.229-240.288
							C1453.78,1010.915,1644.114,938.502,1906.906,935.825z"/>
					</g>
				</g>
				<g>
					<g>
						<path style="fill:#000070;" d="M1933.873,1969.243c-4.763,0-9.133-1.968-12.273-5.178c-3.418,3.496-8.284,5.527-13.555,5.129
							c-1.489-0.11-150.574-11.121-297.961-22.827c-86.599-6.88-155.689-12.651-205.349-17.153
							c-29.573-2.683-52.537-4.941-68.252-6.716c-28.865-3.262-37.573-4.246-40.867-16.897
							c-32.502-124.934-48.782-269.934-44.665-397.822c5.554-172.441,45.598-310.833,119.023-411.326
							c80.142-109.68,291.511-177.815,551.629-177.815c260.115,0,471.484,68.135,551.626,177.815
							c73.425,100.493,113.472,238.882,119.023,411.326c4.119,127.886-12.161,272.886-44.663,397.822
							c-3.293,12.651-12.002,13.635-40.867,16.897c-15.715,1.775-38.679,4.033-68.252,6.716
							c-49.661,4.502-118.752,10.273-205.352,17.153c-147.388,11.707-296.472,22.717-297.962,22.827
							C1934.727,1969.225,1934.298,1969.243,1933.873,1969.243z M1326.258,1886.703c58.14,8.02,373.142,32.644,584.316,48.228
							c4.351,0.32,8.203,2.234,11.026,5.129c2.825-2.896,6.677-4.809,11.028-5.129c211.177-15.583,526.179-40.208,584.319-48.228
							c47.654-191.023,83.948-557.288-71.46-769.983c-72.673-99.46-278.311-163.728-523.884-163.728
							c-245.576,0-451.213,64.268-523.887,163.728C1242.308,1329.421,1278.604,1695.685,1326.258,1886.703z"/>
					</g>
				</g>
				<g>
					<g>
						<path style="fill:none;stroke:#6B184E;stroke-width:36.2973;stroke-linecap:round;stroke-miterlimit:10;" d="
							M1933.892,1916.136"/>
					</g>
				</g>
				<g>
					<g>
						<path style="fill:none;stroke:#6B184E;stroke-width:36.2973;stroke-linecap:round;stroke-miterlimit:10;" d="
							M2438.667,1187.127"/>
					</g>
				</g>
				<g>
					<g>
						<path style="fill:#4DA2FF;" d="M2631.621,1178.202c-0.626-2.887-1.391-5.703-2.295-8.451l0.8-0.139L2631.621,1178.202z"/>
					</g>
				</g>
				<g style="opacity:0.3;">
					<g>
						<path style="fill:#000072;" d="M2351.366,2380.73c-165.198,61.116-348.227,70.281-429.76,70.281
							c-78.039,0-249.726-8.394-409.752-62.749c58.848-114.972,132.077-231.577,215.515-341.331h412.338
							c48.775,64.156,94.101,130.716,135.072,197.866C2302.365,2289.987,2328,2335.495,2351.366,2380.73z"/>
					</g>
				</g>
				<g>
					<g>
						<path style="fill:#F6AFB3;" d="M2674.73,1974.427c0,386.93-587.018,420.55-753.124,420.55
							c-166.105,0-755.801-33.62-755.801-420.55c0-232.62,176.769-226.45,377.629-185.797
							c88.111,17.831,180.805,42.286,265.333,56.125c38.884,6.397,76.043,10.526,110.162,10.753h2.676
							C2199.144,1853.829,2674.73,1592.852,2674.73,1974.427z"/>
					</g>
				</g>
				<g style="opacity:0.5;">
					<g>
						<path style="fill:#FFFFFF;" d="M2674.73,1974.427c0,6.125-0.136,12.205-0.407,18.149
							c-15.971-353.445-479.942-101.36-752.716-99.727h-2.676c-37.206-0.227-77.995-5.082-120.689-12.477
							c-23.231,25.136-78.902,36.479-140.38,25.771c-68.512-11.933-121.006-47.232-126.497-82.576
							c-0.68-4.22-0.68-8.439,0.045-12.613c1.452-8.303,5.626-15.744,11.979-22.278c0.635,0.091,1.27,0.227,1.905,0.363
							c6.261,1.225,12.523,2.541,18.785,3.856c8.484,1.815,16.968,3.63,25.498,5.536c18.376,3.993,36.797,8.167,55.262,12.386
							c5.264,1.225,10.572,2.405,15.835,3.584c17.287,3.902,34.619,7.804,51.77,11.57c32.804,7.169,65.153,13.702,96.324,18.829
							c38.884,6.398,76.043,10.526,110.162,10.708h2.676C2199.144,1853.829,2674.73,1592.852,2674.73,1974.427z"/>
					</g>
				</g>
				<g style="opacity:0.5;">
					<g>
						<path style="fill:#FFFFFF;" d="M1531.41,1810.953c-0.726,4.174-0.726,8.394-0.045,12.613
							c-190.198-37.25-355.713-39.655-365.151,169.009c-0.271-5.944-0.409-12.024-0.409-18.149
							c0-232.575,176.723-226.45,377.584-185.751C1537.036,1795.209,1532.862,1802.65,1531.41,1810.953z"/>
					</g>
				</g>
				<g style="opacity:0.5;">
					<g>
						<path style="fill:#FFFFFF;" d="M1543.434,1788.63c0.635,0.136,1.224,0.272,1.86,0.408c-0.636-0.136-1.271-0.272-1.905-0.363
							L1543.434,1788.63z"/>
					</g>
				</g>
				<g style="opacity:0.5;">
					<g>
						<path style="fill:#FFFFFF;" d="M1808.768,1844.755v0.045c-31.171-5.127-63.52-11.661-96.324-18.829
							C1745.247,1833.094,1777.597,1839.628,1808.768,1844.755z"/>
					</g>
				</g>
				<g style="opacity:0.3;">
					<g>
						<path style="fill:#000072;" d="M2674.73,1974.427c0,386.93-587.018,420.55-753.124,420.55
							c-166.105,0-755.801-33.62-755.801-420.55c0-11.57,0.454-22.595,1.316-32.985c30.762,357.665,592.963,389.516,754.485,389.516
							c161.524,0,721.183-31.851,751.809-389.516C2674.277,1951.832,2674.73,1962.858,2674.73,1974.427z"/>
					</g>
				</g>
				<g>
					<g>
						<path style="fill:#000070;" d="M1921.602,2412.172c-129.08,0-772.991-21.104-772.991-437.751
							c0-85.461,22.534-145,68.892-182.012c93.84-74.927,266.792-35.659,434.048,2.317c93.857,21.309,190.896,43.34,268.706,43.594
							c77.813-0.254,174.851-22.285,268.709-43.594c167.258-37.974,340.205-77.241,434.048-2.317
							c46.357,37.012,68.892,96.55,68.892,182.012C2691.905,2391.069,2050.235,2412.172,1921.602,2412.172z M1368.983,1784.084
							c-52.803,0-97.993,9.587-130.042,35.176c-37.663,30.071-55.974,80.825-55.974,155.161
							c0,383.948,615.293,403.396,738.635,403.396c122.896,0,735.947-19.448,735.947-403.396c0-74.336-18.311-125.09-55.974-155.161
							c-80.923-64.612-245.676-27.205-405.002,8.97c-94.937,21.555-193.069,43.835-274.312,44.436
							c-0.661,0.027-1.33,0.01-2.004,0.012c-0.671,0.003-1.34,0.017-2.004-0.012c-81.24-0.601-179.373-22.881-274.309-44.436
							C1547.718,1806.384,1449.503,1784.084,1368.983,1784.084z"/>
					</g>
				</g>
				<g>
					<g>
						
							<ellipse transform="matrix(0.946 -0.3242 0.3242 0.946 -492.6523 863.4618)" style="fill:#FF67A0;" cx="2344.907" cy="1910.171" rx="66.424" ry="34.294"/>
					</g>
				</g>
				<g>
					<g>
						
							<ellipse transform="matrix(0.3242 -0.946 0.946 0.3242 -798.1033 2703.123)" style="fill:#DB5252;" cx="1492.923" cy="1910.171" rx="34.294" ry="66.424"/>
					</g>
				</g>
				<g>
					<g>
						<path style="fill:#FF67A0;" d="M2293.065,2164.353c0,0-27.994,33.439-99.183,62.477
							c-60.027,24.456-117.694,29.083-117.694,29.083c16.198-35.844,17.558-71.279,13.884-105.625
							c-5.853-54.763-24.456-106.714-15.88-153.175c12.432-67.513,132.576-128.765,200.77-8.394
							c17.333,30.581,23.639,64.927,25,95.053C2302.048,2128.736,2293.065,2164.353,2293.065,2164.353z"/>
					</g>
				</g>
				<g style="opacity:0.3;">
					<g>
						<path style="fill:#000072;" d="M2293.065,2164.353c0,0-27.994,33.439-99.183,62.477
							c-60.027,24.456-117.694,29.083-117.694,29.083c16.198-35.844,17.558-71.279,13.884-105.625
							c35.571,27.722,91.923,49.773,102.404-76.134c0,0,71.323,118.284,107.485,9.619
							C2302.048,2128.736,2293.065,2164.353,2293.065,2164.353z"/>
					</g>
				</g>
				<g style="opacity:0.5;">
					<g>
						<path style="fill:#FFFFFF;" d="M2297.783,2059.635c-3.721-11.706-8.621-23.276-14.882-34.346
							c-69.964-123.547-193.284-60.662-206.033,8.575c-1.406,7.668-2.087,15.517-2.223,23.503
							c-2.903-20.917-3.992-41.062-0.453-60.254c12.432-67.513,132.576-128.765,200.77-8.394
							C2287.801,2011.36,2294.606,2036.088,2297.783,2059.635z"/>
					</g>
				</g>
				<g>
					<g>
						<path style="fill:#000070;" d="M2053.179,2272.114l9.98-22.1c23.01-50.938,13.401-101.973,4.109-151.328
							c-6.851-36.387-13.323-70.757-7.163-104.187c7.69-41.741,48.933-79.175,95.935-87.075
							c51.831-8.718,99.717,18.345,131.372,74.243c45.449,80.251,20.62,181.892,19.541,186.179l-0.798,3.179l-2.107,2.515
							c-1.235,1.475-31.121,36.514-104.749,66.528c-61.399,25.029-119.507,29.912-121.951,30.112L2053.179,2272.114z
							 M2175.006,1934.452c-4.678,0-9.421,0.398-14.219,1.206c-35.142,5.906-66.997,34.031-72.522,64.026
							c-5.193,28.191,0.798,60.012,7.141,93.708c8.376,44.487,17.722,94.136,2.51,145.19c21.619-3.564,55.84-10.869,90.574-25.029
							c55.852-22.769,83.84-48.394,91.46-56.118c3.672-17.573,17.969-99.116-17.449-161.663
							C2239.854,1955.785,2209.18,1934.452,2175.006,1934.452z"/>
					</g>
				</g>
				<g>
					<g>
						<path style="fill:#000070;" d="M2190.241,2071.287c0,0,18.438,107.717-7.736,158.743c-0.519,1.011-1.734,1.446-2.67,2.053
							l47.867-20.773C2227.703,2211.31,2244.074,2138.238,2190.241,2071.287z"/>
					</g>
				</g>
				<g>
					<g>
						<path style="fill:#000070;" d="M1959.371,2252.371c35.417-2.073,71.018-4.866,105.929-9.539
							c34.958-4.619,69.431-12.119,102.349-23.281c16.367-5.793,32.531-12.043,47.949-19.7
							c15.321-7.803,30.066-16.543,43.983-26.426c13.782-10.083,26.141-21.763,37.938-34.033
							c11.769-12.368,22.384-25.671,34.158-39.285l0.243-0.278c2.631-3.042,7.231-3.376,10.273-0.745
							c2.22,1.921,2.994,4.895,2.23,7.542c-5.291,18.213-14.336,35.369-25.946,50.581c-11.893,14.988-25.872,28.208-40.735,40.149
							c-30.082,23.511-64.537,40.532-100.122,52.085c-35.608,11.785-72.426,18.191-109.183,21.736
							c-18.413,1.592-36.874,2.219-55.296,1.523c-18.463-0.674-36.678-2.236-55.1-6.077c-3.893-0.811-6.392-4.624-5.58-8.518
							c0.678-3.254,3.455-5.535,6.622-5.72L1959.371,2252.371z"/>
					</g>
				</g>
				<g>
					<g>
						<path style="fill:#2DCFFF;" d="M2031.15,2996.517c-106.669,68.194-237.338,120.189-361.249,144.055
							c-82.078,10.526-155.761-52.994-168.057-130.307c-42.83-204.172-71.733-333.436-181.123-511.066
							c-44.283-64.518-39.383-159.391,27.449-208.21c106.307-67.967,207.622-108.438,331.94-132.349
							c77.086-13.067,137.431,46.688,158.438,113.838c1.905,6.08,3.494,12.205,4.719,18.375
							c42.831,204.172,110.797,317.874,220.189,495.504c4.083,6.488,7.713,13.294,10.889,20.417
							C2102.611,2869.84,2094.807,2953.823,2031.15,2996.517z"/>
					</g>
				</g>
				<g style="opacity:0.3;">
					<g>
						<path style="fill:#000072;" d="M2031.15,2996.517c-106.669,68.194-237.338,120.189-361.249,144.055
							c-82.078,10.526-155.761-52.994-168.057-130.307c-42.83-204.172-71.733-333.436-181.123-511.066
							c-44.283-64.518-39.383-159.391,27.449-208.21c106.307-67.967,207.622-108.438,331.94-132.349
							c77.086-13.067,137.431,46.688,158.438,113.838c-25.362,34.346-72.918,91.025-161.433,132.167
							c-147.914,68.752-162.339,186.614-123.547,304.989c20.781,63.384,39.7,135.934,50.908,212.929
							c21.687,149.681,404.17,56.17,469.868-115.788C2102.611,2869.84,2094.807,2953.823,2031.15,2996.517z"/>
					</g>
				</g>
				<g>
					<g>
						<path style="fill:#FFFFFF;" d="M2021.986,2880.457c-0.047,22.822-7.94,45.281-28.222,59.21
							c-98.229,62.613-219.916,111.251-334.343,133.574c-2.45,0.272-4.945,0.408-7.44,0.408c-39.247,0-76.406-33.212-82.894-74.047
							l-0.272-1.679l-0.363-1.633c-33.122-157.984-58.938-280.987-128.356-422.092c20.099,19.873,105.67,34.8,208.255,34.8
							c60.661,0,115.38-5.218,154.127-13.612c36.297-7.849,58.574-18.466,58.574-30.127
							c37.613,81.533,84.664,159.708,144.464,256.803l0.273,0.454C2015.452,2837.898,2022.031,2859.359,2021.986,2880.457z"/>
					</g>
				</g>
				<g style="opacity:0.2;">
					<g>
						<path style="fill:#000072;" d="M2021.986,2880.457c-0.047,22.822-7.94,45.281-28.222,59.21
							c-98.229,62.613-219.916,111.251-334.343,133.574c-2.45,0.272-4.945,0.408-7.44,0.408c-39.247,0-76.406-33.212-82.894-74.047
							l-0.272-1.679l-0.363-1.633c-33.122-157.984-58.938-280.987-128.356-422.092c20.099,19.873,105.67,34.8,208.255,34.8
							c60.661,0,115.38-5.218,154.127-13.612c-14.155,10.345-35.707,21.96-68.239,31.806
							c-95.008,28.72-139.654,137.929-92.422,225.179c25.045,46.234,59.981,84.618,108.392,93.829
							C1871.851,2969.43,1967.494,2928.551,2021.986,2880.457z"/>
					</g>
				</g>
				<g>
					<g>
						<path style="fill:#000070;" d="M1651.981,3085.097c-44.612,0-86.873-37.544-94.207-83.696l-0.503-2.627
							c-32.766-156.279-58.625-279.614-127.451-419.521c-2.468-5.015-0.955-11.079,3.584-14.346
							c4.539-3.271,10.771-2.778,14.744,1.147c15.654,15.479,94.819,31.494,200.203,31.494c124.072,0,195.54-20.869,201.257-32.72
							c0.193-5.195,3.877-9.634,8.989-10.757c5.259-1.152,10.603,1.509,12.856,6.387c37.612,81.538,85.335,160.649,143.814,255.601
							l0.334,0.552c22.366,35.645,29.57,101.68-15.357,132.5c-0.107,0.073-0.215,0.146-0.325,0.215
							c-99.363,63.335-222.671,112.598-338.308,135.156c-0.305,0.059-0.613,0.107-0.92,0.142
							C1657.862,3084.941,1654.932,3085.097,1651.981,3085.097z M1464.749,2599.443c59.492,130.171,84.207,248.047,114.91,394.497
							l0.334,1.499c0.049,0.22,0.09,0.439,0.127,0.659l0.271,1.68c5.647,35.532,37.759,64.419,71.589,64.419
							c1.948,0,3.872-0.098,5.725-0.288c112.722-22.061,232.866-70.083,329.734-131.792c32.925-22.754,26.199-73.54,8.647-101.509
							l-0.383-0.635c-54.817-89.004-100.298-164.287-137.109-241.045c-47.759,33.076-202.51,33.521-210.244,33.521
							C1582.047,2620.448,1508.604,2613.832,1464.749,2599.443z M1993.765,2939.667h0.049H1993.765z"/>
					</g>
				</g>
				<g>
					<g>
						<g>
							<path style="fill:#000070;" d="M1652.669,3155.966c-78.726,0-151.797-61.699-164.89-143.105
								c-44.946-214.248-73.381-334.185-179.055-505.864c-51.528-75.4-37.668-177.427,30.984-227.583l0.735-0.503
								c107.612-68.784,211.531-110.22,336.943-134.341c91.57-15.503,163.267,60.791,179.902,143.472
								c41.431,197.485,103.362,304.116,218.342,490.815c43.501,69.351,41.951,176.899-36.519,229.561l-0.266,0.171
								c-107.488,68.706-240.974,121.929-366.233,146.021l-0.881,0.142C1665.362,3155.571,1658.995,3155.966,1652.669,3155.966z
								 M1356.246,2302.787c-62.788,46.201-61.233,133.643-23.714,188.306l0.388,0.596
								c108.157,175.625,138.547,303.95,182.952,515.635l0.127,0.698c11.594,73.096,80.979,127.202,151.653,118.384
								c121.653-23.462,251.235-75.146,355.635-141.851c64.099-43.135,64.47-132.485,28.027-190.586
								c-113.489-184.272-179.724-298.306-222.07-500.166c-13.967-69.419-72.673-133.604-146.763-121.06
								C1561.256,2196.064,1460.526,2236.191,1356.246,2302.787z M2031.136,2996.528h0.049H2031.136z"/>
						</g>
					</g>
				</g>
				<g>
					<g>
						<path style="fill:#6B184E;" d="M1345.301,2412.631c-46.304,0-80.493-11.587-91.404-38.945
							c-8.303-20.83-4.893-56.426,58.516-107.749c44.153-35.732,107.395-70.933,178.076-99.116
							c70.684-28.179,140.796-46.147,197.422-50.596c81.323-6.333,108.293,17.104,116.594,37.935v-0.005
							c8.303,20.83,4.893,56.426-58.516,107.744c-44.153,35.732-107.393,70.933-178.076,99.116
							C1489.832,2392.143,1406.864,2412.631,1345.301,2412.631z M1713.563,2151.469c-6.965,0-14.565,0.298-22.813,0.942
							c-53.086,4.17-119.434,21.26-186.819,48.13c-67.383,26.865-127.29,60.112-168.682,93.613
							c-38.64,31.27-51.768,55.723-47.637,66.084c8.821,22.129,108.245,30.303,266.858-32.944
							c67.385-26.865,127.29-60.107,168.684-93.608c38.638-31.274,51.765-55.723,47.634-66.084v-0.005
							C1767.344,2158.959,1748.458,2151.469,1713.563,2151.469z"/>
					</g>
				</g>
				<g>
					<g>
						<path style="fill:#FFC366;" d="M1567.225,2359.227c-156.713,62.477-299.498,73.774-318.872,25.09
							c-0.998-2.45-1.633-5.036-1.951-7.668c0,0-0.045-0.091-0.045-0.272c-1.36-5.399-22.867-92.377-26.723-124.953
							c-4.719-39.836,56.715-101.769,160.344-154.718c21.552-11.025,44.963-21.642,69.963-31.624
							c145.144-57.894,266.331-62.068,295.323-23.23c19.646,26.316,63.838,104.218,66.561,109.073
							c0.091,0.136,0.136,0.227,0.136,0.227c1.587,2.133,2.903,4.447,3.901,6.896c0.272,0.726,0.545,1.406,0.727,2.133
							C1832.015,2209.319,1721.671,2297.658,1567.225,2359.227z"/>
					</g>
				</g>
				<g style="opacity:0.3;">
					<g>
						<path style="fill:#000072;" d="M1567.225,2359.227c-156.713,62.477-299.498,73.774-318.872,25.09
							c-0.998-2.45-1.633-5.036-1.951-7.668c0,0-0.045-0.091-0.045-0.272c-1.36-5.399-22.867-92.377-26.723-124.953
							c-4.719-39.836,56.715-101.769,160.344-154.718c-6.171,63.248-11.615,118.783-11.615,118.783s-77.994,120.053,26.723,131.26
							c122.322,13.157,366.24-87.613,421.503-186.568C1832.015,2209.319,1721.671,2297.658,1567.225,2359.227z"/>
					</g>
				</g>
				<g>
					<g>
						<path style="fill:#000070;" d="M1329.505,2428.637c-48.069,0-83.518-11.572-94.465-39.023
							c-1.167-2.935-2.021-6.025-2.549-9.229l-0.232-0.576l-0.083-1.162c-2.744-11.094-22.93-93.33-26.763-125.522
							c-6.97-58.633,93.638-143.311,239.224-201.357c145.562-58.04,276.814-65.793,312.092-18.457
							c19.507,26.099,61.057,99.111,66.89,109.409l0.916,1.416c1.872,2.739,3.418,5.625,4.607,8.604l0.002,0.005
							c26.248,65.84-112.625,162.383-256.614,219.79C1488.568,2406.01,1396.707,2428.637,1329.505,2428.637z M1260.614,2374.833
							l0.012,0.098c0.178,1.47,0.52,2.842,1.013,4.087c12.444,31.211,132.705,33.726,300.286-33.076
							c167.541-66.802,253.059-151.362,240.625-182.588l0,0c-0.493-1.235-1.191-2.471-2.078-3.662l-1.394-2.212
							c-9.905-17.598-48.23-84.214-65.295-107.046c-22.976-30.825-135.994-28.911-278.54,27.925
							c-142.578,56.851-225.935,133.223-221.396,171.382c3.362,28.242,21.611,104.058,26.265,122.603L1260.614,2374.833z"/>
					</g>
				</g>
				<g>
					<g>
						<path style="fill:#FFEBCA;" d="M1497.126,2172.659c-122.276,48.729-228.809,69.827-237.883,47.005
							c-1.589-3.993-4.9-13.611-8.122-27.223c-13.385-56.488-25.408-181.532,91.923-256.168c-0.68-1.497-1.316-3.085-1.905-4.583
							c-21.87-54.9-87.25-97.05,6.352-134.345c31.533-12.568,50.363-12.341,62.25-4.401c23.502,15.608,20.281,61.115,34.801,97.504
							c0.589,1.543,1.225,3.085,1.769,4.628c169.282-32.94,247.548,127.313,255.806,148.048
							C1711.235,2065.899,1619.403,2123.885,1497.126,2172.659z"/>
					</g>
				</g>
				<g style="opacity:0.2;">
					<g>
						<path style="fill:#000072;" d="M1497.126,2172.659c-122.276,48.729-228.809,69.827-237.883,47.005
							c-1.589-3.993-4.9-13.611-8.122-27.223c67.694-7.759,265.742-39.473,329.308-149.409
							c63.021-108.892-139.836-115.29-176.133-115.29c-34.845,0,35.889-30.081,5.444-134.799
							c23.502,15.608,20.281,61.115,34.801,97.504c0.589,1.543,1.225,3.085,1.769,4.628
							c169.282-32.94,247.548,127.313,255.806,148.048C1711.235,2065.899,1619.403,2123.885,1497.126,2172.659z"/>
					</g>
				</g>
				<g>
					<g>
						<path style="fill:#000070;" d="M1289.21,2242.978c-21.936,0-38.086-5.024-43.259-17.998
							c-0.759-1.904-72.571-187.69,79.27-294.043c-4.839-10.349-11.23-20.461-17.444-30.293
							c-14.404-22.788-29.297-46.353-21.406-70.667c6.028-18.564,23.765-33.164,55.823-45.945
							c32.06-12.781,54.978-14.392,72.124-5.066c22.454,12.212,27.859,39.561,33.086,66.008c2.258,11.426,4.58,23.176,8.181,33.987
							c183.34-27.295,259.075,156.936,259.836,158.84c7.761,19.468-10.398,41.807-58.879,72.441
							c-39.434,24.912-94.163,51.797-154.106,75.693C1473.031,2197.66,1355.064,2242.978,1289.21,2242.978z M1271.971,2212.831
							c13.728,6.558,91.506-2.319,219.858-53.486c128.354-51.177,190.908-98.252,196.35-112.456
							c-7.402-16.973-78.672-168.975-239.121-137.764l-12.031,2.339l-4.167-11.526c-0.5-1.387-1.067-2.8-1.611-4.17
							c-5.933-14.88-9.121-31.011-11.934-45.244c-4.129-20.884-8.027-40.613-18.679-46.406c-8.716-4.741-25.259-2.493-47.837,6.511
							c-22.578,9.002-36.13,18.748-39.194,28.189c-3.745,11.533,7,28.533,18.374,46.528c7.752,12.263,16.536,26.165,22.468,41.04
							c0.562,1.411,1.113,2.8,1.694,4.128l4.922,11.235l-10.349,6.585C1212.791,2036.083,1265.662,2195.419,1271.971,2212.831z
							 M1688.822,2048.398c0,0.005,0.002,0.005,0.002,0.01l0,0C1688.824,2048.403,1688.822,2048.403,1688.822,2048.398z"/>
					</g>
				</g>
				<g>
					<g>
						<path style="fill:#FFFFFF;" d="M1861.052,2565.26c0,21.416-74.909,39.247-173.773,42.967
							c-12.613,0.499-25.635,0.771-38.929,0.771c-102.586,0-188.156-14.927-208.255-34.8c-1.452-2.995-2.904-5.944-4.447-8.938
							v-0.045c0.091-16.924,46.869-31.624,115.199-38.884c29.219-3.085,62.386-4.855,97.504-4.855
							c103.81,0,190.288,15.291,208.937,35.572C1858.558,2559.815,1859.783,2562.538,1861.052,2565.26z"/>
					</g>
				</g>
				<g>
					<g>
						<path style="fill:#FFEBCA;" d="M1687.28,2608.227c-12.613,0.499-25.635,0.771-38.929,0.771
							c-102.586,0-188.156-14.927-208.255-34.8c-1.452-2.995-2.904-5.944-4.447-8.938v-0.045
							c0.091-16.924,46.869-31.624,115.199-38.884C1532.198,2547.52,1524.622,2586.539,1687.28,2608.227z"/>
					</g>
				</g>
				<g>
					<g>
						<path style="fill:#000070;" d="M1648.35,2620.448c-88.484,0-189.685-11.782-216.306-38.105
							c-0.923-0.913-1.685-1.978-2.251-3.145c-1.414-2.91-2.827-5.781-4.329-8.701c-0.835-1.621-1.27-3.418-1.27-5.239
							c0.308-54.609,215.015-55.234,224.155-55.234c90.22,0,192.419,12.139,217.366,39.268c0.811,0.884,1.477,1.885,1.978,2.974
							l1.384,3.032c0.784,1.714,1.56,3.418,2.354,5.117c0.708,1.519,1.074,3.169,1.074,4.844
							C1872.506,2619.823,1657.503,2620.448,1648.35,2620.448z M1449.429,2567.206c18.313,15.112,96.15,30.342,198.921,30.342
							c119.907,0,190.681-19.492,200.459-31.494c-0.19-0.42-0.381-0.835-0.571-1.255l-0.508-1.108
							c-17.017-15.313-94.744-30.767-199.38-30.767c-119.536,0-190.19,19.365-200.347,31.392
							C1448.482,2565.278,1448.956,2566.24,1449.429,2567.206z"/>
					</g>
				</g>
				<g>
					<g>
						<path style="fill:#FFFFFF;" d="M1344.512,1975.391c0,0-83.659,55.024-62.987,191.095c8.274,0,18.153-67.002,55.766-114.764
							c27.771-35.264,49.656-42.035,55.795-57.115C1402.215,1972.183,1378.675,1948.168,1344.512,1975.391z"/>
					</g>
				</g>
				<g>
					<g>
						<path style="fill:#FFFFFF;" d="M1399.492,2255.361c0,0,259.953-61.919,327.744-177.75
							C1727.235,2077.611,1708.553,2208.921,1399.492,2255.361z"/>
					</g>
				</g>
				<g style="opacity:0.5;">
					<g>
						<path style="fill:#FFFFFF;" d="M1782.405,2387.73c-77.63,37.507,28.634,369.521,170.621,397.812
							c63.866,12.725-16.014-91.856-66.189-211.344C1843.387,2470.728,1833.549,2363.02,1782.405,2387.73z"/>
					</g>
				</g>
				<g>
					<g>
						<g>
							<path style="fill:#000070;" d="M1482.298,2588.007c-3.777,0-7.302-2.373-8.589-6.147c-1.619-4.741,0.916-9.902,5.659-11.519
								l105.024-35.825c4.751-1.616,9.902,0.913,11.518,5.659c1.619,4.741-0.915,9.902-5.659,11.519l-105.025,35.825
								C1484.256,2587.851,1483.27,2588.007,1482.298,2588.007z"/>
						</g>
					</g>
					<g>
						<g>
							<path style="fill:#000070;" d="M1505.98,2657.431c-3.777,0-7.302-2.373-8.589-6.147c-1.619-4.741,0.916-9.902,5.659-11.519
								l64.675-22.061c4.751-1.621,9.902,0.918,11.519,5.659c1.619,4.741-0.916,9.902-5.659,11.519l-64.675,22.061
								C1507.938,2657.275,1506.951,2657.431,1505.98,2657.431z"/>
						</g>
					</g>
					<g>
						<g>
							<path style="fill:#6B184E;" d="M1529.661,2726.855c-3.777,0-7.302-2.373-8.589-6.147c-1.619-4.741,0.916-9.902,5.659-11.519
								l105.024-35.825c4.753-1.611,9.902,0.918,11.519,5.659c1.619,4.741-0.916,9.902-5.659,11.519l-105.024,35.825
								C1531.619,2726.698,1530.633,2726.855,1529.661,2726.855z"/>
						</g>
					</g>
					<g>
						<g>
							<path style="fill:#6B184E;" d="M1553.34,2796.279c-3.777,0-7.302-2.373-8.589-6.147c-1.619-4.741,0.916-9.897,5.659-11.519
								l64.678-22.065c4.741-1.611,9.902,0.913,11.518,5.659c1.619,4.741-0.915,9.897-5.659,11.519l-64.678,22.065
								C1555.301,2796.122,1554.312,2796.279,1553.34,2796.279z"/>
						</g>
					</g>
					<g>
						<g>
							<path style="fill:#000070;" d="M1577.022,2865.698c-3.777,0-7.302-2.373-8.589-6.147c-1.619-4.741,0.915-9.902,5.659-11.519
								l105.024-35.825c4.748-1.611,9.905,0.918,11.519,5.659c1.619,4.741-0.916,9.902-5.659,11.519l-105.024,35.825
								C1578.98,2865.541,1577.994,2865.698,1577.022,2865.698z"/>
						</g>
					</g>
					<g>
						<g>
							<path style="fill:#6B184E;" d="M1600.704,2935.121c-3.777,0-7.302-2.373-8.589-6.147c-1.619-4.741,0.916-9.902,5.659-11.519
								l64.675-22.061c4.749-1.616,9.905,0.913,11.519,5.659c1.619,4.741-0.916,9.902-5.659,11.519l-64.675,22.061
								C1602.662,2934.965,1601.676,2935.121,1600.704,2935.121z"/>
						</g>
					</g>
					<g>
						<g>
							<path style="fill:#000070;" d="M1529.661,2726.855c-3.777,0-7.302-2.373-8.589-6.147c-1.619-4.741,0.916-9.902,5.659-11.519
								l105.024-35.825c4.753-1.611,9.902,0.918,11.519,5.659c1.619,4.741-0.916,9.902-5.659,11.519l-105.024,35.825
								C1531.619,2726.698,1530.633,2726.855,1529.661,2726.855z"/>
						</g>
					</g>
					<g>
						<g>
							<path style="fill:#000070;" d="M1600.704,2935.121c-3.777,0-7.302-2.373-8.589-6.147c-1.619-4.741,0.916-9.902,5.659-11.519
								l64.675-22.061c4.749-1.616,9.905,0.913,11.519,5.659c1.619,4.741-0.916,9.902-5.659,11.519l-64.675,22.061
								C1602.662,2934.965,1601.676,2935.121,1600.704,2935.121z"/>
						</g>
					</g>
					<g>
						<g>
							<path style="fill:#6B184E;" d="M1624.383,3004.545c-3.777,0-7.302-2.373-8.589-6.147c-1.619-4.741,0.916-9.902,5.659-11.519
								l105.024-35.825c4.754-1.621,9.902,0.913,11.519,5.659c1.619,4.741-0.916,9.902-5.659,11.519l-105.024,35.825
								C1626.341,3004.389,1625.355,3004.545,1624.383,3004.545z"/>
						</g>
					</g>
					<g>
						<g>
							<path style="fill:#000070;" d="M1553.34,2796.279c-3.777,0-7.302-2.373-8.589-6.147c-1.619-4.741,0.916-9.897,5.659-11.519
								l64.678-22.065c4.741-1.611,9.902,0.913,11.518,5.659c1.619,4.741-0.915,9.897-5.659,11.519l-64.678,22.065
								C1555.301,2796.122,1554.312,2796.279,1553.34,2796.279z"/>
						</g>
					</g>
					<g>
						<g>
							<path style="fill:#000070;" d="M1624.383,3004.545c-3.777,0-7.302-2.373-8.589-6.147c-1.619-4.741,0.916-9.902,5.659-11.519
								l105.024-35.825c4.754-1.621,9.902,0.913,11.519,5.659c1.619,4.741-0.916,9.902-5.659,11.519l-105.024,35.825
								C1626.341,3004.389,1625.355,3004.545,1624.383,3004.545z"/>
						</g>
					</g>
				</g>
				<g>
					<g>
						<path style="fill:#5F5E73;" d="M1597.426,2831.634c-29.719,69.873-150.361,83.983-215.198,32.032
							c-27.541-22.051-58.847-78.356-75.272-140.425c-18.103-68.239-18.194-143.374,24.546-187.612
							c0,0,154.219-33.62,200.997,14.564c15.789,16.243,22.187,33.893,23.502,51.361c3.812,50.408-34.073,99.908-9.3,113.701
							C1580.094,2733.813,1629.186,2756.816,1597.426,2831.634z"/>
					</g>
				</g>
				<g style="opacity:0.5;">
					<g>
						<path style="fill:#FFFFFF;" d="M1556.274,2609.494c-3.221-5.399-7.304-10.708-12.296-15.835
							c-24.125-24.85-76.827-27.942-122.213-25.109c-66.185,4.132-117.208,60.136-114.629,126.4
							c0.64,16.432,2.811,33.221,6.172,49.842c-2.315-7.078-4.446-14.292-6.353-21.552
							c-18.103-68.239-18.194-143.374,24.546-187.612c0,0,154.219-33.62,200.997,14.564c15.789,16.243,22.187,33.893,23.502,51.361
							C1556.183,2604.186,1556.274,2606.863,1556.274,2609.494z"/>
					</g>
				</g>
				<g style="opacity:0.3;">
					<g>
						<path style="fill:#000072;" d="M1597.426,2831.634c-29.719,69.873-150.361,83.983-215.198,32.032
							c-27.541-22.051-58.847-78.356-75.272-140.425c28.221,30.762,66.379,57.032,112.749,52.949
							c80.081-7.078,85.888-79.083,99.001-109.936c6.896-16.288,25.18-38.838,37.294-64.7c3.812,50.408-34.073,99.908-9.3,113.701
							C1580.094,2733.813,1629.186,2756.816,1597.426,2831.634z"/>
					</g>
				</g>
				<g>
					<g>
						<path style="fill:#000070;" d="M1479.163,2913.11c-40.212,0-79.736-12.422-108.271-35.293
							c-40.252-32.256-87.219-127.715-92.981-218.403c-3.682-57.969,10.344-105.137,40.562-136.401l3.816-3.95l5.366-1.167
							c16.79-3.657,165.561-34.229,217.854,19.648c43.442,44.761,27.747,97.881,17.358,133.027
							c-2.864,9.692-7.104,24.043-6.487,29.307l3.318,1.831c31.902,17.559,91.282,50.239,54.414,137.031
							c-14.224,33.486-45.735,57.891-88.733,68.721C1510.269,2911.264,1494.661,2913.11,1479.163,2913.11z M1340.982,2552.177
							c-25.674,29.937-28.86,73.232-26.846,104.937c4.929,77.612,46.016,165.581,79.456,192.383
							c30.981,24.834,79.226,33.779,122.92,22.764c31.719-7.988,54.517-24.932,64.192-47.71
							c24.048-56.611-4.941-72.568-38.506-91.04l-4.304-2.378c-26.433-14.688-17.615-44.521-9.837-70.85
							c9.409-31.836,20.073-67.92-8.594-97.456C1491.451,2533.959,1397.591,2540.693,1340.982,2552.177z"/>
					</g>
				</g>
				<g>
					<g>
						<path style="fill:#FFFFFF;" d="M2239.617,2665.937c-2.042,6.67-4.219,13.158-6.624,19.51
							c-38.521,103.039-122.186,165.652-212.975,189.109c-64.745,16.697-133.029,13.566-191.196-9.029
							c-112.204-43.647-37.704-119.237-42.422-149.273c-4.13-25.907-73.276-61.252-72.867-111.841
							c0.045-7.985,1.905-16.379,5.988-25.181c27.95-59.891,123.819-33.53,232.439-69.419
							c36.888-12.205,75.272-31.579,112.976-64.019c14.7-12.659,19.918,46.46,34.301,29.492L2239.617,2665.937z"/>
					</g>
				</g>
				<g>
					<g>
						<path style="fill:#5F5E73;" d="M2040.027,2751.735c0,43.284-7.078,84.709-20.01,122.821
							c-64.745,16.697-133.029,13.566-191.196-9.029c-112.204-43.647-37.704-119.237-42.422-149.273
							c-3.494-22.141-54.673-51.27-69.102-90.879c-5.081-14.02-5.581-29.355,2.223-46.143
							c27.95-59.891,123.819-33.53,232.439-69.419c9.71,11.025,18.739,22.822,27.042,35.299
							C2017.296,2602.462,2040.027,2674.058,2040.027,2751.735z"/>
					</g>
				</g>
				<g style="opacity:0.5;">
					<g>
						<path style="fill:#FFFFFF;" d="M1979.002,2545.112c-34.936,12.522-90.018,27.087-160.98,29.083
							c-60.343,1.724-87.703,27.177-100.725,51.179c-5.081-14.02-5.581-29.355,2.223-46.143
							c27.95-59.891,123.819-33.53,232.439-69.419C1961.67,2520.838,1970.699,2532.635,1979.002,2545.112z"/>
					</g>
				</g>
				<g style="opacity:0.3;">
					<g>
						<path style="fill:#000072;" d="M2232.992,2685.447c-38.521,103.039-122.186,165.652-212.975,189.109
							c-64.745,16.697-133.029,13.566-191.196-9.029c-112.204-43.647-37.704-119.237-42.422-149.273
							c-4.13-25.907-73.276-61.252-72.867-111.841c24.364,25,62.023,56.624,112.113,78.221
							c74.772,32.305,9.981,104.808,156.94,108.12C2100.87,2793.431,2195.243,2723.785,2232.992,2685.447z"/>
					</g>
				</g>
				<g>
					<g>
						<path style="fill:#000070;" d="M2068.906,2454.299c-16.74,21.089-38.301,38.186-61.927,51.514
							c-23.704,13.33-49.52,22.476-75.456,29.678c-26.072,6.797-52.495,11.191-78.436,14.06
							c-25.781,3.079-51.575,4.922-74.142,10.164c-11.206,2.607-21.3,6.289-28.854,11.453c-7.295,5.273-12.365,12.195-15.625,21.211
							c-3.021,8.65-2.994,16.948-0.031,25.862c2.96,8.906,9.099,18.081,16.491,26.96c7.462,8.933,16.287,17.549,25.529,26.848
							c4.633,4.695,9.401,9.524,14.23,15.31c2.405,2.898,4.843,6.045,7.238,9.873c2.321,3.972,4.837,8.247,6.149,14.885
							c1.203,6.453,0.587,12.178-0.229,16.426c-0.847,4.39-1.948,8.154-3.084,11.621c-2.285,6.929-4.697,12.974-6.865,18.843
							c-4.338,11.626-7.886,22.556-8.707,32.463c-0.823,9.924,0.748,18.237,5.433,25.647c4.67,7.422,12.349,14.275,21.814,19.866
							c9.513,5.576,20.147,10.249,31.66,13.992c5.589,2.148,11.472,3.506,17.189,5.305c5.865,1.331,11.647,2.988,17.591,4.006
							c23.64,4.622,47.93,6.323,72.117,5.107c24.182-1.133,48.298-4.951,71.556-11.729c46.594-13.267,89.959-37.358,125.046-70.464
							c17.559-16.572,32.487-35.674,45.757-55.92c13.472-20.195,25.264-41.584,37.555-63.987l0.052-0.095
							c2.457-4.48,8.08-6.118,12.559-3.66c3.348,1.836,5.106,5.449,4.756,9.023c-2.671,26.838-11.702,52.935-24.784,76.816
							c-13.25,23.845-30.542,45.388-49.832,64.736c-39.025,38.384-88.027,66.289-140.474,80.903
							c-26.177,7.551-53.243,11.797-80.453,13.013c-27.217,1.372-54.611-1.013-81.419-6.487c-6.726-1.243-13.33-3.162-19.982-4.78
							c-6.542-2.092-13.201-3.76-19.62-6.267c-12.892-4.377-25.974-10.095-38.568-17.686c-12.499-7.612-25.054-17.866-34.041-32.334
							c-4.527-7.146-7.689-15.459-9.381-23.794c-1.707-8.367-1.902-16.758-1.158-24.619c1.519-15.808,6.451-29.49,11.086-41.902
							c2.333-6.182,4.694-12.09,6.459-17.375c0.89-2.637,1.563-5.066,1.946-6.992c0.436-2.051,0.251-2.854,0.32-2.729
							c0.198,0.256-0.438-1.238-1.362-2.769c-0.993-1.641-2.481-3.613-4.21-5.64c-3.438-4.075-7.718-8.416-12.16-12.837
							c-8.939-8.892-18.667-18.167-27.805-28.916c-9.036-10.796-17.969-23.069-23.414-38.601
							c-5.557-15.364-5.995-34.155-0.482-49.861c2.675-7.715,6.169-15.261,11.221-22.168c4.752-7.1,11.212-12.915,17.794-18.015
							c13.628-9.609,28.256-14.595,41.979-18.01c13.829-3.318,27.166-5.142,40.218-6.772l38.438-4.414
							c25.157-3.059,49.729-6.431,73.548-12.349c11.909-2.891,23.633-6.311,35.12-10.352c11.446-4.136,22.677-8.796,33.714-13.921
							c22.195-10.085,43.663-21.812,66.196-33.982l0.098-0.051c4.496-2.429,10.109-0.752,12.538,3.743
							C2071.611,2447.505,2071.132,2451.487,2068.906,2454.299z"/>
					</g>
				</g>
				<g>
					<g>
						<g>
							<g>
								<g>
									<path style="fill:#000072;" d="M1622.71,1392.567c-62.478-10.619-120.745,59.31-130.145,156.187
										c-9.4,96.878,33.629,184.021,96.108,194.64c62.476,10.618,120.746-59.308,130.145-156.187
										C1728.218,1490.329,1685.187,1403.185,1622.71,1392.567z"/>
								</g>
							</g>
						</g>
					</g>
					<g>
						<g>
							<g>
								<g>
									<path style="fill:#FFFFFF;" d="M1618.02,1433.102c-19.99,7.717-28.81,40.351-19.699,72.891
										c9.11,32.54,32.699,52.661,52.689,44.944c19.989-7.716,28.809-40.351,19.698-72.889
										C1661.599,1445.507,1638.011,1425.384,1618.02,1433.102z"/>
								</g>
								<g>
									<path style="fill:#000072;" d="M1642.178,1555.695c-4.768,0-9.651-1.216-14.47-3.63c-14.36-7.2-26.465-24.109-32.38-45.234
										c-9.517-33.987,0.161-68.362,21.575-76.629c7.72-2.983,16.162-2.366,24.424,1.775
										c14.358,7.197,26.462,24.109,32.375,45.234c9.517,33.987-0.159,68.362-21.572,76.626
										C1648.917,1555.077,1645.577,1555.695,1642.178,1555.695z M1626.842,1434.572c-2.647,0-5.229,0.476-7.7,1.431
										c-18.508,7.144-26.504,38.167-17.827,69.153c5.452,19.465,16.36,34.924,29.18,41.352c6.65,3.333,13.357,3.865,19.399,1.528
										c18.503-7.141,26.499-38.162,17.822-69.15c-5.449-19.468-16.355-34.927-29.175-41.353
										C1634.613,1435.563,1630.662,1434.572,1626.842,1434.572z"/>
								</g>
							</g>
						</g>
					</g>
					<g>
						<g>
							<g>
								<g>
									<path style="fill:#B199C5;" d="M1549.442,1638.449c-9.488,6.918-10.768,25.127-2.861,40.67
										c7.906,15.544,22.008,22.537,31.494,15.618c9.487-6.916,10.768-25.126,2.861-40.668
										C1573.031,1638.525,1558.928,1631.532,1549.442,1638.449z"/>
								</g>
								<g>
									<path style="fill:#000072;" d="M1569.896,1700.519c-1.484,0-3.008-0.183-4.556-0.554
										c-8.301-1.987-16.35-9.253-21.531-19.438c-8.701-17.107-7.031-36.692,3.801-44.59c4.187-3.054,9.226-4.001,14.57-2.715
										c8.301,1.99,16.348,9.255,21.526,19.438c8.701,17.104,7.031,36.689-3.801,44.587
										C1576.932,1699.416,1573.531,1700.519,1569.896,1700.519z M1557.625,1638.884c-2.327,0-4.456,0.693-6.353,2.078
										c-8.152,5.942-9.031,22.771-1.921,36.748c4.365,8.581,10.884,14.641,17.434,16.211c3.569,0.857,6.746,0.281,9.458-1.697
										c8.152-5.942,9.033-22.771,1.921-36.746c-4.363-8.579-10.879-14.641-17.432-16.211
										C1559.661,1639.01,1558.626,1638.884,1557.625,1638.884z"/>
								</g>
							</g>
						</g>
					</g>
				</g>
				<g>
					<g>
						<g>
							<g>
								<g>
									<path style="fill:#000072;" d="M2205.101,1392.567c62.478-10.619,120.746,59.31,130.145,156.187
										c9.4,96.878-33.629,184.021-96.108,194.64c-62.477,10.618-120.746-59.308-130.145-156.187
										C2099.593,1490.329,2142.624,1403.185,2205.101,1392.567z"/>
								</g>
							</g>
						</g>
					</g>
					<g>
						<g>
							<g>
								<g>
									<path style="fill:#FFFFFF;" d="M2209.791,1433.102c19.99,7.717,28.81,40.351,19.699,72.891
										c-9.11,32.54-32.699,52.661-52.689,44.944c-19.989-7.716-28.809-40.351-19.698-72.889
										C2166.212,1445.507,2189.8,1425.384,2209.791,1433.102z"/>
								</g>
								<g>
									<path style="fill:#000072;" d="M2185.633,1555.695c-3.398,0-6.738-0.618-9.951-1.858
										c-21.414-8.264-31.089-42.639-21.572-76.626c5.913-21.125,18.018-38.037,32.375-45.234
										c8.257-4.141,16.699-4.758,24.424-1.775c21.411,8.267,31.089,42.642,21.575,76.629
										c-5.916,21.125-18.02,38.035-32.38,45.234C2195.284,1554.479,2190.399,1555.695,2185.633,1555.695z M2200.97,1434.572
										c-3.821,0-7.769,0.991-11.699,2.961c-12.82,6.426-23.726,21.885-29.175,41.353c-8.677,30.989-0.681,62.009,17.822,69.15
										c6.047,2.336,12.751,1.804,19.399-1.528c12.82-6.428,23.728-21.887,29.18-41.352c8.674-30.989,0.679-62.009-17.827-69.153
										C2206.199,1435.048,2203.616,1434.572,2200.97,1434.572z"/>
								</g>
							</g>
						</g>
					</g>
					<g>
						<g>
							<g>
								<g>
									<path style="fill:#B199C5;" d="M2278.369,1638.449c9.488,6.918,10.768,25.127,2.861,40.67
										c-7.906,15.544-22.008,22.537-31.494,15.618c-9.487-6.916-10.768-25.126-2.861-40.668
										C2254.781,1638.525,2268.883,1631.532,2278.369,1638.449z"/>
								</g>
								<g>
									<path style="fill:#000072;" d="M2257.916,1700.519c-3.635,0-7.036-1.104-10.01-3.271
										c-10.833-7.898-12.502-27.483-3.801-44.587c5.178-10.183,13.225-17.451,21.526-19.438
										c5.337-1.275,10.378-0.339,14.568,2.715c10.835,7.898,12.505,27.483,3.801,44.59
										c-5.181,10.183-13.228,17.451-21.526,19.438C2260.924,1700.336,2259.4,1700.519,2257.916,1700.519z M2270.186,1638.884
										c-1.001,0-2.036,0.127-3.108,0.383c-6.55,1.57-13.069,7.629-17.432,16.211c-7.112,13.975-6.23,30.803,1.921,36.746
										c2.71,1.978,5.891,2.554,9.458,1.697c6.55-1.57,13.069-7.629,17.432-16.211c7.112-13.977,6.233-30.806-1.921-36.748l0,0
										C2274.639,1639.577,2272.513,1638.884,2270.186,1638.884z"/>
								</g>
							</g>
						</g>
					</g>
				</g>
			</g>
		</g>
		<g>
			<g>
				<g>
					<path style="fill:#FF0068;" d="M2857.723,1683.625c-18.858-35.103-26.819-76.425-20.068-118.814
						c16.388-102.888,113.079-173.01,215.967-156.622c102.887,16.387,173.01,113.079,156.622,215.967
						s-113.079,173.01-215.967,156.622c-28.618-4.558-54.689-15.345-77.081-30.734l-88.252,14.694L2857.723,1683.625z"/>
				</g>
			</g>
			<g style="opacity:0.5;">
				<g>
					<g>
						<path style="fill:#FFFFFF;" d="M3047.915,1444.018c-96.111-15.308-186.794,44.883-211.683,136.745
							c0.346-6.641,1.006-13.325,2.075-20.04c16.387-102.888,113.078-173.01,215.966-156.622
							c102.888,16.387,173.01,113.079,156.622,215.966c-1.074,6.745-2.513,13.339-4.256,19.787
							C3211.569,1544.768,3144.058,1459.332,3047.915,1444.018z"/>
					</g>
				</g>
			</g>
			<g>
				<g>
					<path style="fill:#000070;" d="M3024.068,1798.823c-10.645,0-21.418-0.835-32.256-2.561
						c-28.137-4.482-54.392-14.477-78.14-29.736l-82.151,13.677c-5.464,0.908-11.025-1.138-14.592-5.398
						c-3.567-4.255-4.617-10.078-2.759-15.31l26.506-74.717c-18.823-38.064-25.225-80.239-18.506-122.432
						c17.722-111.26,122.644-187.361,233.916-169.641c111.262,17.722,187.361,122.656,169.641,233.916
						C3209.732,1727.043,3122.684,1798.823,3024.068,1798.823z M2917.198,1734.365c3.152,0,6.25,0.95,8.879,2.756
						c21.262,14.612,45.037,24.092,70.667,28.174c94.209,15.017,183.015-49.421,198.018-143.606
						c15-94.185-49.421-183.015-143.606-198.018c-94.185-14.995-183.015,49.417-198.018,143.606
						c-6.001,37.686,0.361,75.354,18.396,108.928c2.095,3.896,2.444,8.494,0.964,12.661l-19.878,56.033l62.002-10.322
						C2915.479,1734.435,2916.341,1734.365,2917.198,1734.365z"/>
				</g>
			</g>
			<g style="opacity:0.3;">
				<g>
					<path style="fill:#371A45;" d="M2856.767,1681.757c49.16,46.509,119.168,69.577,190.724,55.941
						c79.356-15.122,140.346-71.513,165.118-142.695c-0.038,9.619-0.804,19.356-2.364,29.151
						c-16.387,102.888-113.079,173.009-215.967,156.622c-28.618-4.558-54.689-15.345-77.081-30.734l-88.252,14.694l28.778-81.112
						C2857.393,1683.009,2857.091,1682.377,2856.767,1681.757z"/>
				</g>
			</g>
			<g>
				<g>
					<path style="fill:#FFFFFF;" d="M2963.463,1541.489L2963.463,1541.489c16.325-16.326,42.794-13.4,59.12,2.925l2.541,2.541
						l2.541-2.541c16.325-16.326,42.794-19.251,59.119-2.925h0c16.325,16.325,16.325,42.794,0,59.12l-2.541,2.541l-51.327,51.327
						c-4.304,4.304-11.282,4.304-15.586,0l-51.327-51.327l-2.541-2.541C2947.137,1584.283,2947.137,1557.815,2963.463,1541.489z"/>
				</g>
			</g>
		</g>
	</g>
</g>
</svg>
