<?xml version="1.0" encoding="utf-8"?>
<!-- Generator: Adobe Illustrator 27.5.0, SVG Export Plug-In . SVG Version: 6.00 Build 0)  -->
<svg version="1.1" id="Layer_1" xmlns="http://www.w3.org/2000/svg" xmlns:xlink="http://www.w3.org/1999/xlink" x="0px" y="0px"
	 viewBox="0 0 4000 4000" style="enable-background:new 0 0 4000 4000;" xml:space="preserve">
<g>
	<g>
		<rect style="fill:#FFCAEC;" width="4000" height="4000"/>
	</g>
	<g>
		<g style="opacity:0.2;">
			<ellipse style="fill:#3B087B;" cx="2005.308" cy="3392.526" rx="1137.326" ry="107.474"/>
		</g>
		<g>
			<path style="fill:#FFC278;" d="M3344.552,3002.796l18.222,25.554c0,0-61.833,120.382-225.17,169.629l22.709,36.497
				c0,0-268.835,74.309-424.402-24.842l99.917-143.474c16.361,0.985,32.229,0.93,47.66-0.164
				c226.264-15.924,350.695-254.061,273.705-641.745c-6.02-30.314,22.38-56.142,51.928-47.004
				c58.714,18.167,115.403,71.737,148.344,154.417c0,0.055,0,0.055,0,0.109c22.544,56.579,33.926,126.675,27.196,208.37
				l54.719-10.944C3439.38,2729.201,3428.436,2911.635,3344.552,3002.796z"/>
		</g>
		<g style="opacity:0.6;">
			<path style="fill:#F1F2F2;" d="M3191.831,2424.252c76.989,387.685-47.442,625.822-273.705,641.745
				c-13.625,0.985-27.579,1.149-41.916,0.438c2.463-0.109,4.871-0.274,7.278-0.438c226.264-15.924,350.695-254.061,273.705-641.745
				c-6.02-30.314,22.38-56.142,51.928-47.004c1.915,0.602,3.775,1.204,5.691,1.86
				C3198.616,2386.605,3187.891,2404.443,3191.831,2424.252z"/>
		</g>
		<g>
			<path style="fill:#FFC278;" d="M2676.979,3247.227c0,0,7.168,12.038,12.968,28.946v0.055
				c12.039,35.021,18.167,90.943-56.744,105.061c-91.161,17.182-427.028,15.376-545.549,14.172
				c-30.588-0.274-58.44-18.057-71.244-45.8c-13.133-28.454-14.063-53.898-5.691-75.676c8.427-21.833,26.156-39.945,50.396-53.844
				c-10.725-3.448-21.34-6.895-31.791-10.397c-874.575-295.209-799.5-958.459-794.193-1054.108
				c1.751-31.573,7.387-80.765,14.227-133.077c14.446-110.806,34.364-235.511,34.364-235.511l8.755-225.169l660.295,30.643
				c15.65,333.896,202.023,537.505,465.769,737.613c47.551,36.06,96.907,69.767,148.179,100.3
				C2887.373,2621.733,2970.82,3100.798,2676.979,3247.227z"/>
		</g>
		<g style="opacity:0.6;">
			<path style="fill:#F1F2F2;" d="M2807.156,3127.611c94.828-205.416-11.71-519.886-256.852-666.15
				c-51.272-30.533-100.629-64.24-148.179-100.3c-263.746-200.108-450.119-403.717-465.769-737.613l-645.138-29.931l1.258-31.737
				l660.295,30.643c15.65,333.896,202.023,537.505,465.769,737.613c47.551,36.06,96.907,69.767,148.179,100.3
				C2824.611,2584.25,2929.07,2924.22,2807.156,3127.611z"/>
		</g>
		<g style="opacity:0.3;">
			<path style="fill:#3B087B;" d="M2265.546,3182.056l-104.569,15.924l-131.654,11.764
				c-874.575-295.209-799.5-958.459-794.193-1054.108c1.751-31.573,7.387-80.765,14.227-133.077l0.766-0.711l171.216,25.007
				l139.424,169.355c0,146.373-226.209,189.164-259.041,9.576c-31.409,292.528,321.038,890.334,344.567,400.927l26.593,226.537
				l344.128-71.518v191.9c0,0,56.415,29.931,84.595-10.561C2101.607,2963.071,2153.317,3145.996,2265.546,3182.056z"/>
		</g>
		<g>
			<path style="fill:#FFC278;" d="M1572.528,2966.025c0,0-0.382,1.861-1.204,5.253c-8.973,39.781-67.851,293.458-118.247,369.573
				c-54.719,82.68-198.795,70.533-267.632,62.817c-68.836-7.66-100.792-65.225-77.098-124.541
				c23.747-59.261,102.16-62.927,102.16-62.927c38.905-110.587,48.426-289.737,50.999-501.883
				c0.711-60.738,0.82-124.267,0.93-189.602c0-11.327,0.055-22.763,0.055-34.199c7.879,29.931,17.674,60.902,29.876,92.53
				c21.177,55.266,49.466,112.557,87.168,169.793c43.173,65.608,98.767,131.162,169.957,193.541
				C1556.989,2953.002,1564.649,2959.514,1572.528,2966.025z"/>
		</g>
		<g>
			<path style="fill:#3B087B;" d="M2070.632,3236.76c-7.625,4.507-14.78,9.497-21.152,15.063
				c-6.194,5.686-11.526,11.919-15.635,18.621c-8.464,13.352-10.735,28.823-8.372,44.807c1.536,7.996,3.752,16.116,7.378,24.06
				c3.069,7.595,7.249,13.525,12.583,19.075c10.667,10.759,25.537,17.468,40.798,17.842l59.529,0.544l60.02,0.234
				c40.012,0.051,80.017-0.049,120.002-0.388c79.902-0.872,160.037-2.024,239.099-7.175c9.792-0.823,19.783-1.282,29.399-2.424
				l14.536-1.506c4.827-0.525,9.358-1.37,14.05-2.029l6.968-1.057l6.331-1.431c2.166-0.393,4.089-1.121,6.104-1.707
				c2.024-0.583,4.014-1.199,5.815-2.017c7.549-2.893,14.014-6.78,18.723-11.521c4.688-4.766,8.032-10.217,9.661-17.031
				c1.738-6.721,2.056-14.524,0.991-22.72c-0.955-8.176-3.186-16.67-6.123-25.044c-1.506-4.185-3.174-8.352-5.02-12.441
				c-0.925-2.041-1.885-4.07-2.883-6.045c-0.942-1.899-2.148-4.116-2.903-5.432l-0.151-0.261c-5.271-9.18-2.104-20.894,7.073-26.165
				c0.308-0.176,0.671-0.371,0.984-0.527c36.519-18.237,69.111-43.555,95.122-74.585c25.959-31.021,45.842-67.339,57.751-106.533
				c12.122-39.124,17.507-80.481,17.253-121.907c-0.256-41.458-6.104-83.02-16.516-123.445
				c-20.901-80.894-59.81-157.285-112.156-222.563c-26.191-32.642-55.811-62.507-88.315-88.752
				c-7.908-6.846-16.45-12.859-24.902-18.992c-4.246-3.035-8.386-6.228-12.712-9.141l-13.196-8.42l-13.184-8.433l-14.001-8.477
				c-9.351-5.681-18.611-11.501-27.825-17.388c-36.843-23.582-72.644-48.694-107.454-75.049
				c-34.648-26.243-68.799-53.213-102.168-81.287c-66.592-56.201-130.527-116.653-185.925-185.2
				c-27.644-34.243-53.479-70.176-75.901-108.311c-22.5-38.064-42.08-77.964-58.035-119.302
				c-31.702-82.817-48.586-170.881-52.634-258.884l18.242,18.235l-660.293-30.642l20.024-18.386l-8.755,225.166
				c-0.027,0.72-0.095,1.428-0.2,2.124l-0.024,0.151c-11.885,75.552-23.198,151.377-33.247,227.131
				c-4.961,37.864-9.712,75.815-13.142,113.442c-0.942,9.482-1.409,18.569-2.119,28.093l-1.787,28.689
				c-1.135,18.865-1.646,37.651-1.753,56.465c-0.645,150.327,34.448,301.101,106.179,433.062l6.572,12.437l7.209,12.083
				l14.409,24.17c4.81,8.054,10.376,15.632,15.52,23.474c5.295,7.744,10.369,15.645,15.837,23.267l17.034,22.424
				c5.796,7.383,11.06,15.181,17.371,22.158l18.293,21.431c6.084,7.156,12.085,14.385,18.76,21.018
				c51.086,55.173,108.73,104.253,170.483,147.6c62.126,42.917,128.425,79.746,196.819,112.2l51.77,23.433
				c17.515,7.241,35.234,14.026,52.839,21.064l26.46,10.442l26.931,9.243l53.86,18.503l-15.347,1.633
				c19.163-10.803,39.395-18.21,59.829-23.477c20.457-5.244,41.184-8.311,61.902-9.775c41.453-2.83,82.869,0.562,123.279,8.752
				l-13.313,35.95c-17.439-9.597-34.451-20.066-50.823-31.587c-16.333-11.58-31.96-24.268-46.685-38.022
				c-29.49-27.429-54.956-59.822-73.826-95.955c-18.972-36.047-31.16-75.842-35.251-116.428
				c-4.25-40.581-0.225-81.875,11.396-120.754c11.509-38.911,31.14-75.398,57.617-105.942
				c26.265-30.718,59.878-54.958,96.917-70.024c37.063-15.071,77.275-20.908,116.282-18.057
				c39.102,2.646,76.86,13.455,111.941,28.914c-36.643-11.375-74.573-18.176-112.229-17.493
				c-37.588,0.703-74.675,9.001-107.593,25.398c-16.482,8.088-31.96,18.049-45.989,29.69c-13.975,11.711-26.597,24.924-37.695,39.27
				c-22.302,28.689-37.59,62.336-46.433,97.275c-4.382,17.505-7.039,35.417-7.954,53.391c-0.867,17.983,0.056,35.996,2.415,53.777
				c4.868,35.574,16.23,70.076,32.983,101.838c33.477,63.745,88.875,115.454,153.511,150.713l0.024,0.012
				c9.39,5.122,12.849,16.887,7.727,26.274c-4.202,7.705-12.898,11.406-21.062,9.661c-36.968-7.932-75.085-11.077-112.539-8.445
				c-18.704,1.316-37.239,4.092-55.081,8.667c-17.817,4.578-34.98,10.984-50.293,19.602l-0.493,0.278
				c-4.695,2.642-10.127,2.957-14.856,1.355l-54.939-18.865l-27.468-9.436l-27.046-10.664
				c-17.998-7.192-36.099-14.128-54.011-21.541l-53.032-23.999c-70.12-33.264-138.293-71.123-202.434-115.439
				c-63.782-44.758-123.569-95.627-176.714-153.025c-6.926-6.907-13.188-14.426-19.526-21.875l-19.048-22.319
				c-6.55-7.275-12.073-15.396-18.108-23.093l-17.749-23.386c-5.703-7.949-11.013-16.187-16.536-24.268
				c-5.374-8.181-11.157-16.099-16.187-24.502l-15.049-25.232l-7.52-12.62l-6.873-12.983
				c-74.939-137.869-111.465-295.215-110.774-451.387c0.107-19.529,0.647-39.087,1.814-58.501l1.787-28.718
				c0.713-9.595,1.25-19.663,2.207-29.26c3.535-38.75,8.323-76.914,13.323-115.088c10.122-76.296,21.445-152.188,33.396-228.154
				l-0.225,2.273l8.755-225.168c0.41-10.569,9.312-18.804,19.88-18.394l0.144,0.007l660.295,30.642
				c9.934,0.454,17.754,8.501,18.242,18.235c3.901,84.541,20.039,168.274,50.127,246.941c15.164,39.268,33.767,77.185,55.22,113.489
				c21.372,36.365,46.113,70.779,72.715,103.735c53.286,65.962,115.471,124.861,180.825,180.01
				c32.742,27.546,66.414,54.143,100.635,80.061c34.067,25.796,69.055,50.334,104.98,73.328c8.987,5.74,18.015,11.414,27.124,16.948
				l13.713,8.303l14.116,9.009l14.109,9.021c4.626,3.115,9.058,6.511,13.596,9.756c9.031,6.553,18.142,13.003,26.597,20.288
				c34.702,28.022,66.255,59.851,94.124,94.585c55.686,69.487,96.99,150.493,119.353,236.941
				c11.128,43.213,17.446,87.832,17.729,132.771c0.276,44.895-5.54,90.19-19.011,133.633
				c-13.235,43.474-35.525,84.558-64.98,119.709c-29.473,35.188-66.558,63.877-107.354,84.214l7.908-26.951
				c1.748,3.02,2.903,5.222,4.204,7.8c1.26,2.495,2.444,4.995,3.589,7.515c2.275,5.042,4.336,10.178,6.216,15.422
				c3.687,10.518,6.646,21.499,8.049,33.232c1.47,11.65,1.323,24.229-1.936,36.941c-3.035,12.705-10.217,25.171-19.675,34.529
				c-9.468,9.468-20.747,15.801-31.836,20.09c-2.791,1.201-5.579,2.087-8.367,2.908c-2.786,0.83-5.593,1.799-8.357,2.336
				l-8.33,1.865l-7.883,1.221c-5.222,0.75-10.557,1.702-15.688,2.261l-15.356,1.599c-10.286,1.206-20.325,1.663-30.493,2.517
				c-80.891,5.261-161.101,6.379-241.44,7.266c-40.149,0.342-80.281,0.442-120.408,0.391l-60.183-0.234l-30.093-0.212l-15.039-0.132
				l-7.52-0.071c-2.656-0.049-4.636,0.022-8.018-0.154c-24.875-0.688-49.197-11.494-66.687-29.211
				c-4.375-4.436-8.306-9.304-11.787-14.478c-1.692-2.615-3.33-5.276-4.792-8.027c-1.433-2.783-2.881-5.61-3.857-8.174
				c-4.663-10.32-7.959-21.597-10.081-33.276c-1.875-11.792-1.902-24.221,0.281-36.401c2.114-12.205,6.746-24.028,13.152-34.351
				c6.345-10.388,14.226-19.446,22.815-27.28c8.706-7.654,18.054-14.124,27.69-19.788c9.119-5.356,20.854-2.31,26.213,6.809
				c5.359,9.116,2.312,20.852-6.807,26.211L2070.632,3236.76z"/>
		</g>
		<g>
			<path style="fill:#3B087B;" d="M2296.975,3179.341l150.183,55.117l-158.979-17.839c-10.588-1.187-18.208-10.732-17.019-21.321
				s10.735-18.208,21.321-17.019C2294.016,3178.452,2295.583,3178.838,2296.975,3179.341z"/>
		</g>
		<g>
			<path style="fill:#3B087B;" d="M2660.251,3256.555l-36.167-104.175l69.622,85.518c6.78,8.33,5.525,20.579-2.805,27.361
				c-8.328,6.78-20.579,5.525-27.358-2.805C2662.085,3260.664,2660.977,3258.616,2660.251,3256.555z"/>
		</g>
		<g>
			<path style="fill:#FFC278;" d="M2038.517,2490.516c0,0,0,0.055,0,0.109c-0.602,57.838-3.994,137.509-14.501,229.492
				c-21.888,191.517-45.635,419.476-47.441,496.083c-1.806,76.607-19.152,167.495-114.91,179.971
				c-95.758,12.476-229.82,13.844-269.491-23.091c-25.827-24.076-26.703-69,0.766-104.623
				c14.665-19.042,37.537-35.403,69.001-44.487c0,0,22.817-414.497,2.736-520.269c-20.081-105.827-56.525-173.295-61.997-279.067
				l434.087-33.762C2036.766,2390.873,2039.228,2428.027,2038.517,2490.516z"/>
		</g>
		<g>
			<path style="fill:#3B087B;" d="M2036.78,2390.874c9.404,63.75,12.754,128.369,12.917,192.915
				c0.09,32.292-0.889,64.595-2.498,96.892c-0.872,16.116-2.207,32.324-3.757,48.284c-1.721,15.916-3.601,31.812-5.684,47.683
				c-8.381,63.489-14.773,127.202-21.36,190.857c-6.443,63.647-12.676,127.38-17.439,190.891
				c-1.125,15.85-2.205,31.729-2.834,47.346l-0.896,24.165c-0.498,8.328-0.94,16.653-1.926,25.042
				c-1.816,16.741-4.424,33.63-9.316,50.415c-4.817,16.748-11.519,33.459-21.328,49.021c-9.612,15.64-23.369,29.504-39.216,39.685
				c-15.857,10.151-33.801,16.99-51.594,19.675l-6.685,1.243c-2.214,0.396-4.111,0.547-6.182,0.83l-12.18,1.44
				c-8.123,0.894-16.248,1.709-24.385,2.4c-16.272,1.387-32.571,2.437-48.921,3.005c-32.703,1.121-65.559,0.803-98.833-2.864
				c-16.646-1.904-33.401-4.634-50.403-9.541c-8.499-2.473-17.087-5.593-25.715-9.961c-4.312-2.18-8.635-4.771-12.896-7.861
				c-2.129-1.492-4.226-3.411-6.299-5.142c-1.907-1.875-3.818-3.733-5.571-5.735c-7.019-8.025-12.273-17.412-15.627-27.19
				c-3.337-9.797-4.744-19.958-4.7-29.9c0.125-19.939,6.179-38.977,15.903-55.295c9.736-16.377,23.154-30.015,38.21-40.627
				c15.161-10.52,31.914-17.969,49.014-22.961l0.061-0.02l-13.823,17.351c3.516-66.931,6.296-134.116,8.303-201.172
				c2.058-67.041,3.242-134.216,1.013-200.876l-1.213-49.797l-0.227-12.415l-0.571-12.244c-0.549-8.069-0.369-16.553-1.379-24.216
				c-1.104-15.454-4.023-32.078-7.068-48.21c-3.035-16.243-6.394-32.495-10.188-48.779l-11.355-49.163
				c-3.809-16.47-7.314-33.135-10.146-49.939c-3.047-16.75-5.02-33.738-6.287-50.688c-1.484-16.931-1.536-33.94-1.038-50.801
				c1.433,8.342,2.563,16.672,4.236,24.917l2.334,12.361l2.766,12.258c3.796,16.301,8.376,32.341,13.345,48.262
				c9.929,31.833,21.914,63.086,32.737,95.283c5.435,16.062,10.642,32.349,15.305,48.853c2.278,8.269,4.514,16.56,6.492,24.941
				c2.241,8.184,3.665,17.129,5.273,25.928c0.83,4.426,1.604,8.838,2.024,13.086l1.492,12.898l1.375,12.91l0.908,12.788
				c0.452,8.523,1.177,17.09,1.396,25.581l0.554,25.481c0.303,33.95-0.574,67.751-1.118,101.521
				c-0.725,33.76-1.282,67.498-2.373,101.201c-2.021,67.439-4.802,134.702-8.345,202.136c-0.427,8.127-5.884,14.8-13.193,17.158
				l-0.63,0.195l-0.049,0.015c-13.64,3.994-26.482,9.792-37.683,17.556c-11.094,7.844-20.564,17.59-27.224,28.796
				c-6.675,11.152-10.479,23.782-10.53,35.938c-0.164,12.178,3.711,23.547,10.791,31.587c6.294,7.549,18.721,13.188,32.478,17.231
				c13.799,3.997,28.765,6.521,43.94,8.24c30.444,3.369,61.843,3.735,93.157,2.646c15.671-0.544,31.357-1.555,47.009-2.891
				c7.825-0.662,15.64-1.448,23.442-2.305l11.682-1.382c1.897-0.261,3.999-0.442,5.725-0.771l5.12-0.996
				c13.909-2.024,26.501-7.134,37.561-14.146c11.001-7.117,20.566-16.433,27.727-28.14c14.565-23.257,21.804-52.666,24.824-82.817
				c0.896-7.524,1.294-15.208,1.76-22.869l0.881-23.862c0.667-16.396,1.765-32.488,2.908-48.599
				c4.822-64.292,11.072-128.127,17.534-191.985c6.409-63.845,13.779-127.554,19.668-191.431
				c2.922-31.995,6.882-63.777,11.423-95.137c4.57-31.484,8.179-63.11,11.855-94.795c3.472-31.702,6.501-63.489,9.165-95.376
				l3.662-47.91C2035.159,2422.971,2036.018,2406.958,2036.78,2390.874z"/>
		</g>
		<g>
			<path style="fill:#3B087B;" d="M1658.792,3205.081c4.526-0.283,8.125-0.3,12.063-0.288c3.855,0,7.668,0.125,11.467,0.269
				c7.595,0.295,15.127,0.906,22.612,1.638c14.971,1.57,29.761,4.104,44.263,7.515c14.517,3.301,28.706,7.861,42.383,13.301
				c13.765,5.22,26.697,12.334,39.077,19.712c-13.789-4.512-27.529-8.479-41.655-10.491c-14.038-2.224-28.115-3.489-42.18-3.518
				c-14.043-0.137-28.025,0.591-41.829,2.209c-6.899,0.862-13.752,1.829-20.513,3.079c-3.379,0.627-6.738,1.27-10.039,2.017
				c-3.223,0.703-6.765,1.553-9.353,2.339c-10.203,3.108-20.991-2.646-24.099-12.849c-3.105-10.203,2.646-20.994,12.849-24.099
				c1.436-0.437,2.881-0.698,4.316-0.798L1658.792,3205.081z"/>
		</g>
		<g>
			<path style="fill:#3B087B;" d="M1751.145,3413.196c-0.496-1.084-0.73-1.772-1.008-2.524c-0.293-0.769-0.537-1.492-0.762-2.195
				c-0.471-1.426-0.938-2.849-1.318-4.238c-0.842-2.793-1.509-5.569-2.185-8.328c-1.274-5.53-2.253-11.047-3.005-16.555
				c-1.497-11.016-1.895-22.053-1.248-32.905c0.581-10.842,2.192-21.521,5.017-31.743c2.502-10.276,6.687-19.963,11.062-29.177
				c-1.343,10.212-2.285,20.249-1.543,30.212c0.422,9.91,2.051,19.626,4.536,28.958c2.417,9.338,5.718,18.335,9.812,26.812
				c2.048,4.236,4.25,8.35,6.619,12.285c1.213,1.943,2.402,3.887,3.679,5.698c1.179,1.733,2.698,3.838,3.599,4.695
				L1751.145,3413.196z"/>
		</g>
		<g>
			<path style="fill:#3B087B;" d="M2157.488,3405.015c-0.898-1.218-1.326-1.973-1.826-2.793c-0.527-0.837-0.974-1.633-1.384-2.407
				c-0.857-1.57-1.704-3.135-2.41-4.685c-1.545-3.093-2.778-6.235-4.036-9.346c-2.327-6.287-4.214-12.632-5.527-19.055
				c-2.593-12.832-3.433-25.859-1.816-38.43c0.132-3.142,0.999-6.233,1.492-9.304c0.549-3.071,1.121-6.111,2.124-9.058l2.666-8.806
				l3.545-8.406l1.765-4.138c0.667-1.345,1.443-2.642,2.156-3.955l4.348-7.776c3.103-5.029,6.714-9.717,9.983-14.468
				c-1.89,5.552-4.036,10.896-5.601,16.392l-1.985,8.318c-0.313,1.379-0.686,2.734-0.945,4.116l-0.53,4.197l-1.04,8.269
				l-0.139,8.264c-0.164,2.712,0.1,5.435,0.376,8.123c0.332,2.688,0.276,5.347,0.935,7.969c1.553,10.52,5.205,20.442,9.866,29.448
				c2.346,4.509,5.09,8.755,8.008,12.734c1.541,1.931,3.013,3.882,4.639,5.61c0.776,0.92,1.589,1.716,2.385,2.507
				c0.4,0.417,0.791,0.793,1.157,1.089c0.371,0.33,0.803,0.73,0.835,0.615L2157.488,3405.015z"/>
		</g>
		<g>
			<path style="fill:#3B087B;" d="M2063.284,3405.015c-0.898-1.218-1.326-1.973-1.826-2.793c-0.527-0.837-0.974-1.633-1.384-2.407
				c-0.857-1.57-1.702-3.135-2.41-4.685c-1.545-3.093-2.778-6.235-4.036-9.346c-2.327-6.287-4.214-12.632-5.527-19.055
				c-2.593-12.832-3.433-25.859-1.816-38.43c0.132-3.142,0.999-6.233,1.492-9.304c0.549-3.071,1.121-6.111,2.124-9.058l2.666-8.806
				l3.545-8.406l1.765-4.138c0.667-1.345,1.443-2.642,2.156-3.955l4.348-7.776c3.103-5.029,6.714-9.717,9.983-14.468
				c-1.89,5.552-4.036,10.896-5.601,16.392l-1.985,8.318c-0.313,1.379-0.686,2.734-0.945,4.116l-0.53,4.197l-1.04,8.269
				l-0.139,8.264c-0.164,2.712,0.1,5.435,0.376,8.123c0.332,2.688,0.276,5.347,0.935,7.969c1.553,10.52,5.205,20.442,9.866,29.448
				c2.346,4.509,5.09,8.755,8.008,12.734c1.541,1.931,3.013,3.882,4.639,5.61c0.776,0.92,1.589,1.716,2.385,2.507
				c0.4,0.417,0.791,0.793,1.157,1.089c0.371,0.33,0.803,0.73,0.835,0.615L2063.284,3405.015z"/>
		</g>
		<g>
			<path style="fill:#3B087B;" d="M1628.931,3401.907c-0.955-5.945-1.262-10.74-1.602-16.038c-0.3-5.173-0.459-10.315-0.4-15.464
				c0.093-10.278,0.684-20.51,2.368-30.649c1.719-10.11,4.026-20.112,8.044-29.495c4.011-9.346,9.473-17.974,16.392-24.731
				c-4.358,8.708-6.399,17.898-7.092,27.014c-0.671,9.143,0.334,18.311,1.809,27.234c1.506,8.94,4.004,17.749,6.882,26.321
				c1.426,4.287,3.04,8.525,4.753,12.671c1.67,4.021,3.604,8.503,5.398,11.689L1628.931,3401.907z"/>
		</g>
		<g>
			<path style="fill:#3B087B;" d="M1150.305,3401.907c-0.955-5.945-1.262-10.74-1.602-16.038c-0.3-5.173-0.459-10.315-0.4-15.464
				c0.093-10.278,0.684-20.51,2.368-30.649c1.719-10.11,4.026-20.112,8.044-29.495c4.011-9.346,9.473-17.974,16.392-24.731
				c-4.358,8.708-6.399,17.898-7.092,27.014c-0.671,9.143,0.334,18.311,1.809,27.234c1.504,8.94,4.004,17.749,6.882,26.321
				c1.426,4.287,3.04,8.525,4.753,12.671c1.67,4.021,3.604,8.503,5.398,11.689L1150.305,3401.907z"/>
		</g>
		<g>
			<path style="fill:#3B087B;" d="M1245.554,3405.662c-0.952-5.945-1.26-10.74-1.599-16.038c-0.303-5.173-0.459-10.315-0.403-15.464
				c0.095-10.278,0.684-20.51,2.371-30.649c1.716-10.11,4.023-20.112,8.042-29.495c4.011-9.346,9.473-17.974,16.392-24.731
				c-4.358,8.708-6.399,17.898-7.09,27.012c-0.674,9.146,0.332,18.313,1.807,27.234c1.506,8.943,4.006,17.751,6.882,26.323
				c1.426,4.287,3.042,8.525,4.753,12.668c1.672,4.021,3.604,8.506,5.398,11.692L1245.554,3405.662z"/>
		</g>
		<g>
			<path style="fill:#3B087B;" d="M1209.658,3197.087c6.477,0.615,11.66,1.519,17.31,2.59c5.53,1.042,10.979,2.28,16.379,3.64
				c10.791,2.744,21.362,6.125,31.631,10.122c10.273,3.977,20.168,8.906,29.541,14.382c9.365,5.562,17.961,12.224,25.686,19.404
				c-9.587-4.58-19.329-8.174-29.351-10.559c-10.046-2.297-20.098-3.909-30.242-4.58c-10.129-0.684-20.237-0.745-30.259-0.2
				c-5.01,0.288-9.998,0.688-14.922,1.27c-4.802,0.542-10.093,1.292-14.075,2.195c-10.479,2.375-20.896-4.194-23.271-14.67
				c-2.375-10.479,4.194-20.898,14.673-23.274c2.039-0.461,4.077-0.586,6.055-0.405L1209.658,3197.087z"/>
		</g>
		<g>
			<path style="fill:#3B087B;" d="M1272.457,3428.324c-31.055,0-61.67-2.544-89.146-5.625
				c-38.906-4.326-69.995-22.817-87.519-52.056c-17.022-28.389-18.926-64.336-5.229-98.623
				c21.763-54.307,79.326-69.365,105.669-73.462c46.23-144.336,46.626-398.745,47.085-692.119l0.024-15.952
				c0.015-9.619,7.163-17.734,16.704-18.965c9.526-1.25,18.511,4.81,20.962,14.106c48.032,181.997,150.22,338.662,303.73,465.64
				c5.537,4.58,8.047,11.88,6.489,18.896c-2.671,12.07-66.143,296.587-122.178,381.255
				C1428.438,3412.787,1349.151,3428.324,1272.457,3428.324z M1281.387,2607.621c-0.991,261.284-6.519,483.359-52.813,614.937
				c-2.588,7.358-9.38,12.407-17.173,12.773c-0.605,0.034-66.489,4.033-85.278,50.918c-9.35,23.403-8.457,46.392,2.52,64.702
				c11.235,18.745,32.158,30.703,58.921,33.682c49.184,5.522,198.818,22.305,249.541-54.355
				c46.201-69.805,101.665-302.861,114.15-357.075C1428.492,2869.428,1338.062,2746.845,1281.387,2607.621z"/>
		</g>
		<g>
			<path style="fill:#9654D6;" d="M2039.392,1917.991c-71.025,60.301-173.022,97.291-285.086,116.716
				c-136.743,23.693-288.588,21.176-417.725,2.627h-0.055c-30.205-4.323-59.152-9.521-86.402-15.486
				c-15.376-3.338-26.32-16.908-26.758-32.667c-0.657-23.256,0.93-46.019,5.144-68.289c3.83-20.137,24.131-32.558,43.721-26.539
				c11.491,3.502,24.404,6.566,38.577,9.193c147.632,27.359,428.723,7.059,586.862-52.476
				c32.557-12.202,59.917-26.156,79.834-41.641c17.784-13.844,44.049-6.895,52.531,14.008c8.044,19.863,14.774,39.89,20.082,59.972
				C2053.455,1896.048,2049.351,1909.564,2039.392,1917.991z"/>
		</g>
		<g>
			<path style="fill:#3B087B;" d="M1545.128,2070.903c-111.382,0-217.651-12.563-299.082-30.351
				c-23.916-5.215-41.123-26.108-41.836-50.811c-0.718-25.09,1.118-49.453,5.469-72.41c2.842-14.99,11.934-28.093,24.946-35.954
				c12.954-7.83,28.701-9.778,43.203-5.347c155.322,47.451,571.694,8.767,687.905-81.709c13.306-10.352,30.283-13.789,46.592-9.404
				c16.245,4.358,29.17,15.771,35.459,31.311c8.438,20.83,15.459,41.802,20.864,62.327c5.2,19.717-1.411,40.918-16.841,54.014l0,0
				C1929.864,2036.078,1730.469,2070.903,1545.128,2070.903z M1262.159,1911.984c-2.695,0-5.342,0.732-7.725,2.175
				c-3.765,2.273-6.294,5.932-7.119,10.303c-3.838,20.249-5.459,41.841-4.814,64.177c0.2,7.07,5.019,13.03,11.714,14.49
				c252.646,55.181,609.355,38.979,772.808-99.766l0,0c4.248-3.604,6.045-9.509,4.585-15.049
				c-4.995-18.965-11.494-38.379-19.321-57.712c-1.748-4.307-5.352-7.476-9.888-8.694c-4.614-1.24-9.395-0.276-13.13,2.637
				c-85.645,66.677-274.111,92.835-351.167,100.986c-150.884,15.964-293.223,11.035-371.465-12.871
				C1265.152,1912.209,1263.648,1911.984,1262.159,1911.984z"/>
		</g>
		<g>
			<circle style="fill:#3CA7EF;" cx="1466.091" cy="2155.662" r="112.402"/>
		</g>
		<g style="opacity:0.3;">
			<path style="fill:#3B087B;" d="M1578.493,2155.636c0,62.106-50.341,112.448-112.393,112.448
				c-59.589,0-108.289-46.347-112.119-104.951c19.371,33.761,55.813,56.525,97.51,56.525c62.106,0,112.393-50.341,112.393-112.393
				c0-2.517-0.109-5.034-0.274-7.496C1573.076,2116.183,1578.493,2135.28,1578.493,2155.636z"/>
		</g>
		<g>
			<path style="fill:#3B087B;" d="M1466.09,2287.216c-72.539,0-131.553-59.014-131.553-131.553s59.014-131.553,131.553-131.553
				c72.539,0,131.553,59.014,131.553,131.553S1538.629,2287.216,1466.09,2287.216z M1466.09,2062.411
				c-51.421,0-93.252,41.831-93.252,93.252s41.831,93.252,93.252,93.252s93.252-41.831,93.252-93.252
				S1517.51,2062.411,1466.09,2062.411z"/>
		</g>
		<g>
			<path style="fill:#3CA7EF;" d="M1429.384,1932.601v145.917c0,15.866,12.862,28.728,28.728,28.728l0,0
				c15.866,0,28.727-12.862,28.727-28.728v-145.917c0-15.866-12.862-28.728-28.727-28.728l0,0
				C1442.245,1903.873,1429.384,1916.735,1429.384,1932.601z"/>
		</g>
		<g>
			<path style="fill:#3B087B;" d="M1458.111,2126.396c-26.401,0-47.876-21.475-47.876-47.876v-145.918
				c0-26.401,21.475-47.881,47.876-47.881c26.401,0,47.876,21.479,47.876,47.881v145.918
				C1505.987,2104.921,1484.512,2126.396,1458.111,2126.396z M1458.111,1923.027c-5.278,0-9.575,4.294-9.575,9.575v145.918
				c0,5.278,4.297,9.575,9.575,9.575c5.278,0,9.575-4.297,9.575-9.575v-145.918
				C1467.686,1927.321,1463.389,1923.027,1458.111,1923.027z"/>
		</g>
		<g>
			<g>
				<path style="fill:#FFC278;" d="M2323.452,1238.784c-9.302,29.33-20.848,55.212-32.12,74.145
					c-42.243,71.135-32.941,239.396-9.685,305.059c23.256,65.663,10.944,146.374-106.702,113.542
					c-117.646-32.832-198.356-169.629-198.356-169.629c-2.955,4.104-6.019,8.208-9.138,12.257
					c-80.656,105.115-212.474,205.251-212.474,205.251s-83.447,160.053-218.876,164.157s-164.157-64.295-209.301-114.91
					c-45.143-50.615-110.806-93.022-199.725-164.157c-55.047-43.994-65.006-105.882-64.623-146.593
					c0.164-15.923,1.861-28.673,3.119-35.786c-4.542,18.823-24.24,80.382-105.389,201.53
					c-99.862,149.109-195.621,116.278-181.941,10.944s-41.039-296.851-93.022-362.514c-15.54-19.59-30.314-41.149-42.189-63.365
					c-4.542-8.481-8.7-17.073-12.257-25.663v-0.055c-1.258-2.955-2.462-5.964-3.557-8.919
					c-15.376-41.477-17.346-83.009,7.387-116.77c45.143-61.559,201.749-157.317,226.373-170.997
					c24.624-13.68,65.006-69.767,135.484-139.534c70.423-69.767,160.71,0,160.71,0c160.053-119.014,246.947-53.351,300.955-40.383
					c54.008,13.023,88.262-36.881,175.812-37.592c87.551-0.711,138.822,64.295,138.822,64.295
					c8.536-5.253,17.072-9.74,25.499-13.461c146.866-65.116,274.088,91.436,274.088,91.436s143.638,45.143,225.716,123.118
					C2358.308,1051.426,2349.28,1158.019,2323.452,1238.784z"/>
			</g>
			<g>
				<path style="fill:#BC7058;" d="M1064.585,1085.571c35.95,268.178,0.985,396.549,0.985,396.549
					c-4.542,18.823-24.24,80.382-105.389,201.53c-99.862,149.109-195.621,116.278-181.941,10.944s-41.039-296.851-93.022-362.514
					c-15.54-19.59-30.314-41.149-42.189-63.365c-4.542-8.481-8.7-17.073-12.257-25.663v-0.055c-1.258-2.955-2.462-5.964-3.557-8.919
					c-15.376-41.477-17.346-83.009,7.387-116.77c45.143-61.559,201.749-157.317,226.373-170.997
					c24.624-13.68,65.006-69.767,135.484-139.534c70.423-69.767,160.71,0,160.71,0S1028.58,817.393,1064.585,1085.571z"/>
			</g>
			<g>
				<path style="fill:#BC7058;" d="M2323.452,1238.784c-9.302,29.33-20.848,55.212-32.12,74.145
					c-42.243,71.135-32.941,239.396-9.685,305.059c23.256,65.663,10.944,146.374-106.702,113.542
					c-117.646-32.832-198.356-169.629-198.356-169.629c-2.955,4.104-6.019,8.208-9.138,12.257
					c-131.49-267.467-13.078-514.25-53.734-643.387c-34.035-108.234-90.122-141.394-115.457-151.134
					c146.866-65.116,274.088,91.436,274.088,91.436s143.638,45.143,225.716,123.118
					C2358.308,1051.426,2349.28,1158.019,2323.452,1238.784z"/>
			</g>
			<g>
				<path style="fill:#3B087B;" d="M1530.079,1793.661c-15.928,0-35.244-3.13-57.734-12.261
					c-67.881-27.566-97.412-110.261-98.633-113.767l36.152-12.654c0.244,0.698,25.2,69.941,76.895,90.932
					c45.068,18.303,69.082,5.161,72.915,2.744c5.713-5.317,43.511-41.802,54.483-85.32l37.139,9.365
					c-14.756,58.535-64.819,103.408-66.943,105.291c-0.293,0.256-0.591,0.505-0.899,0.747
					C1582.34,1779.611,1563.819,1793.661,1530.079,1793.661z"/>
			</g>
			<g style="opacity:0.3;">
				<path style="fill:#3B087B;" d="M2291.319,1312.907c-42.243,71.135-32.941,239.396-9.686,305.059
					c23.256,65.663,10.944,146.374-106.702,113.542c-117.646-32.832-198.357-169.629-198.357-169.629
					c-79.343,109.438-221.612,217.508-221.612,217.508s-83.447,160.053-218.876,164.157
					c-135.43,4.104-164.157-64.295-209.301-114.91c-45.143-50.615-110.806-93.022-199.725-164.157
					c-76.552-61.231-65.882-156.989-61.504-182.379c-4.542,18.823-24.24,80.382-105.389,201.531
					c-99.862,149.109-195.621,116.278-181.941,10.944c13.68-105.334-41.039-296.851-93.022-362.514
					c-15.54-19.589-30.314-41.149-42.188-63.365c33.16,46.621,116.716,82.571,157.099,160.929
					c47.441,92.147,9.138,269.054,98.494,198.576c89.357-70.478,120.382-252.364,87.55-416.521
					c-32.831-164.157,81.532-280.928,81.532-280.928l22.435,280.216c-13.68,242.734,57.564,390.516,131.326,461.651
					c73.816,71.135,188.781,124.554,258.109,125.867c69.33,1.368,226.154-10.889,368.424-175.046s57.4-324.211,57.4-324.211
					l8.317-368.478c104.021,69.274,86.566,303.362,86.566,303.362c-14.556,255.866,113.104,406.18,182.433,389.326
					c69.275-16.854,14.556-109.001,21.887-240.326c7.278-131.326,113.051-149,113.051-149s2.079,1.641,5.8,4.651
					C2314.136,1268.092,2302.591,1293.974,2291.319,1312.907z"/>
			</g>
			<g style="opacity:0.6;">
				<path style="fill:#F1F2F2;" d="M2341.003,1085.714c-7.223-20.191-18.167-38.413-33.817-53.242
					c-82.079-77.975-225.716-123.118-225.716-123.118s-142.27-175.101-299.587-77.975c0,0-51.326-65.006-138.876-64.295
					c-87.551,0.711-121.75,50.615-175.758,37.592c-54.062-12.968-140.902-78.631-300.955,40.383c0,0-90.286-69.767-160.764,0
					c-70.424,69.767-110.806,125.854-135.43,139.534s-181.23,109.438-226.373,170.997c-16.306,22.216-21.012,47.824-17.948,74.527
					c-14.063-40.164-15.157-80.164,8.81-112.831c45.143-61.559,201.749-157.317,226.373-170.997
					c24.624-13.68,65.006-69.767,135.484-139.534c70.423-69.767,160.71,0,160.71,0c160.053-119.014,246.947-53.351,300.955-40.383
					c54.008,13.023,88.262-36.881,175.812-37.592c87.551-0.711,138.822,64.295,138.822,64.295
					c157.317-97.126,299.587,77.975,299.587,77.975s143.637,45.143,225.716,123.118
					C2323.111,1017.917,2336.133,1050.256,2341.003,1085.714z"/>
			</g>
			<g>
				<path style="fill:#3B087B;" d="M1524.581,1962.873c-114.546,0.005-155.752-51.716-192.271-97.527
					c-6.733-8.445-13.091-16.423-19.814-23.965c-29.619-33.205-69.263-63.362-119.453-101.541
					c-23.247-17.685-49.6-37.732-77.944-60.41c-39.302-31.438-57.974-70.579-66.182-106.426
					c-16.196,31.421-39.448,71.431-72.837,121.282c-56.631,84.568-120.19,123.879-170.019,105.134
					c-35.737-13.438-53.677-54.558-46.826-107.314c13.042-100.444-40.811-287.234-89.043-348.159
					c-75.513-95.386-93.643-179.905-51.045-237.986c47.632-64.954,205.474-161.375,232.539-176.414
					c10.859-6.033,30.42-27.861,53.071-53.137c20.693-23.093,46.45-51.833,78.184-83.262
					c58.735-58.157,133.535-35.215,173.955-9.856c136.113-96.062,225.064-63.809,278.77-44.333
					c10.317,3.74,19.224,6.97,26.924,8.821c20.854,5.015,38.677-2.397,63.31-12.669c26.831-11.186,60.225-25.11,107.847-25.481
					c0.513-0.005,1.035-0.007,1.538-0.007c71.304,0,120.239,38.762,141.152,59.28c67.08-35.464,140.947-32.075,214.619,10.12
					c47.832,27.398,81.401,63.049,92.339,75.493c27.515,9.187,151.592,53.325,227.847,125.769
					c90.366,85.85,42.349,265.374-3.442,342.407c-37.529,63.13-31.675,222.341-8.115,288.879
					c17.676,49.897,13.516,95.439-11.128,121.821c-24.438,26.162-64.399,31.736-118.77,16.563
					c-94.272-26.309-164.688-112.764-194.355-154.956c-75.034,94.329-184.702,180.95-205.576,197.097
					c-14.419,25.923-98.735,166.516-233.189,170.591C1532.554,1962.812,1528.516,1962.873,1524.581,1962.873z M1084.132,1487.048
					c-4.17,24.531-12.559,108.516,54.892,162.473c27.983,22.385,54.136,42.283,77.212,59.834
					c51.831,39.429,92.769,70.571,124.844,106.531c7.432,8.335,14.424,17.104,21.182,25.586
					c35.293,44.277,68.613,86.152,173.242,82.93c122.427-3.708,201.699-152.383,202.485-153.884c1.304-2.49,3.149-4.68,5.386-6.379
					c1.401-1.064,140.981-107.686,217.69-213.498c3.789-5.227,9.922-8.176,16.411-7.891c6.45,0.305,12.31,3.838,15.591,9.399
					c0.767,1.289,78.354,130.591,187.012,160.913c27.153,7.578,63.169,12.727,80.483-5.813
					c14.258-15.266,15.444-47.803,3.018-82.888c-23.032-65.037-36.558-240.747,11.289-321.238
					c39.087-65.75,83.779-224.966,9.99-295.068c-77.822-73.931-216.875-118.294-218.271-118.733
					c-3.579-1.128-6.753-3.281-9.116-6.191c-5.381-6.589-133.677-160.781-274.668-73.757c-8.267,5.107-19.057,3.208-25.093-4.429
					c-0.415-0.522-46.553-57.017-122.466-57.017c-0.4,0-0.796,0.003-1.196,0.005c-40.117,0.315-68.428,12.119-93.408,22.534
					c-27.749,11.572-53.979,22.495-87.007,14.556c-9.785-2.354-20.103-6.094-31.021-10.054
					c-54.087-19.602-128.135-46.455-254.033,47.158c-6.87,5.112-16.304,5.034-23.096-0.183l0,0
					c-3.159-2.415-78.096-58.513-135.591-1.577c-30.923,30.623-56.255,58.892-76.611,81.607
					c-28.003,31.252-46.509,51.899-62.993,61.057c-35.322,19.629-180.176,110.928-220.254,165.583
					c-44.038,60.047,20.425,153.967,50.185,191.56c54.741,69.146,111.611,264.321,97.002,376.865
					c-4.443,34.192,4.111,59.683,22.319,66.531c25.454,9.58,73.896-14.722,124.712-90.596
					c79.565-118.799,98.555-178.75,102.612-195.056c0.689-3.779,1.245-6.13,1.401-6.763c2.402-9.829,12.026-16.089,21.987-14.307
					c9.961,1.787,16.807,11.013,15.64,21.062C1085.757,1479.089,1085.333,1482.07,1084.132,1487.048z"/>
			</g>
			<g>
				<path style="fill:#3B087B;" d="M894.898,943.206c-0.53,0.476-1.36,1.379-2.122,2.185c-0.767,0.789-1.543,1.672-2.322,2.561
					c-1.563,1.743-3.118,3.525-4.634,5.403c-3.11,3.643-6.008,7.551-8.994,11.394c-5.769,7.861-11.313,15.986-16.46,24.407
					c-10.33,16.821-19.377,34.644-26.621,53.286c-7.324,18.596-13.396,37.92-17.188,57.822c-4.399,19.849-5.947,40.229-6.868,60.798
					c-2.266-20.378-3.94-41.152-2.637-61.963c0.693-20.862,3.789-41.699,8.389-62.295c4.521-20.64,11.081-40.918,19.307-60.652
					c4.097-9.878,8.694-19.585,13.667-29.185c2.612-4.746,5.134-9.541,8.005-14.231c1.367-2.361,2.839-4.714,4.36-7.063
					c0.745-1.177,1.489-2.351,2.331-3.56c0.825-1.206,1.563-2.332,2.685-3.814l0.85-1.123c6.431-8.498,18.533-10.173,27.031-3.743
					c8.498,6.431,10.176,18.533,3.745,27.031C896.68,941.45,895.779,942.41,894.898,943.206z"/>
			</g>
			<g>
				<path style="fill:#3B087B;" d="M2087.305,859.106c8.586,13.477,16.465,26.704,24.304,40.229
					c7.788,13.484,15.32,27.097,22.593,40.823c14.434,27.502,27.888,55.596,38.45,84.561
					c-16.296-26.145-34.939-50.408-54.385-73.936c-9.778-11.729-19.753-23.264-29.924-34.6
					c-10.146-11.277-20.603-22.6-30.981-33.188l-0.056-0.059c-7.444-7.598-7.322-19.793,0.276-27.236
					c7.598-7.444,19.792-7.322,27.236,0.276C2085.747,856.924,2086.611,858.035,2087.305,859.106z"/>
			</g>
			<g>
				<path style="fill:#3B087B;" d="M1048.311,1470.972c12.1-48.242,16.833-98.599,17.493-149.231
					c0.239-25.344-0.5-50.796-1.86-76.301c-1.294-25.513-3.43-51.072-6.284-76.655c-2.847-25.591-5.908-51.265-7.41-77.234
					c-1.553-25.962-1.768-52.192-1.199-78.555c0.459-13.184,1.304-26.423,2.468-39.641c1.56-13.235,3.271-26.458,6.191-39.556
					c2.7-13.081,6.799-26.018,11.775-38.398c5.339-12.322,12.178-23.958,20.64-33.926c-5.085,12.117-8.198,24.497-10.459,36.894
					c-1.628,12.603-3.008,25.017-2.896,37.688c-0.229,6.252,0.073,12.627,0.105,18.892c0.227,6.311,0.61,12.632,0.994,18.928
					c0.82,12.639,1.914,25.264,3.398,37.92c2.534,25.322,6.367,50.671,9.299,76.228c3.005,25.554,4.946,51.357,6.631,77.288
					c1.66,25.938,3.538,51.948,4.995,78.081c1.394,26.138,2.163,52.407,1.912,78.782c-0.693,52.715-5.583,106.052-18.674,158.245
					c-2.573,10.259-12.976,16.492-23.235,13.918s-16.489-12.976-13.918-23.237L1048.311,1470.972z"/>
			</g>
			<g>
				<path style="fill:#3B087B;" d="M1632.725,1668.021c-13.483,53.474-61.072,95.635-61.072,95.635s-31.464,24.624-92.103,0
					c-60.639-24.624-87.759-102.334-87.759-102.334c42.541,11.038,80.958,0.667,114.863-33.13
					C1543.533,1660.043,1583.662,1680.16,1632.725,1668.021z"/>
			</g>
			<g>
				<path style="fill:#3B087B;" d="M1960.659,1572.532c-17.634-26.543-31.858-55.22-42.566-84.929
					c-10.664-29.729-18.201-60.342-23.127-91.123c-4.927-30.793-7.549-61.736-8.826-92.539c-1.331-30.811-1.499-61.543-0.508-92.09
					c1.643-61.155,9.941-121.233,15.989-180.581c1.565-14.839,2.739-29.646,3.56-44.402c0.977-14.766,1.155-29.468,0.544-44.063
					c-0.588-14.602-2.407-29.07-6.348-43.035c-3.979-13.926-10.691-27.241-21.296-38.296c13.193,7.671,24.055,20.125,31.328,34.15
					c7.522,13.997,12.212,29.294,15.596,44.578c6.66,30.742,8.142,61.792,8.696,92.407c0.659,61.316-3.484,121.47-6.768,181.006
					c-1.624,29.78-2.739,59.473-2.029,89.019c0.654,29.546,3.242,58.889,7.874,87.725c4.609,28.838,11.614,57.1,21.335,84.219
					c9.771,27.1,22.603,52.876,38.376,76.65l0.078,0.117c5.847,8.813,3.445,20.698-5.369,26.545
					C1978.386,1583.74,1966.506,1581.345,1960.659,1572.532z"/>
			</g>
			<g>
				<path style="fill:#3B087B;" d="M1534.485,1560.345c76.675-21.994,120.344-82.747,86.82-122.533
					c-9.404-11.161-23.181-17.63-37.649-19.55c-49.441-6.56-100.45-6.539-152.784-0.964c-30.363,3.234-52.657,31.98-45.932,61.764
					c7.101,31.449,38.473,63.03,89.403,79.831C1493.779,1565.305,1514.813,1565.988,1534.485,1560.345z"/>
			</g>
			<g>
				<path style="fill:#F1F2F2;" d="M1562.95,1445.601c0,8.814-24.499,10.488-54.719,10.488c-30.22,0-54.719-1.673-54.719-10.488
					s24.499-15.96,54.719-15.96C1538.452,1429.641,1562.95,1436.787,1562.95,1445.601z"/>
			</g>
			<g>
				<path style="fill:#3B087B;" d="M1310.825,1583.767c6.943,7.517,13.94,14.661,21.201,21.343
					c7.139,6.758,14.6,12.998,22.188,18.53c3.735,2.871,7.744,5.205,11.484,7.742c3.933,2.2,7.744,4.507,11.719,6.086
					c3.857,1.956,7.778,3.057,11.533,4.365l5.635,1.177c1.841,0.559,3.672,0.266,5.442,0.491c7.136,0.481,14.805,0.22,22.715-0.908
					c7.91-1.04,16.26-2.632,24.382-5.928c8.125-3.179,16.038-7.412,23.735-12.104c3.835-2.373,7.625-4.871,11.282-7.515
					c3.579-2.522,7.483-5.591,10.222-7.93c7.861-6.714,19.512-6.104,26.638,1.177l0.142,0.146c1.157,1.201,3.083,3.101,4.78,4.661
					c1.76,1.643,3.582,3.254,5.454,4.832c3.708,3.181,7.603,6.167,11.548,9.05c7.937,5.698,16.292,10.647,24.851,14.619
					c8.535,4.006,17.371,7.097,26.191,8.018l3.289,0.461l3.262,0.09c2.161,0.005,4.336,0.234,6.455,0.117
					c2.119-0.137,4.221-0.349,6.335-0.349c2.183,0.095,3.818-0.686,5.796-0.745c15.076-1.428,32.842-9.583,48.54-22.41
					c16.189-12.402,30.989-28.142,45.542-45.017c-1.987,11.079-5.642,21.76-10.01,32.239c-4.37,10.505-9.934,20.583-16.567,30.322
					c-6.736,9.59-14.583,18.989-24.578,26.836c-4.771,4.158-10.425,7.544-16.133,10.984c-2.964,1.543-6.189,2.776-9.353,4.06
					c-1.602,0.618-3.171,1.292-4.851,1.721l-5.127,1.128c-13.887,3.21-26.799,1.707-39.436-0.857
					c-12.576-2.598-24.414-6.682-35.471-11.851c-11.086-5.149-21.428-11.331-31.091-18.264c-4.805-3.503-9.504-7.119-14.023-10.989
					c-2.268-1.914-4.504-3.894-6.704-5.945c-2.275-2.122-4.238-3.997-6.824-6.711l-0.002-0.002l26.777,1.321
					c-2.559,2.219-4.504,3.76-6.738,5.508c-2.168,1.672-4.346,3.318-6.558,4.88c-4.399,3.179-8.914,6.16-13.53,9.014
					c-9.229,5.725-19.011,10.679-29.25,15.11c-10.173,4.495-21.133,8.264-32.813,10.396c-11.667,2.212-24.253,1.848-36.541-1.699
					c-6.311-1.653-11.843-4.463-17.332-7.178c-5.088-3.164-10.32-6.116-14.575-9.946c-8.931-7.278-16.353-15.41-22.605-24.128
					c-6.423-8.574-11.663-17.71-16.199-27.036C1317.253,1603.271,1313.33,1593.745,1310.825,1583.767z"/>
			</g>
			<g>
				<path style="fill:#3B087B;" d="M1505.094,1642.592c-0.283,0-0.571-0.007-0.859-0.02c-10.566-0.466-18.755-9.409-18.286-19.975
					l3.154-71.592c0.459-10.566,9.443-18.765,19.975-18.291c10.567,0.466,18.755,9.409,18.286,19.976l-3.154,71.592
					C1523.76,1634.562,1515.284,1642.592,1505.094,1642.592z"/>
			</g>
			<g>
				<path style="fill:#EF4848;" d="M1512.929,1738.309c0,0-45.143-24.624-73.871,10.944
					c-28.727,35.567-31.007,120.382,58.823,130.414c89.831,10.032,103.51-52.439,104.878-66.575
					c1.368-14.136,1.346-71.748-36.935-80.255C1541.201,1727.365,1512.929,1738.309,1512.929,1738.309z"/>
			</g>
			<g>
				<path style="fill:#3B087B;" d="M1516.627,1899.909c-6.694,0-13.647-0.403-20.869-1.209
					c-42.222-4.714-72.886-25.332-86.338-58.052c-15.947-38.782-3.535-80.801,14.741-103.43
					c27.148-33.621,66.973-28.787,89.956-19.475c11.807-3.491,34.282-8.396,55.864-3.604c47.69,10.601,54.766,70.569,51.841,100.796
					c-0.615,6.35-5.127,39.199-33.75,62.42C1569.586,1892.355,1545.611,1899.909,1516.627,1899.909z M1479.888,1749.057
					c-8.75,0-18.33,2.817-25.933,12.229c-11.646,14.419-18.237,42.6-9.111,64.797c8.12,19.744,26.68,31.37,55.161,34.551
					c27.959,3.12,49.438-1.265,63.935-13.025c17.129-13.894,19.536-34.102,19.756-36.36c1.03-10.649,0.347-54.746-22.026-59.717
					c-15.493-3.447-35.894,2.339-41.826,4.636c-5.215,2.014-11.064,1.655-15.986-0.996
					C1501.973,1754.179,1491.685,1749.057,1479.888,1749.057z"/>
			</g>
			<g>
				<polygon style="fill:#3B087B;" points="1532.026,1736.863 1517.49,1798.499 1493.833,1739.756 				"/>
			</g>
			<g>
				<path style="fill:#3B087B;" d="M1818.096,1201.133c-17.891-4.819-34.949-7.529-51.34-6.772
					c-16.34,0.681-31.78,4.49-45.747,10.923c-13.923,6.484-26.541,15.32-36.838,26.216c-10.425,10.771-18.411,23.528-23.469,37.205
					l-27.385-21.25c23.562-13.411,51.086-19.758,77.625-16.838c13.223,1.533,26.206,5.254,37.693,11.626
					c11.445,6.299,21.433,15.334,27.375,26.235c-10.747-6.191-21.768-9.626-32.72-11.328c-10.964-1.655-21.865-1.633-32.454-0.186
					c-21.191,2.769-40.979,10.684-58.115,22.026c-8.416,5.571-19.756,3.264-25.327-5.151c-3.025-4.57-3.728-10.002-2.39-14.905
					l0.332-1.194c5.652-20.364,17.236-38.572,31.943-52.983c14.841-14.321,32.996-25.061,52.598-30.559
					c19.531-5.603,40.381-6.021,59.387-1.099C1788.276,1177.983,1805.317,1187.832,1818.096,1201.133z"/>
			</g>
			<g>
				
					<ellipse transform="matrix(0.1415 -0.9899 0.9899 0.1415 -106.7776 2355.1367)" style="fill:#3B087B;" cx="1304.452" cy="1239.13" rx="113.072" ry="80.082"/>
			</g>
			<g>
				
					<ellipse transform="matrix(0.1415 -0.9899 0.9899 0.1415 -55.5431 2362.4155)" style="fill:#F1F2F2;" cx="1334.269" cy="1213.231" rx="43.049" ry="28.435"/>
			</g>
			<g style="opacity:0.35;">
				
					<ellipse transform="matrix(0.9961 -0.0882 0.0882 0.9961 -107.6545 116.6219)" style="fill:#F1F2F2;" cx="1265.487" cy="1276.18" rx="21.123" ry="36.678"/>
			</g>
			<g>
				<path style="fill:#3B087B;" d="M1294.592,1185.603c-42.173,12.095-83.643,24.648-123.511,44.07
					c29.927-32.791,65.679-61.287,101.067-88.477l0.029-0.024c11.094-8.523,26.995-6.438,35.518,4.653s6.438,26.992-4.653,35.515
					C1300.464,1183.323,1297.537,1184.749,1294.592,1185.603z"/>
			</g>
			<g>
				<path style="fill:#3B087B;" d="M627.202,1234.057c1.422,2.134,2.626,5.089,3.557,8.919
					C629.5,1240.021,628.296,1237.012,627.202,1234.057z"/>
			</g>
			<g style="opacity:0.3;">
				<path style="fill:#3B087B;" d="M1460.847,1535.888c-2.358,88.212-56.286,98.753-139.068,65.836c0,0,30.713,69.119,72.037,64.122
					c41.324-4.997,108.07-42.407,108.07-42.407c62.55,51.988,127.071,75.781,200.117-22.442
					c-90.679,37.49-150.411,12.12-159.762-76.736"/>
			</g>
			<g style="opacity:0.3;">
				<path style="fill:#3B087B;" d="M1070.974,1039.312c-8.208-82.991,6.374-147.742,6.374-147.742
					c26.147-33.625,57.927-11.962,79.79,11.792c16.081,17.471,18.451,43.332,6.561,63.886
					c-69.219,119.665-75.398,317.387-75.398,317.387"/>
			</g>
			<g style="opacity:0.3;">
				<path style="fill:#3B087B;" d="M1917.654,965.375c0,0-0.587-106.636-56.674-103.9c-56.087,2.736-54.035,72.503-18.468,128.59
					s46.511,190.424,46.511,190.424l23.255-180.849"/>
			</g>
		</g>
		<g>
			<path style="fill:#3B087B;" d="M2953.092,3280.566c-77.036,0.005-161.279-12.603-227.48-54.805
				c-8.921-5.684-11.543-17.524-5.854-26.44c5.674-8.921,17.52-11.553,26.44-5.854c119.736,76.328,314.756,43.56,383.818,28.53
				l-8.652-13.896c-3.149-5.063-3.765-11.299-1.66-16.88c2.104-5.576,6.685-9.858,12.393-11.577
				c126.421-38.115,189.443-121.836,207.827-150.356l-10.957-15.337c-5.264-7.373-4.644-17.432,1.489-24.102
				c60.43-65.684,81.035-185.044,87.334-236.777l-29.355,5.874c-5.884,1.172-12.002-0.474-16.494-4.478
				c-4.487-3.999-6.841-9.878-6.348-15.869c15.391-187.51-69.912-314.517-162.129-343.062c-10.503-3.252-17.988,2.095-20.713,4.546
				c-2.759,2.49-8.945,9.463-6.763,20.464c48.911,246.284,19.907,445.952-81.665,562.217
				c-64.248,73.55-154.058,108.994-259.648,102.515c-10.557-0.649-18.594-9.731-17.944-20.288
				c0.649-10.562,9.897-18.56,20.288-17.944c93.276,5.708,172.31-25.215,228.462-89.482
				c93.579-107.119,119.482-295.186,72.939-529.556c-4.17-21.001,2.817-42.075,18.691-56.382
				c15.801-14.229,37.354-18.965,57.681-12.681c99.448,30.786,198.691,155.171,190.522,357.563l30.332-6.069
				c5.806-1.162,11.86,0.439,16.333,4.341c4.482,3.901,6.895,9.658,6.538,15.586c-0.444,7.412-11.426,175.879-89.663,273.521
				l9.521,13.33c4.165,5.835,4.727,13.506,1.45,19.883c-2.549,4.961-61.44,116.699-213.086,171.416l9.854,15.82
				c3.188,5.127,3.779,11.46,1.582,17.085s-6.919,9.888-12.739,11.494C3158.78,3254.755,3063.321,3280.566,2953.092,3280.566z"/>
		</g>
		<g style="opacity:0.3;">
			<path style="fill:#3B087B;" d="M1336.526,2037.333c-30.205-4.323-59.152-9.521-86.402-15.486
				c-15.376-3.338-26.32-16.908-26.758-32.667c-0.657-23.256,0.93-46.019,5.144-68.289c3.83-20.137,24.131-32.558,43.721-26.539
				c11.491,3.502,24.404,6.566,38.577,9.193v8.536C1310.808,1912.081,1276.444,2007.347,1336.526,2037.333z"/>
		</g>
		<g style="opacity:0.3;">
			<path style="fill:#3B087B;" d="M2039.392,1917.991c-71.025,60.301-173.022,97.291-285.086,116.716
				c7.661-3.994,17.237-7.77,28.946-11.382c142.27-43.775,114.418-172.255,114.418-172.255
				c32.557-12.202,59.917-26.156,79.834-41.641c17.784-13.844,44.049-6.895,52.531,14.008c8.044,19.863,14.774,39.89,20.082,59.972
				C2053.455,1896.048,2049.351,1909.564,2039.392,1917.991z"/>
		</g>
		<g style="opacity:0.3;">
			<path style="fill:#3B087B;" d="M1797.061,1745.411c0,0,99.679-64.792,100.609,105.658l78.904-52.57l-41.018-185.829
				l-76.628,88.725"/>
		</g>
		<g style="opacity:0.3;">
			<path style="fill:#3B087B;" d="M3344.552,3002.796l18.222,25.554c0,0-61.833,120.382-225.17,169.629l22.709,36.497
				c0,0-268.835,74.309-424.402-24.842l99.917-143.474c16.361,0.985,32.229,0.93,47.66-0.164c0,0-55.102,108.289,50.67,117.372
				c105.772,9.138,331.98-144.075,331.98-144.075l-38.303-12.75c0,0,96.635-56.58,147.741-233.486h-67.522
				c0,0,76.99-123.173,49.411-261.284c22.544,56.579,33.926,126.675,27.196,208.37l54.719-10.944
				C3439.38,2729.201,3428.436,2911.635,3344.552,3002.796z"/>
		</g>
		<g style="opacity:0.3;">
			<path style="fill:#3B087B;" d="M2633.203,3381.288c-91.161,17.182-427.028,15.376-545.549,14.172
				c-30.588-0.274-58.44-18.057-71.244-45.8c-13.133-28.454-14.063-53.898-5.691-75.676c21.888-37.045,73.214-90.615,187.468-92.421
				l31.464-5.472c0,0-130.287-118.85-123.118-253.076c7.169-134.226,10.069-172.803,54.445-213.295
				c-81.914,181.558,83.228,457.944,329.956,479.12c0,0,34.145,69.001-100.574,32.23c-134.718-36.771-259.204-20.355-259.204-20.355
				s-151.845,101.613,82.079,126.729c233.869,25.116,471.733,13.242,476.712-51.217
				C2701.986,3311.248,2708.114,3367.171,2633.203,3381.288z"/>
		</g>
		<g style="opacity:0.3;">
			<path style="fill:#3B087B;" d="M1571.325,2971.278c-8.973,39.781-67.851,293.458-118.247,369.573
				c-54.719,82.68-198.795,70.533-267.632,62.817c-68.836-7.66-100.792-65.225-77.098-124.541
				c-3.667,121.258,257.18,48.317,257.18,48.317s58.385-43.72,54.719-274.471c-3.174-203.883-129.411-315.456-158.74-338.656
				c0.711-60.738,0.82-124.267,0.93-189.602l29.931,58.331l87.168,169.793l169.957,193.541L1571.325,2971.278z"/>
		</g>
		<g style="opacity:0.3;">
			<path style="fill:#3B087B;" d="M2038.517,2490.626c-0.602,57.838-3.994,137.509-14.501,229.492
				c-21.888,191.517-45.635,419.476-47.441,496.083c-1.806,76.607-19.152,167.495-114.91,179.971
				c-95.758,12.476-229.82,13.844-269.491-23.091c-25.827-24.076-26.703-69,0.766-104.623c1.97,4.925,3.994,10.561,6.074,17.072
				c34.638,107.633,237.098,51.053,280.873,18.221c43.775-32.832,55.649-193.322,69.329-353.923
				C1962.73,2791.143,2036.766,2497.521,2038.517,2490.626z"/>
		</g>
		<g>
			<g>
				<path style="fill:#FFFFFF;" d="M2573.507,1099.699c-24.914-40.762-37.198-89.693-31.942-140.883
					c12.757-124.249,123.823-214.631,248.072-201.874c124.249,12.757,214.631,123.823,201.874,248.072
					s-123.823,214.631-248.072,201.874c-34.56-3.548-66.486-14.722-94.315-31.651l-104.658,23.471L2573.507,1099.699z"/>
			</g>
			<g style="opacity:0.5;">
				<g>
					<path style="fill:#FFFFFF;" d="M2785.194,800.211c-116.066-11.917-220.601,66.177-244.27,177.795
						c-0.028-7.973,0.315-16.017,1.148-24.127c12.757-124.249,123.822-214.631,248.072-201.874
						c124.249,12.757,214.631,123.823,201.874,248.072c-0.836,8.145-2.119,16.135-3.776,23.969
						C2987.805,909.899,2901.298,812.132,2785.194,800.211z"/>
				</g>
			</g>
			<g>
				<path style="fill:#3B087B;" d="M2766.998,1227.248c-8.467,0-16.978-0.432-25.518-1.311
					c-33.979-3.486-66.079-13.694-95.532-30.361l-97.29,21.819c-6.641,1.487-13.53-0.642-18.164-5.588
					c-4.634-4.949-6.313-11.98-4.404-18.489l26.709-91.06c-25.054-44.338-35.518-94.424-30.288-145.398
					c13.818-134.558,134.443-232.81,269.082-218.967c65.181,6.692,123.857,38.364,165.215,89.187
					c41.357,50.823,60.449,114.709,53.755,179.89c-6.689,65.181-38.364,123.855-89.189,165.212
					C2877.208,1208.124,2823.17,1227.248,2766.998,1227.248z M2649.127,1156.083c3.486,0,6.934,0.952,9.956,2.791
					c26.372,16.045,55.415,25.789,86.309,28.96c55.02,5.649,108.921-10.461,151.807-45.361s69.614-84.412,75.259-139.414
					c5.649-55.005-10.459-108.916-45.361-151.802c-34.897-42.886-84.409-69.614-139.419-75.261
					c-113.457-11.67-215.405,71.228-227.061,184.775c-4.663,45.432,5.444,90.019,29.233,128.94
					c2.817,4.609,3.555,10.195,2.036,15.378l-19.893,67.817l72.944-16.357C2646.324,1156.237,2647.725,1156.083,2649.127,1156.083z"
					/>
			</g>
			<g style="opacity:0.3;">
				<path style="fill:#3B087B;" d="M2572.238,1097.527c61.945,52.395,147.282,75.34,232.026,54.248
					c93.982-23.391,163.228-94.957,188.134-181.814c0.595,11.516,0.328,23.223-0.886,35.052
					c-12.757,124.249-123.823,214.631-248.072,201.874c-34.56-3.548-66.486-14.722-94.315-31.651l-104.659,23.472l29.041-99.009
					C2573.07,1098.984,2572.667,1098.247,2572.238,1097.527z"/>
			</g>
			<g>
				<path style="fill:#FF0068;" d="M2694.222,918.409L2694.222,918.409c19.572-19.572,51.304-16.065,70.876,3.507l3.046,3.046
					l3.046-3.046c19.572-19.572,51.304-23.079,70.876-3.507h0c19.572,19.572,19.572,51.304,0,70.876l-3.046,3.046l-61.533,61.534
					c-5.16,5.16-13.525,5.16-18.685,0l-61.533-61.534l-3.046-3.046C2674.65,969.713,2674.65,937.981,2694.222,918.409z"/>
			</g>
		</g>
	</g>
</g>
</svg>
