<?xml version="1.0" encoding="utf-8"?>
<!-- Generator: Adobe Illustrator 27.5.0, SVG Export Plug-In . SVG Version: 6.00 Build 0)  -->
<svg version="1.1" id="Layer_1" xmlns="http://www.w3.org/2000/svg" xmlns:xlink="http://www.w3.org/1999/xlink" x="0px" y="0px"
	 viewBox="0 0 4000 4000" style="enable-background:new 0 0 4000 4000;" xml:space="preserve">
<g>
	<g>
		<rect style="fill:#81B1FF;" width="4000" height="4000"/>
	</g>
	<g>
		<g style="opacity:0.3;">
			<ellipse style="fill:#000072;" cx="2113.386" cy="3417.243" rx="918.2" ry="108.987"/>
		</g>
		<g>
			<g>
				<path style="fill:#C9BADD;" d="M3080.886,3158.6c0,30.732-8.331,59.532-22.842,84.25
					c-28.966,49.381-82.54,82.485-143.893,82.485c-92.03,0-166.68-74.65-166.68-166.735c0-92.085,74.65-166.68,166.68-166.68
					c9.048,0,17.932,0.717,26.594,2.152C3020.196,3006.762,3080.886,3075.563,3080.886,3158.6z"/>
			</g>
			<g style="opacity:0.3;">
				<path style="fill:#000072;" d="M3058.045,3242.85c-28.966,49.381-82.54,82.485-143.893,82.485
					c-92.03,0-166.68-74.65-166.68-166.735c0-92.085,74.65-166.68,166.68-166.68c9.048,0,17.932,0.717,26.594,2.152
					c-1.92,30.688-6.76,80.046-18.786,130.842c-18.134,76.594,53.236,145.306,128.023,120.762
					C3052.648,3244.801,3055.336,3243.86,3058.045,3242.85z"/>
			</g>
			<g>
				<path style="fill:#000072;" d="M2914.175,3344.623c-102.568,0-186.016-83.447-186.016-186.016s83.447-186.016,186.016-186.016
					s186.016,83.447,186.016,186.016S3016.743,3344.623,2914.175,3344.623z M2914.175,3011.215
					c-81.274,0-147.393,66.118-147.393,147.393S2832.9,3306,2914.175,3306s147.393-66.118,147.393-147.393
					S2995.449,3011.215,2914.175,3011.215z"/>
			</g>
		</g>
		<g>
			<g>
				<path style="fill:#C9BADD;" d="M2883.254,2983.644c-7.117,465.832-388.975,456.066-388.975,456.066
					c-269.579,119.672-381.195-37.573-381.195-37.573c-53.684,16.552-118.955,6.511-118.955,6.511
					c-47.284,38.456-95.727,6.234-95.727,6.234c-74.484,79.781-172.914,16.994-172.914,16.994
					c-70.954-1.6-83.092-31.504-83.092-31.504c-70.898,64.443-161.659,10.042-161.659,10.042s-71.671,47.229-102.182-30.235
					c-0.221-0.552-0.442-1.104-0.662-1.655c-30.18-79.836,59.422-124.141,59.422-124.141
					c-211.039-413.251-129.051-782.915-94.182-898.835c7.559-25.049,22.069-47.449,41.712-64.664
					c151.562-132.637,343.235-177.604,499.653-188.859c171.755-12.359,341.967,37.849,481.005,139.479
					C2577.206,2396.154,2887.944,2676.051,2883.254,2983.644z"/>
			</g>
			<g>
				<path style="fill:#EAE4F2;" d="M1706.866,3070.894c0,0-373.542-141.184-283.133-693.549c0,0,296.903-208.473,447.849,15.058
					c0,0,60.093,101.164,0,255.453C1811.489,2802.146,1768.947,2773.915,1706.866,3070.894z"/>
			</g>
			<g>
				<path style="fill:#EAE4F2;" d="M2067.358,3083.237c0,0,50.936,62.366,140.79,31.626c0,0,0,75.076,34.287,153.107
					c0,0-158.509-14.188-129.354,134.19c0,0-53.31,15.37-118.928,6.503c0,0,18.621-80.692-25.715-153.403
					C1968.439,3255.26,2035.931,3163.042,2067.358,3083.237z"/>
			</g>
			<g style="opacity:0.3;">
				<path style="fill:#000072;" d="M2883.254,2983.644c-7.117,465.832-388.975,456.066-388.975,456.066
					c-269.579,119.672-381.195-37.573-381.195-37.573c-6.401-20.083-3.531-37.794-3.531-37.794
					c80.62,115.145,264.944,33.334,326.806,1.283c12.98-6.725,26.915-11.355,41.378-13.486
					c157.942-23.271,310.917-200.053,269.734-430.124c-30.492-170.352-125.079-253.504-177.469-287.443
					c-18.467-11.963-39.553-19.059-61.357-22.011c-126.121-17.077-151.746-98.117-156.839-134.968
					c-1.453-10.511-6.8-20.167-15.295-26.524c-13.727-10.272-22.641-24.608-28.426-38.682
					c-10.284-25.019-37.779-38.046-63.36-29.252c-580.417,199.532-901.59-27.588-901.59-27.588
					c7.559-25.049,22.069-47.449,41.712-64.664c151.562-132.637,343.235-177.604,499.653-188.859
					c171.755-12.359,341.967,37.849,481.005,139.479C2577.206,2396.154,2887.944,2676.051,2883.254,2983.644z"/>
			</g>
			<g style="opacity:0.3;">
				<path style="fill:#000072;" d="M2242.412,3267.954c-170.211,2.979-129.327,134.182-129.327,134.182
					c-53.684,16.552-118.955,6.511-118.955,6.511c-47.284,38.456-95.727,6.234-95.727,6.234
					c-74.484,79.781-172.914,16.994-172.914,16.994c-70.954-1.6-83.092-31.504-83.092-31.504
					c-70.898,64.443-161.659,10.042-161.659,10.042s-71.671,47.229-102.182-30.235c29.865,6.45,57.48-9.081,73.651-21.266
					c8.981-6.768,20.918-7.739,30.992-2.743c17.293,8.575,31.859,8.4,43.521,4.493c19.259-6.452,32.354-24.41,34.454-44.611
					c4.831-46.477,33.744-83.582,48.923-100.158c5.848-6.386,9.165-14.615,9.498-23.268c0.811-21.115,3.724-43.681,6.562-61.573
					c3.153-19.878-5.532-39.826-22.305-50.951c-164.63-109.19-157.982-306.945-157.982-306.945
					c41.189,84.257,116.793,137.015,167.039,164.5c24.601,13.456,55.27,3.462,67.839-21.604
					c44.056-87.861,133.076-158.234,133.076-158.234c-68.029,112.333-106.982,313.055-106.982,313.055
					c-14.4,64.719-16.552,161.052-16.552,161.052c-67.367,39.008-69.74,117.63-69.74,117.63
					c24.828,55.56,101.078,21.849,101.078,21.849c65.546,55.56,174.404,3.586,174.404,3.586
					c28.402-19.633,24.067-68.374,15.835-104.792c-6.192-27.396,1.419-56.155,20.104-77.125
					c122.987-138.03,235.957-435.256,235.957-435.256c20.66,40.108,24.147,92.711,22.662,134.369
					c-0.691,19.395,22.467,30.034,36.739,16.882c102.396-94.363,229.709-57.291,229.709-57.291
					C2074.573,2884.331,2242.412,3267.954,2242.412,3267.954z"/>
			</g>
			<g style="opacity:0.7;">
				<path style="fill:#FFFFFF;" d="M1433.145,3395.213c-0.025-0.046-0.052-0.094-0.077-0.14
					c-34.627-45.841-5.055-81.883,23.374-103.063c19.366-14.427,26.096-40.472,15.864-62.346
					c-185.428-396.401-107.701-745.519-73.996-857.566c7.559-25.049,22.069-47.449,41.712-64.663
					c151.562-132.637,343.235-177.604,499.653-188.86c78.192-5.626,156.053,1.756,230.81,21.012
					c-91.202-31.369-188.339-44.59-285.983-37.564c-156.418,11.255-348.091,56.222-499.653,188.859
					c-19.642,17.214-34.153,39.615-41.712,64.664c-34.87,115.92-116.858,485.584,94.182,898.835c0,0-89.602,44.304-59.422,124.141
					c0.221,0.552,0.441,1.104,0.662,1.655c17.234,43.756,47.596,47.722,70.761,42.893
					C1443.23,3416.261,1437.694,3407.227,1433.145,3395.213z"/>
			</g>
			<g style="opacity:0.7;">
				<path style="fill:#FFFFFF;" d="M1642.421,3400.387c0,0-11.667-92.278,70.986-131.665c9.117-4.345,15.34-13.072,16.319-23.124
					c6.271-64.359,31.571-298.476,84.096-487.78c0,0-129.461,231.753-123.534,474.108
					C1690.288,3231.926,1575.622,3305.212,1642.421,3400.387z"/>
			</g>
			<g style="opacity:0.7;">
				<path style="fill:#FFFFFF;" d="M2304.506,3325.311c0,0-91.332-185.916-31.035-320.993
					c57.985-129.898,183.567-152.54,183.567-152.54s-219.965-3.218-247.432,190.23
					C2182.138,3235.457,2304.506,3325.311,2304.506,3325.311z"/>
			</g>
			<g>
				<path style="fill:#000072;" d="M2306.187,3503.764c-46.108,0-82.944-9.019-110.698-19.985
					c-46.724-18.467-75.767-45.078-89.253-59.761c-42.915,10.19-88.428,6.826-106.758,4.785
					c-35.82,24.854-73.838,19.531-97.559,9.624c-63.545,56.816-143.325,35.142-182.134,12.593
					c-42.471-1.797-66.484-13.247-79.834-24.092c-56.309,38.604-122.837,23.359-159.165,5.479
					c-14.561,7.056-42.051,16.899-69.409,8.027c-23.252-7.539-40.596-26.074-51.563-55.093
					c-24.634-65.22,16.86-114.341,52.144-138.389c-86.597-175.303-131.416-361.367-133.252-553.315
					c-1.538-160.942,28.13-284.404,45.952-343.677l0,0c8.555-28.452,24.976-53.911,47.495-73.618
					c129.526-113.359,301.445-178.486,510.972-193.574c174.902-12.539,350.254,38.242,493.765,143.12
					c140.815,102.9,256.426,209.614,343.618,317.183c122.935,151.655,184.185,299.98,182.036,440.85
					c-2.417,158.799-47.568,281.489-134.199,364.658c-107.93,103.613-243.247,110.195-270.049,110.444
					C2422.241,3492.25,2358.301,3503.764,2306.187,3503.764z M2113.081,3382.851c6.143,0,12.061,2.939,15.747,8.135
					c4.199,5.796,106.973,142.354,357.598,31.064c2.622-1.167,5.503-1.631,8.33-1.66c1.372,0.137,141.309,1.968,247.227-100.044
					c78.667-75.762,119.692-189.15,121.948-337.012c4.634-304.37-317.432-585.674-509.824-726.265
					c-136.143-99.492-302.441-147.759-468.208-135.776c-200.957,14.468-365.249,76.411-488.306,184.111
					c-17.056,14.927-29.487,34.18-35.952,55.679l0,0c-31.191,103.75-116.689,474.155,92.852,884.507
					c2.349,4.6,2.759,9.946,1.138,14.849s-5.142,8.95-9.766,11.24c-2.959,1.489-73.433,37.769-49.917,100.01
					c6.582,17.432,15.737,28.184,27.207,31.963c17.632,5.806,39.937-4.805,47.041-9.39c6.177-3.984,14.165-4.165,20.474-0.386
					c3.174,1.875,79.536,46.006,138.77-7.783c4.985-4.531,11.587-7.256,18.052-5.366c6.26,1.841,10.796,5.654,12.656,11.807
					c2.134,2.935,16.021,18.916,65.771,20.044c3.53,0.083,6.968,1.128,9.946,3.027c3.442,2.158,86.035,52.92,148.408-13.911
					c6.44-6.899,16.929-8.135,24.805-2.905c1.406,0.908,37.603,23.584,72.9-5.112c4.238-3.442,9.712-4.927,15.117-4.102
					c0.596,0.088,61.65,9.126,110.298-5.864C2109.272,3383.129,2111.187,3382.851,2113.081,3382.851z M1660.317,3393.129
					L1660.317,3393.129L1660.317,3393.129z"/>
			</g>
			<g>
				<g>
					<path style="fill:#000072;" d="M1628.398,3413.665c-1.436-1.563-2.056-2.332-2.952-3.423c-0.82-1.011-1.602-2.014-2.339-3.013
						c-1.501-2.002-2.891-4.014-4.219-6.06c-2.642-4.094-5.032-8.306-7.168-12.664c-4.236-8.718-7.454-18.02-9.429-27.683
						c-4.082-19.331-2.271-40.049,4.207-58.254c6.279-18.425,16.887-34.133,28.528-47.91c11.816-13.701,25.115-25.32,38.909-35.791
						l0.027-0.024l-7.676,14.48c0.225-10.989,0.691-21.345,1.477-31.914c0.737-10.515,1.58-21.006,2.749-31.45
						c0.996-10.476,2.405-20.879,3.672-31.313c1.389-10.417,3.11-20.779,4.653-31.172c6.743-41.475,15.806-82.588,27.014-123.137
						l8.748-30.32l9.944-29.983c3.228-10.007,7.065-19.836,10.864-29.666l5.706-14.727c1.919-4.897,3.818-9.802,6.133-14.563
						c4.414-9.592,8.94-19.119,13.611-28.557c2.268-4.741,4.888-9.346,7.581-13.904c2.646-4.578,5.32-9.133,8.064-13.645
						l8.284-13.464c2.805-4.453,6.108-8.662,9.268-12.908c6.338-8.489,12.83-16.826,19.773-24.79
						c-11.848,40.835-25.405,79.126-37.336,118.271c-12.156,38.96-23.433,78.12-32.339,117.969
						c-8.962,39.807-16.689,79.9-23.181,120.215c-3.181,20.168-6.169,40.369-8.872,60.591c-2.722,20.134-5.151,40.693-7.234,60.371
						l-0.164,1.548c-0.569,5.369-3.462,9.99-7.512,12.932l-0.027,0.017c-12.114,9.192-23.425,19.165-32.874,30.142
						c-9.287,11.006-17.119,22.874-21.304,35.374c-4.377,12.439-5.459,25.342-2.837,37.92c1.289,6.282,3.411,12.485,6.282,18.401
						c1.448,2.952,3.081,5.825,4.849,8.569c0.886,1.367,1.809,2.705,2.749,3.958c0.471,0.637,0.94,1.24,1.404,1.809l1.013,1.213
						L1628.398,3413.665z"/>
				</g>
				<g>
					<path style="fill:#000072;" d="M1979.663,3395.898c-0.21,0.215-0.493,0.579-0.596,0.718l0.002-0.032
						c0.017-0.054-0.005,0.054,0.073-0.112c0.139-0.286,0.295-0.559,0.471-0.825c0.31-0.889,0.774-1.477,1.072-2.559
						c0.745-1.863,1.272-4.16,1.814-6.443c0.339-2.466,0.879-4.829,0.94-7.517l0.273-3.931l-0.076-4.109
						c-0.281-11.011-2.253-22.683-5.391-34.314c-1.616-5.811-3.501-11.643-5.457-17.446c-2.3-5.769-4.233-11.606-6.797-17.327
						c-2.617-5.708-4.958-11.489-7.781-17.144l-8.572-16.936l-0.161-0.32c-3.445-6.804-2.493-14.69,1.768-20.422v-0.002
						c24.138-37.114,48.069-75.815,70.327-114.705c11.326-19.412,22.117-39.114,32.539-58.979
						c10.457-19.844,20.647-39.827,30.103-60.112c19.202-40.476,35.769-81.978,50.137-124.268
						c7.029-21.182,13.796-42.554,19.324-64.377c5.542-21.829,10.269-43.989,14.275-66.926c4.734,22.759,6.245,46.265,5.701,69.702
						c-0.564,23.467-3.672,46.777-7.969,69.829c-8.938,46.074-24.275,90.493-42.109,133.503
						c-17.861,43.069-39.221,84.456-62.529,124.583c-11.931,19.905-24.08,39.67-37.246,58.779
						c-6.506,9.604-13.169,19.106-20.105,28.433c-6.931,9.426-13.87,18.469-21.606,27.791l-0.002,0.002l1.604-20.74l9.299,18.367
						c3.062,6.147,5.708,12.595,8.569,18.882c2.82,6.321,5.088,13.01,7.642,19.504c2.263,6.677,4.441,13.418,6.345,20.303
						c3.704,13.831,6.328,28.315,6.709,43.677l0.068,5.781l-0.378,5.94c-0.151,3.918-0.913,8.037-1.575,12.09
						c-0.923,4.138-1.921,8.274-3.577,12.563c-0.669,2.083-1.865,4.373-2.837,6.519l-1.97,3.477
						c-0.317,0.559-0.854,1.316-1.287,1.953l-0.696,0.991c-0.347,0.469-0.894,1.147-1.36,1.689L1979.663,3395.898z"/>
				</g>
				<g>
					<path style="fill:#000072;" d="M1698.95,3088.508c-4.675-1.987-8.496-3.735-12.61-5.686c-4.058-1.885-8.013-3.892-11.926-5.964
						c-7.859-4.094-15.571-8.386-23.115-12.957c-15.159-9.019-29.763-18.901-43.916-29.412
						c-28.232-21.099-54.568-44.915-77.847-71.604c-11.819-13.169-22.537-27.339-32.512-41.975
						c-5.127-7.214-9.666-14.858-14.382-22.334c-4.287-7.773-8.777-15.393-12.405-23.503
						c-15.349-31.865-24.551-66.914-24.668-101.892c15.679,31.292,31.157,60.498,49.658,87.817
						c17.939,27.522,38.56,53.147,61.821,76.292c23.032,23.335,48.374,44.424,74.927,63.821
						c13.276,9.709,26.965,18.872,40.84,27.695c6.982,4.333,13.965,8.674,21.042,12.778c6.985,3.997,14.397,8.357,20.925,11.697
						L1698.95,3088.508z"/>
				</g>
				<g>
					<path style="fill:#000072;" d="M2094.949,3408.806c-1.235-3.54-1.824-5.742-2.559-8.538c-0.691-2.659-1.289-5.293-1.799-7.947
						c-1.06-5.295-1.809-10.632-2.236-16.045c-0.911-10.796-0.618-21.904,1.46-33.042c2.029-11.108,5.854-22.241,11.682-32.402
						c5.791-10.178,13.555-19.219,22.317-26.563c4.336-3.796,9.048-6.848,13.74-9.937c4.819-2.686,9.634-5.508,14.617-7.551
						c9.888-4.583,20.007-7.51,30.083-10.066c20.183-4.646,40.234-6.282,59.973-6.577l0.015-0.002l-17.583,26.855
						c-5.183-12.2-9.402-23.416-13.257-35.325c-3.774-11.794-7.4-23.633-10.313-35.676c-6.003-24.026-10.54-48.516-12.849-73.418
						c-2.434-24.875-2.673-50.181,0.083-75.471c2.659-25.266,8.477-50.591,18.584-74.519c10.085-23.833,24.053-46.567,42.495-65.046
						c18.335-18.555,39.968-33.081,62.688-44.312l17.412-7.498c5.757-2.607,11.919-3.945,17.871-5.864
						c11.885-4.016,24.214-5.85,36.392-7.861c12.185-1.951,24.565-2.065,36.721-2.717c12.261,0.313,24.463,1.04,36.536,2.517
						c-11.707,3.936-23.345,6.697-34.819,9.81l-16.987,5.261c-5.64,1.658-11.35,2.971-16.765,5.229
						c-10.938,4.092-22.026,7.371-32.395,12.256l-7.893,3.323c-2.651,1.045-5.298,2.092-7.751,3.511
						c-5.002,2.656-10.034,5.198-15.059,7.732c-19.478,11.15-37.197,24.734-51.619,41.14c-14.348,16.453-25.322,35.51-32.893,56.018
						c-7.522,20.537-11.831,42.415-13.704,64.707c-1.772,22.322-1.057,45.054,1.27,67.739c2.478,22.683,6.55,45.356,11.98,67.754
						c2.695,11.204,5.701,22.354,9.033,33.384c3.306,10.903,6.96,22.29,10.793,32.239l0.203,0.527
						c3.845,9.98-1.128,21.189-11.111,25.034c-2.17,0.837-4.478,1.252-6.677,1.292h-0.012c-17.686,0.256-35.164,1.787-51.509,5.552
						c-8.047,2.068-16.006,4.355-23.11,7.703c-3.713,1.479-6.943,3.489-10.334,5.298c-3.093,2.107-6.294,4.097-8.987,6.519
						c-11.191,9.304-18.22,21.699-20.869,36.348c-1.379,7.28-1.633,15.056-0.962,22.908c0.303,3.923,0.857,7.874,1.638,11.758
						c0.369,1.943,0.811,3.879,1.299,5.75c0.427,1.738,1.125,4.043,1.433,4.924L2094.949,3408.806z"/>
				</g>
				<g>
					<path style="fill:#000072;" d="M2258.503,3258.735c0.818,2.341,2.439,5.564,3.826,8.413c1.418,2.966,2.976,5.898,4.561,8.85
						c3.125,5.945,6.663,11.692,10.361,17.456c3.701,5.789,7.905,11.184,12.344,16.609c4.487,5.371,9.458,10.381,14.912,15.247
						c-7.063-1.523-14.302-3.542-21.187-6.45c-6.931-2.827-13.733-6.223-20.259-10.085c-6.589-3.806-12.871-8.142-19.014-12.761
						c-3.025-2.354-5.999-4.797-8.931-7.351c-2.988-2.651-5.579-5.056-8.75-8.503L2258.503,3258.735z"/>
				</g>
				<g>
					<path style="fill:#000072;" d="M1463.74,3419.592c-0.767-3.206-0.896-5.435-1.189-8.052c-0.239-2.52-0.393-5.007-0.503-7.476
						c-0.203-4.939-0.146-9.829,0.129-14.651c0.522-9.624,2.112-19.087,4.822-27.747c3.73,8.313,8.408,15.681,13.726,22.368
						c2.644,3.34,5.413,6.516,8.308,9.497c1.453,1.487,2.915,2.93,4.404,4.294c1.433,1.267,3.108,2.888,4.307,3.455
						L1463.74,3419.592z"/>
				</g>
				<g>
					<path style="fill:#000072;" d="M1710.037,3443.481c-0.864-1.355-0.891-1.655-1.262-2.4c-0.305-0.664-0.454-1.155-0.681-1.741
						c-0.452-1.155-0.708-2.161-1.025-3.223c-0.552-2.078-1.025-4.084-1.294-6.047c-0.667-3.938-0.818-7.725-0.796-11.418
						c0.107-7.378,1.37-14.292,3.206-20.742c1.816-6.47,4.495-12.412,7.368-18.003c1.46-2.788,3.157-5.437,4.7-8.066l5.227-7.515
						l-0.625,8.972c0.029,2.996-0.066,5.908,0.1,8.804c0.381,5.786,1.064,11.384,2.527,16.584c1.426,5.188,3.357,9.998,5.852,14.041
						c1.26,2,2.578,3.875,4.041,5.369c0.686,0.793,1.462,1.428,2.156,1.982c0.354,0.234,0.708,0.554,1.016,0.645
						c0.146,0.042,0.334,0.198,0.427,0.142c0.029-0.134,0.378,0.188-0.054-0.576L1710.037,3443.481z"/>
				</g>
				<g>
					<path style="fill:#000072;" d="M1879.167,3413.003c0.908-1.262,1.824-3.877,2.644-5.994c0.82-2.256,1.582-4.58,2.292-6.946
						c1.418-4.731,2.583-9.622,3.491-14.609c1.887-10.002,2.588-20.396,1.926-31.177c6.667,8.43,12.537,18.091,17.195,28.467
						c2.368,5.19,4.492,10.557,6.328,16.099c0.918,2.773,1.775,5.593,2.559,8.479c0.757,3.025,1.516,5.552,2.004,9.414
						L1879.167,3413.003z"/>
				</g>
			</g>
		</g>
		<g>
			<g>
				<g>
					<path style="fill:#C9BADD;" d="M1585.851,1305.285c21.776,240.081-125.08,460.736-344.693,539.404
						c-31.564,11.345-64.653,19.716-98.898,24.771c-105.619,15.619-207.922-1.256-297.242-42.794l0.399,13.454
						c0.579,22.887-22.17,38.767-43.616,30.906c-45.123-16.752-112.019-60.387-139.09-174.006c-0.005-0.05-0.005-0.05-0.005-0.05
						c-0.286-1.284-2.126-0.99-2.095,0.27c0.047,0.45,0.044,0.905,0.047,1.41c0.025,14.706-10.093,23.298-21.784,24.119
						c-1.455,0.102-2.921,0.104-4.352-0.049c-7.141-0.616-14.436-4.148-20.04-10.839c-54.585-65.548-85.789-153.005-87.278-281.992
						c-3.225-288.78,196.338-567.425,483.464-597.518c144.388-15.133,281.25,30.065,385.403,115.235
						c19.514,15.949,37.914,33.329,54.985,52.01C1525.544,1080.969,1575.077,1186.572,1585.851,1305.285z"/>
				</g>
				<g>
					
						<ellipse transform="matrix(0.7071 -0.7071 0.7071 0.7071 -648.5654 1141.3794)" style="fill:#EAE4F2;" cx="1053.484" cy="1353.577" rx="340.764" ry="340.764"/>
				</g>
				<g style="opacity:0.5;">
					<path style="fill:#FFFFFF;" d="M1557.533,1176.209c-79.203-221.926-302.151-369.473-546.855-343.826
						c-287.152,30.096-486.712,308.75-483.465,597.5c1.048,92.149,17.344,163.018,46.433,219.924
						c-15.753-47.168-24.506-102.642-25.263-169.273c-2.514-223.566,116.57-441.045,303.734-541.826
						c21.966,10.619,67.203,10.769,116.905-1.389c53.358-13.053,95.58-36.314,107.12-57.023
						C1284.187,876.006,1470.613,995.651,1557.533,1176.209z"/>
				</g>
				<g style="opacity:0.3;">
					<path style="fill:#000072;" d="M1451.056,999.614c-60.195,32.638-112.688,70.286-158.552,111.075
						c-70.061-68.867-169.205-107.06-274.54-96.02c-66.602,6.98-126.642,32.774-175.552,71.448
						c28.141-11.108,58.192-18.712,89.752-22.02c1.145-0.12,2.289-0.234,3.433-0.343c147.625-13.992,248.338,144.578,175.86,273.945
						c-85.713,152.99-116.574,306.671-127.675,395.318c-5.14,41.046-46.452,67.064-85.85,54.452
						c-43.035-13.777-80.844-28.521-100.278-36.393c-7.048-2.855-14.657,2.384-14.665,9.989
						c-0.012,10.857,1.129,19.951,2.643,27.229c1.715,8.243-7.173,14.485-14.438,10.229
						c-63.676-37.302-108.482-101.505-108.482-101.505c27.072,113.618,93.967,157.253,139.09,174.006
						c21.446,7.861,44.195-8.019,43.616-30.906l-0.399-13.454c89.32,41.537,191.623,58.413,297.242,42.794
						c34.245-5.055,67.334-13.426,98.898-24.771c219.612-78.667,366.469-299.323,344.693-539.404
						C1575.077,1186.572,1525.544,1080.969,1451.056,999.614z"/>
				</g>
				<g>
					<path style="fill:#000072;" d="M1064.668,1894.496c-69.277,0-137.695-13.208-201.997-39.155
						c-3.179,10.903-9.922,20.581-19.404,27.363c-13.979,9.995-31.982,12.383-48.164,6.396
						c-39.018-14.458-105.273-52.695-140.259-150.605c-0.835,0.366-1.685,0.708-2.554,1.021
						c-18.306,6.694-39.448,0.542-52.627-15.269c-61.138-73.384-90.288-166.851-91.738-294.148
						c-1.68-147.6,46.929-292.434,136.88-407.82c93.589-120.054,222.808-194.311,363.862-209.097
						c145.41-15.232,287.754,27.505,400.742,120.364c112.964,92.842,182.456,224.233,195.684,369.973
						c12.505,137.771-28.057,274.014-114.219,383.633c-86.187,109.653-208.994,181.182-345.796,201.411
						C1118.276,1892.529,1091.401,1894.496,1064.668,1894.496z M845.049,1807.338c2.773,0,5.552,0.596,8.145,1.802
						c89.15,41.479,188.12,55.718,286.235,41.221c263.667-38.994,451.313-277.661,427.197-543.35
						c-12.28-135.366-76.826-257.4-181.738-343.625c-104.937-86.245-237.109-125.947-372.197-111.789
						c-264.766,27.749-469.522,281.665-466.143,578.064c1.343,117.927,27.651,203.679,82.793,269.871
						c3.657,4.385,7.827,4.399,9.707,3.706c0.859-0.313,2.295-0.835,2.275-4.492l-0.015-1.143c0-0.01,0-0.015,0-0.024
						c-0.2-10.42,7.441-19.272,17.768-20.591c10.357-1.318,19.961,5.337,22.388,15.483
						c24.517,102.764,82.627,143.955,127.056,160.41c5.972,2.222,10.576-0.371,12.28-1.592c2.041-1.46,5.439-4.785,5.288-10.664
						l-0.347-13.477c-0.171-6.685,3.125-12.979,8.716-16.646C837.656,1808.403,841.343,1807.338,845.049,1807.338z
						 M679.922,1696.845l0.005,0.229C679.927,1696.996,679.922,1696.918,679.922,1696.845L679.922,1696.845z"/>
				</g>
				<g>
					<path style="fill:#000072;" d="M847.261,1082.236c33.193-43.188,84.426-71.401,138.447-82.998
						c54.241-11.094,111.323-9.648,165.176,4.929c53.923,14.221,104.436,41.479,146.211,78.677
						c20.833,18.66,39.587,39.661,55.779,62.524c16.204,22.859,29.517,47.759,40.017,73.765
						c20.901,52.166,28.845,109.065,24.316,164.941c-0.354,7.007-1.55,13.936-2.314,20.906c-0.979,6.941-2.3,13.835-3.535,20.735
						c-3.04,13.691-6.462,27.31-11.003,40.574c-8.901,26.56-20.618,52.202-35.374,75.972c-14.666,23.823-32.144,45.862-51.846,65.63
						c-19.788,19.69-41.821,37.061-65.471,51.763c-47.41,29.312-101.792,46.67-156.741,51.135l-3.835-36.606
						c24.592-3.269,48.665-9.402,71.729-17.971c23.083-8.508,45.2-19.553,65.559-33.21c20.464-13.469,39.429-29.177,56.326-46.843
						c16.775-17.783,31.567-37.363,44.172-58.228c25.007-41.882,40.076-89.431,43.975-137.861
						c3.896-48.423-3.171-97.939-21.177-143.049c-8.853-22.607-20.129-44.333-33.999-64.338
						c-13.855-20.01-29.976-38.469-47.954-54.944c-36.221-32.578-79.551-57.688-126.648-71.23
						c-23.494-6.814-47.786-11.189-72.324-12.344c-24.519-1.211-49.248,0.344-73.552,4.429c-24.365,3.865-48.413,9.788-72.551,17.1
						C896.453,1063.025,872.571,1072.329,847.261,1082.236z"/>
				</g>
			</g>
			<g>
				<g>
					<path style="fill:#C9BADD;" d="M1905.724,1271.76c28.475,239.379,217.891,424.79,449.042,456.214
						c33.23,4.554,67.336,5.882,101.885,3.727c106.563-6.62,203.144-44.34,281.91-103.494l2.399,13.244
						c4.179,22.51,29.726,33.328,49.076,21.19c40.669-25.744,97.064-82.301,99.99-199.063c-0.005-0.05-0.005-0.05-0.005-0.05
						c0.014-1.316,1.874-1.409,2.105-0.17c0.047,0.45,0.144,0.895,0.247,1.389c3.025,14.392,14.704,20.699,26.312,19.078
						c1.445-0.202,2.879-0.504,4.247-0.95c6.858-2.084,13.262-7.051,17.357-14.759c39.808-75.441,52.2-167.468,26.913-293.96
						c-56.721-283.173-309.721-514.385-596.847-484.292c-144.388,15.133-268.904,87.725-353.135,192.64
						c-15.783,19.648-30.18,40.465-43.007,62.28C1918.212,1039.814,1891.651,1153.393,1905.724,1271.76z"/>
				</g>
				<g>
					<circle style="fill:#EAE4F2;" cx="2436.535" cy="1208.622" r="340.764"/>
				</g>
				<g style="opacity:0.5;">
					<path style="fill:#FFFFFF;" d="M1906.665,1139.617c31.468-233.525,218.979-424.092,463.683-449.739
						c287.152-30.096,540.152,201.126,596.844,484.274c18.081,90.364,16.833,163.072,0.175,224.772
						c5.631-49.409,2.692-105.493-10.383-170.833c-43.894-219.229-205.483-407.291-409.475-467.075
						c-19.287,14.943-63.51,24.469-114.652,22.88c-54.905-1.706-101.033-15.707-116.615-33.574
						C2111.826,789.263,1954.258,944.961,1906.665,1139.617z"/>
				</g>
				<g style="opacity:0.3;">
					<path style="fill:#000072;" d="M1974.213,944.783c65.654,19.447,124.812,45.394,178.137,75.787
						c54.259-81.897,143.331-139.817,248.665-150.857c66.602-6.98,130.685,5.804,186.551,33.497
						c-29.833-5.032-60.807-6.24-92.367-2.932c-1.145,0.12-2.288,0.246-3.429,0.377c-147.318,16.92-212.965,192.926-115.239,304.455
						c115.571,131.893,177.626,275.837,206.866,360.255c13.539,39.088,59.348,55.975,95.274,35.469
						c39.244-22.4,73.174-44.663,90.553-56.393c6.303-4.255,14.833-0.707,16.418,6.731c2.263,10.619,3.032,19.751,3.06,27.186
						c0.031,8.42,10.021,12.683,16.245,7.013c54.558-49.694,85.078-121.792,85.078-121.792
						c-2.926,116.762-59.32,173.319-99.99,199.063c-19.35,12.137-44.897,1.319-49.076-21.19l-2.399-13.244
						c-78.766,59.154-175.347,96.875-281.91,103.494c-34.549,2.155-68.655,0.827-101.885-3.727
						c-231.151-31.424-420.567-216.835-449.042-456.214C1891.651,1153.393,1918.212,1039.814,1974.213,944.783z"/>
				</g>
				<g>
					<path style="fill:#000072;" d="M2424.277,1752.016c-126.206,0.005-248.11-44.243-346.465-126.382
						c-107.012-89.37-174.941-214.241-191.274-351.611c-17.28-145.317,23.462-288.267,114.722-402.51
						c91.274-114.267,221.641-185.591,367.075-200.835c141.04-14.785,282.856,31.067,399.307,129.109
						c111.919,94.231,189.502,225.837,218.462,370.579c24.976,124.829,15.84,222.31-28.76,306.78
						c-9.609,18.198-29.077,28.584-48.311,25.847c-0.913-0.129-1.816-0.288-2.71-0.471
						c-13.916,103.03-70.811,154.177-105.986,176.409c-14.585,9.219-32.695,10.61-48.438,3.735
						c-10.684-4.668-19.292-12.739-24.658-22.744c-79.731,53.657-172.285,85.02-269.385,91.05
						C2446.646,1751.669,2435.435,1752.016,2424.277,1752.016z M2420.278,706.586c-15.903,0-31.89,0.823-47.92,2.505
						c-135.073,14.155-256.147,80.4-340.923,186.526c-84.756,106.106-122.598,238.872-106.548,373.845
						c31.499,264.922,264.556,459.399,530.576,442.964c98.984-6.147,192.856-40.61,271.47-99.668
						c5.347-4.019,12.388-4.976,18.608-2.554c6.23,2.427,10.757,7.905,11.978,14.478l2.456,13.262
						c1.069,5.776,5.088,8.325,7.388,9.331c1.919,0.835,6.953,2.412,12.339-0.991c40.054-25.313,88.359-77.651,91.03-183.254
						c0.283-10.464,8.33-18.965,18.721-19.805c10.469-0.884,19.619,6.206,21.611,16.394l0.264,1.331
						c0.713,3.462,2.231,3.677,3.135,3.806c2.002,0.278,6.064-0.596,8.73-5.642c40.22-76.184,48.179-165.53,25.039-281.169
						C2893.604,904.885,2667.041,706.586,2420.278,706.586z M2873.145,1466.94c0.015,0.071,0.024,0.139,0.039,0.21l-0.02-0.11
						C2873.159,1467.009,2873.149,1466.974,2873.145,1466.94z"/>
				</g>
				<g>
					<path style="fill:#000072;" d="M2582.019,900.42c-26.816-4.443-52.107-8.596-77.292-10.754
						c-25.129-2.148-49.883-2.957-74.519-1.687c-24.624,1.045-49.138,4.651-72.874,10.92c-23.765,6.216-46.621,15.532-68.193,27.068
						c-43.264,23.015-80.447,56.565-109.126,95.942c-14.172,19.844-26.113,41.248-35.52,63.694
						c-9.421,22.446-15.947,46.038-19.919,69.99c-8.262,47.864-4.91,97.769,8.943,144.331
						c13.855,46.567,38.455,89.961,71.602,125.747c16.658,17.798,35.188,33.884,55.286,47.803
						c20.195,13.779,42.002,25.215,64.814,34.15c22.749,9.138,46.675,15.356,71.021,18.894c24.341,3.601,49.16,4.609,73.896,2.708
						l3.838,36.606c-54.68,7.026-111.479,1.318-163.938-17.524c-26.184-9.48-51.34-21.904-74.78-37.063
						c-23.374-15.254-45.039-33.191-64.326-53.455c-19.365-20.193-36.143-42.849-50.359-66.987
						c-7.19-12.034-13.364-24.646-19.175-37.41c-2.642-6.492-5.361-12.964-7.759-19.553c-2.192-6.658-4.8-13.188-6.599-19.971
						c-16.016-53.723-20.039-111.033-10.41-166.396c4.88-27.62,12.742-54.736,23.855-80.459
						c11.096-25.725,25.09-50.159,41.602-72.732c33.154-45.051,76.919-82.19,126.721-107.283
						c49.658-25.425,105.2-38.677,160.564-39.07C2484.624,848.074,2540.591,865.051,2582.019,900.42z"/>
				</g>
			</g>
			<g>
				<path style="fill:#C9BADD;" d="M2671.608,1867.314c-26.925,19.366-76.471-22.621-78.954-24.773
					c61.574,86.237,54.181,258.489,8.938,248.778c-45.132-9.711-42.208-51.919-42.208-51.919
					c-35.863,106.209-201.219,282.379-618.387,344.008c-25.49,3.807-51.974,7.173-79.395,10.042
					c-475.873,49.877-695.465-99.313-756.046-201.715c0,0,11.642,40.718-30.566,59.588
					c-42.208,18.869-85.188-148.252-42.704-245.358c0,0-41.049,54.456-72.167,40.718c-6.179-2.648-9.821-9.435-11.145-18.98
					c-5.738-39.008,26.483-125.134,83.312-175.508c0,0,29.573-603.821,448.011-814.254c14.18-7.173,28.911-13.848,44.029-20.083
					c0.055-0.055,0.055-0.055,0.11-0.055l-0.276-2.924c-2.428-23.118-0.055-40.111-0.055-40.111
					c10.814-0.993,21.959-0.773,33.049,0.276c47.78,4.248,93.409,23.007,93.409,23.007
					c-60.636-84.581-24.718-138.486-24.718-138.486c125.299-4.58,218.819,112.168,218.819,112.168
					c224.171,17.932,385.609,145.107,497.722,287.731c158.017,200.943,218.212,432.562,218.212,432.562
					C2642.862,1738.649,2699.305,1847.452,2671.608,1867.314z"/>
			</g>
			<g>
				
					<ellipse transform="matrix(0.9946 -0.1042 0.1042 0.9946 -211.3102 202.5411)" style="fill:#EAE4F2;" cx="1832.139" cy="2122.963" rx="244.288" ry="195.664"/>
			</g>
			<g>
				<path style="fill:#EAE4F2;" d="M2091.859,1576.744c4.058-26.257,14.065-58.358,37.884-81.446
					c38.388-37.211,104.745-15.628,111.196,37.444c2.593,21.333-5.819,42.379-40.291,54.135
					c-53.185,18.139-68.989,13.936-81.231,15.846C2103.557,1605.199,2089.407,1592.608,2091.859,1576.744z"/>
			</g>
			<g>
				<path style="fill:#EAE4F2;" d="M1468.033,1647.126c-9.414-24.845-25.859-54.174-53.947-71.822
					c-45.269-28.443-105.709,6.43-101.016,59.686c1.887,21.406,14.479,40.251,50.639,44.605c55.79,6.717,70.379-0.671,82.751-1.341
					C1462.49,1677.388,1473.721,1662.137,1468.033,1647.126z"/>
			</g>
			<g style="opacity:0.7;">
				<path style="fill:#FFFFFF;" d="M2555.832,1675.221c-70.77-179.37-317.805-620.527-718.582-655.078
					c-10.243-0.883-19.607-5.981-25.903-14.098c-25.622-33.107-99.384-119.959-185.484-146.464
					c125.292-4.62,218.791,112.15,218.791,112.15C2333.994,1010.905,2524.407,1570.608,2555.832,1675.221z"/>
			</g>
			<g style="opacity:0.7;">
				<path style="fill:#FFFFFF;" d="M1531.48,1084.97l0.088,0.837c-363.67,148.983-470.182,584.001-498.904,760.423
					c4.565-65.402,57.19-650.366,491.779-828.406C1524.443,1017.823,1528.681,1060.785,1531.48,1084.97z"/>
			</g>
			<g style="opacity:0.3;">
				<path style="fill:#000072;" d="M1704.379,1138.592c0,0-183.976,90.392-224.089-100.651
					c14.213-7.147,28.894-13.867,44.053-20.055C1524.228,1029.9,1527.137,1158.543,1704.379,1138.592z"/>
			</g>
			<g style="opacity:0.3;">
				<path style="fill:#000072;" d="M1704.379,1138.592c0,0-162.386,32.563-179.937-120.769l-0.307-2.928
					c-2.422-23.114-0.029-40.125-0.029-40.125c10.789-0.972,28.984-0.076,40.091,0.98
					C1565.519,1030.225,1578.204,1130.246,1704.379,1138.592z"/>
			</g>
			<g style="opacity:0.3;">
				<path style="fill:#000072;" d="M2676.011,1862.184c0.364-0.676,0.685-1.393,0.973-2.142c0.098-0.255,0.212-0.494,0.302-0.756
					c0.334-0.984,0.616-2.016,0.829-3.111c0.091-0.459,0.134-0.96,0.204-1.438c0.088-0.618,0.18-1.232,0.233-1.88
					c0.071-0.814,0.099-1.664,0.117-2.524c0.003-0.23,0.008-0.457,0.008-0.689c0.172-38.182-50.115-119.098-118.079-157.616
					c0,0-60.195-231.62-218.212-432.562c6.779,16.751,13.177,33.25,19.163,49.229c32.217,85.992,6.145,182.748-64.532,241.375
					c-47.091,39.062-94.405,97.65-114.193,182.621c-25.005,107.271,5.185,193.13,37.418,248.679
					c30.67,52.854,19.896,119.981-26.957,159.211c-37.719,31.583-79.526,57.394-120.586,78.271
					c-92.287,46.925-253.216,84.462-356.734,86.117c-430.789,6.886-568.857-195.297-594.548-250.659
					c-2.811-6.057-11.169-6.765-14.814-1.17c-3.441,5.281-6.995,11.198-10.211,16.752c-4.05,6.995-14.639,4.853-15.773-3.15
					c-6.441-45.479-4.882-89.012-1.655-121.419c1.715-17.224-19.225-26.936-31.279-14.514
					c-50.125,51.652-80.188,85.38-98.724,96.918c1.317,9.537,4.985,16.29,11.135,18.976c31.149,13.706,72.182-40.714,72.182-40.714
					c-42.483,97.08,0.514,264.187,42.736,245.329c42.17-18.853,30.555-59.561,30.555-59.561
					c60.588,102.403,280.142,251.587,756.026,201.71c160.512-16.823,287.756-49.766,387.432-90.35
					c0.073-0.03,0.146-0.059,0.219-0.089c4.198-1.71,8.346-3.435,12.447-5.172c0.224-0.095,0.448-0.189,0.671-0.284
					c3.984-1.692,7.923-3.395,11.816-5.11c0.319-0.14,0.637-0.281,0.955-0.422c3.825-1.69,7.607-3.391,11.344-5.103
					c0.343-0.157,0.684-0.315,1.026-0.472c3.717-1.709,7.396-3.427,11.027-5.156c0.32-0.152,0.636-0.305,0.955-0.458
					c3.659-1.749,7.281-3.505,10.853-5.274c0.217-0.107,0.429-0.215,0.646-0.322c3.671-1.822,7.303-3.651,10.883-5.492
					c0.027-0.013,0.052-0.027,0.079-0.041c29.417-15.135,55.742-30.909,79.207-46.985c0.443-0.303,0.895-0.606,1.336-0.909
					c2.374-1.635,4.704-3.274,7.019-4.915c0.666-0.472,1.341-0.943,2.002-1.415c2.14-1.529,4.242-3.061,6.331-4.594
					c0.807-0.592,1.62-1.183,2.42-1.776c1.969-1.459,3.906-2.921,5.829-4.384c0.872-0.663,1.746-1.325,2.608-1.988
					c1.843-1.417,3.659-2.835,5.459-4.254c0.903-0.712,1.805-1.423,2.698-2.136c1.728-1.379,3.435-2.758,5.124-4.138
					c0.929-0.759,1.851-1.517,2.768-2.276c1.62-1.341,3.224-2.682,4.807-4.023c0.952-0.806,1.892-1.612,2.83-2.419
					c1.513-1.3,3.015-2.6,4.494-3.9c0.97-0.852,1.925-1.705,2.88-2.557c1.41-1.258,2.814-2.515,4.192-3.773
					c0.983-0.897,1.947-1.793,2.914-2.689c1.32-1.224,2.641-2.448,3.931-3.67c0.975-0.923,1.926-1.845,2.884-2.768
					c1.239-1.193,2.483-2.387,3.695-3.579c0.991-0.975,1.953-1.948,2.925-2.921c1.138-1.14,2.286-2.28,3.399-3.418
					c1.029-1.052,2.025-2.101,3.033-3.152c1.015-1.058,2.046-2.117,3.04-3.174c1.235-1.312,2.428-2.62,3.63-3.929
					c0.722-0.786,1.465-1.574,2.175-2.36c1.908-2.109,3.774-4.215,5.598-6.314c0.243-0.28,0.472-0.558,0.714-0.837
					c1.588-1.838,3.152-3.672,4.675-5.501c0.43-0.517,0.84-1.03,1.265-1.546c1.312-1.591,2.615-3.181,3.878-4.764
					c0.467-0.585,0.913-1.165,1.373-1.749c1.186-1.504,2.364-3.006,3.508-4.502c0.472-0.618,0.926-1.231,1.39-1.848
					c1.109-1.471,2.209-2.939,3.277-4.402c0.43-0.589,0.846-1.175,1.269-1.762c1.072-1.486,2.131-2.969,3.16-4.446
					c0.391-0.562,0.772-1.121,1.157-1.68c1.028-1.494,2.039-2.983,3.024-4.466c0.357-0.537,0.706-1.073,1.057-1.608
					c0.992-1.513,1.965-3.02,2.912-4.521c0.306-0.485,0.609-0.969,0.911-1.453c0.969-1.553,1.915-3.099,2.837-4.639
					c0.253-0.423,0.505-0.845,0.755-1.267c0.957-1.617,1.888-3.225,2.794-4.825c0.188-0.332,0.377-0.664,0.563-0.996
					c0.948-1.691,1.866-3.371,2.758-5.041c0.13-0.243,0.262-0.487,0.39-0.73c0.952-1.797,1.871-3.582,2.757-5.354
					c0.053-0.106,0.108-0.213,0.161-0.319c4.787-9.602,8.646-18.84,11.604-27.595c-0.035,0.544-1.418,24.146,16.947,39.932
					c6.042,5.197,14.198,9.552,25.279,11.937c45.24,9.71,52.635-162.524-8.929-248.765c0.217,0.187,0.845,0.719,1.826,1.52
					c0.025,0.021,0.047,0.039,0.073,0.06c0.236,0.192,0.495,0.401,0.768,0.62c0.157,0.127,0.309,0.249,0.479,0.385
					c0.201,0.16,0.416,0.33,0.634,0.502c0.272,0.215,0.546,0.431,0.844,0.663c0.172,0.134,0.354,0.274,0.534,0.414
					c0.361,0.28,0.731,0.563,1.125,0.863c0.175,0.133,0.355,0.269,0.536,0.405c0.421,0.318,0.851,0.641,1.303,0.976
					c0.197,0.146,0.4,0.295,0.604,0.444c0.456,0.335,0.92,0.674,1.405,1.024c0.225,0.162,0.455,0.326,0.686,0.492
					c0.491,0.351,0.991,0.705,1.508,1.068c0.25,0.175,0.503,0.351,0.759,0.528c0.516,0.357,1.039,0.716,1.577,1.081
					c0.289,0.196,0.581,0.391,0.875,0.589c0.523,0.35,1.053,0.701,1.594,1.055c0.332,0.217,0.667,0.434,1.005,0.652
					c0.523,0.337,1.051,0.672,1.589,1.011c0.376,0.236,0.753,0.471,1.136,0.708c0.527,0.326,1.06,0.65,1.6,0.974
					c0.406,0.245,0.814,0.487,1.227,0.731c0.531,0.313,1.068,0.624,1.609,0.934c0.439,0.252,0.879,0.502,1.325,0.751
					c0.524,0.293,1.052,0.582,1.583,0.87c0.482,0.262,0.965,0.521,1.453,0.778c0.512,0.27,1.028,0.534,1.547,0.798
					c0.514,0.262,1.028,0.522,1.548,0.778c0.505,0.249,1.013,0.49,1.522,0.731c0.541,0.257,1.081,0.511,1.627,0.759
					c0.501,0.228,1.004,0.447,1.508,0.667c0.563,0.245,1.125,0.489,1.692,0.724c0.492,0.204,0.986,0.398,1.481,0.593
					c0.583,0.23,1.164,0.459,1.75,0.676c0.48,0.178,0.961,0.344,1.443,0.513c0.606,0.213,1.211,0.424,1.818,0.62
					c0.465,0.151,0.931,0.286,1.396,0.427c0.618,0.186,1.236,0.373,1.854,0.541c0.462,0.125,0.923,0.234,1.384,0.348
					c0.624,0.155,1.247,0.311,1.869,0.445c0.447,0.096,0.891,0.172,1.338,0.257c0.635,0.121,1.269,0.243,1.9,0.339
					c0.429,0.065,0.854,0.109,1.282,0.163c0.64,0.08,1.281,0.165,1.917,0.218c0.422,0.035,0.839,0.045,1.259,0.068
					c0.633,0.034,1.268,0.074,1.895,0.078c0.408,0.003,0.808-0.022,1.212-0.032c0.633-0.016,1.267-0.025,1.892-0.074
					c0.379-0.03,0.75-0.09,1.126-0.132c0.638-0.072,1.278-0.137,1.905-0.246c0.354-0.062,0.698-0.157,1.048-0.231
					c0.635-0.135,1.274-0.261,1.896-0.438c0.322-0.091,0.632-0.219,0.95-0.322c0.638-0.206,1.278-0.404,1.901-0.658
					c0.25-0.102,0.489-0.238,0.736-0.349c1.585-0.706,3.127-1.54,4.591-2.592c0.804-0.575,1.514-1.246,2.177-1.967
					c0.169-0.184,0.318-0.388,0.478-0.581c0.471-0.567,0.906-1.17,1.299-1.814
					C2675.716,1862.706,2675.868,1862.449,2676.011,1862.184z"/>
			</g>
			<g>
				<g>
					
						<ellipse transform="matrix(0.9684 -0.2495 0.2495 0.9684 -380.9026 594.0931)" style="fill:#000072;" cx="2152.692" cy="1799.352" rx="105.995" ry="139.196"/>
				</g>
				<g>
					
						<ellipse transform="matrix(0.9684 -0.2495 0.2495 0.9684 -377.3193 585.6463)" style="fill:#FFFFFF;" cx="2121.179" cy="1781.002" rx="30.96" ry="40.657"/>
				</g>
			</g>
			<g>
				<path style="fill:#000072;" d="M1682.5,2422.568c-298.14,0.01-482.178-87.334-565.571-182.666
					c-6.65,11.187-17.397,21.611-34.053,29.058c-14.658,6.558-30.581,2.842-43.696-10.166
					c-31.978-31.733-51.016-120.586-41.084-197.715c-14.277,7.114-30.181,10.171-45.796,3.301
					c-8.433-3.716-19.17-12.48-22.398-33.145c-7.153-45.747,26.934-133.96,83.618-187.988
					c2.49-35.283,15.752-179.443,73.955-343.928c85.562-241.804,229.404-412.227,416.553-493.85
					c-0.981-19.289,0.835-32.686,0.928-33.367c1.24-8.897,8.447-15.764,17.397-16.57c29.565-2.666,61.509,2.715,86.958,9.116
					c-29.546-69.224-0.977-113.574,0.498-115.786c3.442-5.156,9.15-8.345,15.347-8.574
					c117.124-4.285,206.343,87.131,229.043,112.888c223.73,20.63,419.707,153.433,567.217,384.514
					c99.697,156.184,145.669,305.991,155.776,341.694c66.636,41.108,118.257,120.317,120.747,166.543
					c1.128,20.884-7.559,31.685-15.044,37.07c-13.843,9.951-30.063,10.269-45.483,6.27c25.708,73.394,25.508,164.258,0.806,201.934
					c-10.127,15.449-24.941,22.363-40.64,19.009c-17.842-3.833-30.513-11.802-39.341-21.367
					c-73.481,131.411-288.501,281.289-694.629,323.853l0,0C1799.136,2419.452,1738.76,2422.568,1682.5,2422.568z M1105.562,2172.45
					c6.65,0,13.057,3.442,16.631,9.478c16.563,28.003,70.396,98.628,212.188,149.634c139.663,50.234,316.357,64.614,525.205,42.725
					l0,0c208.838-21.89,378.721-72.588,504.932-150.688c128.14-79.297,166.157-159.551,176.558-190.376
					c3.101-9.204,12.554-14.673,22.085-12.764c9.521,1.904,16.147,10.586,15.474,20.278c-0.239,5.732,0.889,25.391,25.698,31.401
					c2.183-2.334,6.821-10.054,10.078-27.017c10.127-52.7-1.357-140.864-37.563-191.406c-5.703-7.964-4.541-18.936,2.705-25.527
					c7.246-6.597,18.281-6.714,25.669-0.288c16.118,13.94,43.745,29.355,54.082,24.36c5.029-18.013-36.011-102.51-108.193-143.442
					c-4.541-2.573-7.847-6.885-9.16-11.934c-0.439-1.67-44.824-169.141-153.643-339.285
					c-144.468-225.881-327.905-349.228-545.215-366.616c-5.313-0.427-10.21-3.025-13.535-7.183
					c-0.835-1.035-83.208-101.838-191.353-104.963c-5.342,16.074-10.63,54.045,28.062,107.947
					c5.024,6.997,4.805,16.477-0.537,23.235c-5.352,6.755-14.512,9.153-22.485,5.889c-0.571-0.234-52.822-21.353-100.889-22.419
					c-0.02,5.967,0.249,13.254,1.167,21.282l0.088,0.691c1.055,8.638-3.799,16.912-11.851,20.21
					c-230.952,94.629-349.092,310.852-407.534,475.579c-63.979,180.337-72.549,340.308-72.627,341.904
					c-0.259,5.186-2.593,10.059-6.484,13.506c-62.129,55.01-84.756,146.182-76.099,162.759
					c11.094,2.725,34.976-18.062,47.866-35.063c5.918-7.803,16.748-9.961,25.171-4.995c8.442,4.951,11.851,15.425,7.925,24.385
					c-24.937,56.948-17.891,145.576,2.935,195.034c6.709,15.918,12.842,22.51,15.464,24.341
					c24.717-11.846,19.336-33.574,18.628-36.055c-2.666-9.336,2.017-19.204,10.938-23.042
					C1100.42,2172.958,1103.008,2172.45,1105.562,2172.45z"/>
			</g>
			<g>
				<path style="fill:#000072;" d="M1660.85,981.69c4.9,4.021,9.939,8.303,14.832,12.632l14.656,13.23l14.602,13.459
					c4.856,4.624,9.426,9.546,14.37,14.863c-7.307,0.681-14.47-0.269-21.226-1.672c-6.765-1.475-13.32-3.423-19.844-5.396
					c-6.497-2.034-12.927-4.207-19.248-6.58c-6.338-2.398-12.483-4.917-18.684-7.83L1660.85,981.69z"/>
			</g>
			<g>
				<path style="fill:#000072;" d="M1543.638,1017.595c0.063,0.269,0.159,1.599,0.242,2.519l0.339,3.167
					c0.273,2.139,0.562,4.331,0.928,6.511c0.767,4.355,1.65,8.728,2.798,13.005c2.278,8.569,5.374,16.829,9.355,24.517
					c7.854,15.437,19.431,28.53,34.307,38.379c7.363,5.022,15.64,9.121,24.377,12.507l6.638,2.439
					c2.285,0.654,4.583,1.313,6.87,2.043c4.543,1.548,9.346,2.466,14.07,3.806c19.141,4.792,39.426,7.683,60.828,12.061
					c-19.927,8.882-41.514,13.359-63.748,13.281c-5.547-0.278-11.155-0.176-16.741-1.082c-2.803-0.337-5.605-0.715-8.403-1.157
					l-8.376-1.812c-11.116-2.7-22.395-6.174-32.949-11.787c-10.547-5.52-20.64-12.446-29.487-20.867
					c-8.748-8.501-16.392-18.24-22.324-28.838c-5.891-10.615-10.503-21.858-13.315-33.464c-1.553-5.771-2.532-11.658-3.262-17.59
					c-0.364-2.969-0.642-5.952-0.752-9.001c-0.076-1.509-0.107-3.062-0.125-4.622c-0.015-1.677,0.02-2.947,0.129-5.281
					L1543.638,1017.595z"/>
			</g>
			<g>
				<g style="opacity:0.3;">
					<path style="fill:#000072;" d="M2011.18,2034.882c-17.214,100.38-111.471,78.818-135.072,71.746
						c-3.23-0.968-5.57-3.752-5.921-7.106l0,0c-0.405-3.861,1.946-7.413,5.601-8.722c80.341-28.783,131.175-113.514,114.43-200.741
						c-23.06-120.13-96.291-177.489-148.611-203.735c-34.893-17.503-76.57-13.135-107.075,11.222
						c-45.742,36.523-105.488,107.82-103.139,230.12c1.691,88.052,67.871,159.92,151.425,172.34
						c3.801,0.565,6.782,3.537,7.183,7.358l0.058,0.555c0.351,3.354-1.36,6.563-4.319,8.179
						c-21.622,11.812-109.36,52.449-147.013-42.181c0,0-66.249,189.76,205.179,161.312
						C2115.333,2206.782,2011.18,2034.882,2011.18,2034.882z"/>
				</g>
				<g>
					<path style="fill:#000072;" d="M1988.025,1869.141c-23.058-120.117-96.275-177.477-148.594-203.726
						c-34.908-17.514-76.589-13.145-107.106,11.226c-45.74,36.527-105.473,107.821-103.125,230.109
						c1.951,101.616,89.771,181.752,191.091,173.745c2.767-0.219,5.574-0.476,8.422-0.775c2.848-0.299,5.648-0.628,8.4-0.988
						C1937.889,2065.556,2007.186,1968.953,1988.025,1869.141z"/>
				</g>
				<g>
					<path style="fill:#000072;" d="M1844.607,2057.72c0.879,2.822,1.313,4.431,1.831,6.572c0.479,2.021,0.894,4.011,1.257,6.011
						c0.73,3.997,1.316,8,1.599,12.061c0.593,8.103,0.549,16.367-0.593,24.736c-2.349,16.584-8.945,33.989-20.803,47.568
						c-11.719,13.638-27.014,23.015-42.378,28.506c-15.481,5.386-30.747,8.027-46.099,8.826
						c-15.427,0.693-31.624-0.344-47.581-5.449c-7.974-2.498-15.703-6.294-22.864-10.957c-7.156-4.724-13.528-10.63-18.879-17.134
						c-5.339-6.538-9.631-13.696-12.957-21.055c-3.298-7.368-5.825-14.91-6.924-22.615c-1.138-7.686-1.082-15.422,0.234-22.966
						c1.394-7.52,3.77-14.958,8.44-21.665c7.542,14.06,12.266,26.177,17.329,37.585c2.532,5.64,4.756,11.169,7.708,16.155
						c2.927,4.983,6.353,9.441,10.21,13.235c15.073,15.508,38.086,19.561,62.385,16.707c12.197-1.389,24.402-3.794,34.917-7.964
						c10.427-4.358,19.365-9.954,25.713-17.429c6.24-7.48,10.542-16.653,12.341-27.371c1.006-5.305,1.399-10.945,1.296-16.65
						c-0.078-2.849-0.161-5.74-0.464-8.584c-0.132-1.421-0.308-2.844-0.51-4.211l-0.522-3.53L1844.607,2057.72z"/>
				</g>
				<g>
					<path style="fill:#000072;" d="M1845.298,2064.326l0.222,3.562c0.083,1.382,0.208,2.808,0.374,4.226
						c0.293,2.847,0.811,5.691,1.326,8.494c1.084,5.603,2.637,11.038,4.719,16.021c3.984,10.11,10.093,18.193,17.751,24.216
						c7.759,5.996,17.661,9.619,28.767,11.721c11.152,1.897,23.589,1.719,35.808,0.549c24.363-2.246,46.035-10.981,57.566-29.277
						c2.986-4.514,5.415-9.585,7.244-15.066c1.853-5.488,2.883-11.36,4.192-17.4c2.588-12.212,4.697-25.044,9.16-40.364
						c5.957,5.593,9.824,12.378,12.747,19.446c2.852,7.107,4.512,14.663,4.993,22.417c0.522,7.766-0.388,15.667-2.085,23.56
						c-1.729,7.888-4.443,15.781-8.308,23.284c-3.889,7.473-8.896,14.57-14.919,20.676c-6.038,6.047-12.813,11.362-20.095,15.459
						c-14.551,8.303-30.181,12.678-45.415,15.198c-15.186,2.402-30.667,2.983-46.929,0.923
						c-16.167-2.185-33.074-8.188-47.366-19.102c-14.414-10.823-24.478-26.482-30.215-42.219c-2.854-7.949-4.609-16.028-5.71-24.077
						c-0.564-4.028-0.82-8.069-0.933-12.129c-0.061-2.031-0.068-4.065-0.017-6.14c0.061-2.202,0.151-3.867,0.427-6.812
						L1845.298,2064.326z"/>
				</g>
				<g>
					<path style="fill:#000072;" d="M1831.349,2115.427c0,0-44.8,75.27-153.491,48.523c0,0,56.941,115.625,170.552,103.718
						c113.611-11.907,145.341-136.826,145.341-136.826C1894.305,2175.071,1831.349,2115.427,1831.349,2115.427z"/>
				</g>
				<g>
					<path style="fill:#FF4A9C;" d="M1946.547,2216.819c-22.382,24.687-54.087,46.256-98.134,50.873
						c-43.996,4.611-79.485-9.916-106.499-29.425l0.045-0.055c0,0,88.094-100.366,204.533-21.437L1946.547,2216.819z"/>
				</g>
				<g>
					<path style="fill:#000072;" d="M1831.719,2286.952c-112.437,0-167.944-109.946-170.371-114.873
						c-3.164-6.416-2.314-14.087,2.168-19.663c4.482-5.571,11.782-8.027,18.74-6.338c93.315,22.969,131.753-37.583,133.345-40.171
						c2.9-4.727,7.817-7.944,13.315-8.667c5.483-0.718,11.001,0.996,15.015,4.756c2.373,2.188,56.143,50.352,142.339,12.031
						c6.45-2.861,13.955-1.797,19.346,2.749c5.386,4.541,7.705,11.768,5.972,18.599c-1.426,5.605-36.323,137.505-161.26,150.596
						C1843.96,2286.635,1837.759,2286.952,1831.719,2286.952z M1715.513,2187.846c23.76,29.658,67.451,68.154,130.977,61.519
						c64.263-6.733,99.087-54.478,115.967-88.516c-60.439,14.165-105.039-5.645-127.505-19.883
						C1813.545,2164.291,1773.296,2189.863,1715.513,2187.846z"/>
				</g>
			</g>
			<g>
				<g>
					
						<ellipse transform="matrix(0.0325 -0.9995 0.9995 0.0325 -467.8384 3265.4214)" style="fill:#000072;" cx="1452.692" cy="1874.352" rx="139.196" ry="105.995"/>
				</g>
				<g>
					
						<ellipse transform="matrix(0.0325 -0.9995 0.9995 0.0325 -417.1858 3268.1912)" style="fill:#FFFFFF;" cx="1479.448" cy="1849.575" rx="40.657" ry="30.96"/>
				</g>
			</g>
		</g>
		<g>
			<g>
				<path style="fill:#C9BADD;" d="M3193.882,2762.232c0,14.731-4.579,28.304-12.414,39.504
					c-12.469,17.932-33.214,29.683-56.773,29.683c-38.18,0-69.133-30.952-69.133-69.188c0-38.18,30.952-69.133,69.133-69.133
					c19.697,0,37.518,8.221,50.098,21.462C3186.655,2726.976,3193.882,2743.749,3193.882,2762.232z"/>
			</g>
			<g style="opacity:0.3;">
				<path style="fill:#000072;" d="M3181.468,2801.736c-12.469,17.932-33.214,29.683-56.773,29.683
					c-40.701,0-73.189-35.176-68.721-76.851c3.379-31.513,28.697-57.184,60.166-60.956c23.048-2.762,44.274,5.814,58.653,20.949
					c-7.503,14.03-16.935,29.951-27.892,44.8c-14.017,18.994,0.451,45.983,23.952,43.75
					C3174.18,2802.795,3177.715,2802.344,3181.468,2801.736z"/>
			</g>
			<g>
				<path style="fill:#000072;" d="M3124.722,2845.204c-45.742,0-82.959-37.217-82.959-82.959s37.217-82.959,82.959-82.959
					s82.959,37.217,82.959,82.959S3170.464,2845.204,3124.722,2845.204z M3124.722,2706.874c-30.532,0-55.371,24.839-55.371,55.371
					s24.839,55.371,55.371,55.371s55.371-24.839,55.371-55.371S3155.254,2706.874,3124.722,2706.874z"/>
			</g>
		</g>
		<g>
			<g>
				<path style="fill:#C9BADD;" d="M3116.087,2757.818c-96.885,111.727-243.151,120.996-243.151,120.996
					c-39.835-175.728-144.555-294.462-144.555-294.462c-121.823-2.097-177.383-28.69-177.383-28.69
					c-156.031-6.511-128.279-108.196-128.279-108.196c-4.69-4.304-8.662-8.662-11.863-13.021
					c-35.256-47.339,11.863-93.961,11.863-93.961c-1.159-46.125,47.504-49.27,47.504-49.27
					c201.55-3.752,335.511-39.173,335.511-39.173C3280.34,2170.107,3219.152,2638.974,3116.087,2757.818z"/>
			</g>
			<g style="opacity:0.3;">
				<path style="fill:#000072;" d="M3116.087,2757.818c-96.885,111.727-243.151,120.996-243.151,120.996
					c-39.835-175.728-144.555-294.462-144.555-294.462c-121.823-2.097-177.383-28.69-177.383-28.69
					c-156.031-6.511-128.279-108.196-128.279-108.196c32.541,54.579,94.634,61.463,117.035,62.11
					c6.192,0.179,12.339,1.07,18.332,2.639c156.293,40.946,297.049,37.311,365.317,31.795c10.688-0.864,15.021,13.46,5.67,18.708
					c-26.327,14.776-52.425,26.599-73.263,35.165c-21.208,8.718-29.24,34.266-17.28,53.83c16.963,27.748,31.14,58.129,42.19,85.104
					c20.706,50.545,83.024,70.474,127.862,39.279c121.286-84.381,122.1-267.39,118.022-333.96
					c-0.503-8.219-8.957-12.905-16.58-9.792c-9.458,3.863-19.229-0.766-25.307-4.859c-4.349-2.929-9.711-3.879-14.792-2.583
					c-401.781,102.522-599.702-133.688-599.702-133.688c201.55-3.752,335.511-39.173,335.511-39.173
					C3280.34,2170.107,3219.152,2638.974,3116.087,2757.818z"/>
			</g>
			<g>
				<path style="fill:#000072;" d="M2872.949,2892.616c-6.396,0-12.012-4.429-13.442-10.747
					c-34.346-151.519-118.735-260.771-137.681-283.882c-105.811-2.544-161.353-23.32-174.019-28.687
					c-59.731-2.92-101.309-19.863-123.613-50.371c-18.657-25.518-18.125-53.184-16.353-66.724
					c-15.469-16.157-23.491-34.258-23.872-53.911c-0.571-29.614,16.899-53.657,25.039-63.223
					c2.07-42.461,39.795-56.309,60.303-57.637c0.21-0.015,0.42-0.024,0.635-0.024c197.354-3.662,330.928-38.359,332.251-38.706
					c0.391-0.103,0.786-0.19,1.182-0.259c220.933-38.149,317.71,43.188,359.98,118.115
					c75.576,133.965,27.876,335.664-36.841,410.288c-99.531,114.766-246.479,125.347-252.686,125.737
					C2873.54,2892.607,2873.242,2892.616,2872.949,2892.616z M2470.869,2304.985c-6.548,0.557-35.127,4.736-34.346,35.122
					c0.098,3.804-1.382,7.48-4.092,10.161c-0.181,0.181-21.465,21.836-20.874,47.661c0.317,13.97,7.207,27.212,20.469,39.355
					c3.813,3.491,5.356,8.823,3.994,13.809c-0.273,1.055-7.002,27.998,10.669,51.86c17.266,23.311,53.54,36.763,104.902,38.906
					c1.865,0.078,3.701,0.532,5.386,1.343c0.498,0.234,55.107,25.371,171.616,27.334c3.872,0.063,7.544,1.758,10.107,4.663
					c4.277,4.844,102.91,118.081,144.868,288.55c35.513-4.917,145.674-26.846,222.109-114.976
					c60.327-69.561,101.04-259.209,33.657-378.657c-54.316-96.274-168.691-132.422-330.718-104.58
					C2798.306,2268.168,2664.575,2301.347,2470.869,2304.985z"/>
			</g>
			<g>
				<path style="fill:#000072;" d="M2727.227,2570.581c11.084-0.642,22.424-1.328,33.684-1.77l33.857-1.694l33.909-1.875
					c11.338-0.586,22.725-0.894,34.463-0.737c-10.332,5.581-21.245,9.707-32.271,13.132c-11.05,3.359-22.244,6.001-33.445,8.647
					c-11.211,2.585-22.483,4.758-33.789,6.753c-11.323,2.09-22.588,3.73-34.146,5.037L2727.227,2570.581z"/>
			</g>
		</g>
		<g>
			<g>
				<path style="fill:#C9BADD;" d="M2749.119,1835.1c-28.876,115.933-133.532,195.329-249.141,196.417
					c-16.622,0.174-33.475-1.292-50.328-4.498c-51.985-9.876-97.13-34.425-132.184-68.405l-2.002,6.363
					c-3.453,10.808-16.687,14.54-25.447,7.37c-18.397-15.185-42.612-46.499-36.796-104.092c0.006-0.024,0.006-0.024,0.006-0.024
					c0.075-0.648-0.834-0.809-1.024-0.214c-0.051,0.218-0.127,0.431-0.208,0.668c-2.382,6.888-8.516,9.264-14.123,7.745
					c-0.698-0.189-1.384-0.427-2.029-0.731c-3.243-1.451-6.083-4.291-7.617-8.335c-14.885-39.568-15.261-85.587,5.033-146.212
					c45.485-135.711,184.252-233.677,323.561-201.039c70.055,16.413,126.769,59.843,161.666,116.663
					c6.54,10.642,12.325,21.772,17.276,33.295C2757.392,1720.277,2763.394,1777.774,2749.119,1835.1z"/>
			</g>
			<g>
				
					<ellipse transform="matrix(0.7071 -0.7071 0.7071 0.7071 -522.4344 2280.876)" style="fill:#EAE4F2;" cx="2492.044" cy="1771.072" rx="168.886" ry="168.886"/>
			</g>
			<g style="opacity:0.5;">
				<path style="fill:#FFFFFF;" d="M2756.868,1770.067c-0.962-116.779-81.32-222.132-200.046-249.948
					c-139.322-32.641-278.089,65.33-323.558,201.03c-14.506,43.308-18.409,79.136-14.053,110.509
					c0.302-24.644,5.232-52.038,15.72-83.353c35.205-105.067,126.343-187.496,230.361-204.216
					c8.555,8.546,29.707,15.978,54.953,18.374c27.103,2.573,50.654-1.445,59.426-9.262
					C2677.76,1585.051,2745.561,1671.398,2756.868,1770.067z"/>
			</g>
			<g style="opacity:0.3;">
				<path style="fill:#000072;" d="M2735.761,1670.071c-33.49,5.483-64.19,14.565-92.299,26.196
					c-21.59-43.64-61.788-77.654-112.894-89.627c-32.314-7.571-64.618-5.267-93.808,4.879c14.981-0.62,30.287,0.71,45.599,4.298
					c0.555,0.13,1.11,0.263,1.663,0.398c71.385,17.474,92.726,108.094,37.745,156.86c-65.021,57.67-104.478,124.591-124.101,164.283
					c-9.086,18.378-32.659,23.835-49.05,11.52c-17.904-13.453-33.204-26.508-41.021-33.355c-2.835-2.484-7.249-1.269-8.491,2.289
					c-1.772,5.08-2.718,9.523-3.194,13.177c-0.539,4.138-5.715,5.614-8.423,2.439c-23.738-27.825-34.265-65.171-34.265-65.171
					c-5.817,57.594,18.398,88.907,36.796,104.092c8.76,7.17,21.994,3.438,25.447-7.37l2.002-6.363
					c35.054,33.98,80.198,58.529,132.184,68.405c16.854,3.206,33.706,4.673,50.328,4.498
					c115.609-1.088,220.265-80.484,249.141-196.417C2763.394,1777.774,2757.392,1720.277,2735.761,1670.071z"/>
			</g>
			<g>
				<path style="fill:#000072;" d="M2498.062,2045.385c-16.836,0-33.882-1.567-50.991-4.819
					c-46.68-8.867-89.722-29.38-125.522-59.668c-3.491,3.574-7.886,6.26-12.827,7.715c-9.521,2.798-19.78,0.698-27.466-5.635
					c-16.074-13.252-40.903-41.787-42.603-92.412c-10.303-0.977-19.458-8.062-23.33-18.33
					c-17.036-45.273-15.488-94.673,4.868-155.464c50.449-150.62,199.741-242.878,339.775-210.081
					c71.675,16.794,132.28,60.642,170.654,123.474c38.364,62.817,49.692,136.777,31.89,208.262
					C2731.782,1961.83,2620.898,2045.38,2498.062,2045.385z M2317.485,1944.819c3.54,0,6.997,1.367,9.6,3.892
					c34.395,33.345,77.661,55.737,125.132,64.756c127.568,24.243,252.114-55.576,283.525-181.709
					c16.001-64.258,5.82-130.747-28.667-187.212c-34.492-56.479-88.975-95.898-153.398-110.996
					c-126.372-29.604-261.357,54.727-307.324,191.982c-17.954,53.613-19.839,96.636-5.874,135.186
					c3.081-5.093,9.102-7.813,15.161-6.567c7.173,1.509,12.031,8.149,11.304,15.449c-5.059,50.244,14.531,77.813,31.86,92.09
					c0.806,0.669,1.602,0.625,2.124,0.459c1.045-0.308,1.299-1.099,1.382-1.362l2.036-6.372c1.455-4.546,5.156-8.018,9.785-9.18
					C2315.239,1944.955,2316.367,1944.819,2317.485,1944.819z M2252.212,1868.002l12.998,4.614c0.02-0.054,0.039-0.112,0.059-0.171
					L2252.212,1868.002z M2265.278,1872.426c-0.005,0.005-0.005,0.01-0.005,0.015
					C2265.273,1872.436,2265.273,1872.431,2265.278,1872.426z M2265.288,1872.397L2265.288,1872.397L2265.288,1872.397z
					 M2265.298,1872.363c0,0.005,0,0.005,0,0.005S2265.298,1872.367,2265.298,1872.363z M2265.308,1872.333L2265.308,1872.333
					L2265.308,1872.333z M2265.317,1872.299v0.005V1872.299z M2239.229,1863.901c-0.176,0.171-0.293,0.327-0.342,0.425l13.105,4.326
					L2239.229,1863.901z M2239.233,1863.896l12.979,4.106l-12.886-4.189C2239.292,1863.837,2239.263,1863.866,2239.233,1863.896z"/>
			</g>
			<g>
				<path style="fill:#000072;" d="M2439.661,1610.491c21.78-17.334,51.106-23.164,78.838-19.99
					c27.729,3.774,54.756,13.865,78.247,29.585c23.63,15.535,43.218,37.112,57.031,61.868c7.195,12.253,12.253,25.623,16.523,39.167
					c1.743,6.877,3.459,13.811,4.683,20.811l1.365,10.593l0.659,5.303l0.168,5.339c1.174,28.494-4.355,57.075-15.779,83.157
					c-2.825,6.528-6.418,12.715-9.705,19.023l-5.923,8.892c-2.014,2.935-3.848,5.996-6.211,8.669
					c-4.568,5.452-8.796,11.201-14.023,16.047l-7.534,7.529l-8.179,6.819c-43.723,36.492-105.334,49.089-159.158,34.395
					l5.713-24.385c23.667,4.436,47.986,3.611,70.872-2.358c5.825-1.111,11.294-3.484,16.902-5.303
					c2.842-0.823,5.437-2.295,8.14-3.469l8.03-3.704c10.256-5.808,20.317-12.009,29.16-19.775
					c17.898-15.178,32.451-34.275,41.729-55.759c9.353-21.438,13.792-45.054,12.908-68.381l-0.042-4.387l-0.505-4.355l-0.977-8.718
					c-0.928-5.767-2.278-11.484-3.591-17.183c-3.408-11.191-7.336-22.336-13.186-32.546c-11.272-20.544-26.726-39.141-46.121-52.712
					c-19.189-13.823-41.707-22.852-65.176-27.195c-11.736-2.229-23.64-3.674-35.967-4.756
					C2466.194,1611.606,2453.538,1611.27,2439.661,1610.491z"/>
			</g>
			<g>
				<path style="fill:#C9BADD;" d="M2904.317,1871.461c-25.625,116.694,32.873,234.315,135.968,286.642
					c14.815,7.54,30.565,13.712,47.089,18.325c50.962,14.243,102.313,12.302,148.812-2.572l-1.032,6.59
					c-1.707,11.217,8.492,20.439,19.525,17.906c23.228-5.433,58.832-22.732,79.203-76.916c0.006-0.024,0.006-0.024,0.006-0.024
					c0.221-0.614,1.107-0.355,1.013,0.263c-0.051,0.218-0.078,0.442-0.111,0.691c-0.926,7.229,3.515,12.083,9.213,13.213
					c0.709,0.14,1.43,0.233,2.143,0.246c3.55,0.141,7.356-1.143,10.527-4.084c30.912-28.838,51.689-69.902,60.437-133.232
					c19.53-141.792-61.281-291.201-200.59-323.839c-70.055-16.413-140.158-2.693-196.662,32.713
					c-10.586,6.63-20.713,14.032-30.268,22.157C2947.908,1764.912,2916.991,1813.759,2904.317,1871.461z"/>
			</g>
			<g>
				
					<ellipse transform="matrix(0.7071 -0.7071 0.7071 0.7071 -437.0591 2801.417)" style="fill:#EAE4F2;" cx="3163.08" cy="1928.285" rx="168.886" ry="168.886"/>
			</g>
			<g style="opacity:0.5;">
				<path style="fill:#FFFFFF;" d="M2926.261,1809.754c52.734-104.199,171.525-162.894,290.252-135.078
					c139.322,32.641,220.131,182.055,200.592,323.831c-6.241,45.245-18.657,79.078-36.496,105.251
					c10.677-22.213,18.427-48.946,22.94-81.661c15.128-109.771-29.912-224.104-115.678-285.288
					c-11.46,3.856-33.713,1.119-57.396-7.947c-25.425-9.734-44.74-23.795-49.127-34.694
					C3079.319,1679.13,2980.219,1726.375,2926.261,1809.754z"/>
			</g>
			<g style="opacity:0.3;">
				<path style="fill:#000072;" d="M2989.589,1729.539c27.57,19.788,51.041,41.561,71.058,64.467
					c38.728-29.508,89.85-42.127,140.957-30.154c32.314,7.571,60.233,23.984,81.879,46.039c-13.147-7.21-27.45-12.817-42.762-16.404
					c-0.555-0.13-1.111-0.257-1.667-0.382c-71.718-16.053-131.091,55.658-103.492,123.771
					c32.638,80.55,38.264,158.033,38.214,202.31c-0.023,20.502,18.673,35.862,38.829,32.108c22.017-4.1,41.523-9,51.568-11.663
					c3.643-0.966,7.059,2.083,6.59,5.823c-0.669,5.339-1.795,9.74-2.992,13.224c-1.355,3.947,2.627,7.568,6.464,5.927
					c33.627-14.385,59.647-43.169,59.647-43.169c-20.371,54.184-55.975,71.482-79.203,76.916
					c-11.033,2.533-21.232-6.689-19.525-17.906l1.032-6.59c-46.499,14.874-97.85,16.815-148.812,2.572
					c-16.524-4.613-32.274-10.785-47.089-18.325c-103.095-52.327-161.593-169.948-135.968-286.642
					C2916.991,1813.759,2947.908,1764.912,2989.589,1729.539z"/>
			</g>
			<g>
				<path style="fill:#000072;" d="M3250.977,2212.553c-7.446,0-14.697-2.773-20.278-7.935c-3.784-3.501-6.523-7.856-8.066-12.612
					c-45.522,11.24-93.203,10.498-138.965-2.29c-139.15-38.887-223.848-179.985-192.827-321.226
					c15.806-71.953,58.809-133.188,121.079-172.422c62.295-39.248,136.079-51.611,207.739-34.819
					c140.083,32.822,232.808,181.792,211.099,339.141c-8.76,63.516-29.316,108.457-64.692,141.44
					c-8.022,7.485-19.365,9.78-29.038,6.064c-24.004,44.6-58.926,59.141-79.214,63.872
					C3255.542,2212.294,3253.252,2212.553,3250.977,2212.553z M3236.172,2160.053c3.237,0,6.421,1.138,8.95,3.301
					c3.633,3.096,5.405,7.852,4.688,12.568l-1.006,6.606c-0.044,0.273-0.171,1.099,0.63,1.841c0.4,0.371,1.084,0.757,2.114,0.532
					c21.865-5.103,51.665-21.099,69.438-68.35c2.583-6.851,9.888-10.635,16.948-8.838c6.006,1.533,10.205,6.675,10.718,12.622
					c29.629-28.33,47.051-67.705,54.78-123.716c19.78-143.389-63.706-278.906-190.063-308.516
					c-64.438-15.088-130.752-3.975-186.743,31.304c-55.977,35.269-94.634,90.317-108.843,155
					c-27.886,126.958,48.242,253.784,173.306,288.735c46.553,13.008,95.264,12.163,140.879-2.437
					C3233.345,2160.268,3234.766,2160.053,3236.172,2160.053z M3334.839,2122.099l13.604,2.295c0.01-0.137-0.015-0.322-0.073-0.537
					l-0.601-0.098L3334.839,2122.099z M3321.245,2119.74c-0.01,0.044-0.015,0.093-0.02,0.142L3321.245,2119.74z"/>
			</g>
			<g>
				<path style="fill:#000072;" d="M3281.34,1807.683c-12.778-5.466-24.268-10.786-35.83-15.288
					c-11.523-4.504-22.832-8.499-34.338-11.714c-22.954-6.536-47.139-8.447-70.471-4.587c-23.403,3.547-45.51,13.345-64.734,26.743
					c-9.778,6.55-18.25,14.79-26.272,23.301c-3.708,4.524-7.456,9.045-10.85,13.799l-4.746,7.38l-2.388,3.677l-1.987,3.911
					c-11.152,20.508-17.666,43.635-18.811,67c-1.23,23.369,3.328,46.941,12.62,68.491c4.473,10.886,10.735,20.911,17.341,30.671
					l5.549,6.885c1.902,2.251,3.572,4.722,5.752,6.724c4.216,4.119,8.064,8.674,12.786,12.258
					c17.856,15.515,39.275,27.053,62.451,33.591l-5.713,24.387c-54.749-10.742-104.353-49.397-127.319-101.514l-4.297-9.739
					l-3.406-10.095c-2.532-6.663-3.765-13.691-5.435-20.605c-0.933-3.445-1.216-7.004-1.716-10.527l-1.355-10.596
					c-0.144-7.112-0.615-14.253-0.247-21.355c1.35-28.44,9.094-56.504,22.8-81.511l2.522-4.709l2.947-4.458l5.93-8.884
					c4.202-5.73,8.818-11.177,13.438-16.565c9.844-10.239,20.313-19.971,32.202-27.751c23.372-16.045,50.505-26.675,78.577-30.098
					c28.03-3.65,56.726-0.684,83.245,8.25C3245.842,1764.229,3269.529,1782.478,3281.34,1807.683z"/>
			</g>
			<g>
				<path style="fill:#C9BADD;" d="M3165.909,2274.882c-16.166,4.8-32.939-24.497-32.939-24.497
					c14.842,50.374-16.662,129.879-36.249,117.961c-19.587-11.862-11.311-31.173-11.311-31.173
					c-35.532,45.739-149.245,104.168-372.036,55.008c-4.028-0.938-8.111-1.821-12.249-2.814
					c-230.902-54.07-309.414-159.673-321.111-217.439c0,0-1.159,20.966-24,22.897c-22.842,1.986-15.78-83.257,19.917-121.769
					c0,0-28.028,18.759-40.387,7.283c-2.483-2.262-3.09-6.014-2.152-10.704c3.696-19.201,32.773-54.291,67.588-68.581
					c0,0,112.113-277.855,342.242-308.31c7.78-0.993,15.78-1.766,23.89-2.207c0,0,0,0,0.055,0l0.331-1.435
					c2.593-11.2,6.51-18.759,6.51-18.759c5.186,1.269,10.373,3.2,15.448,5.517c21.628,9.766,39.946,25.932,39.946,25.932
					c-14.621-49.435,10.98-68.801,10.98-68.801c59.422,18.207,84.195,88.057,84.195,88.057
					c132.583,58.319,185.549,185.77,206.184,290.766c17.656,89.657,11.752,162.928,11.752,162.928
					C3173.413,2209.998,3182.131,2270.082,3165.909,2274.882z"/>
			</g>
			<g>
				
					<ellipse transform="matrix(0.2281 -0.9736 0.9736 0.2281 -90.1217 4402.2412)" style="fill:#EAE4F2;" cx="2731.349" cy="2257.959" rx="96.973" ry="121.071"/>
			</g>
			<g>
				<path style="fill:#EAE4F2;" d="M2941.007,2046.864c6.173-11.631,16.081-25.03,30.989-31.963
					c24.026-11.172,51.578,9.73,45.96,35.624c-2.258,10.408-9.621,18.892-27.671,18.786c-27.849-0.164-34.564-4.703-40.605-5.801
					C2941.852,2062.088,2937.277,2053.891,2941.007,2046.864z"/>
			</g>
			<g>
				<path style="fill:#EAE4F2;" d="M2638.335,1975.953c-0.364-13.163-3.29-29.569-13.566-42.401
					c-16.563-20.682-50.532-14.193-57.001,11.502c-2.6,10.328,0.228,21.199,16.447,29.122
					c25.024,12.224,33.056,11.139,38.957,12.839C2630.816,1989.217,2638.555,1983.906,2638.335,1975.953z"/>
			</g>
			<g style="opacity:0.7;">
				<path style="fill:#FFFFFF;" d="M3142.994,2166.128c-3.94-95.485-47.792-342.205-229.785-423.6
					c-4.652-2.08-8.205-5.99-9.832-10.815c-6.607-19.668-27.003-72.33-62.996-98.749c59.405,18.227,84.172,88.106,84.172,88.106
					C3147.253,1819.041,3145.307,2112.042,3142.994,2166.128z"/>
			</g>
			<g style="opacity:0.7;">
				<path style="fill:#FFFFFF;" d="M2759.52,1723.116l-0.095,0.406c-194.49,10.561-315.144,196.873-357.299,274.787
					c12.78-29.874,132.61-295.149,365.027-307.771C2767.152,1690.537,2762.145,1711.339,2759.52,1723.116z"/>
			</g>
			<g style="opacity:0.3;">
				<path style="fill:#000072;" d="M2831.732,1776.355c0,0-100.834,12.376-88.523-83.585c7.816-1.033,15.782-1.789,23.886-2.219
					C2765.086,1696.156,2745.513,1756.851,2831.732,1776.355z"/>
			</g>
			<g style="opacity:0.3;">
				<path style="fill:#000072;" d="M2831.732,1776.355c0,0-81.316-11.182-64.58-85.818l0.333-1.421
					c2.628-11.215,6.516-18.788,6.516-18.788c5.209,1.301,13.58,4.681,18.608,6.983
					C2784.363,1703.028,2774.024,1751.915,2831.732,1776.355z"/>
			</g>
			<g style="opacity:0.3;">
				<path style="fill:#000072;" d="M3171.557,2269.172c0.391-0.881,0.729-1.853,1.022-2.899c0.002-0.006,0.004-0.01,0.005-0.015
					c0,0-0.001-0.001-0.001-0.001c5.259-18.815-5.231-63.175-30.068-91.515c0,0,5.904-73.271-11.752-162.928
					c-46.291,374.85-418.658,330.546-418.658,330.546l0,0c-261.043-61.167-298.981-199.149-302.295-232.199
					c-0.33-3.293-4.128-4.984-6.745-2.958c-2.47,1.912-5.097,4.104-7.506,6.18c-3.034,2.615-7.643-0.111-6.871-4.042
					c4.385-22.338,12.2-42.463,18.984-57.109c3.606-7.784-4.616-15.738-12.281-11.885c-31.871,16.023-51.433,26.919-61.987,29.304
					c-0.936,4.678-0.317,8.437,2.125,10.695c12.351,11.485,40.416-7.313,40.416-7.313c-35.686,38.533-42.752,123.758-19.917,121.8
					c22.809-1.963,23.996-22.91,23.996-22.91c11.699,57.797,90.2,163.364,321.093,217.458c4.148,0.972,8.179,1.827,12.255,2.726
					c0.001,0.025,0.001,0.048,0.002,0.073c1.806,0.399,3.545,0.73,5.337,1.115c2.861,0.614,5.692,1.201,8.517,1.78
					c4.029,0.825,8.031,1.624,11.986,2.378c2.859,0.545,5.691,1.066,8.512,1.575c3.819,0.689,7.608,1.352,11.356,1.975
					c2.844,0.473,5.663,0.924,8.468,1.361c3.614,0.562,7.198,1.098,10.745,1.599c2.837,0.402,5.65,0.783,8.444,1.147
					c3.411,0.444,6.791,0.861,10.139,1.25c2.822,0.328,5.622,0.638,8.4,0.928c3.21,0.334,6.387,0.643,9.537,0.927
					c2.81,0.254,5.599,0.492,8.362,0.707c3.023,0.235,6.014,0.444,8.982,0.633c2.779,0.177,5.539,0.342,8.269,0.479
					c2.848,0.144,5.662,0.262,8.458,0.365c2.744,0.101,5.472,0.19,8.166,0.252c2.68,0.061,5.324,0.096,7.955,0.119
					c2.706,0.024,5.398,0.039,8.052,0.024c2.517-0.014,4.997-0.055,7.467-0.103c2.664-0.052,5.315-0.112,7.925-0.202
					c2.356-0.082,4.674-0.19,6.987-0.302c2.625-0.127,5.239-0.262,7.808-0.429c2.201-0.142,4.363-0.31,6.522-0.48
					c2.577-0.203,5.144-0.411,7.663-0.652c2.053-0.196,4.067-0.418,6.082-0.639c2.53-0.277,5.052-0.559,7.521-0.874
					c1.909-0.243,3.777-0.51,5.65-0.776c2.47-0.35,4.933-0.702,7.342-1.088c1.789-0.287,3.535-0.597,5.29-0.903
					c2.404-0.42,4.802-0.841,7.142-1.296c1.654-0.322,3.264-0.664,4.886-1.003c2.346-0.489,4.687-0.98,6.968-1.503
					c1.537-0.353,3.031-0.727,4.538-1.095c2.271-0.554,4.539-1.109,6.744-1.696c1.426-0.379,2.807-0.779,4.205-1.171
					c2.197-0.617,4.391-1.234,6.52-1.881c1.322-0.403,2.599-0.824,3.895-1.238c2.115-0.675,4.228-1.35,6.273-2.054
					c1.235-0.425,2.423-0.867,3.632-1.302c2.014-0.724,4.029-1.448,5.974-2.198c1.166-0.45,2.283-0.916,3.424-1.375
					c1.909-0.768,3.821-1.534,5.661-2.325c1.082-0.465,2.114-0.946,3.172-1.418c1.814-0.811,3.631-1.619,5.376-2.451
					c1.021-0.487,1.991-0.987,2.989-1.481c1.695-0.839,3.396-1.674,5.023-2.531c0.982-0.517,1.91-1.045,2.867-1.568
					c1.561-0.853,3.132-1.702,4.628-2.569c0.959-0.556,1.861-1.122,2.795-1.683c1.408-0.848,2.833-1.692,4.18-2.55
					c0.975-0.621,1.887-1.25,2.83-1.875c1.223-0.811,2.468-1.619,3.638-2.437c1.031-0.72,1.991-1.447,2.981-2.171
					c0.999-0.731,2.028-1.459,2.985-2.194c1.132-0.868,2.186-1.74,3.26-2.612c0.737-0.598,1.512-1.195,2.223-1.794
					c1.344-1.133,2.603-2.267,3.852-3.401c0.37-0.336,0.774-0.673,1.136-1.009c4.802-4.459,8.884-8.908,12.256-13.242
					c-0.194,0.462-7.985,19.397,11.34,31.142c4.286,2.603,9.144,0.83,13.963-4.057c4.69-4.753,9.337-12.476,13.388-21.969
					c0.109-0.254,0.223-0.493,0.33-0.75c0.052-0.124,0.101-0.257,0.153-0.382c8.758-21.071,14.536-50.455,11.427-75.979
					c-0.624-5.13-1.607-10.104-2.996-14.822c0.087,0.152,16.828,29.282,32.954,24.491c0.109-0.032,0.196-0.113,0.302-0.15
					c0.54-0.19,1.048-0.447,1.531-0.76c0.221-0.143,0.439-0.289,0.648-0.457c0.513-0.413,0.998-0.881,1.438-1.438
					c0.149-0.19,0.28-0.415,0.421-0.621c0.351-0.509,0.676-1.065,0.976-1.669
					C3171.349,2269.591,3171.459,2269.395,3171.557,2269.172z"/>
			</g>
			<g>
				<path style="fill:#000072;" d="M2869.458,2424.423c-49.541,0-106.66-6.411-171.489-21.602l0,0
					c-193.848-45.415-291.26-130.576-322.251-199.995c-4.902,2.979-11.001,5.107-18.516,5.752
					c-9.639,0.835-18.203-4.482-22.959-14.219c-9.614-19.668-5.244-61.851,10.024-96.509c-6.47-0.332-12.783-2.422-18.14-7.407
					c-3.369-3.135-8.682-10.288-6.372-23.003c4.224-23.291,34.8-59.844,70.654-76.792c8.052-18.525,37.759-82.48,90.527-148.457
					c79.399-99.263,174.448-156.045,275.459-164.736c2.461-7.725,4.946-12.7,5.313-13.418c2.92-5.718,9.395-8.652,15.625-7.1
					c11.978,2.993,23.784,8.779,33.784,14.775c0.562-33.843,19.893-48.95,20.947-49.746c3.535-2.676,8.145-3.477,12.363-2.188
					c55.552,17.041,83.184,72.832,90.869,91.006c101.792,46.865,172.202,141.641,203.809,274.482
					c20.791,87.397,18.647,163.721,17.51,184.907c24.59,31.113,35.737,77.427,29.18,100.161
					c-3.579,12.417-11.519,16.47-15.928,17.783c-7.007,2.075-13.594,1.157-19.541-1.421c-1.719,37.832-16.538,77.568-33.887,90.918
					c-8.589,6.606-18.638,7.554-26.885,2.544c-6.45-3.921-10.967-8.535-14.033-13.384
					C3036.519,2399.013,2968.037,2424.423,2869.458,2424.423z M2704.258,2375.966c274.341,64.277,361.23-35.64,370.229-47.241
					c4.253-5.483,11.909-6.948,17.896-3.433c5.977,3.521,8.413,10.933,5.688,17.31c-0.981,2.607-1.787,7.573,3.052,11.953
					c10.596-10.454,29.932-61.899,18.613-100.254c-1.982-6.714,1.377-13.843,7.813-16.592c6.426-2.754,13.906-0.239,17.383,5.83
					c4.438,7.671,10.889,14.604,14.897,17.109c1.982-12.495-4.536-50.396-27.69-76.772c-2.461-2.803-3.677-6.484-3.384-10.2
					c0.269-3.359,24.019-337.144-209.766-439.98c-3.486-1.533-6.182-4.434-7.451-8.022c-0.205-0.576-20.869-56.909-66.948-76.504
					c-4.395,7.231-9.722,22.476-1.943,48.721c1.743,5.898-0.625,12.241-5.815,15.547c-5.195,3.311-11.943,2.773-16.548-1.299
					c-0.205-0.181-18.203-15.913-38.159-24.482c-0.498,1.689-0.986,3.525-1.426,5.483c-1.353,6.025-6.631,10.825-12.798,11.162
					c-234.512,12.749-352.954,299.023-354.126,301.914c-1.392,3.442-4.111,6.182-7.544,7.593
					c-32.549,13.384-55.249,44.57-58.936,56.577c4.556-0.488,13.516-3.853,20.996-8.818c5.825-3.862,13.628-2.769,18.149,2.549
					c4.526,5.317,4.375,13.174-0.376,18.301c-27.178,29.336-32.705,84.009-27.856,98.086c7.231-2.041,7.969-8.027,8.047-9.346
					c0.386-6.929,5.859-12.49,12.778-12.988c6.968-0.493,13.135,4.224,14.512,11.025
					C2396.455,2183.588,2429.922,2311.689,2704.258,2375.966L2704.258,2375.966z"/>
			</g>
			<g>
				<path style="fill:#000072;" d="M2840.183,1693.181c1.46,2.751,2.969,5.698,4.285,8.711c1.384,2.983,2.744,5.991,4.028,9.072
					c1.262,3.11,2.612,6.133,3.816,9.321c1.208,3.22,2.136,6.584,3.125,10.413c-3.992-0.334-7.6-1.628-10.847-3.12
					c-3.237-1.538-6.243-3.328-9.241-5.11c-2.981-1.804-5.837-3.726-8.618-5.72c-2.849-1.96-5.469-4.019-8.076-6.318
					L2840.183,1693.181z"/>
			</g>
			<g>
				<path style="fill:#000072;" d="M2780.117,1695.071l-0.94,5.295c-0.342,1.997-0.471,4.026-0.696,6.045
					c-0.178,4.036-0.254,8.054,0.347,11.912c1.008,7.739,3.733,15,8.394,21.748c4.597,6.88,11.765,12.356,19.241,18.191
					c3.955,2.656,8.027,5.444,12.156,8.582c4.326,2.742,8.706,5.703,13.125,9.495c-5.513,1.042-11.067,1.257-16.677,1.252
					c-5.5-0.486-11.05-1.472-16.526-2.92c-2.661-0.986-5.349-2.012-8.003-3.149c-1.335-0.554-2.666-1.123-3.982-1.736l-3.784-2.314
					c-2.505-1.597-5.127-3.049-7.515-4.922c-2.307-2-4.661-4.011-6.917-6.138c-4.202-4.575-8.303-9.548-11.213-15.32
					c-1.68-2.776-2.683-5.833-3.813-8.86c-1.243-3.01-1.868-6.143-2.505-9.292c-1.204-6.292-1.453-12.656-0.92-18.887
					c0.298-3.11,0.723-6.206,1.46-9.255c0.706-3.196,1.477-5.786,3.022-9.634L2780.117,1695.071z"/>
			</g>
			<g style="opacity:0.3;">
				<path style="fill:#000072;" d="M2829.497,2245.862c-24.394,44.189-65.01,18.757-74.907,11.605
					c-1.354-0.979-1.997-2.663-1.615-4.29l0,0c0.439-1.873,2.117-3.154,4.041-3.172c42.294-0.4,79.879-31.792,86.236-75.351
					c8.754-59.989-16.193-98.758-36.415-119.559c-13.486-13.872-33.707-18.609-51.951-12.171
					c-27.357,9.654-66.928,33.307-85.731,90.942c-13.538,41.495,5.748,85.908,42.841,105.32c1.687,0.883,2.6,2.759,2.165,4.614
					l-0.063,0.269c-0.381,1.627-1.705,2.851-3.353,3.126c-12.044,2.011-59.73,6.756-61.957-43.67c0,0-61.894,78.051,69.799,108.905
					C2850.28,2343.283,2829.497,2245.862,2829.497,2245.862z"/>
			</g>
			<g>
				<path style="fill:#000072;" d="M2845.629,2164.505c8.753-59.983-16.187-98.75-36.408-119.552
					c-13.491-13.879-33.714-18.617-51.967-12.175c-27.356,9.656-66.921,33.31-85.722,90.939
					c-15.623,47.887,12.447,99.693,61.181,112.432c1.331,0.348,2.687,0.684,4.069,1.008c1.382,0.324,2.746,0.625,4.093,0.904
					C2790.196,2248.294,2838.356,2214.349,2845.629,2164.505z"/>
			</g>
			<g>
				<path style="fill:#000072;" d="M2747.803,2229.446c-0.11,2.561-0.32,4.314-0.623,6.384c-0.31,1.985-0.667,3.965-1.213,5.906
					c-0.991,3.899-2.476,7.732-4.285,11.482c-3.818,7.368-9.712,14.443-17.476,18.882c-7.761,4.451-16.335,6.15-24.478,6.455
					c-3.931-0.293-8.037-0.212-11.792-0.945c-3.75-0.83-7.563-1.128-11.226-2.495l-5.503-1.841l-2.737-0.955l-2.693-1.333
					l-5.342-2.712c-1.753-0.969-3.389-2.341-5.063-3.513c-3.455-2.192-6.204-5.632-8.94-8.75l-3.416-5.366
					c-1.072-1.812-1.719-3.838-2.554-5.75c-5.469-15.618-3.521-33.044,9.014-43.105c1.169,7.788,1.575,14.268,2.043,20.405
					c0.393,6.072,1.118,11.829,3.557,16.667c0.696,1.147,1.15,2.419,1.958,3.467l2.427,3.091c2.048,1.721,3.711,3.706,6.211,5.012
					c1.196,0.688,2.217,1.548,3.508,2.134l3.962,1.66l1.96,0.852l2.168,0.574l4.333,1.138c2.837,0.874,5.957,0.991,8.901,1.58
					c2.988,0.505,5.803,0.217,8.696,0.435c5.5-0.559,10.654-1.536,14.873-3.982c4.138-2.49,7.629-6.099,10.232-10.803
					c1.262-2.375,2.458-4.873,3.298-7.585c0.923-2.542,1.641-5.776,1.975-7.876L2747.803,2229.446z"/>
			</g>
			<g>
				<path style="fill:#000072;" d="M2747.051,2232.651c-0.632,2.026-1.426,5.244-1.729,7.932c-0.452,2.803-0.491,5.574-0.413,8.262
					c0.242,5.371,1.765,10.154,4.368,14.224c2.693,4.065,6.875,7.229,11.555,10.173c2.69,1.091,5.083,2.598,7.986,3.474
					c2.898,0.779,5.745,2.061,8.677,2.537l4.387,0.906l2.197,0.452l2.134,0.105l4.287,0.273c1.418,0.049,2.717-0.269,4.092-0.354
					c2.82-0.059,5.193-1.099,7.793-1.731l3.545-1.692c1.191-0.579,2.163-1.516,3.293-2.236c4.336-3.252,7.544-8.086,10.591-13.352
					c3.147-5.291,6.389-10.916,10.896-17.373c6.76,14.58,0.764,31.06-11.072,42.622c-1.597,1.343-3.076,2.871-4.841,4.019
					l-5.444,3.291c-3.835,1.577-7.827,3.438-11.897,3.867c-2.021,0.305-4.094,0.811-6.096,0.896l-5.989,0.059l-3.005-0.002
					l-2.876-0.359l-5.75-0.796c-3.887-0.403-7.437-1.829-11.167-2.749c-3.689-1.013-7.332-2.91-10.984-4.392
					c-7.158-3.892-14.084-9.221-19.06-16.658c-4.985-7.424-7.124-16.379-7.273-24.678c0.046-4.165,0.42-8.257,1.262-12.192
					c0.374-1.98,0.933-3.914,1.536-5.828c0.649-1.99,1.238-3.655,2.28-5.999L2747.051,2232.651z"/>
			</g>
			<g>
				<path style="fill:#000072;" d="M2732.205,2254.302c0,0-33.221,27.945-79.75-2.263c0,0,7.84,63.394,62.962,76.308
					c55.122,12.914,90.305-40.4,90.305-40.4C2751.971,2292.469,2732.205,2254.302,2732.205,2254.302z"/>
			</g>
			<g>
				<path style="fill:#FF4A9C;" d="M2769.633,2320.514c-14.495,7.914-32.847,12.852-54.218,7.845
					c-21.346-5.001-35.596-17.577-45.067-31.106l0.03-0.019c0,0,57.573-32.648,99.237,23.25L2769.633,2320.514z"/>
			</g>
			<g>
				<path style="fill:#000072;" d="M2732.852,2339.531c-6.206,0-12.715-0.708-19.517-2.3c-60.615-14.204-69.58-81.226-69.932-84.072
					c-0.435-3.521,1.211-6.973,4.214-8.853c3.008-1.875,6.826-1.841,9.805,0.083c40.396,26.24,68.633,3.164,68.911,2.935
					c2.124-1.787,4.956-2.505,7.656-1.968s5.015,2.271,6.294,4.707c0.762,1.421,18.135,32.729,64.673,28.799
					c3.525-0.313,6.831,1.431,8.608,4.429c1.787,3.008,1.694,6.768-0.229,9.683
					C2811.934,2295.097,2781.978,2339.526,2732.852,2339.531z M2666.196,2269.355c6.294,17.754,20.479,42.891,51.299,50.112
					c31.191,7.305,55.254-9.385,68.696-22.563c-30.591-3.203-48.252-19.741-56.455-30.059
					C2715.918,2274.286,2692.905,2279.716,2666.196,2269.355z"/>
			</g>
			<g>
				<path style="fill:#000072;" d="M2539.36,2063.552c8.552-9.49,20.295-14.299,32.9-15.767
					c12.568-1.333,26.829,1.853,38.276,10.242c11.587,8.232,18.931,21.064,21.345,33.428c2.498,12.485,1.147,24.832-4.746,36.099
					c-7.842-9.983-13.423-18.848-19.185-26.099c-5.664-7.322-10.999-12.725-16.794-17.048c-5.779-4.36-12.595-8.005-21.255-11.23
					C2561.23,2069.836,2551.34,2067.158,2539.36,2063.552z"/>
			</g>
			<g>
				<path style="fill:#000072;" d="M2989.011,2178.704c-11.807-4.146-21.375-7.808-30.349-10.22
					c-8.896-2.495-16.553-3.564-23.789-3.445c-7.231,0.078-14.727,1.299-23.616,3.879c-8.928,2.463-18.66,6.338-30.876,9.785
					c1.875-12.578,8.057-23.35,17.432-31.965c9.236-8.567,22.729-14.609,36.941-14.436c14.194-0.032,27.593,5.796,36.963,14.277
					C2981.038,2155.193,2987.693,2165.999,2989.011,2178.704z"/>
			</g>
		</g>
	</g>
</g>
</svg>
