<?xml version="1.0" encoding="utf-8"?>
<!-- Generator: Adobe Illustrator 27.5.0, SVG Export Plug-In . SVG Version: 6.00 Build 0)  -->
<svg version="1.1" id="Layer_1" xmlns="http://www.w3.org/2000/svg" xmlns:xlink="http://www.w3.org/1999/xlink" x="0px" y="0px"
	 viewBox="0 0 4000 4000" style="enable-background:new 0 0 4000 4000;" xml:space="preserve">
<g>
	<g>
		<rect style="fill:#02DAFF;" width="4000" height="4000"/>
	</g>
	<g>
		<g style="opacity:0.3;">
			<ellipse style="fill:#650000;" cx="2074.047" cy="3419.912" rx="1090.953" ry="118.318"/>
		</g>
		<g>
			<path style="fill:#B1411E;" d="M1219.463,2652.563c76.07-66.647,60.578-221.802-58.545-234.097
				c-65.459-6.756-129.226,28.173-158.77,86.975c-22.666,45.113-34.337,114.472-4.203,218.509
				c27.052-50.233,98.359-31.667,175.863-49C1190.59,2671.196,1206.529,2663.894,1219.463,2652.563z"/>
		</g>
		<g>
			<path style="fill:#993419;" d="M1219.477,2652.561c-12.95,11.331-28.913,18.643-45.658,22.382
				c-77.528,17.359-148.805-1.228-175.875,49.006c-5.526-19.033-9.601-36.839-12.503-53.583c2.065,4.521,4.186,9.098,6.419,13.731
				c18.252-54.03,91.649-47.667,165.16-77.751c15.907-6.475,30.419-16.354,41.303-29.694
				c30.029-36.894,36.783-89.696,23.108-134.461C1282.549,2490.918,1279.869,2599.647,1219.477,2652.561z"/>
		</g>
		<g style="opacity:0.6;">
			<path style="fill:#F1F2F2;" d="M1254.026,2485.057c-17.303-20.15-42.197-34.383-74.96-37.732
				c-65.472-6.754-129.214,28.131-158.796,86.961c-19.591,38.96-30.978,96.115-14.233,178.053c-3.07,3.405-5.749,7.256-8.093,11.61
				c-30.141-104.041-18.475-173.42,4.186-218.519c29.582-58.774,93.324-93.715,158.796-86.961
				C1207.755,2423.269,1238.51,2450.172,1254.026,2485.057z"/>
		</g>
		<g>
			<path style="fill:#650000;" d="M997.95,2743.486c-0.688,0-1.377-0.034-2.07-0.112c-7.891-0.84-14.492-6.367-16.699-13.989
				c-27.031-93.335-25.176-171.631,5.513-232.715c33.144-65.981,104.722-105.225,178.232-97.637
				c55.903,5.771,97.793,39.932,114.922,93.726c19.736,61.973,1.021,133.73-45.508,174.497l0,0
				c-14.658,12.842-33.423,22.095-54.263,26.758c-26.978,6.035-53.105,7.935-76.157,9.614c-47.09,3.428-74.336,6.489-86.772,29.585
				C1011.715,2739.584,1005.079,2743.486,997.95,2743.486z M1144.757,2437.172c-52.29,0-101.377,29.717-125.151,77.036
				c-22.544,44.868-26.362,102.197-11.431,170.771c24.531-15.488,57.07-17.861,90.908-20.322c22.764-1.655,46.304-3.369,70.464-8.77
				c14.477-3.242,27.29-9.473,37.041-18.018l0,0c34.644-30.352,48.955-86.392,34.033-133.257
				c-7.168-22.505-27.314-61.104-81.709-66.714C1154.18,2437.411,1149.454,2437.172,1144.757,2437.172z"/>
		</g>
		<g>
			<path style="fill:#FCA800;" d="M1475.597,2693.716c-52.095-147.912-192.844-253.857-316.475-187.19
				c-10.042,5.415-14.178,17.726-9.457,28.112l0,0c3.524,7.754,11.284,12.681,19.801,12.679
				c137.622-0.021,205.841,104.895,228.052,279.377"/>
		</g>
		<g style="opacity:0.6;">
			<path style="fill:#F1F2F2;" d="M1475.615,2693.697l-6.53,11.108c-56.597-138.759-191.17-234.092-309.946-170.015
				c-2.456,1.34-4.521,3.014-6.196,5.024c-1.284-1.563-2.456-3.293-3.293-5.191c-4.689-10.382-0.559-22.661,9.488-28.075
				C1282.772,2439.846,1423.484,2545.785,1475.615,2693.697z"/>
		</g>
		<g>
			<path style="fill:#650000;" d="M1397.491,2846.23c-9.692,0-18.101-7.202-19.355-17.07
				c-22.466-176.504-90.708-262.305-208.623-262.305c-0.015,0-0.029,0-0.044,0c-16.172,0-30.923-9.473-37.588-24.131
				c-8.95-19.683-1.055-43.135,17.969-53.394c50.049-26.997,105.581-30.029,160.601-8.76
				c79.106,30.571,149.443,109.761,183.574,206.655c3.584,10.176-1.763,21.333-11.938,24.917
				c-10.166,3.564-21.328-1.758-24.917-11.938c-30.439-86.426-92.056-156.616-160.806-183.188
				c-44.033-17.017-88.276-14.697-127.969,6.704c-0.991,0.532-1.416,1.802-0.947,2.832c0.342,0.747,1.133,1.23,2.017,1.23
				c0.015,0,0.034,0,0.054,0c139.111,0,222.344,99.736,247.378,296.445c1.362,10.703-6.211,20.483-16.914,21.846
				C1399.146,2846.181,1398.311,2846.23,1397.491,2846.23z"/>
		</g>
		<g>
			<path style="fill:#FEB845;" d="M3085.402,3210.943c-90.645,200.658-303.081,261.33-409.466,162.312
				c0-0.056-0.056-0.056-0.056-0.056c-11.219-10.438-21.21-22.661-29.805-36.671c0,0-11.833,1.73-57.434,4.521
				c-27.741,1.786-68.04,3.851-125.809,6.196c-67.706,2.735-159.522,5.861-283.322,8.986c-5.414,0.112-10.828,0.279-16.354,0.391
				c-1.395,0.056-2.846,0.112-4.297,0.168c-2.903,0-5.805,0.111-8.708,0.167c-25.899,0.614-53.137,1.284-81.77,1.898h-7.647
				c-19.089-0.447-37.564-0.837-55.425-1.228c-34.272-0.837-66.31-1.674-96.338-2.456c-167.113-4.465-270.373-8.763-333.277-12.056
				c-4.577-0.279-8.93-0.502-13.061-0.726c-64.021-3.572-79.594-5.861-79.594-5.861c-9.432,15.461-20.652,28.689-33.266,39.741
				c-99.241,87.519-285.276,41.694-383.678-122.572c-8.094-13.451-15.573-27.74-22.382-42.755
				c-112.135-213.105-7.2-415.829,194.295-313.965c51.853-91.705,161.308-107.446,161.308-107.446
				c64.244-340.477,186.983-499.552,186.983-499.552h956.517c0,0,65.082,84.282,125.251,261.497v0.056c0,0,0,0.056,0.056,0.112
				c22.438,66.198,44.206,145.344,61.676,237.887c0,0,0.893,0.111,2.568,0.446c16.801,3.014,111.576,23.61,158.74,106.999
				c141.047-71.333,234.818,6.642,239.785,132.954C3133.125,3084.018,3119.059,3147.034,3085.402,3210.943z"/>
		</g>
		<g>
			<path style="fill:#F48D40;" d="M1562.636,3342.407c-64.008-3.611-79.605-5.862-79.605-5.862
				c-9.421,15.439-20.621,28.681-33.234,39.724c15.492-90.438-21.092-193.542-52.337-260.639l63.275-35.851
				c75.313,51.604,87.874-28.367,87.874-28.367l5.809,93.421L1562.636,3342.407z"/>
		</g>
		<g>
			<path style="fill:#F48D40;" d="M2174.613,3282.219l-24.441,74.737c-25.907,0.628-53.175,1.308-81.803,1.884h-7.641
				c-19.103-0.419-37.525-0.837-55.372-1.204c-2.093-18.213-7.432-35.013-13.241-48.935c-3.873-9.264-7.955-17.219-11.462-23.447
				c-0.105-0.21-0.21-0.419-0.366-0.628c29.413,9.996,60.973,15.439,93.788,15.439
				C2109.401,3300.066,2143.263,3293.786,2174.613,3282.219z"/>
		</g>
		<g>
			<path style="fill:#F48D40;" d="M2731.635,3110.607c0,0.052,0,0.104-0.052,0.157c-36.375,70.917-82.012,183.389-55.687,262.418
				c-11.252-10.415-21.249-22.662-29.832-36.636c0,0-11.828,1.727-57.414,4.501c4.605-32.763,8.269-72.225,11.148-115.455
				c15.858-239.18,7.693-595.124,7.693-595.124l-141.1,11.409c-111.687-225.939-384.206-205.004-384.206-205.004l200.974-146.91
				l82.012-59.926l104.465,59.926l110.169,63.275l88.24,198.253v0.052c0,0,0,0.052,0.052,0.104
				c1.884,3.245,56.105,101.167,64.27,238.343c3.297,55.006-0.89,116.293-18.894,180.406
				C2650.042,3196.805,2731.635,3110.607,2731.635,3110.607z"/>
		</g>
		<g style="opacity:0.6;">
			<path style="fill:#F1F2F2;" d="M2542.816,2289.981c0,0,8.875,11.498,23.108,34.885h-952.777c0,0-110.393,143.075-176.591,448.269
				c-6.364,29.339-27.242,53.201-55.316,63.838c-36.289,13.751-86.138,41.396-116.385,94.891
				C1063.36,2830,958.426,3032.723,1070.56,3245.828c10.158,22.55,21.88,43.313,34.885,62.291
				c-23.889-27.461-44.931-59.89-61.732-97.175c-112.135-213.105-7.2-415.829,194.295-313.965
				c51.853-91.705,161.308-107.446,161.308-107.446c64.244-340.477,186.983-499.552,186.983-499.552H2542.816z"/>
		</g>
		<g>
			<path style="fill:#FFFFFF;" d="M3130.365,3060.98c-0.148,2.116-0.256,4.214-0.45,6.35c-0.406,4.476-0.904,8.991-1.513,13.549
				c-0.733,5.6-1.622,11.2-2.774,16.905c-2.46,13.398-5.809,27.111-10.205,40.98c-0.524,1.936-1.152,3.873-1.78,5.757
				c-7.118,21.824-16.486,44.068-28.262,66.416c-90.648,200.66-303.084,261.318-409.433,162.297c0-0.052-0.052-0.052-0.052-0.052
				c-26.325-79.029,19.312-191.501,55.687-262.418c20.621-40.142,38.258-66.991,38.258-66.991
				c50.191-111.373,121.265-146.805,121.265-146.805c141.094-71.335,234.76,6.745,239.767,133.107
				c0.013-0.04,0.028-0.079,0.041-0.119c0.044,1.051,0.027,2.135,0.058,3.193c0.072,2.568,0.143,5.135,0.142,7.742
				c0.001,2.03-0.059,4.09-0.104,6.142c-0.051,2.288-0.081,4.564-0.188,6.879C3130.716,3056.247,3130.529,3058.618,3130.365,3060.98
				z"/>
		</g>
		<g>
			<path style="fill:#FFFFFF;" d="M1449.798,3376.269c-4.135,3.663-8.426,7.065-12.875,10.258
				c-4.448,3.192-9.054,6.176-13.712,8.897c-2.355,1.361-4.762,2.669-7.17,3.925c-4.815,2.512-9.787,4.762-14.812,6.804
				c-5.077,2.041-10.258,3.873-15.491,5.443c-36.741,11.095-78.035,10.991-119.59,0.157c-2.565-0.68-5.077-1.361-7.641-2.094
				c-0.471-0.104-0.942-0.262-1.413-0.418c-5.862-1.727-11.724-3.664-17.585-5.914c-5.914-2.146-11.828-4.553-17.69-7.223
				c-2.669-1.204-5.391-2.46-8.06-3.716c-0.209-0.157-0.471-0.261-0.733-0.366c-5.81-2.826-11.619-5.862-17.376-9.159
				c-2.879-1.675-5.757-3.349-8.636-5.076c-2.826-1.727-5.705-3.559-8.531-5.391c-5.652-3.663-11.252-7.589-16.8-11.723
				c-0.262-0.209-0.523-0.419-0.785-0.576c-2.512-1.884-4.972-3.821-7.432-5.757c-5.496-4.292-10.886-8.845-16.172-13.66
				c-7.955-7.118-15.701-14.707-23.185-22.819c-2.512-2.669-4.972-5.443-7.432-8.217c-4.92-5.6-9.682-11.409-14.288-17.428
				c-2.303-2.983-4.606-6.071-6.856-9.159c-2.303-3.088-4.501-6.28-6.699-9.473c-4.449-6.438-8.688-13.032-12.718-19.888
				c-8.112-13.451-15.597-27.686-22.4-42.759c-112.158-213.116-7.223-415.817,194.275-313.97c0,0,71.074,35.432,121.317,146.805
				c0,0,4.449,7.065,11.41,19.469c7.013,12.561,16.591,30.565,26.744,52.389C1428.706,3182.727,1465.289,3285.831,1449.798,3376.269
				z"/>
		</g>
		<g>
			<path style="fill:#FFFFFF;" d="M2365.119,3008.968c0,125.452-79.29,232.324-190.506,273.251
				c-31.35,11.566-65.212,17.847-100.54,17.847c-32.815,0-64.374-5.443-93.788-15.439
				c-114.775-39.043-197.311-147.695-197.311-275.659c0-160.727,130.319-291.046,291.098-291.046
				C2234.8,2717.922,2365.119,2848.241,2365.119,3008.968z"/>
		</g>
		<g>
			<g>
				
					<ellipse transform="matrix(0.8887 -0.4585 0.4585 0.8887 -1354.5319 929.9774)" style="fill:#FF8899;" cx="1238.008" cy="3254.626" rx="91.598" ry="104.892"/>
			</g>
			<g>
				
					<ellipse transform="matrix(0.959 -0.2833 0.2833 0.959 -818.2407 438.2975)" style="fill:#FF8899;" cx="1106.531" cy="3048.66" rx="38.025" ry="61.092"/>
			</g>
			<g>
				
					<ellipse transform="matrix(0.959 -0.2833 0.2833 0.959 -808.5354 467.7654)" style="fill:#FF8899;" cx="1213.279" cy="3029.822" rx="32.693" ry="52.525"/>
			</g>
			<g>
				
					<ellipse transform="matrix(0.959 -0.2833 0.2833 0.959 -846.5072 424.2277)" style="fill:#FF8899;" cx="1043.738" cy="3139.361" rx="32.693" ry="52.525"/>
			</g>
		</g>
		<g>
			<g>
				
					<ellipse transform="matrix(0.4585 -0.8887 0.8887 0.4585 -1324.0348 4336.1958)" style="fill:#FF8899;" cx="2896.346" cy="3254.626" rx="104.892" ry="91.598"/>
			</g>
			<g>
				
					<ellipse transform="matrix(0.2833 -0.959 0.959 0.2833 -776.0184 5086.8667)" style="fill:#FF8899;" cx="3015.265" cy="3062.614" rx="61.092" ry="38.025"/>
			</g>
			<g>
				
					<ellipse transform="matrix(0.2833 -0.959 0.959 0.2833 -834.4631 4970.9883)" style="fill:#FF8899;" cx="2908.517" cy="3043.776" rx="52.525" ry="32.693"/>
			</g>
			<g>
				
					<ellipse transform="matrix(0.2833 -0.959 0.959 0.2833 -817.9988 5212.0957)" style="fill:#FF8899;" cx="3078.058" cy="3153.315" rx="52.525" ry="32.693"/>
			</g>
		</g>
		<g>
			<path style="fill:#650000;" d="M2801.295,3439.452c-68.975,0.005-127.915-29.351-164.995-82.241
				c-36.353,3.335-165.288,12.236-567.476,21.177l-8.091,0.005c-402.568-8.945-531.558-17.847-567.91-21.182
				c-39.839,56.836-104.995,86.465-180.591,81.753c-116.704-7.314-228.926-93.423-286.055-219.443
				c-65.723-125.269-63.872-256.152,4.663-325.82c48.242-49.038,120.376-56.67,199.805-21.802
				c46.514-67.876,121.099-91.704,151.978-98.945c64.917-332.246,183.145-488.345,188.213-494.907
				c6.587-8.545,18.848-10.127,27.397-3.53c8.535,6.587,10.122,18.838,3.545,27.378l0,0
				c-1.201,1.567-120.835,160.283-183.247,491.255c-1.553,8.213-8.149,14.531-16.421,15.718
				c-0.962,0.142-100.771,15.796-147.095,97.725c-5.137,9.092-16.499,12.534-25.82,7.822
				c-70.596-35.693-131.152-33.315-170.503,6.689c-55.776,56.694-54.814,172.139,2.334,280.742c0.181,0.347,0.352,0.698,0.513,1.055
				c51.172,113.286,150.532,190.635,253.14,197.065c65.205,4.116,120.537-22.749,151.699-73.638
				c4.092-6.685,11.812-10.264,19.521-9.126c3.13,0.444,83.765,11.196,575.269,22.124l7.222-0.005
				c491.069-10.923,571.704-21.675,574.897-22.129c7.637-1.055,15.386,2.49,19.458,9.136c31.162,50.889,86.44,77.729,151.699,73.638
				c102.603-6.426,201.963-83.779,253.135-197.065c0.161-0.356,0.332-0.708,0.513-1.055
				c57.153-108.604,58.115-224.048,2.339-280.742c-39.355-40.005-99.912-42.373-170.503-6.689
				c-9.326,4.707-20.674,1.265-25.82-7.822c-46.323-81.929-146.133-97.583-147.139-97.729c-8.232-1.221-14.834-7.529-16.377-15.713
				c-62.607-332.026-182.036-489.678-183.232-491.235c-6.592-8.54-5.015-20.806,3.53-27.397c8.54-6.597,20.811-5.015,27.397,3.53
				c5.068,6.563,123.296,162.661,188.213,494.907c30.879,7.241,105.464,31.074,151.978,98.95
				c79.429-34.873,151.558-27.241,199.805,21.797c68.535,69.668,70.386,200.552,4.663,325.82
				c-57.129,126.016-169.355,212.129-286.06,219.443C2811.641,3439.291,2806.436,3439.452,2801.295,3439.452z"/>
		</g>
		<g>
			<path style="fill:#650000;" d="M1246.726,2879.497c2.822,1.699,4.382,2.881,6.345,4.312c1.917,1.362,3.621,2.776,5.393,4.167
				c3.467,2.827,6.836,5.654,10.012,8.633c6.462,5.854,12.429,12.031,18.123,18.374c11.384,12.686,21.436,26.204,30.569,40.12
				c4.351,7.117,8.855,14.06,12.69,21.396c4.111,7.156,7.693,14.578,11.23,21.968c3.687,7.307,6.536,15.027,9.805,22.456
				c2.979,7.583,5.623,15.281,8.42,22.854c-4.28-6.902-8.374-13.85-12.751-20.601c-4.668-6.587-8.877-13.396-13.853-19.688
				c-4.829-6.382-9.648-12.712-14.915-18.672c-4.998-6.157-10.574-11.804-15.918-17.556c-11.096-11.157-22.761-21.558-35.1-30.696
				c-6.16-4.563-12.458-8.875-18.901-12.673c-3.184-1.965-6.455-3.716-9.661-5.393c-1.609-0.796-3.228-1.667-4.79-2.339
				c-1.467-0.681-3.391-1.528-4.136-1.699c-10.747-2.476-17.451-13.196-14.973-23.94c2.476-10.747,13.193-17.451,23.94-14.976
				c2.08,0.481,4.009,1.27,5.747,2.305L1246.726,2879.497z"/>
		</g>
		<g>
			<path style="fill:#650000;" d="M1418.755,2791.624c-1.636,8.931-2.986,19.143-4.014,28.904
				c-1.069,9.88-1.807,19.832-2.407,29.817c-1.089,19.976-1.128,40.063-0.164,60.161c0.828,20.132,3.196,40.183,6.584,60.156
				c3.257,20.037,8.699,39.634,14.98,59.16c-9.265-18.213-17.917-37.056-24.434-56.707c-6.655-19.59-12.356-39.661-16.504-60.073
				c-4.285-20.393-7.566-41.067-9.758-61.917c-1.038-10.43-1.934-20.901-2.476-31.433c-0.557-10.652-0.891-20.85-0.657-32.249
				c0.225-10.828,9.185-19.421,20.01-19.197c10.828,0.222,19.424,9.182,19.199,20.01c-0.022,1.028-0.122,2.036-0.295,3.018
				L1418.755,2791.624z"/>
		</g>
		<g>
			<path style="fill:#650000;" d="M1579.05,3299.226c-2.371-1.758-3.813-3.022-5.547-4.509c-1.702-1.431-3.245-2.883-4.834-4.326
				c-3.132-2.908-6.169-5.818-9.084-8.818c-5.876-5.952-11.433-12.073-16.736-18.354c-10.635-12.532-20.3-25.637-29.29-39.053
				c-8.743-13.599-17.073-27.312-24.304-41.563c-3.857-6.968-7.009-14.333-10.505-21.436c-3.303-7.217-6.284-14.575-9.412-21.807
				c4.568,6.47,8.953,13.005,13.621,19.329c4.858,6.206,9.331,12.615,14.46,18.55c9.775,12.197,20.449,23.572,31.267,34.563
				c11.052,10.798,22.52,21.016,34.5,30.317c5.969,4.666,12.085,9.089,18.286,13.191c3.081,2.078,6.223,4.028,9.329,5.894
				c1.558,0.908,3.12,1.868,4.648,2.673c1.455,0.808,3.25,1.775,4.185,2.139c10.193,3.982,15.229,15.474,11.248,25.667
				c-3.982,10.195-15.474,15.229-25.669,11.25c-1.643-0.645-3.154-1.482-4.514-2.478L1579.05,3299.226z"/>
		</g>
		<g>
			<path style="fill:#650000;" d="M2899.834,2914.46c-0.747,0.171-2.671,1.018-4.136,1.699c-1.563,0.671-3.181,1.543-4.79,2.339
				c-3.208,1.677-6.479,3.428-9.663,5.393c-6.443,3.799-12.742,8.11-18.901,12.673c-12.339,9.138-24.001,19.539-35.1,30.696
				c-5.344,5.752-10.92,11.399-15.918,17.556c-5.266,5.959-10.085,12.29-14.915,18.672c-4.976,6.292-9.185,13.101-13.853,19.688
				c-4.377,6.75-8.469,13.699-12.751,20.601c2.798-7.573,5.442-15.271,8.42-22.854c3.269-7.429,6.121-15.149,9.805-22.456
				c3.538-7.39,7.119-14.812,11.233-21.968c3.833-7.336,8.337-14.28,12.688-21.396c9.136-13.916,19.185-27.434,30.569-40.12
				c5.693-6.343,11.66-12.52,18.123-18.374c3.176-2.979,6.545-5.806,10.012-8.633c1.772-1.392,3.477-2.805,5.393-4.167
				c1.963-1.431,3.523-2.612,6.345-4.312l2.649-1.597c9.446-5.691,21.716-2.649,27.407,6.797s2.649,21.716-6.797,27.41
				C2903.826,2913.208,2901.804,2913.997,2899.834,2914.46z"/>
		</g>
		<g>
			<path style="fill:#650000;" d="M2749.214,2787.444c0.237,11.399-0.098,21.597-0.657,32.249
				c-0.542,10.532-1.438,21.003-2.476,31.433c-2.192,20.85-5.474,41.523-9.758,61.917c-4.148,20.413-9.849,40.483-16.501,60.073
				c-6.516,19.651-15.171,38.494-24.436,56.707c6.282-19.526,11.726-39.124,14.98-59.16c3.389-19.973,5.759-40.024,6.587-60.156
				c0.962-20.098,0.923-40.186-0.164-60.161c-0.603-9.985-1.338-19.937-2.41-29.817c-1.028-9.761-2.375-19.973-4.014-28.904
				l-0.044-0.242c-1.951-10.652,5.103-20.867,15.754-22.82c10.652-1.951,20.869,5.103,22.82,15.754
				C2749.082,2785.327,2749.187,2786.445,2749.214,2787.444z"/>
		</g>
		<g>
			<path style="fill:#650000;" d="M2529.49,3266.016c0.933-0.364,2.727-1.331,4.182-2.139c1.528-0.806,3.091-1.765,4.648-2.673
				c3.105-1.865,6.25-3.816,9.331-5.894c6.199-4.102,12.317-8.525,18.284-13.191c11.98-9.302,23.447-19.519,34.5-30.317
				c10.82-10.991,21.492-22.366,31.267-34.563c5.129-5.935,9.602-12.344,14.46-18.55c4.668-6.323,9.053-12.859,13.623-19.329
				c-3.13,7.231-6.111,14.59-9.414,21.807c-3.496,7.102-6.646,14.468-10.505,21.436c-7.231,14.25-15.559,27.964-24.304,41.563
				c-8.989,13.416-18.652,26.521-29.29,39.053c-5.3,6.282-10.857,12.402-16.733,18.354c-2.915,3-5.952,5.911-9.087,8.818
				c-1.589,1.443-3.132,2.896-4.834,4.326c-1.733,1.487-3.176,2.751-5.547,4.509l-1.57,1.165c-8.792,6.519-21.204,4.675-27.72-4.116
				c-6.519-8.792-4.675-21.201,4.116-27.72C2526.316,3267.505,2527.922,3266.638,2529.49,3266.016z"/>
		</g>
		<g>
			<path style="fill:#FEB845;" d="M1993.422,3429.182c-9.944,19.417-29.518,32.083-51.238,34.385
				c-77.929,8.165-291.098,24.755-340.975-31.193c-9.944-11.095-17.795-39.514-24.075-79.395c-0.471-3.245-0.994-6.49-1.465-9.839
				c-4.711-33.234-8.479-73.429-11.41-117.549c-15.858-239.18-7.694-595.124-7.694-595.124l448.371,36.27
				c0,0-2.722,22.662-6.542,61.13c-4.763,47.208-11.305,118.177-16.8,199.927c-3.193,47.156-5.966,97.975-7.955,149.788
				c-1.518,41.032-2.564,82.797-2.721,124.039c-0.105,23.238,0.052,46.214,0.523,68.876c0,0,0.68,0.942,1.884,2.721
				c0.471,0.68,0.994,1.518,1.622,2.512c0.942,1.465,2.041,3.192,3.193,5.181c0.785,1.309,1.623,2.774,2.512,4.344
				c3.507,6.228,7.589,14.183,11.462,23.447c5.757,13.922,11.043,30.722,13.189,48.935
				C2007.972,3380.299,2005.774,3405.107,1993.422,3429.182z"/>
		</g>
		<g>
			<path style="fill:#F48D40;" d="M1981.594,2927.793l-10.153,120.898c0.209,10.153,0.994,19.783,2.198,28.89
				c-1.518,41.032-2.564,82.797-2.721,124.039c-35.066-15.544-69.347-25.488-102.214-31.14
				c4.187-45.585,10.625-130.738,15.282-260.795c7.484-208.249,114.409-181.819,114.409-181.819L1981.594,2927.793z"/>
		</g>
		<g>
			<path style="fill:#FFFFFF;" d="M2004.727,3394.639c-0.733,4.606-1.779,9.264-3.14,13.922c-0.314,1.151-0.68,2.25-1.047,3.402
				c-1.832,5.757-4.187,11.514-7.118,17.219c-9.944,19.417-29.518,32.083-51.238,34.385
				c-77.929,8.165-291.098,24.755-340.975-31.193c-2.931-3.245-5.652-8.06-8.269-14.183c-0.419-1.047-0.837-2.041-1.256-3.14
				c-0.262-0.68-0.523-1.413-0.785-2.146c-0.523-1.466-1.047-2.983-1.57-4.554c-3.297-9.996-6.281-22.347-8.95-36.688
				c-0.68-3.664-1.36-7.432-2.041-11.357v-0.157c-0.419-2.355-0.785-4.763-1.152-7.17c-5.443-34.961-9.682-78.767-12.927-127.388
				c0,0,132.779-85.048,304.444-55.111c32.868,5.652,67.148,15.596,102.214,31.14c-0.105,23.238,0.052,46.214,0.523,68.876
				c0,0,28.21,38.572,33.914,87.141c0.471,4.082,0.785,8.322,0.89,12.561C2006.506,3378.206,2006.088,3386.422,2004.727,3394.639z"
				/>
		</g>
		<g>
			<path style="fill:#650000;" d="M1556.548,2630.457c7.114,58.02,11.252,115.859,14.558,173.662
				c1.443,28.899,3.059,57.781,4.001,86.65c0.886,28.872,1.323,57.732,1.289,86.597c-0.002,28.857-0.063,57.722,0.481,86.558
				c0.261,14.426,0.662,28.831,1.201,43.232c0.464,14.409,1.001,28.809,1.709,43.186c2.668,57.483,5.894,115.078,12.82,171.558
				c1.724,14.106,3.716,28.13,6.213,41.851c2.488,13.669,5.398,27.327,9.424,39.385l1.516,4.46l1.692,3.984
				c0.532,1.44,1.13,2.534,1.716,3.54c0.566,0.957,1.152,2.422,1.626,2.783c0.242,0.298,0.464,0.608,0.671,0.933l0.298,0.5
				l0.627,0.588c0.854,0.796,1.682,1.609,2.49,2.451c0.92,0.803,2.043,1.543,3.035,2.344l1.523,1.194l1.799,1.079
				c9.438,5.923,21.667,10.481,34.5,13.765c25.837,6.628,53.931,9.421,81.985,10.933c28.142,1.479,56.626,1.321,85.117,0.413
				c28.506-0.962,57.068-2.808,85.571-5.303l21.362-2.012l5.33-0.544c1.86-0.19,2.705-0.352,4.109-0.54
				c2.524-0.486,5.039-1.052,7.458-1.917c9.707-3.333,18.208-9.797,23.413-18.167c0.72-1.003,1.228-2.134,1.86-3.191l1.753-4.121
				c1.15-2.778,2.444-5.503,3.55-8.298c1.484-5.837,3.611-11.492,4.153-17.595c1.252-5.933,1.077-12.166,1.35-18.308l-0.588-9.353
				c-0.127-3.118-0.884-6.262-1.272-9.395c-2.1-12.532-5.833-25.071-10.894-37.214c-2.566-6.057-5.359-12.058-8.508-17.854
				c-1.538-2.927-3.181-5.764-4.863-8.567c-1.619-2.686-3.582-5.72-4.963-7.69l-0.388-0.554c-2.268-3.232-3.362-6.929-3.376-10.596
				c-0.129-25.381-0.5-50.779-0.427-76.145l0.444-38.03l0.828-38.003c1.326-50.642,1.687-101.333,5.254-151.836
				c1.953-25.234,4.219-50.447,7.434-75.569c2.952-25.142,6.313-50.237,10.208-75.266c7.813-50.044,16.689-99.966,29.28-149.297
				c1.172,50.867,0.43,101.34-0.376,151.77l-0.73,37.791l-1.028,37.737c-0.547,25.161-1.494,50.271-2.676,75.361
				c-2.527,50.159-6.606,100.227-8.157,150.388c-0.906,25.076-1.15,50.146-1.411,75.21c-0.071,25.051,0.298,50.078,0.42,75.117
				l-3.765-11.15c2.788,3.943,4.712,7.017,6.846,10.513c2.043,3.401,4.021,6.824,5.852,10.3c3.755,6.921,7.083,14.045,10.156,21.311
				c6.064,14.558,10.71,29.905,13.389,45.898c0.535,4.038,1.401,7.988,1.624,12.102l0.752,12.307
				c-0.237,8.289-0.178,16.611-1.79,24.91c-0.881,8.362-3.594,16.436-5.879,24.556c-1.504,3.94-3.252,7.795-4.907,11.68
				l-2.581,5.825c-1.162,2.08-2.246,4.214-3.582,6.189c-10.183,16.226-26.111,28.167-43.733,34.194
				c-4.409,1.545-8.955,2.629-13.54,3.469c-2.173,0.337-4.907,0.715-6.646,0.886l-5.466,0.559l-21.851,2.058
				c-29.143,2.551-58.354,4.441-87.69,5.432c-29.341,0.933-58.784,1.111-88.442-0.442c-29.661-1.648-59.5-4.424-89.802-12.141
				c-15.12-3.967-30.513-9.204-45.659-18.625l-2.827-1.758l-2.788-2.095c-1.848-1.438-3.708-2.766-5.508-4.338l-5.264-5.139
				l-1.296-1.323l-1.311-1.682l-2.554-3.43c-1.873-2.424-2.676-4.351-3.921-6.519c-1.199-2.146-2.268-4.258-3.025-6.206
				l-2.527-6.013l-2-5.806c-5.11-15.413-8.132-30.164-10.852-44.937c-2.681-14.749-4.753-29.387-6.541-44.001
				c-13.857-116.743-14.561-232.683-19.441-348.721c-0.815-29.001-0.962-58.013-0.342-87.012
				c0.701-29.001,2.271-57.991,3.923-86.965C1541.699,2746.06,1547.073,2688.157,1556.548,2630.457z"/>
		</g>
		<g>
			<path style="fill:#650000;" d="M1958.579,3281.216c-16.455-16.248-38.025-26.555-62.214-32.087
				c-12.095-2.576-24.653-4.502-37.488-5.078c-12.817-0.835-25.879-0.771-38.987,0.12c-13.145,0.652-26.323,2.278-39.509,4.338
				c-13.228,1.921-26.343,4.797-39.529,7.813c-26.292,6.362-52.324,14.722-78.271,25.322c20.881-18.818,45.42-33.657,71.321-45.408
				c25.942-11.819,53.555-20.276,82.197-25.186c14.351-2.229,28.96-3.594,43.772-3.682c14.785,0.181,29.832,1.187,44.741,4.546
				c14.927,3.135,29.761,8.467,43.623,16.272c13.733,7.93,26.543,18.457,36.045,31.558c5.439,7.502,3.77,17.996-3.735,23.438
				c-6.743,4.89-15.903,4.036-21.638-1.638L1958.579,3281.216z"/>
		</g>
		<g>
			<path style="fill:#650000;" d="M1750.464,3463.557c0.127,0.112,0.94-1.072,1.453-1.821c0.596-0.793,1.15-1.833,1.741-2.744
				c1.118-1.953,2.271-3.97,3.274-6.128c2.124-4.233,3.906-8.804,5.581-13.457c3.279-9.36,5.601-19.304,7.288-29.482
				c1.694-10.193,2.437-20.649,2.742-31.216c0.168-5.288-0.076-10.576-0.1-15.928l-1.021-16.018l5.146,15.317
				c1.414,5.198,3.059,10.4,4.294,15.703c2.505,10.603,4.6,21.443,5.676,32.544c1.079,11.096,1.47,22.427,0.61,33.965
				c-0.474,5.767-1.116,11.584-2.3,17.473c-0.52,2.944-1.262,5.911-2.056,8.921c-0.464,1.533-0.82,3-1.396,4.597
				c-0.588,1.675-0.935,2.888-2.107,5.322c-4.709,7.959-14.978,10.596-22.937,5.889
				C1748.391,3481.787,1745.754,3471.516,1750.464,3463.557z"/>
		</g>
		<g>
			<path style="fill:#650000;" d="M1888.916,3463.557c0.127,0.112,0.94-1.072,1.455-1.821c0.593-0.793,1.15-1.833,1.741-2.744
				c1.118-1.953,2.271-3.97,3.271-6.128c2.126-4.233,3.909-8.804,5.583-13.457c3.276-9.36,5.601-19.304,7.285-29.482
				c1.694-10.193,2.439-20.649,2.744-31.216c0.168-5.288-0.076-10.576-0.1-15.928l-1.021-16.018l5.146,15.317
				c1.414,5.198,3.057,10.4,4.294,15.703c2.505,10.603,4.6,21.443,5.676,32.544c1.079,11.096,1.47,22.427,0.61,33.965
				c-0.476,5.767-1.116,11.584-2.3,17.473c-0.52,2.944-1.262,5.911-2.056,8.921c-0.464,1.533-0.82,3-1.399,4.597
				c-0.588,1.675-0.933,2.888-2.107,5.322c-4.707,7.959-14.976,10.596-22.937,5.889
				C1886.846,3481.787,1884.209,3471.516,1888.916,3463.557z"/>
		</g>
		<g>
			<path style="fill:#FEB845;" d="M2599.798,3225.591c-2.878,43.23-6.542,82.692-11.148,115.455
				c-6.49,46.109-14.916,79.081-25.802,91.328c-49.877,55.948-263.046,39.357-340.976,31.193
				c-21.719-2.303-41.294-14.969-51.238-34.385c-10.049-19.679-13.398-39.828-12.77-58.932c0.052-4.606,0.419-9.054,0.995-13.451
				c5.862-48.202,33.757-86.303,33.757-86.303c0.471-22.662,0.628-45.638,0.523-68.876
				c-1.151-257.027-34.019-534.884-34.019-534.884l307.271-24.86l141.1-11.409
				C2607.492,2630.467,2615.656,2986.411,2599.798,3225.591z"/>
		</g>
		<g>
			<path style="fill:#FFFFFF;" d="M2599.798,3225.591c-0.419,6.49-0.89,12.927-1.361,19.26c-0.314,4.187-0.628,8.322-0.942,12.404
				c-1.047,12.875-2.146,25.279-3.35,37.212c-0.471,4.71-0.942,9.421-1.465,13.974c-1.256,11.462-2.617,22.348-4.03,32.606
				c-1.989,14.026-4.135,26.901-6.49,38.258c-0.314,1.413-0.576,2.722-0.89,4.083c-2.46,11.409-5.129,21.249-8.06,29.309
				c-0.262,0.785-0.576,1.57-0.89,2.355c-0.261,0.785-0.575,1.518-0.889,2.25c-0.262,0.733-0.576,1.413-0.89,2.146
				c-2.407,5.495-4.972,9.839-7.694,12.927c-49.877,55.948-263.046,39.357-340.976,31.193c-14.916-1.57-28.837-8.06-39.305-18.266
				c-1.937-1.832-3.716-3.821-5.391-5.914c-2.512-3.14-4.71-6.542-6.542-10.206c-2.355-4.606-4.344-9.211-5.966-13.817
				c-2.041-5.653-3.559-11.357-4.658-17.01c0-0.105,0-0.157-0.052-0.262c-12.718-65.631,32.658-127.597,32.658-127.597
				c0.419-22.662,0.628-45.638,0.471-68.876c121.736-53.959,234.208-40.247,309.887-17.533
				C2562.953,3201.987,2599.798,3225.591,2599.798,3225.591z"/>
		</g>
		<g>
			<path style="fill:#F48D40;" d="M2599.798,3225.591c0,0-36.845-23.604-96.823-41.503c23.709-55.163,8.74-157.848,9.892-287.121
				c0.209-5.966,0.314-11.828,0.366-17.637v-0.838c1.046-99.492-17.271-176.742-46.842-236.615l141.1-11.409
				C2607.492,2630.467,2615.656,2986.411,2599.798,3225.591z"/>
		</g>
		<g>
			<path style="fill:#650000;" d="M2159.116,2666.738c13.018,49.282,22.063,99.197,29.863,149.248
				c7.549,50.078,13.977,100.354,17.17,150.876c3.303,50.52,3.684,101.206,5.115,151.843l0.854,38.003l0.444,38.03
				c0.073,25.366-0.295,50.764-0.427,76.145c-0.02,3.894-1.235,7.505-3.301,10.481l-0.464,0.669l-0.005,0.007
				c-1.387,1.978-3.345,5.007-4.966,7.695c-1.682,2.8-3.325,5.637-4.861,8.567c-3.149,5.796-5.942,11.797-8.508,17.854
				c-5.061,12.144-8.792,24.683-10.889,37.214c-0.388,3.132-1.147,6.277-1.274,9.395l-0.586,9.353
				c0.273,6.143,0.1,12.373,1.353,18.306c0.542,6.106,2.671,11.758,4.155,17.595c1.106,2.795,2.4,5.52,3.55,8.298l1.753,4.119
				c0.632,1.057,1.14,2.185,1.86,3.191c5.208,8.367,13.708,14.832,23.418,18.162c2.417,0.864,4.934,1.428,7.458,1.917
				c1.404,0.186,2.246,0.347,4.111,0.537l5.33,0.547l21.362,2.009c28.503,2.498,57.065,4.343,85.569,5.305
				c28.494,0.906,56.975,1.064,85.117-0.415c28.054-1.511,56.147-4.307,81.985-10.935c12.832-3.286,25.059-7.842,34.495-13.765
				l1.799-1.079l1.523-1.196c0.991-0.801,2.117-1.538,3.032-2.344c0.811-0.84,1.638-1.655,2.49-2.451l0.627-0.588l0.298-0.498
				c0.208-0.325,0.43-0.635,0.671-0.933c0.476-0.361,1.06-1.831,1.626-2.786c0.586-1.003,1.184-2.102,1.716-3.54l1.692-3.984
				l1.519-4.46c4.023-12.061,6.934-25.718,9.419-39.387c2.498-13.721,4.49-27.744,6.213-41.851
				c6.926-56.479,10.154-114.075,12.82-171.558c1.353-28.757,2.319-57.583,2.854-86.416c0.527-28.835,0.356-57.703,0.508-86.558
				c-0.166-57.72,2.854-115.442,5.964-173.245c3.34-57.808,7.288-115.649,13.914-173.66c8.989,57.71,14.17,115.608,17.93,173.542
				c3.491,57.939,6.123,115.964,4.255,173.975c-0.806,29.006-1.995,58.003-3.115,87.017l-1.553,43.53
				c-0.469,14.512-1.008,29.028-1.724,43.555c-2.705,58.108-5.925,116.182-13.076,174.614c-1.787,14.614-3.86,29.253-6.541,44.001
				c-2.72,14.773-5.742,29.524-10.852,44.937l-1.997,5.803l-2.527,6.013c-0.444,1.008-0.813,1.978-1.323,3.018l-1.702,3.188
				c-1.248,2.168-2.043,4.094-3.916,6.516l-2.554,3.43l-1.311,1.685l-1.296,1.326l-5.264,5.137c-1.799,1.575-3.66,2.903-5.508,4.341
				l-2.788,2.097l-2.827,1.758c-15.146,9.424-30.54,14.658-45.659,18.628c-30.303,7.72-60.139,10.496-89.8,12.141
				c-29.661,1.555-59.104,1.377-88.442,0.444c-29.336-0.991-58.547-2.881-87.69-5.432l-21.851-2.056l-5.466-0.559
				c-1.731-0.171-4.47-0.552-6.643-0.886c-4.583-0.84-9.131-1.921-13.538-3.467c-17.627-6.023-33.552-17.964-43.74-34.185
				c-1.338-1.978-2.419-4.109-3.584-6.189c-0.935-1.978-1.724-3.877-2.583-5.825c-1.655-3.884-3.401-7.742-4.907-11.68
				c-2.283-8.12-5-16.194-5.881-24.556c-1.611-8.296-1.555-16.621-1.794-24.91l0.754-12.307c0.22-4.114,1.086-8.064,1.621-12.102
				c2.678-15.994,7.322-31.34,13.384-45.901c3.074-7.263,6.401-14.387,10.156-21.309c1.831-3.477,3.806-6.902,5.852-10.3
				c2.134-3.496,4.06-6.572,6.841-10.51l0.012-0.017l-3.765,11.15c0.122-25.039,0.491-50.066,0.42-75.117l-0.439-37.6l-0.942-37.61
				c-1.448-50.164-5.508-100.239-8.301-150.381c-2.91-50.139-3.867-100.444-4.902-150.845
				C2158.091,2768.135,2157.52,2717.651,2159.116,2666.738z"/>
		</g>
		<g>
			<path style="fill:#650000;" d="M2179.756,3259.744c9.5-13.101,22.31-23.628,36.045-31.558
				c13.86-7.805,28.694-13.137,43.621-16.272c14.91-3.359,29.958-4.365,44.741-4.546c14.812,0.088,29.421,1.453,43.772,3.682
				c28.643,4.91,56.255,13.367,82.197,25.186c25.901,11.75,50.439,26.589,71.321,45.408c-25.947-10.601-51.98-18.96-78.271-25.322
				c-13.186-3.015-26.301-5.891-39.529-7.813c-13.186-2.061-26.362-3.687-39.507-4.338c-13.11-0.891-26.172-0.955-38.989-0.12
				c-12.834,0.576-25.391,2.502-37.488,5.078c-24.189,5.532-45.759,15.84-62.212,32.087l-0.327,0.322
				c-6.594,6.511-17.219,6.443-23.73-0.151C2175.544,3275.459,2175.012,3266.27,2179.756,3259.744z"/>
		</g>
		<g>
			<path style="fill:#650000;" d="M2384.746,3480.605c-1.174-2.434-1.519-3.647-2.107-5.322c-0.579-1.597-0.935-3.064-1.399-4.597
				c-0.793-3.01-1.536-5.977-2.056-8.921c-1.184-5.889-1.826-11.707-2.3-17.473c-0.859-11.538-0.469-22.869,0.61-33.965
				c1.077-11.101,3.171-21.941,5.676-32.544c1.238-5.303,2.881-10.505,4.294-15.703l5.146-15.317l-1.021,16.018
				c-0.024,5.352-0.269,10.64-0.1,15.928c0.305,10.566,1.047,21.023,2.744,31.216c1.685,10.178,4.009,20.122,7.285,29.482
				c1.675,4.653,3.457,9.224,5.581,13.457c1.003,2.158,2.156,4.175,3.274,6.128c0.591,0.911,1.147,1.951,1.741,2.744
				c0.515,0.75,1.326,1.934,1.455,1.821c4.707,7.959,2.07,18.23-5.889,22.937
				C2399.722,3491.201,2389.453,3488.564,2384.746,3480.605z"/>
		</g>
		<g>
			<path style="fill:#650000;" d="M2246.292,3480.605c-1.174-2.434-1.519-3.647-2.107-5.322c-0.579-1.597-0.933-3.064-1.399-4.597
				c-0.791-3.01-1.536-5.977-2.056-8.921c-1.184-5.889-1.824-11.707-2.3-17.473c-0.859-11.538-0.469-22.869,0.61-33.965
				c1.077-11.101,3.171-21.941,5.676-32.544c1.238-5.303,2.881-10.505,4.294-15.703l5.146-15.317l-1.018,16.018
				c-0.024,5.352-0.271,10.64-0.103,15.928c0.305,10.566,1.05,21.023,2.744,31.216c1.685,10.178,4.009,20.122,7.288,29.482
				c1.672,4.653,3.457,9.224,5.581,13.457c1.001,2.158,2.153,4.175,3.271,6.128c0.591,0.911,1.147,1.951,1.741,2.744
				c0.515,0.75,1.328,1.934,1.455,1.821c4.707,7.959,2.07,18.23-5.889,22.937
				C2261.267,3491.201,2250.999,3488.564,2246.292,3480.605z"/>
		</g>
		<g style="opacity:0.3;">
			<path style="fill:#650000;" d="M1449.798,3376.269c-4.135,3.663-8.426,7.065-12.875,10.258
				c-4.448,3.192-9.054,6.176-13.712,8.897c-2.355,1.361-4.762,2.669-7.17,3.925c-4.815,2.512-9.787,4.762-14.812,6.804
				c-5.077,2.041-10.258,3.873-15.491,5.443c-36.741,11.043-78.035,10.991-119.59,0.157c-2.565-0.68-5.077-1.361-7.641-2.094
				c-0.471-0.104-0.942-0.262-1.413-0.418c-5.862-1.78-11.724-3.716-17.585-5.914c-5.914-2.198-11.828-4.606-17.69-7.223
				c-2.669-1.204-5.391-2.46-8.06-3.716c-0.209-0.157-0.471-0.261-0.733-0.366c-5.81-2.826-11.619-5.914-17.376-9.159
				c-2.879-1.675-5.757-3.349-8.636-5.076c-2.826-1.727-5.705-3.559-8.531-5.391c-5.652-3.716-11.252-7.589-16.8-11.723
				c-0.262-0.209-0.523-0.419-0.785-0.576c-2.512-1.884-4.972-3.821-7.432-5.757c-5.496-4.344-10.886-8.897-16.172-13.66
				c-7.955-7.118-15.649-14.759-23.185-22.819c-2.512-2.669-4.972-5.443-7.432-8.217c-4.867-5.6-9.63-11.409-14.288-17.428
				c-2.303-2.983-4.606-6.071-6.856-9.159c-2.303-3.088-4.501-6.28-6.699-9.473c-4.396-6.438-8.636-13.032-12.718-19.888
				c184.592,115.298,330.822,147.957,304.601-190.455l26.744,52.389C1428.706,3182.727,1465.289,3285.831,1449.798,3376.269z"/>
		</g>
		<g style="opacity:0.3;">
			<path style="fill:#650000;" d="M2193.14,3225.591l-18.527,56.629c-31.35,11.566-65.212,17.847-100.54,17.847
				c-32.815,0-64.374-5.443-93.788-15.439c-0.68-1.361-1.413-2.564-2.146-3.716c-1.151-1.989-2.25-3.716-3.193-5.181
				c-0.628-0.994-1.151-1.832-1.622-2.512c-1.204-1.78-1.884-2.721-1.884-2.721c-0.471-22.662-0.628-45.638-0.523-68.876
				c0.157-41.241,1.203-83.006,2.721-124.039c23.395,171.822,217.774,160.465,218.978-25.907L2193.14,3225.591z"/>
		</g>
		<g style="opacity:0.3;">
			<path style="fill:#650000;" d="M2004.727,3394.639c-0.733,4.606-1.779,9.264-3.14,13.922c-0.314,1.151-0.68,2.25-1.047,3.402
				c-1.832,5.757-4.187,11.514-7.118,17.219c-9.944,19.417-29.518,32.083-51.238,34.385
				c-77.929,8.165-291.098,24.755-340.975-31.193c-2.931-3.245-5.652-8.06-8.269-14.183c-0.419-1.047-0.837-2.041-1.256-3.14
				c-0.262-0.68-0.523-1.413-0.785-2.146c-0.523-1.466-1.047-2.983-1.57-4.554c-3.297-9.996-6.281-22.347-8.95-36.688
				c-0.733-3.664-1.413-7.432-2.041-11.357v-0.157c-0.419-2.355-0.838-4.711-1.204-7.17h0.052c7.38,0.576,12.195,1.256,12.195,1.256
				c192.024,97.818,294.919,66.991,319.57,0.942c15.753-41.87-0.052-97.923-44.434-144.188c0,0,1.675-13.137,4.187-40.509
				c32.868,5.652,67.148,15.596,102.214,31.14c-0.105,23.238,0.052,46.214,0.523,68.876c0,0,28.21,38.572,33.914,87.141h-0.052
				c0.471,4.135,0.785,8.322,0.942,12.561C2006.506,3378.206,2006.035,3386.37,2004.727,3394.639z"/>
		</g>
		<g style="opacity:0.3;">
			<path style="fill:#650000;" d="M3128.402,3080.879c-0.733,5.6-1.675,11.2-2.774,16.905c-2.46,13.398-5.809,27.111-10.205,40.98
				c-0.524,1.936-1.152,3.873-1.78,5.757c-7.118,21.824-16.486,44.068-28.262,66.416
				c-90.648,200.66-303.084,261.318-409.433,162.297c0-0.052-0.052-0.052-0.052-0.052c-26.325-79.029,19.312-191.501,55.687-262.418
				c-46.946,205.789,283.667,267.547,399.331-80.808C3131.594,3046.18,3130.757,3063.241,3128.402,3080.879z"/>
		</g>
		<g style="opacity:0.3;">
			<path style="fill:#650000;" d="M2599.798,3225.591c-0.419,6.49-0.89,12.927-1.361,19.26c-0.314,4.187-0.628,8.322-0.942,12.404
				c-1.047,12.875-2.146,25.279-3.35,37.212c-0.471,4.71-0.942,9.421-1.465,13.974c-1.256,11.462-2.617,22.348-4.03,32.606
				c-1.989,14.026-4.135,26.901-6.49,38.258c-0.314,1.413-0.576,2.722-0.89,4.083c-2.46,11.409-5.129,21.249-8.06,29.309
				c-0.262,0.785-0.576,1.57-0.89,2.355c-0.261,0.785-0.575,1.518-0.889,2.25c-0.262,0.733-0.576,1.413-0.89,2.146
				c-2.407,5.495-4.972,9.839-7.694,12.927c-49.877,55.948-263.046,39.357-340.976,31.193c-14.916-1.57-28.837-8.06-39.305-18.266
				c-1.937-1.832-3.716-3.821-5.391-5.914c-2.46-3.14-4.658-6.542-6.542-10.206c-2.355-4.606-4.344-9.211-5.966-13.817
				c-2.041-5.705-3.559-11.357-4.658-17.01c0-0.105,0-0.157-0.052-0.262c-1.78-9.42-2.408-18.737-2.094-27.843
				c1.78-4.92,3.559-9.473,5.286-13.607c6.176-15.178,11.043-24.756,11.043-24.756c-1.779,9.421,0.261,17.533,5.338,24.337
				c34.961,48.202,218.978,34.019,283.3-9.002c12.875-8.583,20.987-18.318,22.086-28.995c7.118-68.143-83.635-90.648-91.851-92.532
				c62.909,9.996,94.573-5.809,109.907-41.608C2562.953,3201.987,2599.798,3225.591,2599.798,3225.591z"/>
		</g>
		<g>
			<path style="fill:#4D146E;" d="M2392.681,3228.442c-0.596-0.083-0.938-0.176-0.938-0.176l1.377-5.41l-0.015,0.176l0.044-0.166
				l-0.044,0.166L2392.681,3228.442z"/>
		</g>
		<g>
			<g>
				<path style="fill:#B1411E;" d="M3089.589,1676.006l-63.24-54.365c0,0,63.24,180.62-24.169,418.898l-59.555-31.48
					c0,0-3.739,182.295-223.264,325.574l-27.908-91.147c0,0-63.296,143.224-304.197,225.106v-102.311
					c-84.227,76.133-183.244,134.014-295.824,174.871c-112.636-40.857-211.598-98.738-295.824-174.871v102.311
					c-240.901-81.882-304.197-225.106-304.197-225.106l-27.908,91.147c-219.58-143.28-223.264-325.574-223.264-325.574
					l-59.555,31.48c-87.465-238.278-24.169-418.898-24.169-418.898l-63.296,54.365c-90.198-331.1,247.6-1019.031,723.319-969.801
					c-31.369-87.296,110.236-122.795,274.893,34.885c164.657-157.68,306.206-122.181,274.893-34.885
					C2842.045,656.975,3179.843,1344.906,3089.589,1676.006z"/>
			</g>
			<g>
				<path style="fill:#993419;" d="M2803.335,1929.759c-50.736,185.811-267.749,320.16-659.241,313.518h-0.279
					c-391.492,6.642-608.505-127.707-659.297-313.518c-46.495-170.239,13.786-261.33,48.392-450.769
					c66.979-366.766,412.87-484.091,611.072-248.046c198.146-236.045,544.037-118.721,611.016,248.046
					C2789.549,1668.429,2849.886,1759.52,2803.335,1929.759z"/>
			</g>
			<g>
				<path style="fill:#993419;" d="M3089.589,1676.006l-63.24-54.365c0,0,63.24,180.62-24.169,418.898l-59.555-31.48
					c0,0-3.739,182.295-223.264,325.574l-27.908-91.147c0,0-63.296,143.224-304.197,225.106v-102.311
					c-84.227,76.133-183.244,134.014-295.824,174.871c-112.636-40.857-211.598-98.738-295.824-174.871v102.311
					c-144.229-49.007-224.827-120.06-266.242-169.178c45.601,32.82,107.892,66.756,191.672,93.715v-96.785
					c84.226,72.058,183.188,126.813,295.824,165.438c112.581-38.625,211.598-93.38,295.824-165.438v96.785
					c240.902-77.472,304.197-212.993,304.197-212.993l27.908,86.291c219.524-135.577,223.263-308.104,223.263-308.104l59.556,29.806
					c87.407-225.44,24.168-396.349,24.168-396.349l63.239,51.406c90.254-313.239-223.822-965.894-699.541-919.344
					c18.363-48.448-30.866-79.37-107.892-66.644c108.171-52.969,182.294-16.577,158.74,49.006
					C2842.045,656.975,3179.843,1344.906,3089.589,1676.006z"/>
			</g>
			<g style="opacity:0.6;">
				<path style="fill:#F1F2F2;" d="M1207.978,2026.083l-27.293,14.456c-54.812-149.363-50.402-276.066-39.518-349.798l52.69-44.932
					C1193.857,1645.809,1136.645,1807.843,1207.978,2026.083z"/>
			</g>
			<g style="opacity:0.6;">
				<path style="fill:#F1F2F2;" d="M1467.578,2321.293l-4.074,13.34c-164.769-107.557-207.97-237.05-219.245-294.931l31.704-16.633
					C1275.962,2023.069,1279.255,2185.158,1467.578,2321.293z"/>
			</g>
			<g style="opacity:0.6;">
				<path style="fill:#F1F2F2;" d="M2368.949,697.386c-38.512-32.373-142.498-18.81-258.093,91.036
					c-161.531-153.494-300.401-118.944-269.647-33.936c-444.629-45.713-766.464,560.559-719.075,896.683l-28.914,24.838
					c-90.198-331.1,247.6-1019.031,723.319-969.801c-31.369-87.296,110.236-122.795,274.893,34.885
					C2250.452,588.824,2387.871,616.676,2368.949,697.386z"/>
			</g>
			<g style="opacity:0.6;">
				<path style="fill:#F1F2F2;" d="M2376.373,705.255c-3.349,0.279-6.698,0.614-10.047,0.949c1.06-3.014,1.954-5.917,2.623-8.819
					C2371.796,699.786,2374.251,702.409,2376.373,705.255z"/>
			</g>
			<g>
				<path style="fill:#650000;" d="M2091.431,2560.688c-2.256,0-4.507-0.391-6.66-1.172
					c-101.328-36.753-191.831-87.368-269.629-150.737v59.814c0,6.299-3.037,12.212-8.159,15.884
					c-5.122,3.672-11.699,4.644-17.666,2.612c-170.752-58.042-255.244-146.001-291.895-196.509l-15.239,49.771
					c-1.802,5.874-6.25,10.557-12.026,12.646c-5.757,2.104-12.192,1.348-17.329-2.002
					c-174.653-113.965-217.905-251.426-228.608-311.372l-34.404,18.188c-4.985,2.637-10.859,2.998-16.128,0.967
					c-5.264-2.017-9.399-6.211-11.343-11.504c-59.551-162.231-51.382-297.656-38.711-371.638l-17.686,15.188
					c-5.088,4.37-12.061,5.82-18.457,3.857c-6.406-1.965-11.362-7.078-13.12-13.542c-26.948-98.913-18.086-230.295,24.946-369.949
					c43.144-140.034,117.051-276.206,208.101-383.438c140.879-165.908,312.251-251.394,485.205-242.956
					c-0.64-23.753,9.873-44.28,30.381-57.598c49.102-31.89,152.861-17.244,268.428,87.207
					c115.557-104.438,219.282-119.084,268.389-87.217c20.513,13.315,31.035,33.848,30.41,57.61
					c172.969-8.572,344.365,77.051,485.254,243.005c91.04,107.231,164.927,243.398,208.057,383.415
					c43.018,139.646,51.855,271.021,24.897,369.922c-1.763,6.467-6.719,11.577-13.125,13.543
					c-6.406,1.963-13.369,0.508-18.457-3.865l-17.632-15.156c12.656,73.984,20.801,209.394-38.706,371.606
					c-1.943,5.293-6.074,9.492-11.343,11.509c-5.254,2.031-11.138,1.67-16.128-0.967l-34.409-18.193
					c-10.718,59.946-53.994,197.412-228.599,311.372c-5.137,3.354-11.563,4.111-17.334,2.007
					c-5.776-2.09-10.225-6.772-12.026-12.646l-15.234-49.766c-36.655,50.503-121.143,138.462-291.899,196.504
					c-5.952,2.031-12.534,1.06-17.666-2.612c-5.122-3.672-8.159-9.585-8.159-15.884v-59.819
					c-77.769,63.345-168.271,113.965-269.624,150.742C2095.943,2560.297,2093.687,2560.688,2091.431,2560.688z M1795.601,2346.742
					c4.751,0,9.443,1.733,13.105,5.044c79.341,71.719,174.424,128.403,282.725,168.555
					c108.335-40.181,203.418-96.865,282.725-168.555c5.728-5.181,13.965-6.489,21.03-3.364c7.056,3.135,11.606,10.132,11.606,17.856
					v74.541c207.681-78.745,266.235-203.989,266.826-205.298c3.345-7.412,10.933-11.987,19.058-11.499
					c8.115,0.518,15.078,5.967,17.461,13.745l20.137,65.776c186.255-132.793,192.773-293.286,192.817-294.951
					c0.186-6.753,3.843-12.964,9.678-16.372c5.825-3.411,13.003-3.596,18.984-0.435l39.492,20.879
					c72.695-217.847,17.241-382.9,16.655-384.595c-2.891-8.342,0.166-17.602,7.466-22.568c7.305-4.968,17.021-4.429,23.716,1.326
					l38.599,33.179c34.966-193.716-62.676-487.49-231.982-686.917c-139.326-164.114-308.862-244.861-477.363-227.454
					c-6.655,0.713-13.242-2.095-17.388-7.38c-4.141-5.286-5.278-12.327-3.013-18.647c6.479-18.059,3.32-31.399-9.39-39.646
					c-30.928-20.068-121.67-11.956-233.604,95.237c-7.549,7.236-19.473,7.236-27.021,0
					c-111.963-107.217-202.72-115.305-233.633-95.232c-12.7,8.247-15.85,21.58-9.365,39.631c2.271,6.321,1.138,13.367-3.003,18.652
					c-4.146,5.291-10.718,8.103-17.392,7.385c-168.477-17.424-337.998,63.328-477.324,227.407
					c-169.346,199.434-267.031,493.23-232.07,686.975l38.652-33.196c6.704-5.762,16.44-6.304,23.745-1.313
					c7.3,4.985,10.342,14.25,7.422,22.593c-0.581,1.667-56.074,166.724,16.66,384.563l39.497-20.879
					c5.996-3.164,13.203-3.005,19.043,0.437c5.84,3.44,9.482,9.661,9.619,16.438c0.044,1.607,6.523,162.095,192.817,294.888
					l20.142-65.781c2.393-7.803,9.375-13.296,17.52-13.784c8.179-0.488,15.732,4.146,19.028,11.606
					c0.562,1.24,59.116,126.484,266.792,205.229v-74.541c0-7.725,4.551-14.722,11.607-17.856
					C1790.22,2347.294,1792.921,2346.742,1795.601,2346.742z"/>
			</g>
			<g>
				<g>
					<path style="fill:#FEB845;" d="M2735.089,1957.876c-50.736,185.811-267.749,320.16-659.241,313.518h-0.279
						c-391.492,6.642-608.505-127.707-659.297-313.518c-46.495-170.239,13.786-261.33,48.392-450.769
						c66.979-366.766,412.87-484.091,611.072-248.046c198.146-236.045,544.038-118.721,611.017,248.046
						C2721.302,1696.546,2781.639,1787.638,2735.089,1957.876z"/>
				</g>
				<g style="opacity:0.6;">
					<path style="fill:#F1F2F2;" d="M2066.483,1248.456c-201.552-180.564-509.711-56.039-572.504,287.954
						c-34.606,189.439-94.887,280.531-48.392,450.769c13.117,47.89,37.229,92.431,72.561,131.949
						c-51.574-46.383-85.454-101.083-101.864-161.252c-46.495-170.239,13.786-261.33,48.392-450.769
						C1530.65,1145.978,1866.997,1026.644,2066.483,1248.456z"/>
				</g>
				<g style="opacity:0.6;">
					<path style="fill:#F1F2F2;" d="M2568.826,1253.814c-136.861-123.13-332.663-121.623-463.775,34.55
						c-9.153-10.884-18.586-21.043-28.354-30.42C2217.521,1091.39,2432.189,1102.386,2568.826,1253.814z"/>
				</g>
				<g>
					<path style="fill:#F48D40;" d="M2735.102,1957.876c-50.737,185.811-267.75,320.16-659.242,313.518h-0.279
						c-381.724,6.475-597.565-121.121-655.166-299.731c70.942,151.205,267.581,255.246,595.555,249.497h0.279
						c365.036,6.419,567.424-123.242,614.756-302.522c43.369-164.266-12.893-252.12-45.098-434.917
						c-33.769-191.337-143.559-312.29-266.466-347.063c162.146-1.172,323.732,131.837,367.324,370.45
						C2721.315,1696.546,2781.651,1787.638,2735.102,1957.876z"/>
				</g>
				<g>
					<path style="fill:#FFFFFF;" d="M2170.294,2156.346c-61.22,20.801-127.897,20.801-189.12,0.009
						c-237.828-80.77-303.482-328.835-153.878-420.18c15.293-9.377,29.917-19.759,43.369-31.703
						c39.336-34.862,83.827-60.286,134.813-73.718c46.151-12.158,94.377-12.16,140.524,0.01
						c50.94,13.435,95.375,38.854,134.742,73.708c13.395,11.945,28.075,22.326,43.369,31.703
						C2473.662,1827.467,2408.054,2075.56,2170.294,2156.346z"/>
				</g>
				<g style="opacity:0.3;">
					<path style="fill:#650000;" d="M2293.375,1836.942c-76.603,47.136-168.453,37.211-161.941-53.025h-104.189
						c12.094,84.654-74.634,125.65-156.284,72.834c0,0-0.93,105.776,121.865,165.313
						C2115.619,2081.601,2278.565,1991.366,2293.375,1836.942z"/>
				</g>
				<g>
					<path style="fill:#650000;" d="M2175.826,1765.367c-12.147,19.912-35.027,46.043-76.862,62.886
						c-14.906,6.001-31.631,6.001-46.536-0.004c-41.805-16.843-64.715-42.972-76.813-62.882
						c-10.102-16.633-2.68-38.011,15.572-44.709c37.229-13.787,84.506-13.005,84.506-13.005s47.332-0.781,84.561,13.005
						C2178.449,1727.356,2185.873,1748.734,2175.826,1765.367z"/>
				</g>
				<g>
					<path style="fill:#F42F2F;" d="M2189.333,1931.14c-0.279,141.047-224.827,141.103-225.384,0.223
						c33.88,3.237,71.109-14.289,111.744-52.579C2117.108,1917.8,2154.951,1935.271,2189.333,1931.14z"/>
				</g>
				<g>
					<path style="fill:#650000;" d="M2162.188,2001.245c-25.545-66.625-137.794-63.835-175.409,0l-18.98-54.067l113.027-53.025
						l99.506,50.234l-9.503,34.885"/>
				</g>
				<g>
					<path style="fill:#650000;" d="M2076.666,2056.508c-65.503,0-131.924-42.935-132.251-125.066
						c-0.02-5.518,2.29-10.789,6.367-14.507c4.072-3.718,9.502-5.554,15.029-5.017c27.813,2.681,60.317-13.269,96.484-47.351
						c7.529-7.09,19.272-7.087,26.792-0.003c36.821,34.69,69.771,50.576,97.915,47.178c5.537-0.669,11.123,1.077,15.308,4.795
						c4.18,3.716,6.567,9.048,6.558,14.641c-0.161,82.195-66.553,125.266-132.051,125.33
						C2076.768,2056.508,2076.715,2056.508,2076.666,2056.508z M1985.386,1950.402c9.351,45.92,51.675,67.034,91.279,67.034
						c0.039,0,0.073,0,0.112,0c40.82-0.039,82.012-20.891,91.152-66.814c-29.336-3.203-60.22-18.474-92.236-45.623
						C2044.4,1931.542,2014.156,1946.738,1985.386,1950.402z"/>
				</g>
				<g>
					<path style="fill:#650000;" d="M1962.104,1950.813c-15.413-2.944-29.658-9.48-41.47-17.964
						c-11.846-8.53-21.372-18.848-29.48-29.612c-16.177-21.65-26.75-45.41-35.647-69.265c-0.542-1.45,0.198-3.066,1.648-3.608
						c1.255-0.469,2.632,0.02,3.333,1.099l0.024,0.039c13.662,21.045,28.916,41.162,47.021,56.565
						c8.999,7.651,18.63,14.111,28.574,18.267c9.958,4.138,20.022,5.964,29.685,5.581c10.874-0.43,20.039,8.037,20.469,18.911
						s-8.037,20.039-18.911,20.469c-1.497,0.059-2.959-0.051-4.373-0.31L1962.104,1950.813z"/>
				</g>
				<g>
					<path style="fill:#650000;" d="M2295.876,1833.972c-8.748,23.572-19.133,47.048-34.949,68.521
						c-7.927,10.679-17.214,20.938-28.762,29.517c-11.511,8.533-25.396,15.259-40.544,18.533l-0.781,0.168
						c-10.64,2.3-21.128-4.463-23.428-15.103s4.463-21.128,15.103-23.428c1.487-0.322,3.074-0.459,4.531-0.442
						c9.546,0.178,19.48-1.809,29.285-6.03c9.795-4.236,19.27-10.693,28.132-18.293c17.827-15.293,32.888-35.146,46.409-55.913
						l0.024-0.037c0.845-1.299,2.583-1.665,3.882-0.82C2295.898,1831.375,2296.323,1832.769,2295.876,1833.972z"/>
				</g>
				<g>
					<path style="fill:#650000;" d="M2075.694,1898.322c-10.791,0-19.536-8.748-19.536-19.536v-59.751
						c0-10.788,8.745-19.536,19.536-19.536s19.536,8.748,19.536,19.536v59.751
						C2095.23,1889.574,2086.485,1898.322,2075.694,1898.322z"/>
				</g>
				<g>
					<g>
						<path style="fill:#650000;" d="M1869.944,1620.19c-9.497-13.477-18.328-26.057-28.103-37.129
							c-9.678-11.084-19.963-20.715-30.955-28.34c-21.88-15.403-46.162-22.766-70.688-22.432
							c-24.548,0.471-49.207,8.813-71.57,24.001c-11.233,7.559-21.836,16.887-31.887,27.634
							c-10.146,10.728-19.377,22.971-29.131,36.265c-1.25-32.676,10.864-66.707,34.565-93.23
							c23.494-26.458,59.392-44.451,97.163-44.89c18.784-0.315,37.659,3.706,54.668,11.328c17.004,7.659,32.051,19.001,43.75,32.556
							C1861.282,1553.252,1871.667,1587.683,1869.944,1620.19z"/>
					</g>
					<g>
						<path style="fill:#650000;" d="M2281.44,1620.19c-1.721-32.507,8.665-66.938,32.188-94.236
							c11.699-13.555,26.746-24.897,43.75-32.556c17.009-7.622,35.884-11.643,54.67-11.328c37.769,0.439,73.667,18.433,97.163,44.89
							c23.699,26.523,35.815,60.554,34.563,93.23c-9.751-13.293-18.984-25.537-29.128-36.265
							c-10.051-10.747-20.657-20.076-31.89-27.634c-22.363-15.188-47.021-23.53-71.57-24.001
							c-24.526-0.334-48.806,7.029-70.688,22.432c-10.991,7.625-21.274,17.256-30.955,28.34
							C2299.768,1594.133,2290.938,1606.714,2281.44,1620.19z"/>
					</g>
				</g>
				<g>
					<path style="fill:#650000;" d="M2103.829,2291.171c-9.365,0-18.779-0.083-28.315-0.244
						c-190.254,3.247-347.319-25.942-466.245-86.729c-110.962-56.709-184.214-140.107-211.841-241.172
						c-34.521-126.401-12.529-210.874,15.317-317.822c10.733-41.221,22.9-87.942,32.7-141.609
						c34.995-191.621,150.864-335.593,302.398-375.727c117.886-31.223,238.906,6.767,327.896,101.758
						c88.965-94.985,209.976-132.974,327.813-101.768c151.543,40.127,267.422,184.102,302.422,375.737
						c9.795,53.714,21.963,100.464,32.7,141.711c27.832,106.914,49.814,191.36,15.259,317.722
						c-27.593,101.062-100.83,184.456-211.787,241.169C2429.166,2261.948,2281.793,2291.171,2103.829,2291.171z M1830.782,1155.973
						c-24.072,0-48.481,3.186-72.934,9.663c-136.743,36.218-241.719,168.406-273.965,344.978
						c-10.063,55.093-22.422,102.556-33.325,144.436c-27.412,105.271-47.217,181.333-15.439,297.678
						c24.648,90.176,91.016,165.107,191.929,216.68c113.164,57.842,264.102,85.537,448.188,82.456
						c0.112-0.005,0.498-0.005,0.61-0.005c184.609,3.188,335.356-24.614,448.516-82.451
						c100.908-51.572,167.256-126.499,191.88-216.68c0.005-0.002,0.005-0.005,0.005-0.007
						c31.802-116.304,12.012-192.337-15.381-297.571c-10.908-41.907-23.276-89.404-33.33-144.539
						c-32.251-176.582-137.236-308.774-273.984-344.983c-111.191-29.456-221.582,9.187-302.852,105.994
						c-3.711,4.421-9.185,6.975-14.961,6.975c-5.771,0-11.25-2.554-14.961-6.973
						C1997.354,1196.093,1916.207,1155.973,1830.782,1155.973z"/>
				</g>
			</g>
			<g>
				<g>
					<path style="fill:#FEB845;" d="M2981.696,1114.386c0,112.581-70.105,207.691-166.387,238.501
						c-60.783-101.082-153.158-201.551-153.158-201.551l44.653-14.68c-53.193-70.83-114.814-111.074-167.839-133.902
						c38.402-81.547,117.549-137.475,208.975-137.475C2877.041,865.28,2981.696,976.8,2981.696,1114.386z"/>
				</g>
				<g>
					<path style="fill:#F48D40;" d="M2981.696,1114.386c0,112.581-70.105,207.691-166.387,238.501
						c-13.061-21.656-27.517-43.313-42.252-63.909c81.826-38.736,138.87-126.088,138.87-227.617
						c0-67.203-25.005-128.209-65.64-173.029C2926.271,927.905,2981.696,1014.253,2981.696,1114.386z"/>
				</g>
				<g style="opacity:0.6;">
					<path style="fill:#F1F2F2;" d="M2770.265,892.239c-86.459,0-161.922,50.011-202.333,124.414
						c-9.824-5.247-19.536-9.824-28.969-13.898c38.402-81.547,117.549-137.475,208.975-137.475
						c75.854,0,143.28,38.513,185.922,98.18C2891.777,919.421,2833.952,892.239,2770.265,892.239z"/>
				</g>
				<g>
					<path style="fill:#FF9878;" d="M2723.492,1223.618c0.726,0.056,1.507,0.056,2.289,0.056c50.458,0,91.371-41.862,91.371-93.492
						c0-51.63-40.913-93.492-91.371-93.492c-30.531,0-57.658,15.349-74.235,38.959"/>
				</g>
				<g style="opacity:0.3;">
					<path style="fill:#4D146E;" d="M2817.151,1129.456c-16.633-23.163-43.481-38.178-73.677-38.178
						c-27.406,0-52.077,12.391-68.766,31.982l-23.164-47.611c16.578-23.61,43.704-38.96,74.235-38.96
						C2776.015,1036.69,2816.76,1078.162,2817.151,1129.456z"/>
				</g>
				<g>
					<path style="fill:#650000;" d="M2832.061,1342.837l11.863,34.014l1.431,4.099c2.092,5.994-1.072,12.546-7.065,14.639
						c-1.951,0.679-4.006,0.791-5.901,0.444l-69.768-13.062l69.768-13.059l-11.536,19.182l-22.295-26.155l-0.508-0.596
						c-7.146-8.384-6.143-20.972,2.241-28.118s20.972-6.143,28.118,2.241C2830.042,1338.386,2831.27,1340.593,2832.061,1342.837z"/>
				</g>
				<g>
					<path style="fill:#650000;" d="M2412.598,972.725c10.928-1.455,22.061-1.868,33.215-1.865
						c11.162,0.044,22.39,0.593,33.623,1.663c11.201,1.169,22.5,2.568,33.687,4.724c11.248,1.987,22.388,4.658,33.567,7.566
						c10.566,2.747,16.902,13.535,14.158,24.102c-2.747,10.564-13.538,16.902-24.102,14.155c-1.914-0.498-3.689-1.26-5.298-2.236
						l-0.21-0.134c-8.909-5.474-18.008-10.859-27.446-15.674c-9.382-4.985-19.109-9.326-28.994-13.525
						c-9.915-4.099-20.068-7.761-30.427-10.979C2433.999,977.344,2423.442,974.526,2412.598,972.725z"/>
				</g>
				<g>
					<path style="fill:#650000;" d="M2815.308,1372.426c-6.714,0-13.135-3.474-16.743-9.473
						c-59.014-98.144-149.888-197.405-150.796-198.396c-4.492-4.888-6.196-11.721-4.521-18.147
						c1.67-6.423,6.494-11.558,12.798-13.633l17.925-5.891c-40.088-46.963-87.993-82.622-142.729-106.186
						c-4.863-2.095-8.667-6.072-10.542-11.023c-1.88-4.954-1.665-10.454,0.591-15.244c43.188-91.714,130.034-148.689,226.65-148.689
						c139.663,0,253.291,120.513,253.291,268.643c0,119.338-72.324,222.661-179.971,257.107
						C2819.298,1372.123,2817.291,1372.426,2815.308,1372.426z M2696.5,1160.61c28.955,33.371,83.706,99.341,127.124,168.501
						c82.271-33.372,138.535-119.458,138.535-214.724c0-126.587-96.099-229.57-214.219-229.57
						c-75.054,0-143.271,41.206-182.173,108.774c60.986,29.917,113.613,74.023,156.655,131.336
						c3.779,5.034,4.902,11.582,3.018,17.588c-1.89,6.006-6.558,10.735-12.534,12.703L2696.5,1160.61z"/>
				</g>
				<g>
					<path style="fill:#650000;" d="M2725.782,1243.21c-1.294,0-2.588-0.022-3.794-0.115c-10.757-0.83-18.804-10.225-17.974-20.981
						c0.83-10.72,10.088-18.784,20.874-17.981l0.894,0.005c39.609,0,71.831-33.176,71.831-73.955s-32.222-73.955-71.831-73.955
						c-22.998,0-44.775,11.458-58.252,30.649c-6.191,8.835-18.389,10.959-27.212,4.763c-8.828-6.201-10.962-18.384-4.761-27.214
						c20.781-29.6,54.507-47.271,90.225-47.271c61.152,0,110.903,50.703,110.903,113.027S2786.934,1243.21,2725.782,1243.21z"/>
				</g>
			</g>
			<g>
				<g>
					<path style="fill:#FEB845;" d="M1461.271,1136.657l44.653,14.68c0,0-32.82,35.666-72.226,85.901
						c-26.68,34.104-56.373,74.849-80.933,115.65c-47.108-15.07-87.965-45.546-117.38-85.957
						c-30.699-42.141-49.007-95.054-49.007-152.545c0-137.586,104.655-249.106,233.757-249.106c28.522,0,55.816,5.47,81.101,15.405
						c55.704,21.991,101.473,65.974,127.874,122.069c-34.382,14.791-72.393,36.95-109.398,70.049
						C1499.672,1090.665,1479.913,1111.763,1461.271,1136.657z"/>
				</g>
				<g>
					<path style="fill:#F48D40;" d="M1629.109,1002.755c-34.382,14.791-72.393,36.95-109.398,70.049l-78.533-48.002
						c139.54-27.908,60.058-144.116,60.058-144.116C1556.939,902.677,1602.708,946.659,1629.109,1002.755z"/>
				</g>
				<g>
					<path style="fill:#F48D40;" d="M1433.698,1237.237c-26.68,34.104-56.373,74.849-80.933,115.65
						c-47.108-15.07-87.965-45.546-117.38-85.957c2.791,0.056,5.637,0.279,8.595,0.67c111.632,13.954,122.294-85.51,122.294-85.51
						l54.141,35.89C1420.414,1217.981,1427,1227.358,1433.698,1237.237z"/>
				</g>
				<g style="opacity:0.6;">
					<path style="fill:#F1F2F2;" d="M1224.5,1135.484c0,87.854,42.7,165.104,107.223,209.421
						c-85.287-37.118-145.345-126.311-145.345-230.52c0-137.586,104.655-249.106,233.757-249.106
						c46.439,0,89.696,14.4,126.033,39.35c-27.127-11.777-56.821-18.252-87.91-18.252
						C1329.154,886.378,1224.5,997.898,1224.5,1135.484z"/>
				</g>
				<g>
					<path style="fill:#FF9878;" d="M1516.51,1075.65c-16.577-23.61-43.704-38.959-74.235-38.959
						c-50.458,0-91.371,41.862-91.371,93.492c0,51.63,40.913,93.492,91.371,93.492c0.781,0,1.563,0,2.288-0.056"/>
				</g>
				<g style="opacity:0.3;">
					<path style="fill:#4D146E;" d="M1514.63,1073.082c-9.823-3.684-20.428-5.693-31.424-5.693
						c-50.458,0-91.371,41.862-91.371,93.492c0,21.545,7.089,41.304,19.034,57.1c-34.997-13.061-59.946-47.443-59.946-87.799
						c0-51.63,40.912-93.492,91.37-93.492C1471.708,1036.69,1497.942,1050.924,1514.63,1073.082z"/>
				</g>
				<g>
					<path style="fill:#650000;" d="M1405.437,1382.971l-69.771,13.062c-6.238,1.167-12.244-2.944-13.411-9.182
						c-0.381-2.029-0.203-4.033,0.427-5.854l1.448-4.146l11.863-34.014c3.628-10.4,15-15.891,25.4-12.263s15.891,15,12.263,25.4
						c-0.83,2.38-2.065,4.502-3.601,6.318l-0.559,0.647l-22.295,26.155l-11.536-19.182L1405.437,1382.971z"/>
				</g>
				<g>
					<path style="fill:#650000;" d="M1621.365,984.812c11.179-2.908,22.322-5.579,33.567-7.566
						c11.187-2.156,22.485-3.555,33.689-4.724c11.233-1.069,22.458-1.619,33.621-1.663c11.155-0.003,22.288,0.41,33.215,1.865
						c-10.845,1.802-21.401,4.619-31.77,7.795c-10.361,3.218-20.513,6.88-30.427,10.979c-9.888,4.199-19.612,8.54-28.997,13.525
						c-9.438,4.815-18.538,10.2-27.446,15.674l-0.134,0.081c-9.299,5.715-21.472,2.808-27.185-6.494
						c-5.713-9.299-2.805-21.47,6.494-27.185C1617.676,986.065,1619.546,985.293,1621.365,984.812z"/>
				</g>
				<g>
					<path style="fill:#650000;" d="M1352.745,1372.426c-1.982,0-3.989-0.303-5.952-0.933
						c-107.646-34.448-179.971-137.771-179.971-257.107c0-148.13,113.628-268.643,253.296-268.643
						c96.611,0,183.457,56.975,226.65,148.689c2.256,4.79,2.471,10.29,0.591,15.242c-1.875,4.954-5.679,8.931-10.542,11.025
						c-54.736,23.562-102.646,59.224-142.734,106.186l17.925,5.891c6.304,2.075,11.128,7.209,12.798,13.633
						c1.675,6.423-0.029,13.259-4.521,18.147c-0.908,0.991-91.777,100.252-150.796,198.398
						C1365.88,1368.952,1359.459,1372.426,1352.745,1372.426z M1420.118,884.816c-118.125,0-214.224,102.983-214.224,229.57
						c0,95.266,56.265,181.35,138.535,214.727c43.423-69.163,98.169-135.132,127.124-168.503l-16.406-5.393
						c-5.977-1.968-10.645-6.697-12.534-12.703c-1.885-6.006-0.762-12.554,3.018-17.588
						c43.042-57.315,95.674-101.419,156.66-131.336C1563.385,926.02,1495.167,884.816,1420.118,884.816z"/>
				</g>
				<g>
					<path style="fill:#650000;" d="M1442.276,1243.21c-61.152,0-110.908-50.703-110.908-113.027s49.756-113.027,110.908-113.027
						c35.713,0,69.438,17.671,90.22,47.271c6.201,8.83,4.067,21.013-4.761,27.214c-8.813,6.196-21.011,4.072-27.212-4.763
						c-13.477-19.192-35.249-30.649-58.247-30.649c-39.609,0-71.836,33.176-71.836,73.955s32.227,73.955,71.836,73.955l0.908-0.005
						c10.918-0.891,20.088,7.214,20.923,17.966c0.835,10.757-7.275,20.159-18.032,20.996
						C1444.874,1243.188,1443.575,1243.21,1442.276,1243.21z"/>
				</g>
			</g>
		</g>
		<g>
			<g>
				<path style="fill:#FFFFFF;" d="M990.197,1031.091c23.829-38.987,35.578-85.788,30.551-134.75
					c-12.202-118.84-118.432-205.288-237.272-193.086c-118.84,12.202-205.288,118.432-193.086,237.273
					s118.432,205.287,237.273,193.086c33.055-3.394,63.591-14.082,90.209-30.273l100.102,22.45L990.197,1031.091z"/>
			</g>
			<g style="opacity:0.5;">
				<g>
					<path style="fill:#FFFFFF;" d="M787.725,744.641c111.013-11.398,210.998,63.296,233.636,170.055
						c0.027-7.626-0.302-15.319-1.098-23.076c-12.202-118.84-118.432-205.287-237.272-193.086
						c-118.84,12.202-205.288,118.432-193.086,237.272c0.8,7.79,2.026,15.432,3.612,22.926
						C593.935,849.554,676.675,756.042,787.725,744.641z"/>
				</g>
			</g>
			<g>
				<path style="fill:#650000;" d="M805.128,1154.306c-54.009,0.002-105.957-18.386-148.418-52.942
					c-48.862-39.763-79.316-96.174-85.752-158.84c-6.435-62.666,11.919-124.089,51.685-172.952
					c39.761-48.862,96.172-79.314,158.838-85.75c62.72-6.435,124.097,11.924,172.949,51.682
					c48.862,39.763,79.316,96.174,85.752,158.843c5.015,48.833-4.956,96.819-28.862,139.341l25.4,86.604
					c1.948,6.638,0.239,13.811-4.492,18.857s-11.792,7.212-18.525,5.703l-92.603-20.767c-28.198,15.886-58.921,25.62-91.44,28.96
					C821.451,1153.889,813.262,1154.306,805.128,1154.306z M805.938,721.638c-6.792,0-13.618,0.349-20.464,1.052
					c-52.29,5.369-99.355,30.776-132.529,71.543c-33.174,40.769-48.491,92.014-43.12,144.302
					c5.366,52.283,30.776,99.348,71.543,132.524c40.771,33.174,92.026,48.484,144.297,43.12
					c29.38-3.015,56.987-12.278,82.056-27.527c4.316-2.629,9.492-3.484,14.424-2.373l67.754,15.193l-18.447-62.883
					c-1.553-5.288-0.796-10.984,2.075-15.686c22.617-37,32.222-79.382,27.788-122.563c-5.366-52.288-30.776-99.353-71.543-132.529
					C894.341,736.979,850.997,721.638,805.938,721.638z"/>
			</g>
			<g style="opacity:0.3;">
				<path style="fill:#650000;" d="M991.411,1029.014c-59.248,50.114-140.871,72.06-221.925,51.886
					c-89.89-22.373-156.122-90.823-179.944-173.899c-0.569,11.015-0.314,22.212,0.848,33.526
					c12.202,118.84,118.432,205.287,237.273,193.086c33.055-3.394,63.591-14.081,90.209-30.273l100.103,22.45l-27.777-94.699
					C990.615,1030.407,991,1029.703,991.411,1029.014z"/>
			</g>
			<g>
				<path style="fill:#FF0068;" d="M874.737,857.693L874.737,857.693c-18.72-18.72-49.071-15.366-67.791,3.354l-2.914,2.913
					l-2.914-2.913c-18.72-18.72-49.071-22.074-67.791-3.354l0,0c-18.72,18.72-18.72,49.071,0,67.791l2.914,2.914l58.855,58.855
					c4.935,4.935,12.936,4.935,17.872,0l58.855-58.855l2.914-2.914C893.457,906.764,893.457,876.413,874.737,857.693z"/>
			</g>
		</g>
	</g>
</g>
</svg>
