<svg width="125" height="125" viewBox="0 0 125 125" fill="none" xmlns="http://www.w3.org/2000/svg">
<g clip-path="url(#clip0_4_2372)">
<path d="M125 0H0V125H125V0Z" fill="#02DAFF"/>
<g opacity="0.3">
<path d="M64.814 110.57C83.6426 110.57 98.9062 108.914 98.9062 106.872C98.9062 104.83 83.6426 103.175 64.814 103.175C45.9853 103.175 30.7217 104.83 30.7217 106.872C30.7217 108.914 45.9853 110.57 64.814 110.57Z" fill="#650000"/>
</g>
<path d="M38.1081 82.8926C40.4853 80.8099 40.0012 75.9613 36.2786 75.5771C34.233 75.3659 32.2403 76.4575 31.317 78.295C30.6087 79.7048 30.244 81.8723 31.1857 85.1234C32.0311 83.5536 34.2594 84.1338 36.6814 83.5922C37.2058 83.4749 37.7039 83.2467 38.1081 82.8926Z" fill="#B1411E"/>
<path d="M38.1087 82.8925C37.704 83.2466 37.2051 83.4751 36.6819 83.592C34.2591 84.1344 32.0317 83.5536 31.1858 85.1234C31.0131 84.5286 30.8857 83.9722 30.795 83.4489C30.8596 83.5902 30.9259 83.7332 30.9956 83.878C31.566 82.1896 33.8597 82.3884 36.1569 81.4483C36.654 81.246 37.1075 80.9373 37.4476 80.5204C38.386 79.3674 38.5971 77.7174 38.1697 76.3185C40.0797 77.8412 39.9959 81.239 38.1087 82.8925Z" fill="#993419"/>
<g opacity="0.6">
<path d="M39.1883 77.658C38.6475 77.0283 37.8696 76.5836 36.8458 76.4789C34.7998 76.2678 32.8078 77.358 31.8834 79.1964C31.2712 80.4139 30.9153 82.2 31.4386 84.7606C31.3427 84.867 31.259 84.9873 31.1857 85.1234C30.2438 81.8721 30.6084 79.704 31.3165 78.2947C32.241 76.458 34.2329 75.3661 36.2789 75.5772C37.7423 75.7272 38.7034 76.5679 39.1883 77.658Z" fill="#F1F2F2"/>
</g>
<path d="M31.1859 85.7339C31.1644 85.7339 31.1429 85.7329 31.1212 85.7304C30.8746 85.7042 30.6683 85.5315 30.5994 85.2933C29.7547 82.3766 29.8126 79.9298 30.7716 78.0209C31.8074 75.959 34.0442 74.7326 36.3414 74.9698C38.0884 75.1501 39.3974 76.2177 39.9327 77.8987C40.5495 79.8354 39.9646 82.0778 38.5106 83.3517C38.0525 83.7531 37.4661 84.0422 36.8149 84.1879C35.9718 84.3765 35.1553 84.4359 34.435 84.4884C32.9634 84.5955 32.112 84.6911 31.7233 85.4129C31.6161 85.612 31.4087 85.7339 31.1859 85.7339ZM35.7736 76.1616C34.1396 76.1616 32.6056 77.0903 31.8627 78.569C31.1582 79.9711 31.0388 81.7627 31.5054 83.9056C32.272 83.4216 33.2889 83.3474 34.3463 83.2705C35.0577 83.2188 35.7933 83.1652 36.5483 82.9965C37.0007 82.8952 37.4011 82.7004 37.7058 82.4334C38.7885 81.4849 39.2357 79.7337 38.7694 78.2691C38.5454 77.5658 37.9158 76.3596 36.216 76.1843C36.0681 76.1691 35.9204 76.1616 35.7736 76.1616Z" fill="#650000"/>
<path d="M46.1124 84.1786C44.4845 79.5564 40.0861 76.2456 36.2226 78.3289C35.9088 78.4982 35.7795 78.8829 35.9271 79.2074C36.0372 79.4497 36.2797 79.6037 36.5458 79.6037C40.8465 79.603 42.9784 82.8816 43.6725 88.3342" fill="#FCA800"/>
<g opacity="0.6">
<path d="M46.1129 84.178L45.9088 84.5252C44.1402 80.1889 39.9348 77.2098 36.223 79.2122C36.1463 79.2541 36.0817 79.3064 36.0294 79.3692C35.9893 79.3203 35.9526 79.2663 35.9265 79.207C35.7799 78.8825 35.909 78.4988 36.223 78.3296C40.0865 76.2452 44.4838 79.5558 46.1129 84.178Z" fill="#F1F2F2"/>
</g>
<path d="M43.6716 88.9447C43.3687 88.9447 43.1059 88.7196 43.0667 88.4112C42.3647 82.8955 40.2321 80.2142 36.5473 80.2142C36.5468 80.2142 36.5464 80.2142 36.5459 80.2142C36.0405 80.2142 35.5796 79.9182 35.3713 79.4601C35.0916 78.845 35.3383 78.1122 35.9328 77.7916C37.4968 76.9479 39.2322 76.8532 40.9516 77.5178C43.4237 78.4732 45.6217 80.9478 46.6883 83.9758C46.8003 84.2938 46.6332 84.6424 46.3152 84.7544C45.9975 84.8658 45.6487 84.6995 45.5366 84.3814C44.5853 81.6806 42.6598 79.4871 40.5114 78.6568C39.1353 78.125 37.7527 78.1975 36.5123 78.8662C36.4814 78.8829 36.4681 78.9226 36.4827 78.9547C36.4934 78.9781 36.5181 78.9932 36.5458 78.9932C36.5462 78.9932 36.5468 78.9932 36.5475 78.9932C40.8947 78.9932 43.4957 82.1099 44.278 88.2571C44.3206 88.5916 44.0839 88.8972 43.7495 88.9398C43.7233 88.9432 43.6972 88.9447 43.6716 88.9447Z" fill="#650000"/>
<path d="M96.4188 100.342C93.5862 106.613 86.9476 108.509 83.623 105.414C83.623 105.412 83.6213 105.412 83.6213 105.412C83.2707 105.086 82.9585 104.704 82.6899 104.266C82.6899 104.266 82.3201 104.321 80.8951 104.408C80.0281 104.464 78.7688 104.528 76.9635 104.601C74.8477 104.687 71.9785 104.785 68.1097 104.882C67.9405 104.886 67.7713 104.891 67.5986 104.894C67.5551 104.896 67.5097 104.898 67.4644 104.9C67.3736 104.9 67.283 104.903 67.1922 104.905C66.3829 104.924 65.5317 104.945 64.6369 104.964H64.398C63.8014 104.95 63.2241 104.938 62.6659 104.926C61.5949 104.9 60.5937 104.874 59.6554 104.849C54.4331 104.71 51.2062 104.575 49.2405 104.472C49.0974 104.464 48.9614 104.457 48.8323 104.45C46.8316 104.338 46.345 104.266 46.345 104.266C46.0502 104.75 45.6996 105.163 45.3054 105.508C42.2041 108.243 36.3906 106.811 33.3155 101.678C33.0626 101.258 32.8288 100.811 32.6161 100.342C29.1118 93.6824 32.3911 87.3473 38.6878 90.5305C40.3082 87.6647 43.7286 87.1728 43.7286 87.1728C45.7363 76.5329 49.5719 71.5618 49.5719 71.5618H79.463C79.463 71.5618 81.4968 74.1957 83.3771 79.7336V79.7354C83.3771 79.7354 83.3771 79.7371 83.3789 79.7389C84.0801 81.8076 84.7603 84.2809 85.3062 87.1728C85.3062 87.1728 85.3341 87.1763 85.3865 87.1868C85.9115 87.281 88.8732 87.9246 90.3471 90.5305C94.7548 88.3013 97.6852 90.7381 97.8404 94.6853C97.9102 96.3756 97.4706 98.3448 96.4188 100.342Z" fill="#FEB845"/>
<path d="M48.8324 104.45C46.8322 104.337 46.3447 104.267 46.3447 104.267C46.0503 104.749 45.7003 105.163 45.3062 105.508C45.7903 102.682 44.6471 99.4602 43.6707 97.3634L45.648 96.2431C48.0015 97.8557 48.3941 95.3566 48.3941 95.3566L48.5756 98.276L48.8324 104.45Z" fill="#F48D40"/>
<path d="M67.9567 102.569L67.1929 104.905C66.3834 104.924 65.5312 104.946 64.6366 104.964H64.3978C63.8008 104.951 63.2252 104.938 62.6674 104.926C62.602 104.357 62.4352 103.832 62.2537 103.397C62.1326 103.107 62.0051 102.859 61.8955 102.664C61.8922 102.658 61.8889 102.651 61.884 102.645C62.8032 102.957 63.7894 103.127 64.8149 103.127C65.9188 103.127 66.977 102.931 67.9567 102.569Z" fill="#F48D40"/>
<path d="M85.3635 97.2065C85.3635 97.2081 85.3635 97.2097 85.3619 97.2114C84.2252 99.4275 82.799 102.942 83.6217 105.412C83.2701 105.086 82.9577 104.704 82.6895 104.267C82.6895 104.267 82.3198 104.321 80.8953 104.408C81.0392 103.384 81.1537 102.151 81.2436 100.8C81.7392 93.3254 81.484 82.2021 81.484 82.2021L77.0747 82.5587C73.5845 75.4981 65.0682 76.1523 65.0682 76.1523L71.3487 71.5613L73.9115 69.6887L77.1761 71.5613L80.6189 73.5387L83.3764 79.7341V79.7357C83.3764 79.7357 83.3764 79.7373 83.378 79.739C83.4369 79.8404 85.1313 82.9004 85.3864 87.1872C85.4895 88.9061 85.3586 90.8213 84.796 92.8249C82.8138 99.9002 85.3635 97.2065 85.3635 97.2065Z" fill="#F48D40"/>
<g opacity="0.6">
<path d="M79.463 71.5619C79.463 71.5619 79.7404 71.9212 80.1851 72.6521H50.4109C50.4109 72.6521 46.9611 77.1232 44.8924 86.6605C44.6935 87.5773 44.0411 88.323 43.1638 88.6554C42.0297 89.0851 40.472 89.949 39.5267 91.6208C33.23 88.4375 29.9508 94.7726 33.455 101.432C33.7725 102.137 34.1388 102.786 34.5452 103.379C33.7986 102.521 33.1411 101.507 32.6161 100.342C29.1118 93.6825 32.3911 87.3473 38.6878 90.5306C40.3082 87.6648 43.7286 87.1729 43.7286 87.1729C45.7363 76.533 49.5719 71.5619 49.5719 71.5619H79.463Z" fill="#F1F2F2"/>
</g>
<path d="M97.8239 95.6556C97.8193 95.7217 97.8159 95.7873 97.8098 95.8541C97.7972 95.9939 97.7816 96.135 97.7626 96.2775C97.7397 96.4525 97.7119 96.6275 97.6759 96.8057C97.599 97.2244 97.4943 97.653 97.357 98.0864C97.3406 98.1469 97.321 98.2074 97.3013 98.2663C97.0789 98.9483 96.7862 99.6434 96.4182 100.342C93.5854 106.612 86.9468 108.508 83.6234 105.414C83.6234 105.412 83.6217 105.412 83.6217 105.412C82.7991 102.942 84.2252 99.4275 85.362 97.2114C86.0064 95.9569 86.5575 95.1179 86.5575 95.1179C88.126 91.6375 90.3471 90.5302 90.3471 90.5302C94.7562 88.301 97.6833 90.741 97.8398 94.6898C97.8402 94.6886 97.8407 94.6874 97.8411 94.6861C97.8424 94.719 97.8419 94.7528 97.8429 94.7859C97.8451 94.8662 97.8473 94.9464 97.8473 95.0278C97.8473 95.0913 97.8455 95.1557 97.8441 95.2198C97.8425 95.2913 97.8415 95.3624 97.8382 95.4348C97.8349 95.5077 97.829 95.5818 97.8239 95.6556Z" fill="white"/>
<path d="M45.3062 105.508C45.177 105.623 45.0429 105.729 44.9039 105.829C44.7649 105.929 44.6209 106.022 44.4754 106.107C44.4018 106.15 44.3265 106.19 44.2513 106.23C44.1008 106.308 43.9454 106.378 43.7884 106.442C43.6298 106.506 43.4679 106.563 43.3043 106.612C42.1562 106.959 40.8657 106.956 39.5671 106.617C39.487 106.596 39.4085 106.575 39.3284 106.552C39.3136 106.549 39.2989 106.544 39.2842 106.539C39.101 106.485 38.9178 106.424 38.7347 106.354C38.5499 106.287 38.365 106.212 38.1819 106.128C38.0984 106.091 38.0134 106.051 37.93 106.012C37.9234 106.007 37.9153 106.004 37.9071 106.001C37.7255 105.912 37.544 105.818 37.3641 105.714C37.2741 105.662 37.1842 105.61 37.0942 105.556C37.0059 105.502 36.9159 105.445 36.8276 105.387C36.651 105.273 36.476 105.15 36.3026 105.021C36.2944 105.015 36.2863 105.008 36.2781 105.003C36.1996 104.944 36.1227 104.884 36.0458 104.823C35.8741 104.689 35.7056 104.547 35.5404 104.396C35.2919 104.174 35.0498 103.937 34.8159 103.683C34.7374 103.6 34.6605 103.513 34.5837 103.426C34.4299 103.251 34.2811 103.07 34.1372 102.882C34.0652 102.789 33.9932 102.692 33.9229 102.596C33.8509 102.499 33.7823 102.399 33.7136 102.3C33.5745 102.098 33.4421 101.892 33.3161 101.678C33.0626 101.258 32.8287 100.813 32.6161 100.342C29.1112 93.6819 32.3904 87.3475 38.6872 90.5302C38.6872 90.5302 40.9083 91.6375 42.4784 95.1179C42.4784 95.1179 42.6174 95.3387 42.8349 95.7263C43.0541 96.1188 43.3534 96.6814 43.6707 97.3634C44.6471 99.4602 45.7903 102.682 45.3062 105.508Z" fill="white"/>
<path d="M73.91 94.0303C73.91 97.9506 71.4322 101.29 67.9567 102.569C66.9771 102.931 65.9189 103.127 64.8149 103.127C63.7894 103.127 62.8032 102.957 61.884 102.645C58.2973 101.424 55.718 98.0291 55.718 94.0303C55.718 89.0075 59.7905 84.9351 64.8148 84.9351C69.8376 84.9351 73.91 89.0075 73.91 94.0303Z" fill="white"/>
<path d="M40.1882 104.624C41.5931 103.899 42.0592 102.007 41.2292 100.398C40.3991 98.7893 38.5873 98.0726 37.1824 98.7975C35.7775 99.5223 35.3114 101.414 36.1415 103.023C36.9715 104.632 38.7833 105.348 40.1882 104.624Z" fill="#FF8899"/>
<path d="M35.1223 97.0959C35.7516 96.91 36.0197 95.9396 35.721 94.9284C35.4223 93.9173 34.6699 93.2483 34.0406 93.4342C33.4112 93.6201 33.1431 94.5906 33.4419 95.6017C33.7406 96.6129 34.4929 97.2818 35.1223 97.0959Z" fill="#FF8899"/>
<path d="M38.3822 96.2504C38.9233 96.0906 39.1538 95.2563 38.897 94.3869C38.6401 93.5175 37.9933 92.9424 37.4522 93.1022C36.9111 93.2621 36.6806 94.0964 36.9374 94.9658C37.1942 95.8351 37.8411 96.4103 38.3822 96.2504Z" fill="#FF8899"/>
<path d="M33.0842 99.6736C33.6253 99.5137 33.8558 98.6794 33.599 97.8101C33.3422 96.9407 32.6953 96.3655 32.1542 96.5254C31.6131 96.6852 31.3826 97.5196 31.6395 98.3889C31.8963 99.2583 32.5431 99.8334 33.0842 99.6736Z" fill="#FF8899"/>
<path d="M93.054 103.014C93.884 101.405 93.418 99.5136 92.013 98.7888C90.6081 98.064 88.7963 98.7806 87.9663 100.389C87.1363 101.998 87.6023 103.89 89.0072 104.615C90.4122 105.34 92.2239 104.623 93.054 103.014Z" fill="#FF8899"/>
<path d="M95.3662 96.0512C95.6649 95.0401 95.3969 94.0696 94.7675 93.8837C94.1382 93.6978 93.3858 94.3668 93.0871 95.3779C92.7884 96.3891 93.0565 97.3595 93.6858 97.5454C94.3152 97.7313 95.0675 97.0624 95.3662 96.0512Z" fill="#FF8899"/>
<path d="M91.8705 95.4151C92.1273 94.5458 91.8968 93.7114 91.3557 93.5516C90.8146 93.3917 90.1678 93.9669 89.9109 94.8363C89.6541 95.7056 89.8846 96.54 90.4257 96.6998C90.9668 96.8597 91.6137 96.2845 91.8705 95.4151Z" fill="#FF8899"/>
<path d="M97.1686 98.8386C97.4254 97.9692 97.1949 97.1349 96.6538 96.975C96.1127 96.8152 95.4658 97.3903 95.209 98.2597C94.9522 99.1291 95.1827 99.9634 95.7238 100.123C96.2649 100.283 96.9117 99.7079 97.1686 98.8386Z" fill="#FF8899"/>
<path d="M87.5405 107.483C85.385 107.483 83.5431 106.566 82.3844 104.913C81.2484 105.017 77.2191 105.295 64.6508 105.575L64.3979 105.575C51.8177 105.295 47.7867 105.017 46.6507 104.913C45.4058 106.689 43.3696 107.615 41.0073 107.468C37.3603 107.239 33.8533 104.548 32.0681 100.61C30.0142 96.6954 30.0721 92.6053 32.2138 90.4282C33.7213 88.8957 35.9755 88.6572 38.4577 89.7468C39.9112 87.6257 42.242 86.8811 43.207 86.6548C45.2356 76.2721 48.9303 71.394 49.0886 71.189C49.2945 70.9219 49.6776 70.8725 49.9448 71.0787C50.2115 71.2845 50.2611 71.6673 50.0556 71.9342C50.0181 71.9832 46.2795 76.9431 44.3291 87.2859C44.2806 87.5426 44.0745 87.74 43.816 87.7771C43.7859 87.7816 40.6669 88.2708 39.2192 90.831C39.0587 91.1152 38.7036 91.2227 38.4124 91.0755C36.2062 89.9601 34.3139 90.0344 33.0841 91.2845C31.3411 93.0562 31.3712 96.6638 33.1571 100.058C33.1627 100.069 33.1681 100.08 33.1731 100.091C34.7722 103.631 37.8772 106.048 41.0837 106.249C43.1214 106.378 44.8505 105.538 45.8243 103.948C45.9522 103.739 46.1935 103.627 46.4344 103.663C46.5322 103.676 49.052 104.012 64.4115 104.354L64.6372 104.354C79.9831 104.012 82.503 103.676 82.6027 103.662C82.8414 103.629 83.0836 103.74 83.2108 103.948C84.1846 105.538 85.9121 106.377 87.9514 106.249C91.1577 106.048 94.2627 103.631 95.8619 100.091C95.8669 100.08 95.8722 100.069 95.8779 100.058C97.6639 96.6638 97.694 93.0562 95.951 91.2845C94.7211 90.0343 92.8287 89.9603 90.6228 91.0755C90.3313 91.2226 89.9767 91.115 89.8159 90.831C88.3683 88.2708 85.2492 87.7816 85.2178 87.777C84.9606 87.7388 84.7542 87.5417 84.706 87.286C82.7496 76.9102 79.0174 71.9835 78.98 71.9349C78.774 71.668 78.8233 71.2847 79.0903 71.0787C79.3572 70.8726 79.7407 70.922 79.9465 71.189C80.1049 71.3941 83.7995 76.2722 85.8281 86.6549C86.7931 86.8812 89.1239 87.6259 90.5775 89.7471C93.0596 88.6573 95.3136 88.8958 96.8214 90.4282C98.9631 92.6053 99.0209 96.6955 96.9671 100.61C95.1818 104.548 91.6747 107.239 88.0277 107.468C87.8638 107.478 87.7011 107.483 87.5405 107.483Z" fill="#650000"/>
<path d="M38.9601 89.9843C39.0483 90.0374 39.097 90.0743 39.1584 90.119C39.2183 90.1616 39.2715 90.2058 39.3269 90.2493C39.4352 90.3376 39.5405 90.4259 39.6398 90.519C39.8417 90.702 40.0282 90.895 40.2061 91.0932C40.5619 91.4897 40.876 91.9121 41.1614 92.347C41.2974 92.5694 41.4381 92.7863 41.558 93.0156C41.6864 93.2392 41.7984 93.4712 41.9089 93.7021C42.0241 93.9304 42.1132 94.1717 42.2153 94.4038C42.3084 94.6408 42.391 94.8814 42.4784 95.118C42.3447 94.9023 42.2167 94.6852 42.08 94.4742C41.9341 94.2684 41.8026 94.0556 41.6471 93.859C41.4962 93.6596 41.3456 93.4617 41.181 93.2755C41.0248 93.0831 40.8505 92.9066 40.6835 92.7269C40.3368 92.3782 39.9722 92.0532 39.5867 91.7676C39.3942 91.625 39.1973 91.4903 38.996 91.3716C38.8965 91.3102 38.7943 91.2555 38.6941 91.2031C38.6438 91.1782 38.5932 91.151 38.5444 91.13C38.4986 91.1087 38.4384 91.0822 38.4152 91.0769C38.0793 90.9995 37.8698 90.6645 37.9472 90.3287C38.0246 89.9929 38.3595 89.7834 38.6954 89.8607C38.7604 89.8758 38.8207 89.9004 38.875 89.9328L38.9601 89.9843Z" fill="#650000"/>
<path d="M44.3361 87.2382C44.2849 87.5173 44.2427 87.8365 44.2106 88.1415C44.1772 88.4502 44.1541 88.7612 44.1354 89.0733C44.1014 89.6975 44.1001 90.3252 44.1303 90.9533C44.1561 91.5824 44.2301 92.209 44.336 92.8332C44.4378 93.4593 44.6079 94.0717 44.8041 94.6819C44.5146 94.1128 44.2442 93.5239 44.0406 92.9098C43.8326 92.2977 43.6545 91.6704 43.5248 91.0326C43.3909 90.3953 43.2884 89.7492 43.2199 89.0977C43.1875 88.7717 43.1595 88.4445 43.1425 88.1154C43.1251 87.7825 43.1147 87.4638 43.122 87.1076C43.129 86.7692 43.409 86.5007 43.7473 86.5077C44.0857 86.5146 44.3543 86.7946 44.3473 87.133C44.3466 87.1651 44.3435 87.1966 44.3381 87.2273L44.3361 87.2382Z" fill="#650000"/>
<path d="M49.3452 103.101C49.2712 103.046 49.2261 103.006 49.1719 102.96C49.1187 102.915 49.0705 102.87 49.0208 102.825C48.923 102.734 48.8281 102.643 48.737 102.549C48.5533 102.363 48.3797 102.172 48.214 101.976C47.8816 101.584 47.5796 101.174 47.2987 100.755C47.0254 100.33 46.7651 99.9017 46.5392 99.4563C46.4186 99.2386 46.3201 99.0084 46.2109 98.7865C46.1077 98.5609 46.0145 98.331 45.9167 98.105C46.0595 98.3072 46.1965 98.5114 46.3424 98.709C46.4942 98.903 46.634 99.1032 46.7943 99.2887C47.0997 99.6699 47.4333 100.025 47.7714 100.369C48.1167 100.706 48.4751 101.026 48.8495 101.316C49.036 101.462 49.2272 101.6 49.4209 101.728C49.5172 101.793 49.6154 101.854 49.7125 101.913C49.7612 101.941 49.81 101.971 49.8577 101.996C49.9032 102.021 49.9593 102.052 49.9885 102.063C50.307 102.187 50.4644 102.547 50.34 102.865C50.2156 103.184 49.8564 103.341 49.5378 103.217C49.4865 103.196 49.4393 103.17 49.3968 103.139L49.3452 103.101Z" fill="#650000"/>
<path d="M90.6197 91.0769C90.5964 91.0822 90.5363 91.1087 90.4905 91.13C90.4417 91.1509 90.3911 91.1782 90.3408 91.2031C90.2406 91.2555 90.1383 91.3102 90.0388 91.3716C89.8375 91.4903 89.6406 91.625 89.4482 91.7676C89.0626 92.0532 88.6981 92.3782 88.3513 92.7269C88.1843 92.9066 88.0101 93.0831 87.8539 93.2755C87.6893 93.4617 87.5387 93.6596 87.3878 93.859C87.2323 94.0556 87.1007 94.2684 86.9549 94.4743C86.8181 94.6852 86.6902 94.9023 86.5564 95.118C86.6438 94.8814 86.7265 94.6408 86.8195 94.4038C86.9217 94.1717 87.0108 93.9304 87.1259 93.7021C87.2365 93.4712 87.3484 93.2392 87.477 93.0156C87.5967 92.7863 87.7375 92.5693 87.8735 92.347C88.159 91.9121 88.473 91.4897 88.8287 91.0932C89.0066 90.895 89.1931 90.702 89.3951 90.519C89.4943 90.4259 89.5996 90.3376 89.708 90.2493C89.7633 90.2058 89.8166 90.1616 89.8765 90.119C89.9378 90.0743 89.9866 90.0374 90.0748 89.9843L90.1576 89.9344C90.4527 89.7565 90.8362 89.8516 91.014 90.1468C91.1919 90.442 91.0968 90.8254 90.8016 91.0033C90.7445 91.0378 90.6813 91.0624 90.6197 91.0769Z" fill="#650000"/>
<path d="M85.913 87.1076C85.9204 87.4638 85.9099 87.7825 85.8924 88.1154C85.8755 88.4445 85.8475 88.7717 85.8151 89.0977C85.7466 89.7492 85.644 90.3953 85.5101 91.0326C85.3805 91.6705 85.2023 92.2977 84.9945 92.9099C84.7908 93.524 84.5204 94.1128 84.2308 94.682C84.4271 94.0718 84.5973 93.4593 84.699 92.8332C84.8049 92.2091 84.8789 91.5825 84.9048 90.9533C84.9349 90.3253 84.9336 89.6975 84.8997 89.0733C84.8808 88.7613 84.8579 88.4503 84.8244 88.1415C84.7922 87.8365 84.7501 87.5174 84.6989 87.2383L84.6976 87.2307C84.6366 86.8978 84.857 86.5786 85.1899 86.5176C85.5227 86.4566 85.842 86.6771 85.903 87.0099C85.9088 87.0415 85.9121 87.0764 85.913 87.1076Z" fill="#650000"/>
<path d="M79.0465 102.063C79.0756 102.052 79.1317 102.021 79.1772 101.996C79.2249 101.971 79.2738 101.941 79.3224 101.913C79.4195 101.854 79.5177 101.793 79.614 101.728C79.8077 101.6 79.9989 101.462 80.1854 101.316C80.5598 101.026 80.9181 100.706 81.2635 100.369C81.6016 100.025 81.9351 99.6699 82.2406 99.2887C82.4009 99.1032 82.5407 98.903 82.6925 98.709C82.8384 98.5114 82.9754 98.3072 83.1182 98.105C83.0204 98.331 82.9272 98.5609 82.824 98.7865C82.7148 99.0084 82.6163 99.2386 82.4957 99.4563C82.2698 99.9016 82.0095 100.33 81.7362 100.755C81.4553 101.174 81.1534 101.584 80.8209 101.976C80.6553 102.172 80.4816 102.363 80.298 102.549C80.2069 102.643 80.112 102.734 80.014 102.825C79.9644 102.87 79.9162 102.915 79.863 102.96C79.8088 103.006 79.7637 103.046 79.6896 103.101L79.6406 103.137C79.3658 103.341 78.9779 103.283 78.7743 103.009C78.5706 102.734 78.6282 102.346 78.9029 102.142C78.9473 102.11 78.9975 102.082 79.0465 102.063Z" fill="#650000"/>
<path d="M62.2943 107.162C61.9836 107.769 61.3719 108.165 60.6932 108.236C58.2579 108.492 51.5963 109.01 50.0377 107.262C49.7269 106.915 49.4816 106.027 49.2853 104.781C49.2706 104.679 49.2543 104.578 49.2396 104.473C49.0923 103.435 48.9746 102.178 48.883 100.8C48.3874 93.3253 48.6426 82.2021 48.6426 82.2021L62.6542 83.3355C62.6542 83.3355 62.5691 84.0437 62.4497 85.2458C62.3009 86.7211 62.0964 88.9389 61.9247 91.4936C61.8249 92.9672 61.7383 94.5553 61.6761 96.1744C61.6287 97.4567 61.596 98.7618 61.5911 100.051C61.5878 100.777 61.5927 101.495 61.6074 102.203C61.6074 102.203 61.6287 102.232 61.6663 102.288C61.681 102.309 61.6974 102.335 61.717 102.367C61.7464 102.412 61.7808 102.466 61.8168 102.528C61.8413 102.569 61.8675 102.615 61.8953 102.664C62.0049 102.859 62.1324 103.107 62.2535 103.397C62.4334 103.832 62.5986 104.357 62.6656 104.926C62.749 105.634 62.6803 106.41 62.2943 107.162Z" fill="#FEB845"/>
<path d="M61.9247 91.4935L61.6074 95.2716C61.6139 95.5889 61.6384 95.8898 61.6761 96.1744C61.6286 97.4567 61.5959 98.7618 61.591 100.051C60.4952 99.5649 59.4239 99.2541 58.3969 99.0775C58.5277 97.653 58.7289 94.9919 58.8744 90.9277C59.1083 84.4199 62.4497 85.2458 62.4497 85.2458L61.9247 91.4935Z" fill="#F48D40"/>
<path d="M62.6476 106.082C62.6247 106.226 62.592 106.372 62.5494 106.518C62.5396 106.554 62.5282 106.588 62.5167 106.624C62.4595 106.804 62.3859 106.984 62.2943 107.162C61.9835 107.769 61.3718 108.165 60.6931 108.236C58.2578 108.492 51.5963 109.01 50.0376 107.262C49.946 107.16 49.861 107.01 49.7792 106.818C49.7661 106.786 49.7531 106.755 49.74 106.72C49.7318 106.699 49.7236 106.676 49.7154 106.653C49.6991 106.607 49.6827 106.56 49.6664 106.511C49.5633 106.199 49.4701 105.813 49.3867 105.364C49.3654 105.25 49.3442 105.132 49.3229 105.01V105.005C49.3098 104.931 49.2984 104.856 49.2869 104.781C49.1168 103.688 48.9843 102.319 48.8829 100.8C48.8829 100.8 53.0323 98.142 58.3968 99.0775C59.4239 99.2541 60.4952 99.5649 61.591 100.051C61.5877 100.777 61.5926 101.495 61.6073 102.203C61.6073 102.203 62.4889 103.408 62.6672 104.926C62.6819 105.054 62.6917 105.186 62.695 105.319C62.7032 105.569 62.6901 105.826 62.6476 106.082Z" fill="white"/>
<path d="M48.6422 82.2018C48.8645 84.0149 48.9938 85.8224 49.0971 87.6287C49.1422 88.5318 49.1927 89.4344 49.2222 90.3365C49.2499 91.2388 49.2635 92.1407 49.2625 93.0427C49.2624 93.9445 49.2605 94.8465 49.2775 95.7476C49.2856 96.1984 49.2982 96.6486 49.315 97.0986C49.3295 97.5489 49.3463 97.9989 49.3684 98.4482C49.4518 100.245 49.5526 102.044 49.7691 103.809C49.8229 104.25 49.8852 104.688 49.9632 105.117C50.041 105.544 50.1319 105.971 50.2577 106.348L50.3051 106.487L50.358 106.612C50.3746 106.657 50.3933 106.691 50.4116 106.723C50.4293 106.752 50.4476 106.798 50.4624 106.809C50.47 106.819 50.4769 106.828 50.4834 106.839L50.4927 106.854L50.5123 106.873C50.539 106.898 50.5648 106.923 50.5901 106.949C50.6188 106.974 50.6539 106.997 50.6849 107.022L50.7325 107.06L50.7887 107.093C51.0837 107.279 51.4658 107.421 51.8669 107.524C52.6743 107.731 53.5522 107.818 54.4289 107.865C55.3083 107.912 56.1985 107.907 57.0888 107.878C57.9796 107.848 58.8722 107.79 59.7629 107.713L60.4305 107.65L60.597 107.633C60.6551 107.627 60.6816 107.622 60.7254 107.616C60.8043 107.601 60.8829 107.583 60.9585 107.556C61.2618 107.452 61.5275 107.25 61.6901 106.988C61.7126 106.957 61.7285 106.921 61.7483 106.888L61.8031 106.76C61.839 106.673 61.8794 106.588 61.914 106.5C61.9604 106.318 62.0268 106.141 62.0438 105.95C62.0829 105.765 62.0774 105.57 62.086 105.378L62.0676 105.086C62.0636 104.989 62.04 104.89 62.0278 104.792C61.9622 104.401 61.8456 104.009 61.6874 103.63C61.6072 103.44 61.5199 103.253 61.4215 103.072C61.3735 102.98 61.3221 102.891 61.2696 102.804C61.219 102.72 61.1576 102.625 61.1145 102.564L61.1023 102.546C61.0315 102.445 60.9973 102.33 60.9968 102.215C60.9928 101.422 60.9812 100.628 60.9835 99.8356L60.9974 98.6472L61.0232 97.4596C61.0647 95.877 61.076 94.2929 61.1874 92.7147C61.2485 91.9261 61.3193 91.1382 61.4197 90.3532C61.512 89.5675 61.617 88.7832 61.7387 88.0011C61.9829 86.4372 62.2603 84.8772 62.6537 83.3356C62.6904 84.9252 62.6672 86.5024 62.642 88.0784L62.6192 89.2593L62.5871 90.4386C62.57 91.2249 62.5404 92.0096 62.5034 92.7937C62.4245 94.3611 62.297 95.9257 62.2485 97.4933C62.2202 98.2769 62.2126 99.0603 62.2044 99.8436C62.2022 100.626 62.2137 101.409 62.2176 102.191L62.0999 101.843C62.187 101.966 62.2471 102.062 62.3138 102.171C62.3777 102.277 62.4395 102.384 62.4967 102.493C62.6141 102.709 62.7181 102.932 62.8141 103.159C63.0036 103.614 63.1488 104.093 63.2325 104.593C63.2492 104.719 63.2763 104.843 63.2832 104.971L63.3067 105.356C63.2993 105.615 63.3012 105.875 63.2508 106.134C63.2233 106.396 63.1385 106.648 63.0671 106.902C63.0201 107.025 62.9655 107.145 62.9137 107.267L62.8331 107.449C62.7968 107.514 62.7629 107.581 62.7211 107.642C62.4029 108.149 61.9052 108.523 61.3545 108.711C61.2167 108.759 61.0746 108.793 60.9314 108.819C60.8635 108.83 60.778 108.842 60.7237 108.847L60.5529 108.864L59.87 108.929C58.9593 109.008 58.0465 109.067 57.1297 109.098C56.2128 109.128 55.2927 109.133 54.3659 109.085C53.439 109.033 52.5065 108.946 51.5596 108.705C51.0871 108.581 50.6061 108.418 50.1327 108.123L50.0444 108.068L49.9573 108.003C49.8995 107.958 49.8414 107.916 49.7851 107.867L49.6206 107.707L49.5801 107.665L49.5392 107.613L49.4594 107.506C49.4008 107.43 49.3757 107.37 49.3368 107.302C49.2994 107.235 49.266 107.169 49.2423 107.108L49.1633 106.92L49.1008 106.739C48.9411 106.257 48.8467 105.796 48.7617 105.334C48.6779 104.873 48.6132 104.416 48.5573 103.959C48.1243 100.311 48.1023 96.6879 47.9498 93.0617C47.9243 92.1554 47.9197 91.2488 47.9391 90.3426C47.961 89.4363 48.0101 88.5304 48.0617 87.6249C48.1782 85.8144 48.3461 84.0049 48.6422 82.2018Z" fill="#650000"/>
<path d="M61.2055 102.538C60.6913 102.03 60.0172 101.708 59.2613 101.535C58.8833 101.455 58.4909 101.395 58.0898 101.377C57.6893 101.351 57.2811 101.352 56.8715 101.38C56.4607 101.401 56.0489 101.452 55.6368 101.516C55.2234 101.576 54.8136 101.666 54.4015 101.76C53.5799 101.959 52.7664 102.22 51.9556 102.551C52.6081 101.963 53.3749 101.5 54.1843 101.132C54.995 100.763 55.8579 100.499 56.753 100.345C57.2015 100.276 57.658 100.233 58.1209 100.23C58.5829 100.236 59.0531 100.267 59.519 100.372C59.9855 100.47 60.4491 100.637 60.8823 100.881C61.3114 101.129 61.7117 101.458 62.0087 101.867C62.1786 102.101 62.1265 102.429 61.8919 102.599C61.6812 102.752 61.395 102.726 61.2158 102.548L61.2055 102.538Z" fill="#650000"/>
<path d="M54.7019 108.236C54.7059 108.24 54.7313 108.203 54.7473 108.179C54.7659 108.154 54.7833 108.122 54.8017 108.093C54.8367 108.032 54.8727 107.969 54.904 107.902C54.9704 107.77 55.0261 107.627 55.0784 107.481C55.1809 107.189 55.2535 106.878 55.3062 106.56C55.3591 106.242 55.3823 105.915 55.3919 105.585C55.3971 105.419 55.3895 105.254 55.3888 105.087L55.3568 104.586L55.5177 105.065C55.5618 105.227 55.6133 105.39 55.6518 105.556C55.7301 105.887 55.7956 106.226 55.8292 106.573C55.8629 106.919 55.8752 107.274 55.8483 107.634C55.8335 107.814 55.8134 107.996 55.7764 108.18C55.7602 108.272 55.737 108.365 55.7122 108.459C55.6977 108.507 55.6865 108.553 55.6685 108.603C55.6502 108.655 55.6393 108.693 55.6027 108.769C55.4555 109.018 55.1346 109.1 54.8859 108.953C54.6371 108.806 54.5547 108.485 54.7019 108.236Z" fill="#650000"/>
<path d="M59.0286 108.236C59.0326 108.24 59.058 108.203 59.0741 108.179C59.0926 108.154 59.11 108.122 59.1285 108.093C59.1634 108.032 59.1995 107.969 59.2307 107.902C59.2972 107.77 59.3529 107.627 59.4052 107.481C59.5076 107.189 59.5802 106.878 59.6328 106.56C59.6858 106.242 59.7091 105.915 59.7186 105.585C59.7238 105.419 59.7162 105.254 59.7155 105.087L59.6836 104.586L59.8444 105.065C59.8886 105.227 59.9399 105.39 59.9786 105.556C60.0568 105.887 60.1223 106.226 60.1559 106.573C60.1897 106.919 60.2019 107.274 60.175 107.634C60.1601 107.814 60.1401 107.996 60.1031 108.18C60.0869 108.272 60.0637 108.365 60.0389 108.459C60.0244 108.507 60.0133 108.553 59.9952 108.603C59.9768 108.655 59.966 108.693 59.9293 108.769C59.7822 109.018 59.4613 109.1 59.2125 108.953C58.9639 108.806 58.8815 108.485 59.0286 108.236Z" fill="#650000"/>
<path d="M81.2438 100.8C81.1538 102.151 81.0393 103.384 80.8954 104.408C80.6926 105.849 80.4292 106.879 80.0891 107.262C78.5304 109.01 71.8689 108.492 69.4336 108.236C68.7548 108.164 68.1431 107.769 67.8324 107.162C67.5183 106.547 67.4137 105.917 67.4333 105.32C67.4349 105.176 67.4464 105.037 67.4644 104.9C67.6476 103.394 68.5193 102.203 68.5193 102.203C68.534 101.495 68.5389 100.777 68.5357 100.051C68.4997 92.0185 67.4726 83.3355 67.4726 83.3355L77.0748 82.5586L81.4842 82.2021C81.4842 82.2021 81.7393 93.3253 81.2438 100.8Z" fill="#FEB845"/>
<path d="M81.2438 100.8C81.2307 101.003 81.216 101.204 81.2012 101.402C81.1914 101.532 81.1816 101.662 81.1718 101.789C81.1391 102.192 81.1047 102.579 81.0671 102.952C81.0524 103.099 81.0377 103.246 81.0213 103.389C80.9821 103.747 80.9395 104.087 80.8954 104.408C80.8332 104.846 80.7662 105.248 80.6926 105.603C80.6828 105.647 80.6746 105.688 80.6648 105.731C80.5879 106.087 80.5045 106.395 80.4129 106.647C80.4047 106.671 80.3949 106.696 80.3851 106.72C80.3769 106.745 80.3671 106.768 80.3573 106.791C80.3491 106.814 80.3393 106.835 80.3295 106.858C80.2543 107.029 80.1741 107.165 80.0891 107.262C78.5304 109.01 71.8689 108.492 69.4336 108.236C68.9674 108.187 68.5324 107.985 68.2053 107.666C68.1447 107.608 68.0891 107.546 68.0368 107.481C67.9583 107.383 67.8896 107.276 67.8324 107.162C67.7588 107.018 67.6966 106.874 67.6459 106.73C67.5821 106.553 67.5347 106.375 67.5004 106.199C67.5004 106.195 67.5004 106.194 67.4987 106.19C67.1013 104.139 68.5193 102.203 68.5193 102.203C68.5324 101.495 68.5389 100.777 68.534 100.051C72.3383 98.3644 75.853 98.7929 78.218 99.5027C80.0924 100.062 81.2438 100.8 81.2438 100.8Z" fill="white"/>
<path d="M81.2437 100.8C81.2437 100.8 80.0923 100.062 78.218 99.5027C78.9589 97.7789 78.4911 94.57 78.5271 90.5302C78.5336 90.3438 78.5369 90.1606 78.5385 89.9791V89.9529C78.5712 86.8437 77.9988 84.4297 77.0747 82.5587L81.4841 82.2021C81.4841 82.2021 81.7392 93.3253 81.2437 100.8Z" fill="#F48D40"/>
<path d="M67.4722 83.3356C67.8791 84.8756 68.1617 86.4355 68.4055 87.9996C68.6414 89.5645 68.8422 91.1356 68.942 92.7144C69.0452 94.2932 69.0571 95.8771 69.1019 97.4595L69.1286 98.6471L69.1424 99.8356C69.1447 100.628 69.1332 101.422 69.1291 102.215C69.1285 102.337 69.0905 102.45 69.0259 102.543L69.0114 102.564L69.0113 102.564C68.9679 102.626 68.9067 102.72 68.8561 102.804C68.8035 102.892 68.7522 102.98 68.7042 103.072C68.6058 103.253 68.5185 103.441 68.4383 103.63C68.2802 104.009 68.1636 104.401 68.098 104.793C68.0859 104.891 68.0622 104.989 68.0582 105.086L68.0399 105.379C68.0484 105.571 68.043 105.765 68.0822 105.951C68.0991 106.142 68.1657 106.318 68.212 106.501C68.2466 106.588 68.287 106.673 68.323 106.76L68.3777 106.889C68.3975 106.922 68.4134 106.957 68.4359 106.988C68.5986 107.25 68.8642 107.452 69.1677 107.556C69.2432 107.583 69.3219 107.601 69.4007 107.616C69.4446 107.622 69.4709 107.627 69.5292 107.633L69.6958 107.65L70.3633 107.712C71.2541 107.791 72.1466 107.848 73.0374 107.878C73.9278 107.907 74.8178 107.911 75.6973 107.865C76.574 107.818 77.4519 107.731 78.2593 107.524C78.6603 107.421 79.0424 107.278 79.3373 107.093L79.3935 107.06L79.4411 107.022C79.4721 106.997 79.5072 106.974 79.5358 106.949C79.5612 106.923 79.587 106.897 79.6137 106.872L79.6332 106.854L79.6426 106.839C79.6491 106.828 79.656 106.819 79.6635 106.809C79.6784 106.798 79.6967 106.752 79.7143 106.722C79.7327 106.691 79.7513 106.657 79.768 106.612L79.8208 106.487L79.8683 106.348C79.994 105.971 80.085 105.544 80.1627 105.117C80.2407 104.688 80.303 104.25 80.3568 103.809C80.5732 102.044 80.6741 100.244 80.7574 98.4479C80.7997 97.5493 80.8299 96.6485 80.8466 95.7474C80.8631 94.8463 80.8577 93.9442 80.8625 93.0425C80.8573 91.2387 80.9517 89.4349 81.0489 87.6286C81.1532 85.8221 81.2766 84.0146 81.4837 82.2017C81.7646 84.0052 81.9265 85.8145 82.044 87.6249C82.1531 89.4355 82.2353 91.2488 82.177 93.0616C82.1518 93.9681 82.1146 94.8742 82.0796 95.7809L82.0311 97.1412C82.0164 97.5947 81.9996 98.0483 81.9772 98.5023C81.8927 100.318 81.7921 102.133 81.5686 103.959C81.5127 104.416 81.448 104.873 81.3642 105.334C81.2792 105.796 81.1847 106.257 81.0251 106.738L80.9627 106.92L80.8837 107.108C80.8698 107.139 80.8583 107.169 80.8423 107.202L80.7892 107.301C80.7502 107.369 80.7253 107.429 80.6668 107.505L80.587 107.612L80.546 107.665L80.5055 107.706L80.341 107.867C80.2848 107.916 80.2266 107.958 80.1689 108.003L80.0817 108.068L79.9934 108.123C79.5201 108.418 79.039 108.581 78.5666 108.705C77.6196 108.946 76.6872 109.033 75.7603 109.085C74.8334 109.133 73.9133 109.128 72.9965 109.098C72.0797 109.067 71.1669 109.008 70.2562 108.929L69.5733 108.864L69.4025 108.847C69.3484 108.842 69.2628 108.83 69.1949 108.819C69.0517 108.793 68.9096 108.759 68.7719 108.711C68.221 108.523 67.7234 108.15 67.405 107.643C67.3632 107.581 67.3294 107.514 67.293 107.449C67.2638 107.387 67.2391 107.328 67.2123 107.267C67.1606 107.146 67.106 107.025 67.0589 106.902C66.9876 106.648 66.9027 106.396 66.8752 106.135C66.8248 105.876 66.8266 105.615 66.8191 105.356L66.8427 104.972C66.8495 104.843 66.8766 104.72 66.8933 104.594C66.977 104.094 67.1221 103.614 67.3116 103.159C67.4076 102.932 67.5116 102.71 67.6289 102.493C67.6861 102.385 67.7479 102.278 67.8118 102.171C67.8785 102.062 67.9387 101.966 68.0256 101.843L68.026 101.842L67.9083 102.191C67.9121 101.408 67.9237 100.626 67.9214 99.8435L67.9077 98.6685L67.8783 97.4932C67.833 95.9256 67.7062 94.3607 67.6189 92.7938C67.5279 91.227 67.498 89.6549 67.4657 88.0799C67.4402 86.5042 67.4224 84.9266 67.4722 83.3356Z" fill="#650000"/>
<path d="M68.1173 101.867C68.4142 101.458 68.8145 101.129 69.2437 100.881C69.6768 100.637 70.1404 100.47 70.6069 100.372C71.0728 100.267 71.543 100.236 72.005 100.23C72.4679 100.233 72.9244 100.276 73.3729 100.345C74.268 100.499 75.1309 100.763 75.9415 101.132C76.751 101.5 77.5178 101.963 78.1703 102.551C77.3595 102.22 76.5459 101.959 75.7244 101.76C75.3123 101.666 74.9025 101.576 74.4891 101.516C74.077 101.452 73.6653 101.401 73.2545 101.38C72.8448 101.352 72.4366 101.351 72.0361 101.377C71.635 101.395 71.2426 101.455 70.8646 101.535C70.1087 101.708 69.4346 102.03 68.9205 102.538L68.9102 102.548C68.7042 102.752 68.3721 102.749 68.1687 102.543C67.9857 102.358 67.969 102.071 68.1173 101.867Z" fill="#650000"/>
<path d="M74.5234 108.769C74.4867 108.693 74.4759 108.655 74.4576 108.603C74.4395 108.553 74.4283 108.507 74.4138 108.459C74.3891 108.365 74.3658 108.272 74.3496 108.18C74.3126 107.996 74.2925 107.814 74.2777 107.634C74.2509 107.274 74.2631 106.919 74.2968 106.573C74.3304 106.226 74.3959 105.887 74.4742 105.556C74.5128 105.39 74.5642 105.227 74.6083 105.065L74.7692 104.586L74.7373 105.087C74.7365 105.254 74.7288 105.419 74.7341 105.585C74.7437 105.915 74.7668 106.242 74.8199 106.56C74.8725 106.878 74.9452 107.189 75.0475 107.481C75.0999 107.627 75.1556 107.77 75.2219 107.902C75.2533 107.969 75.2893 108.032 75.3243 108.093C75.3427 108.122 75.3601 108.154 75.3787 108.179C75.3947 108.203 75.4201 108.24 75.4241 108.236C75.5712 108.485 75.4888 108.806 75.2401 108.953C74.9914 109.1 74.6705 109.018 74.5234 108.769Z" fill="#650000"/>
<path d="M70.1966 108.769C70.1599 108.693 70.1492 108.655 70.1308 108.603C70.1127 108.553 70.1016 108.507 70.0871 108.459C70.0623 108.365 70.0391 108.272 70.0228 108.18C69.9858 107.996 69.9658 107.814 69.9509 107.634C69.9241 107.274 69.9363 106.919 69.97 106.573C70.0037 106.226 70.0691 105.887 70.1474 105.556C70.1861 105.39 70.2374 105.227 70.2816 105.065L70.4424 104.586L70.4106 105.087C70.4098 105.254 70.4021 105.419 70.4073 105.585C70.4169 105.915 70.4402 106.242 70.4931 106.56C70.5458 106.878 70.6184 107.189 70.7208 107.481C70.7731 107.627 70.8289 107.77 70.8952 107.902C70.9265 107.969 70.9625 108.032 70.9975 108.093C71.0159 108.122 71.0333 108.154 71.0519 108.179C71.068 108.203 71.0934 108.24 71.0973 108.236C71.2444 108.485 71.162 108.806 70.9133 108.953C70.6646 109.1 70.3437 109.018 70.1966 108.769Z" fill="#650000"/>
<g opacity="0.3">
<path d="M45.3061 105.508C45.1769 105.623 45.0428 105.729 44.9038 105.829C44.7648 105.929 44.6208 106.022 44.4753 106.107C44.4017 106.15 44.3264 106.19 44.2512 106.23C44.1007 106.308 43.9454 106.378 43.7883 106.442C43.6297 106.506 43.4678 106.563 43.3042 106.612C42.1561 106.957 40.8656 106.956 39.567 106.617C39.4869 106.596 39.4084 106.575 39.3283 106.552C39.3135 106.549 39.2988 106.544 39.2841 106.539C39.1009 106.483 38.9177 106.423 38.7346 106.354C38.5498 106.285 38.3649 106.21 38.1818 106.128C38.0984 106.091 38.0133 106.051 37.9299 106.012C37.9234 106.007 37.9152 106.004 37.907 106.001C37.7254 105.912 37.5439 105.816 37.364 105.714C37.274 105.662 37.1841 105.61 37.0941 105.556C37.0058 105.502 36.9158 105.445 36.8275 105.387C36.6509 105.271 36.4759 105.15 36.3025 105.021C36.2943 105.015 36.2862 105.008 36.278 105.003C36.1995 104.944 36.1226 104.884 36.0457 104.823C35.874 104.687 35.7055 104.545 35.5404 104.396C35.2918 104.174 35.0513 103.935 34.8158 103.683C34.7373 103.6 34.6604 103.513 34.5836 103.426C34.4315 103.251 34.2826 103.07 34.1371 102.882C34.0651 102.789 33.9931 102.692 33.9228 102.596C33.8509 102.499 33.7822 102.399 33.7135 102.299C33.5761 102.098 33.4436 101.892 33.316 101.678C39.0845 105.281 43.6542 106.302 42.8348 95.7263L43.6706 97.3634C44.647 99.4602 45.7902 102.682 45.3061 105.508Z" fill="#650000"/>
</g>
<g opacity="0.3">
<path d="M68.5357 100.8L67.9567 102.569C66.977 102.931 65.9188 103.127 64.8148 103.127C63.7893 103.127 62.8031 102.957 61.8839 102.645C61.8627 102.602 61.8398 102.565 61.8169 102.529C61.7809 102.466 61.7466 102.412 61.7171 102.367C61.6975 102.336 61.6811 102.309 61.6664 102.288C61.6288 102.232 61.6075 102.203 61.6075 102.203C61.5928 101.495 61.5879 100.777 61.5912 100.051C61.5961 98.7619 61.6288 97.4568 61.6762 96.1745C62.4073 101.544 68.4817 101.189 68.5193 95.3649L68.5357 100.8Z" fill="#650000"/>
</g>
<g opacity="0.3">
<path d="M62.6478 106.082C62.6249 106.226 62.5922 106.372 62.5497 106.518C62.5399 106.553 62.5284 106.588 62.517 106.624C62.4597 106.804 62.3861 106.984 62.2945 107.162C61.9838 107.769 61.3721 108.165 60.6933 108.236C58.2581 108.492 51.5965 109.01 50.0379 107.262C49.9463 107.16 49.8612 107.01 49.7795 106.818C49.7664 106.786 49.7533 106.755 49.7402 106.72C49.732 106.699 49.7239 106.676 49.7157 106.653C49.6993 106.607 49.683 106.56 49.6666 106.511C49.5636 106.199 49.4703 105.813 49.3869 105.364C49.364 105.25 49.3428 105.132 49.3231 105.01V105.005C49.3101 104.931 49.297 104.857 49.2855 104.781H49.2871C49.5178 104.799 49.6682 104.82 49.6682 104.82C55.669 107.877 58.8845 106.913 59.6548 104.849C60.1471 103.541 59.6532 101.789 58.2662 100.343C58.2662 100.343 58.3186 99.9329 58.3971 99.0775C59.4242 99.2541 60.4955 99.5649 61.5913 100.051C61.588 100.777 61.5929 101.495 61.6076 102.203C61.6076 102.203 62.4892 103.408 62.6674 104.926H62.6658C62.6805 105.055 62.6903 105.186 62.6952 105.319C62.7034 105.569 62.6887 105.824 62.6478 106.082Z" fill="#650000"/>
</g>
<g opacity="0.3">
<path d="M97.7626 96.2775C97.7397 96.4525 97.7102 96.6275 97.6759 96.8057C97.599 97.2244 97.4943 97.653 97.357 98.0864C97.3406 98.1469 97.321 98.2074 97.3013 98.2663C97.0789 98.9483 96.7862 99.6434 96.4182 100.342C93.5854 106.612 86.9468 108.508 83.6234 105.414C83.6234 105.412 83.6217 105.412 83.6217 105.412C82.7991 102.942 84.2252 99.4275 85.362 97.2114C83.8949 103.642 94.2266 105.572 97.8411 94.6861C97.8623 95.1931 97.8362 95.7263 97.7626 96.2775Z" fill="#650000"/>
</g>
<g opacity="0.3">
<path d="M81.2437 100.8C81.2306 101.003 81.2159 101.204 81.2011 101.402C81.1913 101.532 81.1815 101.662 81.1717 101.789C81.139 102.192 81.1046 102.579 81.067 102.952C81.0523 103.099 81.0376 103.246 81.0212 103.389C80.982 103.747 80.9395 104.087 80.8953 104.408C80.8331 104.846 80.7661 105.248 80.6925 105.603C80.6827 105.647 80.6745 105.688 80.6647 105.731C80.5878 106.087 80.5044 106.395 80.4128 106.647C80.4046 106.671 80.3948 106.696 80.385 106.72C80.3768 106.745 80.367 106.768 80.3572 106.791C80.349 106.814 80.3392 106.835 80.3294 106.858C80.2542 107.029 80.174 107.165 80.089 107.262C78.5303 109.01 71.8688 108.492 69.4335 108.237C68.9673 108.187 68.5323 107.985 68.2052 107.666C68.1446 107.608 68.0891 107.546 68.0367 107.481C67.9598 107.383 67.8911 107.276 67.8323 107.162C67.7587 107.018 67.6965 106.874 67.6458 106.73C67.5821 106.552 67.5346 106.375 67.5003 106.199C67.5003 106.195 67.5003 106.194 67.4986 106.19C67.443 105.896 67.4234 105.605 67.4332 105.32C67.4888 105.167 67.5444 105.024 67.5984 104.895C67.7914 104.421 67.9435 104.121 67.9435 104.121C67.8879 104.416 67.9516 104.669 68.1103 104.882C69.2028 106.388 74.9534 105.945 76.9634 104.601C77.3658 104.332 77.6193 104.028 77.6536 103.695C77.8761 101.565 75.04 100.862 74.7833 100.803C76.7492 101.115 77.7387 100.621 78.2179 99.5027C80.0923 100.062 81.2437 100.8 81.2437 100.8Z" fill="#650000"/>
</g>
<path d="M74.7713 100.889C74.7526 100.886 74.7419 100.883 74.7419 100.883L74.785 100.714L74.7845 100.72L74.7713 100.889Z" fill="#4D146E"/>
<path d="M96.5497 52.3752L94.5735 50.6763C94.5735 50.6763 96.5497 56.3207 93.8182 63.7668L91.9571 62.7831C91.9571 62.7831 91.8403 68.4798 84.9801 72.9573L84.108 70.1089C84.108 70.1089 82.13 74.5847 74.6018 77.1435V73.9463C71.9697 76.3254 68.8754 78.1342 65.3573 79.411C61.8374 78.1342 58.7449 76.3254 56.1128 73.9463V77.1435C48.5847 74.5847 46.6067 70.1089 46.6067 70.1089L45.7345 72.9573C38.8727 68.4798 38.7575 62.7831 38.7575 62.7831L36.8964 63.7668C34.1632 56.3207 36.1412 50.6763 36.1412 50.6763L34.1632 52.3752C31.3445 42.0283 41.9007 20.5305 56.7669 22.0689C55.7866 19.3409 60.2117 18.2316 65.3573 23.1591C70.5028 18.2316 74.9262 19.3409 73.9477 22.0689C88.814 20.5305 99.3702 42.0283 96.5497 52.3752Z" fill="#B1411E"/>
<path d="M87.6043 60.305C86.0188 66.1116 79.2372 70.31 67.0031 70.1024H66.9943C54.7602 70.31 47.9786 66.1116 46.3913 60.305C44.9383 54.985 46.8221 52.1384 47.9036 46.2184C49.9967 34.757 60.8057 31.0906 66.9996 38.467C73.1916 31.0906 84.0007 34.757 86.0938 46.2184C87.1735 52.1384 89.0591 54.985 87.6043 60.305Z" fill="#993419"/>
<path d="M96.5497 52.3752L94.5734 50.6763C94.5734 50.6763 96.5497 56.3207 93.8182 63.7668L91.9571 62.7831C91.9571 62.7831 91.8402 68.4798 84.9801 72.9573L84.1079 70.1089C84.1079 70.1089 82.1299 74.5847 74.6018 77.1435V73.9463C71.9697 76.3254 68.8754 78.1342 65.3573 79.411C61.8374 78.1342 58.7449 76.3254 56.1128 73.9463V77.1435C51.6056 75.612 49.0869 73.3916 47.7927 71.8567C49.2178 72.8823 51.1643 73.9428 53.7825 74.7853V71.7608C56.4145 74.0126 59.5071 75.7237 63.027 76.9307C66.5451 75.7237 69.6394 74.0126 72.2715 71.7608V74.7853C79.7997 72.3643 81.7776 68.1293 81.7776 68.1293L82.6498 70.8258C89.5099 66.5891 89.6267 61.1976 89.6267 61.1976L91.4879 62.129C94.2193 55.084 92.2431 49.7431 92.2431 49.7431L94.2193 51.3496C97.0398 41.5608 87.2249 21.1654 72.3587 22.6201C72.9325 21.1061 71.3941 20.1398 68.987 20.5374C72.3674 18.8822 74.6837 20.0194 73.9477 22.0689C88.8139 20.5305 99.3701 42.0283 96.5497 52.3752Z" fill="#993419"/>
<g opacity="0.6">
<path d="M37.7493 63.3151L36.8964 63.7668C35.1835 59.0993 35.3213 55.1398 35.6615 52.8357L37.308 51.4315C37.308 51.4315 35.5201 56.4951 37.7493 63.3151Z" fill="#F1F2F2"/>
</g>
<g opacity="0.6">
<path d="M45.8618 72.5404L45.7345 72.9573C40.5854 69.5961 39.2354 65.5495 38.8831 63.7407L39.8738 63.2209C39.8738 63.2209 39.9767 68.2862 45.8618 72.5404Z" fill="#F1F2F2"/>
</g>
<g opacity="0.6">
<path d="M74.0297 21.7933C72.8262 20.7817 69.5766 21.2055 65.9643 24.6382C60.9164 19.8415 56.5768 20.9212 57.5378 23.5777C43.6432 22.1492 33.5858 41.0952 35.0667 51.599L34.1632 52.3752C31.3445 42.0283 41.9007 20.5305 56.7669 22.0689C55.7866 19.3409 60.2117 18.2316 65.3573 23.1591C70.3267 18.4008 74.621 19.2711 74.0297 21.7933Z" fill="#F1F2F2"/>
</g>
<g opacity="0.6">
<path d="M74.2615 22.0392C74.1568 22.0479 74.0522 22.0584 73.9475 22.0689C73.9806 21.9747 74.0086 21.884 74.0295 21.7933C74.1184 21.8683 74.1952 21.9503 74.2615 22.0392Z" fill="#F1F2F2"/>
</g>
<path d="M65.3573 80.0215C65.2868 80.0215 65.2164 80.0093 65.1491 79.9849C61.9826 78.8364 59.1544 77.2546 56.7232 75.2743V77.1435C56.7232 77.3404 56.6283 77.5252 56.4683 77.6399C56.3082 77.7547 56.1027 77.785 55.9162 77.7215C50.5802 75.9077 47.9398 73.159 46.7945 71.5806L46.3183 73.136C46.2619 73.3195 46.1229 73.4659 45.9424 73.5312C45.7625 73.5969 45.5614 73.5733 45.4009 73.4686C39.943 69.9072 38.5914 65.6115 38.2569 63.7382L37.1818 64.3066C37.026 64.389 36.8424 64.4003 36.6778 64.3368C36.5133 64.2738 36.3841 64.1427 36.3233 63.9773C34.4623 58.9076 34.7176 54.6756 35.1136 52.3636L34.5609 52.8383C34.4019 52.9748 34.184 53.0201 33.9841 52.9588C33.7839 52.8974 33.6291 52.7376 33.5741 52.5356C32.732 49.4446 33.0089 45.3389 34.3537 40.9747C35.7019 36.5986 38.0115 32.3433 40.8568 28.9923C45.2593 23.8076 50.6147 21.1362 56.0195 21.3999C55.9995 20.6576 56.328 20.0161 56.9689 19.5999C58.5033 18.6034 61.7458 19.0611 65.3573 22.3252C68.9684 19.0615 72.2098 18.6038 73.7444 19.5996C74.3855 20.0157 74.7143 20.6574 74.6948 21.3999C80.1 21.1321 85.4562 23.8078 89.8589 28.9938C92.7039 32.3448 95.0129 36.6 96.3607 40.9756C97.705 45.3395 97.9812 49.445 97.1387 52.5356C97.0837 52.7377 96.9288 52.8974 96.7286 52.9588C96.5284 53.0202 96.3108 52.9747 96.1518 52.8381L95.6008 52.3644C95.9963 54.6764 96.2508 58.908 94.3913 63.9771C94.3305 64.1425 94.2014 64.2738 94.0368 64.3368C93.8726 64.4003 93.6887 64.389 93.5328 64.3066L92.4575 63.738C92.1226 65.6113 90.7702 69.9072 85.3138 73.4684C85.1533 73.5732 84.9524 73.5969 84.7721 73.5311C84.5916 73.4658 84.4526 73.3195 84.3963 73.1359L83.9202 71.5808C82.7748 73.159 80.1345 75.9077 74.7984 77.7215C74.6124 77.785 74.4067 77.7546 74.2463 77.6399C74.0863 77.5251 73.9913 77.3403 73.9913 77.1435V75.2742C71.5611 77.2537 68.7329 78.8356 65.5656 79.9848C65.4982 80.0093 65.4278 80.0215 65.3573 80.0215ZM56.1126 73.3357C56.261 73.3357 56.4077 73.3898 56.5221 73.4933C59.0015 75.7345 61.9728 77.5059 65.3573 78.7607C68.7427 77.505 71.7141 75.7336 74.1924 73.4933C74.3714 73.3314 74.6288 73.2905 74.8496 73.3882C75.0701 73.4862 75.2123 73.7048 75.2123 73.9462V76.2756C81.7023 73.8148 83.5321 69.9009 83.5506 69.86C83.6551 69.6284 83.8923 69.4854 84.1462 69.5007C84.3998 69.5169 84.6173 69.6872 84.6918 69.9302L85.3211 71.9857C91.1416 67.8359 91.3453 62.8205 91.3466 62.7685C91.3524 62.5575 91.4667 62.3634 91.6491 62.2569C91.8311 62.1503 92.0554 62.1445 92.2423 62.2433L93.4764 62.8958C95.7482 56.088 94.0152 50.9301 93.9969 50.8772C93.9066 50.6165 94.0021 50.3271 94.2302 50.1719C94.4585 50.0167 94.7621 50.0335 94.9713 50.2133L96.1776 51.2502C97.2703 45.1966 94.2189 36.0161 88.9281 29.784C84.5742 24.6555 79.2762 22.1321 74.0105 22.6761C73.8026 22.6984 73.5967 22.6106 73.4672 22.4455C73.3378 22.2803 73.3022 22.0603 73.373 21.8628C73.5755 21.2984 73.4768 20.8815 73.0796 20.6238C72.1131 19.9967 69.2774 20.2502 65.7794 23.6C65.5435 23.8261 65.1709 23.8261 64.935 23.6C61.4362 20.2494 58.6 19.9967 57.634 20.624C57.2371 20.8817 57.1387 21.2983 57.3413 21.8624C57.4123 22.06 57.3769 22.2802 57.2475 22.4453C57.1179 22.6107 56.9126 22.6985 56.704 22.6761C51.4391 22.1316 46.1416 24.6551 41.7876 29.7826C36.4956 36.0149 33.4429 45.196 34.5354 51.2505L35.7433 50.2132C35.9528 50.0331 36.2571 50.0162 36.4853 50.1721C36.7135 50.3279 36.8085 50.6174 36.7173 50.8782C36.6991 50.9303 34.965 56.0883 37.2379 62.8958L38.4722 62.2433C38.6596 62.1444 38.8848 62.1494 39.0673 62.2569C39.2498 62.3644 39.3636 62.5588 39.3679 62.7706C39.3693 62.8208 39.5717 67.8361 45.3934 71.9859L46.0228 69.9302C46.0976 69.6864 46.3158 69.5147 46.5703 69.4995C46.8259 69.4842 47.062 69.629 47.165 69.8622C47.1825 69.9009 49.0123 73.8148 55.5022 76.2756V73.9462C55.5022 73.7048 55.6444 73.4861 55.8649 73.3882C55.9444 73.3529 56.0288 73.3357 56.1126 73.3357Z" fill="#650000"/>
<path d="M85.4715 61.1836C83.886 66.9902 77.1044 71.1886 64.8702 70.9811H64.8615C52.6274 71.1886 45.8457 66.9902 44.2585 61.1836C42.8055 55.8637 44.6893 53.0171 45.7707 47.0971C47.8638 35.6357 58.6729 31.9692 64.8668 39.3457C71.0588 31.9692 81.8679 35.6356 83.961 47.0971C85.0407 53.0171 86.9262 55.8637 85.4715 61.1836Z" fill="#FEB845"/>
<g opacity="0.6">
<path d="M64.5776 39.0143C58.2791 33.3716 48.6491 37.263 46.6868 48.0128C45.6054 53.9328 43.7216 56.7794 45.1746 62.0993C45.5845 63.5959 46.338 64.9878 47.4421 66.2227C45.8304 64.7733 44.7717 63.0639 44.2589 61.1836C42.8059 55.8637 44.6897 53.0171 45.7711 47.0971C47.8328 35.8118 58.3436 32.0826 64.5776 39.0143Z" fill="#F1F2F2"/>
</g>
<g opacity="0.6">
<path d="M80.2759 39.1817C75.999 35.3339 69.8802 35.381 65.7829 40.2614C65.4969 39.9212 65.2021 39.6038 64.8969 39.3107C69.2976 34.1059 76.006 34.4496 80.2759 39.1817Z" fill="#F1F2F2"/>
</g>
<path d="M85.4719 61.1836C83.8864 66.9902 77.1047 71.1886 64.8706 70.9811H64.8619C52.933 71.1834 46.188 67.196 44.3879 61.6145C46.6049 66.3396 52.7498 69.5909 62.999 69.4112H63.0077C74.4151 69.6118 80.7397 65.5599 82.2189 59.9574C83.5741 54.8241 81.816 52.0787 80.8096 46.3663C79.7543 40.387 76.3233 36.6072 72.4825 35.5206C77.5496 35.4839 82.5991 39.6405 83.9614 47.0971C85.0411 53.0171 86.9266 55.8637 85.4719 61.1836Z" fill="#F48D40"/>
<path d="M67.8218 67.3858C65.9087 68.0358 63.825 68.0358 61.9118 67.3861C54.4797 64.862 52.428 57.11 57.1031 54.2555C57.581 53.9624 58.038 53.638 58.4584 53.2647C59.6877 52.1753 61.078 51.3808 62.6713 50.9611C64.1135 50.5811 65.6206 50.5811 67.0627 50.9614C68.6546 51.3812 70.0432 52.1756 71.2734 53.2647C71.692 53.638 72.1507 53.9624 72.6287 54.2555C77.3021 57.1083 75.2518 64.8612 67.8218 67.3858Z" fill="white"/>
<g opacity="0.3">
<path d="M71.668 57.4044C69.2741 58.8774 66.4038 58.5673 66.6073 55.7474H63.3514C63.7293 58.3928 61.0191 59.674 58.4675 58.0235C58.4675 58.0235 58.4385 61.329 62.2758 63.1895C66.1131 65.05 71.2052 62.2302 71.668 57.4044Z" fill="#650000"/>
</g>
<path d="M67.9946 55.1677C67.615 55.79 66.9 56.6066 65.5927 57.1329C65.1269 57.3204 64.6042 57.3204 64.1384 57.1328C62.832 56.6064 62.1161 55.7899 61.738 55.1677C61.4223 54.6479 61.6543 53.9799 62.2247 53.7706C63.3881 53.3397 64.8655 53.3642 64.8655 53.3642C64.8655 53.3642 66.3446 53.3397 67.508 53.7706C68.0766 53.9799 68.3086 54.6479 67.9946 55.1677Z" fill="#650000"/>
<path d="M68.4167 60.3481C68.4079 64.7558 61.3908 64.7576 61.3734 60.3551C62.4322 60.4562 63.5956 59.9086 64.8654 58.712C66.1596 59.9312 67.3422 60.4772 68.4167 60.3481Z" fill="#F42F2F"/>
<path d="M67.5683 62.5389C66.77 60.4569 63.2622 60.5441 62.0868 62.5389L61.4937 60.8493L65.0257 59.1923L68.1353 60.7621L67.8383 61.8522" fill="#650000"/>
<path d="M64.8958 64.2659C62.8488 64.2659 60.7732 62.9242 60.7629 60.3576C60.7623 60.1851 60.8345 60.0204 60.9619 59.9042C61.0892 59.788 61.2588 59.7307 61.4316 59.7474C62.3007 59.8312 63.3165 59.3328 64.4467 58.2677C64.682 58.0462 65.0489 58.0462 65.2839 58.2676C66.4346 59.3517 67.4643 59.8481 68.3438 59.7419C68.5168 59.721 68.6914 59.7756 68.8222 59.8918C68.9528 60.0079 69.0274 60.1745 69.0271 60.3493C69.0221 62.9179 66.9473 64.2639 64.9005 64.2659C64.899 64.2659 64.8973 64.2659 64.8958 64.2659ZM62.0433 60.9501C62.3355 62.3851 63.6581 63.0449 64.8958 63.0449C64.897 63.0449 64.898 63.0449 64.8993 63.0449C66.1749 63.0437 67.4621 62.392 67.7478 60.9569C66.831 60.8568 65.8659 60.3796 64.8654 59.5312C63.8875 60.3607 62.9423 60.8356 62.0433 60.9501Z" fill="#650000"/>
<path d="M61.3156 60.9629C60.8339 60.8709 60.3888 60.6667 60.0197 60.4015C59.6495 60.135 59.3518 59.8125 59.0984 59.4762C58.5929 58.7996 58.2625 58.0571 57.9844 57.3116C57.9675 57.2663 57.9906 57.2158 58.0359 57.1989C58.0752 57.1842 58.1182 57.1995 58.1401 57.2332L58.1408 57.2344C58.5678 57.8921 59.0445 58.5207 59.6102 59.0021C59.8915 59.2412 60.1924 59.4431 60.5032 59.5729C60.8144 59.7022 61.1289 59.7593 61.4308 59.7473C61.7707 59.7339 62.0571 59.9985 62.0705 60.3383C62.0839 60.6781 61.8193 60.9645 61.4795 60.978C61.4327 60.9798 61.3871 60.9764 61.3429 60.9683L61.3156 60.9629Z" fill="#650000"/>
<path d="M71.7461 57.3116C71.4727 58.0482 71.1482 58.7819 70.6539 59.4529C70.4062 59.7866 70.116 60.1072 69.7551 60.3753C69.3954 60.642 68.9615 60.8522 68.4881 60.9545L68.4637 60.9597C68.1312 61.0316 67.8034 60.8202 67.7316 60.4877C67.6597 60.1552 67.871 59.8275 68.2035 59.7556C68.25 59.7456 68.2996 59.7413 68.3451 59.7418C68.6434 59.7474 68.9539 59.6853 69.2603 59.5534C69.5664 59.421 69.8625 59.2192 70.1394 58.9817C70.6965 58.5038 71.1672 57.8834 71.5897 57.2344L71.5904 57.2333C71.6168 57.1927 71.6712 57.1812 71.7117 57.2077C71.7467 57.2305 71.76 57.274 71.7461 57.3116Z" fill="#650000"/>
<path d="M64.8655 59.3226C64.5283 59.3226 64.255 59.0492 64.255 58.7121V56.8448C64.255 56.5077 64.5283 56.2343 64.8655 56.2343C65.2027 56.2343 65.476 56.5077 65.476 56.8448V58.7121C65.476 59.0492 65.2027 59.3226 64.8655 59.3226Z" fill="#650000"/>
<path d="M58.4358 50.6309C58.139 50.2098 57.863 49.8167 57.5576 49.4707C57.2551 49.1243 56.9337 48.8233 56.5902 48.585C55.9065 48.1037 55.1477 47.8736 54.3812 47.884C53.6141 47.8987 52.8435 48.1594 52.1447 48.6341C51.7936 48.8703 51.4623 49.1618 51.1482 49.4976C50.8311 49.8329 50.5427 50.2155 50.2379 50.6309C50.1988 49.6098 50.5774 48.5463 51.318 47.7175C52.0522 46.8907 53.174 46.3284 54.3544 46.3147C54.9414 46.3048 55.5312 46.4305 56.0627 46.6687C56.5941 46.908 57.0643 47.2624 57.4299 47.686C58.1651 48.5391 58.4896 49.6151 58.4358 50.6309Z" fill="#650000"/>
<path d="M71.2952 50.6309C71.2414 49.6151 71.5659 48.5391 72.301 47.6861C72.6666 47.2625 73.1368 46.908 73.6682 46.6687C74.1997 46.4305 74.7896 46.3048 75.3767 46.3147C76.5569 46.3284 77.6787 46.8907 78.413 47.7175C79.1536 48.5463 79.5322 49.6098 79.4931 50.6309C79.1884 50.2155 78.8998 49.8329 78.5828 49.4977C78.2687 49.1618 77.9373 48.8703 77.5863 48.6341C76.8874 48.1595 76.1169 47.8988 75.3497 47.8841C74.5833 47.8736 73.8245 48.1037 73.1407 48.5851C72.7972 48.8233 72.4759 49.1243 72.1734 49.4707C71.8679 49.8167 71.592 50.2098 71.2952 50.6309Z" fill="#650000"/>
<path d="M65.7446 71.5991C65.452 71.5991 65.1578 71.5965 64.8598 71.5915C58.9143 71.6929 54.0061 70.7808 50.2896 68.8812C46.8221 67.109 44.5329 64.5028 43.6696 61.3446C42.5908 57.3945 43.2781 54.7547 44.1483 51.4126C44.4837 50.1245 44.8639 48.6644 45.1701 46.9873C46.2637 40.9992 49.8846 36.5001 54.6201 35.2459C58.304 34.2702 62.0859 35.4573 64.8668 38.4258C67.647 35.4575 71.4286 34.2704 75.111 35.2456C79.8467 36.4995 83.4679 40.9987 84.5617 46.9873C84.8678 48.6659 85.248 50.1268 85.5835 51.4158C86.4533 54.7569 87.1402 57.3958 86.0604 61.3446C85.1981 64.5028 82.9094 67.1089 79.442 68.8812C75.9114 70.6859 71.306 71.5991 65.7446 71.5991ZM57.2119 36.1242C56.4597 36.1242 55.6969 36.2237 54.9327 36.4261C50.6595 37.5579 47.379 41.6888 46.3713 47.2067C46.0568 48.9283 45.6706 50.4116 45.3299 51.7203C44.4733 55.01 43.8544 57.387 44.8474 61.0228C45.6177 63.8408 47.6917 66.1823 50.8452 67.794C54.3816 69.6016 59.0984 70.467 64.8511 70.3708C64.8546 70.3706 64.8667 70.3706 64.8702 70.3706C70.6392 70.4702 75.35 69.6014 78.8863 67.794C82.0397 66.1824 84.113 63.8409 84.8825 61.0228C84.8827 61.0227 84.8827 61.0226 84.8827 61.0225C85.8765 57.388 85.2581 55.012 84.402 51.7234C84.0612 50.4138 83.6747 48.9296 83.3605 47.2066C82.3526 41.6884 79.0718 37.5574 74.7985 36.4259C71.3238 35.5054 67.874 36.713 65.3343 39.7382C65.2184 39.8763 65.0473 39.9562 64.8668 39.9562C64.6865 39.9562 64.5153 39.8763 64.3993 39.7382C62.4173 37.3779 59.8814 36.1242 57.2119 36.1242Z" fill="#650000"/>
<path d="M93.178 34.8246C93.178 38.3427 90.9872 41.3149 87.9784 42.2777C86.0789 39.1189 83.1922 35.9792 83.1922 35.9792L84.5876 35.5205C82.9253 33.3071 80.9997 32.0494 79.3427 31.3361C80.5427 28.7877 83.0161 27.04 85.8731 27.04C89.9075 27.04 93.178 30.525 93.178 34.8246Z" fill="#FEB845"/>
<path d="M93.1781 34.8246C93.1781 38.3427 90.9873 41.3149 87.9785 42.2777C87.5703 41.601 87.1185 40.9242 86.6581 40.2806C89.2151 39.0701 90.9978 36.3403 90.9978 33.1675C90.9978 31.0674 90.2164 29.161 88.9465 27.7604C91.446 28.997 93.1781 31.6954 93.1781 34.8246Z" fill="#F48D40"/>
<g opacity="0.6">
<path d="M86.5708 27.8825C83.869 27.8825 81.5108 29.4453 80.2479 31.7704C79.9409 31.6064 79.6374 31.4634 79.3427 31.3361C80.5427 28.7877 83.0161 27.04 85.8731 27.04C88.2436 27.04 90.3506 28.2435 91.6832 30.1081C90.3681 28.7319 88.5611 27.8825 86.5708 27.8825Z" fill="#F1F2F2"/>
</g>
<path d="M85.1092 38.2381C85.1318 38.2398 85.1562 38.2398 85.1807 38.2398C86.7575 38.2398 88.036 36.9316 88.036 35.3182C88.036 33.7047 86.7575 32.3966 85.1807 32.3966C84.2266 32.3966 83.3789 32.8762 82.8608 33.614" fill="#FF9878"/>
<g opacity="0.3">
<path d="M88.0359 35.2955C87.5162 34.5717 86.6772 34.1024 85.7335 34.1024C84.8771 34.1024 84.1061 34.4897 83.5846 35.1019L82.8607 33.614C83.3788 32.8762 84.2265 32.3965 85.1806 32.3965C86.7504 32.3966 88.0237 33.6926 88.0359 35.2955Z" fill="#4D146E"/>
</g>
<path d="M88.502 41.9637L88.8727 43.0266L88.9175 43.1547C88.9828 43.342 88.884 43.5467 88.6967 43.6122C88.6357 43.6334 88.5715 43.6369 88.5123 43.626L86.332 43.2178L88.5123 42.8097L88.1518 43.4092L87.4551 42.5918L87.4392 42.5732C87.2159 42.3112 87.2472 41.9178 87.5092 41.6945C87.7712 41.4712 88.1646 41.5026 88.3879 41.7646C88.4389 41.8246 88.4773 41.8935 88.502 41.9637Z" fill="#650000"/>
<path d="M75.3937 30.3977C75.7352 30.3522 76.0831 30.3393 76.4316 30.3394C76.7805 30.3407 77.1313 30.3579 77.4824 30.3913C77.8324 30.4279 78.1855 30.4716 78.5351 30.539C78.8866 30.6011 79.2347 30.6845 79.5841 30.7754C79.9142 30.8612 80.1122 31.1984 80.0265 31.5286C79.9406 31.8587 79.6034 32.0568 79.2733 31.9709C79.2135 31.9554 79.158 31.9316 79.1077 31.9011L79.1012 31.8969C78.8228 31.7258 78.5384 31.5575 78.2435 31.4071C77.9503 31.2513 77.6463 31.1156 77.3374 30.9844C77.0276 30.8563 76.7103 30.7419 76.3866 30.6413C76.0625 30.542 75.7326 30.4539 75.3937 30.3977Z" fill="#650000"/>
<path d="M87.9783 42.8883C87.7684 42.8883 87.5678 42.7797 87.455 42.5923C85.6108 39.5253 82.771 36.4234 82.7427 36.3924C82.6023 36.2397 82.549 36.0261 82.6014 35.8253C82.6536 35.6246 82.8043 35.4641 83.0013 35.3993L83.5615 35.2152C82.3087 33.7476 80.8117 32.6332 79.1012 31.8969C78.9492 31.8314 78.8303 31.7071 78.7717 31.5524C78.713 31.3976 78.7197 31.2257 78.7902 31.076C80.1398 28.21 82.8538 26.4295 85.873 26.4295C90.2375 26.4295 93.7884 30.1955 93.7884 34.8246C93.7884 38.5539 91.5283 41.7827 88.1643 42.8592C88.1029 42.8788 88.0402 42.8883 87.9783 42.8883ZM84.2655 36.2691C85.1703 37.3119 86.8813 39.3735 88.2381 41.5347C90.8091 40.4918 92.5673 37.8017 92.5673 34.8246C92.5673 30.8687 89.5642 27.6505 85.873 27.6505C83.5276 27.6505 81.3958 28.9382 80.1801 31.0497C82.0859 31.9846 83.7305 33.3629 85.0756 35.154C85.1937 35.3113 85.2287 35.5159 85.1699 35.7036C85.1108 35.8913 84.9649 36.0391 84.7782 36.1006L84.2655 36.2691Z" fill="#650000"/>
<path d="M85.1807 38.8503C85.1403 38.8503 85.0998 38.8496 85.0621 38.8467C84.726 38.8208 84.4745 38.5272 84.5004 38.1911C84.5264 37.8561 84.8157 37.6041 85.1528 37.6292L85.1807 37.6293C86.4185 37.6293 87.4254 36.5926 87.4254 35.3182C87.4254 34.0439 86.4185 33.0071 85.1807 33.0071C84.462 33.0071 83.7815 33.3652 83.3603 33.9649C83.1669 34.241 82.7857 34.3074 82.51 34.1137C82.2341 33.92 82.1674 33.5392 82.3612 33.2633C83.0106 32.3383 84.0645 31.7861 85.1807 31.7861C87.0917 31.7861 88.6464 33.3706 88.6464 35.3182C88.6464 37.2658 87.0917 38.8503 85.1807 38.8503Z" fill="#650000"/>
<path d="M45.6647 35.5205L47.0602 35.9793C47.0602 35.9793 46.0345 37.0938 44.8031 38.6637C43.9693 39.7294 43.0414 41.0027 42.2739 42.2777C40.8018 41.8068 39.525 40.8544 38.6058 39.5916C37.6465 38.2747 37.0743 36.6212 37.0743 34.8246C37.0743 30.525 40.3448 27.04 44.3792 27.04C45.2706 27.04 46.1235 27.2109 46.9137 27.5214C48.6544 28.2086 50.0847 29.5831 50.9097 31.3361C49.8353 31.7983 48.6474 32.4907 47.491 33.5251C46.8648 34.0833 46.2473 34.7426 45.6647 35.5205Z" fill="#FEB845"/>
<path d="M50.9097 31.3361C49.8353 31.7983 48.6474 32.4908 47.491 33.5251L45.0369 32.0251C49.3975 31.1529 46.9137 27.5214 46.9137 27.5214C48.6544 28.2087 50.0847 29.5831 50.9097 31.3361Z" fill="#F48D40"/>
<path d="M44.8031 38.6637C43.9694 39.7294 43.0415 41.0027 42.274 42.2777C40.8018 41.8068 39.5251 40.8544 38.6058 39.5916C38.6931 39.5933 38.782 39.6003 38.8744 39.6125C42.3629 40.0486 42.6961 36.9403 42.6961 36.9403L44.388 38.0619C44.388 38.0619 44.5938 38.3549 44.8031 38.6637Z" fill="#F48D40"/>
<g opacity="0.6">
<path d="M38.2657 35.4839C38.2657 38.2293 39.6 40.6434 41.6164 42.0283C38.9512 40.8683 37.0743 38.0811 37.0743 34.8245C37.0743 30.525 40.3448 27.04 44.3792 27.04C45.8305 27.04 47.1822 27.49 48.3178 28.2697C47.4701 27.9016 46.5421 27.6993 45.5706 27.6993C41.5361 27.6993 38.2657 31.1843 38.2657 35.4839Z" fill="#F1F2F2"/>
</g>
<path d="M47.3909 33.6141C46.8729 32.8762 46.0251 32.3966 45.071 32.3966C43.4942 32.3966 42.2157 33.7048 42.2157 35.3182C42.2157 36.9317 43.4942 38.2398 45.071 38.2398C45.0954 38.2398 45.1199 38.2398 45.1425 38.2381" fill="#FF9878"/>
<g opacity="0.3">
<path d="M47.3323 33.5338C47.0253 33.4187 46.6939 33.3559 46.3503 33.3559C44.7735 33.3559 43.4949 34.6641 43.4949 36.2775C43.4949 36.9508 43.7165 37.5683 44.0897 38.0619C42.9961 37.6537 42.2164 36.5793 42.2164 35.3182C42.2164 33.7047 43.4949 32.3966 45.0717 32.3966C45.991 32.3966 46.8108 32.8414 47.3323 33.5338Z" fill="#4D146E"/>
</g>
<path d="M43.9199 43.2178L41.7395 43.626C41.5446 43.6625 41.3569 43.534 41.3204 43.3391C41.3085 43.2757 41.3141 43.2131 41.3338 43.1562L41.379 43.0266L41.7497 41.9637C41.8631 41.6387 42.2185 41.4671 42.5435 41.5804C42.8685 41.6938 43.0401 42.0492 42.9267 42.3742C42.9008 42.4486 42.8622 42.5149 42.8142 42.5716L42.7967 42.5918L42.1 43.4092L41.7395 42.8097L43.9199 43.2178Z" fill="#650000"/>
<path d="M50.6676 30.7754C51.017 30.6845 51.3652 30.601 51.7166 30.5389C52.0662 30.4716 52.4192 30.4278 52.7694 30.3913C53.1204 30.3579 53.4712 30.3407 53.82 30.3393C54.1686 30.3393 54.5165 30.3522 54.858 30.3976C54.5191 30.4539 54.1892 30.542 53.8652 30.6412C53.5414 30.7418 53.2241 30.8562 52.9143 30.9843C52.6053 31.1155 52.3015 31.2512 52.0082 31.407C51.7132 31.5574 51.4289 31.7257 51.1505 31.8968L51.1463 31.8993C50.8557 32.0779 50.4753 31.9871 50.2968 31.6964C50.1182 31.4058 50.2091 31.0254 50.4997 30.8468C50.5523 30.8145 50.6108 30.7904 50.6676 30.7754Z" fill="#650000"/>
<path d="M42.2732 42.8883C42.2113 42.8883 42.1486 42.8788 42.0872 42.8592C38.7233 41.7827 36.4631 38.5538 36.4631 34.8246C36.4631 30.1955 40.014 26.4295 44.3786 26.4295C47.3977 26.4295 50.1117 28.2099 51.4614 31.076C51.5319 31.2257 51.5387 31.3976 51.4799 31.5523C51.4213 31.7071 51.3024 31.8314 51.1505 31.8968C49.44 32.6332 47.9428 33.7476 46.69 35.2152L47.2502 35.3992C47.4472 35.4641 47.5979 35.6245 47.6501 35.8253C47.7025 36.026 47.6492 36.2396 47.5089 36.3924C47.4805 36.4233 44.6408 39.5252 42.7965 42.5923C42.6837 42.7797 42.483 42.8883 42.2732 42.8883ZM44.3786 27.6505C40.6872 27.6505 37.6841 30.8687 37.6841 34.8246C37.6841 37.8016 39.4424 40.4917 42.0134 41.5348C43.3703 39.3734 45.0811 37.3119 45.986 36.2691L45.4733 36.1005C45.2865 36.039 45.1406 35.8912 45.0816 35.7036C45.0227 35.5159 45.0578 35.3112 45.1759 35.1539C46.521 33.3628 48.1657 31.9846 50.0715 31.0497C48.8557 28.9381 46.7239 27.6505 44.3786 27.6505Z" fill="#650000"/>
<path d="M45.0711 38.8503C43.1601 38.8503 41.6052 37.2658 41.6052 35.3182C41.6052 33.3706 43.1601 31.7861 45.0711 31.7861C46.1871 31.7861 47.241 32.3383 47.8905 33.2633C48.0843 33.5393 48.0176 33.92 47.7417 34.1138C47.4663 34.3074 47.0851 34.241 46.8913 33.9649C46.4702 33.3652 45.7898 33.0072 45.0711 33.0072C43.8333 33.0072 42.8262 34.0439 42.8262 35.3182C42.8262 36.5926 43.8333 37.6293 45.0711 37.6293L45.0995 37.6292C45.4407 37.6013 45.7272 37.8546 45.7533 38.1906C45.7794 38.5268 45.526 38.8206 45.1898 38.8467C45.1523 38.8496 45.1117 38.8503 45.0711 38.8503Z" fill="#650000"/>
<path d="M30.9437 32.2216C31.6883 31.0032 32.0555 29.5407 31.8984 28.0107C31.5171 24.2969 28.1974 21.5954 24.4836 21.9767C20.7699 22.358 18.0684 25.6777 18.4497 29.3915C18.831 33.1053 22.1507 35.8067 25.8645 35.4254C26.8974 35.3194 27.8517 34.9854 28.6835 34.4794L31.8117 35.181L30.9437 32.2216Z" fill="white"/>
<g opacity="0.5">
<path d="M24.6163 23.27C28.0855 22.9138 31.21 25.248 31.9174 28.5842C31.9183 28.3459 31.908 28.1055 31.8831 27.8631C31.5018 24.1494 28.1821 21.4479 24.4684 21.8292C20.7546 22.2105 18.0531 25.5302 18.4344 29.2439C18.4594 29.4874 18.4978 29.7262 18.5473 29.9604C18.5604 26.5486 21.146 23.6263 24.6163 23.27Z" fill="white"/>
</g>
<path d="M25.1603 36.0721C23.4725 36.0721 21.8491 35.4975 20.5222 34.4176C18.9953 33.175 18.0436 31.4122 17.8425 29.4539C17.6414 27.4956 18.215 25.5761 19.4576 24.0491C20.7002 22.5222 22.463 21.5706 24.4213 21.3694C26.3813 21.1683 28.2994 21.7421 29.826 22.9845C31.3529 24.2271 32.3046 25.9899 32.5057 27.9483C32.6625 29.4744 32.3509 30.9739 31.6038 32.3028L32.3975 35.0091C32.4584 35.2166 32.405 35.4407 32.2572 35.5984C32.1093 35.7561 31.8887 35.8238 31.6783 35.7766L28.7844 35.1277C27.9032 35.6241 26.9431 35.9283 25.9269 36.0327C25.6704 36.059 25.4145 36.0721 25.1603 36.0721ZM25.1856 22.5512C24.9734 22.5512 24.76 22.5621 24.5461 22.5841C22.912 22.7518 21.4413 23.5458 20.4046 24.8198C19.3679 26.0938 18.8892 27.6952 19.0571 29.3292C19.2248 30.9631 20.0188 32.4338 21.2928 33.4706C22.5669 34.5073 24.1686 34.9857 25.8021 34.8181C26.7202 34.7239 27.5829 34.4344 28.3663 33.9579C28.5012 33.8757 28.663 33.849 28.8171 33.8837L30.9344 34.3585L30.3579 32.3934C30.3094 32.2282 30.333 32.0502 30.4228 31.9032C31.1295 30.747 31.4297 29.4225 31.2911 28.0731C31.1235 26.4391 30.3294 24.9683 29.0554 23.9316C27.9482 23.0306 26.5937 22.5512 25.1856 22.5512Z" fill="#650000"/>
<g opacity="0.3">
<path d="M30.9816 32.1567C29.1301 33.7227 26.5794 34.4086 24.0464 33.7781C21.2374 33.079 19.1676 30.9399 18.4232 28.3438C18.4054 28.688 18.4134 29.0379 18.4497 29.3915C18.831 33.1052 22.1507 35.8067 25.8644 35.4254C26.8974 35.3193 27.8517 34.9854 28.6835 34.4794L31.8117 35.1809L30.9437 32.2216C30.9567 32.2002 30.9687 32.1782 30.9816 32.1567Z" fill="#650000"/>
</g>
<path d="M27.3356 26.8029C26.7506 26.2179 25.8021 26.3227 25.2171 26.9077L25.1261 26.9987L25.035 26.9077C24.45 26.3227 23.5015 26.2179 22.9165 26.8029C22.3315 27.3879 22.3315 28.3364 22.9165 28.9214L23.0076 29.0124L24.8468 30.8517C25.001 31.0059 25.2511 31.0059 25.4053 30.8517L27.2445 29.0124L27.3356 28.9214C27.9206 28.3364 27.9206 27.3879 27.3356 26.8029Z" fill="#FF0068"/>
</g>
<rect x="0.5" y="0.5" width="124" height="124" stroke="black"/>
<defs>
<clipPath id="clip0_4_2372">
<rect width="125" height="125" fill="white"/>
</clipPath>
</defs>
</svg>
