<?xml version="1.0" encoding="utf-8"?>
<!-- Generator: Adobe Illustrator 27.5.0, SVG Export Plug-In . SVG Version: 6.00 Build 0)  -->
<svg version="1.1" id="Layer_1" xmlns="http://www.w3.org/2000/svg" xmlns:xlink="http://www.w3.org/1999/xlink" x="0px" y="0px"
	 viewBox="0 0 4000 4000" style="enable-background:new 0 0 4000 4000;" xml:space="preserve">
<g>
	<g>
		<rect style="fill:#FFCAEC;" width="4000" height="4000"/>
	</g>
	<g>
		<g style="opacity:0.2;">
			<ellipse style="fill:#181558;" cx="1939.56" cy="3581.741" rx="780.102" ry="138.259"/>
		</g>
		<g>
			<g>
				<path style="fill:#FFFFFF;" d="M1663.335,2940.645c-195.182,41.94-280.675,315.356-107.269,447.628
					c0,0-60.49,6.452-89.526,40.058c-19.184,22.203-35.441,69.844-2.42,104.798c42.209,44.68,215.639,27.192,276.102,27.192
					c76.425,0,200.722-11.258,214.076-27.192c26.032-31.061,172.524-158.796-7.427-643.309"/>
			</g>
			<g>
				<path style="fill:#FFFFFF;" d="M1954.296,3533.109c-13.361,15.972-137.638,27.209-214.09,27.209
					c-60.436,0-233.867,17.476-276.074-27.209c-15.176-16.06-19.953-34.775-18.803-52.472c1.327-20.838,10.796-40.261,21.192-52.295
					c29.068-33.625,89.548-40.084,89.548-40.084c-163.742-124.897-96.626-375.709,75.788-438.489
					c10.132-3.761,20.661-6.769,31.501-9.114l283.507-50.835C2126.842,3374.322,1980.311,3502.051,1954.296,3533.109z"/>
			</g>
			<g style="opacity:0.25;">
				<path style="fill:#181558;" d="M1954.296,3533.109c-13.361,15.972-137.638,27.209-214.09,27.209
					c-60.436,0-233.867,17.476-276.074-27.209c-15.176-16.06-19.953-34.775-18.803-52.472
					c36.235,18.98,104.988,41.986,196.748,13.715c115.428-35.66-13.096-107.244-52.826-109.81
					c-25.971-1.681-96.936-308.062,24.864-420.394c5.575-5.132,11.503-9.955,17.741-14.379c10.132-3.761,20.661-6.769,31.501-9.114
					l283.507-50.835C2126.842,3374.322,1980.311,3502.051,1954.296,3533.109z"/>
			</g>
			<g>
				<path style="fill:#181558;" d="M1615.548,3584.218c-75.371,0-138.413-7.28-166.416-36.929
					c-42.856-45.361-21.636-105.308,1.802-132.441c16.597-19.209,40.884-30.815,61.709-37.695
					c-60.361-62.72-84.18-149.766-63.979-240.088c24.453-109.365,107.017-194.38,210.342-216.582
					c11.123-2.432,22.1,4.692,24.492,15.83c2.393,11.133-4.692,22.1-15.83,24.492c-87.637,18.833-157.803,91.553-178.755,185.264
					c-19.741,88.286,10.039,172.7,79.663,225.806c6.714,5.122,9.624,13.818,7.353,21.948c-2.275,8.135-9.277,14.058-17.676,14.956
					c-14.6,1.611-56.807,10.698-76.108,33.037c-9.409,10.884-30.156,48.438-3.032,77.153
					c27.93,29.551,155.273,24.482,216.489,22.046c17.695-0.708,32.983-1.318,44.619-1.318c84.438,0,182.436-11.787,199.404-21.143
					c1.186-1.377,2.549-2.905,4.067-4.604c99.824-111.743,94.39-319.316-16.152-616.953c-3.965-10.674,1.475-22.544,12.153-26.509
					c10.669-3.965,22.544,1.479,26.509,12.153c73.862,198.867,102.275,362.671,84.458,486.865
					c-14.81,103.188-57.837,151.353-76.211,171.924c-1.689,1.89-3.159,3.53-4.346,4.946c-5.117,6.108-14.643,17.471-96.865,26.816
					c-42.085,4.78-93.052,7.754-133.018,7.754c-10.815,0-25.718,0.591-42.979,1.279
					C1669.171,3583.344,1641.617,3584.218,1615.548,3584.218z M1940.338,3518.129L1940.338,3518.129
					C1940.338,3518.129,1940.338,3518.134,1940.338,3518.129z"/>
			</g>
			<g>
				<path style="fill:#3A3A3A;" d="M1756.355,3406.286c-66.218-5.202-134.199-6.122-199.551,2.596c0,0-1.477-41.219-1.477-41.219
					C1624.282,3372.64,1690.637,3387.274,1756.355,3406.286L1756.355,3406.286z"/>
			</g>
			<g>
				<path style="fill:#FFFFFF;" d="M2373.65,3295.988c0,0,27.031-109.714,89.702-115.163c25.84-2.247,44.019,18.117,44.019,18.117
					s70.055-115.457,163.452-92.836c78.846,19.096,85.193,242.504-87.18,292.643c0,0,15.345,59.894-77.074,68.704
					c-79.908,7.617-143.437-47.554-143.437-47.554L2373.65,3295.988z"/>
			</g>
			<g>
				<path style="fill:#FFFFFF;" d="M2583.656,3398.769c0,0,15.315,59.898-77.081,68.689
					c-79.905,7.588-143.457-47.568-143.457-47.568l10.528-123.881c0,0,6.618-26.91,20.9-54.726
					c14.619-28.362,37.174-57.728,68.811-60.472c25.837-2.225,44.024,18.107,44.024,18.107s70.046-115.448,163.456-92.819
					c15.871,3.838,28.85,15.98,37.941,33.322l0.009,0.047C2744.991,3208.236,2721.266,3358.723,2583.656,3398.769z"/>
			</g>
			<g style="opacity:0.25;">
				<path style="fill:#181558;" d="M2583.656,3398.769c0,0,15.315,59.898-77.081,68.689
					c-79.905,7.588-143.457-47.568-143.457-47.568l10.528-123.881c0,0,6.618-26.91,20.9-54.726
					c17.083,15.311,36.444,45.578,47.267,105.228c12.886,71.018,58.634,58.948,48.607,20.465c0,0,212.806-33.105,218.366-227.508
					C2744.991,3208.236,2721.266,3358.723,2583.656,3398.769z"/>
			</g>
			<g>
				<path style="fill:#181558;" d="M2491.241,3488.798c-79.248,0-138.955-51.006-141.631-53.33
					c-8.604-7.471-9.517-20.493-2.051-29.092c7.471-8.599,20.503-9.512,29.092-2.051c0.537,0.459,58.262,49.165,127.959,42.598
					c26.782-2.554,45.43-10.039,53.916-21.641c7.446-10.181,5.156-21.299,5.054-21.768c-2.764-10.781,3.613-21.46,14.302-24.565
					c94.839-27.588,126.816-110.898,125.386-173.862c-0.923-40.732-16.611-73.931-37.3-78.94
					c-77.427-18.784-140.361,82.49-140.986,83.516c-3.398,5.571-9.248,9.214-15.747,9.805c-6.533,0.576-12.9-1.924-17.251-6.797l0,0
					c-0.005,0.005-12.012-12.627-26.846-11.299c-39.155,3.403-65.371,74.805-71.465,99.546
					c-2.725,11.06-13.916,17.837-24.956,15.093c-11.06-2.725-17.817-13.901-15.093-24.956c3.13-12.7,32.734-124.233,107.939-130.776
					c16.675-1.426,30.703,3.442,41.138,9.282c26.343-34.717,90.405-103.486,172.974-83.501
					c40.405,9.785,67.422,56.138,68.828,118.091c1.812,79.624-40.815,172.856-139.458,209.253
					c-0.713,10.063-3.73,22.734-12.446,35.142c-15.703,22.349-43.989,35.615-84.072,39.434
					C2502.672,3488.539,2496.91,3488.798,2491.241,3488.798z"/>
			</g>
			<g>
				<g>
					<path style="fill:#FFFFFF;" d="M2490.415,3366.973c0,0,28.914,39.924,93.228,31.774"/>
				</g>
				<g>
					<path style="fill:#181558;" d="M2498.765,3360.925c18.909,17.506,46.438,23.471,71.45,19.483
						c4.144-0.663,8.25-1.685,12.351-2.401c27.119-4.188,34.439,35.007,7.578,40.851c-40.39,3.223-84.526-11.366-108.081-45.837
						C2475.244,3361.709,2489.898,3351.414,2498.765,3360.925L2498.765,3360.925z"/>
				</g>
			</g>
			<g>
				<g>
					<path style="fill:#FFFFFF;" d="M2493.716,3259.857c0,0,2.145-27.705,13.655-60.916"/>
				</g>
				<g>
					<path style="fill:#3A3A3A;" d="M2483.435,3259.061c-1.143-22.796,0.473-44.762,4.524-67.272
						c5.761-27.063,45.293-19.93,41.201,7.463c-3.653,11.588-11.099,21.452-15.241,33.176c-3.78,9.021-7.29,18.966-9.923,28.226
						C2501.381,3272.421,2484.105,3270.97,2483.435,3259.061L2483.435,3259.061z"/>
				</g>
			</g>
			<g>
				<path style="fill:#FFFFFF;" d="M1865.497,2400.207c-164.873,1.56-284.003,192.136-372.585,201.99
					c-67.012,7.455-288.207-75.29-288.207-75.29l-29.614,315.132c0,0,146.34,118.734,330.333,103.875
					c253.491-20.471,374.772-265.153,374.772-265.153"/>
			</g>
			<g>
				<path style="fill:#FFFFFF;" d="M1880.189,2680.774c0,0-121.269,244.662-374.779,265.146
					c-183.961,14.866-330.315-103.882-330.315-103.882l29.598-315.14c0,0,221.213,82.734,288.241,75.301
					c54.286-6.062,120.075-79.991,200.862-136.71c50.968-35.792,107.863-64.683,171.706-65.302l6.68,127.375L1880.189,2680.774z"/>
			</g>
			<g>
				<path style="fill:#FFFFFF;" d="M1880.189,2680.774c0,0-45.083,90.919-137.727,166.618
					c-59.285,48.401-138.081,90.564-237.053,98.528c-183.961,14.866-330.315-103.882-330.315-103.882l29.598-315.14
					c0,0,2.389,0.885,6.813,2.522h0.044c37.783,13.803,221.391,79.416,281.383,72.779c54.286-6.062,120.075-79.991,200.862-136.71
					c50.968-35.792,107.863-64.683,171.706-65.302l6.68,127.375L1880.189,2680.774z"/>
			</g>
			<g style="opacity:0.25;">
				<path style="fill:#181558;" d="M1742.463,2847.392c-59.285,48.401-138.081,90.564-237.053,98.528
					c-183.961,14.866-330.315-103.882-330.315-103.882l29.598-315.14c0,0,2.389,0.885,6.813,2.522h0.044
					c48.534,23.271,122.419,73.31,129.587,165.246c8.14,104.944,45.393,156.752,176.041,134.675
					c100.564-16.989,98.042-170.555,167.237-229.044C1705.608,2582.378,1727.818,2712.761,1742.463,2847.392z"/>
			</g>
			<g style="opacity:0.25;">
				<path style="fill:#181558;" d="M1872.182,2527.561c-74.239-15.573-135.028-40.393-178.386-62.072
					c50.968-35.792,107.863-64.683,171.706-65.302L1872.182,2527.561z"/>
			</g>
			<g>
				<path style="fill:#E8E8E8;" d="M2357.037,2462.702c-256.386,124.809-476.848,80.124-608.292,27.431
					c67.647-86.229,205.64-211.17,420.615-176.351C2305.937,2335.902,2348.056,2403.195,2357.037,2462.702z"/>
			</g>
			<g>
				<path style="fill:#E8E8E8;" d="M2435.258,2419.831c-68.532,41.809-135.029,71.01-198.472,90.476l-13.406-33.094
					C2223.38,2477.213,2312.264,2473.099,2435.258,2419.831z"/>
			</g>
			<g>
				<path style="fill:#181558;" d="M1472.989,2967.836c-173.472,0.01-305.029-105.029-310.889-109.78
					c-5.356-4.346-8.184-11.079-7.539-17.944l29.609-315.132c0.601-6.392,4.145-12.139,9.585-15.547
					c5.444-3.413,12.148-4.087,18.174-1.841c60.244,22.534,227.744,79.849,278.701,74.106
					c29.927-3.325,70.498-36.812,113.447-72.261c69.556-57.407,156.123-128.857,261.226-129.849c0.068,0,0.132-0.005,0.2-0.005
					c11.299,0,20.508,9.106,20.615,20.43c0.107,11.392-9.038,20.708-20.425,20.815c-90.503,0.854-167.461,64.375-235.361,120.42
					c-49.902,41.187-92.998,76.758-135.142,81.445c-58.247,6.411-210.054-44.922-272.456-67.251l-26.03,277.017
					c33.193,23.813,158.252,104.878,307.06,92.896c238.477-19.258,356.797-251.431,357.964-253.774
					c5.073-10.186,17.432-14.346,27.642-9.277c10.19,5.063,14.355,17.417,9.302,27.617
					c-5.161,10.415-129.478,255.381-391.587,276.548C1495.567,2967.397,1484.18,2967.836,1472.989,2967.836z"/>
			</g>
			<g>
				<path style="fill:#512717;" d="M2370.943,2410.282c-0.107,0-0.215-0.005-0.327-0.005l-551.563-8.628
					c-11.387-0.176-20.478-9.556-20.298-20.942c0.176-11.279,9.375-20.303,20.615-20.303c0.107,0,0.215,0.005,0.327,0.005
					l551.563,8.628c11.387,0.176,20.479,9.556,20.298,20.942C2391.383,2401.259,2382.183,2410.282,2370.943,2410.282z"/>
			</g>
			<g>
				<path style="fill:#FFFFFF;" d="M2345.381,2565.757c12.366,128.75,63.437,272.022,97.523,368.236
					c50.813,143.426,78.963,281.942,57.64,369.829c-20.457,84.316-310.081,233.109-310.081,233.109s-263.597,22.45-371.086-7.961
					c-275.409-111.539-324.652-494.868-120.282-963.213c0,0,149.404-303.956,470.246-251.994
					C2431.914,2356.287,2345.381,2565.757,2345.381,2565.757z"/>
			</g>
			<g>
				<path style="fill:#FFFFFF;" d="M2500.561,3303.799c-13.494,55.613-143.965,139.188-231.301,189.713
					c-45.172,26.103-78.796,43.402-78.796,43.402s-263.598,22.475-371.108-7.964c-141.267-57.206-223.027-185.996-241.564-361.064
					c-0.044-0.089-0.044-0.221-0.044-0.354c-17.476-166.131,21.9-373.895,121.357-601.789c0,0,149.408-303.947,470.256-251.962
					c262.536,42.517,176.042,251.962,176.042,251.962c12.343,128.746,63.399,272.048,97.51,368.232
					C2493.703,3077.409,2521.885,3215.933,2500.561,3303.799z"/>
			</g>
			<g style="opacity:0.25;">
				<path style="fill:#181558;" d="M2269.26,3493.512c-45.172,26.103-78.796,43.402-78.796,43.402s-263.598,22.475-371.108-7.964
					c-141.267-57.206-223.027-185.996-241.564-361.064c11.68,66.187,56.011,175.378,222.142,159.406
					c174.36-16.768,194.491-262.934,348.721-261.164C2243.688,3067.189,2265.145,3329.15,2269.26,3493.512z"/>
			</g>
			<g style="opacity:0.25;">
				<path style="fill:#181558;" d="M2357.037,2462.702c-256.386,124.809-476.848,80.124-608.292,27.431
					c67.647-86.229,205.64-211.17,420.615-176.351C2305.937,2335.902,2348.056,2403.195,2357.037,2462.702z"/>
			</g>
			<g>
				<path style="fill:#181558;" d="M2365.908,2563.785c12.363,118.064,49.991,231.662,89.621,343.232
					c41.139,115.256,97.089,289.212,63.964,409.998c-26.889,65.868-132.978,129.93-191.765,167.943
					c-41.522,25.591-83.412,49.53-126.801,72.34c-2.736,1.423-5.613,2.24-8.523,2.449c-62.788,5.383-124.936,8.299-187.891,8.756
					c-65.395-0.542-128.935,0.018-193.821-17.513c-287.736-117.111-291.139-479.575-217.705-735.313
					c24.502-87.471,57.009-172.497,96.655-254.045c6.085-11.403,23.337-4.227,18.901,8.249
					c-32.039,83.111-60.573,167.98-80.684,254.708c-59.613,241.469-60.784,573.8,197.961,681.607
					c26.731,7.295,57.137,10.324,87.129,12.382c60.796,3.917,122.464,3.09,183.552,0.658c30.681-1.333,61.648-2.838,92.014-5.121
					l-8.518,2.448c82.791-43.837,167.096-91.982,240.157-150.267c17.761-14.591,34.987-30.223,47.543-46.707
					c13.504-16.026,14.815-36.089,16.99-56.261c3.715-45.478-1.921-92.337-10.315-137.558
					c-13.126-69.608-34.294-137.775-58.265-204.831c-39.85-114.757-78.716-231.55-91.257-353.209
					C2322.718,2540.865,2362.389,2536.045,2365.908,2563.785L2365.908,2563.785z"/>
			</g>
			<g>
				<path style="fill:#FFFFFF;" d="M985.329,2540.366c0,0,0,0,0,0.044c-10.485,50.437-29.687,95.697-62.869,124.41
					c-92.865-29.731-150.292-72.558-150.292-72.558l37.076-315.981l2.301-19.732c0,0,93.44,35.836,179.226,59.241
					C997.01,2376.137,1001.169,2464.136,985.329,2540.366z"/>
			</g>
			<g>
				<path style="fill:#181558;" d="M1436.812,1953.072c-52.151-84.54-129.135-153.428-216.763-199.764
					c-12.543-6.989-26.539-12.892-39.243-19.608c-11.313-5.917-4.026-23.057,8.125-18.894c10.109,3.558,21.451,7.891,31.56,11.73
					c44.883,18.133,88.238,44.164,125.51,75.047c34.728,28.97,66.037,63.123,89.372,101.946
					c7.771,13.183,14.778,26.227,20.352,41.321c1.973,5.343-0.762,11.274-6.104,13.247
					C1444.61,1959.956,1439.182,1957.638,1436.812,1953.072L1436.812,1953.072z"/>
			</g>
			<g>
				<path style="fill:#181558;" d="M1395.41,2059.418c-60.015-43.18-127.676-81.545-201.941-91.575
					c-24.395-3.504-49.165-3.39-73.867-0.367c-5.72,0.831-11.042-3.221-11.736-8.967c-0.635-5.201,2.715-9.97,7.651-11.248
					c79.2-21.154,164.76,2.524,232.283,45.936c22.694,14.79,43.477,31.022,61.856,51.309c3.804,4.257,3.437,10.791-0.82,14.595
					C1404.981,2062.554,1399.282,2062.541,1395.41,2059.418L1395.41,2059.418z"/>
			</g>
			<g>
				<path style="fill:#FFFFFF;" d="M2569.212,668.201c-67.548,68.789-224.614,184.173-320.067,324.486
					c-57.658,84.664-92.81,178.437-72.295,276.535l-327.135,47.851c-24.475-82.114-39.777-192.244-34.22-286.461
					c1.954-32.863,6.437-63.815,13.992-90.97c63.837-379.999,495.661-500.07,596.917-542.635
					c172.241-72.426,213.354-136.275,263.738-111.605C2736.69,308.127,2748.684,485.382,2569.212,668.201z"/>
			</g>
			<g style="opacity:0.25;">
				<path style="fill:#181558;" d="M2176.849,1269.222l-327.135,47.851c-24.475-82.114-39.777-192.244-34.22-286.461
					c58.127,43.141,108.097-102.743,150.235-105.34c103.007-6.44,109.818,165.873,200.304,122.841
					c19.442-9.246,53.734-40.143,83.111-55.426C2191.487,1077.351,2156.335,1171.124,2176.849,1269.222z"/>
			</g>
			<g>
				<path style="fill:#181558;" d="M1849.703,1340.595c-10.132,0-19.482-6.599-22.524-16.804
					c-32.002-107.324-52.041-274.661-20.703-389.258c25.864-151.86,111.289-281.272,253.916-384.651
					c116.147-84.187,241.533-131.013,316.45-158.992c16.318-6.094,30.41-11.357,40.464-15.584
					c71.216-29.941,120.054-58.682,155.713-79.665c52.368-30.815,86.963-51.174,127.451-31.379
					c20.063,9.815,34.243,33.46,39.922,66.585c13.242,77.183-19.253,216.162-154.404,353.833
					c-20.161,20.535-47.319,44.443-78.765,72.129c-139.063,122.424-349.214,307.434-307.354,507.59
					c2.661,12.712-5.493,25.173-18.203,27.832c-12.71,2.656-25.171-5.488-27.832-18.203
					c-47.471-226.98,175.059-422.886,322.31-552.522c30.757-27.078,57.319-50.461,76.279-69.775
					c122.705-124.99,152.979-246.694,141.616-312.935c-3.892-22.676-11.592-30.994-14.233-32.283
					c-16.895-8.272-34.497,1.155-82.935,29.663c-36.807,21.658-87.217,51.323-161.333,82.485
					c-10.938,4.597-25.444,10.015-42.241,16.289c-145.317,54.27-485.63,181.362-540.645,508.579l-0.527,2.39
					c-28.022,100.962-11.084,259.756,20.122,364.434c3.711,12.446-3.369,25.544-15.815,29.255
					C1854.19,1340.275,1851.929,1340.595,1849.703,1340.595z"/>
			</g>
			<g>
				<path style="fill:#FF67A0;" d="M2624.579,381.524c-1.385,5.962-2.779,11.837-4.223,17.629
					c-22.425,91.332-56.936,171.248-283.791,319.464c-226.398,147.914-259.398,347.023-274.549,421.478
					c-16.323,80.356-164.615,75.052-164.615,75.052s-2.847-32.633-2.711-81.427c0.319-99.131,13.053-265.06,87.382-360.033
					c151.308-193.424,372.133-234.159,528.081-321.795C2576.36,414.695,2624.579,381.524,2624.579,381.524z"/>
			</g>
			<g style="opacity:0.25;">
				<path style="fill:#181558;" d="M2620.357,399.153c-22.425,91.332-56.936,171.248-283.791,319.464
					c-226.398,147.914-259.398,347.023-274.549,421.478c-16.323,80.356-164.615,75.052-164.615,75.052s-2.847-32.633-2.711-81.427
					c2.224-68.744-3.248-130.387,20.636-204.191c2.635-8.143,31.076,61.299,98.47,35.861
					c110.334-41.645,56.852-228.833,337.671-348.06C2518.251,546.519,2591.736,462.442,2620.357,399.153z"/>
			</g>
			<g>
				<path style="fill:#181558;" d="M1903.438,1235.856c-3.701,0-6.065-0.073-6.773-0.098c-10.405-0.374-18.901-8.445-19.809-18.818
					c-0.117-1.37-2.925-34.124-2.788-83.279c0.376-117.012,16.601-276.643,91.768-372.683
					c110.713-141.536,257.773-203.835,387.524-258.804c52.695-22.324,102.476-43.411,146.694-68.262
					c64.526-36.257,112.363-69.055,112.842-69.382c7.012-4.824,16.27-4.841,23.301-0.046c7.031,4.795,10.4,13.418,8.472,21.709
					c-1.411,6.074-2.832,12.056-4.302,17.952c-23.296,94.863-59.639,179.578-292.52,331.738
					c-211.514,138.186-248.296,321.865-264.004,400.298l-1.616,8.025C2064.693,1230.512,1935.162,1235.856,1903.438,1235.856z
					 M2591.026,427.89c-19.141,11.961-43.374,26.589-70.767,41.98c-46.221,25.974-97.026,47.498-150.811,70.283
					c-131.26,55.608-266.987,113.108-371.128,246.24c-71.548,91.416-82.715,256.89-83.003,347.393
					c-0.073,25.334,0.684,46.328,1.406,60.378c36.651-1.775,115.523-11.101,125.083-58.176l1.592-7.905
					c16.724-83.511,55.889-279.08,281.89-426.731C2517.691,575.644,2567.071,503.256,2591.026,427.89z"/>
			</g>
			<g>
				<path style="fill:#FFFFFF;" d="M3377.672,1115.514c-269.272,133.3-734.228,92.493-819.268,266.537
					c2.566,2.172,5.186,4.402,7.692,6.683c235.895,206.822,273.123,559.834,217.784,769.334
					c-119.833,367.414-665.211,328.448-855.103,306.052c-268.08-31.617-595.594-177.899-626.958-388.309l-0.126-0.895
					c-13.156-90.012,40.363-141.877,64.193-160.225c6.619-5.084,10.955-7.607,10.957-7.663
					c36.326-356.036,240.178-733.457,651.937-751.061c68.721-2.967,141.808,7.872,252.412,45.972
					c48.341-105.027,142.909-237.262,234.041-296.793c272.71-178.125,627.094-69.235,806.683-13.154
					c104.084,32.526,180.74-22.558,214.719,38.362c2.825,5.016,4.177,10.687,4.175,16.796
					C3541.412,995.938,3459.779,1074.841,3377.672,1115.514z"/>
			</g>
			<g>
				<path style="fill:#FFFFFF;" d="M3377.697,1115.518c-269.271,133.3-734.228,92.494-819.268,266.537
					c2.567,2.172,5.187,4.402,7.692,6.683c235.894,206.822,273.123,559.835,217.784,769.334c-0.068,0.275-0.189,0.492-0.257,0.765
					c-120.391,366.633-665.067,327.677-854.859,305.284c-268.063-31.639-595.418-177.833-626.897-388.136
					c-0.053-0.06-0.05-0.114-0.048-0.17l-0.126-0.894c-13.156-90.011,40.363-141.877,64.193-160.224
					c6.618-5.084,10.954-7.608,10.957-7.662c36.327-356.037,240.178-733.457,651.937-751.062
					c68.721-2.967,141.808,7.872,252.412,45.972c48.341-105.026,142.909-237.261,234.041-296.792
					c272.711-178.126,627.095-69.236,806.684-13.154c104.084,32.526,180.74-22.558,214.719,38.361
					c2.825,5.016,4.175,10.687,4.174,16.796C3541.437,995.942,3459.805,1074.845,3377.697,1115.518z"/>
			</g>
			<g style="opacity:0.25;">
				<path style="fill:#181558;" d="M3541.382,947.721c0.573,48.754-81.062,127.696-163.16,168.366
					c-269.269,133.259-734.206,92.481-819.27,266.507c2.594,2.206,5.187,4.413,7.705,6.672
					c-36.495-16.633-106.797-57.914-97.5-126.109c12.469-91.588,232.133-209.134,520.798-197.297
					c130.203,5.319,309.242-40.814,414.657-85.895C3474.107,950.243,3522.884,926.598,3541.382,947.721z"/>
			</g>
			<g style="opacity:0.25;">
				<path style="fill:#181558;" d="M2783.85,2158.069c-0.068,0.275-0.134,0.494-0.202,0.768
					c-120.391,366.633-665.067,327.677-854.859,305.284c-268.063-31.639-595.418-177.833-626.897-388.136
					C1523.612,2498.076,2557.842,2486.885,2783.85,2158.069z"/>
			</g>
			<g>
				<path style="fill:#FF67A0;" d="M3429.676,983.898c0,0-0.436,5.856-5.142,15.584c-10.912,22.862-56.988,61.502-154.512,94.77
					c-186.109,63.486-483.849,50.675-692.868,165.158c-44.534,24.392-85.735,69.11-85.735,69.11s-2.718-2.021-7.09-5.544
					c-19.586-15.586-72.732-60.234-71.755-84.831c2.639-64.415,114.16-260.899,413.996-292.077
					C3126.449,914.88,3287.767,1019.609,3429.676,983.898z"/>
			</g>
			<g style="opacity:0.25;">
				<path style="fill:#181558;" d="M3429.676,983.898c0,0-0.436,5.856-5.142,15.584c-90.629,57.458-452.008-30.179-671.691,36.306
					c-155.96,47.209-265.56,151.243-244.193,183.505c21.085,31.836,122.562,14.402,117.946,15.988
					c-64.322,22.111-127.851,93.859-142.267,87.693c-19.586-15.586-72.732-60.234-71.755-84.831
					c2.639-64.415,114.16-260.899,413.996-292.077C3126.449,914.88,3287.767,1019.609,3429.676,983.898z"/>
			</g>
			<g>
				<path style="fill:#181558;" d="M2491.412,1349.133c-4.297,0-8.613-1.333-12.29-4.06c0,0-2.964-2.2-7.729-6.035
					c-80.908-64.394-79.79-92.483-79.424-101.711c2.813-68.694,114.736-278.731,432.466-311.773
					c165.688-17.227,290.444,6.389,390.688,25.369c83.252,15.759,149.009,28.21,209.521,12.976
					c6.426-1.621,13.237-0.049,18.315,4.221c5.068,4.268,7.778,10.713,7.285,17.322c-0.171,2.29-1.196,10.718-7.139,23.018
					c-17.314,36.269-79.546,75.674-166.426,105.312c-75.776,25.847-168.13,39.138-265.903,53.208
					c-147.993,21.297-301.03,43.32-423.716,110.518c-40.933,22.417-80.088,64.58-80.479,65.002
					C2502.545,1346.877,2496.998,1349.133,2491.412,1349.133z M2938.277,960.856c-34.424,0-70.864,1.697-109.575,5.723
					c-293.569,30.527-393.428,221.186-395.522,272.407c0.664,6.514,16.729,29.055,56.582,61.858
					c16.44-15.942,45.898-42.222,77.485-59.524c129.233-70.781,293.091-94.363,437.656-115.166
					c95.82-13.789,186.323-26.814,258.457-51.421c64.976-22.163,103.813-45.884,124.443-63.52
					c-55.547,3.857-114.453-7.29-180.352-19.766C3133.507,977.451,3045.845,960.856,2938.277,960.856z"/>
			</g>
			<g>
				<path style="fill:#181558;" d="M2629.331,2169.667c99.053-47.345,231.571-37.633,331.357,3.195
					c6.96,2.754,13.845,5.68,20.723,8.577c11.685,5.056,5.49,22.817-6.836,19.4c-12.038-3.376-24.912-7.324-36.892-10.979
					c-21.975-5.36-45.788-10.777-68.21-14.423c-7.52-0.897-24.539-3.231-31.812-3.992c-38.915-3.614-78.19-3.244-116.987,1.153
					c-27.981,3.032-57.006,8.417-83.755,16.152C2625.06,2192.093,2618.304,2175.451,2629.331,2169.667L2629.331,2169.667z"/>
			</g>
			<g>
				<path style="fill:#181558;" d="M2595.632,2274.156c105.571-7.028,223.343,36.674,282.149,127.929
					c6.811,10.879-8.495,22.01-16.707,12.092c-48.057-58.164-118.562-90.694-191.035-106.767
					c-24.47-5.676-49.937-9.877-74.592-12.698C2583.289,2293.181,2583.408,2275.464,2595.632,2274.156L2595.632,2274.156z"/>
			</g>
			<g>
				<path style="fill:#181558;" d="M1819.631,2456.126c-193.612-28.365-481.209-146.534-535.519-353.957
					c-15.681-58.859-4.329-125.613,35.987-172.484c12.871-15.575,28.136-29.176,45.328-39.834c0,0,0.139-0.086,0.059-0.033
					c-2.454,5.378,5.854-12.344-9.119,14.715c0.661-5.222,1.665-15.659,2.349-20.882
					c38.645-333.741,229.987-683.093,588.458-740.003c57.331-9.325,116.317-11.993,173.883-3.76
					c57.749,8.028,113.076,24.122,166.851,42.554l-25.449,10.875c47.845-100.042,110.444-191.555,192.321-267.168
					c41.459-37.717,91.193-65.907,142.611-87.774c206.35-85.933,438.481-51.617,646.768,8.519
					c38.26,10.023,75.306,25.163,113.962,32.496c25.005,4.159,50.172,3.575,75.847,1.865c20.607-1.135,43.399-3.814,65.251-0.094
					c27.14,3.908,53.371,24.817,60.534,52.045c11.949,57.557-53.75,117.69-93.541,150.112
					c-43.442,35.061-94.938,60.621-147.047,79.489c-203.081,75.089-425.77,72.579-628.318,142.548
					c-44.816,17.393-92.338,42.36-113.913,85.747c0,0-5.205-24.794-5.205-24.794c48.437,40.313,90.566,87.879,125.337,140.362
					c103.804,157.4,144.115,351.173,129.41,537.849c-4.559,47.264-11.018,95.302-27.696,140.235
					c-64.405,173.102-234.981,260.775-407.37,291.561c-30.68,5.079-61.832,7.314-93.114,3.827c-5.796-0.646-9.973-5.87-9.326-11.668
					c0.464-4.179,3.308-7.516,7.031-8.811c29.273-10.128,58.442-16.801,87.551-23.408c113.984-23.315,229.13-68.714,306.787-157.566
					c36.946-43.316,65.387-94.749,77.018-150.789c29.682-144.732,17.076-298.214-30.53-437.824
					c-37.94-111.698-102.378-214.867-191.747-292.285c-7.594-5.999-9.64-16.588-5.205-24.796
					c51.444-100.427,195.681-127.081,295.358-148.663c158.486-31.333,318.342-45.963,469.713-100.24
					c72.332-25.753,141.205-66.436,190.149-125.958c10.843-13.799,20.53-27.922,24.332-44.061c0.7-5.241,1.349-9.182-0.255-12.563
					c-8.93-17.127-22.875-21.06-43.726-20.989c-47.466,1.635-98.159,8.107-145.387-4.84c-83.441-25.13-166.697-51.01-252.239-66.84
					c-190.932-37.302-402.94-32.661-565.832,83.714c-51.917,39.026-94.249,89.122-132.478,142.301
					c-30.422,42.904-57.635,88.423-79.602,135.746c-4.482,9.657-15.574,14.18-25.432,10.837
					c-52.336-17.963-105.435-33.263-159.016-40.687c-53.725-7.685-108.219-5.048-161.606,3.596
					c-107.28,17.054-208.558,65.938-289.172,138.677c-163.507,148.04-244.527,370.591-267.372,586.509
					c-15.08,27.15-6.896,9.497-9.467,14.954l-0.298,0.194c-54.93,37.165-77.337,102.817-59.652,166.688
					c36.509,133.383,176.006,216.017,295.07,271.231c64.672,29.359,132.155,53.09,201.071,73.377
					C1836.313,2439.605,1832.174,2457.899,1819.631,2456.126L1819.631,2456.126z"/>
			</g>
			<g>
				<path style="fill:#FFFFFF;" d="M1728.441,1295.935c11.3-52.486-122.745-58.529-123.54-96.236
					c-0.593-28.105,149.422-93.594,259.903-20.005c0,0-2.25-26.177-11.768-59.326c-26.27-91.487-3.768-117.634-3.768-117.634
					c41.622-9.683,229.219,146.619,403.749,189.89"/>
			</g>
			<g>
				<path style="fill:#181558;" d="M1718.362,1293.765c-4.185-28.942-108.681-37.056-129.34-74.003
					c-22.727-36.98,22.158-63.395,50.878-75.494c75.67-31.371,167.773-30.196,236.335,18.261c0,0-31.98,18.931-31.98,18.931
					c-4.401-45.114-24.423-87.778-24.496-134.711c-0.094-19.253,1.666-41.734,14.159-57.821c4.859-6.325,12.663-6.894,19.903-7.243
					c0,0,1.426,0.096,1.426,0.096l2.852,0.236c19.475,2.288,36.6,11.732,53.174,20.038c17.204,9.022,33.493,18.547,49.719,28.055
					c32.373,19.068,64.233,38.149,96.558,56.174c63.704,35.365,130.104,68.423,200.43,86.322
					c11.134,2.699,17.953,13.996,15.129,25.107c-2.798,11.041-14.014,17.724-25.054,14.927
					c-37.878-9.592-74.102-23.125-108.977-38.758c-69.214-30.832-134.246-69.997-198.975-108.207
					c-16.025-9.396-32.039-18.736-47.952-27.074c-12.594-6.323-25.178-13.391-38.396-15.602c0,0.001-0.32-0.07-0.32-0.07
					s0.061,0.053,0.09,0.066c0.149,0.067,0.31,0.005,0.415-0.175l10.959-6.635l0.754-0.927l0.115-0.17
					c0.039-0.067-0.061,0.143-0.095,0.193c-8.781,22.656-3.844,47.864,0.353,71.835c6.406,28.531,16.844,60.321,19.324,90.81
					c2.045,16.218-17.125,28.221-30.798,19.626c-32.496-20.083-71.098-29.434-109.67-28.748
					c-29.694,0.61-60.094,6.334-87.493,17.322c-11.441,4.81-23.265,10.182-31.275,18.481c0,0-0.031,0.035-0.075,0.037
					c0,0-0.095,0.045-0.034-0.049c0.098-0.127,0.181-0.265,0.251-0.409c0.165-0.353,0.284-0.779,0.293-1.178
					c0.669-1.899,0.735-4.684-0.261-6.222c5.942,6.885,17.342,11.332,27.524,16.012c26.139,11.565,58.358,21.21,78.35,46.696
					c8.177,9.887,11.925,26.733,6.356,38.609c-2.167,5.276-8.202,7.795-13.481,5.626
					C1720.742,1302.029,1718.843,1297.96,1718.362,1293.765L1718.362,1293.765z"/>
			</g>
			<g>
				<g>
					<path style="fill:#3A3A3A;" d="M1719.303,2111.221c30.967,37.178,23.431,139.395,70.172,150.578
						c64.384,15.405,80.95-89.499,118.03-123.25"/>
				</g>
				<g>
					<path style="fill:#181558;" d="M1907.484,2138.553c-16.828,15.326-29.415,45.353-44.176,72.119
						c-17.755,32.108-38.692,59.518-73.82,51.139c-17.484-4.161-27.408-21.046-34.57-42.514
						c-11.95-35.962-16.231-84.811-35.631-108.1L1907.484,2138.553z"/>
				</g>
				<g>
					<path style="fill:#FF8080;" d="M1863.308,2210.672c-17.755,32.108-38.692,59.518-73.82,51.139
						c-17.484-4.161-27.408-21.046-34.57-42.514c8.778-8.12,26.278-13.967,49.094-2.803
						C1815.838,2204.319,1841.427,2199.447,1863.308,2210.672z"/>
				</g>
				<g>
					<path style="fill:#181558;" d="M1808.391,2206.38l3.316,4.267c0,0-10.06,6.991-9.338,21.798c0,0-7.309-14.784,0.526-27.378"/>
				</g>
				<g>
					<path style="fill:#181558;" d="M1802.442,2278.891c-5.22,0-10.732-0.649-16.567-2.046
						c-36.611-8.765-46.631-51.733-56.323-93.281c-5.708-24.492-11.611-49.814-22.134-62.446c-5.469-6.563-4.58-16.313,1.987-21.782
						c6.563-5.469,16.313-4.58,21.782,1.987c15.21,18.262,21.963,47.217,28.491,75.215c7.559,32.402,15.371,65.908,33.394,70.22
						c28.491,6.812,44.351-19.36,67.07-63.291c11.416-22.075,22.202-42.93,36.953-56.357c6.318-5.747,16.103-5.293,21.851,1.03
						c5.747,6.318,5.288,16.099-1.03,21.851c-10.644,9.688-20.19,28.145-30.293,47.686
						C1868.687,2234.291,1845.621,2278.891,1802.442,2278.891z"/>
				</g>
			</g>
			<g>
				<path style="fill:#FFFFFF;" d="M1772.826,2094.302l-0.964,82.442c-0.052,4.455,3.104,8.304,7.483,9.127l28.705,5.393
					c4.332,0.814,8.631-1.567,10.24-5.671l30.21-77.075"/>
			</g>
			<g>
				<path style="fill:#181558;" d="M1809.747,2199.155c-1.035,0-2.08-0.093-3.13-0.288l-28.696-5.391
					c-8.086-1.523-13.882-8.599-13.794-16.816l0.967-82.451l15.469,0.186l-0.967,82.441c-0.01,0.698,0.488,1.309,1.182,1.44
					l28.696,5.386c0.708,0.166,1.362-0.244,1.611-0.889l30.21-77.075l14.404,5.645l-30.21,77.075
					C1822.916,2194.98,1816.593,2199.155,1809.747,2199.155z"/>
			</g>
			<g>
				<polygon style="fill:#3A3A3A;" points="1800.55,2112.515 1800.053,2154.416 1812.053,2114.803 				"/>
			</g>
			<g>
				<path style="fill:#FFFFFF;" d="M1920.836,2137.675c-5.589,21.924-27.614,33.406-42.61,34.544
					c-44.066,3.344-64.009-33.763-67.133-52.264c-0.574-3.398-6.16-4.472-8.39-1.845c-9.587,11.294-47.592,36.006-77.244,12.554
					c-17.72-14.015-15.609-41.451-15.609-41.451s30.841-60.499,115.595-51.705
					C1910.199,2046.303,1920.836,2137.675,1920.836,2137.675z"/>
			</g>
			<g>
				<path style="fill:#181558;" d="M1928.33,2139.585c-2.882,31.619-37.365,52.229-67.485,47.788
					c-33.107-3.592-58.477-33.014-65.154-64.498c0.094,2.875,4.04,8.221,7.469,8.976c2.894,1.423,9.088-0.065,11.545-3.438
					c-6.069,7.08-13.645,12.566-21.079,16.915c-44.33,27.884-105.335,0.547-91.487-56.71c2.369-8.412,14.212-7.246,15.422,1.188
					c8.648,41.594,44.052,43.011,72.782,18.369c8.502-9.642,22.591-9.53,31.11-0.918c3.531,3.351,4.921,8.456,5.776,13.233
					c2.25,8.739,7.706,17.827,14.488,23.917c20.688,18.735,57.451,17.652,71.626-8.644c0,0.001,0.318-0.574,0.318-0.574
					C1917.513,2127.847,1929.157,2131.44,1928.33,2139.585L1928.33,2139.585z"/>
			</g>
			<g>
				<path style="fill:#181558;" d="M1796.988,2126.308c-1.89-4.189-10.454-27.979,6.367-84.946
					c2.422-8.188,11.025-12.866,19.214-10.454c8.193,2.417,12.871,11.021,10.454,19.214c-13.594,46.04-7.642,63.911-7.578,64.087
					c-0.146-0.415-0.254-0.605-0.254-0.605L1796.988,2126.308z"/>
			</g>
			<g>
				<path style="fill:#181558;" d="M1759.048,2018.911c-3.644,21.386,16.978,44.342,33.367,58.828
					c11.348,10.03,27.433,12.771,41.462,7.064c20.262-8.241,47.321-23.073,50.965-44.459
					C1890.761,2005.607,1764.967,1984.174,1759.048,2018.911z"/>
			</g>
			<g style="opacity:0.35;">
				<path style="fill:#FFFFFF;" d="M1790.164,2016.472c-0.674,3.956,7.551,8.954,13.973,12.211
					c4.447,2.255,10.397,3.269,15.34,2.614c7.138-0.947,16.554-2.939,17.228-6.895
					C1837.8,2017.976,1791.259,2010.046,1790.164,2016.472z"/>
			</g>
			<g>
				<path style="fill:#181558;" d="M2234.37,2129.512c-2.214-30.377-10.693-61.989-23.44-87.78
					c-13.857-29.216-36.292-51.04-68.721-53.391c-48.542-4.665-87.985,31.666-117.123,67.953
					c-6.037,7.539-17.043,8.755-24.582,2.717c-16.401-13.029,1.079-57.388,10.229-72.262
					c48.049-81.212,166.489-99.298,228.472-23.005c37.966,47.468,47.575,115.646,28.1,171.966
					C2260.363,2153.407,2234.435,2148.257,2234.37,2129.512L2234.37,2129.512z"/>
			</g>
			<g>
				<path style="fill:#181558;" d="M1482.612,1942.597c12.895-45.789,41.697-88.363,86.359-109.529
					c54.655-25.976,122.471-6.062,143.352,52.739c11.965,32.688,11.197,66.727-4.928,97.048
					c-6.501,11.509-24.692,8.391-27.105-4.429c-5.155-24.716-11.15-51.433-20.718-69.426c-9.281-17.146-22.057-24.189-40.117-25.859
					c-46.862-3.484-81.709,38.24-111.507,72.182C1498.339,1967.495,1478.566,1957.417,1482.612,1942.597L1482.612,1942.597z"/>
			</g>
			<g>
				<path style="fill:#FFFFFF;" d="M2350.293,2790.441c0,0,226.931-46.915,405.645-165.617
					c146.297-97.171,239.634-240.375,174.333-360.482c-21.075-38.763-68.925-67.772-133.954-57.011
					c-84.642,14.007-162.729,99.317-238.108,147.191c-182.06,115.629-334.811,122.687-334.811,122.687"/>
			</g>
			<g style="opacity:0.25;">
				<path style="fill:#181558;" d="M2410.767,2737.053c-28.455,5.647-69.298,8.118-53.729-13.899
					c21.255-30.06,118.557-57.562,224.739-110.653c72.092-36.046,181.069-98.358,190.021-76.023
					C2792.927,2589.201,2531.479,2713.094,2410.767,2737.053z"/>
			</g>
			<g style="opacity:0.25;">
				<path style="fill:#181558;" d="M2435.258,2419.831c-68.532,41.809-135.029,71.01-198.472,90.476l-13.406-33.094
					C2223.38,2477.213,2312.264,2473.099,2435.258,2419.831z"/>
			</g>
			<g>
				<path style="fill:#181558;" d="M2348.206,2780.343c180.474-53.777,411.985-142.209,528.509-295.34
					c38.138-50.294,65.831-115.193,48.769-177.469c-7.464-28.294-23.033-55.551-50.044-69.204
					c-108.466-52.947-213.302,77.645-299.653,130.04c-90.453,57.42-191.702,99.286-298.024,114.671
					c-17.81,2.44-35.222,4.394-53.887,4.468c-5.696,0.022-10.33-4.577-10.352-10.273c-0.022-5.213,3.828-9.537,8.848-10.25
					c33.364-4.744,67.45-13.714,99.849-23.854c81.377-25.763,158.934-63.442,230.259-110.152
					c98.172-67.123,211.525-196.221,342.638-131.177c54.313,28.424,79.104,94.137,77.042,152.952
					c-12.648,183.607-212.076,308.563-365.546,371.826c-81.99,33.498-166.813,58.97-254.232,73.957
					C2339.496,2802.361,2335.371,2783.872,2348.206,2780.343L2348.206,2780.343z"/>
			</g>
			<g>
				<path style="fill:#FFFFFF;" d="M2269.306,3012.011c-318.745-30.111-341.362,323.69-211.736,417.786
					c-87.686,25.271-88.358,112.915-56.118,145.396c23.214,23.387,54.156,27.126,69.232,27.724
					c26.769,1.062,226.443,13.095,253.001,1.577c115.629-50.147,192.959-179.589,200.218-318.827
					c6.585-126.322-48.123-259.676-80.999-351.675"/>
			</g>
			<g>
				<path style="fill:#FFFFFF;" d="M2523.92,3285.66c-7.255,139.232-84.592,268.686-200.242,318.813
					c-26.546,11.547-226.213-0.487-252.98-1.549c-15.086-0.619-46.012-4.336-69.239-27.74
					c-12.477-12.565-20.042-33.403-19.512-55.702c0.797-35.261,21.856-74.195,75.611-89.68
					c-129.631-94.104-106.978-447.913,211.746-417.784l173.608-78.044c25.749,72.027,64.815,169.405,77.425,268.907
					C2523.877,3230.489,2525.336,3258.229,2523.92,3285.66z"/>
			</g>
			<g style="opacity:0.25;">
				<path style="fill:#181558;" d="M2255.336,3408.204c-46.053,4.457-65.386-25.707-169.333-21.318
					c-48.654,2.054-91.093-150.89,35.208-150.25C2284.873,3237.465,2307.31,3403.174,2255.336,3408.204z"/>
			</g>
			<g style="opacity:0.25;">
				<path style="fill:#181558;" d="M2523.92,3285.66c-7.255,139.232-84.592,268.686-200.242,318.813
					c-26.546,11.547-226.213-0.487-252.98-1.549c-15.086-0.619-46.012-4.336-69.239-27.74
					c-12.477-12.565-20.042-33.403-19.512-55.702c25.131,12.653,71.629,25.307,157.194,25.439
					c149.275,0.177,238.115,0,171.883-82.866c0,0,207.719,26.413,209.312-259.174
					C2523.877,3230.489,2525.336,3258.229,2523.92,3285.66z"/>
			</g>
			<g>
				<path style="fill:#181558;" d="M2268.337,3022.277c-100.442-7.096-202.897,30.903-243.151,127.619
					c-35.265,82.343-27.824,203.91,45.073,263.668c13.182,9.762,8.644,31.946-6.984,36.051
					c-21.962,6.334-40.759,18.536-51.015,36.268c-13.11,21.94-13.803,53.923,2.905,73.745c9.775,10.381,22.252,16.615,36.639,20.056
					c9.414,2.994,25.988,2.591,35.94,3.41c0-0.001,39.739,1.951,39.739,1.951c58.608,2.227,118.17,5.992,176.404,2.242
					c5.867-0.57,11.912-1.402,13.013-2.368c34-14.986,64.213-37.412,89.734-64.588c110.6-120.612,115.413-279.654,68.279-429.76
					c-14.62-50.13-33.243-99.257-51.429-149.638c-8.509-25.581,28.544-39.604,38.794-14.004
					c55.967,149.767,116.838,318.538,59.448,477.931c-32.228,94.573-100.555,183.214-195.808,220.596
					c-39.735,7.491-80.635,3.991-120.279,3.838c-26.765-0.727-53.438-1.811-80.076-3.048c-13.179-0.691-47.381-2.292-60.186-2.973
					c-31.746-2.034-64.873-15.149-85.081-41.137c-24.97-33.993-24.553-81.717-3.526-117.269
					c16.104-27.865,45.17-46.424,75.081-54.883c0.01-0.016-6.399,36.504-6.399,36.503c-24.907-17.477-43.296-41.658-56.121-67.345
					c-49.235-101.468-31.302-234.187,49.987-313.96c60.184-59.344,150.167-75.259,230.955-63.435
					C2283.254,3003.817,2281.37,3022.76,2268.337,3022.277L2268.337,3022.277z"/>
			</g>
			<g>
				<path style="fill:#181558;" d="M2080.918,3471.468c-11.727,26.679-11.85,58.844,4.189,83.126c0,0,4.482,6.617,4.482,6.617
					c1.714,1.952,6.336,7.075,7.99,8.971c0,0,3.084,2.669,3.084,2.669c5.61,5.41,13.002,10.212,19.304,14.531
					c0,0-26.707,31.432-26.707,31.432c-6.641-7.811-13.721-16.384-18.928-25.232
					C2049.775,3555.258,2051.834,3506.326,2080.918,3471.468L2080.918,3471.468z"/>
			</g>
			<g>
				<path style="fill:#181558;" d="M2175.283,3471.468c-8.038,22.007-11.207,47.163-5.396,69.442
					c5.271,20.907,19.406,36.269,38.084,45.59c0,0-24.478,33.196-24.478,33.196c-10.522-9.987-19.775-21.883-25.784-35.26
					C2140.29,3546.705,2152.08,3503.128,2175.283,3471.468L2175.283,3471.468z"/>
			</g>
			<g>
				<path style="fill:#181558;" d="M1523.804,3420.75c-17.748,23.044-25.921,54.275-15.016,81.274
					c1.808,3.758,3.641,7.567,5.653,11.185c1.707,2.341,5.504,8.054,7.283,10.231c0,0,2.925,3.133,2.925,3.133
					c5.271,6.344,12.599,12.097,18.74,17.335c0,0-29.456,28.871-29.456,28.871c-6.205-8.781-12.917-18.332-17.475-28.083
					C1473.336,3500.3,1484.49,3450.914,1523.804,3420.75L1523.804,3420.75z"/>
			</g>
			<g>
				<path style="fill:#181558;" d="M1595.19,3428.6c-5.65,22.457-7.242,46.851-2.31,69.077c4.44,20.132,15.84,37.172,33.775,46
					c0,0-25.037,32.777-25.037,32.777C1559.295,3537.316,1568.042,3473.183,1595.19,3428.6L1595.19,3428.6z"/>
			</g>
			<g>
				<path style="fill:#181558;" d="M2301.909,3462.058c-68.143-21.49-141.344-29.115-211.97-17.854
					c-8.283,1.082-20.765,4.195-28.999,5.938c0,0-6.74-40.691-6.74-40.691c9.431-0.39,23.624-1.569,32.935-1.227
					C2161.482,3408.646,2235.912,3428.434,2301.909,3462.058L2301.909,3462.058z"/>
			</g>
			<g>
				<path style="fill:#FF7C1A;" d="M816.951,2179.399c353.227-95.92,497.31,179.085,478.664,616.87
					c-16.211,380.604-126.707,470.026-179.613,484.393c-52.906,14.367-193.456-6.883-399.952-327.01
					C478.531,2585.429,463.724,2275.319,816.951,2179.399z"/>
			</g>
			<g>
				<path style="fill:#FF7C1A;" d="M816.951,2179.399c353.227-95.92,497.31,179.085,478.664,616.87
					c-16.211,380.604-126.707,470.026-179.613,484.393c-52.906,14.367-193.456-6.883-399.952-327.01
					C478.531,2585.429,463.724,2275.319,816.951,2179.399z"/>
			</g>
			<g>
				<path style="fill:#FF7C1A;" d="M1295.626,2796.271c-16.223,380.614-126.718,470.03-179.624,484.397
					c-52.906,14.367-193.452-6.879-399.942-327.015c-75.821-117.524-128.943-229.117-154.635-329.743
					c-14.714-57.499-20.451-111.399-16.338-160.755c11.174-134.923,95.796-235.941,271.863-283.753
					c176.068-47.812,300.162-3.47,378.046,107.268c28.513,40.496,50.827,89.895,67.217,146.939
					C1290.941,2533.388,1301.566,2656.545,1295.626,2796.271z"/>
			</g>
			<g style="opacity:0.3;">
				<path style="fill:#FFFFFF;" d="M621.392,2552.118c1.157,86.603,43.148,241.235,92.334,265.346
					c71.034,34.82,61.817-126.685,90.191-98.732c28.374,27.954,58.686,50.924,77.589,14.589
					c22.506-43.259-14.049-263.623-77.22-274.32c-53.062-8.985-36.618,81.258-79.254,46.03
					C678.965,2466.967,620.204,2463.155,621.392,2552.118z"/>
			</g>
			<g style="opacity:0.3;">
				<path style="fill:#FFFFFF;" d="M1083.192,2585.171c30.099,65.574,76.322,91.589,103.145,60.636
					c40.726-46.996-13.286-270.517-83.636-267.842C1048.923,2380.01,1041.26,2493.818,1083.192,2585.171z"/>
			</g>
			<g>
				<path style="fill:#FF5D1D;" d="M827.84,3012.185c9.425,68.562,189.095,254.093,275.106,220.396
					c108.402-42.469,147.362-308.115,118.172-335.588c-14.23-13.393-87.127,73.092-196.163,99.358
					C926.535,3020.058,823.009,2977.045,827.84,3012.185z"/>
			</g>
			<g style="opacity:0.5;">
				<path style="fill:#FFFFFF;" d="M1160.804,2245.397c-83.07-58.535-194.115-74.087-335.618-35.662
					s-229.429,108.009-271.482,200.521c27.159-108.398,111.029-189.519,263.245-230.854
					C969.165,2138.068,1082.547,2165.625,1160.804,2245.397z"/>
			</g>
			<g>
				<path style="fill:#181558;" d="M1089.864,3304.501c-29.541,0-72.398-9.126-127.412-44.575
					c-83.325-53.687-172.056-152.974-263.731-295.098c-156.782-243.052-209.932-448.979-153.701-595.522
					c39.058-101.802,128.73-172.388,266.528-209.81l0,0c137.803-37.417,250.854-21.87,336.04,46.177
					c122.627,97.974,180.942,302.505,168.633,591.475c-7.197,168.975-33.525,299.502-78.247,387.964
					c-42.729,84.512-91.372,108.608-116.567,115.454C1113.624,3302.68,1103.072,3304.501,1089.864,3304.501z M822.359,2199.301
					L822.359,2199.301c-124.394,33.779-204.746,95.947-238.833,184.78c-51.318,133.755,0.498,326.846,149.854,558.394
					c219.785,340.723,352.803,324.922,377.217,318.286c24.429-6.636,147.158-60.254,164.414-465.371
					c11.729-275.288-41.24-468.066-153.169-557.495C1047.51,2178.51,946.724,2165.536,822.359,2199.301z"/>
			</g>
			<g>
				<path style="fill:#181558;" d="M1025.554,2968.69c47.368-15.073,94.336-33.29,138.906-55.117
					c32.615-16.273,64.459-34.163,91.011-58.417c8.349-7.737,15.593-16.143,20.517-24.592c5.747-9.858,18.398-13.191,28.257-7.444
					c10.693,6.129,13.546,20.653,6.016,30.392c-17.591,23.41-40.475,38.33-64.739,52.038
					c-45.716,24.804-94.169,41.044-143.601,55.143c-24.465,6.817-48.967,12.913-73.884,18.005
					C1021.755,2979.912,1019.246,2970.625,1025.554,2968.69L1025.554,2968.69z"/>
			</g>
			<g>
				<path style="fill:#181558;" d="M801.238,2817.216c-53.308,22.615-112.855,36.324-170.444,21.322
					c-26.246-7.77-16.192-46.241,10.547-40.091c23.643,11.048,50.037,16.977,76.833,17.343c26.407,0.517,53.724-2.261,79.543-8.266
					C803.788,2805.856,807.008,2814.595,801.238,2817.216L801.238,2817.216z"/>
			</g>
			<g>
				<path style="fill:#181558;" d="M1064.202,3108.904c-51.715,23.942-106.854,39.988-164.133,43.066
					c-19.507,0.809-39.402-0.477-59.461-3.956c-26.752-5.483-20.059-44.606,7.073-40.77c33.714,10.984,70.195,14.36,106.12,11.866
					c35.782-2.491,72.097-9.072,106.438-19.725C1066.275,3097.278,1070.04,3106.063,1064.202,3108.904L1064.202,3108.904z"/>
			</g>
			<g>
				<path style="fill:#181558;" d="M1040.525,2560.802c61.476-23.958,124.173-54.931,168.211-105.052
					c13.451-16.021,22.88-34.077,25.392-51.852c1.599-11.301,12.056-19.167,23.357-17.568c12.261,1.638,20.4,14.102,17.021,25.987
					c-7.258,27.288-23.442,49.286-41.379,66.412c-18.12,17.242-38.313,30.622-59.063,42.113
					c-41.449,22.486-85.188,38.434-130.691,49.871C1037.095,2572.159,1034.309,2562.961,1040.525,2560.802L1040.525,2560.802z"/>
			</g>
			<g>
				<path style="fill:#181558;" d="M825.891,2581.038c-96.028,33.194-219.152,39.752-296.042-37.896
					c-8.164-7.975-8.315-21.056-0.342-29.218c7.976-8.162,21.057-8.315,29.219-0.34c7.774,8.962,15.626,17.906,25.086,25.386
					c46.365,37.171,108.434,45.596,166.56,42.691c24.214-1.37,48.801-4.673,72.319-10.424
					C828.916,2569.446,832.141,2578.707,825.891,2581.038L825.891,2581.038z"/>
			</g>
			<g>
				<path style="fill:#FF5D1D;" d="M702.684,2274.021c36.619-43.369,219.315-85.249,245.225-67.221s101.967,90.368-101.086,148.504
					C704.431,2396.071,683.831,2296.349,702.684,2274.021z"/>
			</g>
			<g>
				<path style="fill:#5AE83D;" d="M769.453,2336.044c0,0-39.009-177.203-206.518-214.692
					c-123.585-27.658-94.925-80.072-79.145-100.369c16.428-21.129,81.485-48.656,141.734-11.269
					c114.319,70.94,162.296,245.601,183.439,314.143"/>
			</g>
			<g>
				<path style="fill:#52BF2E;" d="M808.958,2323.844l-39.51,12.188c0,0-30.181-137.133-151.511-195.635
					c-16.569-8.012-34.857-14.546-55-19.06c-123.592-27.63-94.932-80.047-79.155-100.349
					c16.435-21.146,81.505-48.657,141.742-11.264c59.44,36.887,100.951,101.817,130.056,165.28
					C782.486,2233.602,798.811,2290.949,808.958,2323.844z"/>
			</g>
			<g>
				<path style="fill:#C2FFAB;" d="M523.447,2059.523c2.084,15.027,128.498-37.65,245.975,213.913c0,0,25.107,42.204,6.965-2.77
					C681.381,2035.152,520.605,2039.035,523.447,2059.523z"/>
			</g>
			<g>
				<path style="fill:#C2FFAB;" d="M769.421,2273.453c-17.51-37.512-35.21-68.24-52.701-93.446
					c5.902,2.939,11.292,4.344,16.125,4.584c15.407,24.315,30.136,52.813,43.546,86.082
					C794.507,2315.63,769.421,2273.453,769.421,2273.453z"/>
			</g>
			<g style="opacity:0.5;">
				<path style="fill:#FFFFFF;" d="M779.844,2234.25c-4.79-12.008-9.978-24.31-15.654-36.658
					c-29.105-63.463-70.615-128.393-130.056-165.28c-60.237-37.393-125.306-9.882-141.742,11.264
					c-6.479,8.351-15.143,22.085-14.509,37.325c-18.06-23.322-3.694-47.563,5.898-59.912
					c16.435-21.146,81.505-48.657,141.742-11.264c59.44,36.887,100.951,101.817,130.056,165.28
					C764.85,2195.215,772.878,2215.279,779.844,2234.25z"/>
			</g>
			<g>
				<path style="fill:#389113;" d="M808.958,2323.844l-39.51,12.188c0,0-30.181-137.133-151.511-195.635
					c30.222,6.476,65.023,17.139,89.974,34.35c22.099,15.278,37.358,10.822,47.668,0.258
					C782.486,2233.602,798.811,2290.949,808.958,2323.844z"/>
			</g>
			<g>
				<path style="fill:#8ED372;" d="M769.421,2273.453c-17.51-37.512-35.21-68.24-52.701-93.446
					c5.902,2.939,11.292,4.344,16.125,4.584c15.407,24.315,30.136,52.813,43.546,86.082
					C794.507,2315.63,769.421,2273.453,769.421,2273.453z"/>
			</g>
			<g>
				<path style="fill:#181558;" d="M754.351,2339.389c-0.371-1.675-39.189-168.115-194.795-202.944
					c-58.877-13.179-92.471-33.423-102.7-61.899c-7.09-19.746-2.002-41.548,14.722-63.057c21.143-27.19,95.459-56.275,162.1-14.915
					c113.232,70.261,162.72,232.908,186.504,311.072l3.56,11.65l-29.561,9.121l-3.594-11.768
					c-22.686-74.546-69.883-229.668-173.218-293.789c-54.453-33.789-110.884-5.869-121.367,7.612
					c-6.899,8.872-14.238,21.904-10.029,33.613c3.525,9.824,18.657,28.364,80.342,42.173
					c175.107,39.189,216.567,218.833,218.247,226.46L754.351,2339.389z"/>
			</g>
			<g>
				<path style="fill:#5AE83D;" d="M831.709,2316.84c0,0,9.274-301.475,177.8-332.153c53.593-9.756,71.374,9.196,73.669,27.427
					c4.112,32.657-46.887,47.34-76.09,66.739c-98.26,65.275-103.381,155.793-126.95,238.782"/>
			</g>
			<g>
				<path style="fill:#52BF2E;" d="M1083.172,2012.128c3.449,27.439-32.035,42.201-60.773,57.698
					c-5.44,2.959-10.652,5.933-15.303,9.011c-98.276,65.281-103.391,155.822-126.947,238.789l-48.447-0.797
					c0,0,2.417-78.063,26.967-158.801c23.728-77.894,68.085-158.278,150.845-173.33
					C1063.092,1974.941,1080.889,1993.886,1083.172,2012.128z"/>
			</g>
			<g>
				<path style="fill:#C2FFAB;" d="M853.777,2275.115c41.877-234.704,180.864-275.398,185.342-260.88
					c4.478,14.518-130.256,30.34-178.365,263.649"/>
			</g>
			<g>
				<path style="fill:#C2FFAB;" d="M903.443,2151.713c-16.861,32.814-31.939,74.085-42.697,126.177l-6.952-2.772
					c8.074-45.364,19.799-83.477,33.489-115.352c3.688-1.177,7.639-2.907,11.843-5.344
					C900.524,2153.597,901.982,2152.714,903.443,2151.713z"/>
			</g>
			<g style="opacity:0.5;">
				<path style="fill:#FFFFFF;" d="M1083.172,2012.128c1.059,8.311-1.477,15.445-6.293,21.779
					c-3.172-17.689-21.508-35.13-73.369-25.681c-82.76,15.053-127.117,95.437-150.845,173.33c-1.308,4.249-2.533,8.499-3.681,12.726
					c2.751-11.854,5.965-24.018,9.685-36.255c23.728-77.894,68.085-158.278,150.845-173.33
					C1063.092,1974.941,1080.889,1993.886,1083.172,2012.128z"/>
			</g>
			<g>
				<path style="fill:#389113;" d="M1022.399,2069.826c-5.44,2.959-10.652,5.933-15.303,9.011
					c-98.276,65.281-103.391,155.822-126.947,238.789l-48.447-0.797c0,0,2.417-78.063,26.967-158.801
					c9.011,4.826,22.423,6.847,40.461-3.593C931.699,2135.64,986.942,2066.971,1022.399,2069.826z"/>
			</g>
			<g>
				<path style="fill:#C2FFAB;" d="M903.443,2151.713c-16.861,32.814-31.939,74.085-42.697,126.177l-6.952-2.772
					c8.074-45.364,19.799-83.477,33.489-115.352c3.688-1.177,7.639-2.907,11.843-5.344
					C900.524,2153.597,901.982,2152.714,903.443,2151.713z"/>
			</g>
			<g>
				<path style="fill:#181558;" d="M895.015,2321.86l-29.756-8.447c3.916-13.789,7.412-28.203,10.791-42.139
					c17.622-72.642,35.84-147.754,122.481-205.308c8.154-5.415,17.651-10.381,26.836-15.186
					c25.869-13.525,44.058-24.082,42.466-36.733c-0.552-4.409-2.578-7.837-6.191-10.486c-5.161-3.784-18.428-9.294-49.365-3.657
					c-154.243,28.079-165.015,314.529-165.107,317.415l-30.918-0.952c0.396-12.822,11.714-314.353,190.488-346.897
					c32.275-5.872,56.904-2.798,73.193,9.146c10.386,7.617,16.987,18.826,18.594,31.565c4.399,34.951-30.659,53.286-58.828,68.013
					c-8.867,4.639-17.241,9.019-24.048,13.54c-76.553,50.854-92.573,116.904-109.536,186.831
					C902.662,2292.787,899.097,2307.499,895.015,2321.86z"/>
			</g>
			<g>
				<path style="fill:#5AE83D;" d="M787.492,2313.762c0,0-119.992-310.92,7.622-456.664
					c106.169-121.252,213.273,5.998,153.376,105.11c-55.414,91.695-97.707,167.81-87.149,345.492"/>
			</g>
			<g>
				<path style="fill:#52BF2E;" d="M948.494,1962.201c-36.653,60.65-67.552,114.482-81.242,195.38
					c-7.006,41.418-9.481,89.937-5.911,150.104l-73.858,6.066c0,0-25.405-65.83-40.393-151.09
					c-17.602-100.056-20.864-226.88,48.037-305.557C901.293,1735.839,1008.391,1863.093,948.494,1962.201z"/>
			</g>
			<g style="opacity:0.5;">
				<path style="fill:#FFFFFF;" d="M964.021,1921.219c-2.807-77.566-86.956-136.114-170.518-40.655
					c-35.026,40.003-51.417,92.453-56.718,147.527c2.66-63.454,18.346-125.326,58.342-170.986
					C886.978,1752.208,979.495,1833.278,964.021,1921.219z"/>
			</g>
			<g>
				<path style="fill:#389113;" d="M867.252,2157.582c-7.006,41.418-9.481,89.937-5.911,150.104l-73.858,6.066
					c0,0-25.405-65.83-40.393-151.09C779.478,2186.635,831.635,2211.113,867.252,2157.582z"/>
			</g>
			<g>
				<path style="fill:#389113;" d="M824.704,2188.588c0.157,31.497,1.851,65.55,5.613,102.228
					c-14.392,11.363-12.551-0.14-12.551-0.14c-4.985-35.161-7.289-69.025-7.491-101.177
					C815.119,2189.775,819.952,2189.503,824.704,2188.588z"/>
			</g>
			<g>
				<path style="fill:#181558;" d="M773.062,2319.33c-5.039-13.047-121.836-321.379,10.415-472.419
					c58.896-67.273,117.954-63.401,153.599-37.339c41.499,30.344,62.065,98.725,24.653,160.635
					c-51.274,84.841-95.552,158.113-84.951,336.575l-30.879,1.836c-11.172-188.066,37.656-268.867,89.355-354.412
					c28.237-46.731,13.818-97.539-16.435-119.663c-31.846-23.272-73.726-11.04-112.07,32.744
					c-119.941,136.982-5.991,437.888-4.824,440.911L773.062,2319.33z"/>
			</g>
			<g>
				<path style="fill:#C2FFAB;" d="M888.642,1871.103c-11.66-2.365-105.151,177.764-70.854,419.585c0,0-1.864,11.506,12.509,0.116
					C800.279,1996.985,900.303,1873.469,888.642,1871.103z"/>
			</g>
			<g>
				<path style="fill:#8ED372;" d="M824.704,2188.588c0.157,31.497,1.851,65.55,5.613,102.228
					c-14.392,11.363-12.551-0.14-12.551-0.14c-4.985-35.161-7.289-69.025-7.491-101.177
					C815.119,2189.775,819.952,2189.503,824.704,2188.588z"/>
			</g>
			<g>
				<path style="fill:#FF7C1A;" d="M702.684,2274.021c-28.014,36.732,60.258,43.682,137.01,17.245
					c78.163-26.924,143.937-69.161,102.13-87.882c0,0,224.333,91.666-88.308,176.567
					C566.631,2457.858,702.684,2274.021,702.684,2274.021z"/>
			</g>
			<g>
				<path style="fill:#181558;" d="M702.683,2274.021c-1.9,5.267-3.423,12.677,1.255,15.996c14.995,7.498,35.374,2.97,52.358,0.997
					c25.283-4.041,50.401-10.391,74.417-18.468c36.03-13.106,74.714-24.691,107.486-44.08c4.941-3.203,9.235-6.888,10.815-10.399
					c2.109-3.526-1.814-10.014-7.19-14.683c3.601,0.342,7.19,1.229,10.791,3.206c13.565,7.729,7.946,26.091,0.319,36.092
					c-27.411,35.468-68.587,54.429-109.154,68.955c-27.872,9.098-56.973,13.304-86.344,11.461
					c-20.809-2.184-52.156-5.791-63.211-27.279C690.506,2286.926,695.88,2278.484,702.683,2274.021L702.683,2274.021z"/>
			</g>
			<g>
				<path style="fill:#FFFFFF;" d="M1372.446,2609.037c0-46.469-29.342-151.832-101.938-131.17
					c-53.899,15.341-95.232,92.231-71.677,122.553c23.154,29.807,73.893,32.735,106.219-13.912"/>
			</g>
			<g>
				<path style="fill:#181558;" d="M1362.134,2609.038c-5.938-36.403-30.596-117.426-77.14-112.363
					c-28.896,4.25-55.437,34.497-66.168,61.463c-3.715,10.249-6.819,20.149-3.14,29.035c12.674,18.319,40.336,19.328,59.732,8.446
					c7.271-3.828,14.462-9.188,21.546-15.319c8.201-7.316,20.983,2.224,16.562,12.082c-13.706,34.131-53.163,57.146-90.019,47.577
					c-82.129-23.169-56.588-110.978-8.021-154.901c38.852-36.942,98.664-45.124,134.34,0.717
					c14.876,18.781,22.744,39.481,28.001,60.091c4.832,20.771,7.244,41.638,4.934,63.173c-0.613,5.691-5.72,9.81-11.414,9.199
					C1366.388,2617.711,1362.663,2613.769,1362.134,2609.038L1362.134,2609.038z"/>
			</g>
			<g>
				<g>
					<circle style="fill:#FF8080;" cx="2780.858" cy="2391.911" r="71.759"/>
				</g>
				<g>
					
						<ellipse transform="matrix(0.7071 -0.7071 0.7071 0.7071 -801.0172 2624.5564)" style="fill:#FF8080;" cx="2767.611" cy="2279.191" rx="27.15" ry="27.15"/>
				</g>
				<g>
					
						<ellipse transform="matrix(0.4634 -0.8862 0.8862 0.4634 -545.2708 3827.3491)" style="fill:#FF8080;" cx="2887.507" cy="2363.89" rx="27.15" ry="27.15"/>
				</g>
				<g>
					
						<ellipse transform="matrix(0.6863 -0.7273 0.7273 0.6863 -774.8615 2790.5085)" style="fill:#FF8080;" cx="2847.428" cy="2293.502" rx="31.701" ry="31.701"/>
				</g>
			</g>
		</g>
	</g>
</g>
</svg>
